<?xml version="1.0" encoding="UTF-8"?>
<svg xmlns="http://www.w3.org/2000/svg" xmlns:xlink="http://www.w3.org/1999/xlink" version="1.2" >
<font id="Josefin Sans Light Italic">
<font-face  font-family="Josefin Sans" units-per-em="1000" ascent="750" descent="-250" font-style="italic" font-weight="300" font-stretch="normal" slope="-7.5" cap-height="700" x-height="400" underline-position="-75" underline-thickness="50" />
<missing-glyph  horiz-adv-x="300" d="" />
<glyph glyph-name=".null" d="" />
<glyph glyph-name="nonmarkingreturn" unicode="&#xd;" horiz-adv-x="300" d="" />
<glyph glyph-name="space" unicode="&#x20;" horiz-adv-x="252" d="" />
<glyph glyph-name="t" unicode="t" horiz-adv-x="266" d="M133 557 L168 557 L146 381 L269 381 L265 350 L142 350 L100 0 L65 0 L108 350 L23 350 L27 381 L112 381 L133 557 Z " />
<glyph glyph-name="b" unicode="b" horiz-adv-x="513" d="M465 194 Q460 152 440 115 Q420 78 389.5 51 Q359 24 320.5 8.5 Q282 -7 239 -7 Q180 -7 138 23.5 Q96 54 82 99 L77 48 L71 0 L36 0 L129 758 L164 758 L106 288 Q119 310 138 330 Q157 350 181 364.5 Q205 379 232.5 387.5 Q260 396 290 396 Q333 396 367.5 380.5 Q402 365 425.5 338 Q449 311 459.5 274 Q470 237 465 194 Z M429 194 Q433 229 424 260 Q415 291 395.5 313.5 Q376 336 347.5 349 Q319 362 283 362 Q245 362 210.5 347.5 Q176 333 150 307.5 Q124 282 108.5 248.5 Q93 215 93 177 Q93 145 104 118 Q115 91 135 70.5 Q155 50 182.5 38.5 Q210 27 243 27 Q278 27 310 40 Q342 53 367 75.5 Q392 98 408.5 128.5 Q425 159 429 194 Z " />
<glyph glyph-name="l" unicode="l" horiz-adv-x="179" d="M74 0 L39 0 L132 758 L167 758 L74 0 Z " />
<glyph glyph-name="m" unicode="m" horiz-adv-x="736" d="M83 387 L112 387 L102 287 Q130 335 175.5 365 Q221 395 280 395 Q332 395 360.5 366.5 Q389 338 390 292 Q417 338 462 366.5 Q507 395 564 395 Q621 395 649.5 363 Q678 331 673 280 L639 0 L604 0 L638 274 Q641 309 620.5 334 Q600 359 556 361 Q524 361 494.5 350.5 Q465 340 442 321.5 Q419 303 403 277.5 Q387 252 382 221 L354 0 L320 0 L354 274 Q356 309 336 334 Q316 359 272 361 Q239 361 209 350 Q179 339 155.5 320 Q132 301 116.5 274 Q101 247 97 216 L70 0 L36 0 L83 387 Z " />
<glyph glyph-name="i" unicode="i" horiz-adv-x="172" d="M87 519 Q87 533 98 543 Q109 553 122 553 Q133 553 140.5 545 Q148 537 148 525 Q148 511 137.5 501.5 Q127 492 114 492 Q103 492 95 500 Q87 508 87 519 Z M70 0 L36 0 L84 387 L118 387 L70 0 Z " />
<glyph glyph-name="h" unicode="h" horiz-adv-x="454" d="M129 758 L163 758 L107 293 Q131 338 177.5 366.5 Q224 395 282 395 Q338 396 367 363.5 Q396 331 391 280 L357 0 L322 0 L356 274 Q359 309 338.5 334 Q318 359 274 361 Q241 361 211 350 Q181 339 157 320 Q133 301 117 274 Q101 247 97 216 L70 0 L36 0 L129 758 Z " />
<glyph glyph-name="c" unicode="c" horiz-adv-x="401" d="M321 63 Q326 57 330.5 50.5 Q335 44 340 37 Q311 17 277.5 5 Q244 -7 207 -7 Q168 -7 135 7 Q102 21 78.5 45.5 Q55 70 41.5 103 Q28 136 28 174 Q28 219 46.5 259.5 Q65 300 96.5 330.5 Q128 361 169.5 378.5 Q211 396 256 396 Q294 396 325 384 Q356 372 380 352 Q374 345 367 339 Q360 333 354 325 Q334 342 308.5 352 Q283 362 253 362 Q215 362 180.5 347.5 Q146 333 120 307.5 Q94 282 78.5 248.5 Q63 215 63 177 Q63 145 74 118 Q85 91 104.5 70.5 Q124 50 151 38.5 Q178 27 211 27 Q242 27 270 36.5 Q298 46 321 63 Z " />
<glyph glyph-name="q" unicode="q" horiz-adv-x="514" d="M29 172 Q29 219 47.5 260 Q66 301 97 331 Q128 361 169 378.5 Q210 396 255 396 Q318 396 358.5 364.5 Q399 333 413 288 L426 387 L460 387 L389 -186 L355 -186 L384 47 Q385 61 387 74 Q389 87 391 100 Q365 55 316 24 Q267 -7 205 -7 Q166 -7 133.5 7 Q101 21 77.5 45 Q54 69 41.5 101.5 Q29 134 29 172 Z M64 177 Q64 145 75 118 Q86 91 105.5 70.5 Q125 50 152.5 38.5 Q180 27 212 27 Q250 27 284.5 41.5 Q319 56 345 81.5 Q371 107 386.5 140 Q402 173 402 211 Q402 243 391 270.5 Q380 298 360 318.5 Q340 339 313 350.5 Q286 362 253 362 Q215 362 180.5 347.5 Q146 333 120 307.5 Q94 282 79 248.5 Q64 215 64 177 Z " />
<glyph glyph-name="u" unicode="u" horiz-adv-x="454" d="M352 -3 L325 -3 L334 101 Q308 52 260 22 Q212 -8 154 -8 Q98 -8 69 24.5 Q40 57 45 108 L79 387 L114 387 L80 114 Q78 79 98 54 Q118 29 162 26 Q195 26 225 37 Q255 48 279 67 Q303 86 319 112.5 Q335 139 339 171 L366 387 L400 387 L352 -3 Z " />
<glyph glyph-name="r" unicode="r" horiz-adv-x="271" d="M272 354 Q240 353 210 343 Q180 333 156 314.5 Q132 296 116 270.5 Q100 245 97 214 L70 0 L36 0 L84 387 L112 387 Q112 383 110.5 368 Q109 353 107.5 336 Q106 319 104.5 304.5 Q103 290 103 287 Q132 337 181.5 365.5 Q231 394 282 395 L272 354 Z " />
<glyph glyph-name="e" unicode="e" horiz-adv-x="438" d="M355 47 Q325 22 287 7.5 Q249 -7 207 -7 Q168 -7 135 7 Q102 21 78.5 45.5 Q55 70 41.5 103 Q28 136 28 174 Q28 219 47 259.5 Q66 300 97.5 330.5 Q129 361 170 379 Q211 397 256 397 Q321 397 361.5 359.5 Q402 322 417 264 Q379 250 335 233 Q291 216 245 198 Q199 180 153.5 162.5 Q108 145 68 130 Q82 84 119.5 55.5 Q157 27 210 27 Q244 27 276 39 Q308 51 332 72 L355 47 Z M374 274 Q360 314 329 338 Q298 362 252 362 Q215 362 181 347.5 Q147 333 121 307.5 Q95 282 79 248.5 Q63 215 63 178 Q63 172 63 165.5 Q63 159 64 154 Q100 168 140 183.5 Q180 199 220.5 214.5 Q261 230 300 245 Q339 260 374 274 Z " />
<glyph glyph-name="p" unicode="p" horiz-adv-x="514" d="M467 216 Q467 169 449 128.5 Q431 88 399.5 58 Q368 28 326.5 10.5 Q285 -7 239 -7 Q210 -7 184 1 Q158 9 137.5 23.5 Q117 38 102.5 57 Q88 76 81 99 L77 48 L48 -186 L13 -186 L83 387 L117 387 Q117 385 116 374 Q115 363 113 348 Q111 333 109 316.5 Q107 300 106 288 Q119 310 138 330 Q157 350 181 364.5 Q205 379 232.5 387.5 Q260 396 290 396 Q329 396 362 382.5 Q395 369 418 345 Q441 321 454 288 Q467 255 467 216 Z M431 213 Q431 244 420 271 Q409 298 389.5 318.5 Q370 339 343 350.5 Q316 362 283 362 Q245 362 210.5 347.5 Q176 333 150 307.5 Q124 282 108.5 248.5 Q93 215 93 177 Q93 145 104 118 Q115 91 135 70.5 Q155 50 182.5 38.5 Q210 27 242 27 Q281 27 315 41.5 Q349 56 375 81.5 Q401 107 416 141 Q431 175 431 213 Z " />
<glyph glyph-name="aacute" unicode="&#xe1;" horiz-adv-x="513" d="M28 172 Q28 218 46.5 258.5 Q65 299 96.5 329.5 Q128 360 169 378 Q210 396 255 396 Q286 396 312 387.5 Q338 379 358 364 Q378 349 392 329.5 Q406 310 412 288 Q416 313 419.5 338 Q423 363 428 387 L459 387 L411 0 L377 0 L383 48 Q385 61 386.5 73.5 Q388 86 389 99 Q366 55 317.5 24 Q269 -7 206 -7 Q167 -7 134 7 Q101 21 77.5 45 Q54 69 41 101.5 Q28 134 28 172 Z M63 177 Q63 145 74 118 Q85 91 104.5 70.5 Q124 50 151.5 38.5 Q179 27 211 27 Q249 27 283.5 41.5 Q318 56 344 81.5 Q370 107 385.5 140 Q401 173 401 211 Q401 243 390 270.5 Q379 298 359 318.5 Q339 339 312 350.5 Q285 362 252 362 Q214 362 179.5 347.5 Q145 333 119 307.5 Q93 282 78 248.5 Q63 215 63 177 Z M262 481 L368 614 L406 614 L291 481 L262 481 Z " />
<glyph glyph-name="eacute" unicode="&#xe9;" horiz-adv-x="438" d="M355 47 Q325 22 287 7.5 Q249 -7 207 -7 Q168 -7 135 7 Q102 21 78.5 45.5 Q55 70 41.5 103 Q28 136 28 174 Q28 219 47 259.5 Q66 300 97.5 330.5 Q129 361 170 379 Q211 397 256 397 Q321 397 361.5 359.5 Q402 322 417 264 Q379 250 335 233 Q291 216 245 198 Q199 180 153.5 162.5 Q108 145 68 130 Q82 84 119.5 55.5 Q157 27 210 27 Q244 27 276 39 Q308 51 332 72 L355 47 Z M374 274 Q360 314 329 338 Q298 362 252 362 Q215 362 181 347.5 Q147 333 121 307.5 Q95 282 79 248.5 Q63 215 63 178 Q63 172 63 165.5 Q63 159 64 154 Q100 168 140 183.5 Q180 199 220.5 214.5 Q261 230 300 245 Q339 260 374 274 Z M251 481 L357 614 L395 614 L280 481 L251 481 Z " />
<glyph glyph-name="iacute" unicode="&#xed;" horiz-adv-x="173" d="M70 0 L36 0 L84 387 L118 387 L70 0 Z M96 481 L202 614 L240 614 L125 481 L96 481 Z " />
<glyph glyph-name="oacute" unicode="&#xf3;" horiz-adv-x="483" d="M29 194 Q34 236 54.5 273 Q75 310 105.5 337.5 Q136 365 175 381 Q214 397 256 397 Q295 397 328 383 Q361 369 385 344 Q409 319 422.5 286 Q436 253 436 215 Q436 169 417.5 128.5 Q399 88 367.5 58 Q336 28 294 10.5 Q252 -7 206 -7 Q164 -7 129 8.5 Q94 24 70 51 Q46 78 35 114.5 Q24 151 29 194 Z M64 194 Q59 159 68.5 128.5 Q78 98 97.5 75.5 Q117 53 146 40 Q175 27 210 27 Q248 27 282.5 41.5 Q317 56 343 81 Q369 106 384.5 139.5 Q400 173 400 211 Q400 242 389 270 Q378 298 358 318 Q338 338 310.5 350 Q283 362 251 362 Q216 362 184 349 Q152 336 126.5 313 Q101 290 84.5 259.5 Q68 229 64 194 Z M267 481 L373 614 L411 614 L296 481 L267 481 Z " />
<glyph glyph-name="uacute" unicode="&#xfa;" horiz-adv-x="454" d="M352 -3 L325 -3 L334 101 Q308 52 260 22 Q212 -8 154 -8 Q98 -8 69 24.5 Q40 57 45 108 L79 387 L114 387 L80 114 Q78 79 98 54 Q118 29 162 26 Q195 26 225 37 Q255 48 279 67 Q303 86 319 112.5 Q335 139 339 171 L366 387 L400 387 L352 -3 Z M255 481 L361 614 L399 614 L284 481 L255 481 Z " />
<glyph glyph-name="adieresis" unicode="&#xe4;" horiz-adv-x="513" d="M63 177 Q63 145 74 118 Q85 91 104.5 70.5 Q124 50 151.5 38.5 Q179 27 211 27 Q249 27 283.5 41.5 Q318 56 344 81.5 Q370 107 385.5 140 Q401 173 401 211 Q401 243 390 270.5 Q379 298 359 318.5 Q339 339 312 350.5 Q285 362 252 362 Q214 362 179.5 347.5 Q145 333 119 307.5 Q93 282 78 248.5 Q63 215 63 177 Z M28 172 Q28 218 46.5 258.5 Q65 299 96.5 329.5 Q128 360 169 378 Q210 396 255 396 Q286 396 312 387.5 Q338 379 358 364 Q378 349 392 329.5 Q406 310 412 288 Q416 313 419.5 338 Q423 363 428 387 L459 387 L411 0 L377 0 L383 48 Q385 61 386.5 73.5 Q388 86 389 99 Q366 55 317.5 24 Q269 -7 206 -7 Q167 -7 134 7 Q101 21 77.5 45 Q54 69 41 101.5 Q28 134 28 172 Z M355 505 Q355 519 365.5 529 Q376 539 390 539 Q401 539 408.5 531 Q416 523 416 511 Q416 497 405.5 487.5 Q395 478 382 478 Q371 478 363 486 Q355 494 355 505 Z M183 505 Q183 519 193.5 529 Q204 539 218 539 Q229 539 236.5 531 Q244 523 244 511 Q244 497 233.5 487.5 Q223 478 210 478 Q199 478 191 486 Q183 494 183 505 Z " />
<glyph glyph-name="edieresis" unicode="&#xeb;" horiz-adv-x="438" d="M355 47 Q325 22 287 7.5 Q249 -7 207 -7 Q168 -7 135 7 Q102 21 78.5 45.5 Q55 70 41.5 103 Q28 136 28 174 Q28 219 47 259.5 Q66 300 97.5 330.5 Q129 361 170 379 Q211 397 256 397 Q321 397 361.5 359.5 Q402 322 417 264 Q379 250 335 233 Q291 216 245 198 Q199 180 153.5 162.5 Q108 145 68 130 Q82 84 119.5 55.5 Q157 27 210 27 Q244 27 276 39 Q308 51 332 72 L355 47 Z M374 274 Q360 314 329 338 Q298 362 252 362 Q215 362 181 347.5 Q147 333 121 307.5 Q95 282 79 248.5 Q63 215 63 178 Q63 172 63 165.5 Q63 159 64 154 Q100 168 140 183.5 Q180 199 220.5 214.5 Q261 230 300 245 Q339 260 374 274 Z M319 505 Q319 519 329.5 529 Q340 539 354 539 Q365 539 372.5 531 Q380 523 380 511 Q380 497 369.5 487.5 Q359 478 346 478 Q335 478 327 486 Q319 494 319 505 Z M147 505 Q147 519 157.5 529 Q168 539 182 539 Q193 539 200.5 531 Q208 523 208 511 Q208 497 197.5 487.5 Q187 478 174 478 Q163 478 155 486 Q147 494 147 505 Z " />
<glyph glyph-name="odieresis" unicode="&#xf6;" horiz-adv-x="483" d="M29 194 Q34 236 54.5 273 Q75 310 105.5 337.5 Q136 365 175 381 Q214 397 256 397 Q295 397 328 383 Q361 369 385 344 Q409 319 422.5 286 Q436 253 436 215 Q436 169 417.5 128.5 Q399 88 367.5 58 Q336 28 294 10.5 Q252 -7 206 -7 Q164 -7 129 8.5 Q94 24 70 51 Q46 78 35 114.5 Q24 151 29 194 Z M64 194 Q59 159 68.5 128.5 Q78 98 97.5 75.5 Q117 53 146 40 Q175 27 210 27 Q248 27 282.5 41.5 Q317 56 343 81 Q369 106 384.5 139.5 Q400 173 400 211 Q400 242 389 270 Q378 298 358 318 Q338 338 310.5 350 Q283 362 251 362 Q216 362 184 349 Q152 336 126.5 313 Q101 290 84.5 259.5 Q68 229 64 194 Z M332 505 Q332 519 342.5 529 Q353 539 367 539 Q378 539 385.5 531 Q393 523 393 511 Q393 497 382.5 487.5 Q372 478 359 478 Q348 478 340 486 Q332 494 332 505 Z M160 505 Q160 519 170.5 529 Q181 539 195 539 Q206 539 213.5 531 Q221 523 221 511 Q221 497 210.5 487.5 Q200 478 187 478 Q176 478 168 486 Q160 494 160 505 Z " />
<glyph glyph-name="udieresis" unicode="&#xfc;" horiz-adv-x="454" d="M352 -3 L325 -3 L334 101 Q308 52 260 22 Q212 -8 154 -8 Q98 -8 69 24.5 Q40 57 45 108 L79 387 L114 387 L80 114 Q78 79 98 54 Q118 29 162 26 Q195 26 225 37 Q255 48 279 67 Q303 86 319 112.5 Q335 139 339 171 L366 387 L400 387 L352 -3 Z M345 505 Q345 519 355.5 529 Q366 539 380 539 Q391 539 398.5 531 Q406 523 406 511 Q406 497 395.5 487.5 Q385 478 372 478 Q361 478 353 486 Q345 494 345 505 Z M173 505 Q173 519 183.5 529 Q194 539 208 539 Q219 539 226.5 531 Q234 523 234 511 Q234 497 223.5 487.5 Q213 478 200 478 Q189 478 181 486 Q173 494 173 505 Z " />
<glyph glyph-name="agrave" unicode="&#xe0;" horiz-adv-x="513" d="M28 172 Q28 218 46.5 258.5 Q65 299 96.5 329.5 Q128 360 169 378 Q210 396 255 396 Q286 396 312 387.5 Q338 379 358 364 Q378 349 392 329.5 Q406 310 412 288 Q416 313 419.5 338 Q423 363 428 387 L459 387 L411 0 L377 0 L383 48 Q385 61 386.5 73.5 Q388 86 389 99 Q366 55 317.5 24 Q269 -7 206 -7 Q167 -7 134 7 Q101 21 77.5 45 Q54 69 41 101.5 Q28 134 28 172 Z M63 177 Q63 145 74 118 Q85 91 104.5 70.5 Q124 50 151.5 38.5 Q179 27 211 27 Q249 27 283.5 41.5 Q318 56 344 81.5 Q370 107 385.5 140 Q401 173 401 211 Q401 243 390 270.5 Q379 298 359 318.5 Q339 339 312 350.5 Q285 362 252 362 Q214 362 179.5 347.5 Q145 333 119 307.5 Q93 282 78 248.5 Q63 215 63 177 Z M225 614 L300 481 L270 481 Q249 514 228.5 547.5 Q208 581 188 614 L225 614 Z " />
<glyph glyph-name="egrave" unicode="&#xe8;" horiz-adv-x="438" d="M355 47 Q325 22 287 7.5 Q249 -7 207 -7 Q168 -7 135 7 Q102 21 78.5 45.5 Q55 70 41.5 103 Q28 136 28 174 Q28 219 47 259.5 Q66 300 97.5 330.5 Q129 361 170 379 Q211 397 256 397 Q321 397 361.5 359.5 Q402 322 417 264 Q379 250 335 233 Q291 216 245 198 Q199 180 153.5 162.5 Q108 145 68 130 Q82 84 119.5 55.5 Q157 27 210 27 Q244 27 276 39 Q308 51 332 72 L355 47 Z M374 274 Q360 314 329 338 Q298 362 252 362 Q215 362 181 347.5 Q147 333 121 307.5 Q95 282 79 248.5 Q63 215 63 178 Q63 172 63 165.5 Q63 159 64 154 Q100 168 140 183.5 Q180 199 220.5 214.5 Q261 230 300 245 Q339 260 374 274 Z M195 614 L270 481 L240 481 Q219 514 198.5 547.5 Q178 581 158 614 L195 614 Z " />
<glyph glyph-name="igrave" unicode="&#xec;" horiz-adv-x="172" d="M70 0 L36 0 L84 387 L118 387 L70 0 Z M63 614 L138 481 L108 481 Q87 514 66.5 547.5 Q46 581 26 614 L63 614 Z " />
<glyph glyph-name="ograve" unicode="&#xf2;" horiz-adv-x="483" d="M29 194 Q34 236 54.5 273 Q75 310 105.5 337.5 Q136 365 175 381 Q214 397 256 397 Q295 397 328 383 Q361 369 385 344 Q409 319 422.5 286 Q436 253 436 215 Q436 169 417.5 128.5 Q399 88 367.5 58 Q336 28 294 10.5 Q252 -7 206 -7 Q164 -7 129 8.5 Q94 24 70 51 Q46 78 35 114.5 Q24 151 29 194 Z M64 194 Q59 159 68.5 128.5 Q78 98 97.5 75.5 Q117 53 146 40 Q175 27 210 27 Q248 27 282.5 41.5 Q317 56 343 81 Q369 106 384.5 139.5 Q400 173 400 211 Q400 242 389 270 Q378 298 358 318 Q338 338 310.5 350 Q283 362 251 362 Q216 362 184 349 Q152 336 126.5 313 Q101 290 84.5 259.5 Q68 229 64 194 Z M197 614 L272 481 L242 481 Q221 514 200.5 547.5 Q180 581 160 614 L197 614 Z " />
<glyph glyph-name="ugrave" unicode="&#xf9;" horiz-adv-x="454" d="M352 -3 L325 -3 L334 101 Q308 52 260 22 Q212 -8 154 -8 Q98 -8 69 24.5 Q40 57 45 108 L79 387 L114 387 L80 114 Q78 79 98 54 Q118 29 162 26 Q195 26 225 37 Q255 48 279 67 Q303 86 319 112.5 Q335 139 339 171 L366 387 L400 387 L352 -3 Z M241 614 L316 481 L286 481 Q265 514 244.5 547.5 Q224 581 204 614 L241 614 Z " />
<glyph glyph-name="comma" unicode="&#x2c;" horiz-adv-x="224" d="M127 86 L16 -120 L-18 -120 L85 86 L127 86 Z " />
<glyph glyph-name="period" unicode="&#x2e;" horiz-adv-x="193" d="M38 27 Q38 41 48.5 51 Q59 61 73 61 Q84 61 91.5 53 Q99 45 99 33 Q99 19 88.5 9.5 Q78 0 65 0 Q54 0 46 7.5 Q38 15 38 27 Z " />
<glyph glyph-name="f" unicode="f" horiz-adv-x="264" d="M35 351 L39 385 L106 385 L122 517 Q129 575 149.5 619.5 Q170 664 200.5 694.5 Q231 725 269.5 740.5 Q308 756 351 758 L346 724 Q311 724 279 709.5 Q247 695 222 668.5 Q197 642 180 604.5 Q163 567 157 520 L141 385 L271 385 L267 351 L136 351 L93 0 L58 0 L102 351 L35 351 Z " />
<glyph glyph-name="aring" unicode="&#xe5;" horiz-adv-x="513" d="M229 486 Q229 469 241 457 Q253 445 270 445 Q290 445 305 459.5 Q320 474 320 494 Q320 511 309 523 Q298 535 281 535 Q261 535 245 520.5 Q229 506 229 486 Z M205 483 Q205 515 228 537.5 Q251 560 283 560 Q310 560 327 542 Q344 524 344 498 Q344 466 321 443.5 Q298 421 266 421 Q240 421 222.5 439 Q205 457 205 483 Z M63 177 Q63 145 74 118 Q85 91 104.5 70.5 Q124 50 151.5 38.5 Q179 27 211 27 Q249 27 283.5 41.5 Q318 56 344 81.5 Q370 107 385.5 140 Q401 173 401 211 Q401 243 390 270.5 Q379 298 359 318.5 Q339 339 312 350.5 Q285 362 252 362 Q214 362 179.5 347.5 Q145 333 119 307.5 Q93 282 78 248.5 Q63 215 63 177 Z M28 172 Q28 218 46.5 258.5 Q65 299 96.5 329.5 Q128 360 169 378 Q210 396 255 396 Q286 396 312 387.5 Q338 379 358 364 Q378 349 392 329.5 Q406 310 412 288 Q416 313 419.5 338 Q423 363 428 387 L459 387 L411 0 L377 0 L383 48 Q385 61 386.5 73.5 Q388 86 389 99 Q366 55 317.5 24 Q269 -7 206 -7 Q167 -7 134 7 Q101 21 77.5 45 Q54 69 41 101.5 Q28 134 28 172 Z " />
<glyph glyph-name="v" unicode="v" horiz-adv-x="406" d="M167 -24 Q127 80 97 182 Q67 284 28 387 L65 387 Q85 334 99.5 288.5 Q114 243 126.5 202 Q139 161 150 122 Q161 83 175 44 Q198 83 219 121.5 Q240 160 262.5 201.5 Q285 243 311 288.5 Q337 334 370 387 L407 387 Q343 284 287 182 Q231 80 167 -24 Z " />
<glyph glyph-name="j" unicode="j" horiz-adv-x="173" d="M-18 -186 L-40 -162 Q-11 -135 9.5 -96.5 Q30 -58 35 -7 L84 387 L118 387 L70 -5 Q62 -65 39.5 -110.5 Q17 -156 -18 -186 Z M88 519 Q88 533 98.5 543 Q109 553 122 553 Q133 553 141 545 Q149 537 149 525 Q149 511 138.5 501.5 Q128 492 115 492 Q104 492 96 500 Q88 508 88 519 Z " />
<glyph glyph-name="s" unicode="s" horiz-adv-x="317" d="M273 349 Q268 343 260.5 335 Q253 327 251 325 Q241 340 217 349.5 Q193 359 171 359 Q159 359 144 355 Q129 351 116.5 342.5 Q104 334 95.5 320 Q87 306 87 286 Q87 264 100 250.5 Q113 237 132 227 Q151 217 173.5 209 Q196 201 215 190 Q234 179 247 161.5 Q260 144 260 117 Q260 93 250.5 70 Q241 47 223 30 Q205 13 179.5 2.5 Q154 -8 122 -8 Q91 -8 58.5 3 Q26 14 8 40 Q14 46 22.5 54.5 Q31 63 33 65 Q37 58 47.5 51 Q58 44 71.5 38.5 Q85 33 99.5 29.5 Q114 26 127 26 Q140 26 157 30.5 Q174 35 189 45 Q204 55 214.5 71 Q225 87 225 110 Q225 133 212 147 Q199 161 180 170.5 Q161 180 138.5 188 Q116 196 97 207 Q78 218 65 235 Q52 252 52 280 Q52 309 63 330.5 Q74 352 92 366 Q110 380 131.5 386.5 Q153 393 174 393 Q198 393 226.5 383 Q255 373 273 349 Z " />
<glyph glyph-name="k" unicode="k" horiz-adv-x="381" d="M339 397 L357 375 L195 237 Q230 177 266.5 118.5 Q303 60 338 0 L297 0 Q265 54 231.5 107 Q198 160 166 214 L89 148 L70 0 L36 0 L129 758 L163 758 L94 192 L339 397 Z " />
<glyph glyph-name="y" unicode="y" horiz-adv-x="418" d="M90 -186 L51 -186 Q66 -161 77.5 -139.5 Q89 -118 100.5 -96 Q112 -74 125 -49.5 Q138 -25 156 8 Q121 101 92.5 197 Q64 293 29 387 L67 387 Q87 334 102 287.5 Q117 241 130 198 Q143 155 154.5 115 Q166 75 180 36 Q203 75 225 115 Q247 155 270.5 197.5 Q294 240 320.5 287 Q347 334 380 387 L417 387 L90 -186 Z " />
<glyph glyph-name="oslash" unicode="&#xf8;" horiz-adv-x="482" d="M28 194 Q33 236 53.5 273 Q74 310 104.5 337.5 Q135 365 174 381 Q213 397 255 397 Q287 397 314.5 387 Q342 377 365 360 Q375 371 383.5 379 Q392 387 399 395 L416 378 L384 344 Q408 319 421.5 286 Q435 253 435 215 Q435 169 416.5 128.5 Q398 88 366.5 58 Q335 28 293 10.5 Q251 -7 205 -7 Q169 -7 138 4.5 Q107 16 84 36 L42 -7 L26 11 Q34 19 44 29.5 Q54 40 67 53 Q44 80 33.5 116 Q23 152 28 194 Z M109 63 Q150 27 209 27 Q247 27 281.5 41.5 Q316 56 342 81 Q368 106 383.5 139.5 Q399 173 399 211 Q399 242 388 269.5 Q377 297 357 317 Q330 289 298.5 256.5 Q267 224 234 190.5 Q201 157 169 124 Q137 91 109 63 Z M63 194 Q58 160 66.5 131 Q75 102 93 80 L339 333 Q321 347 298.5 354.5 Q276 362 250 362 Q215 362 183 349 Q151 336 125.5 313 Q100 290 83.5 259.5 Q67 229 63 194 Z " />
<glyph glyph-name="w" unicode="w" horiz-adv-x="629" d="M297 290 Q289 314 281 339 Q273 364 265 387 L297 387 Q313 337 328 284 Q343 231 356.5 186.5 Q370 142 382 113.5 Q394 85 405 84 Q426 88 448 117.5 Q470 147 493.5 190 Q517 233 542.5 285 Q568 337 597 387 L632 387 Q572 284 513 180.5 Q454 77 397 -24 Q374 47 353 116 Q332 185 309 256 L159 -24 L29 387 L64 387 Q80 337 93.5 292.5 Q107 248 120 206.5 Q133 165 144.5 125 Q156 85 168 44 Q195 97 225.5 155 Q256 213 297 290 Z " />
<glyph glyph-name="x" unicode="x" horiz-adv-x="369" d="M154 197 Q126 245 96.5 292 Q67 339 38 387 L81 387 Q106 344 130.5 305 Q155 266 180 223 Q215 266 248.5 305 Q282 344 317 387 L357 387 Q316 337 277 291.5 Q238 246 196 195 Q225 147 256 97.5 Q287 48 315 0 L273 0 L169 166 L31 0 L-9 0 L154 197 Z " />
<glyph glyph-name="z" unicode="z" horiz-adv-x="369" d="M305 0 L-7 0 L291 356 L103 356 Q71 356 56.5 367.5 Q42 379 44 409 L45 424 L77 424 L75 411 Q73 387 106 387 L357 387 L61 34 L309 34 L305 0 Z " />
<glyph glyph-name="o" unicode="o" horiz-adv-x="483" d="M29 194 Q34 236 54.5 273 Q75 310 105.5 337.5 Q136 365 175 381 Q214 397 256 397 Q295 397 328 383 Q361 369 385 344 Q409 319 422.5 286 Q436 253 436 215 Q436 169 417.5 128.5 Q399 88 367.5 58 Q336 28 294 10.5 Q252 -7 206 -7 Q164 -7 129 8.5 Q94 24 70 51 Q46 78 35 114.5 Q24 151 29 194 Z M64 194 Q59 159 68.5 128.5 Q78 98 97.5 75.5 Q117 53 146 40 Q175 27 210 27 Q248 27 282.5 41.5 Q317 56 343 81 Q369 106 384.5 139.5 Q400 173 400 211 Q400 242 389 270 Q378 298 358 318 Q338 338 310.5 350 Q283 362 251 362 Q216 362 184 349 Q152 336 126.5 313 Q101 290 84.5 259.5 Q68 229 64 194 Z " />
<glyph glyph-name="ae" unicode="&#xe6;" horiz-adv-x="635" d="M317 86 Q315 80 312 74.5 Q309 69 306 64 Q326 47 351.5 37 Q377 27 408 27 Q442 27 473.5 39 Q505 51 530 72 L553 47 Q523 22 484.5 7.5 Q446 -7 405 -7 Q369 -7 338 4.5 Q307 16 284 37 Q259 14 222.5 3 Q186 -8 145 -8 Q113 -8 88.5 0.5 Q64 9 47.5 23.5 Q31 38 23 56.5 Q15 75 15 96 Q15 124 28 145 Q41 166 61 179.5 Q81 193 105.5 199.5 Q130 206 153 206 L228 206 Q234 242 251.5 273.5 Q269 305 295 331 Q282 345 259 353 Q236 361 199 361 Q153 361 124.5 351 Q96 341 73 327 L60 356 Q86 373 124.5 384.5 Q163 396 211 396 Q254 396 282 385.5 Q310 375 325 356 Q353 376 385.5 386.5 Q418 397 453 397 Q518 397 559 359.5 Q600 322 615 264 L266 130 Q269 119 274 109 Q279 99 285 90 Q289 97 290 104 L317 86 Z M572 274 Q558 314 526.5 338 Q495 362 449 362 Q412 362 378 347.5 Q344 333 318 307.5 Q292 282 276.5 248.5 Q261 215 260 178 Q260 172 260.5 165.5 Q261 159 262 154 Q298 168 338 183.5 Q378 199 418.5 214.5 Q459 230 498 245 Q537 260 572 274 Z M50 101 Q50 80 59 66 Q68 52 83 43.5 Q98 35 117 31 Q136 27 156 27 Q191 27 218 36 Q245 45 262 61 Q226 108 226 174 L226 176 L175 176 Q138 176 114 169 Q90 162 75.5 151.5 Q61 141 55.5 127.5 Q50 114 50 101 Z " />
<glyph glyph-name="A" unicode="A" horiz-adv-x="639" d="M544 0 Q525 63 505 136 Q485 209 465 287 L178 287 Q139 209 101 136 Q63 63 29 0 L-13 0 Q14 49 46 109 Q78 169 112.5 235 Q147 301 182.5 369.5 Q218 438 252.5 504 Q287 570 319 630.5 Q351 691 378 740 Q392 691 409 630.5 Q426 570 444.5 504 Q463 438 481.5 369.5 Q500 301 518.5 235 Q537 169 554 109 Q571 49 586 0 L544 0 Z M354 623 Q318 557 278 480.5 Q238 404 197 323 L455 323 Q434 404 413 480.5 Q392 557 373 623 Q371 628 369.5 636 Q368 644 367 652 L354 623 Z " />
<glyph glyph-name="idieresis" unicode="&#xef;" horiz-adv-x="173" d="M70 0 L36 0 L84 387 L118 387 L70 0 Z M173 505 Q173 519 183.5 529 Q194 539 208 539 Q219 539 226.5 531 Q234 523 234 511 Q234 497 223.5 487.5 Q213 478 200 478 Q189 478 181 486 Q173 494 173 505 Z M1 505 Q1 519 11.5 529 Q22 539 36 539 Q47 539 54.5 531 Q62 523 62 511 Q62 497 51.5 487.5 Q41 478 28 478 Q17 478 9 486 Q1 494 1 505 Z " />
<glyph glyph-name="yacute" unicode="&#xfd;" horiz-adv-x="418" d="M90 -186 L51 -186 Q66 -161 77.5 -139.5 Q89 -118 100.5 -96 Q112 -74 125 -49.5 Q138 -25 156 8 Q121 101 92.5 197 Q64 293 29 387 L67 387 Q87 334 102 287.5 Q117 241 130 198 Q143 155 154.5 115 Q166 75 180 36 Q203 75 225 115 Q247 155 270.5 197.5 Q294 240 320.5 287 Q347 334 380 387 L417 387 L90 -186 Z M235 481 L341 614 L379 614 L264 481 L235 481 Z " />
<glyph glyph-name="ydieresis" unicode="&#xff;" horiz-adv-x="417" d="M90 -186 L51 -186 Q66 -161 77.5 -139.5 Q89 -118 100.5 -96 Q112 -74 125 -49.5 Q138 -25 156 8 Q121 101 92.5 197 Q64 293 29 387 L67 387 Q87 334 102 287.5 Q117 241 130 198 Q143 155 154.5 115 Q166 75 180 36 Q203 75 225 115 Q247 155 270.5 197.5 Q294 240 320.5 287 Q347 334 380 387 L417 387 L90 -186 Z M311 505 Q311 519 321.5 529 Q332 539 346 539 Q357 539 364.5 531 Q372 523 372 511 Q372 497 361.5 487.5 Q351 478 338 478 Q327 478 319 486 Q311 494 311 505 Z M139 505 Q139 519 149.5 529 Q160 539 174 539 Q185 539 192.5 531 Q200 523 200 511 Q200 497 189.5 487.5 Q179 478 166 478 Q155 478 147 486 Q139 494 139 505 Z " />
<glyph glyph-name="B" unicode="B" horiz-adv-x="573" d="M201 669 L164 373 L298 373 Q338 373 369.5 386.5 Q401 400 422.5 423.5 Q444 447 455 478.5 Q466 510 466 547 Q466 612 426 640.5 Q386 669 321 669 L201 669 Z M160 337 L124 38 L259 38 Q299 38 335 48.5 Q371 59 399 79.5 Q427 100 443.5 130.5 Q460 161 460 202 Q460 238 445 263.5 Q430 289 404.5 305.5 Q379 322 346.5 329.5 Q314 337 278 337 L160 337 Z M77 0 L164 707 L315 707 Q402 707 454.5 671 Q507 635 507 552 Q507 521 500 490.5 Q493 460 476.5 433.5 Q460 407 434 386.5 Q408 366 369 356 Q395 350 419 338 Q443 326 461 307.5 Q479 289 489.5 263 Q500 237 500 204 Q500 153 479 114.5 Q458 76 424 50.5 Q390 25 346.5 12.5 Q303 0 257 0 L77 0 Z " />
<glyph glyph-name="D" unicode="D" horiz-adv-x="711" d="M164 707 L319 707 Q416 707 482.5 678.5 Q549 650 590 605 Q631 560 649.5 503.5 Q668 447 668 390 Q668 301 634.5 229 Q601 157 545.5 106 Q490 55 417 27.5 Q344 0 266 0 L78 0 L164 707 Z M271 40 Q341 40 406 64.5 Q471 89 520 134 Q569 179 598.5 243 Q628 307 628 387 Q628 441 610 491.5 Q592 542 555 581 Q518 620 461.5 643 Q405 666 329 666 L201 666 Q181 509 162 353.5 Q143 198 124 40 L271 40 Z " />
<glyph glyph-name="E" unicode="E" horiz-adv-x="608" d="M78 0 L165 707 L598 707 L593 669 L202 669 L166 375 L517 375 L512 337 L161 337 L125 39 L530 39 L525 0 L78 0 Z " />
<glyph glyph-name="H" unicode="H" horiz-adv-x="740" d="M78 0 L164 707 L206 707 L165 376 L600 376 L641 707 L685 707 L595 0 L554 0 L595 337 L160 337 L119 0 L78 0 Z " />
<glyph glyph-name="I" unicode="I" horiz-adv-x="262" d="M164 707 L206 707 L119 0 L78 0 L164 707 Z " />
<glyph glyph-name="J" unicode="J" horiz-adv-x="268" d="M-100 -144 L-95 -105 Q-59 -103 -26 -88.5 Q7 -74 32.5 -47 Q58 -20 75 18 Q92 56 98 106 L173 707 L213 707 L139 103 Q132 44 110 -1.5 Q88 -47 56 -78 Q24 -109 -16.5 -126 Q-57 -143 -100 -144 Z " />
<glyph glyph-name="K" unicode="K" horiz-adv-x="602" d="M517 0 Q450 100 387 196 Q324 292 258 392 L159 308 Q149 230 140.5 154 Q132 78 122 0 L77 0 L164 707 L209 707 L169 387 Q168 379 167 371.5 Q166 364 164 356 L185 378 Q281 459 375 542.5 Q469 626 565 707 L620 707 Q538 635 456.5 563.5 Q375 492 293 420 Q365 314 431.5 210.5 Q498 107 569 0 L517 0 Z " />
<glyph glyph-name="M" unicode="M" horiz-adv-x="893" d="M168 739 Q198 683 234.5 618.5 Q271 554 308.5 489.5 Q346 425 381.5 364.5 Q417 304 445 256 Q459 273 484.5 305 Q510 337 543.5 378.5 Q577 420 616 467.5 Q655 515 694.5 563 Q734 611 771.5 656.5 Q809 702 841 739 L750 0 L707 0 L777 577 Q779 587 781 597.5 Q783 608 784 617 Q743 569 696.5 511.5 Q650 454 603.5 395.5 Q557 337 513.5 282 Q470 227 436 184 Q421 208 399 245 Q377 282 352.5 325 Q328 368 303 413.5 Q278 459 256 499 Q234 539 217 570.5 Q200 602 192 617 L189 577 L118 0 L77 0 L168 739 Z " />
<glyph glyph-name="N" unicode="N" horiz-adv-x="811" d="M754 707 L663 -32 Q631 15 593 68.5 Q555 122 514 179 Q473 236 431.5 294 Q390 352 350.5 408.5 Q311 465 275 518 Q239 571 210 617 L194 643 L194 611 L119 0 L77 0 L168 740 Q217 667 276.5 583 Q336 499 397 413 Q458 327 516 244 Q574 161 621 91 L637 65 Q637 73 637.5 81 Q638 89 638 97 L713 707 L754 707 Z " />
<glyph glyph-name="P" unicode="P" horiz-adv-x="532" d="M162 343 L272 343 Q330 343 369 362.5 Q408 382 431.5 410.5 Q455 439 464.5 471 Q474 503 474 528 Q474 558 463 583.5 Q452 609 431 628 Q410 647 380 657.5 Q350 668 313 668 L201 668 L162 343 Z M78 0 L165 707 L322 707 Q356 707 390.5 697 Q425 687 453 666 Q481 645 498.5 612 Q516 579 516 533 Q516 492 501.5 451 Q487 410 456.5 377 Q426 344 378.5 323.5 Q331 303 266 303 L157 303 L120 0 L78 0 Z " />
<glyph glyph-name="R" unicode="R" horiz-adv-x="583" d="M77 0 L164 707 L321 707 Q355 707 389.5 697 Q424 687 452 666 Q480 645 497.5 612 Q515 579 515 533 Q515 501 506.5 469 Q498 437 480 408.5 Q462 380 434.5 357 Q407 334 369 320 Q374 309 386.5 283 Q399 257 415 224 Q431 191 448.5 154.5 Q466 118 481.5 86 Q497 54 508.5 30.5 Q520 7 524 0 L474 0 Q470 6 460 26.5 Q450 47 436 76 Q422 105 406 138.5 Q390 172 374.5 204.5 Q359 237 346 264.5 Q333 292 325 308 Q311 306 296 304.5 Q281 303 265 303 L156 303 L119 0 L77 0 Z M161 343 L271 343 Q329 343 368 363 Q407 383 430 412 Q453 441 463 473 Q473 505 473 529 Q473 558 462 583.5 Q451 609 430 627.5 Q409 646 379 657 Q349 668 312 668 L200 668 L161 343 Z " />
<glyph glyph-name="U" unicode="U" horiz-adv-x="681" d="M307 -8 Q256 -8 214 8 Q172 24 143.5 55 Q115 86 102.5 131.5 Q90 177 97 235 L155 707 L196 707 L139 238 Q133 190 143 151.5 Q153 113 176 86 Q199 59 234 45 Q269 31 312 31 Q354 31 392 45 Q430 59 460 86 Q490 113 509.5 151.5 Q529 190 535 238 L593 707 L634 707 L577 235 Q569 177 545 131.5 Q521 86 485 55 Q449 24 403.5 8 Q358 -8 307 -8 Z " />
<glyph glyph-name="Y" unicode="Y" horiz-adv-x="612" d="M325 255 L294 0 L252 0 L284 255 Q263 299 235.5 358.5 Q208 418 179.5 481 Q151 544 123.5 603.5 Q96 663 75 707 L122 707 Q141 667 163.5 619 Q186 571 209.5 520 Q233 469 256.5 417.5 Q280 366 301 319 L309 291 Q317 303 325 319 Q358 366 394 417.5 Q430 469 465.5 520 Q501 571 534.5 619 Q568 667 597 707 L644 707 L325 255 Z " />
<glyph glyph-name="asciitilde" unicode="&#x7e;" horiz-adv-x="466" d="M252 494 Q238 511 227 517 Q216 523 202 523 Q194 523 184 521 Q174 519 164 513 Q154 507 145.5 496.5 Q137 486 133 470 L110 473 Q113 492 123 506 Q133 520 146 529 Q159 538 174.5 542.5 Q190 547 204 547 Q225 547 241 537 Q257 527 271 510 Q285 493 296.5 487 Q308 481 322 481 Q329 481 339.5 483 Q350 485 360 491 Q370 497 378 507.5 Q386 518 390 534 L413 531 Q405 493 376.5 475.5 Q348 458 319 458 Q298 458 282 467.5 Q266 477 252 494 Z " />
<glyph glyph-name="ntilde" unicode="&#xf1;" horiz-adv-x="454" d="M84 387 L112 387 Q112 383 110.5 368 Q109 353 107.5 336 Q106 319 104.5 304.5 Q103 290 103 287 Q130 335 177 365 Q224 395 282 395 Q338 395 367 363 Q396 331 391 280 L357 0 L322 0 L356 274 Q359 309 338.5 334 Q318 359 274 361 Q241 361 211 350 Q181 339 157 320 Q133 301 117 274 Q101 247 97 216 L70 0 L36 0 L84 387 Z M258 492 Q244 509 233 515 Q222 521 208 521 Q200 521 190 519 Q180 517 170 511 Q160 505 151.5 494.5 Q143 484 139 468 L116 471 Q119 490 129 504 Q139 518 152 527 Q165 536 180.5 540.5 Q196 545 210 545 Q231 545 247 535 Q263 525 277 508 Q291 491 302.5 485 Q314 479 328 479 Q335 479 345.5 481 Q356 483 366 489 Q376 495 384 505.5 Q392 516 396 532 L419 529 Q411 491 382.5 473.5 Q354 456 325 456 Q304 456 288 465.5 Q272 475 258 492 Z " />
<glyph glyph-name="F" unicode="F" horiz-adv-x="549" d="M78 0 L165 707 L557 707 L552 668 L201 668 L165 366 L476 366 L471 327 L159 327 L120 0 L78 0 Z " />
<glyph glyph-name="L" unicode="L" horiz-adv-x="548" d="M77 0 L164 707 L205 707 L124 40 L516 40 L511 0 L77 0 Z " />
<glyph glyph-name="C" unicode="C" horiz-adv-x="642" d="M581 45 Q542 23 490.5 7.5 Q439 -8 377 -8 Q303 -8 244 17 Q185 42 144.5 85.5 Q104 129 82.5 187 Q61 245 61 310 Q61 395 95 468.5 Q129 542 185.5 597 Q242 652 316 683.5 Q390 715 471 715 Q524 715 571.5 701.5 Q619 688 651 665 Q644 656 640.5 650.5 Q637 645 628 632 Q596 654 554 665 Q512 676 468 676 Q396 676 329.5 647.5 Q263 619 213 570 Q163 521 133 455.5 Q103 390 103 317 Q103 260 122 208.5 Q141 157 177 118.5 Q213 80 265 57 Q317 34 382 34 Q437 34 485 48.5 Q533 63 565 82 L581 45 Z " />
<glyph glyph-name="Q" unicode="Q" horiz-adv-x="834" d="M61 316 Q61 397 94.5 469.5 Q128 542 184.5 596.5 Q241 651 315 683 Q389 715 469 715 Q538 715 597 689.5 Q656 664 698.5 620 Q741 576 765.5 516.5 Q790 457 790 389 Q790 334 772.5 282 Q755 230 723 184.5 Q691 139 647 101.5 Q603 64 551 37 L771 40 L766 0 L456 0 Q436 -4 417.5 -6 Q399 -8 380 -8 Q311 -8 252.5 17 Q194 42 151.5 86 Q109 130 85 189 Q61 248 61 316 Z M102 319 Q102 259 123.5 206.5 Q145 154 182.5 115 Q220 76 271.5 53.5 Q323 31 384 31 Q455 31 521 59 Q587 87 637.5 135.5 Q688 184 718 248.5 Q748 313 748 385 Q748 445 726.5 498 Q705 551 667 590.5 Q629 630 577 652.5 Q525 675 464 675 Q393 675 327.5 646.5 Q262 618 212 569.5 Q162 521 132 456 Q102 391 102 319 Z " />
<glyph glyph-name="T" unicode="T" horiz-adv-x="508" d="M523 707 L517 667 L322 667 L240 0 L199 0 L281 667 L87 667 L92 707 L523 707 Z " />
<glyph glyph-name="guilsinglleft" unicode="&#x2039;" horiz-adv-x="281" d="M193 69 L43 240 Q62 256 87.5 278.5 Q113 301 139 324.5 Q165 348 190.5 370.5 Q216 393 235 410 L230 368 Q198 339 161 304 Q124 269 92 240 Q117 211 145 175.5 Q173 140 198 111 L193 69 Z " />
<glyph glyph-name="greater" unicode="&#x3e;" horiz-adv-x="558" d="M49 -15 L55 32 L439 239 L105 446 L111 493 Q214 429 315 365.5 Q416 302 519 239 L49 -15 Z " />
<glyph glyph-name="less" unicode="&#x3c;" horiz-adv-x="559" d="M447 32 L441 -15 Q338 49 237 112.5 Q136 176 33 239 Q151 302 268 365.5 Q385 429 503 493 L498 446 L114 239 Q197 187 280.5 135.5 Q364 84 447 32 Z " />
<glyph glyph-name="equal" unicode="&#x3d;" horiz-adv-x="657" d="M571 174 L566 138 L58 138 L63 174 L571 174 Z M595 369 L590 333 L82 333 L87 369 L595 369 Z " />
<glyph glyph-name="at" unicode="&#x40;" horiz-adv-x="926" d="M228 172 Q228 218 247 258.5 Q266 299 297.5 329.5 Q329 360 370 378 Q411 396 456 396 Q487 396 513 387.5 Q539 379 559 364 Q579 349 593 329.5 Q607 310 613 288 Q616 313 620 338 Q624 363 629 387 L660 387 L616 32 L687 32 Q714 32 738.5 44.5 Q763 57 781.5 83 Q800 109 811 148 Q822 187 822 241 Q822 308 799 367 Q776 426 733 470 Q690 514 630 539.5 Q570 565 497 565 Q407 565 329.5 530.5 Q252 496 195 439 Q138 382 105.5 307.5 Q73 233 73 154 Q73 85 97.5 24.5 Q122 -36 165.5 -81 Q209 -126 269.5 -152 Q330 -178 401 -178 Q462 -178 519 -159.5 Q576 -141 627 -109 Q631 -115 635 -121 Q639 -127 644 -133 Q589 -171 525.5 -191 Q462 -211 396 -211 Q319 -211 253.5 -182.5 Q188 -154 140.5 -105 Q93 -56 66 10.5 Q39 77 39 153 Q39 241 75 321.5 Q111 402 173.5 463.5 Q236 525 320.5 561.5 Q405 598 502 598 Q582 598 647.5 570 Q713 542 759.5 494 Q806 446 831 381.5 Q856 317 856 245 Q856 175 840.5 128 Q825 81 800 52.5 Q775 24 743 12 Q711 0 678 0 L577 0 L583 48 Q585 61 587 73.5 Q589 86 590 99 Q567 55 518.5 24 Q470 -7 407 -7 Q368 -7 335 7 Q302 21 278 45 Q254 69 241 101.5 Q228 134 228 172 Z M264 177 Q264 145 275 118 Q286 91 305.5 70.5 Q325 50 352.5 38.5 Q380 27 412 27 Q450 27 484.5 41.5 Q519 56 545 81.5 Q571 107 586.5 140 Q602 173 602 211 Q602 243 591 270.5 Q580 298 560.5 318.5 Q541 339 513.5 350.5 Q486 362 453 362 Q415 362 380.5 347.5 Q346 333 320 307.5 Q294 282 279 248.5 Q264 215 264 177 Z " />
<glyph glyph-name="question" unicode="&#x3f;" horiz-adv-x="474" d="M107 584 Q99 587 91.5 589.5 Q84 592 77 595 Q89 622 108.5 647 Q128 672 154 691.5 Q180 711 213 723 Q246 735 284 735 Q323 735 355 721.5 Q387 708 410 684 Q433 660 445.5 628 Q458 596 458 559 Q458 497 426 452 Q394 407 338 370 Q318 357 300.5 347 Q283 337 268.5 324.5 Q254 312 244 293 Q234 274 230 243 L220 165 L184 165 L196 262 Q200 293 213 312.5 Q226 332 246 346.5 Q266 361 290.5 375 Q315 389 341 410 Q383 442 402 478.5 Q421 515 421 557 Q421 588 410.5 614 Q400 640 381.5 659 Q363 678 337 688.5 Q311 699 280 699 Q221 699 175.5 668.5 Q130 638 107 584 Z M183 17 Q173 17 165 25 Q157 33 157 44 Q157 59 168 68.5 Q179 78 191 78 Q201 78 209.5 70.5 Q218 63 218 50 Q218 36 207 26.5 Q196 17 183 17 Z " />
<glyph glyph-name="exclam" unicode="&#x21;" horiz-adv-x="218" d="M150 753 L187 753 L114 167 L78 167 L150 753 Z M80 25 Q69 25 60.5 33.5 Q52 42 54 55 Q55 69 65 77.5 Q75 86 87 86 Q98 86 106.5 77.5 Q115 69 113 55 Q112 42 101.5 33.5 Q91 25 80 25 Z " />
<glyph glyph-name="two" unicode="2" horiz-adv-x="512" d="M124 35 L448 35 L444 0 L31 0 Q106 65 176.5 127.5 Q247 190 301 249.5 Q355 309 388 366 Q421 423 421 476 Q421 518 408.5 546.5 Q396 575 377 592.5 Q358 610 335.5 617.5 Q313 625 292 625 Q241 625 207 605.5 Q173 586 153.5 558.5 Q134 531 126 500 Q118 469 118 445 Q118 391 146 355 L122 333 Q102 353 92 383 Q82 413 82 446 Q82 489 96.5 528 Q111 567 138.5 596.5 Q166 626 206 643.5 Q246 661 296 661 Q334 661 364 647.5 Q394 634 415 610.5 Q436 587 447.5 555 Q459 523 459 486 Q459 426 428.5 369 Q398 312 350 256 Q302 200 242 145 Q182 90 124 35 Z " />
<glyph glyph-name="one" unicode="1" horiz-adv-x="289" d="M80 617 L84 653 L220 653 L140 0 L103 0 L179 617 L80 617 Z " />
<glyph glyph-name="three" unicode="3" horiz-adv-x="472" d="M148 351 Q204 418 261 484 Q318 550 374 617 L111 617 L116 653 L443 653 Q389 590 335.5 528.5 Q282 467 229 404 Q267 402 299 388 Q331 374 354.5 350 Q378 326 391.5 293 Q405 260 405 222 Q405 175 385.5 133.5 Q366 92 333 60.5 Q300 29 257.5 10.5 Q215 -8 169 -8 Q122 -8 85.5 10.5 Q49 29 24 60 Q31 67 38.5 73.5 Q46 80 54 87 Q73 61 103 44 Q133 27 171 27 Q209 27 245 42.5 Q281 58 308.5 84 Q336 110 352.5 144.5 Q369 179 369 217 Q369 250 357 278 Q345 306 324 327 Q303 348 274.5 360 Q246 372 213 372 Q180 372 148 351 Z " />
<glyph glyph-name="four" unicode="4" horiz-adv-x="525" d="M4 179 Q110 299 219.5 420 Q329 541 436 661 L382 215 L479 215 L475 179 L377 179 L356 0 L319 0 L341 179 L4 179 Z M387 560 L80 215 L345 215 L387 560 Z " />
<glyph glyph-name="five" unicode="5" horiz-adv-x="468" d="M97 331 L137 653 L425 653 L421 617 L165 617 L137 387 Q157 396 176.5 401 Q196 406 219 406 Q260 406 294 391.5 Q328 377 353 352.5 Q378 328 391.5 294.5 Q405 261 405 222 Q405 175 385 133 Q365 91 332 59.5 Q299 28 256 10 Q213 -8 167 -8 Q125 -8 90.5 7.5 Q56 23 31 50 Q39 56 46 62 Q53 68 61 75 Q80 52 108 39.5 Q136 27 171 27 Q210 27 245.5 42.5 Q281 58 308 84 Q335 110 351.5 144.5 Q368 179 368 217 Q368 249 356.5 277 Q345 305 324 325.5 Q303 346 274.5 358 Q246 370 213 370 Q180 370 149.5 360 Q119 350 97 331 Z " />
<glyph glyph-name="six" unicode="6" horiz-adv-x="531" d="M84 181 Q84 149 95.5 121 Q107 93 127.5 72 Q148 51 176 39 Q204 27 237 27 Q275 27 310.5 42 Q346 57 373 83 Q400 109 416.5 143 Q433 177 433 216 Q433 248 421.5 276 Q410 304 389 325 Q368 346 340 358 Q312 370 279 370 Q240 370 205 355 Q170 340 143 314.5 Q116 289 100 254.5 Q84 220 84 181 Z M47 177 Q47 255 85 321.5 Q123 388 180.5 444.5 Q238 501 306 548.5 Q374 596 434 637 Q439 629 444 622 Q449 615 453 607 Q393 570 342.5 532.5 Q292 495 253 460.5 Q214 426 186.5 395.5 Q159 365 145 341 Q171 370 206.5 388 Q242 406 283 406 Q323 406 357 391.5 Q391 377 416 351.5 Q441 326 455 292 Q469 258 469 219 Q469 173 449.5 131.5 Q430 90 397 59 Q364 28 321.5 10 Q279 -8 233 -8 Q195 -8 161 5.5 Q127 19 101.5 43.5 Q76 68 61.5 102 Q47 136 47 177 Z " />
<glyph glyph-name="seven" unicode="7" horiz-adv-x="455" d="M74 617 L78 653 L485 653 L121 0 L79 0 Q164 152 249.5 307 Q335 462 423 617 L74 617 Z " />
<glyph glyph-name="eight" unicode="8" horiz-adv-x="531" d="M178 499 Q178 459 207.5 433 Q237 407 282 407 Q307 407 330 415.5 Q353 424 370 439.5 Q387 455 397.5 476 Q408 497 408 521 Q408 542 400.5 561 Q393 580 380 594 Q367 608 348.5 616.5 Q330 625 308 625 Q282 625 258.5 614.5 Q235 604 217 586.5 Q199 569 188.5 546.5 Q178 524 178 499 Z M84 183 Q84 151 95 122.5 Q106 94 126 73 Q146 52 173.5 39.5 Q201 27 234 27 Q272 27 307.5 42.5 Q343 58 370.5 84 Q398 110 414.5 144.5 Q431 179 431 217 Q431 249 419.5 277 Q408 305 387 325.5 Q366 346 338 358 Q310 370 277 370 Q239 370 204 355.5 Q169 341 142.5 315.5 Q116 290 100 256 Q84 222 84 183 Z M46 178 Q46 217 59.5 252 Q73 287 95.5 314.5 Q118 342 148 362 Q178 382 212 391 Q180 404 161.5 433 Q143 462 143 498 Q143 532 156.5 561.5 Q170 591 193.5 613 Q217 635 247.5 648 Q278 661 311 661 Q339 661 363.5 650.5 Q388 640 405.5 621.5 Q423 603 433 578 Q443 553 443 525 Q443 479 415.5 443.5 Q388 408 346 391 Q400 376 434 330 Q468 284 468 220 Q468 174 449 133 Q430 92 397 60.5 Q364 29 321 10.5 Q278 -8 230 -8 Q189 -8 155 6.5 Q121 21 97 46.5 Q73 72 59.5 106 Q46 140 46 178 Z " />
<glyph glyph-name="colon" unicode="&#x3a;" horiz-adv-x="192" d="M68 284 Q68 298 78.5 308 Q89 318 103 318 Q114 318 121.5 310 Q129 302 129 290 Q129 276 118.5 266.5 Q108 257 95 257 Q84 257 76 264.5 Q68 272 68 284 Z M36 27 Q36 41 47 51 Q58 61 71 61 Q82 61 90 53 Q98 45 98 33 Q98 19 87 9.5 Q76 0 63 0 Q52 0 44 7.5 Q36 15 36 27 Z " />
<glyph glyph-name="semicolon" unicode="&#x3b;" horiz-adv-x="245" d="M125 86 L13 -120 L-21 -120 L82 86 L125 86 Z M105 278 Q105 292 115.5 302 Q126 312 139 312 Q150 312 158 304 Q166 296 166 284 Q166 270 155 260.5 Q144 251 131 251 Q120 251 112.5 258.5 Q105 266 105 278 Z " />
<glyph glyph-name="quotedbl" unicode="&#x22;" horiz-adv-x="320" d="M234 474 L264 723 L303 723 L269 474 L234 474 Z M100 474 L131 723 L169 723 L135 474 L100 474 Z " />
<glyph glyph-name="numbersign" unicode="&#x23;" horiz-adv-x="569" d="M279 0 Q293 54 305.5 107 Q318 160 331 214 L182 214 Q169 160 157 107 Q145 54 131 0 L94 0 Q108 54 120.5 107 Q133 160 146 214 L36 214 L45 250 L155 250 L190 397 L82 397 Q84 406 86 415 Q88 424 90 433 L199 433 Q212 487 225 539.5 Q238 592 251 646 L288 646 L235 433 L384 433 L436 646 L472 646 Q459 592 446.5 539.5 Q434 487 420 433 L546 433 L538 397 L411 397 L376 250 L501 250 Q499 240 497 231.5 Q495 223 493 214 L367 214 L316 0 L279 0 Z M227 397 Q217 360 209 323.5 Q201 287 191 250 L340 250 L375 397 L227 397 Z " />
<glyph glyph-name="percent" unicode="&#x25;" horiz-adv-x="647" d="M388 104 Q388 74 408 53.5 Q428 33 459 33 Q477 33 493.5 40 Q510 47 522 58.5 Q534 70 541.5 86 Q549 102 549 120 Q549 150 529.5 171 Q510 192 478 192 Q460 192 444 185 Q428 178 415.5 166 Q403 154 395.5 138 Q388 122 388 104 Z M454 -2 Q410 -2 381 27.5 Q352 57 352 101 Q352 127 363 150 Q374 173 392 190 Q410 207 433.5 217 Q457 227 483 227 Q527 227 556.5 197.5 Q586 168 586 124 Q586 98 575 75 Q564 52 545.5 35 Q527 18 503 8 Q479 -2 454 -2 Z M97 382 Q97 352 117 331.5 Q137 311 168 311 Q186 311 202.5 318 Q219 325 231 336.5 Q243 348 250.5 364 Q258 380 258 398 Q258 428 238 448.5 Q218 469 187 469 Q169 469 152.5 462 Q136 455 124 443.5 Q112 432 104.5 416 Q97 400 97 382 Z M163 275 Q119 275 90 305 Q61 335 61 379 Q61 405 72 428 Q83 451 101 468 Q119 485 142.5 495 Q166 505 192 505 Q236 505 265.5 475 Q295 445 295 401 Q295 375 284 352 Q273 329 254.5 312 Q236 295 212 285 Q188 275 163 275 Z M119 0 Q210 127 299.5 251 Q389 375 479 502 L520 502 Q429 375 339.5 251 Q250 127 159 0 L119 0 Z " />
<glyph glyph-name="quoteright" unicode="&#x2019;" horiz-adv-x="182" d="M111 572 Q107 577 104 582 Q101 587 96 592 Q120 612 133 642 Q146 672 143 707 L174 714 Q178 673 160.5 636 Q143 599 111 572 Z " />
<glyph glyph-name="parenleft" unicode="&#x28;" horiz-adv-x="260" d="M45 219 Q45 307 65 387 Q85 467 117.5 534.5 Q150 602 190.5 656.5 Q231 711 272 750 L295 727 Q257 689 219 637 Q181 585 150.5 521 Q120 457 101 382 Q82 307 82 223 Q82 164 90.5 110.5 Q99 57 114 10.5 Q129 -36 148 -74.5 Q167 -113 188 -141 L160 -164 Q137 -136 116 -96 Q95 -56 79 -6.5 Q63 43 54 100 Q45 157 45 219 Z " />
<glyph glyph-name="parenright" unicode="&#x29;" horiz-adv-x="260" d="M221 366 Q221 277 201 197.5 Q181 118 148.5 50.5 Q116 -17 75.5 -71.5 Q35 -126 -6 -165 L-29 -142 Q9 -104 47 -52 Q85 0 115.5 63.5 Q146 127 165 202.5 Q184 278 184 362 Q184 420 175.5 473.5 Q167 527 152 573.5 Q137 620 118 658.5 Q99 697 78 725 L106 749 Q129 720 150 680 Q171 640 186.5 591 Q202 542 211.5 485 Q221 428 221 366 Z " />
<glyph glyph-name="asterisk" unicode="&#x2a;" horiz-adv-x="394" d="M262 575 L357 517 Q352 510 347.5 503.5 Q343 497 338 490 L244 550 Q239 521 235.5 492 Q232 463 227 434 L200 434 L215 550 Q187 535 161 520.5 Q135 506 107 492 L95 519 L203 576 L110 636 L126 660 L221 600 L235 720 L266 720 Q262 690 258.5 660 Q255 630 250 600 Q278 614 306 629 Q334 644 361 659 Q364 653 367 647 Q370 641 372 635 L262 575 Z " />
<glyph glyph-name="plus" unicode="&#x2b;" horiz-adv-x="463" d="M187 51 L206 215 L44 215 L49 250 L211 250 L231 413 L267 413 L248 250 L410 250 L405 215 L243 215 L223 51 L187 51 Z " />
<glyph glyph-name="nine" unicode="9" horiz-adv-x="529" d="M493 430 Q484 355 443.5 291.5 Q403 228 347 174 Q291 120 227.5 75 Q164 30 107 -8 L88 21 Q148 58 198.5 95.5 Q249 133 288.5 167.5 Q328 202 355.5 233 Q383 264 397 288 Q371 259 335 241 Q299 223 258 223 Q218 223 184 237.5 Q150 252 125 277 Q100 302 86 336 Q72 370 72 409 Q72 455 91.5 496.5 Q111 538 144 569.5 Q177 601 219.5 619 Q262 637 308 637 Q349 637 385 622 Q421 607 447 579.5 Q473 552 485.5 514 Q498 476 493 430 Z M456 430 Q460 466 450.5 497 Q441 528 420.5 551 Q400 574 370.5 587.5 Q341 601 305 601 Q267 601 231.5 586 Q196 571 169 545.5 Q142 520 125.5 486 Q109 452 109 413 Q109 381 120.5 352.5 Q132 324 153 303 Q174 282 202 270 Q230 258 263 258 Q299 258 332 271.5 Q365 285 391 308.5 Q417 332 434.5 363 Q452 394 456 430 Z " />
<glyph glyph-name="bar" unicode="&#x7c;" horiz-adv-x="229" d="M35 -233 L149 703 L186 703 L71 -233 L35 -233 Z " />
<glyph glyph-name="braceleft" unicode="&#x7b;" horiz-adv-x="284" d="M34 278 L39 321 Q64 322 81 335.5 Q98 349 109.5 369 Q121 389 127 412.5 Q133 436 136 456 L157 631 Q163 677 174 701 Q185 725 199.5 735.5 Q214 746 231.5 747.5 Q249 749 268 749 L314 749 L309 713 L256 713 Q225 713 211 689 Q197 665 190 604 L173 460 Q168 418 159 390.5 Q150 363 138.5 345 Q127 327 113.5 317 Q100 307 87 300 Q98 293 108.5 282.5 Q119 272 126.5 254 Q134 236 136.5 208.5 Q139 181 134 140 L115 -4 Q107 -66 115.5 -89.5 Q124 -113 155 -113 L208 -113 L203 -149 L158 -149 Q137 -149 119.5 -147.5 Q102 -146 90.5 -133 Q79 -120 75.5 -91 Q72 -62 79 -6 L97 143 Q100 163 99.5 186.5 Q99 210 92.5 230 Q86 250 72 263.5 Q58 277 34 278 Z " />
<glyph glyph-name="braceright" unicode="&#x7d;" horiz-adv-x="282" d="M256 321 L251 278 Q222 277 203.5 258.5 Q185 240 174.5 215 Q164 190 159 163 Q154 136 152 118 L134 -30 Q128 -77 117 -101 Q106 -125 91.5 -136 Q77 -147 59.5 -148 Q42 -149 23 -149 L-22 -149 L-18 -113 L35 -113 Q50 -113 61 -107.5 Q72 -102 79.5 -89.5 Q87 -77 91.5 -56 Q96 -35 100 -4 L121 165 Q125 198 134.5 221 Q144 244 156 260 Q168 276 181 285 Q194 294 204 300 Q193 307 182.5 317 Q172 327 164.5 345 Q157 363 155 390.5 Q153 418 158 460 L175 604 Q183 666 175.5 689.5 Q168 713 136 713 L83 713 L88 749 L133 749 Q152 749 169 748 Q186 747 198 736.5 Q210 726 215.5 701.5 Q221 677 215 631 L197 481 Q194 463 192 436 Q190 409 194.5 384 Q199 359 213 340.5 Q227 322 256 321 Z " />
<glyph glyph-name="zero" unicode="0" horiz-adv-x="659" d="M67 317 Q72 377 94.5 438.5 Q117 500 157 549.5 Q197 599 253 630 Q309 661 381 661 Q451 661 498 629 Q545 597 571.5 548.5 Q598 500 605.5 440.5 Q613 381 606 325 Q597 253 567.5 192 Q538 131 496 86.5 Q454 42 401.5 17.5 Q349 -7 293 -7 Q239 -7 194.5 17.5 Q150 42 119 85 Q88 128 74 187.5 Q60 247 67 317 Z M105 329 Q96 262 108.5 207 Q121 152 148.5 112 Q176 72 215 50 Q254 28 299 28 Q344 28 389.5 50 Q435 72 473 112 Q511 152 537 208 Q563 264 571 332 Q578 396 567.5 449.5 Q557 503 531.5 542 Q506 581 466.5 603 Q427 625 376 625 Q323 625 277 602 Q231 579 195.5 539 Q160 499 136.5 444.5 Q113 390 105 329 Z " />
<glyph glyph-name="hyphen" unicode="&#x2d;" horiz-adv-x="317" d="M55 181 L59 216 L244 216 L240 181 L55 181 Z " />
<glyph glyph-name="slash" unicode="&#x2f;" horiz-adv-x="404" d="M9 -19 L382 739 L418 739 L45 -19 L9 -19 Z " />
<glyph glyph-name="backslash" unicode="&#x5c;" horiz-adv-x="401" d="M139 739 L324 -19 L285 -19 L99 739 L139 739 Z " />
<glyph glyph-name="G" unicode="G" horiz-adv-x="678" d="M614 313 L580 42 Q537 19 486.5 5.5 Q436 -8 382 -8 Q307 -8 247 16.5 Q187 41 146 83.5 Q105 126 83 183.5 Q61 241 61 308 Q61 393 95 467.5 Q129 542 186 597 Q243 652 317.5 683.5 Q392 715 473 715 Q524 715 571.5 702 Q619 689 657 665 L632 631 Q598 652 555 664 Q512 676 467 676 Q396 676 330.5 647.5 Q265 619 214.5 569.5 Q164 520 133.5 454.5 Q103 389 103 315 Q103 256 122.5 204.5 Q142 153 178 114.5 Q214 76 266.5 53.5 Q319 31 385 31 Q425 31 466 40.5 Q507 50 545 69 L570 277 L407 277 L412 313 L614 313 Z " />
<glyph glyph-name="V" unicode="V" horiz-adv-x="639" d="M116 707 Q136 639 157.5 559 Q179 479 201.5 395.5 Q224 312 245.5 231.5 Q267 151 287 84 Q289 79 290.5 71 Q292 63 293 56 Q297 63 300.5 71 Q304 79 306 84 Q343 151 384.5 231.5 Q426 312 468.5 395.5 Q511 479 552.5 559 Q594 639 631 707 L673 707 Q646 658 614 598 Q582 538 547.5 472 Q513 406 477.5 337.5 Q442 269 407.5 203 Q373 137 341 77 Q309 17 282 -32 Q267 17 250.5 77 Q234 137 215.5 203 Q197 269 178.5 337.5 Q160 406 141.5 472 Q123 538 106 598 Q89 658 74 707 L116 707 Z " />
<glyph glyph-name="S" unicode="S" horiz-adv-x="540" d="M507 672 L488 639 Q459 652 416.5 662.5 Q374 673 332 673 Q291 673 257 661.5 Q223 650 199 631 Q175 612 162 586 Q149 560 149 532 Q149 494 173.5 471 Q198 448 235.5 430.5 Q273 413 316 397.5 Q359 382 396.5 359.5 Q434 337 458.5 303 Q483 269 483 215 Q483 164 464 123 Q445 82 410.5 53 Q376 24 328.5 8 Q281 -8 223 -8 Q181 -8 147.5 0 Q114 8 88 19.5 Q62 31 44.5 42.5 Q27 54 17 60 L41 97 Q56 86 77 74.5 Q98 63 122.5 53.5 Q147 44 174 38 Q201 32 229 32 Q264 32 301.5 42.5 Q339 53 370.5 75 Q402 97 422 130.5 Q442 164 442 210 Q442 257 417 286 Q392 315 355 335 Q318 355 274.5 370.5 Q231 386 194 405 Q157 424 132 451.5 Q107 479 107 524 Q107 561 124 595 Q141 629 170.5 655 Q200 681 241 696 Q282 711 330 711 Q353 711 378.5 707.5 Q404 704 428 698.5 Q452 693 472.5 686 Q493 679 507 672 Z " />
<glyph glyph-name="Z" unicode="Z" horiz-adv-x="623" d="M167 707 L629 707 L59 40 L573 40 L568 0 L-18 0 Q42 71 116 160 Q190 249 267.5 340.5 Q345 432 419 519 Q493 606 552 673 L160 673 Q129 673 113 683.5 Q97 694 99 723 L101 743 L141 743 L139 730 Q138 719 144 713 Q150 707 167 707 Z " />
<glyph glyph-name="W" unicode="W" horiz-adv-x="935" d="M967 706 Q934 644 894.5 569 Q855 494 815 416.5 Q775 339 736.5 264 Q698 189 666.5 127.5 Q635 66 613.5 23.5 Q592 -19 586 -32 L483 369 Q482 371 480.5 379.5 Q479 388 479 390 Q478 388 476.5 385 Q475 382 473 378 Q471 374 469 369 Q431 292 396 218 Q381 186 365 152.5 Q349 119 333 86 Q317 53 302.5 23 Q288 -7 276 -32 Q223 152 176.5 336.5 Q130 521 77 706 L123 706 Q138 653 155.5 589 Q173 525 190.5 459 Q208 393 225 330 Q242 267 255 216 Q268 165 276 131.5 Q284 98 285 91 Q285 90 286 85.5 Q287 81 287.5 76.5 Q288 72 289 68 Q290 64 290 63 L302 90 Q302 91 309.5 107 Q317 123 329 147.5 Q341 172 355.5 203.5 Q370 235 385 267 L465 439 Q448 511 434 568 Q428 592 422 616 Q416 640 411.5 659 Q407 678 404 691 Q401 704 401 706 L441 706 Q474 580 503 464 Q515 414 528 362 Q541 310 553 260.5 Q565 211 575 167.5 Q585 124 592 91 Q594 84 595 77 Q596 70 597 63 Q601 70 604.5 79.5 Q608 89 609 91 Q612 98 628.5 132 Q645 166 670.5 217 Q696 268 728 331.5 Q760 395 794 460.5 Q828 526 861.5 590 Q895 654 923 706 L967 706 Z " />
<glyph glyph-name="X" unicode="X" horiz-adv-x="564" d="M267 363 Q249 397 225.5 442.5 Q202 488 177 535.5 Q152 583 128.5 628 Q105 673 87 707 L137 707 Q154 675 174 636.5 Q194 598 214.5 558 Q235 518 255 479.5 Q275 441 292 409 Q296 402 300 390 Q303 395 306.5 401 Q310 407 313 409 Q337 441 366 479.5 Q395 518 425 558 Q455 598 484 636.5 Q513 675 537 707 L583 707 Q557 672 522.5 627 Q488 582 452 534 Q416 486 381 440.5 Q346 395 320 361 L511 0 L460 0 L319 267 Q312 281 303.5 300 Q295 319 287 332 Q284 327 280.5 322 Q277 317 275 315 L38 0 L-10 0 Q18 36 54 83.5 Q90 131 128.5 181.5 Q167 232 203 279.5 Q239 327 267 363 Z " />
<glyph glyph-name="AE" unicode="&#xc6;" horiz-adv-x="651" d="M275 0 L310 287 L181 287 Q141 209 103 136 Q65 63 31 0 L-11 0 Q29 73 77.5 165 Q126 257 176 353 Q226 449 274 541.5 Q322 634 362 707 L648 707 L644 669 L396 669 L360 375 L568 375 L563 337 L355 337 L319 39 L581 39 L576 0 L275 0 Z M350 613 Q315 548 276.5 473.5 Q238 399 198 321 L314 321 L350 613 Z " />
<glyph glyph-name="Ntilde" unicode="&#xd1;" horiz-adv-x="811" d="M754 707 L663 -32 Q631 15 593 68.5 Q555 122 514 179 Q473 236 431.5 294 Q390 352 350.5 408.5 Q311 465 275 518 Q239 571 210 617 L194 643 L194 611 L119 0 L77 0 L168 740 Q217 667 276.5 583 Q336 499 397 413 Q458 327 516 244 Q574 161 621 91 L637 65 Q637 73 637.5 81 Q638 89 638 97 L713 707 L754 707 Z M471 790 Q457 807 446 813 Q435 819 421 819 Q413 819 403 817 Q393 815 383 809 Q373 803 364.5 792.5 Q356 782 352 766 L329 769 Q332 788 342 802 Q352 816 365 825 Q378 834 393.5 838.5 Q409 843 423 843 Q444 843 460 833 Q476 823 490 806 Q504 789 515.5 783 Q527 777 541 777 Q548 777 558.5 779 Q569 781 579 787 Q589 793 597 803.5 Q605 814 609 830 L632 827 Q624 789 595.5 771.5 Q567 754 538 754 Q517 754 501 763.5 Q485 773 471 790 Z " />
<glyph glyph-name="Aring" unicode="&#xc5;" horiz-adv-x="639" d="M544 0 Q525 63 505 136 Q485 209 465 287 L178 287 Q139 209 101 136 Q63 63 29 0 L-13 0 Q14 49 46 109 Q78 169 112.5 235 Q147 301 182.5 369.5 Q218 438 252.5 504 Q287 570 319 630.5 Q351 691 378 740 Q392 691 409 630.5 Q426 570 444.5 504 Q463 438 481.5 369.5 Q500 301 518.5 235 Q537 169 554 109 Q571 49 586 0 L544 0 Z M354 623 Q318 557 278 480.5 Q238 404 197 323 L455 323 Q434 404 413 480.5 Q392 557 373 623 Q371 628 369.5 636 Q368 644 367 652 L354 623 Z M321 831 Q321 863 344 885.5 Q367 908 399 908 Q426 908 443 890 Q460 872 460 846 Q460 814 437 791.5 Q414 769 382 769 Q355 769 338 787 Q321 805 321 831 Z M345 834 Q345 817 356.5 805 Q368 793 385 793 Q405 793 420.5 807.5 Q436 822 436 842 Q436 859 424.5 871 Q413 883 396 883 Q376 883 360.5 868.5 Q345 854 345 834 Z " />
<glyph glyph-name="Aacute" unicode="&#xc1;" horiz-adv-x="639" d="M586 0 Q571 49 554 109 Q537 169 518.5 235 Q500 301 481.5 369.5 Q463 438 444.5 504 Q426 570 409 630.5 Q392 691 378 740 Q351 691 319 630.5 Q287 570 252.5 504 Q218 438 182.5 369.5 Q147 301 112.5 235 Q78 169 46 109 Q14 49 -13 0 L29 0 Q63 63 101 136 Q139 209 178 287 L465 287 Q485 209 505 136 Q525 63 544 0 L586 0 Z M354 623 L367 652 Q368 644 369.5 636 Q371 628 373 623 Q392 557 413 480.5 Q434 404 455 323 L197 323 Q238 404 278 480.5 Q318 557 354 623 Z M361 755 L467 888 L505 888 L390 755 L361 755 Z " />
<glyph glyph-name="Eacute" unicode="&#xc9;" horiz-adv-x="608" d="M78 0 L165 707 L598 707 L593 669 L202 669 L166 375 L517 375 L512 337 L161 337 L125 39 L530 39 L525 0 L78 0 Z M365 755 L471 888 L509 888 L394 755 L365 755 Z " />
<glyph glyph-name="Iacute" unicode="&#xcd;" horiz-adv-x="263" d="M164 707 L206 707 L119 0 L78 0 L164 707 Z M162 755 L268 888 L306 888 L191 755 L162 755 Z " />
<glyph glyph-name="Oacute" unicode="&#xd3;" horiz-adv-x="830" d="M63 353 Q72 428 108.5 493.5 Q145 559 200 608.5 Q255 658 324 686.5 Q393 715 468 715 Q537 715 596 689.5 Q655 664 698 620 Q741 576 765 516.5 Q789 457 789 389 Q789 308 755 236 Q721 164 664.5 109.5 Q608 55 534 23.5 Q460 -8 379 -8 Q304 -8 242 20.5 Q180 49 137.5 98 Q95 147 74.5 212.5 Q54 278 63 353 Z M104 352 Q96 286 114 227.5 Q132 169 170 125.5 Q208 82 262.5 56.5 Q317 31 383 31 Q454 31 520 59 Q586 87 636.5 135.5 Q687 184 717 248.5 Q747 313 747 385 Q747 445 725.5 498 Q704 551 666 590.5 Q628 630 576 652.5 Q524 675 463 675 Q397 675 335.5 649.5 Q274 624 225.5 580 Q177 536 144.5 477.5 Q112 419 104 352 Z M438 755 L544 888 L582 888 L467 755 L438 755 Z " />
<glyph glyph-name="Uacute" unicode="&#xda;" horiz-adv-x="681" d="M307 -8 Q256 -8 214 8 Q172 24 143.5 55 Q115 86 102.5 131.5 Q90 177 97 235 L155 707 L196 707 L139 238 Q133 190 143 151.5 Q153 113 176 86 Q199 59 234 45 Q269 31 312 31 Q354 31 392 45 Q430 59 460 86 Q490 113 509.5 151.5 Q529 190 535 238 L593 707 L634 707 L577 235 Q569 177 545 131.5 Q521 86 485 55 Q449 24 403.5 8 Q358 -8 307 -8 Z M374 755 L480 888 L518 888 L403 755 L374 755 Z " />
<glyph glyph-name="Adieresis" unicode="&#xc4;" horiz-adv-x="639" d="M586 0 Q571 49 554 109 Q537 169 518.5 235 Q500 301 481.5 369.5 Q463 438 444.5 504 Q426 570 409 630.5 Q392 691 378 740 Q351 691 319 630.5 Q287 570 252.5 504 Q218 438 182.5 369.5 Q147 301 112.5 235 Q78 169 46 109 Q14 49 -13 0 L29 0 Q63 63 101 136 Q139 209 178 287 L465 287 Q485 209 505 136 Q525 63 544 0 L586 0 Z M354 623 L367 652 Q368 644 369.5 636 Q371 628 373 623 Q392 557 413 480.5 Q434 404 455 323 L197 323 Q238 404 278 480.5 Q318 557 354 623 Z M441 798 Q441 812 451.5 822 Q462 832 476 832 Q487 832 494.5 824 Q502 816 502 804 Q502 790 491.5 780.5 Q481 771 468 771 Q457 771 449 779 Q441 787 441 798 Z M269 798 Q269 812 279.5 822 Q290 832 304 832 Q315 832 322.5 824 Q330 816 330 804 Q330 790 319.5 780.5 Q309 771 296 771 Q285 771 277 779 Q269 787 269 798 Z " />
<glyph glyph-name="Edieresis" unicode="&#xcb;" horiz-adv-x="608" d="M78 0 L165 707 L598 707 L593 669 L202 669 L166 375 L517 375 L512 337 L161 337 L125 39 L530 39 L525 0 L78 0 Z M458 798 Q458 812 468.5 822 Q479 832 493 832 Q504 832 511.5 824 Q519 816 519 804 Q519 790 508.5 780.5 Q498 771 485 771 Q474 771 466 779 Q458 787 458 798 Z M286 798 Q286 812 296.5 822 Q307 832 321 832 Q332 832 339.5 824 Q347 816 347 804 Q347 790 336.5 780.5 Q326 771 313 771 Q302 771 294 779 Q286 787 286 798 Z " />
<glyph glyph-name="Idieresis" unicode="&#xcf;" horiz-adv-x="263" d="M164 707 L206 707 L119 0 L78 0 L164 707 Z M253 798 Q253 812 263.5 822 Q274 832 288 832 Q299 832 306.5 824 Q314 816 314 804 Q314 790 303.5 780.5 Q293 771 280 771 Q269 771 261 779 Q253 787 253 798 Z M81 798 Q81 812 91.5 822 Q102 832 116 832 Q127 832 134.5 824 Q142 816 142 804 Q142 790 131.5 780.5 Q121 771 108 771 Q97 771 89 779 Q81 787 81 798 Z " />
<glyph glyph-name="Odieresis" unicode="&#xd6;" horiz-adv-x="830" d="M63 353 Q72 428 108.5 493.5 Q145 559 200 608.5 Q255 658 324 686.5 Q393 715 468 715 Q537 715 596 689.5 Q655 664 698 620 Q741 576 765 516.5 Q789 457 789 389 Q789 308 755 236 Q721 164 664.5 109.5 Q608 55 534 23.5 Q460 -8 379 -8 Q304 -8 242 20.5 Q180 49 137.5 98 Q95 147 74.5 212.5 Q54 278 63 353 Z M104 352 Q96 286 114 227.5 Q132 169 170 125.5 Q208 82 262.5 56.5 Q317 31 383 31 Q454 31 520 59 Q586 87 636.5 135.5 Q687 184 717 248.5 Q747 313 747 385 Q747 445 725.5 498 Q704 551 666 590.5 Q628 630 576 652.5 Q524 675 463 675 Q397 675 335.5 649.5 Q274 624 225.5 580 Q177 536 144.5 477.5 Q112 419 104 352 Z M529 798 Q529 812 539.5 822 Q550 832 564 832 Q575 832 582.5 824 Q590 816 590 804 Q590 790 579.5 780.5 Q569 771 556 771 Q545 771 537 779 Q529 787 529 798 Z M357 798 Q357 812 367.5 822 Q378 832 392 832 Q403 832 410.5 824 Q418 816 418 804 Q418 790 407.5 780.5 Q397 771 384 771 Q373 771 365 779 Q357 787 357 798 Z " />
<glyph glyph-name="Udieresis" unicode="&#xdc;" horiz-adv-x="681" d="M307 -8 Q256 -8 214 8 Q172 24 143.5 55 Q115 86 102.5 131.5 Q90 177 97 235 L155 707 L196 707 L139 238 Q133 190 143 151.5 Q153 113 176 86 Q199 59 234 45 Q269 31 312 31 Q354 31 392 45 Q430 59 460 86 Q490 113 509.5 151.5 Q529 190 535 238 L593 707 L634 707 L577 235 Q569 177 545 131.5 Q521 86 485 55 Q449 24 403.5 8 Q358 -8 307 -8 Z M473 798 Q473 812 483.5 822 Q494 832 508 832 Q519 832 526.5 824 Q534 816 534 804 Q534 790 523.5 780.5 Q513 771 500 771 Q489 771 481 779 Q473 787 473 798 Z M301 798 Q301 812 311.5 822 Q322 832 336 832 Q347 832 354.5 824 Q362 816 362 804 Q362 790 351.5 780.5 Q341 771 328 771 Q317 771 309 779 Q301 787 301 798 Z " />
<glyph glyph-name="Agrave" unicode="&#xc0;" horiz-adv-x="639" d="M586 0 Q571 49 554 109 Q537 169 518.5 235 Q500 301 481.5 369.5 Q463 438 444.5 504 Q426 570 409 630.5 Q392 691 378 740 Q351 691 319 630.5 Q287 570 252.5 504 Q218 438 182.5 369.5 Q147 301 112.5 235 Q78 169 46 109 Q14 49 -13 0 L29 0 Q63 63 101 136 Q139 209 178 287 L465 287 Q485 209 505 136 Q525 63 544 0 L586 0 Z M354 623 L367 652 Q368 644 369.5 636 Q371 628 373 623 Q392 557 413 480.5 Q434 404 455 323 L197 323 Q238 404 278 480.5 Q318 557 354 623 Z M325 888 L400 755 L370 755 Q349 788 328.5 821.5 Q308 855 288 888 L325 888 Z " />
<glyph glyph-name="Egrave" unicode="&#xc8;" horiz-adv-x="608" d="M78 0 L165 707 L598 707 L593 669 L202 669 L166 375 L517 375 L512 337 L161 337 L125 39 L530 39 L525 0 L78 0 Z M368 888 L443 755 L413 755 Q392 788 371.5 821.5 Q351 855 331 888 L368 888 Z " />
<glyph glyph-name="Igrave" unicode="&#xcc;" horiz-adv-x="263" d="M164 707 L206 707 L119 0 L78 0 L164 707 Z M146 888 L221 755 L191 755 Q170 788 149.5 821.5 Q129 855 109 888 L146 888 Z " />
<glyph glyph-name="Ograve" unicode="&#xd2;" horiz-adv-x="830" d="M63 353 Q72 428 108.5 493.5 Q145 559 200 608.5 Q255 658 324 686.5 Q393 715 468 715 Q537 715 596 689.5 Q655 664 698 620 Q741 576 765 516.5 Q789 457 789 389 Q789 308 755 236 Q721 164 664.5 109.5 Q608 55 534 23.5 Q460 -8 379 -8 Q304 -8 242 20.5 Q180 49 137.5 98 Q95 147 74.5 212.5 Q54 278 63 353 Z M104 352 Q96 286 114 227.5 Q132 169 170 125.5 Q208 82 262.5 56.5 Q317 31 383 31 Q454 31 520 59 Q586 87 636.5 135.5 Q687 184 717 248.5 Q747 313 747 385 Q747 445 725.5 498 Q704 551 666 590.5 Q628 630 576 652.5 Q524 675 463 675 Q397 675 335.5 649.5 Q274 624 225.5 580 Q177 536 144.5 477.5 Q112 419 104 352 Z M423 888 L498 755 L468 755 Q447 788 426.5 821.5 Q406 855 386 888 L423 888 Z " />
<glyph glyph-name="Ugrave" unicode="&#xd9;" horiz-adv-x="681" d="M307 -8 Q256 -8 214 8 Q172 24 143.5 55 Q115 86 102.5 131.5 Q90 177 97 235 L155 707 L196 707 L139 238 Q133 190 143 151.5 Q153 113 176 86 Q199 59 234 45 Q269 31 312 31 Q354 31 392 45 Q430 59 460 86 Q490 113 509.5 151.5 Q529 190 535 238 L593 707 L634 707 L577 235 Q569 177 545 131.5 Q521 86 485 55 Q449 24 403.5 8 Q358 -8 307 -8 Z M360 888 L435 755 L405 755 Q384 788 363.5 821.5 Q343 855 323 888 L360 888 Z " />
<glyph glyph-name="Yacute" unicode="&#xdd;" horiz-adv-x="611" d="M325 255 L294 0 L252 0 L284 255 Q263 299 235.5 358.5 Q208 418 179.5 481 Q151 544 123.5 603.5 Q96 663 75 707 L122 707 Q141 667 163.5 619 Q186 571 209.5 520 Q233 469 256.5 417.5 Q280 366 301 319 L309 291 Q317 303 325 319 Q358 366 394 417.5 Q430 469 465.5 520 Q501 571 534.5 619 Q568 667 597 707 L644 707 L325 255 Z M349 755 L455 888 L493 888 L378 755 L349 755 Z " />
<glyph glyph-name="exclamdown" unicode="&#xa1;" horiz-adv-x="286" d="M81 375 L117 375 L190 -211 L153 -211 L81 375 Z M83 517 Q94 517 104.5 508.5 Q115 500 116 487 Q118 473 109.5 464.5 Q101 456 90 456 Q78 456 68 464.5 Q58 473 57 487 Q55 500 63.5 508.5 Q72 517 83 517 Z " />
<glyph glyph-name="Oslash" unicode="&#xd8;" horiz-adv-x="830" d="M63 353 Q72 428 108.5 493.5 Q145 559 200 608.5 Q255 658 324 686.5 Q393 715 468 715 Q528 715 578.5 696.5 Q629 678 671 644 L744 721 L762 701 Q747 685 728.5 666 Q710 647 690 627 Q737 582 763 521 Q789 460 789 389 Q789 308 755 236 Q721 164 664.5 109.5 Q608 55 534 23.5 Q460 -8 379 -8 Q313 -8 256.5 14 Q200 36 158 76 L81 -5 L63 14 L140 94 Q95 144 74.5 210 Q54 276 63 353 Z M188 106 Q225 71 274.5 51 Q324 31 383 31 Q454 31 520 59 Q586 87 636.5 135.5 Q687 184 717 248.5 Q747 313 747 385 Q747 448 724 502 Q701 556 660 596 Q608 542 547.5 479 Q487 416 424.5 351.5 Q362 287 301 224 Q240 161 188 106 Z M104 352 Q96 285 114 227 Q132 169 170 125 Q222 179 282.5 242 Q343 305 405.5 369.5 Q468 434 528.5 496.5 Q589 559 641 613 Q605 642 560 658.5 Q515 675 463 675 Q397 675 335.5 649.5 Q274 624 225.5 580 Q177 536 144.5 477.5 Q112 419 104 352 Z " />
<glyph glyph-name="questiondown" unicode="&#xbf;" horiz-adv-x="479" d="M372 -45 Q380 -48 387.5 -50.5 Q395 -53 402 -56 Q390 -83 370.5 -108 Q351 -133 324.5 -152.5 Q298 -172 265.5 -184 Q233 -196 195 -196 Q156 -196 124 -182.5 Q92 -169 69 -145 Q46 -121 33.5 -89 Q21 -57 21 -20 Q21 42 53 87 Q85 132 141 169 Q160 182 178 192 Q196 202 210.5 214.5 Q225 227 235 246 Q245 265 249 296 L259 374 L295 374 L283 277 Q279 246 266 226.5 Q253 207 233 192.5 Q213 178 188.5 164 Q164 150 138 129 Q96 97 77 60.5 Q58 24 58 -18 Q58 -49 68.5 -75 Q79 -101 97.5 -120 Q116 -139 142 -149.5 Q168 -160 199 -160 Q258 -160 303.5 -129.5 Q349 -99 372 -45 Z M296 522 Q306 522 314 514 Q322 506 322 495 Q322 480 311 470.5 Q300 461 288 461 Q278 461 269.5 468.5 Q261 476 261 489 Q261 503 272 512.5 Q283 522 296 522 Z " />
<glyph glyph-name="Atilde" unicode="&#xc3;" horiz-adv-x="639" d="M586 0 Q571 49 554 109 Q537 169 518.5 235 Q500 301 481.5 369.5 Q463 438 444.5 504 Q426 570 409 630.5 Q392 691 378 740 Q351 691 319 630.5 Q287 570 252.5 504 Q218 438 182.5 369.5 Q147 301 112.5 235 Q78 169 46 109 Q14 49 -13 0 L29 0 Q63 63 101 136 Q139 209 178 287 L465 287 Q485 209 505 136 Q525 63 544 0 L586 0 Z M354 623 L367 652 Q368 644 369.5 636 Q371 628 373 623 Q392 557 413 480.5 Q434 404 455 323 L197 323 Q238 404 278 480.5 Q318 557 354 623 Z M376 789 Q362 806 351 812 Q340 818 326 818 Q318 818 308 816 Q298 814 288 808 Q278 802 269.5 791.5 Q261 781 257 765 L234 768 Q237 787 247 801 Q257 815 270 824 Q283 833 298.5 837.5 Q314 842 328 842 Q349 842 365 832 Q381 822 395 805 Q409 788 420.5 782 Q432 776 446 776 Q453 776 463.5 778 Q474 780 484 786 Q494 792 502 802.5 Q510 813 514 829 L537 826 Q529 788 500.5 770.5 Q472 753 443 753 Q422 753 406 762.5 Q390 772 376 789 Z " />
<glyph glyph-name="Otilde" unicode="&#xd5;" horiz-adv-x="830" d="M63 353 Q72 428 108.5 493.5 Q145 559 200 608.5 Q255 658 324 686.5 Q393 715 468 715 Q537 715 596 689.5 Q655 664 698 620 Q741 576 765 516.5 Q789 457 789 389 Q789 308 755 236 Q721 164 664.5 109.5 Q608 55 534 23.5 Q460 -8 379 -8 Q304 -8 242 20.5 Q180 49 137.5 98 Q95 147 74.5 212.5 Q54 278 63 353 Z M104 352 Q96 286 114 227.5 Q132 169 170 125.5 Q208 82 262.5 56.5 Q317 31 383 31 Q454 31 520 59 Q586 87 636.5 135.5 Q687 184 717 248.5 Q747 313 747 385 Q747 445 725.5 498 Q704 551 666 590.5 Q628 630 576 652.5 Q524 675 463 675 Q397 675 335.5 649.5 Q274 624 225.5 580 Q177 536 144.5 477.5 Q112 419 104 352 Z M463 824 Q449 841 438 847 Q427 853 413 853 Q405 853 395 851 Q385 849 375 843 Q365 837 356.5 826.5 Q348 816 344 800 L321 803 Q324 822 334 836 Q344 850 357 859 Q370 868 385.5 872.5 Q401 877 415 877 Q436 877 452 867 Q468 857 482 840 Q496 823 507.5 817 Q519 811 533 811 Q540 811 550.5 813 Q561 815 571 821 Q581 827 589 837.5 Q597 848 601 864 L624 861 Q616 823 587.5 805.5 Q559 788 530 788 Q509 788 493 797.5 Q477 807 463 824 Z " />
<glyph glyph-name="acircumflex" unicode="&#xe2;" horiz-adv-x="513" d="M28 172 Q28 218 46.5 258.5 Q65 299 96.5 329.5 Q128 360 169 378 Q210 396 255 396 Q286 396 312 387.5 Q338 379 358 364 Q378 349 392 329.5 Q406 310 412 288 Q416 313 419.5 338 Q423 363 428 387 L459 387 L411 0 L377 0 L383 48 Q385 61 386.5 73.5 Q388 86 389 99 Q366 55 317.5 24 Q269 -7 206 -7 Q167 -7 134 7 Q101 21 77.5 45 Q54 69 41 101.5 Q28 134 28 172 Z M63 177 Q63 145 74 118 Q85 91 104.5 70.5 Q124 50 151.5 38.5 Q179 27 211 27 Q249 27 283.5 41.5 Q318 56 344 81.5 Q370 107 385.5 140 Q401 173 401 211 Q401 243 390 270.5 Q379 298 359 318.5 Q339 339 312 350.5 Q285 362 252 362 Q214 362 179.5 347.5 Q145 333 119 307.5 Q93 282 78 248.5 Q63 215 63 177 Z M317 663 Q342 617 366 571.5 Q390 526 416 481 L386 481 Q369 512 349 547 Q329 582 311 613 Q287 582 258 547 Q229 512 204 481 L175 481 L317 663 Z " />
<glyph glyph-name="ecircumflex" unicode="&#xea;" horiz-adv-x="438" d="M355 47 Q325 22 287 7.5 Q249 -7 207 -7 Q168 -7 135 7 Q102 21 78.5 45.5 Q55 70 41.5 103 Q28 136 28 174 Q28 219 47 259.5 Q66 300 97.5 330.5 Q129 361 170 379 Q211 397 256 397 Q321 397 361.5 359.5 Q402 322 417 264 Q379 250 335 233 Q291 216 245 198 Q199 180 153.5 162.5 Q108 145 68 130 Q82 84 119.5 55.5 Q157 27 210 27 Q244 27 276 39 Q308 51 332 72 L355 47 Z M374 274 Q360 314 329 338 Q298 362 252 362 Q215 362 181 347.5 Q147 333 121 307.5 Q95 282 79 248.5 Q63 215 63 178 Q63 172 63 165.5 Q63 159 64 154 Q100 168 140 183.5 Q180 199 220.5 214.5 Q261 230 300 245 Q339 260 374 274 Z M282 663 Q307 617 331 571.5 Q355 526 381 481 L351 481 Q334 512 314 547 Q294 582 276 613 Q252 582 223 547 Q194 512 169 481 L140 481 L282 663 Z " />
<glyph glyph-name="icircumflex" unicode="&#xee;" horiz-adv-x="173" d="M70 0 L36 0 L84 387 L118 387 L70 0 Z M135 663 Q160 617 184 571.5 Q208 526 234 481 L204 481 Q187 512 167 547 Q147 582 129 613 Q105 582 76 547 Q47 512 22 481 L-7 481 L135 663 Z " />
<glyph glyph-name="ocircumflex" unicode="&#xf4;" horiz-adv-x="483" d="M29 194 Q34 236 54.5 273 Q75 310 105.5 337.5 Q136 365 175 381 Q214 397 256 397 Q295 397 328 383 Q361 369 385 344 Q409 319 422.5 286 Q436 253 436 215 Q436 169 417.5 128.5 Q399 88 367.5 58 Q336 28 294 10.5 Q252 -7 206 -7 Q164 -7 129 8.5 Q94 24 70 51 Q46 78 35 114.5 Q24 151 29 194 Z M64 194 Q59 159 68.5 128.5 Q78 98 97.5 75.5 Q117 53 146 40 Q175 27 210 27 Q248 27 282.5 41.5 Q317 56 343 81 Q369 106 384.5 139.5 Q400 173 400 211 Q400 242 389 270 Q378 298 358 318 Q338 338 310.5 350 Q283 362 251 362 Q216 362 184 349 Q152 336 126.5 313 Q101 290 84.5 259.5 Q68 229 64 194 Z M290 663 Q315 617 339 571.5 Q363 526 389 481 L359 481 Q342 512 322 547 Q302 582 284 613 Q260 582 231 547 Q202 512 177 481 L148 481 L290 663 Z " />
<glyph glyph-name="ucircumflex" unicode="&#xfb;" horiz-adv-x="454" d="M352 -3 L325 -3 L334 101 Q308 52 260 22 Q212 -8 154 -8 Q98 -8 69 24.5 Q40 57 45 108 L79 387 L114 387 L80 114 Q78 79 98 54 Q118 29 162 26 Q195 26 225 37 Q255 48 279 67 Q303 86 319 112.5 Q335 139 339 171 L366 387 L400 387 L352 -3 Z M312 663 Q337 617 361 571.5 Q385 526 411 481 L381 481 Q364 512 344 547 Q324 582 306 613 Q282 582 253 547 Q224 512 199 481 L170 481 L312 663 Z " />
<glyph glyph-name="atilde" unicode="&#xe3;" horiz-adv-x="513" d="M28 172 Q28 218 46.5 258.5 Q65 299 96.5 329.5 Q128 360 169 378 Q210 396 255 396 Q286 396 312 387.5 Q338 379 358 364 Q378 349 392 329.5 Q406 310 412 288 Q416 313 419.5 338 Q423 363 428 387 L459 387 L411 0 L377 0 L383 48 Q385 61 386.5 73.5 Q388 86 389 99 Q366 55 317.5 24 Q269 -7 206 -7 Q167 -7 134 7 Q101 21 77.5 45 Q54 69 41 101.5 Q28 134 28 172 Z M63 177 Q63 145 74 118 Q85 91 104.5 70.5 Q124 50 151.5 38.5 Q179 27 211 27 Q249 27 283.5 41.5 Q318 56 344 81.5 Q370 107 385.5 140 Q401 173 401 211 Q401 243 390 270.5 Q379 298 359 318.5 Q339 339 312 350.5 Q285 362 252 362 Q214 362 179.5 347.5 Q145 333 119 307.5 Q93 282 78 248.5 Q63 215 63 177 Z M293 494 Q279 511 268 517 Q257 523 243 523 Q235 523 225 521 Q215 519 205 513 Q195 507 186.5 496.5 Q178 486 174 470 L151 473 Q154 492 164 506 Q174 520 187 529 Q200 538 215.5 542.5 Q231 547 245 547 Q266 547 282 537 Q298 527 312 510 Q326 493 337.5 487 Q349 481 363 481 Q370 481 380.5 483 Q391 485 401 491 Q411 497 419 507.5 Q427 518 431 534 L454 531 Q446 493 417.5 475.5 Q389 458 360 458 Q339 458 323 467.5 Q307 477 293 494 Z " />
<glyph glyph-name="grave" unicode="&#x60;" horiz-adv-x="201" d="M87 614 L162 481 L132 481 Q111 514 90.5 547.5 Q70 581 50 614 L87 614 Z " />
<glyph glyph-name="asciicircum" unicode="&#x5e;" horiz-adv-x="395" d="M246 663 Q271 617 295 571.5 Q319 526 345 481 L315 481 Q298 512 278 547 Q258 582 240 613 Q216 582 187 547 Q158 512 133 481 L104 481 L246 663 Z " />
<glyph glyph-name="otilde" unicode="&#xf5;" horiz-adv-x="483" d="M29 194 Q34 236 54.5 273 Q75 310 105.5 337.5 Q136 365 175 381 Q214 397 256 397 Q295 397 328 383 Q361 369 385 344 Q409 319 422.5 286 Q436 253 436 215 Q436 169 417.5 128.5 Q399 88 367.5 58 Q336 28 294 10.5 Q252 -7 206 -7 Q164 -7 129 8.5 Q94 24 70 51 Q46 78 35 114.5 Q24 151 29 194 Z M64 194 Q59 159 68.5 128.5 Q78 98 97.5 75.5 Q117 53 146 40 Q175 27 210 27 Q248 27 282.5 41.5 Q317 56 343 81 Q369 106 384.5 139.5 Q400 173 400 211 Q400 242 389 270 Q378 298 358 318 Q338 338 310.5 350 Q283 362 251 362 Q216 362 184 349 Q152 336 126.5 313 Q101 290 84.5 259.5 Q68 229 64 194 Z M264 494 Q250 511 239 517 Q228 523 214 523 Q206 523 196 521 Q186 519 176 513 Q166 507 157.5 496.5 Q149 486 145 470 L122 473 Q125 492 135 506 Q145 520 158 529 Q171 538 186.5 542.5 Q202 547 216 547 Q237 547 253 537 Q269 527 283 510 Q297 493 308.5 487 Q320 481 334 481 Q341 481 351.5 483 Q362 485 372 491 Q382 497 390 507.5 Q398 518 402 534 L425 531 Q417 493 388.5 475.5 Q360 458 331 458 Q310 458 294 467.5 Q278 477 264 494 Z " />
<glyph glyph-name="quotesingle" unicode="&#x27;" horiz-adv-x="188" d="M100 474 L131 723 L170 723 L136 474 L100 474 Z " />
<glyph glyph-name="underscore" unicode="&#x5f;" horiz-adv-x="536" d="M437 0 L35 0 L40 35 L442 35 L437 0 Z " />
<glyph glyph-name="bracketleft" unicode="&#x5b;" horiz-adv-x="298" d="M45 -150 L156 749 L329 749 L324 713 L189 713 L87 -114 L223 -114 L218 -150 L45 -150 Z " />
<glyph glyph-name="bracketright" unicode="&#x5d;" horiz-adv-x="297" d="M259 749 L149 -150 L-24 -150 L-20 -114 L116 -114 L217 713 L82 713 L86 749 L259 749 Z " />
<glyph glyph-name="degree" unicode="&#xb0;" horiz-adv-x="286" d="M171 504 Q197 504 217 522.5 Q237 541 237 568 Q237 590 222 605 Q207 620 185 620 Q159 620 139 601.5 Q119 583 119 556 Q119 534 134 519 Q149 504 171 504 Z M92 553 Q92 572 99.5 589 Q107 606 120.5 619 Q134 632 151.5 639 Q169 646 189 646 Q221 646 242 624.5 Q263 603 263 571 Q263 551 255 534.5 Q247 518 234 505 Q221 492 204 485 Q187 478 168 478 Q134 478 113 499.5 Q92 521 92 553 Z " />
<glyph glyph-name="ccedilla" unicode="&#xe7;" horiz-adv-x="401" d="M321 63 Q326 57 330.5 50.5 Q335 44 340 37 Q311 17 277.5 5 Q244 -7 207 -7 Q205 -20 207.5 -28.5 Q210 -37 215.5 -43 Q221 -49 228 -53 Q235 -57 241 -61 Q259 -75 266.5 -92.5 Q274 -110 274 -124 Q274 -175 243.5 -204 Q213 -233 170 -233 Q141 -233 118.5 -217 Q96 -201 89 -169 L116 -158 Q118 -178 133 -190.5 Q148 -203 171 -203 Q203 -203 223.5 -181.5 Q244 -160 244 -128 Q244 -106 233 -93.5 Q222 -81 209 -71 Q196 -61 186 -49.5 Q176 -38 179 -18 L180 -5 Q146 -1 118 14.5 Q90 30 70 54 Q50 78 39 108.5 Q28 139 28 174 Q28 219 46.5 259.5 Q65 300 96.5 330.5 Q128 361 169.5 378.5 Q211 396 256 396 Q294 396 325 384 Q356 372 380 352 Q374 345 367 339 Q360 333 354 325 Q334 342 308.5 352 Q283 362 253 362 Q215 362 180.5 347.5 Q146 333 120 307.5 Q94 282 78.5 248.5 Q63 215 63 177 Q63 145 74 118 Q85 91 104.5 70.5 Q124 50 151 38.5 Q178 27 211 27 Q242 27 270 36.5 Q298 46 321 63 Z " />
<glyph glyph-name="Ccedilla" unicode="&#xc7;" horiz-adv-x="642" d="M581 45 Q543 24 494 9 Q445 -6 385 -8 Q383 -21 386.5 -29 Q390 -37 395 -43 Q400 -49 407 -53 Q414 -57 420 -61 Q438 -75 445.5 -92.5 Q453 -110 453 -124 Q453 -175 422.5 -204 Q392 -233 349 -233 Q320 -233 297.5 -217 Q275 -201 268 -169 L295 -158 Q297 -178 312 -190.5 Q327 -203 350 -203 Q382 -203 402.5 -181.5 Q423 -160 423 -128 Q423 -106 412 -93.5 Q401 -81 388 -71 Q375 -61 365 -49.5 Q355 -38 358 -18 L359 -7 Q289 -4 233.5 22 Q178 48 140 91 Q102 134 81.5 190.5 Q61 247 61 310 Q61 395 95 468.5 Q129 542 185.5 597 Q242 652 316 683.5 Q390 715 471 715 Q524 715 571.5 701.5 Q619 688 651 665 Q644 656 640.5 650.5 Q637 645 628 632 Q596 654 554 665 Q512 676 468 676 Q396 676 329.5 647.5 Q263 619 213 570 Q163 521 133 455.5 Q103 390 103 317 Q103 260 122 208.5 Q141 157 177 118.5 Q213 80 265 57 Q317 34 382 34 Q437 34 485 48.5 Q533 63 565 82 L581 45 Z " />
<glyph glyph-name="endash" unicode="&#x2013;" horiz-adv-x="432" d="M54 176 L59 212 L361 212 L356 176 L54 176 Z " />
<glyph glyph-name="emdash" unicode="&#x2014;" horiz-adv-x="634" d="M54 176 L59 212 L563 212 L558 176 L54 176 Z " />
<glyph glyph-name="cedilla" unicode="&#xb8;" horiz-adv-x="454" d="M191 0 L218 0 L217 -6 Q215 -20 217.5 -28.5 Q220 -37 225.5 -43 Q231 -49 238 -53 Q245 -57 251 -61 Q269 -75 276.5 -92.5 Q284 -110 284 -124 Q284 -175 253.5 -204 Q223 -233 180 -233 Q151 -233 128.5 -217 Q106 -201 99 -169 L125 -158 Q128 -178 143 -190.5 Q158 -203 181 -203 Q213 -203 233.5 -181.5 Q254 -160 254 -128 Q254 -106 243 -93 Q232 -80 219 -70.5 Q206 -61 196 -50.5 Q186 -40 188 -22 L191 0 Z " />
<glyph glyph-name="acute" unicode="&#xb4;" horiz-adv-x="237" d="M160 481 L266 614 L304 614 L189 481 L160 481 Z " />
<glyph glyph-name="dieresis" unicode="&#xa8;" horiz-adv-x="372" d="M306 505 Q306 519 316.5 529 Q327 539 341 539 Q352 539 359.5 531 Q367 523 367 511 Q367 497 356.5 487.5 Q346 478 333 478 Q322 478 314 486 Q306 494 306 505 Z M134 505 Q134 519 144.5 529 Q155 539 169 539 Q180 539 187.5 531 Q195 523 195 511 Q195 497 184.5 487.5 Q174 478 161 478 Q150 478 142 486 Q134 494 134 505 Z " />
<glyph glyph-name="Eth" unicode="&#xd0;" horiz-adv-x="716" d="M67 369 L129 369 L170 707 L324 707 Q421 707 487.5 678.5 Q554 650 595 605 Q636 560 654.5 503.5 Q673 447 673 390 Q673 301 639.5 229 Q606 157 550.5 106 Q495 55 422.5 27.5 Q350 0 272 0 L84 0 L125 338 L63 338 L67 369 Z M277 40 Q347 40 411.5 64.5 Q476 89 525 134 Q574 179 603.5 243 Q633 307 633 387 Q633 441 615 491.5 Q597 542 560.5 581 Q524 620 467.5 643 Q411 666 335 666 L207 666 Q197 591 188 517.5 Q179 444 170 369 L354 369 L350 338 L166 338 Q156 263 147 189 Q138 115 129 40 L277 40 Z " />
<glyph glyph-name="thorn" unicode="&#xfe;" horiz-adv-x="514" d="M467 216 Q467 169 449 128.5 Q431 88 399.5 58 Q368 28 326.5 10.5 Q285 -7 239 -7 Q210 -7 184 1 Q158 9 137.5 23.5 Q117 38 102.5 57 Q88 76 81 99 L77 48 L48 -186 L13 -186 L129 758 L164 758 L106 288 Q119 310 138 330 Q157 350 181 364.5 Q205 379 232.5 387.5 Q260 396 290 396 Q329 396 362 382.5 Q395 369 418 345 Q441 321 454 288 Q467 255 467 216 Z M431 213 Q431 244 420 271 Q409 298 389.5 318.5 Q370 339 343 350.5 Q316 362 283 362 Q245 362 210.5 347.5 Q176 333 150 307.5 Q124 282 108.5 248.5 Q93 215 93 177 Q93 145 104 118 Q115 91 135 70.5 Q155 50 182.5 38.5 Q210 27 242 27 Q281 27 315 41.5 Q349 56 375 81.5 Q401 107 416 141 Q431 175 431 213 Z " />
<glyph glyph-name="eth" unicode="&#xf0;" horiz-adv-x="487" d="M29 194 Q34 236 54.5 273 Q75 310 105.5 337.5 Q136 365 175 381 Q214 397 256 397 Q298 397 332.5 381 Q367 365 391 337 Q383 391 354 464 Q325 537 268 617 L188 541 Q184 546 180 550.5 Q176 555 171 560 L254 639 Q234 664 213.5 687 Q193 710 169 731 L191 751 Q214 731 235.5 708.5 Q257 686 277 660 Q314 697 353 733 Q357 729 361 724.5 Q365 720 370 716 L292 640 Q322 597 349 547 Q376 497 396 444 Q416 391 427.5 337.5 Q439 284 439 234 Q439 213 437.5 202 Q436 191 434 187 Q428 146 407.5 110.5 Q387 75 356.5 49 Q326 23 287 8 Q248 -7 206 -7 Q164 -7 129 8.5 Q94 24 70 51 Q46 78 35 114.5 Q24 151 29 194 Z M64 194 Q59 159 68.5 128.5 Q78 98 97.5 75.5 Q117 53 146 40 Q175 27 210 27 Q248 27 282.5 41.5 Q317 56 343 81 Q369 106 384.5 139.5 Q400 173 400 211 Q400 242 389 270 Q378 298 358 318 Q338 338 310.5 350 Q283 362 251 362 Q216 362 184 349 Q152 336 126.5 313 Q101 290 84.5 259.5 Q68 229 64 194 Z " />
<glyph glyph-name="Thorn" unicode="&#xde;" horiz-adv-x="519" d="M78 0 L165 703 L206 703 L188 551 L303 551 Q337 551 371.5 541 Q406 531 434 510 Q462 489 479.5 456 Q497 423 497 377 Q497 336 482.5 295 Q468 254 437 221 Q406 188 359 167.5 Q312 147 247 147 L138 147 L120 0 L78 0 Z M143 187 L253 187 Q311 187 350.5 206.5 Q390 226 413 254.5 Q436 283 446 315 Q456 347 456 372 Q456 402 444.5 427.5 Q433 453 412 472 Q391 491 361 501.5 Q331 512 294 512 L182 512 L143 187 Z " />
<glyph glyph-name="Acircumflex" unicode="&#xc2;" horiz-adv-x="639" d="M586 0 Q571 49 554 109 Q537 169 518.5 235 Q500 301 481.5 369.5 Q463 438 444.5 504 Q426 570 409 630.5 Q392 691 378 740 Q351 691 319 630.5 Q287 570 252.5 504 Q218 438 182.5 369.5 Q147 301 112.5 235 Q78 169 46 109 Q14 49 -13 0 L29 0 Q63 63 101 136 Q139 209 178 287 L465 287 Q485 209 505 136 Q525 63 544 0 L586 0 Z M354 623 L367 652 Q368 644 369.5 636 Q371 628 373 623 Q392 557 413 480.5 Q434 404 455 323 L197 323 Q238 404 278 480.5 Q318 557 354 623 Z M434 937 Q459 891 483 845.5 Q507 800 533 755 L503 755 Q486 786 466 821 Q446 856 428 887 Q404 856 375 821 Q346 786 321 755 L292 755 L434 937 Z " />
<glyph glyph-name="Ecircumflex" unicode="&#xca;" horiz-adv-x="608" d="M78 0 L165 707 L598 707 L593 669 L202 669 L166 375 L517 375 L512 337 L161 337 L125 39 L530 39 L525 0 L78 0 Z M414 937 Q439 891 463 845.5 Q487 800 513 755 L483 755 Q466 786 446 821 Q426 856 408 887 Q384 856 355 821 Q326 786 301 755 L272 755 L414 937 Z " />
<glyph glyph-name="Icircumflex" unicode="&#xce;" horiz-adv-x="262" d="M164 707 L206 707 L119 0 L78 0 L164 707 Z M214 937 Q239 891 263 845.5 Q287 800 313 755 L283 755 Q266 786 246 821 Q226 856 208 887 Q184 856 155 821 Q126 786 101 755 L72 755 L214 937 Z " />
<glyph glyph-name="Ocircumflex" unicode="&#xd4;" horiz-adv-x="830" d="M63 353 Q72 428 108.5 493.5 Q145 559 200 608.5 Q255 658 324 686.5 Q393 715 468 715 Q537 715 596 689.5 Q655 664 698 620 Q741 576 765 516.5 Q789 457 789 389 Q789 308 755 236 Q721 164 664.5 109.5 Q608 55 534 23.5 Q460 -8 379 -8 Q304 -8 242 20.5 Q180 49 137.5 98 Q95 147 74.5 212.5 Q54 278 63 353 Z M104 352 Q96 286 114 227.5 Q132 169 170 125.5 Q208 82 262.5 56.5 Q317 31 383 31 Q454 31 520 59 Q586 87 636.5 135.5 Q687 184 717 248.5 Q747 313 747 385 Q747 445 725.5 498 Q704 551 666 590.5 Q628 630 576 652.5 Q524 675 463 675 Q397 675 335.5 649.5 Q274 624 225.5 580 Q177 536 144.5 477.5 Q112 419 104 352 Z M488 937 Q513 891 537 845.5 Q561 800 587 755 L557 755 Q540 786 520 821 Q500 856 482 887 Q458 856 429 821 Q400 786 375 755 L346 755 L488 937 Z " />
<glyph glyph-name="Ucircumflex" unicode="&#xdb;" horiz-adv-x="681" d="M307 -8 Q256 -8 214 8 Q172 24 143.5 55 Q115 86 102.5 131.5 Q90 177 97 235 L155 707 L196 707 L139 238 Q133 190 143 151.5 Q153 113 176 86 Q199 59 234 45 Q269 31 312 31 Q354 31 392 45 Q430 59 460 86 Q490 113 509.5 151.5 Q529 190 535 238 L593 707 L634 707 L577 235 Q569 177 545 131.5 Q521 86 485 55 Q449 24 403.5 8 Q358 -8 307 -8 Z M431 943 Q456 897 480 851.5 Q504 806 530 761 L500 761 Q483 792 463 827 Q443 862 425 893 Q401 862 372 827 Q343 792 318 761 L289 761 L431 943 Z " />
<glyph glyph-name="plusminus" unicode="&#xb1;" horiz-adv-x="534" d="M243 212 L263 375 L101 375 L105 411 L267 411 L287 573 L324 573 L304 411 L466 411 L462 375 L300 375 L279 212 L243 212 Z M431 121 L69 121 L74 157 L435 157 L431 121 Z " />
<glyph glyph-name="dollar" unicode="&#x24;" horiz-adv-x="534" d="M505 672 L486 639 Q457 652 414.5 662.5 Q372 673 330 673 L327 673 L294 405 Q327 392 360.5 377 Q394 362 421 340.5 Q448 319 464.5 288.5 Q481 258 481 215 Q481 166 463 126.5 Q445 87 413.5 58.5 Q382 30 338 13 Q294 -4 243 -7 L236 -68 L208 -68 L215 -8 Q174 -7 141.5 1.5 Q109 10 83.5 21 Q58 32 41 43 Q24 54 15 60 L39 97 Q54 86 74 75 Q94 64 117.5 54.5 Q141 45 167 39 Q193 33 220 32 L262 374 Q232 386 203.5 399 Q175 412 153.5 429 Q132 446 118.5 469 Q105 492 105 524 Q105 559 120 591 Q135 623 161 648 Q187 673 223.5 689.5 Q260 706 303 710 L311 772 L339 772 L331 711 Q354 711 379 707 Q404 703 427.5 697.5 Q451 692 471 685 Q491 678 505 672 Z M440 210 Q440 243 427.5 266.5 Q415 290 394 308 Q373 326 345.5 339 Q318 352 289 364 L248 33 Q281 36 315.5 48 Q350 60 377.5 81.5 Q405 103 422.5 135 Q440 167 440 210 Z M147 532 Q147 509 156.5 491.5 Q166 474 182.5 460.5 Q199 447 221 436 Q243 425 267 415 L298 671 Q263 667 235.5 654.5 Q208 642 188 623 Q168 604 157.5 580.5 Q147 557 147 532 Z " />
<glyph glyph-name="cent" unicode="&#xa2;" horiz-adv-x="423" d="M326 63 Q331 57 335.5 50.5 Q340 44 345 37 Q316 17 283 5.5 Q250 -6 214 -7 L207 -68 L179 -68 L186 -5 Q152 -1 124 14.5 Q96 30 75.5 53.5 Q55 77 44 108 Q33 139 33 174 Q33 216 49 254 Q65 292 92.5 321.5 Q120 351 157 370 Q194 389 235 394 L242 452 L270 452 L263 396 Q300 395 330.5 383.5 Q361 372 385 352 Q379 345 372 339 Q365 333 359 325 Q339 342 313.5 352 Q288 362 259 362 L218 27 Q248 27 275.5 36.5 Q303 46 326 63 Z M68 177 Q68 120 101.5 78.5 Q135 37 190 29 L231 360 Q197 355 167.5 338.5 Q138 322 116 297.5 Q94 273 81 242 Q68 211 68 177 Z " />
<glyph glyph-name="bullet" unicode="&#x2022;" horiz-adv-x="358" d="M96 292 Q96 311 104 328.5 Q112 346 125.5 359 Q139 372 156.5 379.5 Q174 387 193 387 Q226 387 247 364.5 Q268 342 268 310 Q268 290 260 273 Q252 256 239 243.5 Q226 231 208.5 223.5 Q191 216 172 216 Q139 216 117.5 238 Q96 260 96 292 Z " />
<glyph glyph-name="quotedblleft" unicode="&#x201c;" horiz-adv-x="284" d="M161 592 L142 572 Q116 599 108 636 Q100 673 113 714 L142 707 Q131 672 137 642 Q143 612 161 592 Z M266 592 L246 572 Q220 599 212.5 636 Q205 673 218 714 L246 707 Q235 672 241 642 Q247 612 266 592 Z " />
<glyph glyph-name="quotedblright" unicode="&#x201d;" horiz-adv-x="286" d="M111 572 Q107 577 104 582 Q101 587 96 592 Q120 612 133 642 Q146 672 143 707 L174 714 Q178 673 160.5 636 Q143 599 111 572 Z M215 572 Q208 584 200 592 Q224 612 237 642 Q250 672 248 707 L278 714 Q282 673 265 636 Q248 599 215 572 Z " />
<glyph glyph-name="quoteleft" unicode="&#x2018;" horiz-adv-x="179" d="M161 592 L142 572 Q116 599 108 636 Q100 673 114 714 L142 707 Q131 672 137 642 Q143 612 161 592 Z " />
<glyph glyph-name="quotedblbase" unicode="&#x201e;" horiz-adv-x="306" d="M140 -49 L125 -29 Q148 -9 161.5 20.5 Q175 50 172 85 L203 92 Q206 52 189 15 Q172 -22 140 -49 Z M36 -49 L21 -29 Q44 -9 57 20.5 Q70 50 68 85 L99 92 Q102 52 85 15 Q68 -22 36 -49 Z " />
<glyph glyph-name="quotesinglbase" unicode="&#x201a;" horiz-adv-x="202" d="M36 -49 L21 -29 Q44 -9 57 20.5 Q70 50 68 85 L99 92 Q102 52 85 15 Q68 -22 36 -49 Z " />
<glyph glyph-name="guilsinglright" unicode="&#x203a;" horiz-adv-x="305" d="M95 111 Q120 140 148 175.5 Q176 211 201 240 Q169 269 132 304 Q95 339 63 368 L58 410 Q77 393 102.5 370.5 Q128 348 154 324.5 Q180 301 205.5 278.5 Q231 256 250 240 L100 69 L95 111 Z " />
<glyph glyph-name="guillemotleft" unicode="&#xab;" horiz-adv-x="453" d="M365 69 L214 240 Q233 256 258.5 278.5 Q284 301 310.5 324.5 Q337 348 362.5 370.5 Q388 393 407 410 L402 368 Q370 339 333 304 Q296 269 264 240 Q289 211 317 175.5 Q345 140 370 111 L365 69 Z M193 69 L43 240 Q62 256 87.5 278.5 Q113 301 139 324.5 Q165 348 190.5 370.5 Q216 393 235 410 L230 368 Q198 339 161 304 Q124 269 92 240 Q117 211 145 175.5 Q173 140 198 111 L193 69 Z " />
<glyph glyph-name="guillemotright" unicode="&#xbb;" horiz-adv-x="477" d="M95 111 Q120 140 148 175.5 Q176 211 201 240 Q169 269 132 304 Q95 339 63 368 L58 410 Q77 393 102.5 370.5 Q128 348 154.5 324.5 Q181 301 206.5 278.5 Q232 256 251 240 L100 69 L95 111 Z M267 111 Q292 140 320 175.5 Q348 211 373 240 Q341 269 304 304 Q267 339 235 368 L230 410 Q249 393 274.5 370.5 Q300 348 326 324.5 Q352 301 377.5 278.5 Q403 256 422 240 L272 69 L267 111 Z " />
<glyph glyph-name="yen" unicode="&#xa5;" horiz-adv-x="636" d="M335 255 L319 127 L469 127 L465 100 L316 100 L304 0 L262 0 L274 100 L132 100 L136 127 L278 127 L294 255 L290 263 L152 263 L156 290 L277 290 Q256 335 230.5 391 Q205 447 179 504 Q153 561 128.5 614 Q104 667 85 707 L132 707 Q151 667 173.5 619 Q196 571 219.5 520 Q243 469 266.5 417.5 Q290 366 311 319 L319 291 Q327 303 335 319 Q368 366 404 417.5 Q440 469 475.5 520 Q511 571 544.5 619 Q578 667 607 707 L654 707 L359 290 L489 290 L485 263 L340 263 L335 255 Z " />
<glyph glyph-name="copyright" unicode="&#xa9;" horiz-adv-x="632" d="M298 117 Q248 117 206 134 Q164 151 134 181.5 Q104 212 87 253.5 Q70 295 70 344 Q70 405 93.5 457 Q117 509 157 547 Q197 585 249.5 606.5 Q302 628 360 628 Q410 628 452 611 Q494 594 524 564 Q554 534 571 492 Q588 450 588 400 Q588 340 564.5 288 Q541 236 501.5 198 Q462 160 409 138.5 Q356 117 298 117 Z M300 135 Q353 135 401.5 155 Q450 175 487 210.5 Q524 246 546 293.5 Q568 341 568 397 Q568 443 552 482.5 Q536 522 508 550 Q480 578 441.5 594 Q403 610 358 610 Q305 610 257 590 Q209 570 171.5 534.5 Q134 499 112 450.5 Q90 402 90 346 Q90 301 106 262.5 Q122 224 150 195.5 Q178 167 216.5 151 Q255 135 300 135 Z M407 235 Q390 225 366.5 218 Q343 211 315 211 Q281 211 254.5 222.5 Q228 234 209.5 253.5 Q191 273 181.5 299.5 Q172 326 172 355 Q172 394 187.5 427.5 Q203 461 228.5 485.5 Q254 510 287.5 524.5 Q321 539 357 539 Q381 539 402.5 533 Q424 527 439 516 L428 501 Q414 511 395 516 Q376 521 356 521 Q323 521 293.5 508 Q264 495 241 473 Q218 451 204.5 421 Q191 391 191 358 Q191 332 199.5 309 Q208 286 224.5 268.5 Q241 251 264.5 240.5 Q288 230 317 230 Q342 230 363.5 237 Q385 244 400 252 L407 235 Z " />
<glyph glyph-name="registered" unicode="&#xae;" horiz-adv-x="632" d="M298 117 Q248 117 206 134 Q164 151 134 181.5 Q104 212 87 253.5 Q70 295 70 344 Q70 405 93.5 457 Q117 509 157 547 Q197 585 249.5 606.5 Q302 628 360 628 Q410 628 452 611 Q494 594 524 564 Q554 534 571 492 Q588 450 588 400 Q588 340 564.5 288 Q541 236 501.5 198 Q462 160 409 138.5 Q356 117 298 117 Z M300 135 Q353 135 401.5 155 Q450 175 487 210.5 Q524 246 546 293.5 Q568 341 568 397 Q568 443 552 482.5 Q536 522 508 550 Q480 578 441.5 594 Q403 610 358 610 Q305 610 257 590 Q209 570 171.5 534.5 Q134 499 112 450.5 Q90 402 90 346 Q90 301 106 262.5 Q122 224 150 195.5 Q178 167 216.5 151 Q255 135 300 135 Z M234 210 L275 544 L349 544 Q365 544 381.5 539.5 Q398 535 411 525 Q424 515 432 499.5 Q440 484 440 462 Q440 432 423 403.5 Q406 375 371 361 Q375 353 386 330.5 Q397 308 409.5 282.5 Q422 257 432 236 Q442 215 445 210 L421 210 Q419 214 409.5 233 Q400 252 389 275 Q378 298 367 320.5 Q356 343 350 355 Q343 354 336.5 353.5 Q330 353 322 353 L271 353 L253 210 L234 210 Z M273 372 L325 372 Q352 372 370.5 381.5 Q389 391 400.5 404.5 Q412 418 416.5 433.5 Q421 449 421 460 Q421 488 400.5 507 Q380 526 344 526 L292 526 L273 372 Z " />
<glyph glyph-name="divide" unicode="&#xf7;" horiz-adv-x="511" d="M429 210 L67 210 L72 245 L433 245 L429 210 Z M239 355 Q239 369 249.5 379 Q260 389 273 389 Q284 389 291.5 381 Q299 373 299 362 Q299 347 289 337.5 Q279 328 266 328 Q255 328 247 336 Q239 344 239 355 Z M206 92 Q206 106 217 116 Q228 126 241 126 Q252 126 260 118 Q268 110 268 99 Q268 84 257 74.5 Q246 65 233 65 Q222 65 214 73 Q206 81 206 92 Z " />
<glyph glyph-name="onehalf" unicode="&#xbd;" horiz-adv-x="827" d="M530 25 L759 25 L756 0 L464 0 Q517 46 567 90 Q617 134 655.5 176.5 Q694 219 717 259 Q740 299 740 337 Q740 367 731.5 387 Q723 407 709.5 419 Q696 431 680 436.5 Q664 442 649 442 Q613 442 589 428.5 Q565 415 551 395 Q537 375 531.5 353 Q526 331 526 315 Q526 276 546 251 L529 236 Q515 250 508 271 Q501 292 501 315 Q501 345 511 373 Q521 401 540.5 422 Q560 443 588 455.5 Q616 468 652 468 Q706 468 736.5 432.5 Q767 397 767 344 Q767 302 745.5 261.5 Q724 221 690 181.5 Q656 142 614 103 Q572 64 530 25 Z M168 -19 L541 738 L577 738 L204 -19 L168 -19 Z M87 672 L90 697 L186 697 L130 234 L103 234 L157 672 L87 672 Z " />
<glyph glyph-name="onequarter" unicode="&#xbc;" horiz-adv-x="788" d="M383 133 Q462 223 543.5 313 Q625 403 704 492 L664 160 L736 160 L733 133 L661 133 L645 0 L617 0 L634 133 L383 133 Z M155 -19 L528 738 L564 738 L191 -19 L155 -19 Z M668 417 L440 160 L637 160 L668 417 Z M88 672 L91 697 L187 697 L131 234 L104 234 L158 672 L88 672 Z " />
<glyph glyph-name="ordfeminine" unicode="&#xaa;" horiz-adv-x="422" d="M72 430 Q72 463 85.5 492.5 Q99 522 121.5 544 Q144 566 173.5 579 Q203 592 235 592 Q280 592 310 569 Q340 546 349 514 Q351 532 354 550 Q357 568 360 585 L383 585 L348 306 L323 306 L328 341 L332 377 Q315 346 280 323.5 Q245 301 200 301 Q171 301 147.5 311 Q124 321 107.5 338.5 Q91 356 81.5 379.5 Q72 403 72 430 Z M97 434 Q97 388 127 356.5 Q157 325 204 325 Q231 325 256 335.5 Q281 346 300 364.5 Q319 383 330 407 Q341 431 341 458 Q341 504 311 535.5 Q281 567 233 567 Q206 567 181 556.5 Q156 546 137.5 528 Q119 510 108 485.5 Q97 461 97 434 Z " />
<glyph glyph-name="sterling" unicode="&#xa3;" horiz-adv-x="572" d="M124 35 L348 35 Q410 35 435 46 Q460 57 464 88 L470 141 L508 141 L500 86 Q498 69 493.5 53.5 Q489 38 476.5 26 Q464 14 439 7 Q414 0 371 0 L9 0 L14 35 L58 35 Q75 35 86 41 Q97 47 104.5 62.5 Q112 78 116.5 104 Q121 130 126 170 L142 300 L77 300 L81 336 L147 336 L168 512 Q172 547 188 574 Q204 601 229.5 619 Q255 637 288.5 646 Q322 655 361 655 Q429 655 463.5 629.5 Q498 604 514 562 Q507 557 499.5 553.5 Q492 550 485 546 Q477 564 467 577.5 Q457 591 443 600.5 Q429 610 408 614.5 Q387 619 357 619 Q318 619 290 610.5 Q262 602 244 587 Q226 572 216.5 551.5 Q207 531 204 508 L183 336 L309 336 L304 300 L178 300 L160 154 L157 127 Q153 98 147 73.5 Q141 49 124 35 Z " />
<glyph glyph-name="onesuperior" unicode="&#xb9;" horiz-adv-x="182" d="M94 685 L96 701 L159 701 L122 401 L105 401 L140 685 L94 685 Z " />
<glyph glyph-name="threequarters" unicode="&#xbe;" horiz-adv-x="985" d="M579 133 Q658 223 739.5 313 Q821 403 901 492 L861 160 L933 160 L930 133 L857 133 L842 0 L814 0 L830 133 L579 133 Z M142 477 Q185 529 229 580 Q273 631 316 683 L113 683 L117 710 L369 710 Q328 662 286.5 614 Q245 566 204 518 Q233 517 258 506 Q283 495 301 476 Q319 457 329.5 432 Q340 407 340 377 Q340 341 325 309 Q310 277 284.5 252.5 Q259 228 226 214 Q193 200 158 200 Q122 200 94 214.5 Q66 229 46 252 Q51 257 57.5 262.5 Q64 268 70 273 Q84 253 107.5 240 Q131 227 160 227 Q189 227 216.5 239 Q244 251 265 271 Q286 291 299 318 Q312 345 312 374 Q312 399 303 421 Q294 443 277.5 459 Q261 475 239 484 Q217 493 192 493 Q166 493 142 477 Z M323 -19 L696 739 L732 739 L359 -19 L323 -19 Z M865 417 L636 160 L833 160 L865 417 Z " />
<glyph glyph-name="twosuperior" unicode="&#xb2;" horiz-adv-x="339" d="M130 392 L291 392 L289 375 L84 375 Q121 407 156 438 Q191 469 218 498.5 Q245 528 261 556 Q277 584 277 610 Q277 631 271 645 Q265 659 255.5 667.5 Q246 676 234.5 680 Q223 684 213 684 Q188 684 171.5 674.5 Q155 665 145 651 Q135 637 131 622 Q127 607 127 595 Q127 569 141 550 L129 539 Q119 549 114 564 Q109 579 109 595 Q109 638 137 669.5 Q165 701 215 701 Q253 701 274.5 676.5 Q296 652 296 615 Q296 586 281 557.5 Q266 529 242 501.5 Q218 474 188.5 446.5 Q159 419 130 392 Z " />
<glyph glyph-name="paragraph" unicode="&#xb6;" horiz-adv-x="522" d="M206 0 L170 0 L222 425 Q190 425 163.5 436.5 Q137 448 118 467.5 Q99 487 88 513.5 Q77 540 77 571 Q77 608 92 641.5 Q107 675 132.5 699.5 Q158 724 191.5 738.5 Q225 753 262 753 L462 753 L370 0 L334 0 L422 718 L295 718 L206 0 Z " />
<glyph glyph-name="logicalnot" unicode="&#xac;" horiz-adv-x="525" d="M400 149 L408 215 L83 215 L87 244 L448 244 L436 149 L400 149 Z " />
<glyph glyph-name="threesuperior" unicode="&#xb3;" horiz-adv-x="293" d="M137 553 Q164 586 192 618.5 Q220 651 248 684 L118 684 L121 702 L282 702 L176 579 Q214 577 238.5 552 Q263 527 263 489 Q263 466 253.5 445.5 Q244 425 227.5 409.5 Q211 394 190 385 Q169 376 147 376 Q124 376 106 385 Q88 394 75 410 Q79 413 82.5 416 Q86 419 90 423 Q99 410 114 401.5 Q129 393 148 393 Q167 393 184.5 400.5 Q202 408 215.5 421 Q229 434 237 451 Q245 468 245 487 Q245 519 223 541 Q201 563 169 563 Q152 563 137 553 Z " />
<glyph glyph-name="brokenbar" unicode="&#xa6;" horiz-adv-x="188" d="M50 -234 L14 -234 L57 117 L93 117 L50 -234 Z M122 351 L86 351 L129 703 L166 703 L122 351 Z " />
<glyph glyph-name="ampersand" unicode="&#x26;" horiz-adv-x="637" d="M560 0 L518 0 Q511 10 502 24 Q494 35 483 51.5 Q472 68 459 88 Q424 47 366 20 Q308 -7 242 -7 Q195 -7 157 7 Q119 21 92 45 Q65 69 50.5 101.5 Q36 134 36 172 Q36 216 54.5 254.5 Q73 293 104 322 Q135 351 175.5 370 Q216 389 259 395 Q234 434 217 461 Q200 488 198 496 Q189 516 182.5 537 Q176 558 176 584 Q176 622 191 652.5 Q206 683 231 705 Q256 727 288.5 739 Q321 751 357 751 Q399 751 432.5 738 Q466 725 488 709 Q488 708 485 704.5 Q482 701 478.5 696.5 Q475 692 472 688.5 Q469 685 468 684 Q445 698 419 707.5 Q393 717 364 718 Q335 719 307.5 710 Q280 701 259 684 Q238 667 225.5 642 Q213 617 213 586 Q213 554 221.5 532.5 Q230 511 231 510 L462 152 L585 397 L623 397 L482 120 L560 0 Z M280 362 Q245 361 208.5 347 Q172 333 142 309 Q112 285 92.5 251 Q73 217 73 175 Q73 140 87 113 Q101 86 124.5 66.5 Q148 47 179.5 37 Q211 27 247 27 Q276 27 304.5 34 Q333 41 359 53 Q385 65 406 81 Q427 97 441 115 Q405 171 361.5 237 Q318 303 280 362 Z " />
<glyph glyph-name="germandbls" unicode="&#xdf;" horiz-adv-x="533" d="M153 18 Q158 26 162.5 33.5 Q167 41 172 49 Q189 38 209 32 Q229 26 252 26 Q291 26 327 41.5 Q363 57 390.5 83.5 Q418 110 434.5 144 Q451 178 451 216 Q451 248 439.5 276 Q428 304 407 325 Q386 346 357.5 358 Q329 370 296 370 L298 388 L300 406 Q325 406 348 414.5 Q371 423 388.5 438 Q406 453 416 475 Q426 497 426 524 Q426 543 419.5 561.5 Q413 580 399.5 594 Q386 608 365 616.5 Q344 625 316 625 Q242 625 199.5 571.5 Q157 518 146 428 L93 0 L58 0 L102 360 L37 360 L41 395 L106 395 L110 427 Q124 538 179 598 Q234 658 312 660 Q354 660 382.5 649 Q411 638 429 620.5 Q447 603 455 580.5 Q463 558 463 534 Q463 481 436 444.5 Q409 408 363 391 Q389 385 411.5 369 Q434 353 451 330.5 Q468 308 477.5 280 Q487 252 487 220 Q487 174 467 132.5 Q447 91 414 60 Q381 29 338 10.5 Q295 -8 249 -8 Q194 -8 153 18 Z " />
<glyph glyph-name="currency" unicode="&#xa4;" horiz-adv-x="453" d="M98 346 Q98 375 109.5 400 Q121 425 140 446 L110 481 L132 501 L162 466 Q182 481 205.5 490 Q229 499 255 499 Q280 499 301.5 490 Q323 481 338 465 L378 500 L395 481 L356 446 Q376 417 376 374 Q376 345 364 319.5 Q352 294 332 273 L365 235 L343 215 L309 253 Q270 223 220 223 Q171 223 139 252 L96 214 L79 234 L121 272 Q110 287 104 306.5 Q98 326 98 346 Z M127 350 Q127 308 154.5 279 Q182 250 224 250 Q248 250 270.5 259.5 Q293 269 310.5 285.5 Q328 302 338 324.5 Q348 347 348 372 Q348 414 320.5 443 Q293 472 251 472 Q227 472 204.5 462.5 Q182 453 164.5 436.5 Q147 420 137 397.5 Q127 375 127 350 Z " />
<glyph glyph-name="section" unicode="&#xa7;" horiz-adv-x="366" d="M150 153 Q124 207 109.5 239.5 Q95 272 82 298 Q73 319 72.5 343 Q72 367 80 389.5 Q88 412 103 432 Q118 452 140 465 Q165 479 191.5 480.5 Q218 482 241 472 Q229 496 218.5 520 Q208 544 197 569 Q185 596 180 616 Q175 636 176.5 651 Q178 666 185 676.5 Q192 687 202 695 Q216 710 239 721.5 Q262 733 280 743 L295 713 Q282 705 269.5 699 Q257 693 245 686 Q218 671 216 646.5 Q214 622 237 573 L238 573 Q255 535 272 497.5 Q289 460 307 422 Q317 401 317 377.5 Q317 354 309 331.5 Q301 309 285.5 289.5 Q270 270 248 257 Q222 243 196 241 Q170 239 147 249 Q158 224 169.5 200 Q181 176 192 151 Q205 124 209.5 104 Q214 84 212.5 69 Q211 54 204.5 43.5 Q198 33 188 25 Q174 9 151 -2.5 Q128 -14 110 -23 L95 8 Q109 15 121 21.5 Q133 28 145 35 Q173 50 174 75.5 Q175 101 150 153 Z M113 328 Q119 301 141.5 286.5 Q164 272 193 274 Q211 275 227.5 283.5 Q244 292 256 305.5 Q268 319 275.5 335.5 Q283 352 283 369 Q283 408 256.5 430 Q230 452 196 450 Q172 448 153.5 436 Q135 424 123.5 406.5 Q112 389 109 368 Q106 347 113 328 Z " />
<glyph glyph-name="periodcentered" unicode="&#xb7;" horiz-adv-x="193" d="M66 278 Q66 292 76.5 302 Q87 312 101 312 Q112 312 119.5 304 Q127 296 127 284 Q127 270 116.5 260.5 Q106 251 93 251 Q82 251 74 258.5 Q66 266 66 278 Z " />
<glyph glyph-name="ordmasculine" unicode="&#xba;" horiz-adv-x="398" d="M74 446 Q78 476 92.5 503 Q107 530 129.5 549.5 Q152 569 180 580.5 Q208 592 238 592 Q266 592 290 582 Q314 572 331 554 Q348 536 358 512 Q368 488 368 461 Q368 428 354.5 399 Q341 370 318 348 Q295 326 265 313.5 Q235 301 202 301 Q172 301 146.5 312 Q121 323 104 342.5 Q87 362 78.5 388.5 Q70 415 74 446 Z M99 446 Q96 421 102.5 399 Q109 377 123.5 360.5 Q138 344 158.5 334.5 Q179 325 205 325 Q232 325 257 335.5 Q282 346 300.5 364 Q319 382 330.5 406.5 Q342 431 342 458 Q342 504 311.5 535.5 Q281 567 234 567 Q209 567 186 557.5 Q163 548 144.5 531.5 Q126 515 114 493 Q102 471 99 446 Z " />
<glyph glyph-name="macron" unicode="&#xaf;" horiz-adv-x="401" d="M145 489 L149 516 L380 516 L376 489 L145 489 Z " />
<glyph glyph-name="mu" unicode="&#xb5;" horiz-adv-x="514" d="M380 -3 L353 -3 L362 101 Q336 52 288 22 Q240 -8 182 -8 Q125 -8 97 25 L69 -201 L36 -201 L72 93 Q72 103 73 108 L107 387 L142 387 L108 114 Q106 79 126 54 Q146 29 190 26 Q223 26 253 37 Q283 48 307 67 Q331 86 347 112.5 Q363 139 367 171 L394 387 L428 387 L380 -3 Z " />
<glyph glyph-name="multiply" unicode="&#xd7;" horiz-adv-x="426" d="M295 0 L194 114 L67 0 L41 30 L168 144 L69 257 L102 287 L202 174 L330 287 Q337 280 343 272.5 Q349 265 355 258 L228 144 Q254 115 278.5 87 Q303 59 328 30 L295 0 Z " />
<glyph glyph-name="O" unicode="O" horiz-adv-x="830" d="M63 353 Q72 428 108.5 493.5 Q145 559 200 608.5 Q255 658 324 686.5 Q393 715 468 715 Q537 715 596 689.5 Q655 664 698 620 Q741 576 765 516.5 Q789 457 789 389 Q789 308 755 236 Q721 164 664.5 109.5 Q608 55 534 23.5 Q460 -8 379 -8 Q304 -8 242 20.5 Q180 49 137.5 98 Q95 147 74.5 212.5 Q54 278 63 353 Z M104 352 Q96 286 114 227.5 Q132 169 170 125.5 Q208 82 262.5 56.5 Q317 31 383 31 Q454 31 520 59 Q586 87 636.5 135.5 Q687 184 717 248.5 Q747 313 747 385 Q747 445 725.5 498 Q704 551 666 590.5 Q628 630 576 652.5 Q524 675 463 675 Q397 675 335.5 649.5 Q274 624 225.5 580 Q177 536 144.5 477.5 Q112 419 104 352 Z " />
<glyph glyph-name="g" unicode="g" horiz-adv-x="513" d="M28 172 Q28 218 46.5 259 Q65 300 96.5 330.5 Q128 361 168.5 378.5 Q209 396 254 396 Q285 396 311.5 387 Q338 378 358.5 363 Q379 348 392.5 328.5 Q406 309 412 288 Q415 313 419 338 Q423 363 428 387 L459 387 L411 0 Q406 -38 391 -71.5 Q376 -105 349 -130.5 Q322 -156 281.5 -171 Q241 -186 185 -186 Q139 -186 99.5 -169 Q60 -152 18 -106 L44 -82 Q63 -104 81.5 -117.5 Q100 -131 118 -138.5 Q136 -146 153.5 -149 Q171 -152 188 -152 Q236 -152 269 -140.5 Q302 -129 324 -108 Q346 -87 358.5 -58.5 Q371 -30 376 5 L383 48 Q383 50 384.5 58 Q386 66 387 75 Q388 84 389 92 Q390 100 390 102 Q365 56 316 24.5 Q267 -7 204 -7 Q165 -7 133 7 Q101 21 77.5 45 Q54 69 41 101.5 Q28 134 28 172 Z M63 177 Q63 145 74 118 Q85 91 104.5 70.5 Q124 50 151.5 38.5 Q179 27 211 27 Q249 27 283.5 41.5 Q318 56 344 81.5 Q370 107 385.5 140 Q401 173 401 211 Q401 243 390 270.5 Q379 298 359 318.5 Q339 339 312 350.5 Q285 362 252 362 Q214 362 179.5 347.5 Q145 333 119 307.5 Q93 282 78 248.5 Q63 215 63 177 Z " />
<glyph glyph-name="d" unicode="d" horiz-adv-x="514" d="M29 172 Q29 219 47.5 260 Q66 301 97 331 Q128 361 169 378.5 Q210 396 255 396 Q318 396 358.5 364.5 Q399 333 413 288 Q414 296 418.5 333.5 Q423 371 429.5 423 Q436 475 443 533 Q450 591 456 641 Q462 691 466 724 Q470 757 470 758 L505 758 L412 0 L377 0 L384 47 L391 100 Q365 55 316 24 Q267 -7 205 -7 Q166 -7 133.5 7 Q101 21 77.5 45 Q54 69 41.5 101.5 Q29 134 29 172 Z M64 177 Q64 145 75 118 Q86 91 105.5 70.5 Q125 50 152.5 38.5 Q180 27 212 27 Q250 27 284.5 41.5 Q319 56 345 81.5 Q371 107 386.5 140 Q402 173 402 211 Q402 243 391 270.5 Q380 298 360 318.5 Q340 339 313 350.5 Q286 362 253 362 Q215 362 180.5 347.5 Q146 333 120 307.5 Q94 282 79 248.5 Q64 215 64 177 Z " />
<glyph glyph-name="a" unicode="a" horiz-adv-x="513" d="M63 177 Q63 145 74 118 Q85 91 104.5 70.5 Q124 50 151.5 38.5 Q179 27 211 27 Q249 27 283.5 41.5 Q318 56 344 81.5 Q370 107 385.5 140 Q401 173 401 211 Q401 243 390 270.5 Q379 298 359 318.5 Q339 339 312 350.5 Q285 362 252 362 Q214 362 179.5 347.5 Q145 333 119 307.5 Q93 282 78 248.5 Q63 215 63 177 Z M28 172 Q28 218 46.5 258.5 Q65 299 96.5 329.5 Q128 360 169 378 Q210 396 255 396 Q286 396 312 387.5 Q338 379 358 364 Q378 349 392 329.5 Q406 310 412 288 Q416 313 419.5 338 Q423 363 428 387 L459 387 L411 0 L377 0 L383 48 Q385 61 386.5 73.5 Q388 86 389 99 Q366 55 317.5 24 Q269 -7 206 -7 Q167 -7 134 7 Q101 21 77.5 45 Q54 69 41 101.5 Q28 134 28 172 Z " />
<glyph glyph-name="n" unicode="n" horiz-adv-x="454" d="M84 387 L112 387 Q112 383 110.5 368 Q109 353 107.5 336 Q106 319 104.5 304.5 Q103 290 103 287 Q130 335 177 365 Q224 395 282 395 Q338 395 367 363 Q396 331 391 280 L357 0 L322 0 L356 274 Q359 309 338.5 334 Q318 359 274 361 Q241 361 211 350 Q181 339 157 320 Q133 301 117 274 Q101 247 97 216 L70 0 L36 0 L84 387 Z " />
<glyph glyph-name="ogonek" unicode="&#x2db;" horiz-adv-x="747" d="M225 -22 Q222 -42 207 -52.5 Q192 -63 175 -74 Q158 -85 144.5 -100 Q131 -115 131 -144 Q131 -170 146.5 -186.5 Q162 -203 188 -203 Q211 -203 229 -190.5 Q247 -178 255 -158 Q265 -164 279 -169 Q264 -201 237 -217 Q210 -233 181 -233 Q146 -233 124 -211 Q102 -189 102 -147 Q102 -124 113.5 -101.5 Q125 -79 152 -61 Q166 -53 181 -43 Q196 -33 201 -6 L202 0 L228 0 L225 -22 Z " />
<glyph glyph-name="caron" unicode="&#x2c7;" horiz-adv-x="445" d="M292 481 Q267 526 243 571.5 Q219 617 194 663 L224 663 L298 530 L405 663 L435 663 Q400 617 363.5 571.5 Q327 526 292 481 Z " />
<glyph glyph-name="hungarumlaut" unicode="&#x2dd;" horiz-adv-x="459" d="M368 481 L475 614 L513 614 L398 481 L368 481 Z M150 481 L256 614 L294 614 L179 481 L150 481 Z " />
<glyph glyph-name="dotaccent" unicode="&#x2d9;" horiz-adv-x="202" d="M131 519 Q131 533 142 543 Q153 553 166 553 Q177 553 184.5 545 Q192 537 192 525 Q192 511 181.5 501.5 Q171 492 158 492 Q147 492 139 500 Q131 508 131 519 Z " />
<glyph glyph-name="breve" unicode="&#x2d8;" horiz-adv-x="574" d="M325 500 Q292 500 264 512 Q236 524 216.5 545 Q197 566 187.5 595 Q178 624 181 657 L206 657 Q203 630 211 606 Q219 582 235 563.5 Q251 545 274.5 534.5 Q298 524 327 524 Q357 524 383 534.5 Q409 545 429.5 563.5 Q450 582 463 606 Q476 630 480 657 L505 657 Q501 624 484.5 595 Q468 566 443.5 545 Q419 524 388.5 512 Q358 500 325 500 Z " />
<glyph glyph-name="Aogonek" unicode="&#x104;" horiz-adv-x="638" d="M571 0 L568 -22 Q565 -42 550 -52.5 Q535 -63 518 -74 Q501 -85 487.5 -100 Q474 -115 474 -144 Q474 -170 489.5 -186.5 Q505 -203 531 -203 Q554 -203 572 -190.5 Q590 -178 598 -158 Q608 -164 622 -169 Q607 -201 580 -217 Q553 -233 524 -233 Q489 -233 467 -211 Q445 -189 445 -147 Q445 -124 456.5 -101.5 Q468 -79 495 -61 Q509 -53 524 -43 Q539 -33 544 -6 L545 0 L544 0 Q525 63 505 136 Q485 209 465 287 L178 287 Q139 209 101 136 Q63 63 29 0 L-13 0 Q14 49 46 109 Q78 169 112.5 235 Q147 301 182.5 369.5 Q218 438 252.5 504 Q287 570 319 630.5 Q351 691 378 740 Q392 691 409 630.5 Q426 570 444.5 504 Q463 438 481.5 369.5 Q500 301 518.5 235 Q537 169 554 109 Q571 49 586 0 L571 0 Z M354 623 Q318 557 278 480.5 Q238 404 197 323 L455 323 Q434 404 413 480.5 Q392 557 373 623 Q371 628 369.5 636 Q368 644 367 652 L354 623 Z " />
<glyph glyph-name="Lslash" unicode="&#x141;" horiz-adv-x="556" d="M85 0 L121 292 L49 268 L54 304 L125 328 L172 707 L213 707 L169 342 L404 421 L400 385 L164 306 L132 40 L524 40 L519 0 L85 0 Z " />
<glyph glyph-name="Lcaron" unicode="&#x13d;" horiz-adv-x="548" d="M77 0 L164 707 L205 707 L124 40 L516 40 L511 0 L77 0 Z M341 572 Q337 577 334 582 Q331 587 326 592 Q350 612 363 642 Q376 672 373 707 L404 714 Q408 673 390.5 636 Q373 599 341 572 Z " />
<glyph glyph-name="Sacute" unicode="&#x15a;" horiz-adv-x="540" d="M507 672 L488 639 Q459 652 416.5 662.5 Q374 673 332 673 Q291 673 257 661.5 Q223 650 199 631 Q175 612 162 586 Q149 560 149 532 Q149 494 173.5 471 Q198 448 235.5 430.5 Q273 413 316 397.5 Q359 382 396.5 359.5 Q434 337 458.5 303 Q483 269 483 215 Q483 164 464 123 Q445 82 410.5 53 Q376 24 328.5 8 Q281 -8 223 -8 Q181 -8 147.5 0 Q114 8 88 19.5 Q62 31 44.5 42.5 Q27 54 17 60 L41 97 Q56 86 77 74.5 Q98 63 122.5 53.5 Q147 44 174 38 Q201 32 229 32 Q264 32 301.5 42.5 Q339 53 370.5 75 Q402 97 422 130.5 Q442 164 442 210 Q442 257 417 286 Q392 315 355 335 Q318 355 274.5 370.5 Q231 386 194 405 Q157 424 132 451.5 Q107 479 107 524 Q107 561 124 595 Q141 629 170.5 655 Q200 681 241 696 Q282 711 330 711 Q353 711 378.5 707.5 Q404 704 428 698.5 Q452 693 472.5 686 Q493 679 507 672 Z M286 755 L392 888 L430 888 L315 755 L286 755 Z " />
<glyph glyph-name="Scaron" unicode="&#x160;" horiz-adv-x="540" d="M507 672 L488 639 Q459 652 416.5 662.5 Q374 673 332 673 Q291 673 257 661.5 Q223 650 199 631 Q175 612 162 586 Q149 560 149 532 Q149 494 173.5 471 Q198 448 235.5 430.5 Q273 413 316 397.5 Q359 382 396.5 359.5 Q434 337 458.5 303 Q483 269 483 215 Q483 164 464 123 Q445 82 410.5 53 Q376 24 328.5 8 Q281 -8 223 -8 Q181 -8 147.5 0 Q114 8 88 19.5 Q62 31 44.5 42.5 Q27 54 17 60 L41 97 Q56 86 77 74.5 Q98 63 122.5 53.5 Q147 44 174 38 Q201 32 229 32 Q264 32 301.5 42.5 Q339 53 370.5 75 Q402 97 422 130.5 Q442 164 442 210 Q442 257 417 286 Q392 315 355 335 Q318 355 274.5 370.5 Q231 386 194 405 Q157 424 132 451.5 Q107 479 107 524 Q107 561 124 595 Q141 629 170.5 655 Q200 681 241 696 Q282 711 330 711 Q353 711 378.5 707.5 Q404 704 428 698.5 Q452 693 472.5 686 Q493 679 507 672 Z M327 733 Q302 778 278 823.5 Q254 869 229 915 L259 915 L333 782 L440 915 L470 915 Q435 869 398.5 823.5 Q362 778 327 733 Z " />
<glyph glyph-name="Scedilla" unicode="&#x15e;" horiz-adv-x="540" d="M507 672 L488 639 Q459 652 416.5 662.5 Q374 673 332 673 Q291 673 257 661.5 Q223 650 199 631 Q175 612 162 586 Q149 560 149 532 Q149 494 173.5 471 Q198 448 235.5 430.5 Q273 413 316 397.5 Q359 382 396.5 359.5 Q434 337 458.5 303 Q483 269 483 215 Q483 166 465 126 Q447 86 415 57 Q383 28 338 11 Q293 -6 238 -8 Q236 -21 239.5 -29 Q243 -37 248 -43 Q253 -49 260 -53 Q267 -57 273 -61 Q291 -75 298.5 -92.5 Q306 -110 306 -124 Q306 -175 275.5 -204 Q245 -233 202 -233 Q173 -233 150.5 -217 Q128 -201 121 -169 L147 -158 Q150 -178 165 -190.5 Q180 -203 203 -203 Q235 -203 255.5 -181.5 Q276 -160 276 -128 Q276 -106 265 -93 Q254 -80 241 -70.5 Q228 -61 218 -50.5 Q208 -40 210 -22 L212 -8 Q173 -7 141 1.5 Q109 10 84.5 21 Q60 32 43 43 Q26 54 17 60 L41 97 Q56 86 77 74.5 Q98 63 122.5 53.5 Q147 44 174 38 Q201 32 229 32 Q264 32 301.5 42.5 Q339 53 370.5 75 Q402 97 422 130.5 Q442 164 442 210 Q442 257 417 286 Q392 315 355 335 Q318 355 274.5 370.5 Q231 386 194 405 Q157 424 132 451.5 Q107 479 107 524 Q107 561 124 595 Q141 629 170.5 655 Q200 681 241 696 Q282 711 330 711 Q353 711 378.5 707.5 Q404 704 428 698.5 Q452 693 472.5 686 Q493 679 507 672 Z " />
<glyph glyph-name="Tcaron" unicode="&#x164;" horiz-adv-x="508" d="M523 707 L517 667 L322 667 L240 0 L199 0 L281 667 L87 667 L92 707 L523 707 Z M310 733 Q285 778 261 823.5 Q237 869 212 915 L242 915 L316 782 L423 915 L453 915 Q418 869 381.5 823.5 Q345 778 310 733 Z " />
<glyph glyph-name="Zacute" unicode="&#x179;" horiz-adv-x="623" d="M167 707 L629 707 L59 40 L573 40 L568 0 L-18 0 Q42 71 116 160 Q190 249 267.5 340.5 Q345 432 419 519 Q493 606 552 673 L160 673 Q129 673 113 683.5 Q97 694 99 723 L101 743 L141 743 L139 730 Q138 719 144 713 Q150 707 167 707 Z M359 755 L465 888 L503 888 L388 755 L359 755 Z " />
<glyph glyph-name="Zcaron" unicode="&#x17d;" horiz-adv-x="623" d="M167 707 L629 707 L59 40 L573 40 L568 0 L-18 0 Q42 71 116 160 Q190 249 267.5 340.5 Q345 432 419 519 Q493 606 552 673 L160 673 Q129 673 113 683.5 Q97 694 99 723 L101 743 L141 743 L139 730 Q138 719 144 713 Q150 707 167 707 Z M372 733 Q347 778 323 823.5 Q299 869 274 915 L304 915 L378 782 L485 915 L515 915 Q480 869 443.5 823.5 Q407 778 372 733 Z " />
<glyph glyph-name="Zdotaccent" unicode="&#x17b;" horiz-adv-x="623" d="M167 707 L629 707 L59 40 L573 40 L568 0 L-18 0 Q42 71 116 160 Q190 249 267.5 340.5 Q345 432 419 519 Q493 606 552 673 L160 673 Q129 673 113 683.5 Q97 694 99 723 L101 743 L141 743 L139 730 Q138 719 144 713 Q150 707 167 707 Z M352 772 Q352 786 363 796 Q374 806 387 806 Q398 806 405.5 798 Q413 790 413 778 Q413 764 402.5 754.5 Q392 745 379 745 Q368 745 360 753 Q352 761 352 772 Z " />
<glyph glyph-name="aogonek" unicode="&#x105;" horiz-adv-x="513" d="M411 0 L377 0 L383 48 Q385 61 386.5 73.5 Q388 86 389 99 Q366 55 317.5 24 Q269 -7 206 -7 Q167 -7 134 7 Q101 21 77.5 45 Q54 69 41 101.5 Q28 134 28 172 Q28 218 46.5 258.5 Q65 299 96.5 329.5 Q128 360 169 378 Q210 396 255 396 Q286 396 312 387.5 Q338 379 358 364 Q378 349 392 329.5 Q406 310 412 288 Q416 313 419.5 338 Q423 363 428 387 L459 387 L411 0 Z M63 177 Q63 145 74 118 Q85 91 104.5 70.5 Q124 50 151.5 38.5 Q179 27 211 27 Q249 27 283.5 41.5 Q318 56 344 81.5 Q370 107 385.5 140 Q401 173 401 211 Q401 243 390 270.5 Q379 298 359 318.5 Q339 339 312 350.5 Q285 362 252 362 Q214 362 179.5 347.5 Q145 333 119 307.5 Q93 282 78 248.5 Q63 215 63 177 Z M404 0 L378 0 L377 -6 Q372 -33 357 -43 Q342 -53 328 -61 Q301 -79 289.5 -101.5 Q278 -124 278 -147 Q278 -189 300 -211 Q322 -233 357 -233 Q386 -233 413 -217 Q440 -201 455 -169 Q441 -164 431 -158 Q423 -178 405 -190.5 Q387 -203 364 -203 Q338 -203 322.5 -186.5 Q307 -170 307 -144 Q307 -115 320.5 -100 Q334 -85 351 -74 Q368 -63 383 -52.5 Q398 -42 401 -22 L404 0 Z " />
<glyph glyph-name="lslash" unicode="&#x142;" horiz-adv-x="195" d="M81 0 L46 0 L81 287 L24 268 L29 304 L85 323 L139 758 L174 758 L122 335 L202 362 L197 326 L117 299 L81 0 Z " />
<glyph glyph-name="lcaron" unicode="&#x13e;" horiz-adv-x="179" d="M74 0 L39 0 L132 758 L167 758 L74 0 Z M220 572 Q216 577 213 582 Q210 587 205 592 Q229 612 242 642 Q255 672 252 707 L283 714 Q287 673 269.5 636 Q252 599 220 572 Z " />
<glyph glyph-name="sacute" unicode="&#x15b;" horiz-adv-x="317" d="M273 349 Q268 343 260.5 335 Q253 327 251 325 Q241 340 217 349.5 Q193 359 171 359 Q159 359 144 355 Q129 351 116.5 342.5 Q104 334 95.5 320 Q87 306 87 286 Q87 264 100 250.5 Q113 237 132 227 Q151 217 173.5 209 Q196 201 215 190 Q234 179 247 161.5 Q260 144 260 117 Q260 93 250.5 70 Q241 47 223 30 Q205 13 179.5 2.5 Q154 -8 122 -8 Q91 -8 58.5 3 Q26 14 8 40 Q14 46 22.5 54.5 Q31 63 33 65 Q37 58 47.5 51 Q58 44 71.5 38.5 Q85 33 99.5 29.5 Q114 26 127 26 Q140 26 157 30.5 Q174 35 189 45 Q204 55 214.5 71 Q225 87 225 110 Q225 133 212 147 Q199 161 180 170.5 Q161 180 138.5 188 Q116 196 97 207 Q78 218 65 235 Q52 252 52 280 Q52 309 63 330.5 Q74 352 92 366 Q110 380 131.5 386.5 Q153 393 174 393 Q198 393 226.5 383 Q255 373 273 349 Z M170 481 L276 614 L314 614 L199 481 L170 481 Z " />
<glyph glyph-name="scaron" unicode="&#x161;" horiz-adv-x="317" d="M273 349 Q268 343 260.5 335 Q253 327 251 325 Q241 340 217 349.5 Q193 359 171 359 Q159 359 144 355 Q129 351 116.5 342.5 Q104 334 95.5 320 Q87 306 87 286 Q87 264 100 250.5 Q113 237 132 227 Q151 217 173.5 209 Q196 201 215 190 Q234 179 247 161.5 Q260 144 260 117 Q260 93 250.5 70 Q241 47 223 30 Q205 13 179.5 2.5 Q154 -8 122 -8 Q91 -8 58.5 3 Q26 14 8 40 Q14 46 22.5 54.5 Q31 63 33 65 Q37 58 47.5 51 Q58 44 71.5 38.5 Q85 33 99.5 29.5 Q114 26 127 26 Q140 26 157 30.5 Q174 35 189 45 Q204 55 214.5 71 Q225 87 225 110 Q225 133 212 147 Q199 161 180 170.5 Q161 180 138.5 188 Q116 196 97 207 Q78 218 65 235 Q52 252 52 280 Q52 309 63 330.5 Q74 352 92 366 Q110 380 131.5 386.5 Q153 393 174 393 Q198 393 226.5 383 Q255 373 273 349 Z M183 481 Q158 526 134 571.5 Q110 617 85 663 L115 663 L189 530 L296 663 L326 663 Q291 617 254.5 571.5 Q218 526 183 481 Z " />
<glyph glyph-name="scedilla" unicode="&#x15f;" horiz-adv-x="317" d="M273 349 Q268 343 260.5 335 Q253 327 251 325 Q241 340 217 349.5 Q193 359 171 359 Q159 359 144 355 Q129 351 116.5 342.5 Q104 334 95.5 320 Q87 306 87 286 Q87 264 100 250.5 Q113 237 132 227 Q151 217 173.5 209 Q196 201 215 190 Q234 179 247 161.5 Q260 144 260 117 Q260 93 251 71.5 Q242 50 225.5 33 Q209 16 185.5 5 Q162 -6 132 -7 Q130 -20 133 -28.5 Q136 -37 141.5 -43 Q147 -49 154 -53 Q161 -57 167 -61 Q185 -75 192.5 -92.5 Q200 -110 200 -124 Q200 -175 169.5 -204 Q139 -233 96 -233 Q67 -233 44.5 -217 Q22 -201 15 -169 L41 -158 Q44 -178 59 -190.5 Q74 -203 97 -203 Q129 -203 149.5 -181.5 Q170 -160 170 -128 Q170 -106 159 -93 Q148 -80 135 -70.5 Q122 -61 112 -50.5 Q102 -40 104 -22 L106 -7 Q78 -5 51 6 Q24 17 8 40 Q14 46 22.5 54.5 Q31 63 33 65 Q37 58 47.5 51 Q58 44 71.5 38.5 Q85 33 99.5 29.5 Q114 26 127 26 Q140 26 157 30.5 Q174 35 189 45 Q204 55 214.5 71 Q225 87 225 110 Q225 133 212 147 Q199 161 180 170.5 Q161 180 138.5 188 Q116 196 97 207 Q78 218 65 235 Q52 252 52 280 Q52 309 63 330.5 Q74 352 92 366 Q110 380 131.5 386.5 Q153 393 174 393 Q198 393 226.5 383 Q255 373 273 349 Z " />
<glyph glyph-name="tcaron" unicode="&#x165;" horiz-adv-x="265" d="M133 557 L168 557 L146 381 L269 381 L265 350 L142 350 L100 0 L65 0 L108 350 L23 350 L27 381 L112 381 L133 557 Z M262 572 Q258 577 255 582 Q252 587 247 592 Q271 612 284 642 Q297 672 294 707 L325 714 Q329 673 311.5 636 Q294 599 262 572 Z " />
<glyph glyph-name="zacute" unicode="&#x17a;" horiz-adv-x="369" d="M305 0 L-7 0 L291 356 L103 356 Q71 356 56.5 367.5 Q42 379 44 409 L45 424 L77 424 L75 411 Q73 387 106 387 L357 387 L61 34 L309 34 L305 0 Z M182 481 L288 614 L326 614 L211 481 L182 481 Z " />
<glyph glyph-name="zcaron" unicode="&#x17e;" horiz-adv-x="369" d="M305 0 L-7 0 L291 356 L103 356 Q71 356 56.5 367.5 Q42 379 44 409 L45 424 L77 424 L75 411 Q73 387 106 387 L357 387 L61 34 L309 34 L305 0 Z M218 481 Q193 526 169 571.5 Q145 617 120 663 L150 663 L224 530 L331 663 L361 663 Q326 617 289.5 571.5 Q253 526 218 481 Z " />
<glyph glyph-name="zdotaccent" unicode="&#x17c;" horiz-adv-x="369" d="M305 0 L-7 0 L291 356 L103 356 Q71 356 56.5 367.5 Q42 379 44 409 L45 424 L77 424 L75 411 Q73 387 106 387 L357 387 L61 34 L309 34 L305 0 Z M176 519 Q176 533 187 543 Q198 553 211 553 Q222 553 229.5 545 Q237 537 237 525 Q237 511 226.5 501.5 Q216 492 203 492 Q192 492 184 500 Q176 508 176 519 Z " />
<glyph glyph-name="Racute" unicode="&#x154;" horiz-adv-x="583" d="M77 0 L164 707 L321 707 Q355 707 389.5 697 Q424 687 452 666 Q480 645 497.5 612 Q515 579 515 533 Q515 501 506.5 469 Q498 437 480 408.5 Q462 380 434.5 357 Q407 334 369 320 Q374 309 386.5 283 Q399 257 415 224 Q431 191 448.5 154.5 Q466 118 481.5 86 Q497 54 508.5 30.5 Q520 7 524 0 L474 0 Q470 6 460 26.5 Q450 47 436 76 Q422 105 406 138.5 Q390 172 374.5 204.5 Q359 237 346 264.5 Q333 292 325 308 Q311 306 296 304.5 Q281 303 265 303 L156 303 L119 0 L77 0 Z M161 343 L271 343 Q329 343 368 363 Q407 383 430 412 Q453 441 463 473 Q473 505 473 529 Q473 558 462 583.5 Q451 609 430 627.5 Q409 646 379 657 Q349 668 312 668 L200 668 L161 343 Z M323 755 L429 888 L467 888 L352 755 L323 755 Z " />
<glyph glyph-name="Abreve" unicode="&#x102;" horiz-adv-x="639" d="M586 0 Q571 49 554 109 Q537 169 518.5 235 Q500 301 481.5 369.5 Q463 438 444.5 504 Q426 570 409 630.5 Q392 691 378 740 Q351 691 319 630.5 Q287 570 252.5 504 Q218 438 182.5 369.5 Q147 301 112.5 235 Q78 169 46 109 Q14 49 -13 0 L29 0 Q63 63 101 136 Q139 209 178 287 L465 287 Q485 209 505 136 Q525 63 544 0 L586 0 Z M354 623 L367 652 Q368 644 369.5 636 Q371 628 373 623 Q392 557 413 480.5 Q434 404 455 323 L197 323 Q238 404 278 480.5 Q318 557 354 623 Z M380 756 Q347 756 319 768 Q291 780 271.5 801 Q252 822 242.5 851 Q233 880 236 913 L261 913 Q258 886 266 862 Q274 838 290 819.5 Q306 801 329.5 790.5 Q353 780 382 780 Q412 780 438 790.5 Q464 801 484.5 819.5 Q505 838 518 862 Q531 886 535 913 L560 913 Q556 880 539.5 851 Q523 822 498.5 801 Q474 780 443.5 768 Q413 756 380 756 Z " />
<glyph glyph-name="Lacute" unicode="&#x139;" horiz-adv-x="548" d="M77 0 L164 707 L205 707 L124 40 L516 40 L511 0 L77 0 Z M335 755 L441 888 L479 888 L364 755 L335 755 Z " />
<glyph glyph-name="Cacute" unicode="&#x106;" horiz-adv-x="642" d="M581 45 Q542 23 490.5 7.5 Q439 -8 377 -8 Q303 -8 244 17 Q185 42 144.5 85.5 Q104 129 82.5 187 Q61 245 61 310 Q61 395 95 468.5 Q129 542 185.5 597 Q242 652 316 683.5 Q390 715 471 715 Q524 715 571.5 701.5 Q619 688 651 665 Q644 656 640.5 650.5 Q637 645 628 632 Q596 654 554 665 Q512 676 468 676 Q396 676 329.5 647.5 Q263 619 213 570 Q163 521 133 455.5 Q103 390 103 317 Q103 260 122 208.5 Q141 157 177 118.5 Q213 80 265 57 Q317 34 382 34 Q437 34 485 48.5 Q533 63 565 82 L581 45 Z M417 755 L523 888 L561 888 L446 755 L417 755 Z " />
<glyph glyph-name="Ccaron" unicode="&#x10c;" horiz-adv-x="642" d="M581 45 Q542 23 490.5 7.5 Q439 -8 377 -8 Q303 -8 244 17 Q185 42 144.5 85.5 Q104 129 82.5 187 Q61 245 61 310 Q61 395 95 468.5 Q129 542 185.5 597 Q242 652 316 683.5 Q390 715 471 715 Q524 715 571.5 701.5 Q619 688 651 665 Q644 656 640.5 650.5 Q637 645 628 632 Q596 654 554 665 Q512 676 468 676 Q396 676 329.5 647.5 Q263 619 213 570 Q163 521 133 455.5 Q103 390 103 317 Q103 260 122 208.5 Q141 157 177 118.5 Q213 80 265 57 Q317 34 382 34 Q437 34 485 48.5 Q533 63 565 82 L581 45 Z M466 733 Q441 778 417 823.5 Q393 869 368 915 L398 915 L472 782 L579 915 L609 915 Q574 869 537.5 823.5 Q501 778 466 733 Z " />
<glyph glyph-name="Eogonek" unicode="&#x118;" horiz-adv-x="608" d="M78 0 L165 707 L598 707 L593 669 L202 669 L166 375 L517 375 L512 337 L161 337 L125 39 L530 39 L525 0 L78 0 Z M524 0 L498 0 L497 -6 Q492 -33 477 -43 Q462 -53 448 -61 Q421 -79 409.5 -101.5 Q398 -124 398 -147 Q398 -189 420 -211 Q442 -233 477 -233 Q506 -233 533 -217 Q560 -201 575 -169 Q561 -164 551 -158 Q543 -178 525 -190.5 Q507 -203 484 -203 Q458 -203 442.5 -186.5 Q427 -170 427 -144 Q427 -115 440.5 -100 Q454 -85 471 -74 Q488 -63 503 -52.5 Q518 -42 521 -22 L524 0 Z " />
<glyph glyph-name="Ecaron" unicode="&#x11a;" horiz-adv-x="608" d="M78 0 L165 707 L598 707 L593 669 L202 669 L166 375 L517 375 L512 337 L161 337 L125 39 L530 39 L525 0 L78 0 Z M417 733 Q392 778 368 823.5 Q344 869 319 915 L349 915 L423 782 L530 915 L560 915 Q525 869 488.5 823.5 Q452 778 417 733 Z " />
<glyph glyph-name="Dcaron" unicode="&#x10e;" horiz-adv-x="711" d="M164 707 L319 707 Q416 707 482.5 678.5 Q549 650 590 605 Q631 560 649.5 503.5 Q668 447 668 390 Q668 301 634.5 229 Q601 157 545.5 106 Q490 55 417 27.5 Q344 0 266 0 L78 0 L164 707 Z M271 40 Q341 40 406 64.5 Q471 89 520 134 Q569 179 598.5 243 Q628 307 628 387 Q628 441 610 491.5 Q592 542 555 581 Q518 620 461.5 643 Q405 666 329 666 L201 666 Q181 509 162 353.5 Q143 198 124 40 L271 40 Z M388 733 Q363 778 339 823.5 Q315 869 290 915 L320 915 L394 782 L501 915 L531 915 Q496 869 459.5 823.5 Q423 778 388 733 Z " />
<glyph glyph-name="Dcroat" unicode="&#x110;" horiz-adv-x="719" d="M73 403 L135 403 L172 707 L327 707 Q424 707 490.5 678.5 Q557 650 598 605 Q639 560 657.5 503.5 Q676 447 676 390 Q676 301 642.5 229 Q609 157 553.5 106 Q498 55 425 27.5 Q352 0 274 0 L86 0 L131 372 L69 372 L73 403 Z M279 40 Q349 40 414 64.5 Q479 89 528 134 Q577 179 606.5 243 Q636 307 636 387 Q636 441 618 491.5 Q600 542 563 581 Q526 620 469.5 643 Q413 666 337 666 L209 666 L176 403 L360 403 L356 372 L172 372 L132 40 L279 40 Z " />
<glyph glyph-name="Nacute" unicode="&#x143;" horiz-adv-x="811" d="M754 707 L663 -32 Q631 15 593 68.5 Q555 122 514 179 Q473 236 431.5 294 Q390 352 350.5 408.5 Q311 465 275 518 Q239 571 210 617 L194 643 L194 611 L119 0 L77 0 L168 740 Q217 667 276.5 583 Q336 499 397 413 Q458 327 516 244 Q574 161 621 91 L637 65 Q637 73 637.5 81 Q638 89 638 97 L713 707 L754 707 Z M446 755 L552 888 L590 888 L475 755 L446 755 Z " />
<glyph glyph-name="Ncaron" unicode="&#x147;" horiz-adv-x="811" d="M754 707 L663 -32 Q631 15 593 68.5 Q555 122 514 179 Q473 236 431.5 294 Q390 352 350.5 408.5 Q311 465 275 518 Q239 571 210 617 L194 643 L194 611 L119 0 L77 0 L168 740 Q217 667 276.5 583 Q336 499 397 413 Q458 327 516 244 Q574 161 621 91 L637 65 Q637 73 637.5 81 Q638 89 638 97 L713 707 L754 707 Z M467 733 Q442 778 418 823.5 Q394 869 369 915 L399 915 L473 782 L580 915 L610 915 Q575 869 538.5 823.5 Q502 778 467 733 Z " />
<glyph glyph-name="Ohungarumlaut" unicode="&#x150;" horiz-adv-x="830" d="M63 353 Q72 428 108.5 493.5 Q145 559 200 608.5 Q255 658 324 686.5 Q393 715 468 715 Q537 715 596 689.5 Q655 664 698 620 Q741 576 765 516.5 Q789 457 789 389 Q789 308 755 236 Q721 164 664.5 109.5 Q608 55 534 23.5 Q460 -8 379 -8 Q304 -8 242 20.5 Q180 49 137.5 98 Q95 147 74.5 212.5 Q54 278 63 353 Z M104 352 Q96 286 114 227.5 Q132 169 170 125.5 Q208 82 262.5 56.5 Q317 31 383 31 Q454 31 520 59 Q586 87 636.5 135.5 Q687 184 717 248.5 Q747 313 747 385 Q747 445 725.5 498 Q704 551 666 590.5 Q628 630 576 652.5 Q524 675 463 675 Q397 675 335.5 649.5 Q274 624 225.5 580 Q177 536 144.5 477.5 Q112 419 104 352 Z M562 754 L669 887 L707 887 L592 754 L562 754 Z M344 754 L450 887 L488 887 L373 754 L344 754 Z " />
<glyph glyph-name="Rcaron" unicode="&#x158;" horiz-adv-x="583" d="M77 0 L164 707 L321 707 Q355 707 389.5 697 Q424 687 452 666 Q480 645 497.5 612 Q515 579 515 533 Q515 501 506.5 469 Q498 437 480 408.5 Q462 380 434.5 357 Q407 334 369 320 Q374 309 386.5 283 Q399 257 415 224 Q431 191 448.5 154.5 Q466 118 481.5 86 Q497 54 508.5 30.5 Q520 7 524 0 L474 0 Q470 6 460 26.5 Q450 47 436 76 Q422 105 406 138.5 Q390 172 374.5 204.5 Q359 237 346 264.5 Q333 292 325 308 Q311 306 296 304.5 Q281 303 265 303 L156 303 L119 0 L77 0 Z M161 343 L271 343 Q329 343 368 363 Q407 383 430 412 Q453 441 463 473 Q473 505 473 529 Q473 558 462 583.5 Q451 609 430 627.5 Q409 646 379 657 Q349 668 312 668 L200 668 L161 343 Z M340 733 Q315 778 291 823.5 Q267 869 242 915 L272 915 L346 782 L453 915 L483 915 Q448 869 411.5 823.5 Q375 778 340 733 Z " />
<glyph glyph-name="Uring" unicode="&#x16e;" horiz-adv-x="681" d="M369 819 Q369 802 381 790 Q393 778 410 778 Q430 778 445 792.5 Q460 807 460 827 Q460 844 449 856 Q438 868 421 868 Q401 868 385 853.5 Q369 839 369 819 Z M345 816 Q345 848 368.5 870.5 Q392 893 424 893 Q451 893 468 875 Q485 857 485 831 Q485 799 461.5 776.5 Q438 754 407 754 Q380 754 362.5 772 Q345 790 345 816 Z M307 -8 Q256 -8 214 8 Q172 24 143.5 55 Q115 86 102.5 131.5 Q90 177 97 235 L155 707 L196 707 L139 238 Q133 190 143 151.5 Q153 113 176 86 Q199 59 234 45 Q269 31 312 31 Q354 31 392 45 Q430 59 460 86 Q490 113 509.5 151.5 Q529 190 535 238 L593 707 L634 707 L577 235 Q569 177 545 131.5 Q521 86 485 55 Q449 24 403.5 8 Q358 -8 307 -8 Z " />
<glyph glyph-name="Uhungarumlaut" unicode="&#x170;" horiz-adv-x="681" d="M307 -8 Q256 -8 214 8 Q172 24 143.5 55 Q115 86 102.5 131.5 Q90 177 97 235 L155 707 L196 707 L139 238 Q133 190 143 151.5 Q153 113 176 86 Q199 59 234 45 Q269 31 312 31 Q354 31 392 45 Q430 59 460 86 Q490 113 509.5 151.5 Q529 190 535 238 L593 707 L634 707 L577 235 Q569 177 545 131.5 Q521 86 485 55 Q449 24 403.5 8 Q358 -8 307 -8 Z M480 754 L587 887 L625 887 L510 754 L480 754 Z M262 754 L368 887 L406 887 L291 754 L262 754 Z " />
<glyph glyph-name="uni0162" unicode="&#x162;" horiz-adv-x="508" d="M523 707 L517 667 L322 667 L240 0 L199 0 L281 667 L87 667 L92 707 L523 707 Z M239 -22 L128 -228 L94 -228 L197 -22 L239 -22 Z " />
<glyph glyph-name="racute" unicode="&#x155;" horiz-adv-x="271" d="M272 354 Q240 353 210 343 Q180 333 156 314.5 Q132 296 116 270.5 Q100 245 97 214 L70 0 L36 0 L84 387 L112 387 Q112 383 110.5 368 Q109 353 107.5 336 Q106 319 104.5 304.5 Q103 290 103 287 Q132 337 181.5 365.5 Q231 394 282 395 L272 354 Z M155 481 L261 614 L299 614 L184 481 L155 481 Z " />
<glyph glyph-name="abreve" unicode="&#x103;" horiz-adv-x="513" d="M63 177 Q63 145 74 118 Q85 91 104.5 70.5 Q124 50 151.5 38.5 Q179 27 211 27 Q249 27 283.5 41.5 Q318 56 344 81.5 Q370 107 385.5 140 Q401 173 401 211 Q401 243 390 270.5 Q379 298 359 318.5 Q339 339 312 350.5 Q285 362 252 362 Q214 362 179.5 347.5 Q145 333 119 307.5 Q93 282 78 248.5 Q63 215 63 177 Z M28 172 Q28 218 46.5 258.5 Q65 299 96.5 329.5 Q128 360 169 378 Q210 396 255 396 Q286 396 312 387.5 Q338 379 358 364 Q378 349 392 329.5 Q406 310 412 288 Q416 313 419.5 338 Q423 363 428 387 L459 387 L411 0 L377 0 L383 48 Q385 61 386.5 73.5 Q388 86 389 99 Q366 55 317.5 24 Q269 -7 206 -7 Q167 -7 134 7 Q101 21 77.5 45 Q54 69 41 101.5 Q28 134 28 172 Z M295 500 Q262 500 234 512 Q206 524 186.5 545 Q167 566 157.5 595 Q148 624 151 657 L176 657 Q173 630 181 606 Q189 582 205 563.5 Q221 545 244.5 534.5 Q268 524 297 524 Q327 524 353 534.5 Q379 545 399.5 563.5 Q420 582 433 606 Q446 630 450 657 L475 657 Q471 624 454.5 595 Q438 566 413.5 545 Q389 524 358.5 512 Q328 500 295 500 Z " />
<glyph glyph-name="lacute" unicode="&#x13a;" horiz-adv-x="179" d="M74 0 L39 0 L132 758 L167 758 L74 0 Z M116 777 L222 910 L260 910 L145 777 L116 777 Z " />
<glyph glyph-name="cacute" unicode="&#x107;" horiz-adv-x="401" d="M321 63 Q326 57 330.5 50.5 Q335 44 340 37 Q311 17 277.5 5 Q244 -7 207 -7 Q168 -7 135 7 Q102 21 78.5 45.5 Q55 70 41.5 103 Q28 136 28 174 Q28 219 46.5 259.5 Q65 300 96.5 330.5 Q128 361 169.5 378.5 Q211 396 256 396 Q294 396 325 384 Q356 372 380 352 Q374 345 367 339 Q360 333 354 325 Q334 342 308.5 352 Q283 362 253 362 Q215 362 180.5 347.5 Q146 333 120 307.5 Q94 282 78.5 248.5 Q63 215 63 177 Q63 145 74 118 Q85 91 104.5 70.5 Q124 50 151 38.5 Q178 27 211 27 Q242 27 270 36.5 Q298 46 321 63 Z M223 481 L329 614 L367 614 L252 481 L223 481 Z " />
<glyph glyph-name="ccaron" unicode="&#x10d;" horiz-adv-x="401" d="M321 63 Q326 57 330.5 50.5 Q335 44 340 37 Q311 17 277.5 5 Q244 -7 207 -7 Q168 -7 135 7 Q102 21 78.5 45.5 Q55 70 41.5 103 Q28 136 28 174 Q28 219 46.5 259.5 Q65 300 96.5 330.5 Q128 361 169.5 378.5 Q211 396 256 396 Q294 396 325 384 Q356 372 380 352 Q374 345 367 339 Q360 333 354 325 Q334 342 308.5 352 Q283 362 253 362 Q215 362 180.5 347.5 Q146 333 120 307.5 Q94 282 78.5 248.5 Q63 215 63 177 Q63 145 74 118 Q85 91 104.5 70.5 Q124 50 151 38.5 Q178 27 211 27 Q242 27 270 36.5 Q298 46 321 63 Z M266 481 Q241 526 217 571.5 Q193 617 168 663 L198 663 L272 530 L379 663 L409 663 Q374 617 337.5 571.5 Q301 526 266 481 Z " />
<glyph glyph-name="eogonek" unicode="&#x119;" horiz-adv-x="438" d="M223 0 L197 0 L196 -6 L196 -7 Q159 -5 128.5 10 Q98 25 75.5 49 Q53 73 40.5 105 Q28 137 28 174 Q28 219 47 259.5 Q66 300 97.5 330.5 Q129 361 170 379 Q211 397 256 397 Q321 397 361.5 359.5 Q402 322 417 264 Q379 250 335 233 Q291 216 245 198 Q199 180 153.5 162.5 Q108 145 68 130 Q82 84 119.5 55.5 Q157 27 210 27 Q244 27 276 39 Q308 51 332 72 L355 47 Q327 24 293 10 Q259 -4 222 -6 L223 0 Z M374 274 Q360 314 329 338 Q298 362 252 362 Q215 362 181 347.5 Q147 333 121 307.5 Q95 282 79 248.5 Q63 215 63 178 Q63 172 63 165.5 Q63 159 64 154 Q100 168 140 183.5 Q180 199 220.5 214.5 Q261 230 300 245 Q339 260 374 274 Z M207 -7 L196 -7 Q191 -33 176 -43 Q161 -53 147 -61 Q120 -79 108.5 -101.5 Q97 -124 97 -147 Q97 -189 119 -211 Q141 -233 176 -233 Q205 -233 232 -217 Q259 -201 274 -169 Q260 -164 250 -158 Q242 -178 224 -190.5 Q206 -203 183 -203 Q157 -203 141.5 -186.5 Q126 -170 126 -144 Q126 -115 139.5 -100 Q153 -85 170 -74 Q187 -63 202 -52.5 Q217 -42 220 -22 L222 -6 Q217 -7 207 -7 Z " />
<glyph glyph-name="ecaron" unicode="&#x11b;" horiz-adv-x="438" d="M355 47 Q325 22 287 7.5 Q249 -7 207 -7 Q168 -7 135 7 Q102 21 78.5 45.5 Q55 70 41.5 103 Q28 136 28 174 Q28 219 47 259.5 Q66 300 97.5 330.5 Q129 361 170 379 Q211 397 256 397 Q321 397 361.5 359.5 Q402 322 417 264 Q379 250 335 233 Q291 216 245 198 Q199 180 153.5 162.5 Q108 145 68 130 Q82 84 119.5 55.5 Q157 27 210 27 Q244 27 276 39 Q308 51 332 72 L355 47 Z M374 274 Q360 314 329 338 Q298 362 252 362 Q215 362 181 347.5 Q147 333 121 307.5 Q95 282 79 248.5 Q63 215 63 178 Q63 172 63 165.5 Q63 159 64 154 Q100 168 140 183.5 Q180 199 220.5 214.5 Q261 230 300 245 Q339 260 374 274 Z M257 481 Q232 526 208 571.5 Q184 617 159 663 L189 663 L263 530 L370 663 L400 663 Q365 617 328.5 571.5 Q292 526 257 481 Z " />
<glyph glyph-name="dcaron" unicode="&#x10f;" horiz-adv-x="514" d="M29 172 Q29 219 47.5 260 Q66 301 97 331 Q128 361 169 378.5 Q210 396 255 396 Q318 396 358.5 364.5 Q399 333 413 288 Q414 296 418.5 333.5 Q423 371 429.5 423 Q436 475 443 533 Q450 591 456 641 Q462 691 466 724 Q470 757 470 758 L505 758 L412 0 L377 0 L384 47 L391 100 Q365 55 316 24 Q267 -7 205 -7 Q166 -7 133.5 7 Q101 21 77.5 45 Q54 69 41.5 101.5 Q29 134 29 172 Z M64 177 Q64 145 75 118 Q86 91 105.5 70.5 Q125 50 152.5 38.5 Q180 27 212 27 Q250 27 284.5 41.5 Q319 56 345 81.5 Q371 107 386.5 140 Q402 173 402 211 Q402 243 391 270.5 Q380 298 360 318.5 Q340 339 313 350.5 Q286 362 253 362 Q215 362 180.5 347.5 Q146 333 120 307.5 Q94 282 79 248.5 Q64 215 64 177 Z M558 572 Q554 577 551 582 Q548 587 543 592 Q567 612 580 642 Q593 672 590 707 L621 714 Q625 673 607.5 636 Q590 599 558 572 Z " />
<glyph glyph-name="dcroat" unicode="&#x111;" horiz-adv-x="514" d="M29 172 Q29 219 47.5 260 Q66 301 97 331 Q128 361 169 378.5 Q210 396 255 396 Q318 396 358.5 364.5 Q399 333 413 288 L453 613 L487 613 L412 0 L377 0 L384 47 L391 100 Q365 55 316 24 Q267 -7 205 -7 Q166 -7 133.5 7 Q101 21 77.5 45 Q54 69 41.5 101.5 Q29 134 29 172 Z M64 177 Q64 145 75 118 Q86 91 105.5 70.5 Q125 50 152.5 38.5 Q180 27 212 27 Q250 27 284.5 41.5 Q319 56 345 81.5 Q371 107 386.5 140 Q402 173 402 211 Q402 243 391 270.5 Q380 298 360 318.5 Q340 339 313 350.5 Q286 362 253 362 Q215 362 180.5 347.5 Q146 333 120 307.5 Q94 282 79 248.5 Q64 215 64 177 Z M266 613 L453 613 L456 644 L270 644 L266 613 Z M470 758 L505 758 L491 644 L456 644 Q462 692 466 724 Q470 756 470 758 Z M552 613 L556 644 L491 644 L487 613 L552 613 Z " />
<glyph glyph-name="nacute" unicode="&#x144;" horiz-adv-x="454" d="M84 387 L112 387 Q112 383 110.5 368 Q109 353 107.5 336 Q106 319 104.5 304.5 Q103 290 103 287 Q130 335 177 365 Q224 395 282 395 Q338 395 367 363 Q396 331 391 280 L357 0 L322 0 L356 274 Q359 309 338.5 334 Q318 359 274 361 Q241 361 211 350 Q181 339 157 320 Q133 301 117 274 Q101 247 97 216 L70 0 L36 0 L84 387 Z M230 481 L336 614 L374 614 L259 481 L230 481 Z " />
<glyph glyph-name="ncaron" unicode="&#x148;" horiz-adv-x="454" d="M84 387 L112 387 Q112 383 110.5 368 Q109 353 107.5 336 Q106 319 104.5 304.5 Q103 290 103 287 Q130 335 177 365 Q224 395 282 395 Q338 395 367 363 Q396 331 391 280 L357 0 L322 0 L356 274 Q359 309 338.5 334 Q318 359 274 361 Q241 361 211 350 Q181 339 157 320 Q133 301 117 274 Q101 247 97 216 L70 0 L36 0 L84 387 Z M258 481 Q233 526 209 571.5 Q185 617 160 663 L190 663 L264 530 L371 663 L401 663 Q366 617 329.5 571.5 Q293 526 258 481 Z " />
<glyph glyph-name="ohungarumlaut" unicode="&#x151;" horiz-adv-x="483" d="M29 194 Q34 236 54.5 273 Q75 310 105.5 337.5 Q136 365 175 381 Q214 397 256 397 Q295 397 328 383 Q361 369 385 344 Q409 319 422.5 286 Q436 253 436 215 Q436 169 417.5 128.5 Q399 88 367.5 58 Q336 28 294 10.5 Q252 -7 206 -7 Q164 -7 129 8.5 Q94 24 70 51 Q46 78 35 114.5 Q24 151 29 194 Z M64 194 Q59 159 68.5 128.5 Q78 98 97.5 75.5 Q117 53 146 40 Q175 27 210 27 Q248 27 282.5 41.5 Q317 56 343 81 Q369 106 384.5 139.5 Q400 173 400 211 Q400 242 389 270 Q378 298 358 318 Q338 338 310.5 350 Q283 362 251 362 Q216 362 184 349 Q152 336 126.5 313 Q101 290 84.5 259.5 Q68 229 64 194 Z M350 481 L457 614 L495 614 L380 481 L350 481 Z M132 481 L238 614 L276 614 L161 481 L132 481 Z " />
<glyph glyph-name="rcaron" unicode="&#x159;" horiz-adv-x="271" d="M272 354 Q240 353 210 343 Q180 333 156 314.5 Q132 296 116 270.5 Q100 245 97 214 L70 0 L36 0 L84 387 L112 387 Q112 383 110.5 368 Q109 353 107.5 336 Q106 319 104.5 304.5 Q103 290 103 287 Q132 337 181.5 365.5 Q231 394 282 395 L272 354 Z M183 481 Q158 526 134 571.5 Q110 617 85 663 L115 663 L189 530 L296 663 L326 663 Q291 617 254.5 571.5 Q218 526 183 481 Z " />
<glyph glyph-name="uring" unicode="&#x16f;" horiz-adv-x="454" d="M211 486 Q211 469 223 457 Q235 445 252 445 Q272 445 287 459.5 Q302 474 302 494 Q302 511 291 523 Q280 535 263 535 Q243 535 227 520.5 Q211 506 211 486 Z M187 483 Q187 515 210 537.5 Q233 560 265 560 Q292 560 309 542 Q326 524 326 498 Q326 466 303 443.5 Q280 421 248 421 Q222 421 204.5 439 Q187 457 187 483 Z M352 -3 L325 -3 L334 101 Q308 52 260 22 Q212 -8 154 -8 Q98 -8 69 24.5 Q40 57 45 108 L79 387 L114 387 L80 114 Q78 79 98 54 Q118 29 162 26 Q195 26 225 37 Q255 48 279 67 Q303 86 319 112.5 Q335 139 339 171 L366 387 L400 387 L352 -3 Z " />
<glyph glyph-name="uhungarumlaut" unicode="&#x171;" horiz-adv-x="455" d="M352 -3 L325 -3 L334 101 Q308 52 260 22 Q212 -8 154 -8 Q98 -8 69 24.5 Q40 57 45 108 L79 387 L114 387 L80 114 Q78 79 98 54 Q118 29 162 26 Q195 26 225 37 Q255 48 279 67 Q303 86 319 112.5 Q335 139 339 171 L366 387 L400 387 L352 -3 Z M334 481 L441 614 L479 614 L364 481 L334 481 Z M116 481 L222 614 L260 614 L145 481 L116 481 Z " />
<glyph glyph-name="uni0163" unicode="&#x163;" horiz-adv-x="266" d="M133 557 L168 557 L146 381 L269 381 L265 350 L142 350 L100 0 L65 0 L108 350 L23 350 L27 381 L112 381 L133 557 Z M108 -22 L-3 -228 L-37 -228 L66 -22 L108 -22 Z " />
<glyph glyph-name="Hbar" unicode="&#x126;" horiz-adv-x="757" d="M88 0 L148 499 L70 499 L74 526 L152 526 L174 707 L216 707 L193 526 L628 526 L651 707 L695 707 Q684 629 672 526 L749 526 L745 499 L668 499 L605 0 L564 0 L605 337 L170 337 L129 0 L88 0 Z M610 376 L625 499 L190 499 L175 376 L610 376 Z " />
<glyph glyph-name="Hcircumflex" unicode="&#x124;" horiz-adv-x="740" d="M78 0 L164 707 L206 707 L165 376 L600 376 L641 707 L685 707 L595 0 L554 0 L595 337 L160 337 L119 0 L78 0 Z M453 937 Q478 891 502 845.5 Q526 800 552 755 L522 755 Q505 786 485 821 Q465 856 447 887 Q423 856 394 821 Q365 786 340 755 L311 755 L453 937 Z " />
<glyph glyph-name="Idotaccent" unicode="&#x130;" horiz-adv-x="262" d="M164 707 L206 707 L119 0 L78 0 L164 707 Z M164 783 Q164 797 175 807 Q186 817 199 817 Q210 817 217.5 809 Q225 801 225 789 Q225 775 214.5 765.5 Q204 756 191 756 Q180 756 172 764 Q164 772 164 783 Z " />
<glyph glyph-name="Gbreve" unicode="&#x11e;" horiz-adv-x="678" d="M614 313 L580 42 Q537 19 486.5 5.5 Q436 -8 382 -8 Q307 -8 247 16.5 Q187 41 146 83.5 Q105 126 83 183.5 Q61 241 61 308 Q61 393 95 467.5 Q129 542 186 597 Q243 652 317.5 683.5 Q392 715 473 715 Q524 715 571.5 702 Q619 689 657 665 L632 631 Q598 652 555 664 Q512 676 467 676 Q396 676 330.5 647.5 Q265 619 214.5 569.5 Q164 520 133.5 454.5 Q103 389 103 315 Q103 256 122.5 204.5 Q142 153 178 114.5 Q214 76 266.5 53.5 Q319 31 385 31 Q425 31 466 40.5 Q507 50 545 69 L570 277 L407 277 L412 313 L614 313 Z M458 754 Q425 754 397 766 Q369 778 349.5 799 Q330 820 320.5 849 Q311 878 314 911 L339 911 Q336 884 344 860 Q352 836 368 817.5 Q384 799 407.5 788.5 Q431 778 460 778 Q490 778 516 788.5 Q542 799 562.5 817.5 Q583 836 596 860 Q609 884 613 911 L638 911 Q634 878 617.5 849 Q601 820 576.5 799 Q552 778 521.5 766 Q491 754 458 754 Z " />
<glyph glyph-name="Jcircumflex" unicode="&#x134;" horiz-adv-x="268" d="M-100 -144 L-95 -105 Q-59 -103 -26 -88.5 Q7 -74 32.5 -47 Q58 -20 75 18 Q92 56 98 106 L173 707 L213 707 L139 103 Q132 44 110 -1.5 Q88 -47 56 -78 Q24 -109 -16.5 -126 Q-57 -143 -100 -144 Z M220 937 Q245 891 269 845.5 Q293 800 319 755 L289 755 Q272 786 252 821 Q232 856 214 887 Q190 856 161 821 Q132 786 107 755 L78 755 L220 937 Z " />
<glyph glyph-name="hbar" unicode="&#x127;" horiz-adv-x="454" d="M129 758 L163 758 L143 591 L301 591 L297 565 L140 565 L107 293 Q131 338 177.5 366.5 Q224 395 282 395 Q338 396 367 363.5 Q396 331 391 280 L357 0 L322 0 L356 274 Q359 309 338.5 334 Q318 359 274 361 Q241 361 211 350 Q181 339 157 320 Q133 301 117 274 Q101 247 97 216 L70 0 L36 0 L105 565 L48 565 L52 591 L108 591 L129 758 Z " />
<glyph glyph-name="hcircumflex" unicode="&#x125;" horiz-adv-x="454" d="M129 758 L163 758 L107 293 Q131 338 177.5 366.5 Q224 395 282 395 Q338 396 367 363.5 Q396 331 391 280 L357 0 L322 0 L356 274 Q359 309 338.5 334 Q318 359 274 361 Q241 361 211 350 Q181 339 157 320 Q133 301 117 274 Q101 247 97 216 L70 0 L36 0 L129 758 Z M342 937 Q367 891 391 845.5 Q415 800 441 755 L411 755 Q394 786 374 821 Q354 856 336 887 Q312 856 283 821 Q254 786 229 755 L200 755 L342 937 Z " />
<glyph glyph-name="dotlessi" unicode="&#x131;" horiz-adv-x="172" d="M70 0 L36 0 L84 387 L118 387 L70 0 Z " />
<glyph glyph-name="gbreve" unicode="&#x11f;" horiz-adv-x="513" d="M28 172 Q28 218 46.5 259 Q65 300 96.5 330.5 Q128 361 168.5 378.5 Q209 396 254 396 Q285 396 311.5 387 Q338 378 358.5 363 Q379 348 392.5 328.5 Q406 309 412 288 Q415 313 419 338 Q423 363 428 387 L459 387 L411 0 Q406 -38 391 -71.5 Q376 -105 349 -130.5 Q322 -156 281.5 -171 Q241 -186 185 -186 Q139 -186 99.5 -169 Q60 -152 18 -106 L44 -82 Q63 -104 81.5 -117.5 Q100 -131 118 -138.5 Q136 -146 153.5 -149 Q171 -152 188 -152 Q236 -152 269 -140.5 Q302 -129 324 -108 Q346 -87 358.5 -58.5 Q371 -30 376 5 L383 48 Q383 50 384.5 58 Q386 66 387 75 Q388 84 389 92 Q390 100 390 102 Q365 56 316 24.5 Q267 -7 204 -7 Q165 -7 133 7 Q101 21 77.5 45 Q54 69 41 101.5 Q28 134 28 172 Z M63 177 Q63 145 74 118 Q85 91 104.5 70.5 Q124 50 151.5 38.5 Q179 27 211 27 Q249 27 283.5 41.5 Q318 56 344 81.5 Q370 107 385.5 140 Q401 173 401 211 Q401 243 390 270.5 Q379 298 359 318.5 Q339 339 312 350.5 Q285 362 252 362 Q214 362 179.5 347.5 Q145 333 119 307.5 Q93 282 78 248.5 Q63 215 63 177 Z M293 500 Q260 500 232 512 Q204 524 184.5 545 Q165 566 155.5 595 Q146 624 149 657 L174 657 Q171 630 179 606 Q187 582 203 563.5 Q219 545 242.5 534.5 Q266 524 295 524 Q325 524 351 534.5 Q377 545 397.5 563.5 Q418 582 431 606 Q444 630 448 657 L473 657 Q469 624 452.5 595 Q436 566 411.5 545 Q387 524 356.5 512 Q326 500 293 500 Z " />
<glyph glyph-name="jcircumflex" unicode="&#x135;" horiz-adv-x="173" d="M-18 -186 L-40 -162 Q-11 -135 9.5 -96.5 Q30 -58 35 -7 L84 387 L118 387 L70 -5 Q62 -65 39.5 -110.5 Q17 -156 -18 -186 Z M135 663 Q160 617 184 571.5 Q208 526 234 481 L204 481 Q187 512 167 547 Q147 582 129 613 Q105 582 76 547 Q47 512 22 481 L-7 481 L135 663 Z " />
<glyph glyph-name="Cdotaccent" unicode="&#x10a;" horiz-adv-x="642" d="M581 45 Q542 23 490.5 7.5 Q439 -8 377 -8 Q303 -8 244 17 Q185 42 144.5 85.5 Q104 129 82.5 187 Q61 245 61 310 Q61 395 95 468.5 Q129 542 185.5 597 Q242 652 316 683.5 Q390 715 471 715 Q524 715 571.5 701.5 Q619 688 651 665 Q644 656 640.5 650.5 Q637 645 628 632 Q596 654 554 665 Q512 676 468 676 Q396 676 329.5 647.5 Q263 619 213 570 Q163 521 133 455.5 Q103 390 103 317 Q103 260 122 208.5 Q141 157 177 118.5 Q213 80 265 57 Q317 34 382 34 Q437 34 485 48.5 Q533 63 565 82 L581 45 Z M430 781 Q430 795 441 805 Q452 815 465 815 Q476 815 483.5 807 Q491 799 491 787 Q491 773 480.5 763.5 Q470 754 457 754 Q446 754 438 762 Q430 770 430 781 Z " />
<glyph glyph-name="Ccircumflex" unicode="&#x108;" horiz-adv-x="642" d="M581 45 Q542 23 490.5 7.5 Q439 -8 377 -8 Q303 -8 244 17 Q185 42 144.5 85.5 Q104 129 82.5 187 Q61 245 61 310 Q61 395 95 468.5 Q129 542 185.5 597 Q242 652 316 683.5 Q390 715 471 715 Q524 715 571.5 701.5 Q619 688 651 665 Q644 656 640.5 650.5 Q637 645 628 632 Q596 654 554 665 Q512 676 468 676 Q396 676 329.5 647.5 Q263 619 213 570 Q163 521 133 455.5 Q103 390 103 317 Q103 260 122 208.5 Q141 157 177 118.5 Q213 80 265 57 Q317 34 382 34 Q437 34 485 48.5 Q533 63 565 82 L581 45 Z M488 937 Q513 891 537 845.5 Q561 800 587 755 L557 755 Q540 786 520 821 Q500 856 482 887 Q458 856 429 821 Q400 786 375 755 L346 755 L488 937 Z " />
<glyph glyph-name="Gdotaccent" unicode="&#x120;" horiz-adv-x="678" d="M614 313 L580 42 Q537 19 486.5 5.5 Q436 -8 382 -8 Q307 -8 247 16.5 Q187 41 146 83.5 Q105 126 83 183.5 Q61 241 61 308 Q61 393 95 467.5 Q129 542 186 597 Q243 652 317.5 683.5 Q392 715 473 715 Q524 715 571.5 702 Q619 689 657 665 L632 631 Q598 652 555 664 Q512 676 467 676 Q396 676 330.5 647.5 Q265 619 214.5 569.5 Q164 520 133.5 454.5 Q103 389 103 315 Q103 256 122.5 204.5 Q142 153 178 114.5 Q214 76 266.5 53.5 Q319 31 385 31 Q425 31 466 40.5 Q507 50 545 69 L570 277 L407 277 L412 313 L614 313 Z M427 781 Q427 795 438 805 Q449 815 462 815 Q473 815 480.5 807 Q488 799 488 787 Q488 773 477.5 763.5 Q467 754 454 754 Q443 754 435 762 Q427 770 427 781 Z " />
<glyph glyph-name="Gcircumflex" unicode="&#x11c;" horiz-adv-x="678" d="M614 313 L580 42 Q537 19 486.5 5.5 Q436 -8 382 -8 Q307 -8 247 16.5 Q187 41 146 83.5 Q105 126 83 183.5 Q61 241 61 308 Q61 393 95 467.5 Q129 542 186 597 Q243 652 317.5 683.5 Q392 715 473 715 Q524 715 571.5 702 Q619 689 657 665 L632 631 Q598 652 555 664 Q512 676 467 676 Q396 676 330.5 647.5 Q265 619 214.5 569.5 Q164 520 133.5 454.5 Q103 389 103 315 Q103 256 122.5 204.5 Q142 153 178 114.5 Q214 76 266.5 53.5 Q319 31 385 31 Q425 31 466 40.5 Q507 50 545 69 L570 277 L407 277 L412 313 L614 313 Z M488 937 Q513 891 537 845.5 Q561 800 587 755 L557 755 Q540 786 520 821 Q500 856 482 887 Q458 856 429 821 Q400 786 375 755 L346 755 L488 937 Z " />
<glyph glyph-name="Ubreve" unicode="&#x16c;" horiz-adv-x="681" d="M307 -8 Q256 -8 214 8 Q172 24 143.5 55 Q115 86 102.5 131.5 Q90 177 97 235 L155 707 L196 707 L139 238 Q133 190 143 151.5 Q153 113 176 86 Q199 59 234 45 Q269 31 312 31 Q354 31 392 45 Q430 59 460 86 Q490 113 509.5 151.5 Q529 190 535 238 L593 707 L634 707 L577 235 Q569 177 545 131.5 Q521 86 485 55 Q449 24 403.5 8 Q358 -8 307 -8 Z M408 754 Q375 754 347 766 Q319 778 299.5 799 Q280 820 270.5 849 Q261 878 264 911 L289 911 Q286 884 294 860 Q302 836 318 817.5 Q334 799 357.5 788.5 Q381 778 410 778 Q440 778 466 788.5 Q492 799 512.5 817.5 Q533 836 546 860 Q559 884 563 911 L588 911 Q584 878 567.5 849 Q551 820 526.5 799 Q502 778 471.5 766 Q441 754 408 754 Z " />
<glyph glyph-name="Scircumflex" unicode="&#x15c;" horiz-adv-x="540" d="M507 672 L488 639 Q459 652 416.5 662.5 Q374 673 332 673 Q291 673 257 661.5 Q223 650 199 631 Q175 612 162 586 Q149 560 149 532 Q149 494 173.5 471 Q198 448 235.5 430.5 Q273 413 316 397.5 Q359 382 396.5 359.5 Q434 337 458.5 303 Q483 269 483 215 Q483 164 464 123 Q445 82 410.5 53 Q376 24 328.5 8 Q281 -8 223 -8 Q181 -8 147.5 0 Q114 8 88 19.5 Q62 31 44.5 42.5 Q27 54 17 60 L41 97 Q56 86 77 74.5 Q98 63 122.5 53.5 Q147 44 174 38 Q201 32 229 32 Q264 32 301.5 42.5 Q339 53 370.5 75 Q402 97 422 130.5 Q442 164 442 210 Q442 257 417 286 Q392 315 355 335 Q318 355 274.5 370.5 Q231 386 194 405 Q157 424 132 451.5 Q107 479 107 524 Q107 561 124 595 Q141 629 170.5 655 Q200 681 241 696 Q282 711 330 711 Q353 711 378.5 707.5 Q404 704 428 698.5 Q452 693 472.5 686 Q493 679 507 672 Z M358 937 Q383 891 407 845.5 Q431 800 457 755 L427 755 Q410 786 390 821 Q370 856 352 887 Q328 856 299 821 Q270 786 245 755 L216 755 L358 937 Z " />
<glyph glyph-name="cdotaccent" unicode="&#x10b;" horiz-adv-x="401" d="M321 63 Q326 57 330.5 50.5 Q335 44 340 37 Q311 17 277.5 5 Q244 -7 207 -7 Q168 -7 135 7 Q102 21 78.5 45.5 Q55 70 41.5 103 Q28 136 28 174 Q28 219 46.5 259.5 Q65 300 96.5 330.5 Q128 361 169.5 378.5 Q211 396 256 396 Q294 396 325 384 Q356 372 380 352 Q374 345 367 339 Q360 333 354 325 Q334 342 308.5 352 Q283 362 253 362 Q215 362 180.5 347.5 Q146 333 120 307.5 Q94 282 78.5 248.5 Q63 215 63 177 Q63 145 74 118 Q85 91 104.5 70.5 Q124 50 151 38.5 Q178 27 211 27 Q242 27 270 36.5 Q298 46 321 63 Z M242 519 Q242 533 253 543 Q264 553 277 553 Q288 553 295.5 545 Q303 537 303 525 Q303 511 292.5 501.5 Q282 492 269 492 Q258 492 250 500 Q242 508 242 519 Z " />
<glyph glyph-name="ccircumflex" unicode="&#x109;" horiz-adv-x="401" d="M321 63 Q326 57 330.5 50.5 Q335 44 340 37 Q311 17 277.5 5 Q244 -7 207 -7 Q168 -7 135 7 Q102 21 78.5 45.5 Q55 70 41.5 103 Q28 136 28 174 Q28 219 46.5 259.5 Q65 300 96.5 330.5 Q128 361 169.5 378.5 Q211 396 256 396 Q294 396 325 384 Q356 372 380 352 Q374 345 367 339 Q360 333 354 325 Q334 342 308.5 352 Q283 362 253 362 Q215 362 180.5 347.5 Q146 333 120 307.5 Q94 282 78.5 248.5 Q63 215 63 177 Q63 145 74 118 Q85 91 104.5 70.5 Q124 50 151 38.5 Q178 27 211 27 Q242 27 270 36.5 Q298 46 321 63 Z M281 663 Q306 617 330 571.5 Q354 526 380 481 L350 481 Q333 512 313 547 Q293 582 275 613 Q251 582 222 547 Q193 512 168 481 L139 481 L281 663 Z " />
<glyph glyph-name="gdotaccent" unicode="&#x121;" horiz-adv-x="513" d="M28 172 Q28 218 46.5 259 Q65 300 96.5 330.5 Q128 361 168.5 378.5 Q209 396 254 396 Q285 396 311.5 387 Q338 378 358.5 363 Q379 348 392.5 328.5 Q406 309 412 288 Q415 313 419 338 Q423 363 428 387 L459 387 L411 0 Q406 -38 391 -71.5 Q376 -105 349 -130.5 Q322 -156 281.5 -171 Q241 -186 185 -186 Q139 -186 99.5 -169 Q60 -152 18 -106 L44 -82 Q63 -104 81.5 -117.5 Q100 -131 118 -138.5 Q136 -146 153.5 -149 Q171 -152 188 -152 Q236 -152 269 -140.5 Q302 -129 324 -108 Q346 -87 358.5 -58.5 Q371 -30 376 5 L383 48 Q383 50 384.5 58 Q386 66 387 75 Q388 84 389 92 Q390 100 390 102 Q365 56 316 24.5 Q267 -7 204 -7 Q165 -7 133 7 Q101 21 77.5 45 Q54 69 41 101.5 Q28 134 28 172 Z M63 177 Q63 145 74 118 Q85 91 104.5 70.5 Q124 50 151.5 38.5 Q179 27 211 27 Q249 27 283.5 41.5 Q318 56 344 81.5 Q370 107 385.5 140 Q401 173 401 211 Q401 243 390 270.5 Q379 298 359 318.5 Q339 339 312 350.5 Q285 362 252 362 Q214 362 179.5 347.5 Q145 333 119 307.5 Q93 282 78 248.5 Q63 215 63 177 Z M263 519 Q263 533 274 543 Q285 553 298 553 Q309 553 316.5 545 Q324 537 324 525 Q324 511 313.5 501.5 Q303 492 290 492 Q279 492 271 500 Q263 508 263 519 Z " />
<glyph glyph-name="gcircumflex" unicode="&#x11d;" horiz-adv-x="513" d="M28 172 Q28 218 46.5 259 Q65 300 96.5 330.5 Q128 361 168.5 378.5 Q209 396 254 396 Q285 396 311.5 387 Q338 378 358.5 363 Q379 348 392.5 328.5 Q406 309 412 288 Q415 313 419 338 Q423 363 428 387 L459 387 L411 0 Q406 -38 391 -71.5 Q376 -105 349 -130.5 Q322 -156 281.5 -171 Q241 -186 185 -186 Q139 -186 99.5 -169 Q60 -152 18 -106 L44 -82 Q63 -104 81.5 -117.5 Q100 -131 118 -138.5 Q136 -146 153.5 -149 Q171 -152 188 -152 Q236 -152 269 -140.5 Q302 -129 324 -108 Q346 -87 358.5 -58.5 Q371 -30 376 5 L383 48 Q383 50 384.5 58 Q386 66 387 75 Q388 84 389 92 Q390 100 390 102 Q365 56 316 24.5 Q267 -7 204 -7 Q165 -7 133 7 Q101 21 77.5 45 Q54 69 41 101.5 Q28 134 28 172 Z M63 177 Q63 145 74 118 Q85 91 104.5 70.5 Q124 50 151.5 38.5 Q179 27 211 27 Q249 27 283.5 41.5 Q318 56 344 81.5 Q370 107 385.5 140 Q401 173 401 211 Q401 243 390 270.5 Q379 298 359 318.5 Q339 339 312 350.5 Q285 362 252 362 Q214 362 179.5 347.5 Q145 333 119 307.5 Q93 282 78 248.5 Q63 215 63 177 Z M302 663 Q327 617 351 571.5 Q375 526 401 481 L371 481 Q354 512 334 547 Q314 582 296 613 Q272 582 243 547 Q214 512 189 481 L160 481 L302 663 Z " />
<glyph glyph-name="ubreve" unicode="&#x16d;" horiz-adv-x="454" d="M352 -3 L325 -3 L334 101 Q308 52 260 22 Q212 -8 154 -8 Q98 -8 69 24.5 Q40 57 45 108 L79 387 L114 387 L80 114 Q78 79 98 54 Q118 29 162 26 Q195 26 225 37 Q255 48 279 67 Q303 86 319 112.5 Q335 139 339 171 L366 387 L400 387 L352 -3 Z M255 500 Q222 500 194 512 Q166 524 146.5 545 Q127 566 117.5 595 Q108 624 111 657 L136 657 Q133 630 141 606 Q149 582 165 563.5 Q181 545 204.5 534.5 Q228 524 257 524 Q287 524 313 534.5 Q339 545 359.5 563.5 Q380 582 393 606 Q406 630 410 657 L435 657 Q431 624 414.5 595 Q398 566 373.5 545 Q349 524 318.5 512 Q288 500 255 500 Z " />
<glyph glyph-name="scircumflex" unicode="&#x15d;" horiz-adv-x="317" d="M273 349 Q268 343 260.5 335 Q253 327 251 325 Q241 340 217 349.5 Q193 359 171 359 Q159 359 144 355 Q129 351 116.5 342.5 Q104 334 95.5 320 Q87 306 87 286 Q87 264 100 250.5 Q113 237 132 227 Q151 217 173.5 209 Q196 201 215 190 Q234 179 247 161.5 Q260 144 260 117 Q260 93 250.5 70 Q241 47 223 30 Q205 13 179.5 2.5 Q154 -8 122 -8 Q91 -8 58.5 3 Q26 14 8 40 Q14 46 22.5 54.5 Q31 63 33 65 Q37 58 47.5 51 Q58 44 71.5 38.5 Q85 33 99.5 29.5 Q114 26 127 26 Q140 26 157 30.5 Q174 35 189 45 Q204 55 214.5 71 Q225 87 225 110 Q225 133 212 147 Q199 161 180 170.5 Q161 180 138.5 188 Q116 196 97 207 Q78 218 65 235 Q52 252 52 280 Q52 309 63 330.5 Q74 352 92 366 Q110 380 131.5 386.5 Q153 393 174 393 Q198 393 226.5 383 Q255 373 273 349 Z M200 663 Q225 617 249 571.5 Q273 526 299 481 L269 481 Q252 512 232 547 Q212 582 194 613 Q170 582 141 547 Q112 512 87 481 L58 481 L200 663 Z " />
<glyph glyph-name="oe" unicode="&#x153;" horiz-adv-x="666" d="M583 47 Q553 22 515 7.5 Q477 -7 436 -7 Q404 -7 376.5 2 Q349 11 327 28 Q272 -7 207 -7 Q168 -7 135.5 6.5 Q103 20 79 44 Q55 68 41.5 101 Q28 134 28 173 Q28 219 47 259.5 Q66 300 97.5 330.5 Q129 361 170.5 379 Q212 397 257 397 Q289 397 316.5 388 Q344 379 366 362 Q392 379 422 388 Q452 397 484 397 Q549 397 589.5 359.5 Q630 322 645 264 Q607 250 563 233 Q519 216 473 198 Q427 180 381.5 162.5 Q336 145 296 130 Q310 84 347.5 55.5 Q385 27 439 27 Q472 27 504 39 Q536 51 560 72 L583 47 Z M252 362 Q214 362 180 347.5 Q146 333 120 307.5 Q94 282 78.5 248.5 Q63 215 63 177 Q63 145 74 118 Q85 91 104.5 70.5 Q124 50 151 38.5 Q178 27 210 27 Q234 27 257.5 33.5 Q281 40 301 51 Q280 75 268 106.5 Q256 138 256 174 Q256 222 277.5 265 Q299 308 334 339 Q299 362 252 362 Z M602 274 Q588 314 557 338 Q526 362 480 362 Q443 362 409 347.5 Q375 333 349 307.5 Q323 282 307.5 248.5 Q292 215 291 178 Q291 172 291 165.5 Q291 159 293 154 Q328 168 368 183.5 Q408 199 448.5 214.5 Q489 230 528 245 Q567 260 602 274 Z " />
<glyph glyph-name="OE" unicode="&#x152;" horiz-adv-x="946" d="M380 -8 Q311 -8 252.5 17 Q194 42 151.5 86 Q109 130 85 189 Q61 248 61 316 Q61 397 94.5 469.5 Q128 542 184.5 596.5 Q241 651 315 683 Q389 715 469 715 Q507 715 544 707 L934 707 L930 669 L568 669 L532 375 L854 375 L849 337 L527 337 L491 39 L867 39 L862 0 L458 0 Q418 -8 380 -8 Z M464 675 Q393 675 328 646.5 Q263 618 213 569.5 Q163 521 133 456 Q103 391 103 319 Q103 259 124 206.5 Q145 154 182.5 115 Q220 76 271.5 53.5 Q323 31 384 31 Q418 31 449 38 L527 669 Q513 671 497 673 Q481 675 464 675 Z " />
<glyph glyph-name="Ydieresis" unicode="&#x178;" horiz-adv-x="612" d="M325 255 L294 0 L252 0 L284 255 Q263 299 235.5 358.5 Q208 418 179.5 481 Q151 544 123.5 603.5 Q96 663 75 707 L122 707 Q141 667 163.5 619 Q186 571 209.5 520 Q233 469 256.5 417.5 Q280 366 301 319 L309 291 Q317 303 325 319 Q358 366 394 417.5 Q430 469 465.5 520 Q501 571 534.5 619 Q568 667 597 707 L644 707 L325 255 Z M427 798 Q427 812 437.5 822 Q448 832 462 832 Q473 832 480.5 824 Q488 816 488 804 Q488 790 477.5 780.5 Q467 771 454 771 Q443 771 435 779 Q427 787 427 798 Z M255 798 Q255 812 265.5 822 Q276 832 290 832 Q301 832 308.5 824 Q316 816 316 804 Q316 790 305.5 780.5 Q295 771 282 771 Q271 771 263 779 Q255 787 255 798 Z " />
<glyph glyph-name="Etilde" unicode="&#x1ebc;" horiz-adv-x="608" d="M78 0 L165 707 L598 707 L593 669 L202 669 L166 375 L517 375 L512 337 L161 337 L125 39 L530 39 L525 0 L78 0 Z M404 798 Q390 815 379 821 Q368 827 354 827 Q346 827 336 825 Q326 823 316 817 Q306 811 297.5 800.5 Q289 790 285 774 L262 777 Q265 796 275 810 Q285 824 298 833 Q311 842 326.5 846.5 Q342 851 356 851 Q377 851 393 841 Q409 831 423 814 Q437 797 448.5 791 Q460 785 474 785 Q481 785 491.5 787 Q502 789 512 795 Q522 801 530 811.5 Q538 822 542 838 L565 835 Q557 797 528.5 779.5 Q500 762 471 762 Q450 762 434 771.5 Q418 781 404 798 Z " />
<glyph glyph-name="uni0156" unicode="&#x156;" horiz-adv-x="583" d="M77 0 L164 707 L321 707 Q355 707 389.5 697 Q424 687 452 666 Q480 645 497.5 612 Q515 579 515 533 Q515 501 506.5 469 Q498 437 480 408.5 Q462 380 434.5 357 Q407 334 369 320 Q374 309 386.5 283 Q399 257 415 224 Q431 191 448.5 154.5 Q466 118 481.5 86 Q497 54 508.5 30.5 Q520 7 524 0 L474 0 Q470 6 460 26.5 Q450 47 436 76 Q422 105 406 138.5 Q390 172 374.5 204.5 Q359 237 346 264.5 Q333 292 325 308 Q311 306 296 304.5 Q281 303 265 303 L156 303 L119 0 L77 0 Z M161 343 L271 343 Q329 343 368 363 Q407 383 430 412 Q453 441 463 473 Q473 505 473 529 Q473 558 462 583.5 Q451 609 430 627.5 Q409 646 379 657 Q349 668 312 668 L200 668 L161 343 Z M277 -22 L166 -228 L132 -228 L235 -22 L277 -22 Z " />
<glyph glyph-name="Itilde" unicode="&#x128;" horiz-adv-x="262" d="M164 707 L206 707 L119 0 L78 0 L164 707 Z M187 789 Q173 806 162 812 Q151 818 137 818 Q129 818 119 816 Q109 814 99 808 Q89 802 80.5 791.5 Q72 781 68 765 L45 768 Q48 787 58 801 Q68 815 81 824 Q94 833 109.5 837.5 Q125 842 139 842 Q160 842 176 832 Q192 822 206 805 Q220 788 231.5 782 Q243 776 257 776 Q264 776 274.5 778 Q285 780 295 786 Q305 792 313 802.5 Q321 813 325 829 L348 826 Q340 788 311.5 770.5 Q283 753 254 753 Q233 753 217 762.5 Q201 772 187 789 Z " />
<glyph glyph-name="uni013B" unicode="&#x13b;" horiz-adv-x="548" d="M77 0 L164 707 L205 707 L124 40 L516 40 L511 0 L77 0 Z M341 -22 L230 -228 L196 -228 L299 -22 L341 -22 Z " />
<glyph glyph-name="Emacron" unicode="&#x112;" horiz-adv-x="608" d="M78 0 L165 707 L598 707 L593 669 L202 669 L166 375 L517 375 L512 337 L161 337 L125 39 L530 39 L525 0 L78 0 Z M272 756 L276 783 L507 783 L503 756 L272 756 Z " />
<glyph glyph-name="uni0122" unicode="&#x122;" horiz-adv-x="678" d="M614 313 L580 42 Q537 19 486.5 5.5 Q436 -8 382 -8 Q307 -8 247 16.5 Q187 41 146 83.5 Q105 126 83 183.5 Q61 241 61 308 Q61 393 95 467.5 Q129 542 186 597 Q243 652 317.5 683.5 Q392 715 473 715 Q524 715 571.5 702 Q619 689 657 665 L632 631 Q598 652 555 664 Q512 676 467 676 Q396 676 330.5 647.5 Q265 619 214.5 569.5 Q164 520 133.5 454.5 Q103 389 103 315 Q103 256 122.5 204.5 Q142 153 178 114.5 Q214 76 266.5 53.5 Q319 31 385 31 Q425 31 466 40.5 Q507 50 545 69 L570 277 L407 277 L412 313 L614 313 Z M380 -22 L269 -228 L235 -228 L338 -22 L380 -22 Z " />
<glyph glyph-name="Tbar" unicode="&#x166;" horiz-adv-x="510" d="M163 477 L167 504 L262 504 L282 667 L88 667 L93 707 L524 707 L518 667 L323 667 L303 504 L398 504 L394 477 L299 477 L241 0 L200 0 L258 477 L163 477 Z " />
<glyph glyph-name="uni0157" unicode="&#x157;" horiz-adv-x="271" d="M272 354 Q240 353 210 343 Q180 333 156 314.5 Q132 296 116 270.5 Q100 245 97 214 L70 0 L36 0 L84 387 L112 387 Q112 383 110.5 368 Q109 353 107.5 336 Q106 319 104.5 304.5 Q103 290 103 287 Q132 337 181.5 365.5 Q231 394 282 395 L272 354 Z M132 -22 L21 -228 L-13 -228 L90 -22 L132 -22 Z " />
<glyph glyph-name="emacron" unicode="&#x113;" horiz-adv-x="438" d="M355 47 Q325 22 287 7.5 Q249 -7 207 -7 Q168 -7 135 7 Q102 21 78.5 45.5 Q55 70 41.5 103 Q28 136 28 174 Q28 219 47 259.5 Q66 300 97.5 330.5 Q129 361 170 379 Q211 397 256 397 Q321 397 361.5 359.5 Q402 322 417 264 Q379 250 335 233 Q291 216 245 198 Q199 180 153.5 162.5 Q108 145 68 130 Q82 84 119.5 55.5 Q157 27 210 27 Q244 27 276 39 Q308 51 332 72 L355 47 Z M374 274 Q360 314 329 338 Q298 362 252 362 Q215 362 181 347.5 Q147 333 121 307.5 Q95 282 79 248.5 Q63 215 63 178 Q63 172 63 165.5 Q63 159 64 154 Q100 168 140 183.5 Q180 199 220.5 214.5 Q261 230 300 245 Q339 260 374 274 Z M148 489 L152 516 L383 516 L379 489 L148 489 Z " />
<glyph glyph-name="uni0123" unicode="&#x123;" horiz-adv-x="513" d="M28 172 Q28 218 46.5 259 Q65 300 96.5 330.5 Q128 361 168.5 378.5 Q209 396 254 396 Q285 396 311.5 387 Q338 378 358.5 363 Q379 348 392.5 328.5 Q406 309 412 288 Q415 313 419 338 Q423 363 428 387 L459 387 L411 0 Q406 -38 391 -71.5 Q376 -105 349 -130.5 Q322 -156 281.5 -171 Q241 -186 185 -186 Q139 -186 99.5 -169 Q60 -152 18 -106 L44 -82 Q63 -104 81.5 -117.5 Q100 -131 118 -138.5 Q136 -146 153.5 -149 Q171 -152 188 -152 Q236 -152 269 -140.5 Q302 -129 324 -108 Q346 -87 358.5 -58.5 Q371 -30 376 5 L383 48 Q383 50 384.5 58 Q386 66 387 75 Q388 84 389 92 Q390 100 390 102 Q365 56 316 24.5 Q267 -7 204 -7 Q165 -7 133 7 Q101 21 77.5 45 Q54 69 41 101.5 Q28 134 28 172 Z M63 177 Q63 145 74 118 Q85 91 104.5 70.5 Q124 50 151.5 38.5 Q179 27 211 27 Q249 27 283.5 41.5 Q318 56 344 81.5 Q370 107 385.5 140 Q401 173 401 211 Q401 243 390 270.5 Q379 298 359 318.5 Q339 339 312 350.5 Q285 362 252 362 Q214 362 179.5 347.5 Q145 333 119 307.5 Q93 282 78 248.5 Q63 215 63 177 Z M264 507 L375 713 L409 713 L306 507 L264 507 Z " />
<glyph glyph-name="tbar" unicode="&#x167;" horiz-adv-x="266" d="M46 489 L50 516 L128 516 L133 557 L168 557 L163 516 L281 516 L277 489 L159 489 L146 381 L269 381 L265 350 L142 350 L100 0 L65 0 L108 350 L23 350 L27 381 L112 381 L125 489 L46 489 Z " />
<glyph glyph-name="Amacron" unicode="&#x100;" horiz-adv-x="639" d="M586 0 Q571 49 554 109 Q537 169 518.5 235 Q500 301 481.5 369.5 Q463 438 444.5 504 Q426 570 409 630.5 Q392 691 378 740 Q351 691 319 630.5 Q287 570 252.5 504 Q218 438 182.5 369.5 Q147 301 112.5 235 Q78 169 46 109 Q14 49 -13 0 L29 0 Q63 63 101 136 Q139 209 178 287 L465 287 Q485 209 505 136 Q525 63 544 0 L586 0 Z M354 623 L367 652 Q368 644 369.5 636 Q371 628 373 623 Q392 557 413 480.5 Q434 404 455 323 L197 323 Q238 404 278 480.5 Q318 557 354 623 Z M264 761 L268 788 L499 788 L495 761 L264 761 Z " />
<glyph glyph-name="Iogonek" unicode="&#x12e;" horiz-adv-x="262" d="M119 0 L78 0 L164 707 L206 707 L119 0 Z M105 0 L79 0 L78 -6 Q73 -33 58 -43 Q43 -53 29 -61 Q2 -79 -9.5 -101.5 Q-21 -124 -21 -147 Q-21 -189 1 -211 Q23 -233 58 -233 Q87 -233 114 -217 Q141 -201 156 -169 Q142 -164 132 -158 Q124 -178 106 -190.5 Q88 -203 65 -203 Q39 -203 23.5 -186.5 Q8 -170 8 -144 Q8 -115 21.5 -100 Q35 -85 52 -74 Q69 -63 84 -52.5 Q99 -42 102 -22 L105 0 Z " />
<glyph glyph-name="itilde" unicode="&#x129;" horiz-adv-x="173" d="M70 0 L36 0 L84 387 L118 387 L70 0 Z M105 492 Q91 509 80 515 Q69 521 55 521 Q47 521 37 519 Q27 517 17 511 Q7 505 -1.5 494.5 Q-10 484 -14 468 L-37 471 Q-34 490 -24 504 Q-14 518 -1 527 Q12 536 27.5 540.5 Q43 545 57 545 Q78 545 94 535 Q110 525 124 508 Q138 491 149.5 485 Q161 479 175 479 Q182 479 192.5 481 Q203 483 213 489 Q223 495 231 505.5 Q239 516 243 532 L266 529 Q258 491 229.5 473.5 Q201 456 172 456 Q151 456 135 465.5 Q119 475 105 492 Z " />
<glyph glyph-name="uni013C" unicode="&#x13c;" horiz-adv-x="179" d="M74 0 L39 0 L132 758 L167 758 L74 0 Z M89 -22 L-22 -228 L-56 -228 L47 -22 L89 -22 Z " />
<glyph glyph-name="Edotaccent" unicode="&#x116;" horiz-adv-x="608" d="M78 0 L165 707 L598 707 L593 669 L202 669 L166 375 L517 375 L512 337 L161 337 L125 39 L530 39 L525 0 L78 0 Z M375 781 Q375 795 386 805 Q397 815 410 815 Q421 815 428.5 807 Q436 799 436 787 Q436 773 425.5 763.5 Q415 754 402 754 Q391 754 383 762 Q375 770 375 781 Z " />
<glyph glyph-name="Imacron" unicode="&#x12a;" horiz-adv-x="262" d="M164 707 L206 707 L119 0 L78 0 L164 707 Z M77 761 L81 788 L312 788 L308 761 L77 761 Z " />
<glyph glyph-name="uni0145" unicode="&#x145;" horiz-adv-x="810" d="M754 707 L663 -32 Q631 15 593 68.5 Q555 122 514 179 Q473 236 431.5 294 Q390 352 350.5 408.5 Q311 465 275 518 Q239 571 210 617 L194 643 L194 611 L119 0 L77 0 L168 740 Q217 667 276.5 583 Q336 499 397 413 Q458 327 516 244 Q574 161 621 91 L637 65 Q637 73 637.5 81 Q638 89 638 97 L713 707 L754 707 Z M379 -22 L268 -228 L234 -228 L337 -22 L379 -22 Z " />
<glyph glyph-name="uni0136" unicode="&#x136;" horiz-adv-x="602" d="M517 0 Q450 100 387 196 Q324 292 258 392 L159 308 Q149 230 140.5 154 Q132 78 122 0 L77 0 L164 707 L209 707 L169 387 Q168 379 167 371.5 Q166 364 164 356 L185 378 Q281 459 375 542.5 Q469 626 565 707 L620 707 Q538 635 456.5 563.5 Q375 492 293 420 Q365 314 431.5 210.5 Q498 107 569 0 L517 0 Z M330 -22 L219 -228 L185 -228 L288 -22 L330 -22 Z " />
<glyph glyph-name="uni0146" unicode="&#x146;" horiz-adv-x="454" d="M84 387 L112 387 Q112 383 110.5 368 Q109 353 107.5 336 Q106 319 104.5 304.5 Q103 290 103 287 Q130 335 177 365 Q224 395 282 395 Q338 395 367 363 Q396 331 391 280 L357 0 L322 0 L356 274 Q359 309 338.5 334 Q318 359 274 361 Q241 361 211 350 Q181 339 157 320 Q133 301 117 274 Q101 247 97 216 L70 0 L36 0 L84 387 Z M224 -22 L113 -228 L79 -228 L182 -22 L224 -22 Z " />
<glyph glyph-name="uni0137" unicode="&#x137;" horiz-adv-x="381" d="M339 397 L357 375 L195 237 Q230 177 266.5 118.5 Q303 60 338 0 L297 0 Q265 54 231.5 107 Q198 160 166 214 L89 148 L70 0 L36 0 L129 758 L163 758 L94 192 L339 397 Z M224 -22 L113 -228 L79 -228 L182 -22 L224 -22 Z " />
<glyph glyph-name="Omacron" unicode="&#x14c;" horiz-adv-x="830" d="M63 353 Q72 428 108.5 493.5 Q145 559 200 608.5 Q255 658 324 686.5 Q393 715 468 715 Q537 715 596 689.5 Q655 664 698 620 Q741 576 765 516.5 Q789 457 789 389 Q789 308 755 236 Q721 164 664.5 109.5 Q608 55 534 23.5 Q460 -8 379 -8 Q304 -8 242 20.5 Q180 49 137.5 98 Q95 147 74.5 212.5 Q54 278 63 353 Z M104 352 Q96 286 114 227.5 Q132 169 170 125.5 Q208 82 262.5 56.5 Q317 31 383 31 Q454 31 520 59 Q586 87 636.5 135.5 Q687 184 717 248.5 Q747 313 747 385 Q747 445 725.5 498 Q704 551 666 590.5 Q628 630 576 652.5 Q524 675 463 675 Q397 675 335.5 649.5 Q274 624 225.5 580 Q177 536 144.5 477.5 Q112 419 104 352 Z M361 761 L365 788 L596 788 L592 761 L361 761 Z " />
<glyph glyph-name="Umacron" unicode="&#x16a;" horiz-adv-x="681" d="M307 -8 Q256 -8 214 8 Q172 24 143.5 55 Q115 86 102.5 131.5 Q90 177 97 235 L155 707 L196 707 L139 238 Q133 190 143 151.5 Q153 113 176 86 Q199 59 234 45 Q269 31 312 31 Q354 31 392 45 Q430 59 460 86 Q490 113 509.5 151.5 Q529 190 535 238 L593 707 L634 707 L577 235 Q569 177 545 131.5 Q521 86 485 55 Q449 24 403.5 8 Q358 -8 307 -8 Z M297 761 L301 788 L532 788 L528 761 L297 761 Z " />
<glyph glyph-name="omacron" unicode="&#x14d;" horiz-adv-x="483" d="M29 194 Q34 236 54.5 273 Q75 310 105.5 337.5 Q136 365 175 381 Q214 397 256 397 Q295 397 328 383 Q361 369 385 344 Q409 319 422.5 286 Q436 253 436 215 Q436 169 417.5 128.5 Q399 88 367.5 58 Q336 28 294 10.5 Q252 -7 206 -7 Q164 -7 129 8.5 Q94 24 70 51 Q46 78 35 114.5 Q24 151 29 194 Z M64 194 Q59 159 68.5 128.5 Q78 98 97.5 75.5 Q117 53 146 40 Q175 27 210 27 Q248 27 282.5 41.5 Q317 56 343 81 Q369 106 384.5 139.5 Q400 173 400 211 Q400 242 389 270 Q378 298 358 318 Q338 338 310.5 350 Q283 362 251 362 Q216 362 184 349 Q152 336 126.5 313 Q101 290 84.5 259.5 Q68 229 64 194 Z M154 489 L158 516 L389 516 L385 489 L154 489 Z " />
<glyph glyph-name="umacron" unicode="&#x16b;" horiz-adv-x="454" d="M352 -3 L325 -3 L334 101 Q308 52 260 22 Q212 -8 154 -8 Q98 -8 69 24.5 Q40 57 45 108 L79 387 L114 387 L80 114 Q78 79 98 54 Q118 29 162 26 Q195 26 225 37 Q255 48 279 67 Q303 86 319 112.5 Q335 139 339 171 L366 387 L400 387 L352 -3 Z M136 489 L140 516 L371 516 L367 489 L136 489 Z " />
<glyph glyph-name="amacron" unicode="&#x101;" horiz-adv-x="513" d="M63 177 Q63 145 74 118 Q85 91 104.5 70.5 Q124 50 151.5 38.5 Q179 27 211 27 Q249 27 283.5 41.5 Q318 56 344 81.5 Q370 107 385.5 140 Q401 173 401 211 Q401 243 390 270.5 Q379 298 359 318.5 Q339 339 312 350.5 Q285 362 252 362 Q214 362 179.5 347.5 Q145 333 119 307.5 Q93 282 78 248.5 Q63 215 63 177 Z M28 172 Q28 218 46.5 258.5 Q65 299 96.5 329.5 Q128 360 169 378 Q210 396 255 396 Q286 396 312 387.5 Q338 379 358 364 Q378 349 392 329.5 Q406 310 412 288 Q416 313 419.5 338 Q423 363 428 387 L459 387 L411 0 L377 0 L383 48 Q385 61 386.5 73.5 Q388 86 389 99 Q366 55 317.5 24 Q269 -7 206 -7 Q167 -7 134 7 Q101 21 77.5 45 Q54 69 41 101.5 Q28 134 28 172 Z M175 489 L179 516 L410 516 L406 489 L175 489 Z " />
<glyph glyph-name="Uogonek" unicode="&#x172;" horiz-adv-x="681" d="M346 0 L320 0 L319 -6 Q318 -7 318 -8 L307 -8 Q256 -8 214 8 Q172 24 143.5 55 Q115 86 102.5 131.5 Q90 177 97 235 L155 707 L196 707 L139 238 Q133 190 143 151.5 Q153 113 176 86 Q199 59 234 45 Q269 31 312 31 Q354 31 392 45 Q430 59 460 86 Q490 113 509.5 151.5 Q529 190 535 238 L593 707 L634 707 L577 235 Q570 182 549.5 140 Q529 98 498.5 67.5 Q468 37 428.5 18.5 Q389 0 345 -5 L346 0 Z M318 -8 Q313 -34 298 -43.5 Q283 -53 270 -61 Q243 -79 231.5 -101.5 Q220 -124 220 -147 Q220 -189 242 -211 Q264 -233 299 -233 Q328 -233 355 -217 Q382 -201 397 -169 Q383 -164 373 -158 Q365 -178 347 -190.5 Q329 -203 306 -203 Q280 -203 264.5 -186.5 Q249 -170 249 -144 Q249 -115 262.5 -100 Q276 -85 293 -74 Q310 -63 325 -52.5 Q340 -42 343 -22 L345 -5 L318 -8 Z " />
<glyph glyph-name="imacron" unicode="&#x12b;" horiz-adv-x="173" d="M70 0 L36 0 L84 387 L118 387 L70 0 Z M-3 489 L1 516 L232 516 L228 489 L-3 489 Z " />
<glyph glyph-name="uogonek" unicode="&#x173;" horiz-adv-x="454" d="M348 0 L325 0 L334 101 Q308 52 260 22 Q212 -8 154 -8 Q98 -8 69 24.5 Q40 57 45 108 L79 387 L114 387 L80 114 Q78 79 98 54 Q118 29 162 26 Q195 26 225 37 Q255 48 279 67 Q303 86 319 112.5 Q335 139 339 171 L366 387 L400 387 L352 -3 L347 -3 L348 0 Z M321 -6 Q316 -33 301 -43 Q286 -53 272 -61 Q245 -79 233.5 -101.5 Q222 -124 222 -147 Q222 -189 244 -211 Q266 -233 301 -233 Q330 -233 357 -217 Q384 -201 399 -169 Q385 -164 375 -158 Q367 -178 349 -190.5 Q331 -203 308 -203 Q282 -203 266.5 -186.5 Q251 -170 251 -144 Q251 -115 264.5 -100 Q278 -85 295 -74 Q312 -63 327 -52.5 Q342 -42 345 -22 L347 -3 L325 -3 L325 0 L322 0 L321 -6 Z " />
<glyph glyph-name="Utilde" unicode="&#x168;" horiz-adv-x="681" d="M307 -8 Q256 -8 214 8 Q172 24 143.5 55 Q115 86 102.5 131.5 Q90 177 97 235 L155 707 L196 707 L139 238 Q133 190 143 151.5 Q153 113 176 86 Q199 59 234 45 Q269 31 312 31 Q354 31 392 45 Q430 59 460 86 Q490 113 509.5 151.5 Q529 190 535 238 L593 707 L634 707 L577 235 Q569 177 545 131.5 Q521 86 485 55 Q449 24 403.5 8 Q358 -8 307 -8 Z M409 789 Q395 806 384 812 Q373 818 359 818 Q351 818 341 816 Q331 814 321 808 Q311 802 302.5 791.5 Q294 781 290 765 L267 768 Q270 787 280 801 Q290 815 303 824 Q316 833 331.5 837.5 Q347 842 361 842 Q382 842 398 832 Q414 822 428 805 Q442 788 453.5 782 Q465 776 479 776 Q486 776 496.5 778 Q507 780 517 786 Q527 792 535 802.5 Q543 813 547 829 L570 826 Q562 788 533.5 770.5 Q505 753 476 753 Q455 753 439 762.5 Q423 772 409 789 Z " />
<glyph glyph-name="utilde" unicode="&#x169;" horiz-adv-x="454" d="M352 -3 L325 -3 L334 101 Q308 52 260 22 Q212 -8 154 -8 Q98 -8 69 24.5 Q40 57 45 108 L79 387 L114 387 L80 114 Q78 79 98 54 Q118 29 162 26 Q195 26 225 37 Q255 48 279 67 Q303 86 319 112.5 Q335 139 339 171 L366 387 L400 387 L352 -3 Z M252 492 Q238 509 227 515 Q216 521 202 521 Q194 521 184 519 Q174 517 164 511 Q154 505 145.5 494.5 Q137 484 133 468 L110 471 Q113 490 123 504 Q133 518 146 527 Q159 536 174.5 540.5 Q190 545 204 545 Q225 545 241 535 Q257 525 271 508 Q285 491 296.5 485 Q308 479 322 479 Q329 479 339.5 481 Q350 483 360 489 Q370 495 378 505.5 Q386 516 390 532 L413 529 Q405 491 376.5 473.5 Q348 456 319 456 Q298 456 282 465.5 Q266 475 252 492 Z " />
<glyph glyph-name="edotaccent" unicode="&#x117;" horiz-adv-x="438" d="M355 47 Q325 22 287 7.5 Q249 -7 207 -7 Q168 -7 135 7 Q102 21 78.5 45.5 Q55 70 41.5 103 Q28 136 28 174 Q28 219 47 259.5 Q66 300 97.5 330.5 Q129 361 170 379 Q211 397 256 397 Q321 397 361.5 359.5 Q402 322 417 264 Q379 250 335 233 Q291 216 245 198 Q199 180 153.5 162.5 Q108 145 68 130 Q82 84 119.5 55.5 Q157 27 210 27 Q244 27 276 39 Q308 51 332 72 L355 47 Z M374 274 Q360 314 329 338 Q298 362 252 362 Q215 362 181 347.5 Q147 333 121 307.5 Q95 282 79 248.5 Q63 215 63 178 Q63 172 63 165.5 Q63 159 64 154 Q100 168 140 183.5 Q180 199 220.5 214.5 Q261 230 300 245 Q339 260 374 274 Z M236 519 Q236 533 247 543 Q258 553 271 553 Q282 553 289.5 545 Q297 537 297 525 Q297 511 286.5 501.5 Q276 492 263 492 Q252 492 244 500 Q236 508 236 519 Z " />
<glyph glyph-name="iogonek" unicode="&#x12f;" horiz-adv-x="172" d="M87 519 Q87 533 98 543 Q109 553 122 553 Q133 553 140.5 545 Q148 537 148 525 Q148 511 137.5 501.5 Q127 492 114 492 Q103 492 95 500 Q87 508 87 519 Z M70 0 L36 0 L84 387 L118 387 L70 0 Z M62 0 L36 0 L35 -6 Q30 -33 15 -43 Q0 -53 -14 -61 Q-41 -79 -52.5 -101.5 Q-64 -124 -64 -147 Q-64 -189 -42 -211 Q-20 -233 15 -233 Q44 -233 71 -217 Q98 -201 113 -169 Q99 -164 89 -158 Q81 -178 63 -190.5 Q45 -203 22 -203 Q-4 -203 -19.5 -186.5 Q-35 -170 -35 -144 Q-35 -115 -21.5 -100 Q-8 -85 9 -74 Q26 -63 41 -52.5 Q56 -42 59 -22 L62 0 Z " />
<glyph glyph-name="ellipsis" unicode="&#x2026;" horiz-adv-x="523" d="M39 27 Q39 41 49.5 51 Q60 61 74 61 Q85 61 92.5 53 Q100 45 100 33 Q100 19 89.5 9.5 Q79 0 66 0 Q55 0 47 7.5 Q39 15 39 27 Z M203 27 Q203 41 213.5 51 Q224 61 238 61 Q249 61 256.5 53 Q264 45 264 33 Q264 19 253.5 9.5 Q243 0 230 0 Q219 0 211 7.5 Q203 15 203 27 Z M367 27 Q367 41 377.5 51 Q388 61 401 61 Q412 61 420 53 Q428 45 428 33 Q428 19 417 9.5 Q406 0 394 0 Q383 0 375 7.5 Q367 15 367 27 Z " />
<glyph glyph-name="perthousand" unicode="&#x2030;" horiz-adv-x="944" d="M388 104 Q388 74 408 53.5 Q428 33 459 33 Q477 33 493.5 40 Q510 47 522 58.5 Q534 70 541.5 86 Q549 102 549 120 Q549 150 529.5 171 Q510 192 478 192 Q460 192 444 185 Q428 178 415.5 166 Q403 154 395.5 138 Q388 122 388 104 Z M454 -2 Q410 -2 381 27.5 Q352 57 352 101 Q352 127 363 150 Q374 173 392 190 Q410 207 433.5 217 Q457 227 483 227 Q527 227 556.5 197.5 Q586 168 586 124 Q586 98 575 75 Q564 52 545.5 35 Q527 18 503 8 Q479 -2 454 -2 Z M97 382 Q97 352 117 331.5 Q137 311 168 311 Q186 311 202.5 318 Q219 325 231 336.5 Q243 348 250.5 364 Q258 380 258 398 Q258 428 238 448.5 Q218 469 187 469 Q169 469 152.5 462 Q136 455 124 443.5 Q112 432 104.5 416 Q97 400 97 382 Z M163 275 Q119 275 90 305 Q61 335 61 379 Q61 405 72 428 Q83 451 101 468 Q119 485 142.5 495 Q166 505 192 505 Q236 505 265.5 475 Q295 445 295 401 Q295 375 284 352 Q273 329 254.5 312 Q236 295 212 285 Q188 275 163 275 Z M119 0 Q210 127 299.5 251 Q389 375 479 502 L520 502 Q429 375 339.5 251 Q250 127 159 0 L119 0 Z M688 104 Q688 74 708 53.5 Q728 33 759 33 Q777 33 793.5 40 Q810 47 822 58.5 Q834 70 841.5 86 Q849 102 849 120 Q849 150 829.5 171 Q810 192 778 192 Q760 192 743.5 185 Q727 178 715 166 Q703 154 695.5 138 Q688 122 688 104 Z M754 -2 Q710 -2 681 27.5 Q652 57 652 101 Q652 127 663 150 Q674 173 692 190 Q710 207 733.5 217 Q757 227 783 227 Q827 227 856.5 197.5 Q886 168 886 124 Q886 98 875 75 Q864 52 845.5 35 Q827 18 803 8 Q779 -2 754 -2 Z " />
<glyph glyph-name="circumflex" unicode="&#x2c6;" horiz-adv-x="450" d="M314 663 Q339 617 363 571.5 Q387 526 413 481 L383 481 Q366 512 346 547 Q326 582 308 613 Q284 582 255 547 Q226 512 201 481 L172 481 L314 663 Z " />
<glyph glyph-name="tilde" unicode="&#x2dc;" horiz-adv-x="594" d="M368 492 Q354 509 343 515 Q332 521 318 521 Q310 521 300 519 Q290 517 280 511 Q270 505 261.5 494.5 Q253 484 249 468 L226 471 Q229 490 239 504 Q249 518 262 527 Q275 536 290.5 540.5 Q306 545 320 545 Q341 545 357 535 Q373 525 387 508 Q401 491 412.5 485 Q424 479 438 479 Q445 479 455.5 481 Q466 483 476 489 Q486 495 494 505.5 Q502 516 506 532 L529 529 Q521 491 492.5 473.5 Q464 456 435 456 Q414 456 398 465.5 Q382 475 368 492 Z " />
<glyph glyph-name="fi" unicode="&#xfb01;" horiz-adv-x="477" d="M35 353 L39 387 L105 387 L122 517 Q129 575 149.5 619.5 Q170 664 200 694.5 Q230 725 268.5 740.5 Q307 756 351 758 L347 724 Q311 724 279 709.5 Q247 695 222 668.5 Q197 642 180 604.5 Q163 567 157 520 L141 387 L422 387 L375 0 L340 0 L384 353 L136 353 L93 0 L58 0 L102 353 L35 353 Z " />
<glyph glyph-name="fl" unicode="&#xfb02;" horiz-adv-x="476" d="M35 351 L39 385 L106 385 L122 517 Q129 575 149.5 619.5 Q170 664 200.5 694.5 Q231 725 269.5 740.5 Q308 756 351 758 L464 758 L371 0 L336 0 L425 724 L346 724 Q311 724 279 709.5 Q247 695 222 668.5 Q197 642 180 604.5 Q163 567 157 520 L141 385 L271 385 L267 351 L136 351 L93 0 L58 0 L102 351 L35 351 Z " />
<glyph glyph-name="ring" unicode="&#x2da;" horiz-adv-x="451" d="M259 486 Q259 469 271 457 Q283 445 300 445 Q320 445 335 459.5 Q350 474 350 494 Q350 511 339 523 Q328 535 311 535 Q291 535 275 520.5 Q259 506 259 486 Z M235 483 Q235 515 258 537.5 Q281 560 313 560 Q340 560 357 542 Q374 524 374 498 Q374 466 351 443.5 Q328 421 296 421 Q270 421 252.5 439 Q235 457 235 483 Z " />
<glyph glyph-name="fraction" unicode="&#x2044;" horiz-adv-x="327" d="M-28 0 L345 758 L381 758 L9 0 L-28 0 Z " />
<glyph glyph-name="florin" unicode="&#x192;" horiz-adv-x="318" d="M154 351 L119 69 Q112 11 91.5 -33.5 Q71 -78 41 -108 Q11 -138 -27.5 -154 Q-66 -170 -109 -171 L-105 -138 Q-69 -137 -37.5 -122.5 Q-6 -108 19.5 -82 Q45 -56 62 -18 Q79 20 85 67 L120 351 L53 351 L57 385 L124 385 L140 517 Q147 575 167.5 619.5 Q188 664 218.5 694.5 Q249 725 287.5 740.5 Q326 756 369 758 L365 724 Q330 724 298 709.5 Q266 695 240.5 668.5 Q215 642 198 604.5 Q181 567 175 520 L159 385 L289 385 L285 351 L154 351 Z " />
<glyph glyph-name="dagger" unicode="&#x2020;" horiz-adv-x="336" d="M123 53 L167 411 L85 411 L90 447 L171 447 L188 584 L225 584 L208 447 L290 447 L285 411 L203 411 L160 53 L123 53 Z " />
<glyph glyph-name="daggerdbl" unicode="&#x2021;" horiz-adv-x="407" d="M158 53 L183 260 L52 260 L56 296 L188 296 L202 411 L120 411 L124 447 L206 447 L223 584 L260 584 L243 447 L324 447 L320 411 L239 411 L225 296 L357 296 L353 260 L220 260 L195 53 L158 53 Z " />
<glyph glyph-name="trademark" unicode="&#x2122;" horiz-adv-x="580" d="M258 757 L256 742 L184 742 L154 498 L140 498 L170 742 L99 742 L101 757 L258 757 Z M308 768 Q319 747 332.5 723.5 Q346 700 359.5 677 Q373 654 385.5 632 Q398 610 409 592 Q417 601 434 622.5 Q451 644 471.5 669.5 Q492 695 514 721.5 Q536 748 553 768 L520 498 L505 498 L530 710 Q531 714 532 717.5 Q533 721 533 724 Q518 706 501.5 685 Q485 664 467.5 642.5 Q450 621 434 601 Q418 581 405 566 Q397 579 384 602.5 Q371 626 357.5 650 Q344 674 332.5 695 Q321 716 317 724 Q317 721 317 717.5 Q317 714 316 710 L290 498 L275 498 L308 768 Z " />
<glyph glyph-name="minus" unicode="&#x2212;" horiz-adv-x="511" d="M425 179 L63 179 L68 215 L429 215 L425 179 Z " />
<glyph glyph-name="integral" unicode="&#x222b;" horiz-adv-x="301" d="M176 631 Q182 677 193 701 Q204 725 218.5 735.5 Q233 746 250.5 747.5 Q268 749 287 749 L333 749 L328 713 L275 713 Q244 713 230 689 Q216 665 209 604 L135 -6 Q128 -62 117.5 -91 Q107 -120 92.5 -133 Q78 -146 59.5 -147.5 Q41 -149 20 -149 L-25 -149 L-20 -113 L33 -113 Q48 -113 59 -107.5 Q70 -102 77.5 -89.5 Q85 -77 89.5 -56 Q94 -35 98 -4 L176 631 Z " />
<glyph glyph-name="product" unicode="&#x220f;" horiz-adv-x="438" d="M109 -58 L73 -58 L172 753 L384 753 L285 -58 L249 -58 L344 718 L205 718 L109 -58 Z " />
<glyph glyph-name="pi" unicode="&#x3c0;" horiz-adv-x="366" d="M124 294 L87 0 L51 0 L88 294 L35 294 L40 330 L337 330 L332 294 L289 294 L253 0 L217 0 L253 294 L124 294 Z " />
<glyph glyph-name="Euro" unicode="&#x20ac;" horiz-adv-x="544" d="M59 397 L126 397 Q140 448 166 495.5 Q192 543 230 579.5 Q268 616 317 638.5 Q366 661 426 661 Q465 661 492 651 Q519 641 528 635 L508 605 Q470 625 421 625 Q376 625 335.5 609.5 Q295 594 261.5 564.5 Q228 535 202.5 492.5 Q177 450 163 397 L398 397 L395 373 L157 373 Q155 361 153.5 349 Q152 337 150 324 Q148 315 148 306.5 Q148 298 147 290 L385 290 L382 266 L147 266 Q149 209 165.5 165 Q182 121 209 90.5 Q236 60 271 44 Q306 28 344 28 Q369 28 395 35 Q421 42 446 55 L463 26 Q404 -7 339 -7 Q290 -7 248.5 13.5 Q207 34 176.5 70 Q146 106 128.5 156 Q111 206 110 266 L44 266 L47 290 L110 290 Q110 297 110.5 303.5 Q111 310 112 317 Q113 331 115 345 Q117 359 120 373 L56 373 L59 397 Z " />
<glyph glyph-name="lessequal" unicode="&#x2264;" horiz-adv-x="569" d="M495 266 L489 219 Q386 283 284.5 346.5 Q183 410 80 473 Q199 536 316 599.5 Q433 663 551 727 L545 680 L161 473 L495 266 Z M433 85 L72 85 L77 121 L438 121 L433 85 Z " />
<glyph glyph-name="greaterequal" unicode="&#x2265;" horiz-adv-x="564" d="M84 266 L468 473 Q385 525 302 576.5 Q219 628 135 680 L140 727 L549 473 Q431 410 314 346.5 Q197 283 78 219 L84 266 Z M66 121 L427 121 L422 85 L61 85 L66 121 Z " />
<glyph glyph-name="notequal" unicode="&#x2260;" horiz-adv-x="663" d="M595 369 L590 333 L394 333 Q356 293 318 253 Q280 213 242 174 L571 174 L566 138 L208 138 L70 -5 L52 14 L170 138 L58 138 L63 174 L205 174 L358 333 L82 333 L87 369 L393 369 Q473 451 545 527 L563 508 L429 369 L595 369 Z " />
<glyph glyph-name="approxequal" unicode="&#x2248;" horiz-adv-x="446" d="M206 203 Q192 220 181 226 Q170 232 156 232 Q148 232 138 230 Q128 228 118 222 Q108 216 99.5 205.5 Q91 195 87 179 L64 182 Q67 201 77 215 Q87 229 100 238 Q113 247 128.5 251.5 Q144 256 158 256 Q179 256 195 246 Q211 236 225 219 Q239 202 250.5 196 Q262 190 276 190 Q283 190 293.5 192 Q304 194 314 200 Q324 206 332 216.5 Q340 227 344 243 L367 240 Q359 202 330.5 184.5 Q302 167 273 167 Q252 167 236 176.5 Q220 186 206 203 Z M226 353 Q212 370 201 376 Q190 382 176 382 Q168 382 158 380 Q148 378 138 372 Q128 366 119.5 355.5 Q111 345 107 329 L84 332 Q87 351 97 365 Q107 379 120 388 Q133 397 148.5 401.5 Q164 406 178 406 Q199 406 215 396 Q231 386 245 369 Q259 352 270.5 346 Q282 340 296 340 Q303 340 313.5 342 Q324 344 334 350 Q344 356 352 366.5 Q360 377 364 393 L387 390 Q379 352 350.5 334.5 Q322 317 293 317 Q272 317 256 326.5 Q240 336 226 353 Z " />
<glyph glyph-name="summation" unicode="&#x2211;" horiz-adv-x="456" d="M80 -29 L363 -29 L377 -64 L27 -64 L191 344 L127 753 L477 753 L454 718 L171 718 L229 344 L80 -29 Z " />
<glyph glyph-name="Omega" unicode="&#x2126;" horiz-adv-x="680" d="M42 35 L209 35 Q180 50 155 70.5 Q130 91 111.5 118 Q93 145 82.5 180 Q72 215 72 260 Q72 319 91.5 379 Q111 439 150 487 Q189 535 247 564.5 Q305 594 383 594 Q449 594 494.5 570 Q540 546 568 507.5 Q596 469 607 420 Q618 371 615 321 Q612 262 596.5 216.5 Q581 171 556 136.5 Q531 102 497.5 77.5 Q464 53 425 35 L579 35 L574 0 L366 0 L368 12 L367 12 L371 35 Q408 49 442.5 71.5 Q477 94 505 126.5 Q533 159 552 201 Q571 243 577 296 Q584 359 573 408 Q562 457 536 490.5 Q510 524 469.5 541.5 Q429 559 378 559 Q325 559 280 541 Q235 523 200 489 Q165 455 142 405.5 Q119 356 111 295 Q104 241 114.5 199 Q125 157 147 125.5 Q169 94 199 71.5 Q229 49 261 35 L258 13 L256 0 L37 0 L42 35 Z " />
<glyph glyph-name="radical" unicode="&#x221a;" horiz-adv-x="542" d="M46 368 L151 368 L238 116 L524 604 L554 604 L229 43 L129 343 L43 343 L46 368 Z " />
<glyph glyph-name="Delta" unicode="&#x2206;" horiz-adv-x="417" d="M268 733 L369 278 L55 278 L268 733 Z M96 303 L333 303 L258 651 L96 303 Z " />
<glyph glyph-name="lozenge" unicode="&#x25ca;" horiz-adv-x="416" d="M66 388 L265 733 L380 388 L181 43 L66 388 Z M96 388 L190 116 L350 388 L256 659 L96 388 Z " />
<glyph glyph-name="infinity" unicode="&#x221e;" horiz-adv-x="487" d="M325 231 Q299 231 277 240.5 Q255 250 244 267 Q229 250 205 240.5 Q181 231 155 231 Q116 231 97 252 Q78 273 78 296 Q78 309 84 323 Q90 337 102 348 Q114 359 131.5 366 Q149 373 172 373 Q197 373 219 364 Q241 355 252 338 Q268 355 292.5 364 Q317 373 343 373 Q381 373 398.5 352.5 Q416 332 416 309 Q416 296 410.5 282 Q405 268 393.5 257 Q382 246 365 238.5 Q348 231 325 231 Z M261 302 Q259 282 280.5 269 Q302 256 328 256 Q344 256 356 261 Q368 266 375.5 273.5 Q383 281 387 289.5 Q391 298 391 305 Q391 320 378.5 334 Q366 348 339 348 Q326 348 312.5 344.5 Q299 341 288 335 Q277 329 269.5 320.5 Q262 312 261 302 Z M235 302 Q236 312 231 320.5 Q226 329 216.5 335 Q207 341 194.5 344.5 Q182 348 169 348 Q138 348 122.5 331.5 Q107 315 107 299 Q107 284 118.5 270 Q130 256 158 256 Q184 256 208.5 269 Q233 282 235 302 Z " />
</font>
</svg>
