<svg xmlns="http://www.w3.org/2000/svg" viewBox="-7850.317 1033.647 20.835 21.005"><defs><style>.a,.b{fill:#fff;}.b{fill-rule:evenodd;}</style></defs><g transform="translate(-7955.817 1033.647)"><path class="a" d="M109.94,0h.171a.167.167,0,0,1,.171.171V4.953c0,.171,0,.171.171.171h.512c.171,0,.171,0,.171-.171V.171c0-.171,0-.171.171-.171h11.1a1.54,1.54,0,0,1,.854.171,4.4,4.4,0,0,1,2.22,1.366,2.742,2.742,0,0,1,.854,1.879V6.831c0,.171,0,.171-.171.171h-6.148c-.171,0-.171,0-.342-.171a3,3,0,0,0-.854-.683,5.746,5.746,0,0,0-3.757-.683,5.917,5.917,0,0,0-2.732,1.366h-6.66c-.171,0-.171,0-.171-.171v-2.9a4.019,4.019,0,0,1,.342-1.366A4.032,4.032,0,0,1,107.208.854h0V5.123c0,.171,0,.171.171.171h.512c.171,0,.171,0,.171-.171V.512c0-.171,0-.171.171-.171s.171-.171.342-.171.171,0,.171.171V5.123c0,.171,0,.171.171.171h.512c.171,0,.171,0,.171-.171V.512C109.769,0,109.769,0,109.94,0Zm11.1,3.586h0v1.2a.735.735,0,0,0,.683.683h2.22a.735.735,0,0,0,.683-.683V2.562a.735.735,0,0,0-.683-.683h-2.22a.626.626,0,0,0-.683.683Z"/><path class="b" d="M111.577,4.5a5.385,5.385,0,0,0,.854,7,5.181,5.181,0,0,0,6.66.342c3.074-2.391,1.879-5.977,1.2-7.173h5.806c.171,0,.171,0,.171.171v9.051a4.187,4.187,0,0,1-1.025,2.732,4.08,4.08,0,0,1-2.22,1.2H109.7a4.007,4.007,0,0,1-3.928-3.074,2.166,2.166,0,0,1-.171-1.025V4.671c0-.171,0-.171.171-.171h5.806Z" transform="translate(0.071 3.185)"/><path class="b" d="M113.186,4.1A3.586,3.586,0,1,1,109.6,7.686,3.607,3.607,0,0,1,113.186,4.1Zm2.562,3.586a2.515,2.515,0,0,0-2.562-2.562,2.626,2.626,0,0,0-2.562,2.562,2.665,2.665,0,0,0,2.732,2.562A2.6,2.6,0,0,0,115.748,7.686Z" transform="translate(2.902 2.902)"/></g></svg>