<svg xmlns="http://www.w3.org/2000/svg" viewBox="-7935 1033.647 36.3 21.135"><defs><style>.a{fill:#fff;}</style></defs><g transform="translate(-7935 1033.647)"><path class="a" d="M0,12.605V11.279a11.181,11.181,0,0,1,.379-1.9A8.217,8.217,0,0,1,1.706,6.824a.131.131,0,0,0,0-.19,6.434,6.434,0,0,0-.663-1.9A5.374,5.374,0,0,0,.284,3.507L.19,3.412H6.35a.093.093,0,0,0,.095-.095,4.379,4.379,0,0,1,.663-.663A10.148,10.148,0,0,1,9.1,1.422,11.288,11.288,0,0,1,12.132.474,22.348,22.348,0,0,1,14.785.095C15.544.095,16.207,0,16.87,0H20c.379,0,.758.095,1.232.095.569.095,1.232.095,1.8.19a17.748,17.748,0,0,1,3.033.758,9.225,9.225,0,0,1,2.18,1.043,4.639,4.639,0,0,1,1.232,1.137h.095c.095,0,.284.095.379.095h5.876v.095a5.257,5.257,0,0,0-.569.758,13.953,13.953,0,0,0-.948,2.085V6.35a9.288,9.288,0,0,1,1.232,2.085,9.422,9.422,0,0,1,.758,3.222v1.327a13.419,13.419,0,0,1-.379,1.9,8.24,8.24,0,0,1-2.559,3.886,7.951,7.951,0,0,1-2.654,1.706,10.2,10.2,0,0,1-2.938.663,8.672,8.672,0,0,1-1.611-.095A9.88,9.88,0,0,1,22.936,20a9.584,9.584,0,0,1-2.654-2.085c-.095-.095-.095-.095-.19,0-.569.948-1.137,1.9-1.611,2.749-.095.095-.095.095-.095,0-.663-.948-1.327-1.8-1.99-2.749-.095-.095-.095-.095-.095,0a2.214,2.214,0,0,1-.663.663A10.147,10.147,0,0,1,13.553,20a8.333,8.333,0,0,1-3.412.948H8.435a7.6,7.6,0,0,1-1.99-.474A9.352,9.352,0,0,1,.663,14.406C.19,14.217.095,13.648,0,12.985ZM26.917,4.834a7.3,7.3,0,1,0,7.3,7.3A7.3,7.3,0,0,0,26.917,4.834ZM1.8,12.132a7.3,7.3,0,1,0,7.3-7.3A7.3,7.3,0,0,0,1.8,12.132ZM9.288,3.6h.569a7.173,7.173,0,0,1,1.422.095,13.517,13.517,0,0,1,2.559.853,6.853,6.853,0,0,1,2.843,2.843,19.13,19.13,0,0,1,1.327,2.843c0,.19.095.284.095.474v-.095a12.877,12.877,0,0,1,1.043-2.654A10.741,10.741,0,0,1,21.23,5.4a7.368,7.368,0,0,1,5.5-1.706h.19l-.19-.19a6.349,6.349,0,0,0-1.706-1.043,14.068,14.068,0,0,0-3.886-1.137,18.4,18.4,0,0,0-2.275-.19,23.1,23.1,0,0,0-2.559.095,8.3,8.3,0,0,0-1.516.19,12.612,12.612,0,0,0-3.222.948A4.817,4.817,0,0,0,9.478,3.412.2.2,0,0,0,9.288,3.6Z"/><path class="a" d="M28.16,16.92a4.41,4.41,0,0,1-4.36-4.36,4.36,4.36,0,1,1,4.36,4.36Zm0-7.393a3.033,3.033,0,1,0,0,6.066,2.994,2.994,0,0,0,3.033-3.033A3.054,3.054,0,0,0,28.16,9.527Z" transform="translate(-1.243 -0.428)"/><path class="a" d="M9.36,16.92A4.348,4.348,0,0,1,5,12.56,4.41,4.41,0,0,1,9.36,8.2a4.36,4.36,0,0,1,0,8.72Zm0-7.393A3.054,3.054,0,0,0,6.327,12.56a3.033,3.033,0,1,0,6.066,0A3.054,3.054,0,0,0,9.36,9.527Z" transform="translate(-0.261 -0.428)"/><path class="a" d="M28.316,14.233a1.516,1.516,0,1,1,1.516-1.516A1.5,1.5,0,0,1,28.316,14.233Z" transform="translate(-1.399 -0.585)"/><path class="a" d="M9.516,14.233a1.516,1.516,0,1,1,1.516-1.516A1.5,1.5,0,0,1,9.516,14.233Z" transform="translate(-0.418 -0.585)"/></g></svg>