<?xml version="1.0" encoding="UTF-8"?>
<svg xmlns="http://www.w3.org/2000/svg" xmlns:xlink="http://www.w3.org/1999/xlink" version="1.2" >
<font id="Josefin Sans Bold">
<font-face  font-family="Josefin Sans" units-per-em="1000" ascent="750" descent="-250" font-style="normal" font-weight="700" font-stretch="normal" cap-height="700" x-height="475" underline-position="-75" underline-thickness="50" />
<missing-glyph  horiz-adv-x="300" d="" />
<glyph glyph-name=".null" d="" />
<glyph glyph-name="nonmarkingreturn" unicode="&#xd;" horiz-adv-x="300" d="" />
<glyph glyph-name="space" unicode="&#x20;" horiz-adv-x="228" d="" />
<glyph glyph-name="t" unicode="t" horiz-adv-x="316" d="M98 611 L193 611 L193 425 L304 425 L304 339 L193 339 L193 0 L98 0 L98 339 L26 339 L26 425 L98 425 L98 611 Z " />
<glyph glyph-name="b" unicode="b" horiz-adv-x="548" d="M514 211 Q514 163 498 122.5 Q482 82 452.5 52 Q423 22 382 5.5 Q341 -11 292 -11 Q243 -11 205.5 7.5 Q168 26 154 47 Q154 43 154.5 39.5 Q155 36 155 31 L155 0 L59 0 L59 781 L155 781 L155 371 Q163 381 175.5 392.5 Q188 404 206 413.5 Q224 423 246.5 429.5 Q269 436 296 436 Q345 436 385 420.5 Q425 405 453.5 375.5 Q482 346 498 304.5 Q514 263 514 211 Z M410 213 Q410 269 377.5 305.5 Q345 342 287 342 Q258 342 234 332.5 Q210 323 192.5 305.5 Q175 288 165 264.5 Q155 241 155 214 Q155 186 165 162 Q175 138 192.5 120.5 Q210 103 234 93 Q258 83 287 83 Q316 83 339 93 Q362 103 377.5 121 Q393 139 401.5 162.5 Q410 186 410 213 Z " />
<glyph glyph-name="l" unicode="l" horiz-adv-x="213" d="M154 0 L59 0 L59 781 L154 781 L154 0 Z " />
<glyph glyph-name="m" unicode="m" horiz-adv-x="819" d="M59 425 L144 425 Q145 407 146 393 Q147 379 148 366.5 Q149 354 150 342 Q151 330 152 316 Q176 370 212.5 402.5 Q249 435 313 436 Q376 436 413.5 404.5 Q451 373 458 322 Q470 347 485 368 Q500 389 518.5 404 Q537 419 561 427.5 Q585 436 617 436 Q683 436 722 400.5 Q761 365 763 308 L763 0 L667 0 L667 263 Q665 294 646 316.5 Q627 339 583 341 Q524 341 491.5 302.5 Q459 264 459 204 L459 0 L363 0 L363 263 Q361 294 341.5 316.5 Q322 339 279 341 Q220 341 187.5 302.5 Q155 264 155 205 L155 0 L59 0 L59 425 Z " />
<glyph glyph-name="i" unicode="i" horiz-adv-x="214" d="M48 590 Q48 616 67 633 Q86 650 108 650 Q130 650 148.5 633 Q167 616 167 590 Q167 563 148.5 546.5 Q130 530 108 530 Q86 530 67 546.5 Q48 563 48 590 Z M155 0 L59 0 L59 425 L155 425 L155 0 Z " />
<glyph glyph-name="h" unicode="h" horiz-adv-x="522" d="M59 781 L155 781 L155 322 Q177 373 217 404 Q257 435 320 436 Q386 436 425 401 Q464 366 466 308 L466 0 L371 0 L371 263 Q369 294 349 316.5 Q329 339 287 341 Q258 341 233.5 330.5 Q209 320 191.5 302 Q174 284 164.5 259 Q155 234 155 205 L155 0 L59 0 L59 781 Z " />
<glyph glyph-name="c" unicode="c" horiz-adv-x="425" d="M343 111 Q358 92 372 74.5 Q386 57 401 39 Q372 16 336 2.5 Q300 -11 259 -11 Q212 -11 170.5 6.5 Q129 24 98.5 54.5 Q68 85 50 126 Q32 167 32 213 Q32 259 50 299.5 Q68 340 98.5 370.5 Q129 401 170.5 418.5 Q212 436 259 436 Q301 436 337.5 422.5 Q374 409 404 386 L343 315 Q308 342 259 342 Q230 342 206 332 Q182 322 164.5 305 Q147 288 137.5 264.5 Q128 241 128 213 Q128 186 137.5 162.5 Q147 139 164.5 121 Q182 103 206 93 Q230 83 259 83 Q309 83 343 111 Z " />
<glyph glyph-name="q" unicode="q" horiz-adv-x="547" d="M129 214 Q129 186 138.5 162 Q148 138 165.5 120.5 Q183 103 207 93 Q231 83 260 83 Q289 83 313.5 93 Q338 103 355.5 121 Q373 139 382.5 163 Q392 187 392 214 Q392 241 382.5 264.5 Q373 288 355.5 305 Q338 322 313.5 332 Q289 342 260 342 Q231 342 207 332.5 Q183 323 165.5 305.5 Q148 288 138.5 264.5 Q129 241 129 214 Z M33 212 Q33 262 49.5 303 Q66 344 95.5 373.5 Q125 403 164.5 419.5 Q204 436 251 436 Q283 436 307 429 Q331 422 348 412 Q365 402 375.5 390.5 Q386 379 392 371 Q392 383 394 397 Q396 411 396 425 L488 425 L488 -204 L392 -204 L392 28 Q392 33 393 39 Q394 45 394 48 Q385 39 372 28.5 Q359 18 341 9 Q323 0 300.5 -5.5 Q278 -11 249 -11 Q198 -11 157.5 6.5 Q117 24 89.5 54.5 Q62 85 47.5 125.5 Q33 166 33 212 Z " />
<glyph glyph-name="u" unicode="u" horiz-adv-x="522" d="M463 -10 L383 -10 L371 108 Q348 57 307.5 23.5 Q267 -10 201 -10 Q135 -10 96.5 24.5 Q58 59 56 116 L56 425 L152 425 L152 161 Q154 130 173.5 108.5 Q193 87 236 85 Q265 85 289 95 Q313 105 330.5 123 Q348 141 358 166 Q368 191 368 220 L368 425 L463 425 L463 -10 Z " />
<glyph glyph-name="r" unicode="r" horiz-adv-x="324" d="M297 312 Q269 312 243.5 305 Q218 298 198.5 283.5 Q179 269 167 247.5 Q155 226 155 197 L155 0 L59 0 L59 425 L143 425 Q145 389 147.5 366.5 Q150 344 152 316 Q165 344 187 366 Q209 388 232.5 403.5 Q256 419 279 427.5 Q302 436 318 436 L297 312 Z " />
<glyph glyph-name="e" unicode="e" horiz-adv-x="474" d="M424 49 Q393 21 349 5 Q305 -11 259 -11 Q212 -11 170.5 6.5 Q129 24 98.5 54.5 Q68 85 50 125.5 Q32 166 32 212 Q32 258 50 298.5 Q68 339 98.5 369.5 Q129 400 169.5 417.5 Q210 435 255 435 Q327 435 381.5 391.5 Q436 348 459 277 Q429 266 389.5 250.5 Q350 235 307 218 Q264 201 221 183.5 Q178 166 142 152 Q159 121 189 102 Q219 83 257 83 Q283 83 309.5 92.5 Q336 102 353 118 L424 49 Z M340 299 Q328 321 304 331.5 Q280 342 257 342 Q230 342 206 331.5 Q182 321 165 303.5 Q148 286 138 263.5 Q128 241 128 217 L128 213 Q153 223 181.5 234.5 Q210 246 238.5 258 Q267 270 293 280.5 Q319 291 340 299 Z " />
<glyph glyph-name="p" unicode="p" horiz-adv-x="547" d="M410 213 Q410 269 377.5 305.5 Q345 342 287 342 Q258 342 234 332.5 Q210 323 192.5 305.5 Q175 288 165 264.5 Q155 241 155 214 Q155 186 165 162 Q175 138 192.5 120.5 Q210 103 234 93 Q258 83 287 83 Q316 83 339 93 Q362 103 377.5 121 Q393 139 401.5 162.5 Q410 186 410 213 Z M514 211 Q514 163 498 122.5 Q482 82 452.5 52 Q423 22 382 5.5 Q341 -11 292 -11 Q243 -11 205.5 7.5 Q168 26 154 47 Q154 43 154.5 39.5 Q155 36 155 31 L155 -204 L59 -204 L59 425 L151 425 Q151 411 153 397 Q155 383 155 371 Q163 381 175.5 392.5 Q188 404 206 413.5 Q224 423 246.5 429.5 Q269 436 296 436 Q345 436 385 420.5 Q425 405 453.5 375.5 Q482 346 498 304.5 Q514 263 514 211 Z " />
<glyph glyph-name="aacute" unicode="&#xe1;" horiz-adv-x="546" d="M31 208 Q31 254 49 295.5 Q67 337 97.5 368 Q128 399 168.5 417.5 Q209 436 254 436 Q284 436 308 428.5 Q332 421 349.5 411 Q367 401 377 390.5 Q387 380 390 374 L394 425 L487 425 L487 0 L390 0 L390 28 Q390 33 390.5 37.5 Q391 42 391 44 Q387 39 377 29.5 Q367 20 350 11 Q333 2 309.5 -4.5 Q286 -11 255 -11 Q206 -11 165 7 Q124 25 94 55 Q64 85 47.5 124.5 Q31 164 31 208 Z M128 214 Q128 186 137.5 162 Q147 138 164.5 120.5 Q182 103 206 93 Q230 83 259 83 Q288 83 312 93 Q336 103 353.5 121 Q371 139 380.5 163 Q390 187 390 214 Q390 241 380.5 264.5 Q371 288 353.5 305 Q336 322 312 332 Q288 342 259 342 Q230 342 206 332.5 Q182 323 164.5 305.5 Q147 288 137.5 264.5 Q128 241 128 214 Z M211 487 Q234 520 256.5 554 Q279 588 302 622 L405 622 Q375 588 344 554 Q313 520 282 487 L211 487 Z " />
<glyph glyph-name="eacute" unicode="&#xe9;" horiz-adv-x="473" d="M424 49 Q393 21 349 5 Q305 -11 259 -11 Q212 -11 170.5 6.5 Q129 24 98.5 54.5 Q68 85 50 125.5 Q32 166 32 212 Q32 258 50 298.5 Q68 339 98.5 369.5 Q129 400 169.5 417.5 Q210 435 255 435 Q327 435 381.5 391.5 Q436 348 459 277 Q429 266 389.5 250.5 Q350 235 307 218 Q264 201 221 183.5 Q178 166 142 152 Q159 121 189 102 Q219 83 257 83 Q283 83 309.5 92.5 Q336 102 353 118 L424 49 Z M340 299 Q328 321 304 331.5 Q280 342 257 342 Q230 342 206 331.5 Q182 321 165 303.5 Q148 286 138 263.5 Q128 241 128 217 L128 213 Q153 223 181.5 234.5 Q210 246 238.5 258 Q267 270 293 280.5 Q319 291 340 299 Z M187 487 Q210 520 232.5 554 Q255 588 278 622 L381 622 Q351 588 320 554 Q289 520 258 487 L187 487 Z " />
<glyph glyph-name="iacute" unicode="&#xed;" horiz-adv-x="214" d="M155 0 L59 0 L59 425 L155 425 L155 0 Z M61 487 Q84 520 106.5 554 Q129 588 152 622 L255 622 Q225 588 194 554 Q163 520 132 487 L61 487 Z " />
<glyph glyph-name="oacute" unicode="&#xf3;" horiz-adv-x="514" d="M32 213 Q32 259 49.5 299.5 Q67 340 98 370 Q129 400 170.5 417.5 Q212 435 259 435 Q307 435 348 417.5 Q389 400 418.5 370 Q448 340 465 299.5 Q482 259 482 213 Q482 167 465.5 126 Q449 85 419 54.5 Q389 24 348 6.5 Q307 -11 258 -11 Q211 -11 170 5 Q129 21 98.5 50.5 Q68 80 50 121.5 Q32 163 32 213 Z M127 212 Q127 185 137 161.5 Q147 138 164.5 120.5 Q182 103 205.5 93 Q229 83 256 83 Q283 83 306.5 93 Q330 103 347.5 120.5 Q365 138 375.5 161.5 Q386 185 386 212 Q386 239 375.5 262.5 Q365 286 347.5 303.5 Q330 321 306.5 331.5 Q283 342 256 342 Q229 342 205.5 331.5 Q182 321 164.5 303.5 Q147 286 137 262.5 Q127 239 127 212 Z M256 487 Q279 520 301.5 554 Q324 588 347 622 L450 622 Q420 588 389 554 Q358 520 327 487 L256 487 Z " />
<glyph glyph-name="uacute" unicode="&#xfa;" horiz-adv-x="523" d="M463 -10 L383 -10 L371 108 Q348 57 307.5 23.5 Q267 -10 201 -10 Q135 -10 96.5 24.5 Q58 59 56 116 L56 425 L152 425 L152 161 Q154 130 173.5 108.5 Q193 87 236 85 Q265 85 289 95 Q313 105 330.5 123 Q348 141 358 166 Q368 191 368 220 L368 425 L463 425 L463 -10 Z M199 487 Q222 520 244.5 554 Q267 588 290 622 L393 622 Q363 588 332 554 Q301 520 270 487 L199 487 Z " />
<glyph glyph-name="adieresis" unicode="&#xe4;" horiz-adv-x="546" d="M31 208 Q31 254 49 295.5 Q67 337 97.5 368 Q128 399 168.5 417.5 Q209 436 254 436 Q284 436 308 428.5 Q332 421 349.5 411 Q367 401 377 390.5 Q387 380 390 374 L394 425 L487 425 L487 0 L390 0 L390 28 Q390 33 390.5 37.5 Q391 42 391 44 Q387 39 377 29.5 Q367 20 350 11 Q333 2 309.5 -4.5 Q286 -11 255 -11 Q206 -11 165 7 Q124 25 94 55 Q64 85 47.5 124.5 Q31 164 31 208 Z M128 214 Q128 186 137.5 162 Q147 138 164.5 120.5 Q182 103 206 93 Q230 83 259 83 Q288 83 312 93 Q336 103 353.5 121 Q371 139 380.5 163 Q390 187 390 214 Q390 241 380.5 264.5 Q371 288 353.5 305 Q336 322 312 332 Q288 342 259 342 Q230 342 206 332.5 Q182 323 164.5 305.5 Q147 288 137.5 264.5 Q128 241 128 214 Z M290 534 Q290 560 309.5 578 Q329 596 352 596 Q373 596 392.5 578 Q412 560 412 534 Q412 506 392.5 489 Q373 472 352 472 Q329 472 309.5 489 Q290 506 290 534 Z M97 534 Q97 560 116.5 578 Q136 596 159 596 Q180 596 199.5 578 Q219 560 219 534 Q219 506 199.5 489 Q180 472 159 472 Q136 472 116.5 489 Q97 506 97 534 Z " />
<glyph glyph-name="edieresis" unicode="&#xeb;" horiz-adv-x="473" d="M424 49 Q393 21 349 5 Q305 -11 259 -11 Q212 -11 170.5 6.5 Q129 24 98.5 54.5 Q68 85 50 125.5 Q32 166 32 212 Q32 258 50 298.5 Q68 339 98.5 369.5 Q129 400 169.5 417.5 Q210 435 255 435 Q327 435 381.5 391.5 Q436 348 459 277 Q429 266 389.5 250.5 Q350 235 307 218 Q264 201 221 183.5 Q178 166 142 152 Q159 121 189 102 Q219 83 257 83 Q283 83 309.5 92.5 Q336 102 353 118 L424 49 Z M340 299 Q328 321 304 331.5 Q280 342 257 342 Q230 342 206 331.5 Q182 321 165 303.5 Q148 286 138 263.5 Q128 241 128 217 L128 213 Q153 223 181.5 234.5 Q210 246 238.5 258 Q267 270 293 280.5 Q319 291 340 299 Z M271 534 Q271 560 290.5 578 Q310 596 333 596 Q354 596 373.5 578 Q393 560 393 534 Q393 506 373.5 489 Q354 472 333 472 Q310 472 290.5 489 Q271 506 271 534 Z M78 534 Q78 560 97.5 578 Q117 596 140 596 Q161 596 180.5 578 Q200 560 200 534 Q200 506 180.5 489 Q161 472 140 472 Q117 472 97.5 489 Q78 506 78 534 Z " />
<glyph glyph-name="odieresis" unicode="&#xf6;" horiz-adv-x="514" d="M32 213 Q32 259 49.5 299.5 Q67 340 98 370 Q129 400 170.5 417.5 Q212 435 259 435 Q307 435 348 417.5 Q389 400 418.5 370 Q448 340 465 299.5 Q482 259 482 213 Q482 167 465.5 126 Q449 85 419 54.5 Q389 24 348 6.5 Q307 -11 258 -11 Q211 -11 170 5 Q129 21 98.5 50.5 Q68 80 50 121.5 Q32 163 32 213 Z M127 212 Q127 185 137 161.5 Q147 138 164.5 120.5 Q182 103 205.5 93 Q229 83 256 83 Q283 83 306.5 93 Q330 103 347.5 120.5 Q365 138 375.5 161.5 Q386 185 386 212 Q386 239 375.5 262.5 Q365 286 347.5 303.5 Q330 321 306.5 331.5 Q283 342 256 342 Q229 342 205.5 331.5 Q182 321 164.5 303.5 Q147 286 137 262.5 Q127 239 127 212 Z M309 534 Q309 560 328.5 578 Q348 596 371 596 Q392 596 411.5 578 Q431 560 431 534 Q431 506 411.5 489 Q392 472 371 472 Q348 472 328.5 489 Q309 506 309 534 Z M116 534 Q116 560 135.5 578 Q155 596 178 596 Q199 596 218.5 578 Q238 560 238 534 Q238 506 218.5 489 Q199 472 178 472 Q155 472 135.5 489 Q116 506 116 534 Z " />
<glyph glyph-name="udieresis" unicode="&#xfc;" horiz-adv-x="523" d="M463 -10 L383 -10 L371 108 Q348 57 307.5 23.5 Q267 -10 201 -10 Q135 -10 96.5 24.5 Q58 59 56 116 L56 425 L152 425 L152 161 Q154 130 173.5 108.5 Q193 87 236 85 Q265 85 289 95 Q313 105 330.5 123 Q348 141 358 166 Q368 191 368 220 L368 425 L463 425 L463 -10 Z M275 534 Q275 560 294.5 578 Q314 596 337 596 Q358 596 377.5 578 Q397 560 397 534 Q397 506 377.5 489 Q358 472 337 472 Q314 472 294.5 489 Q275 506 275 534 Z M82 534 Q82 560 101.5 578 Q121 596 144 596 Q165 596 184.5 578 Q204 560 204 534 Q204 506 184.5 489 Q165 472 144 472 Q121 472 101.5 489 Q82 506 82 534 Z " />
<glyph glyph-name="agrave" unicode="&#xe0;" horiz-adv-x="546" d="M31 208 Q31 254 49 295.5 Q67 337 97.5 368 Q128 399 168.5 417.5 Q209 436 254 436 Q284 436 308 428.5 Q332 421 349.5 411 Q367 401 377 390.5 Q387 380 390 374 L394 425 L487 425 L487 0 L390 0 L390 28 Q390 33 390.5 37.5 Q391 42 391 44 Q387 39 377 29.5 Q367 20 350 11 Q333 2 309.5 -4.5 Q286 -11 255 -11 Q206 -11 165 7 Q124 25 94 55 Q64 85 47.5 124.5 Q31 164 31 208 Z M128 214 Q128 186 137.5 162 Q147 138 164.5 120.5 Q182 103 206 93 Q230 83 259 83 Q288 83 312 93 Q336 103 353.5 121 Q371 139 380.5 163 Q390 187 390 214 Q390 241 380.5 264.5 Q371 288 353.5 305 Q336 322 312 332 Q288 342 259 342 Q230 342 206 332.5 Q182 323 164.5 305.5 Q147 288 137.5 264.5 Q128 241 128 214 Z M187 622 Q210 588 233 554 Q256 520 279 487 L207 487 Q176 520 145 554 Q114 588 84 622 L187 622 Z " />
<glyph glyph-name="egrave" unicode="&#xe8;" horiz-adv-x="473" d="M424 49 Q393 21 349 5 Q305 -11 259 -11 Q212 -11 170.5 6.5 Q129 24 98.5 54.5 Q68 85 50 125.5 Q32 166 32 212 Q32 258 50 298.5 Q68 339 98.5 369.5 Q129 400 169.5 417.5 Q210 435 255 435 Q327 435 381.5 391.5 Q436 348 459 277 Q429 266 389.5 250.5 Q350 235 307 218 Q264 201 221 183.5 Q178 166 142 152 Q159 121 189 102 Q219 83 257 83 Q283 83 309.5 92.5 Q336 102 353 118 L424 49 Z M340 299 Q328 321 304 331.5 Q280 342 257 342 Q230 342 206 331.5 Q182 321 165 303.5 Q148 286 138 263.5 Q128 241 128 217 L128 213 Q153 223 181.5 234.5 Q210 246 238.5 258 Q267 270 293 280.5 Q319 291 340 299 Z M174 622 Q197 588 220 554 Q243 520 266 487 L194 487 Q163 520 132 554 Q101 588 71 622 L174 622 Z " />
<glyph glyph-name="igrave" unicode="&#xec;" horiz-adv-x="214" d="M155 0 L59 0 L59 425 L155 425 L155 0 Z M59 622 Q82 588 105 554 Q128 520 151 487 L79 487 Q48 520 17 554 Q-14 588 -44 622 L59 622 Z " />
<glyph glyph-name="ograve" unicode="&#xf2;" horiz-adv-x="514" d="M32 213 Q32 259 49.5 299.5 Q67 340 98 370 Q129 400 170.5 417.5 Q212 435 259 435 Q307 435 348 417.5 Q389 400 418.5 370 Q448 340 465 299.5 Q482 259 482 213 Q482 167 465.5 126 Q449 85 419 54.5 Q389 24 348 6.5 Q307 -11 258 -11 Q211 -11 170 5 Q129 21 98.5 50.5 Q68 80 50 121.5 Q32 163 32 213 Z M127 212 Q127 185 137 161.5 Q147 138 164.5 120.5 Q182 103 205.5 93 Q229 83 256 83 Q283 83 306.5 93 Q330 103 347.5 120.5 Q365 138 375.5 161.5 Q386 185 386 212 Q386 239 375.5 262.5 Q365 286 347.5 303.5 Q330 321 306.5 331.5 Q283 342 256 342 Q229 342 205.5 331.5 Q182 321 164.5 303.5 Q147 286 137 262.5 Q127 239 127 212 Z M189 622 Q212 588 235 554 Q258 520 281 487 L209 487 Q178 520 147 554 Q116 588 86 622 L189 622 Z " />
<glyph glyph-name="ugrave" unicode="&#xf9;" horiz-adv-x="523" d="M463 -10 L383 -10 L371 108 Q348 57 307.5 23.5 Q267 -10 201 -10 Q135 -10 96.5 24.5 Q58 59 56 116 L56 425 L152 425 L152 161 Q154 130 173.5 108.5 Q193 87 236 85 Q265 85 289 95 Q313 105 330.5 123 Q348 141 358 166 Q368 191 368 220 L368 425 L463 425 L463 -10 Z M198 622 Q221 588 244 554 Q267 520 290 487 L218 487 Q187 520 156 554 Q125 588 95 622 L198 622 Z " />
<glyph glyph-name="comma" unicode="&#x2c;" horiz-adv-x="249" d="M185 88 L97 -122 L5 -122 Q25 -69 44 -17.5 Q63 34 83 88 L185 88 Z " />
<glyph glyph-name="period" unicode="&#x2e;" horiz-adv-x="226" d="M52 62 Q52 88 71.5 106 Q91 124 114 124 Q135 124 154.5 106 Q174 88 174 62 Q174 33 154.5 16.5 Q135 0 114 0 Q91 0 71.5 16.5 Q52 33 52 62 Z " />
<glyph glyph-name="f" unicode="f" horiz-adv-x="339" d="M26 332 L26 426 L99 426 L99 516 Q99 650 161 713.5 Q223 777 341 781 L341 690 Q263 685 229 640 Q195 595 195 512 L195 426 L327 426 L327 332 L195 332 L195 0 L99 0 L99 332 L26 332 Z " />
<glyph glyph-name="aring" unicode="&#xe5;" horiz-adv-x="546" d="M31 208 Q31 254 49 295.5 Q67 337 97.5 368 Q128 399 168.5 417.5 Q209 436 254 436 Q284 436 308 428.5 Q332 421 349.5 411 Q367 401 377 390.5 Q387 380 390 374 L394 425 L487 425 L487 0 L390 0 L390 28 Q390 33 390.5 37.5 Q391 42 391 44 Q387 39 377 29.5 Q367 20 350 11 Q333 2 309.5 -4.5 Q286 -11 255 -11 Q206 -11 165 7 Q124 25 94 55 Q64 85 47.5 124.5 Q31 164 31 208 Z M128 214 Q128 186 137.5 162 Q147 138 164.5 120.5 Q182 103 206 93 Q230 83 259 83 Q288 83 312 93 Q336 103 353.5 121 Q371 139 380.5 163 Q390 187 390 214 Q390 241 380.5 264.5 Q371 288 353.5 305 Q336 322 312 332 Q288 342 259 342 Q230 342 206 332.5 Q182 323 164.5 305.5 Q147 288 137.5 264.5 Q128 241 128 214 Z M174 555 Q174 573 181 588.5 Q188 604 200 616 Q212 628 228 635 Q244 642 262 642 Q280 642 296 635 Q312 628 324 616 Q336 604 343 588.5 Q350 573 350 555 Q350 537 343 521 Q336 505 324 492.5 Q312 480 296 473 Q280 466 262 466 Q244 466 228 473 Q212 480 200 492.5 Q188 505 181 521 Q174 537 174 555 Z M229 553 Q229 539 238.5 530 Q248 521 262 521 Q276 521 285.5 530 Q295 539 295 553 Q295 568 285.5 577.5 Q276 587 262 587 Q248 587 238.5 577.5 Q229 568 229 553 Z " />
<glyph glyph-name="v" unicode="v" horiz-adv-x="457" d="M229 -25 Q169 88 115 199.5 Q61 311 4 425 L108 425 Q146 351 167.5 306 Q189 261 201 233 Q213 205 218.5 188.5 Q224 172 229 154 Q235 172 240.5 188.5 Q246 205 258 233 Q270 261 291.5 306 Q313 351 351 425 L454 425 Q397 311 342 199.5 Q287 88 229 -25 Z " />
<glyph glyph-name="j" unicode="j" horiz-adv-x="214" d="M64 -205 Q47 -186 30.5 -169 Q14 -152 -2 -133 Q27 -110 43 -76.5 Q59 -43 59 4 L59 425 L155 425 L155 0 Q155 -69 130.5 -120 Q106 -171 64 -205 Z M51 590 Q51 616 69.5 633 Q88 650 111 650 Q133 650 151 633 Q169 616 169 590 Q169 563 151 546.5 Q133 530 111 530 Q88 530 69.5 546.5 Q51 563 51 590 Z " />
<glyph glyph-name="s" unicode="s" horiz-adv-x="350" d="M301 387 Q295 378 286.5 366.5 Q278 355 270 345 Q262 335 256.5 327.5 Q251 320 251 320 Q251 320 246 323.5 Q241 327 231.5 331 Q222 335 209.5 338.5 Q197 342 184 342 Q170 342 154.5 335.5 Q139 329 139 309 Q139 292 152.5 280.5 Q166 269 185.5 259.5 Q205 250 228.5 240 Q252 230 271.5 215 Q291 200 304.5 177.5 Q318 155 318 122 Q318 93 307.5 69 Q297 45 277.5 28 Q258 11 231 1 Q204 -9 170 -9 Q129 -9 90.5 5 Q52 19 30 45 Q37 53 47 65 Q57 77 66 88 Q75 99 81.5 106.5 Q88 114 88 114 Q88 115 94.5 110.5 Q101 106 112 100 Q123 94 138 89 Q153 84 169 84 Q194 84 207.5 95 Q221 106 221 122 Q221 138 207.5 148 Q194 158 174.5 166.5 Q155 175 131.5 185 Q108 195 88.5 210 Q69 225 55.5 248.5 Q42 272 42 308 Q42 344 55 368 Q68 392 88.5 407 Q109 422 133 428.5 Q157 435 180 435 Q211 435 244.5 422.5 Q278 410 301 387 Z " />
<glyph glyph-name="k" unicode="k" horiz-adv-x="458" d="M365 435 L422 379 Q384 344 349.5 310.5 Q315 277 277 242 Q322 182 365 121 Q408 60 453 0 L343 0 Q310 45 276 89.5 Q242 134 210 179 L155 129 L155 0 L59 0 L59 781 L155 781 L155 240 Q209 291 260 337.5 Q311 384 365 435 Z " />
<glyph glyph-name="y" unicode="y" horiz-adv-x="490" d="M181 -204 L85 -204 Q100 -174 113 -146.5 Q126 -119 139 -90.5 Q152 -62 166 -32 Q180 -2 197 33 Q174 78 149.5 128 Q125 178 100 229 Q75 280 50.5 330 Q26 380 4 425 L108 425 Q146 351 170 301 Q194 251 209 217 Q224 183 232 161.5 Q240 140 245 122 Q251 140 259 161.5 Q267 183 282 217 Q297 251 321 301 Q345 351 383 425 L486 425 L181 -204 Z " />
<glyph glyph-name="oslash" unicode="&#xf8;" horiz-adv-x="514" d="M32 213 Q32 259 49.5 299.5 Q67 340 98 370 Q129 400 170.5 417.5 Q212 435 259 435 Q291 435 320 426.5 Q349 418 374 404 L417 454 L467 414 L424 364 Q451 334 466.5 295.5 Q482 257 482 213 Q482 167 465.5 126 Q449 85 419 54.5 Q389 24 348 6.5 Q307 -11 258 -11 Q221 -11 188.5 -1 Q156 9 128 27 Q111 8 98.5 -7 Q86 -22 79 -30 L31 13 L80 70 Q57 98 44.5 134 Q32 170 32 213 Z M191 100 Q220 83 256 83 Q283 83 306.5 93 Q330 103 347.5 120.5 Q365 138 375.5 161.5 Q386 185 386 212 Q386 255 359 290 L191 100 Z M127 212 Q127 176 146 144 L309 330 Q285 342 256 342 Q229 342 205.5 331.5 Q182 321 164.5 303.5 Q147 286 137 262.5 Q127 239 127 212 Z " />
<glyph glyph-name="w" unicode="w" horiz-adv-x="662" d="M288 363 L259 425 L342 425 Q372 360 392 314 Q412 268 425 236.5 Q438 205 445.5 185.5 Q453 166 457 154 Q461 181 467.5 203 Q474 225 486 253 Q498 281 516.5 321 Q535 361 562 425 L658 425 L457 -25 Q438 13 423 49.5 Q408 86 393 122 Q378 158 362.5 194.5 Q347 231 328 269 Q294 193 263.5 122 Q233 51 200 -25 L9 425 L105 425 Q132 360 149 320 Q166 280 176 252 Q186 224 191 202.5 Q196 181 200 154 Q203 163 207.5 175 Q212 187 221 209.5 Q230 232 246 268.5 Q262 305 288 363 Z " />
<glyph glyph-name="x" unicode="x" horiz-adv-x="450" d="M165 226 Q131 276 93 325.5 Q55 375 20 425 L138 425 Q150 406 160.5 390.5 Q171 375 181.5 361 Q192 347 203.5 332 Q215 317 227 299 Q239 317 250 332 Q261 347 272 361 Q283 375 294 390.5 Q305 406 317 424 L424 424 Q405 395 388 371.5 Q371 348 354.5 325 Q338 302 320.5 277 Q303 252 283 222 Q300 197 321 168.5 Q342 140 364 111 Q386 82 406.5 53.5 Q427 25 444 0 L321 0 Q294 38 267.5 69.5 Q241 101 215 138 Q189 100 165.5 69.5 Q142 39 116 0 L9 0 Q47 57 87.5 113 Q128 169 165 226 Z " />
<glyph glyph-name="z" unicode="z" horiz-adv-x="454" d="M424 0 L14 0 L252 343 L121 343 Q86 343 61.5 363.5 Q37 384 37 416 L37 465 L123 465 L123 452 Q123 433 131 429 Q139 425 157 425 L428 425 L198 94 L424 94 L424 0 Z " />
<glyph glyph-name="o" unicode="o" horiz-adv-x="514" d="M32 213 Q32 259 49.5 299.5 Q67 340 98 370 Q129 400 170.5 417.5 Q212 435 259 435 Q307 435 348 417.5 Q389 400 418.5 370 Q448 340 465 299.5 Q482 259 482 213 Q482 167 465.5 126 Q449 85 419 54.5 Q389 24 348 6.5 Q307 -11 258 -11 Q211 -11 170 5 Q129 21 98.5 50.5 Q68 80 50 121.5 Q32 163 32 213 Z M127 212 Q127 185 137 161.5 Q147 138 164.5 120.5 Q182 103 205.5 93 Q229 83 256 83 Q283 83 306.5 93 Q330 103 347.5 120.5 Q365 138 375.5 161.5 Q386 185 386 212 Q386 239 375.5 262.5 Q365 286 347.5 303.5 Q330 321 306.5 331.5 Q283 342 256 342 Q229 342 205.5 331.5 Q182 321 164.5 303.5 Q147 286 137 262.5 Q127 239 127 212 Z " />
<glyph glyph-name="ae" unicode="&#xe6;" horiz-adv-x="710" d="M661 49 Q630 21 586 5 Q542 -11 496 -11 Q451 -11 411.5 5 Q372 21 342 49 Q314 21 272 6 Q230 -9 179 -9 Q137 -9 108 1.5 Q79 12 61.5 29.5 Q44 47 36 69.5 Q28 92 28 116 Q28 149 41 172.5 Q54 196 74.5 211 Q95 226 120 233.5 Q145 241 169 241 L271 241 Q275 277 293 312 Q282 328 261 334.5 Q240 341 211 341 Q172 341 141 332.5 Q110 324 87 311 L48 385 Q83 409 128 422.5 Q173 436 223 436 Q267 436 301 423 Q335 410 355 387 Q384 410 419 422.5 Q454 435 492 435 Q564 435 618.5 391.5 Q673 348 696 277 Q666 266 626.5 250.5 Q587 235 544 218 Q501 201 458 183.5 Q415 166 379 152 Q396 121 426 102 Q456 83 494 83 Q520 83 546.5 92.5 Q573 102 590 118 L661 49 Z M577 299 Q565 321 541 331.5 Q517 342 494 342 Q467 342 443 331.5 Q419 321 402 303.5 Q385 286 375 263.5 Q365 241 365 217 L365 213 Q390 223 418.5 234.5 Q447 246 475.5 258 Q504 270 530 280.5 Q556 291 577 299 Z M115 125 Q115 99 137 91 Q159 83 185 83 Q220 83 248.5 91 Q277 99 290 118 Q277 143 273 171 L221 171 Q160 171 137.5 158 Q115 145 115 125 Z " />
<glyph glyph-name="A" unicode="A" horiz-adv-x="653" d="M532 0 Q529 7 521.5 25 Q514 43 503 69 Q492 95 479 126.5 Q466 158 452 192 L201 192 L121 0 L0 0 Q4 9 19 44.5 Q34 80 56.5 132.5 Q79 185 106.5 249.5 Q134 314 163 381 Q192 448 219.5 512.5 Q247 577 269.5 629.5 Q292 682 307 717.5 Q322 753 326 762 Q330 753 345.5 717.5 Q361 682 383.5 629.5 Q406 577 433.5 512.5 Q461 448 490 381 Q519 314 546.5 249.5 Q574 185 596.5 132.5 Q619 80 634 44.5 Q649 9 653 0 L532 0 Z M243 295 L409 295 L337 469 Q336 470 332 482.5 Q328 495 326 505 Q324 495 320 482.5 Q316 470 316 469 L243 295 Z " />
<glyph glyph-name="idieresis" unicode="&#xef;" horiz-adv-x="214" d="M155 0 L59 0 L59 425 L155 425 L155 0 Z M146 534 Q146 560 165.5 578 Q185 596 208 596 Q229 596 248.5 578 Q268 560 268 534 Q268 506 248.5 489 Q229 472 208 472 Q185 472 165.5 489 Q146 506 146 534 Z M-47 534 Q-47 560 -27.5 578 Q-8 596 15 596 Q36 596 55.5 578 Q75 560 75 534 Q75 506 55.5 489 Q36 472 15 472 Q-8 472 -27.5 489 Q-47 506 -47 534 Z " />
<glyph glyph-name="yacute" unicode="&#xfd;" horiz-adv-x="490" d="M181 -204 L85 -204 Q100 -174 113 -146.5 Q126 -119 139 -90.5 Q152 -62 166 -32 Q180 -2 197 33 Q174 78 149.5 128 Q125 178 100 229 Q75 280 50.5 330 Q26 380 4 425 L108 425 Q146 351 170 301 Q194 251 209 217 Q224 183 232 161.5 Q240 140 245 122 Q251 140 259 161.5 Q267 183 282 217 Q297 251 321 301 Q345 351 383 425 L486 425 L181 -204 Z M204 487 Q227 520 249.5 554 Q272 588 295 622 L398 622 Q368 588 337 554 Q306 520 275 487 L204 487 Z " />
<glyph glyph-name="ydieresis" unicode="&#xff;" horiz-adv-x="490" d="M181 -204 L85 -204 Q100 -174 113 -146.5 Q126 -119 139 -90.5 Q152 -62 166 -32 Q180 -2 197 33 Q174 78 149.5 128 Q125 178 100 229 Q75 280 50.5 330 Q26 380 4 425 L108 425 Q146 351 170 301 Q194 251 209 217 Q224 183 232 161.5 Q240 140 245 122 Q251 140 259 161.5 Q267 183 282 217 Q297 251 321 301 Q345 351 383 425 L486 425 L181 -204 Z M266 534 Q266 560 285.5 578 Q305 596 328 596 Q349 596 368.5 578 Q388 560 388 534 Q388 506 368.5 489 Q349 472 328 472 Q305 472 285.5 489 Q266 506 266 534 Z M73 534 Q73 560 92.5 578 Q112 596 135 596 Q156 596 175.5 578 Q195 560 195 534 Q195 506 175.5 489 Q156 472 135 472 Q112 472 92.5 489 Q73 506 73 534 Z " />
<glyph glyph-name="B" unicode="B" horiz-adv-x="595" d="M206 618 L206 420 L298 420 Q349 420 373.5 450 Q398 480 398 522 Q398 571 368 594.5 Q338 618 287 618 L206 618 Z M206 316 L206 111 L302 111 Q329 111 353 117.5 Q377 124 395 136.5 Q413 149 423 168.5 Q433 188 433 214 Q433 243 421 262.5 Q409 282 389 294 Q369 306 343.5 311 Q318 316 291 316 L206 316 Z M84 0 L84 729 L283 729 Q337 729 381 718.5 Q425 708 456 685.5 Q487 663 503.5 626.5 Q520 590 520 539 Q520 511 514.5 484.5 Q509 458 496.5 435.5 Q484 413 464 396 Q444 379 414 370 Q439 365 464.5 353 Q490 341 510 320.5 Q530 300 542.5 269.5 Q555 239 555 198 Q555 145 534.5 107.5 Q514 70 480.5 46 Q447 22 403 11 Q359 0 312 0 L84 0 Z " />
<glyph glyph-name="D" unicode="D" horiz-adv-x="713" d="M84 729 L273 729 Q383 729 459.5 695.5 Q536 662 584 609 Q632 556 653.5 488.5 Q675 421 675 354 Q675 272 645.5 206.5 Q616 141 566 95 Q516 49 449.5 24.5 Q383 0 309 0 L84 0 L84 729 Z M290 116 Q347 116 395 132 Q443 148 478 179.5 Q513 211 532.5 256.5 Q552 302 552 362 Q552 430 528.5 477.5 Q505 525 469 554.5 Q433 584 389 597.5 Q345 611 305 611 L207 611 L207 116 L290 116 Z " />
<glyph glyph-name="E" unicode="E" horiz-adv-x="619" d="M84 0 L84 729 L568 729 L568 618 L206 618 L206 422 L528 422 L528 308 L206 308 L206 114 L582 114 L582 0 L84 0 Z " />
<glyph glyph-name="H" unicode="H" horiz-adv-x="763" d="M84 0 L84 729 L207 729 L207 425 L555 425 L555 729 L679 729 Q679 717 679 662 Q679 607 679 529.5 Q679 452 678.5 364.5 Q678 277 678 199.5 Q678 122 678 67 Q678 12 678 0 L555 0 L555 308 L207 308 L207 0 L84 0 Z " />
<glyph glyph-name="I" unicode="I" horiz-adv-x="291" d="M84 729 L207 729 L207 0 L84 0 L84 729 Z " />
<glyph glyph-name="J" unicode="J" horiz-adv-x="342" d="M-20 -151 L-20 -35 Q14 -33 43 -22 Q72 -11 93 10.5 Q114 32 125.5 65.5 Q137 99 137 145 L137 729 L261 729 L261 142 Q261 73 239.5 19.5 Q218 -34 180.5 -71.5 Q143 -109 91.5 -129 Q40 -149 -20 -151 Z " />
<glyph glyph-name="K" unicode="K" horiz-adv-x="655" d="M511 0 Q476 43 446 83 Q416 123 386 162.5 Q356 202 325.5 242.5 Q295 283 261 327 Q250 315 240 305.5 Q230 296 219 286 L219 0 L84 0 L84 729 L219 729 L219 467 Q219 459 218 450 Q217 441 216 432 Q221 439 226.5 444.5 Q232 450 237 458 Q305 523 367.5 593 Q430 663 498 729 L653 729 Q578 650 504 569 Q430 488 356 410 Q398 356 435.5 305 Q473 254 510 204.5 Q547 155 584.5 104.5 Q622 54 663 0 L511 0 Z " />
<glyph glyph-name="M" unicode="M" horiz-adv-x="905" d="M84 761 Q89 754 106 729.5 Q123 705 148.5 669.5 Q174 634 205.5 591 Q237 548 269.5 503.5 Q302 459 333 416.5 Q364 374 389 339 Q414 304 431.5 280.5 Q449 257 453 251 Q455 254 471 276.5 Q487 299 511.5 333 Q536 367 567 410.5 Q598 454 631 499 Q664 544 695.5 588 Q727 632 753.5 668 Q780 704 798 729 Q816 754 821 761 L821 0 L690 0 L690 372 Q690 380 692 389 Q694 398 694 400 L453 53 Q448 59 428.5 86 Q409 113 382 150 Q355 187 325 229.5 Q295 272 268.5 308.5 Q242 345 223.5 370.5 Q205 396 203 400 Q203 398 205 389 Q207 380 207 372 L207 0 L84 0 L84 761 Z " />
<glyph glyph-name="N" unicode="N" horiz-adv-x="812" d="M728 729 L728 -34 Q721 -25 697 -1 Q673 23 638 56.5 Q603 90 560.5 130.5 Q518 171 474 212.5 Q430 254 388 294 Q346 334 311.5 367.5 Q277 401 253.5 424.5 Q230 448 223 457 Q222 459 215 467.5 Q208 476 203 483 L206 451 L206 0 L84 0 L84 762 Q91 753 115 729.5 Q139 706 174 673 Q209 640 251.5 601 Q294 562 338 521.5 Q382 481 424 441.5 Q466 402 501 369.5 Q536 337 559.5 314 Q583 291 590 282 L609 254 L606 288 L606 729 L728 729 Z " />
<glyph glyph-name="P" unicode="P" horiz-adv-x="583" d="M206 366 L304 366 Q342 366 367 379 Q392 392 407 411.5 Q422 431 428 452.5 Q434 474 434 491 Q434 507 428.5 528.5 Q423 550 408.5 569 Q394 588 369 601 Q344 614 305 614 L206 614 L206 366 Z M84 0 L84 729 L290 729 Q350 729 399.5 713 Q449 697 483.5 667 Q518 637 537 593 Q556 549 556 494 Q556 450 543 406.5 Q530 363 500.5 328.5 Q471 294 424 272.5 Q377 251 308 251 L206 251 L206 0 L84 0 Z " />
<glyph glyph-name="R" unicode="R" horiz-adv-x="636" d="M84 0 L84 729 L290 729 Q350 729 399.5 713 Q449 697 483.5 667 Q518 637 537 593 Q556 549 556 494 Q556 464 550 434 Q544 404 531 376 Q518 348 497 324.5 Q476 301 447 284 Q469 249 490 215.5 Q511 182 532.5 148 Q554 114 577 78 Q600 42 627 0 L480 0 Q435 70 395 132.5 Q355 195 318 251 L308 251 L206 251 L206 0 L84 0 Z M206 366 L304 366 Q342 366 367 379 Q392 392 407 410.5 Q422 429 428 450.5 Q434 472 434 490 Q434 507 428.5 528.5 Q423 550 408.5 569 Q394 588 369 601 Q344 614 305 614 L206 614 L206 366 Z " />
<glyph glyph-name="U" unicode="U" horiz-adv-x="720" d="M359 -8 Q300 -8 248.5 11.5 Q197 31 159 66 Q121 101 99 150.5 Q77 200 77 260 L77 729 L199 729 L199 263 Q199 231 211.5 203 Q224 175 245.5 154 Q267 133 296 120.5 Q325 108 359 108 Q393 108 422.5 120.5 Q452 133 474 154 Q496 175 508.5 203 Q521 231 521 263 L521 729 L643 729 L643 260 Q643 200 621 150.5 Q599 101 560.5 66 Q522 31 470 11.5 Q418 -8 359 -8 Z " />
<glyph glyph-name="Y" unicode="Y" horiz-adv-x="669" d="M396 236 L396 0 L273 0 L273 236 Q268 243 248 280.5 Q228 318 199 370.5 Q170 423 138 482.5 Q106 542 77 594.5 Q48 647 28 684.5 Q8 722 3 729 L142 729 Q146 722 157.5 700.5 Q169 679 185 648.5 Q201 618 220 581.5 Q239 545 258 508.5 Q277 472 294 438.5 Q311 405 324 380 L335 346 Q339 354 342 363.5 Q345 373 348 380 Q361 405 378 438.5 Q395 472 413.5 508.5 Q432 545 450.5 581.5 Q469 618 484.5 648.5 Q500 679 511 700.5 Q522 722 526 729 L665 729 L396 236 Z " />
<glyph glyph-name="asciitilde" unicode="&#x7e;" horiz-adv-x="471" d="M228 485 Q212 499 201 504.5 Q190 510 176 510 Q169 510 161 508.5 Q153 507 145.5 502 Q138 497 132 488.5 Q126 480 125 466 L71 468 Q72 489 81 506.5 Q90 524 103.5 536.5 Q117 549 133.5 556 Q150 563 166 563 Q191 563 210 555 Q229 547 246 531 Q262 516 273 511 Q284 506 298 506 Q305 506 313 507.5 Q321 509 328.5 514 Q336 519 341.5 527.5 Q347 536 349 550 L403 548 Q402 527 393 509.5 Q384 492 370.5 479.5 Q357 467 340.5 460 Q324 453 308 453 Q284 453 264.5 461.5 Q245 470 228 485 Z " />
<glyph glyph-name="ntilde" unicode="&#xf1;" horiz-adv-x="522" d="M59 425 L143 425 Q145 389 147.5 366.5 Q150 344 152 316 Q175 370 217 403 Q259 436 322 436 Q387 436 425.5 400.5 Q464 365 466 308 L466 0 L371 0 L371 263 Q369 294 349 316.5 Q329 339 287 341 Q258 341 233.5 330.5 Q209 320 191.5 302 Q174 284 164.5 259 Q155 234 155 205 L155 0 L59 0 L59 425 Z M279 513 Q263 527 252 532.5 Q241 538 227 538 Q220 538 212 536.5 Q204 535 196.5 530 Q189 525 183 516.5 Q177 508 176 494 L122 496 Q123 517 132 534.5 Q141 552 154.5 564.5 Q168 577 184.5 584 Q201 591 217 591 Q242 591 261 583 Q280 575 297 559 Q313 544 324 539 Q335 534 349 534 Q356 534 364 535.5 Q372 537 379.5 542 Q387 547 392.5 555.5 Q398 564 400 578 L454 576 Q453 555 444 537.5 Q435 520 421.5 507.5 Q408 495 391.5 488 Q375 481 359 481 Q335 481 315.5 489.5 Q296 498 279 513 Z " />
<glyph glyph-name="F" unicode="F" horiz-adv-x="559" d="M84 0 L84 729 L527 729 L527 616 L206 616 L206 412 L485 412 L485 298 L206 298 L206 0 L84 0 Z " />
<glyph glyph-name="L" unicode="L" horiz-adv-x="575" d="M84 0 L84 729 L206 729 L206 116 L560 116 L560 0 L84 0 Z " />
<glyph glyph-name="C" unicode="C" horiz-adv-x="640" d="M633 54 Q621 46 599.5 35 Q578 24 548.5 14.5 Q519 5 482 -1.5 Q445 -8 403 -8 Q317 -8 249 21.5 Q181 51 134 101 Q87 151 62 218 Q37 285 37 359 Q37 441 67 510.5 Q97 580 148.5 630.5 Q200 681 268.5 709 Q337 737 415 737 Q445 737 475.5 732.5 Q506 728 533 721 Q560 714 580.5 705 Q601 696 610 686 Q601 672 596 663 Q591 654 585.5 644.5 Q580 635 573.5 623 Q567 611 555 590 Q543 598 526 604 Q509 610 490.5 613.5 Q472 617 453 619 Q434 621 419 621 Q363 621 315.5 600 Q268 579 233.5 544.5 Q199 510 179.5 464 Q160 418 160 369 Q160 321 178.5 275.5 Q197 230 230.5 195 Q264 160 310 138.5 Q356 117 412 117 Q444 117 474 123.5 Q504 130 527 138 Q550 146 564.5 154 Q579 162 580 165 L633 54 Z " />
<glyph glyph-name="Q" unicode="Q" horiz-adv-x="822" d="M36 363 Q36 439 65 507 Q94 575 144.5 626 Q195 677 262.5 707 Q330 737 407 737 Q483 737 551 707 Q619 677 670 626 Q721 575 750.5 507 Q780 439 780 363 Q780 292 759 228.5 Q738 165 697 107 L804 116 L804 0 L485 0 Q465 -4 446 -6 Q427 -8 407 -8 Q330 -8 262.5 21 Q195 50 144.5 100.5 Q94 151 65 218.5 Q36 286 36 363 Z M158 363 Q158 310 178 263.5 Q198 217 232 182.5 Q266 148 312 128 Q358 108 410 108 Q462 108 507 128 Q552 148 585.5 182.5 Q619 217 638.5 263.5 Q658 310 658 363 Q658 416 638.5 462.5 Q619 509 585 544 Q551 579 505.5 599 Q460 619 408 619 Q356 619 310.5 599 Q265 579 231 544 Q197 509 177.5 462.5 Q158 416 158 363 Z " />
<glyph glyph-name="T" unicode="T" horiz-adv-x="563" d="M521 729 L521 612 L341 612 L341 0 L218 0 L218 612 L42 612 L42 729 L521 729 Z " />
<glyph glyph-name="guilsinglleft" unicode="&#x2039;" horiz-adv-x="283" d="M212 47 L39 243 Q42 246 55 260.5 Q68 275 86.5 296 Q105 317 125.5 341 Q146 365 164.5 385.5 Q183 406 196 420.5 Q209 435 212 438 L212 321 Q209 318 200 306.5 Q191 295 181.5 282.5 Q172 270 163 258.5 Q154 247 151 243 Q154 239 163 227.5 Q172 216 181.5 203 Q191 190 200 178.5 Q209 167 212 163 L212 47 Z " />
<glyph glyph-name="greater" unicode="&#x3e;" horiz-adv-x="530" d="M61 -14 L61 127 L261 242 L61 357 L61 497 Q173 434 283 370 Q393 306 505 242 Q393 177 283 113.5 Q173 50 61 -14 Z " />
<glyph glyph-name="less" unicode="&#x3c;" horiz-adv-x="530" d="M469 127 L469 -14 Q357 50 247 113.5 Q137 177 25 242 Q137 306 247 370 Q357 434 469 497 L469 357 L270 242 L469 127 Z " />
<glyph glyph-name="equal" unicode="&#x3d;" horiz-adv-x="630" d="M572 204 L572 104 L58 104 L58 204 L572 204 Z M572 401 L572 301 L58 301 L58 401 L572 401 Z " />
<glyph glyph-name="at" unicode="&#x40;" horiz-adv-x="952" d="M233 208 Q233 254 251 295.5 Q269 337 299.5 368 Q330 399 370.5 417.5 Q411 436 456 436 Q486 436 510 428.5 Q534 421 551.5 411 Q569 401 579 390.5 Q589 380 592 374 L596 425 L689 425 L689 90 L711 90 Q723 90 739.5 97.5 Q756 105 771.5 124 Q787 143 798 174.5 Q809 206 809 253 Q809 308 789.5 361 Q770 414 730.5 456 Q691 498 631 523.5 Q571 549 490 549 Q393 549 325 516 Q257 483 214 432.5 Q171 382 151 321 Q131 260 131 204 Q131 135 157.5 73.5 Q184 12 230.5 -34 Q277 -80 339.5 -106.5 Q402 -133 473 -133 Q531 -133 584.5 -115.5 Q638 -98 683 -66 L738 -132 Q712 -155 679 -172 Q646 -189 610.5 -200 Q575 -211 538.5 -216.5 Q502 -222 468 -222 Q380 -222 302 -188 Q224 -154 165.5 -96 Q107 -38 72.5 40 Q38 118 38 207 Q38 286 67 363 Q96 440 153 501.5 Q210 563 295 601 Q380 639 493 639 Q595 639 672 606 Q749 573 800.5 518.5 Q852 464 878 395 Q904 326 904 254 Q904 196 889.5 149 Q875 102 849 69 Q823 36 788 18 Q753 0 711 0 L592 0 L592 28 Q592 33 592.5 37.5 Q593 42 593 44 Q589 39 579 29.5 Q569 20 552 11 Q535 2 511.5 -4.5 Q488 -11 457 -11 Q408 -11 367 7 Q326 25 296 55 Q266 85 249.5 124.5 Q233 164 233 208 Z M330 214 Q330 186 339.5 162 Q349 138 366.5 120.5 Q384 103 408 93 Q432 83 461 83 Q490 83 514 93 Q538 103 555.5 121 Q573 139 582.5 163 Q592 187 592 214 Q592 241 582.5 264.5 Q573 288 555.5 305 Q538 322 514 332 Q490 342 461 342 Q432 342 408 332.5 Q384 323 366.5 305.5 Q349 288 339.5 264.5 Q330 241 330 214 Z " />
<glyph glyph-name="question" unicode="&#x3f;" horiz-adv-x="475" d="M122 550 Q100 558 77.5 566.5 Q55 575 33 583 Q39 603 51 631 Q63 659 86 684 Q109 709 146 726.5 Q183 744 240 744 Q282 744 318.5 728 Q355 712 381.5 685 Q408 658 423.5 622 Q439 586 439 546 Q439 489 412.5 446 Q386 403 340 368 Q327 359 311 348 Q295 337 280.5 322.5 Q266 308 256 289.5 Q246 271 246 246 L246 166 L142 166 L142 265 Q142 298 152 319 Q162 340 178.5 355.5 Q195 371 216 384.5 Q237 398 260 415 Q334 471 334 546 Q334 588 308.5 616 Q283 644 240 644 Q212 644 193 638 Q174 632 160.5 620.5 Q147 609 138 591.5 Q129 574 122 550 Z M193 -6 Q170 -6 150.5 10.5 Q131 27 131 55 Q131 81 150.5 99 Q170 117 193 117 Q215 117 234 99 Q253 81 253 55 Q253 27 234 10.5 Q215 -6 193 -6 Z " />
<glyph glyph-name="exclam" unicode="&#x21;" horiz-adv-x="273" d="M85 762 L188 762 L188 168 L85 168 L85 762 Z M137 -10 Q113 -10 94 8 Q75 26 75 53 Q75 80 94 97 Q113 114 137 114 Q159 114 178 97 Q197 80 197 53 Q197 26 178 8 Q159 -10 137 -10 Z " />
<glyph glyph-name="two" unicode="2" horiz-adv-x="551" d="M297 100 L513 100 L513 0 L51 0 Q113 63 171 121.5 Q229 180 274 235 Q319 290 346.5 342 Q374 394 374 442 Q374 474 362.5 498 Q351 522 334 537.5 Q317 553 297 561 Q277 569 260 569 Q225 569 202.5 556.5 Q180 544 166.5 527 Q153 510 148 491 Q143 472 143 459 Q143 426 153.5 400.5 Q164 375 183 356 L122 293 Q102 303 87 323.5 Q72 344 61.5 368 Q51 392 45.5 416 Q40 440 40 459 Q40 499 54.5 537 Q69 575 97 604 Q125 633 166 650.5 Q207 668 260 668 Q309 668 349.5 650.5 Q390 633 418.5 603.5 Q447 574 462.5 535 Q478 496 478 454 Q478 406 463.5 361 Q449 316 424.5 272.5 Q400 229 367 186 Q334 143 297 100 Z " />
<glyph glyph-name="one" unicode="1" horiz-adv-x="310" d="M51 561 L51 660 L212 660 L212 0 L108 0 L108 561 L51 561 Z " />
<glyph glyph-name="three" unicode="3" horiz-adv-x="468" d="M124 322 Q154 382 193 440.5 Q232 499 262 559 L71 559 L71 660 L423 660 Q390 600 354 541 Q318 482 285 422 Q345 391 381 338 Q417 285 417 216 Q417 170 399 129 Q381 88 350 57.5 Q319 27 277.5 9.5 Q236 -8 190 -8 Q142 -8 99 12 Q56 32 25 65 L100 135 Q135 92 191 92 Q216 92 238.5 102 Q261 112 277.5 128.5 Q294 145 304 167.5 Q314 190 314 216 Q314 241 304 263.5 Q294 286 277.5 302.5 Q261 319 238.5 328.5 Q216 338 191 338 Q153 338 124 322 Z " />
<glyph glyph-name="four" unicode="4" horiz-adv-x="527" d="M291 390 Q283 380 270 363.5 Q257 347 243.5 329 Q230 311 217 294 Q204 277 197 267 L291 267 L291 390 Z M-2 168 Q44 228 94.5 291 Q145 354 196 418 Q247 482 297.5 545 Q348 608 394 668 L394 267 L493 267 L493 168 L394 168 L394 0 L291 0 L291 168 L-2 168 Z " />
<glyph glyph-name="five" unicode="5" horiz-adv-x="457" d="M79 299 L79 660 L371 660 L371 561 L168 561 L168 434 Q173 436 177.5 437 Q182 438 191 438 Q242 438 284 420.5 Q326 403 355 373 Q384 343 400 303.5 Q416 264 416 220 Q416 172 398 130 Q380 88 349 57.5 Q318 27 277 9.5 Q236 -8 190 -8 Q145 -8 105.5 8.5 Q66 25 35 55 Q54 73 73 90 Q92 107 110 124 Q126 110 146.5 101 Q167 92 192 92 Q217 92 239 102 Q261 112 277.5 128.5 Q294 145 304 167.5 Q314 190 314 216 Q314 241 304 263.5 Q294 286 277.5 303 Q261 320 238.5 329.5 Q216 339 191 339 Q165 339 135 332.5 Q105 326 79 299 Z " />
<glyph glyph-name="six" unicode="6" horiz-adv-x="533" d="M41 216 Q41 270 58 318 Q75 366 102.5 407.5 Q130 449 165.5 484.5 Q201 520 237.5 550 Q274 580 308.5 604.5 Q343 629 369 648 Q386 629 401.5 609 Q417 589 433 570 Q410 555 380.5 535 Q351 515 322 495 Q293 475 269 456.5 Q245 438 233 425 Q246 438 265 438 Q311 438 352.5 421 Q394 404 425 374 Q456 344 474 303.5 Q492 263 492 217 Q492 170 474 129.5 Q456 89 425 58 Q394 27 353 9.5 Q312 -8 266 -8 Q229 -8 189.5 5 Q150 18 117 45 Q84 72 62.5 114.5 Q41 157 41 216 Z M148 216 Q148 191 157 168.5 Q166 146 182 129 Q198 112 219.5 102 Q241 92 266 92 Q291 92 313.5 102 Q336 112 352.5 129 Q369 146 379 168.5 Q389 191 389 216 Q389 241 379 263.5 Q369 286 352 303 Q335 320 313 329.5 Q291 339 266 339 Q241 339 219.5 329.5 Q198 320 182 303 Q166 286 157 263.5 Q148 241 148 216 Z " />
<glyph glyph-name="seven" unicode="7" horiz-adv-x="460" d="M31 559 L31 660 L454 660 Q386 486 323.5 325.5 Q261 165 198 0 L80 0 Q128 128 183.5 272 Q239 416 294 559 L31 559 Z " />
<glyph glyph-name="eight" unicode="8" horiz-adv-x="533" d="M202 501 Q202 475 222.5 456.5 Q243 438 269 438 Q295 438 315 456.5 Q335 475 335 501 Q335 528 315 548.5 Q295 569 269 569 Q256 569 244 563.5 Q232 558 222.5 548.5 Q213 539 207.5 526.5 Q202 514 202 501 Z M147 216 Q147 190 156.5 167.5 Q166 145 182 128.5 Q198 112 219.5 102 Q241 92 266 92 Q291 92 313.5 102 Q336 112 352.5 128.5 Q369 145 379 167.5 Q389 190 389 216 Q389 241 380 263 Q371 285 355 301.5 Q339 318 317.5 328 Q296 338 271 339 Q246 339 223.5 330 Q201 321 184 304.5 Q167 288 157 265 Q147 242 147 216 Z M41 211 Q41 248 50 278 Q59 308 74 331.5 Q89 355 108 371.5 Q127 388 148 398 Q122 419 112.5 445.5 Q103 472 103 495 Q103 533 116 565 Q129 597 151 620 Q173 643 203 655.5 Q233 668 267 668 Q301 668 331.5 655 Q362 642 384.5 619.5 Q407 597 420 565.5 Q433 534 433 497 Q433 473 422.5 446.5 Q412 420 385 398 Q406 387 425 370 Q444 353 459 330 Q474 307 483 277 Q492 247 492 211 Q492 168 476 128.5 Q460 89 430.5 58.5 Q401 28 359.5 10 Q318 -8 266 -8 Q214 -8 172.5 10 Q131 28 101.5 58.5 Q72 89 56.5 128.5 Q41 168 41 211 Z " />
<glyph glyph-name="colon" unicode="&#x3a;" horiz-adv-x="232" d="M55 340 Q55 366 74.5 384 Q94 402 117 402 Q138 402 157.5 384 Q177 366 177 340 Q177 311 157.5 294.5 Q138 278 117 278 Q94 278 74.5 294.5 Q55 311 55 340 Z M55 62 Q55 88 74.5 106 Q94 124 117 124 Q138 124 157.5 106 Q177 88 177 62 Q177 33 157.5 16.5 Q138 0 117 0 Q94 0 74.5 16.5 Q55 33 55 62 Z " />
<glyph glyph-name="semicolon" unicode="&#x3b;" horiz-adv-x="259" d="M182 88 L94 -122 L2 -122 Q22 -69 41 -17.5 Q60 34 80 88 L182 88 Z M79 316 Q79 342 98 360 Q117 378 140 378 Q162 378 181 360 Q200 342 200 316 Q200 287 181 270.5 Q162 254 140 254 Q117 254 98 270.5 Q79 287 79 316 Z " />
<glyph glyph-name="quotedbl" unicode="&#x22;" horiz-adv-x="359" d="M198 479 L198 731 L299 731 L295 479 L198 479 Z M63 479 L63 731 L164 731 L160 479 L63 479 Z " />
<glyph glyph-name="numbersign" unicode="&#x23;" horiz-adv-x="585" d="M292 0 Q297 46 302.5 90.5 Q308 135 313 181 L230 181 Q225 135 219.5 90.5 Q214 46 209 0 L105 0 Q110 46 115.5 90.5 Q121 135 126 181 L39 181 Q42 207 45.5 231.5 Q49 256 51 281 L138 281 L149 368 L62 368 L73 467 L159 467 Q166 515 171.5 560.5 Q177 606 183 653 L287 653 L263 467 L347 467 Q352 515 358 560.5 Q364 606 370 653 L474 653 L450 467 L545 467 Q542 442 540 417.5 Q538 393 535 368 L439 368 L429 281 L524 281 Q521 256 517.5 231.5 Q514 207 512 181 L417 181 L395 0 L292 0 Z M252 368 Q250 346 247.5 324.5 Q245 303 242 281 L325 281 L335 368 L252 368 Z " />
<glyph glyph-name="percent" unicode="&#x25;" horiz-adv-x="733" d="M159 0 L462 508 L575 508 L272 0 L159 0 Z M562 -22 Q534 -22 509.5 -11.5 Q485 -1 466.5 17 Q448 35 437.5 59.5 Q427 84 427 112 Q427 140 437.5 164 Q448 188 466.5 206 Q485 224 509.5 234.5 Q534 245 562 245 Q589 245 613.5 234.5 Q638 224 656.5 206 Q675 188 686 164 Q697 140 697 112 Q697 84 686 59.5 Q675 35 656.5 17 Q638 -1 613.5 -11.5 Q589 -22 562 -22 Z M173 262 Q146 262 121.5 272.5 Q97 283 78.5 301 Q60 319 49 343 Q38 367 38 395 Q38 423 49 447 Q60 471 78.5 489 Q97 507 121.5 517.5 Q146 528 173 528 Q200 528 224.5 517.5 Q249 507 267.5 489 Q286 471 297 447 Q308 423 308 395 Q308 367 297 343 Q286 319 267.5 301 Q249 283 224.5 272.5 Q200 262 173 262 Z M142 395 Q142 381 150 371 Q158 361 173 361 Q188 361 196 371 Q204 381 204 395 Q204 410 196 419 Q188 428 173 428 Q158 428 150 419 Q142 410 142 395 Z M531 113 Q531 98 539 88.5 Q547 79 562 79 Q578 79 585.5 88.5 Q593 98 593 113 Q593 127 585.5 136 Q578 145 562 145 Q547 145 539 136 Q531 127 531 113 Z " />
<glyph glyph-name="quoteright" unicode="&#x2019;" horiz-adv-x="184" d="M91 574 Q78 580 66 586 Q54 592 40 600 Q62 620 71.5 650 Q81 680 74 715 L136 722 Q144 680 132 641.5 Q120 603 91 574 Z " />
<glyph glyph-name="parenleft" unicode="&#x28;" horiz-adv-x="304" d="M35 295 Q35 371 49 440 Q63 509 86.5 568.5 Q110 628 140 676 Q170 724 202 757 Q225 751 248.5 745.5 Q272 740 295 734 Q266 701 237.5 655 Q209 609 187 553.5 Q165 498 151.5 432.5 Q138 367 138 295 Q138 223 151.5 158 Q165 93 187 37 Q209 -19 237.5 -64.5 Q266 -110 295 -143 Q272 -150 248.5 -155.5 Q225 -161 202 -167 Q170 -133 140 -85 Q110 -37 86.5 22 Q63 81 49 150 Q35 219 35 295 Z " />
<glyph glyph-name="parenright" unicode="&#x29;" horiz-adv-x="305" d="M270 291 Q270 215 256 146 Q242 77 218.5 18 Q195 -41 165 -89 Q135 -137 103 -171 L10 -150 Q40 -117 68 -71 Q96 -25 118 30.5 Q140 86 153.5 151.5 Q167 217 167 289 Q167 361 153.5 426 Q140 491 118 547 Q96 603 68 648.5 Q40 694 10 728 Q33 734 56.5 740.5 Q80 747 103 754 Q135 720 165 672 Q195 624 218.5 565 Q242 506 256 436.5 Q270 367 270 291 Z " />
<glyph glyph-name="asterisk" unicode="&#x2a;" horiz-adv-x="374" d="M254 575 L327 533 L292 472 L220 515 Q220 495 219.5 474.5 Q219 454 219 434 L152 434 L152 515 L81 475 L46 536 Q64 546 81.5 556 Q99 566 118 576 L47 619 Q55 633 63 647.5 Q71 662 79 676 L152 634 L152 720 L223 720 Q223 698 222.5 677 Q222 656 222 634 Q240 645 258.5 655 Q277 665 296 675 Q304 661 312.5 646.5 Q321 632 329 618 Q310 607 292 596.5 Q274 586 254 575 Z " />
<glyph glyph-name="plus" unicode="&#x2b;" horiz-adv-x="447" d="M171 52 L171 184 L41 184 L41 284 L171 284 L171 417 L276 417 L276 284 L406 284 L406 184 L276 184 L276 52 L171 52 Z " />
<glyph glyph-name="nine" unicode="9" horiz-adv-x="533" d="M385 424 Q385 449 376 471.5 Q367 494 351 511.5 Q335 529 313.5 539 Q292 549 267 549 Q242 549 220 539 Q198 529 181 511.5 Q164 494 154 471.5 Q144 449 144 424 Q144 398 154 376 Q164 354 181 337.5 Q198 321 220 311.5 Q242 302 267 302 Q292 302 313.5 311.5 Q335 321 351 337.5 Q367 354 376 376 Q385 398 385 424 Z M492 424 Q492 370 475 322.5 Q458 275 430.5 233.5 Q403 192 368 156 Q333 120 296.5 90 Q260 60 225 35.5 Q190 11 164 -8 Q147 12 131.5 31.5 Q116 51 100 71 Q124 87 154.5 107.5 Q185 128 215 148.5 Q245 169 269 187.5 Q293 206 304 218 Q290 202 268 202 Q222 202 180.5 219 Q139 236 108 266 Q77 296 59 336 Q41 376 41 423 Q41 469 59 510 Q77 551 108 582 Q139 613 180 630.5 Q221 648 267 648 Q304 648 343.5 635 Q383 622 416 595 Q449 568 470.5 525.5 Q492 483 492 424 Z " />
<glyph glyph-name="bar" unicode="&#x7c;" horiz-adv-x="272" d="M84 -236 L84 711 L188 711 L188 -236 L84 -236 Z " />
<glyph glyph-name="braceleft" unicode="&#x7b;" horiz-adv-x="339" d="M27 252 L27 349 Q52 350 67.5 364 Q83 378 92 398 Q101 418 104 442 Q107 466 107 487 L107 638 Q107 686 117 710.5 Q127 735 144.5 745.5 Q162 756 185.5 757 Q209 758 236 758 L306 758 L306 658 L265 658 Q250 658 239.5 654.5 Q229 651 223 640.5 Q217 630 214.5 609.5 Q212 589 212 556 L212 430 Q212 403 205 382.5 Q198 362 188 346 Q178 330 167 319.5 Q156 309 147 302 Q156 296 167 285.5 Q178 275 188 259 Q198 243 205 222.5 Q212 202 212 176 L212 51 Q212 18 214.5 -2.5 Q217 -23 223 -34 Q229 -45 239.5 -48.5 Q250 -52 265 -52 L306 -52 L306 -152 L236 -152 Q211 -152 188 -151.5 Q165 -151 147 -141 Q129 -131 118 -108 Q107 -85 107 -41 L107 114 Q107 135 104 159 Q101 183 92 203 Q83 223 67.5 237 Q52 251 27 252 Z " />
<glyph glyph-name="braceright" unicode="&#x7d;" horiz-adv-x="340" d="M313 349 L313 252 Q290 251 275 239 Q260 227 250 209 Q240 191 236 168.5 Q232 146 232 124 L232 -32 Q232 -79 222 -104 Q212 -129 194.5 -139.5 Q177 -150 154 -151 Q131 -152 104 -152 L33 -152 L33 -52 L74 -52 Q90 -52 100 -48.5 Q110 -45 116 -34 Q122 -23 124.5 -2.5 Q127 18 127 51 L127 167 Q127 197 134 219.5 Q141 242 151 258.5 Q161 275 172.5 285.5 Q184 296 193 302 Q184 309 172.5 319.5 Q161 330 151 346 Q141 362 134 382.5 Q127 403 127 430 L127 556 Q127 589 124.5 609.5 Q122 630 116 640.5 Q110 651 100 654.5 Q90 658 74 658 L33 658 L33 758 L104 758 Q129 758 152.5 757 Q176 756 193.5 745.5 Q211 735 221.5 710.5 Q232 686 232 638 L232 477 Q232 456 236 433.5 Q240 411 250 392.5 Q260 374 275 362 Q290 350 313 349 Z " />
<glyph glyph-name="zero" unicode="0" horiz-adv-x="636" d="M46 333 Q46 417 68 480 Q90 543 127.5 585 Q165 627 214.5 647.5 Q264 668 319 668 Q379 668 429 644.5 Q479 621 515 577 Q551 533 571 470 Q591 407 590 328 Q589 248 568 185 Q547 122 510.5 79 Q474 36 424 13.5 Q374 -9 316 -9 Q260 -9 210.5 13.5 Q161 36 124.5 79 Q88 122 67 186 Q46 250 46 333 Z M149 330 Q149 282 161.5 239 Q174 196 196.5 163.5 Q219 131 250 111.5 Q281 92 316 92 Q351 92 382 111 Q413 130 436 162.5 Q459 195 472.5 238.5 Q486 282 486 330 Q486 362 478.5 403.5 Q471 445 452.5 481.5 Q434 518 401.5 543.5 Q369 569 320 569 Q268 569 235 542 Q202 515 183 477.5 Q164 440 156.5 399 Q149 358 149 330 Z " />
<glyph glyph-name="hyphen" unicode="&#x2d;" horiz-adv-x="298" d="M55 171 L55 272 L242 272 L242 171 L55 171 Z " />
<glyph glyph-name="slash" unicode="&#x2f;" horiz-adv-x="445" d="M29 -19 Q101 174 170.5 364.5 Q240 555 312 748 L415 748 L133 -19 L29 -19 Z " />
<glyph glyph-name="backslash" unicode="&#x5c;" horiz-adv-x="456" d="M145 748 Q216 555 286 364.5 Q356 174 428 -19 L311 -19 Q240 174 170 364.5 Q100 555 28 748 L145 748 Z " />
<glyph glyph-name="G" unicode="G" horiz-adv-x="688" d="M635 354 L635 44 Q593 19 533.5 5.5 Q474 -8 412 -8 Q326 -8 256.5 19 Q187 46 138 93 Q89 140 63 205 Q37 270 37 347 Q37 434 68 505.5 Q99 577 151.5 628.5 Q204 680 273.5 708.5 Q343 737 420 737 Q446 737 474.5 733.5 Q503 730 531 723 Q559 716 585 706.5 Q611 697 632 684 L572 584 Q558 593 538.5 599.5 Q519 606 498 611 Q477 616 456.5 618.5 Q436 621 418 621 Q367 621 320.5 600.5 Q274 580 238 545 Q202 510 180.5 461.5 Q159 413 159 358 Q159 308 178 263 Q197 218 231 183.5 Q265 149 312 128.5 Q359 108 415 108 Q435 108 465 111.5 Q495 115 522 124 L522 248 L386 248 L386 354 L635 354 Z " />
<glyph glyph-name="V" unicode="V" horiz-adv-x="653" d="M121 729 L316 260 Q316 259 320 246.5 Q324 234 326 223 Q328 234 332 246.5 Q336 259 337 260 L532 729 L653 729 Q649 720 634 684 Q619 648 596.5 595.5 Q574 543 546.5 478.5 Q519 414 490 347.5 Q461 281 433.5 216 Q406 151 383.5 98.5 Q361 46 345.5 10.5 Q330 -25 326 -34 Q322 -25 307 10.5 Q292 46 269.5 98.5 Q247 151 219.5 216 Q192 281 163 347.5 Q134 414 106.5 478.5 Q79 543 56.5 595.5 Q34 648 19 684 Q4 720 0 729 L121 729 Z " />
<glyph glyph-name="S" unicode="S" horiz-adv-x="571" d="M514 688 L470 588 Q428 603 387 612 Q346 621 311 621 Q250 621 214.5 597 Q179 573 179 536 Q179 504 205.5 484 Q232 464 272 448 Q312 432 358.5 415.5 Q405 399 445 373 Q485 347 511.5 307 Q538 267 538 205 Q538 157 520.5 118 Q503 79 468 51 Q433 23 379.5 7.5 Q326 -8 254 -8 Q210 -8 174 -2 Q138 4 109.5 13 Q81 22 59 32.5 Q37 43 21 53 L74 160 Q116 137 164 124.5 Q212 112 249 112 Q267 112 295.5 116 Q324 120 351 131 Q378 142 397.5 161 Q417 180 417 210 Q417 245 390.5 267.5 Q364 290 324 307.5 Q284 325 237.5 342 Q191 359 151 382.5 Q111 406 84.5 440.5 Q58 475 58 528 Q58 566 73 602.5 Q88 639 118.5 668 Q149 697 194.5 715 Q240 733 302 733 Q341 733 377.5 726.5 Q414 720 443 712 Q472 704 491 696.5 Q510 689 514 688 Z " />
<glyph glyph-name="Z" unicode="Z" horiz-adv-x="640" d="M188 729 L610 729 L214 118 L616 118 L616 0 L0 0 Q6 9 25.5 39 Q45 69 73 112.5 Q101 156 135 209.5 Q169 263 203.5 318 Q238 373 272 426 Q306 479 334 522 Q362 565 381.5 595 Q401 625 407 633 L136 633 Q120 633 104 637.5 Q88 642 75.5 651 Q63 660 55 672.5 Q47 685 47 700 L47 765 L156 765 L156 752 Q156 732 163 730.5 Q170 729 188 729 Z " />
<glyph glyph-name="W" unicode="W" horiz-adv-x="953" d="M947 725 Q911 630 872 528.5 Q833 427 794.5 327.5 Q756 228 720.5 136 Q685 44 657 -32 L493 374 Q489 383 488 386 Q487 389 485 398 Q484 394 483.5 390 Q483 386 482 383 Q481 379 479 375 Q443 296 410 221 Q396 189 380.5 154.5 Q365 120 350 86.5 Q335 53 321 22 Q307 -9 296 -34 Q224 157 151 345.5 Q78 534 6 725 L145 725 Q190 598 231.5 486 Q273 374 296 287 Q298 279 300 269 Q302 259 304 251 Q304 257 308.5 268.5 Q313 280 315 286 Q316 291 322 304.5 Q328 318 336 336 Q344 354 354 375.5 Q364 397 374 419 Q398 470 426 531 Q412 573 400 611 Q389 643 378.5 675.5 Q368 708 363 725 L481 725 Q524 614 559 522 Q574 483 589 444.5 Q604 406 616 373.5 Q628 341 636.5 318 Q645 295 648 287 Q652 278 653 269.5 Q654 261 656 252 Q658 261 659.5 270 Q661 279 663 287 Q673 332 690.5 383.5 Q708 435 729 491 Q750 547 773.5 606 Q797 665 819 725 L947 725 Z " />
<glyph glyph-name="X" unicode="X" horiz-adv-x="646" d="M243 373 Q239 378 221.5 405 Q204 432 180 470 Q156 508 128 551 Q100 594 76 631.5 Q52 669 34.5 696 Q17 723 14 729 L165 729 Q168 724 179 706 Q190 688 205 663.5 Q220 639 236.5 611.5 Q253 584 268 559.5 Q283 535 293.5 517 Q304 499 308 494 Q309 493 315 480 Q321 467 325 458 Q329 467 335 480 Q341 493 342 494 Q345 499 355.5 517 Q366 535 380.5 559.5 Q395 584 411 611.5 Q427 639 441.5 663.5 Q456 688 466.5 706 Q477 724 480 729 L631 729 L404 366 L640 0 L487 0 L344 233 Q343 234 339.5 240 Q336 246 332 253 Q328 260 324 267 Q320 274 319 277 Q315 267 309.5 256 Q304 245 304 244 Q300 238 289 219.5 Q278 201 263 176 Q248 151 231 122 Q214 93 199 68 Q184 43 173 24 Q162 5 158 0 L4 0 Q8 6 26 34.5 Q44 63 69 102 Q94 141 123 186.5 Q152 232 177.5 271 Q203 310 221 338.5 Q239 367 243 373 Z " />
<glyph glyph-name="AE" unicode="&#xc6;" horiz-adv-x="743" d="M313 0 L313 192 L202 192 L122 0 L1 0 Q5 9 19.5 43.5 Q34 78 55.5 128 Q77 178 103 239.5 Q129 301 156.5 364.5 Q184 428 210.5 489.5 Q237 551 258.5 601 Q280 651 294.5 685.5 Q309 720 313 729 L693 729 L693 618 L428 618 L428 422 L653 422 L653 308 L428 308 L428 114 L707 114 L707 0 L313 0 Z M313 460 Q304 439 284 391.5 Q264 344 241 287 L313 287 L313 460 Z " />
<glyph glyph-name="Ntilde" unicode="&#xd1;" horiz-adv-x="812" d="M728 729 L728 -34 Q721 -25 697 -1 Q673 23 638 56.5 Q603 90 560.5 130.5 Q518 171 474 212.5 Q430 254 388 294 Q346 334 311.5 367.5 Q277 401 253.5 424.5 Q230 448 223 457 Q222 459 215 467.5 Q208 476 203 483 L206 451 L206 0 L84 0 L84 762 Q91 753 115 729.5 Q139 706 174 673 Q209 640 251.5 601 Q294 562 338 521.5 Q382 481 424 441.5 Q466 402 501 369.5 Q536 337 559.5 314 Q583 291 590 282 L609 254 L606 288 L606 729 L728 729 Z M393 789 Q377 803 366 808.5 Q355 814 341 814 Q334 814 326 812.5 Q318 811 310.5 806 Q303 801 297 792.5 Q291 784 290 770 L236 772 Q237 793 246 810.5 Q255 828 268.5 840.5 Q282 853 298.5 860 Q315 867 331 867 Q356 867 375 859 Q394 851 411 835 Q427 820 438 815 Q449 810 463 810 Q470 810 478 811.5 Q486 813 493.5 818 Q501 823 506.5 831.5 Q512 840 514 854 L568 852 Q567 831 558 813.5 Q549 796 535.5 783.5 Q522 771 505.5 764 Q489 757 473 757 Q449 757 429.5 765.5 Q410 774 393 789 Z " />
<glyph glyph-name="Aring" unicode="&#xc5;" horiz-adv-x="653" d="M532 0 Q529 7 521.5 25 Q514 43 503 69 Q492 95 479 126.5 Q466 158 452 192 L201 192 L121 0 L0 0 Q4 9 19 44.5 Q34 80 56.5 132.5 Q79 185 106.5 249.5 Q134 314 163 381 Q192 448 219.5 512.5 Q247 577 269.5 629.5 Q292 682 307 717.5 Q322 753 326 762 Q330 753 345.5 717.5 Q361 682 383.5 629.5 Q406 577 433.5 512.5 Q461 448 490 381 Q519 314 546.5 249.5 Q574 185 596.5 132.5 Q619 80 634 44.5 Q649 9 653 0 L532 0 Z M239 852 Q239 870 246 885.5 Q253 901 265 913 Q277 925 293 932 Q309 939 327 939 Q345 939 361 932 Q377 925 389 913 Q401 901 408 885.5 Q415 870 415 852 Q415 834 408 818 Q401 802 389 789.5 Q377 777 361 770 Q345 763 327 763 Q309 763 293 770 Q277 777 265 789.5 Q253 802 246 818 Q239 834 239 852 Z M243 295 L409 295 L337 469 Q336 470 332 482.5 Q328 495 326 505 Q324 495 320 482.5 Q316 470 316 469 L243 295 Z M294 850 Q294 836 303.5 827 Q313 818 327 818 Q341 818 350.5 827 Q360 836 360 850 Q360 865 350.5 874.5 Q341 884 327 884 Q313 884 303.5 874.5 Q294 865 294 850 Z " />
<glyph glyph-name="Aacute" unicode="&#xc1;" horiz-adv-x="653" d="M653 0 Q649 9 634 44.5 Q619 80 596.5 132.5 Q574 185 546.5 249.5 Q519 314 490 381 Q461 448 433.5 512.5 Q406 577 383.5 629.5 Q361 682 345.5 717.5 Q330 753 326 762 Q322 753 307 717.5 Q292 682 269.5 629.5 Q247 577 219.5 512.5 Q192 448 163 381 Q134 314 106.5 249.5 Q79 185 56.5 132.5 Q34 80 19 44.5 Q4 9 0 0 L121 0 L201 192 L452 192 Q466 158 479 126.5 Q492 95 503 69 Q514 43 521.5 25 Q529 7 532 0 L653 0 Z M316 469 Q316 470 320 482.5 Q324 495 326 505 Q328 495 332 482.5 Q336 470 337 469 L409 295 L243 295 L316 469 Z M275 770 Q298 803 320.5 837 Q343 871 366 905 L469 905 Q439 871 408 837 Q377 803 346 770 L275 770 Z " />
<glyph glyph-name="Eacute" unicode="&#xc9;" horiz-adv-x="619" d="M84 0 L84 729 L568 729 L568 618 L206 618 L206 422 L528 422 L528 308 L206 308 L206 114 L582 114 L582 0 L84 0 Z M269 770 Q292 803 314.5 837 Q337 871 360 905 L463 905 Q433 871 402 837 Q371 803 340 770 L269 770 Z " />
<glyph glyph-name="Iacute" unicode="&#xcd;" horiz-adv-x="291" d="M84 729 L207 729 L207 0 L84 0 L84 729 Z M94 770 Q117 803 139.5 837 Q162 871 185 905 L288 905 Q258 871 227 837 Q196 803 165 770 L94 770 Z " />
<glyph glyph-name="Oacute" unicode="&#xd3;" horiz-adv-x="817" d="M36 363 Q36 439 65.5 507 Q95 575 145.5 626 Q196 677 263.5 707 Q331 737 408 737 Q484 737 552 707 Q620 677 671 626 Q722 575 751.5 507 Q781 439 781 363 Q781 286 751.5 218.5 Q722 151 671 100.5 Q620 50 552 21 Q484 -8 408 -8 Q331 -8 263.5 21 Q196 50 145.5 100.5 Q95 151 65.5 218.5 Q36 286 36 363 Z M159 363 Q159 310 178.5 263.5 Q198 217 232.5 182.5 Q267 148 312.5 128 Q358 108 411 108 Q462 108 507.5 128 Q553 148 586.5 182.5 Q620 217 639.5 263.5 Q659 310 659 363 Q659 416 639 462.5 Q619 509 585 544 Q551 579 505.5 599 Q460 619 408 619 Q356 619 310.5 599 Q265 579 231.5 544 Q198 509 178.5 462.5 Q159 416 159 363 Z M350 770 Q373 803 395.5 837 Q418 871 441 905 L544 905 Q514 871 483 837 Q452 803 421 770 L350 770 Z " />
<glyph glyph-name="Uacute" unicode="&#xda;" horiz-adv-x="720" d="M359 -8 Q300 -8 248.5 11.5 Q197 31 159 66 Q121 101 99 150.5 Q77 200 77 260 L77 729 L199 729 L199 263 Q199 231 211.5 203 Q224 175 245.5 154 Q267 133 296 120.5 Q325 108 359 108 Q393 108 422.5 120.5 Q452 133 474 154 Q496 175 508.5 203 Q521 231 521 263 L521 729 L643 729 L643 260 Q643 200 621 150.5 Q599 101 560.5 66 Q522 31 470 11.5 Q418 -8 359 -8 Z M306 770 Q329 803 351.5 837 Q374 871 397 905 L500 905 Q470 871 439 837 Q408 803 377 770 L306 770 Z " />
<glyph glyph-name="Adieresis" unicode="&#xc4;" horiz-adv-x="653" d="M653 0 Q649 9 634 44.5 Q619 80 596.5 132.5 Q574 185 546.5 249.5 Q519 314 490 381 Q461 448 433.5 512.5 Q406 577 383.5 629.5 Q361 682 345.5 717.5 Q330 753 326 762 Q322 753 307 717.5 Q292 682 269.5 629.5 Q247 577 219.5 512.5 Q192 448 163 381 Q134 314 106.5 249.5 Q79 185 56.5 132.5 Q34 80 19 44.5 Q4 9 0 0 L121 0 L201 192 L452 192 Q466 158 479 126.5 Q492 95 503 69 Q514 43 521.5 25 Q529 7 532 0 L653 0 Z M316 469 Q316 470 320 482.5 Q324 495 326 505 Q328 495 332 482.5 Q336 470 337 469 L409 295 L243 295 L316 469 Z M361 837 Q361 863 380.5 881 Q400 899 423 899 Q444 899 463.5 881 Q483 863 483 837 Q483 809 463.5 792 Q444 775 423 775 Q400 775 380.5 792 Q361 809 361 837 Z M168 837 Q168 863 187.5 881 Q207 899 230 899 Q251 899 270.5 881 Q290 863 290 837 Q290 809 270.5 792 Q251 775 230 775 Q207 775 187.5 792 Q168 809 168 837 Z " />
<glyph glyph-name="Edieresis" unicode="&#xcb;" horiz-adv-x="619" d="M84 0 L84 729 L568 729 L568 618 L206 618 L206 422 L528 422 L528 308 L206 308 L206 114 L582 114 L582 0 L84 0 Z M375 837 Q375 863 394.5 881 Q414 899 437 899 Q458 899 477.5 881 Q497 863 497 837 Q497 809 477.5 792 Q458 775 437 775 Q414 775 394.5 792 Q375 809 375 837 Z M182 837 Q182 863 201.5 881 Q221 899 244 899 Q265 899 284.5 881 Q304 863 304 837 Q304 809 284.5 792 Q265 775 244 775 Q221 775 201.5 792 Q182 809 182 837 Z " />
<glyph glyph-name="Idieresis" unicode="&#xcf;" horiz-adv-x="291" d="M84 729 L207 729 L207 0 L84 0 L84 729 Z M184 837 Q184 863 203.5 881 Q223 899 246 899 Q267 899 286.5 881 Q306 863 306 837 Q306 809 286.5 792 Q267 775 246 775 Q223 775 203.5 792 Q184 809 184 837 Z M-9 837 Q-9 863 10.5 881 Q30 899 53 899 Q74 899 93.5 881 Q113 863 113 837 Q113 809 93.5 792 Q74 775 53 775 Q30 775 10.5 792 Q-9 809 -9 837 Z " />
<glyph glyph-name="Odieresis" unicode="&#xd6;" horiz-adv-x="817" d="M36 363 Q36 439 65.5 507 Q95 575 145.5 626 Q196 677 263.5 707 Q331 737 408 737 Q484 737 552 707 Q620 677 671 626 Q722 575 751.5 507 Q781 439 781 363 Q781 286 751.5 218.5 Q722 151 671 100.5 Q620 50 552 21 Q484 -8 408 -8 Q331 -8 263.5 21 Q196 50 145.5 100.5 Q95 151 65.5 218.5 Q36 286 36 363 Z M159 363 Q159 310 178.5 263.5 Q198 217 232.5 182.5 Q267 148 312.5 128 Q358 108 411 108 Q462 108 507.5 128 Q553 148 586.5 182.5 Q620 217 639.5 263.5 Q659 310 659 363 Q659 416 639 462.5 Q619 509 585 544 Q551 579 505.5 599 Q460 619 408 619 Q356 619 310.5 599 Q265 579 231.5 544 Q198 509 178.5 462.5 Q159 416 159 363 Z M449 837 Q449 863 468.5 881 Q488 899 511 899 Q532 899 551.5 881 Q571 863 571 837 Q571 809 551.5 792 Q532 775 511 775 Q488 775 468.5 792 Q449 809 449 837 Z M256 837 Q256 863 275.5 881 Q295 899 318 899 Q339 899 358.5 881 Q378 863 378 837 Q378 809 358.5 792 Q339 775 318 775 Q295 775 275.5 792 Q256 809 256 837 Z " />
<glyph glyph-name="Udieresis" unicode="&#xdc;" horiz-adv-x="720" d="M359 -8 Q300 -8 248.5 11.5 Q197 31 159 66 Q121 101 99 150.5 Q77 200 77 260 L77 729 L199 729 L199 263 Q199 231 211.5 203 Q224 175 245.5 154 Q267 133 296 120.5 Q325 108 359 108 Q393 108 422.5 120.5 Q452 133 474 154 Q496 175 508.5 203 Q521 231 521 263 L521 729 L643 729 L643 260 Q643 200 621 150.5 Q599 101 560.5 66 Q522 31 470 11.5 Q418 -8 359 -8 Z M405 837 Q405 863 424.5 881 Q444 899 467 899 Q488 899 507.5 881 Q527 863 527 837 Q527 809 507.5 792 Q488 775 467 775 Q444 775 424.5 792 Q405 809 405 837 Z M212 837 Q212 863 231.5 881 Q251 899 274 899 Q295 899 314.5 881 Q334 863 334 837 Q334 809 314.5 792 Q295 775 274 775 Q251 775 231.5 792 Q212 809 212 837 Z " />
<glyph glyph-name="Agrave" unicode="&#xc0;" horiz-adv-x="653" d="M653 0 Q649 9 634 44.5 Q619 80 596.5 132.5 Q574 185 546.5 249.5 Q519 314 490 381 Q461 448 433.5 512.5 Q406 577 383.5 629.5 Q361 682 345.5 717.5 Q330 753 326 762 Q322 753 307 717.5 Q292 682 269.5 629.5 Q247 577 219.5 512.5 Q192 448 163 381 Q134 314 106.5 249.5 Q79 185 56.5 132.5 Q34 80 19 44.5 Q4 9 0 0 L121 0 L201 192 L452 192 Q466 158 479 126.5 Q492 95 503 69 Q514 43 521.5 25 Q529 7 532 0 L653 0 Z M316 469 Q316 470 320 482.5 Q324 495 326 505 Q328 495 332 482.5 Q336 470 337 469 L409 295 L243 295 L316 469 Z M291 905 Q314 871 337 837 Q360 803 383 770 L311 770 Q280 803 249 837 Q218 871 188 905 L291 905 Z " />
<glyph glyph-name="Egrave" unicode="&#xc8;" horiz-adv-x="619" d="M84 0 L84 729 L568 729 L568 618 L206 618 L206 422 L528 422 L528 308 L206 308 L206 114 L582 114 L582 0 L84 0 Z M314 905 Q337 871 360 837 Q383 803 406 770 L334 770 Q303 803 272 837 Q241 871 211 905 L314 905 Z " />
<glyph glyph-name="Igrave" unicode="&#xcc;" horiz-adv-x="291" d="M84 729 L207 729 L207 0 L84 0 L84 729 Z M109 905 Q132 871 155 837 Q178 803 201 770 L129 770 Q98 803 67 837 Q36 871 6 905 L109 905 Z " />
<glyph glyph-name="Ograve" unicode="&#xd2;" horiz-adv-x="817" d="M36 363 Q36 439 65.5 507 Q95 575 145.5 626 Q196 677 263.5 707 Q331 737 408 737 Q484 737 552 707 Q620 677 671 626 Q722 575 751.5 507 Q781 439 781 363 Q781 286 751.5 218.5 Q722 151 671 100.5 Q620 50 552 21 Q484 -8 408 -8 Q331 -8 263.5 21 Q196 50 145.5 100.5 Q95 151 65.5 218.5 Q36 286 36 363 Z M159 363 Q159 310 178.5 263.5 Q198 217 232.5 182.5 Q267 148 312.5 128 Q358 108 411 108 Q462 108 507.5 128 Q553 148 586.5 182.5 Q620 217 639.5 263.5 Q659 310 659 363 Q659 416 639 462.5 Q619 509 585 544 Q551 579 505.5 599 Q460 619 408 619 Q356 619 310.5 599 Q265 579 231.5 544 Q198 509 178.5 462.5 Q159 416 159 363 Z M396 905 Q419 871 442 837 Q465 803 488 770 L416 770 Q385 803 354 837 Q323 871 293 905 L396 905 Z " />
<glyph glyph-name="Ugrave" unicode="&#xd9;" horiz-adv-x="720" d="M359 -8 Q300 -8 248.5 11.5 Q197 31 159 66 Q121 101 99 150.5 Q77 200 77 260 L77 729 L199 729 L199 263 Q199 231 211.5 203 Q224 175 245.5 154 Q267 133 296 120.5 Q325 108 359 108 Q393 108 422.5 120.5 Q452 133 474 154 Q496 175 508.5 203 Q521 231 521 263 L521 729 L643 729 L643 260 Q643 200 621 150.5 Q599 101 560.5 66 Q522 31 470 11.5 Q418 -8 359 -8 Z M340 905 Q363 871 386 837 Q409 803 432 770 L360 770 Q329 803 298 837 Q267 871 237 905 L340 905 Z " />
<glyph glyph-name="Yacute" unicode="&#xdd;" horiz-adv-x="669" d="M396 236 L396 0 L273 0 L273 236 Q268 243 248 280.5 Q228 318 199 370.5 Q170 423 138 482.5 Q106 542 77 594.5 Q48 647 28 684.5 Q8 722 3 729 L142 729 Q146 722 157.5 700.5 Q169 679 185 648.5 Q201 618 220 581.5 Q239 545 258 508.5 Q277 472 294 438.5 Q311 405 324 380 L335 346 Q339 354 342 363.5 Q345 373 348 380 Q361 405 378 438.5 Q395 472 413.5 508.5 Q432 545 450.5 581.5 Q469 618 484.5 648.5 Q500 679 511 700.5 Q522 722 526 729 L665 729 L396 236 Z M283 770 Q306 803 328.5 837 Q351 871 374 905 L477 905 Q447 871 416 837 Q385 803 354 770 L283 770 Z " />
<glyph glyph-name="exclamdown" unicode="&#xa1;" horiz-adv-x="273" d="M85 381 L188 381 L188 -213 L85 -213 L85 381 Z M137 559 Q159 559 178 541 Q197 523 197 496 Q197 469 178 452 Q159 435 137 435 Q113 435 94 452 Q75 469 75 496 Q75 523 94 541 Q113 559 137 559 Z " />
<glyph glyph-name="Oslash" unicode="&#xd8;" horiz-adv-x="817" d="M36 363 Q36 439 65.5 507 Q95 575 145.5 626 Q196 677 263.5 707 Q331 737 408 737 Q467 737 521 718.5 Q575 700 620 668 L677 734 L734 682 L678 617 Q726 566 753.5 501 Q781 436 781 363 Q781 286 751.5 218.5 Q722 151 671 100.5 Q620 50 552 21 Q484 -8 408 -8 Q349 -8 296 9 Q243 26 198 57 L133 -18 L74 34 L138 108 Q90 158 63 223 Q36 288 36 363 Z M159 363 Q159 316 174 274 Q189 232 217 199 L543 578 Q514 598 479.5 608.5 Q445 619 408 619 Q356 619 310.5 599 Q265 579 231.5 544 Q198 509 178.5 462.5 Q159 416 159 363 Z M275 147 Q304 128 338.5 118 Q373 108 411 108 Q462 108 507.5 128 Q553 148 586.5 182.5 Q620 217 639.5 263.5 Q659 310 659 363 Q659 410 643.5 451.5 Q628 493 600 526 L275 147 Z " />
<glyph glyph-name="questiondown" unicode="&#xbf;" horiz-adv-x="475" d="M353 -11 Q375 -19 397.5 -27.5 Q420 -36 442 -44 Q436 -64 424 -92 Q412 -120 389 -145 Q366 -170 329 -187.5 Q292 -205 235 -205 Q193 -205 156.5 -189.5 Q120 -174 93.5 -147 Q67 -120 51.5 -84 Q36 -48 36 -7 Q36 50 62.5 93 Q89 136 135 171 Q148 180 164 191 Q180 202 194.5 216 Q209 230 219 249 Q229 268 229 293 L229 373 L333 373 L333 274 Q333 241 323 220 Q313 199 296.5 183.5 Q280 168 258.5 154.5 Q237 141 215 124 Q141 68 141 -7 Q141 -49 166.5 -77 Q192 -105 235 -105 Q263 -105 282 -99 Q301 -93 314.5 -81.5 Q328 -70 336.5 -52.5 Q345 -35 353 -11 Z M282 545 Q305 545 324.5 528.5 Q344 512 344 484 Q344 458 324.5 440 Q305 422 282 422 Q260 422 241 440 Q222 458 222 484 Q222 512 241 528.5 Q260 545 282 545 Z " />
<glyph glyph-name="Atilde" unicode="&#xc3;" horiz-adv-x="653" d="M653 0 Q649 9 634 44.5 Q619 80 596.5 132.5 Q574 185 546.5 249.5 Q519 314 490 381 Q461 448 433.5 512.5 Q406 577 383.5 629.5 Q361 682 345.5 717.5 Q330 753 326 762 Q322 753 307 717.5 Q292 682 269.5 629.5 Q247 577 219.5 512.5 Q192 448 163 381 Q134 314 106.5 249.5 Q79 185 56.5 132.5 Q34 80 19 44.5 Q4 9 0 0 L121 0 L201 192 L452 192 Q466 158 479 126.5 Q492 95 503 69 Q514 43 521.5 25 Q529 7 532 0 L653 0 Z M318 800 Q302 814 291 819.5 Q280 825 266 825 Q259 825 251 823.5 Q243 822 235.5 817 Q228 812 222 803.5 Q216 795 215 781 L161 783 Q162 804 171 821.5 Q180 839 193.5 851.5 Q207 864 223.5 871 Q240 878 256 878 Q281 878 300 870 Q319 862 336 846 Q352 831 363 826 Q374 821 388 821 Q395 821 403 822.5 Q411 824 418.5 829 Q426 834 431.5 842.5 Q437 851 439 865 L493 863 Q492 842 483 824.5 Q474 807 460.5 794.5 Q447 782 430.5 775 Q414 768 398 768 Q374 768 354.5 776.5 Q335 785 318 800 Z M316 469 Q316 470 320 482.5 Q324 495 326 505 Q328 495 332 482.5 Q336 470 337 469 L409 295 L243 295 L316 469 Z " />
<glyph glyph-name="Otilde" unicode="&#xd5;" horiz-adv-x="817" d="M36 363 Q36 439 65.5 507 Q95 575 145.5 626 Q196 677 263.5 707 Q331 737 408 737 Q484 737 552 707 Q620 677 671 626 Q722 575 751.5 507 Q781 439 781 363 Q781 286 751.5 218.5 Q722 151 671 100.5 Q620 50 552 21 Q484 -8 408 -8 Q331 -8 263.5 21 Q196 50 145.5 100.5 Q95 151 65.5 218.5 Q36 286 36 363 Z M159 363 Q159 310 178.5 263.5 Q198 217 232.5 182.5 Q267 148 312.5 128 Q358 108 411 108 Q462 108 507.5 128 Q553 148 586.5 182.5 Q620 217 639.5 263.5 Q659 310 659 363 Q659 416 639 462.5 Q619 509 585 544 Q551 579 505.5 599 Q460 619 408 619 Q356 619 310.5 599 Q265 579 231.5 544 Q198 509 178.5 462.5 Q159 416 159 363 Z M400 823 Q384 837 373 842.5 Q362 848 348 848 Q341 848 333 846.5 Q325 845 317.5 840 Q310 835 304 826.5 Q298 818 297 804 L243 806 Q244 827 253 844.5 Q262 862 275.5 874.5 Q289 887 305.5 894 Q322 901 338 901 Q363 901 382 893 Q401 885 418 869 Q434 854 445 849 Q456 844 470 844 Q477 844 485 845.5 Q493 847 500.5 852 Q508 857 513.5 865.5 Q519 874 521 888 L575 886 Q574 865 565 847.5 Q556 830 542.5 817.5 Q529 805 512.5 798 Q496 791 480 791 Q456 791 436.5 799.5 Q417 808 400 823 Z " />
<glyph glyph-name="acircumflex" unicode="&#xe2;" horiz-adv-x="546" d="M31 208 Q31 254 49 295.5 Q67 337 97.5 368 Q128 399 168.5 417.5 Q209 436 254 436 Q284 436 308 428.5 Q332 421 349.5 411 Q367 401 377 390.5 Q387 380 390 374 L394 425 L487 425 L487 0 L390 0 L390 28 Q390 33 390.5 37.5 Q391 42 391 44 Q387 39 377 29.5 Q367 20 350 11 Q333 2 309.5 -4.5 Q286 -11 255 -11 Q206 -11 165 7 Q124 25 94 55 Q64 85 47.5 124.5 Q31 164 31 208 Z M128 214 Q128 186 137.5 162 Q147 138 164.5 120.5 Q182 103 206 93 Q230 83 259 83 Q288 83 312 93 Q336 103 353.5 121 Q371 139 380.5 163 Q390 187 390 214 Q390 241 380.5 264.5 Q371 288 353.5 305 Q336 322 312 332 Q288 342 259 342 Q230 342 206 332.5 Q182 323 164.5 305.5 Q147 288 137.5 264.5 Q128 241 128 214 Z M257 669 Q288 624 318.5 578 Q349 532 380 486 L308 486 L257 553 L207 486 L136 486 L257 669 Z " />
<glyph glyph-name="ecircumflex" unicode="&#xea;" horiz-adv-x="473" d="M424 49 Q393 21 349 5 Q305 -11 259 -11 Q212 -11 170.5 6.5 Q129 24 98.5 54.5 Q68 85 50 125.5 Q32 166 32 212 Q32 258 50 298.5 Q68 339 98.5 369.5 Q129 400 169.5 417.5 Q210 435 255 435 Q327 435 381.5 391.5 Q436 348 459 277 Q429 266 389.5 250.5 Q350 235 307 218 Q264 201 221 183.5 Q178 166 142 152 Q159 121 189 102 Q219 83 257 83 Q283 83 309.5 92.5 Q336 102 353 118 L424 49 Z M227 670 Q258 625 288.5 579 Q319 533 350 487 L278 487 L227 554 L177 487 L106 487 L227 670 Z M340 299 Q328 321 304 331.5 Q280 342 257 342 Q230 342 206 331.5 Q182 321 165 303.5 Q148 286 138 263.5 Q128 241 128 217 L128 213 Q153 223 181.5 234.5 Q210 246 238.5 258 Q267 270 293 280.5 Q319 291 340 299 Z " />
<glyph glyph-name="icircumflex" unicode="&#xee;" horiz-adv-x="214" d="M155 0 L59 0 L59 425 L155 425 L155 0 Z M108 670 Q139 625 169.5 579 Q200 533 231 487 L159 487 L108 554 L58 487 L-13 487 L108 670 Z " />
<glyph glyph-name="ocircumflex" unicode="&#xf4;" horiz-adv-x="514" d="M32 213 Q32 259 49.5 299.5 Q67 340 98 370 Q129 400 170.5 417.5 Q212 435 259 435 Q307 435 348 417.5 Q389 400 418.5 370 Q448 340 465 299.5 Q482 259 482 213 Q482 167 465.5 126 Q449 85 419 54.5 Q389 24 348 6.5 Q307 -11 258 -11 Q211 -11 170 5 Q129 21 98.5 50.5 Q68 80 50 121.5 Q32 163 32 213 Z M127 212 Q127 185 137 161.5 Q147 138 164.5 120.5 Q182 103 205.5 93 Q229 83 256 83 Q283 83 306.5 93 Q330 103 347.5 120.5 Q365 138 375.5 161.5 Q386 185 386 212 Q386 239 375.5 262.5 Q365 286 347.5 303.5 Q330 321 306.5 331.5 Q283 342 256 342 Q229 342 205.5 331.5 Q182 321 164.5 303.5 Q147 286 137 262.5 Q127 239 127 212 Z M258 670 Q289 625 319.5 579 Q350 533 381 487 L309 487 L258 554 L208 487 L137 487 L258 670 Z " />
<glyph glyph-name="ucircumflex" unicode="&#xfb;" horiz-adv-x="523" d="M463 -10 L383 -10 L371 108 Q348 57 307.5 23.5 Q267 -10 201 -10 Q135 -10 96.5 24.5 Q58 59 56 116 L56 425 L152 425 L152 161 Q154 130 173.5 108.5 Q193 87 236 85 Q265 85 289 95 Q313 105 330.5 123 Q348 141 358 166 Q368 191 368 220 L368 425 L463 425 L463 -10 Z M235 670 Q266 625 296.5 579 Q327 533 358 487 L286 487 L235 554 L185 487 L114 487 L235 670 Z " />
<glyph glyph-name="atilde" unicode="&#xe3;" horiz-adv-x="546" d="M31 208 Q31 254 49 295.5 Q67 337 97.5 368 Q128 399 168.5 417.5 Q209 436 254 436 Q284 436 308 428.5 Q332 421 349.5 411 Q367 401 377 390.5 Q387 380 390 374 L394 425 L487 425 L487 0 L390 0 L390 28 Q390 33 390.5 37.5 Q391 42 391 44 Q387 39 377 29.5 Q367 20 350 11 Q333 2 309.5 -4.5 Q286 -11 255 -11 Q206 -11 165 7 Q124 25 94 55 Q64 85 47.5 124.5 Q31 164 31 208 Z M128 214 Q128 186 137.5 162 Q147 138 164.5 120.5 Q182 103 206 93 Q230 83 259 83 Q288 83 312 93 Q336 103 353.5 121 Q371 139 380.5 163 Q390 187 390 214 Q390 241 380.5 264.5 Q371 288 353.5 305 Q336 322 312 332 Q288 342 259 342 Q230 342 206 332.5 Q182 323 164.5 305.5 Q147 288 137.5 264.5 Q128 241 128 214 Z M248 485 Q232 499 221 504.5 Q210 510 196 510 Q189 510 181 508.5 Q173 507 165.5 502 Q158 497 152 488.5 Q146 480 145 466 L91 468 Q92 489 101 506.5 Q110 524 123.5 536.5 Q137 549 153.5 556 Q170 563 186 563 Q211 563 230 555 Q249 547 266 531 Q282 516 293 511 Q304 506 318 506 Q325 506 333 507.5 Q341 509 348.5 514 Q356 519 361.5 527.5 Q367 536 369 550 L423 548 Q422 527 413 509.5 Q404 492 390.5 479.5 Q377 467 360.5 460 Q344 453 328 453 Q304 453 284.5 461.5 Q265 470 248 485 Z " />
<glyph glyph-name="grave" unicode="&#x60;" horiz-adv-x="204" d="M42 622 Q65 588 88 554 Q111 520 134 487 L62 487 Q31 520 0 554 Q-31 588 -61 622 L42 622 Z " />
<glyph glyph-name="asciicircum" unicode="&#x5e;" horiz-adv-x="356" d="M177 670 Q208 625 238.5 579 Q269 533 300 487 L228 487 L177 554 L127 487 L56 487 L177 670 Z " />
<glyph glyph-name="otilde" unicode="&#xf5;" horiz-adv-x="514" d="M32 213 Q32 259 49.5 299.5 Q67 340 98 370 Q129 400 170.5 417.5 Q212 435 259 435 Q307 435 348 417.5 Q389 400 418.5 370 Q448 340 465 299.5 Q482 259 482 213 Q482 167 465.5 126 Q449 85 419 54.5 Q389 24 348 6.5 Q307 -11 258 -11 Q211 -11 170 5 Q129 21 98.5 50.5 Q68 80 50 121.5 Q32 163 32 213 Z M127 212 Q127 185 137 161.5 Q147 138 164.5 120.5 Q182 103 205.5 93 Q229 83 256 83 Q283 83 306.5 93 Q330 103 347.5 120.5 Q365 138 375.5 161.5 Q386 185 386 212 Q386 239 375.5 262.5 Q365 286 347.5 303.5 Q330 321 306.5 331.5 Q283 342 256 342 Q229 342 205.5 331.5 Q182 321 164.5 303.5 Q147 286 137 262.5 Q127 239 127 212 Z M259 485 Q243 499 232 504.5 Q221 510 207 510 Q200 510 192 508.5 Q184 507 176.5 502 Q169 497 163 488.5 Q157 480 156 466 L102 468 Q103 489 112 506.5 Q121 524 134.5 536.5 Q148 549 164.5 556 Q181 563 197 563 Q222 563 241 555 Q260 547 277 531 Q293 516 304 511 Q315 506 329 506 Q336 506 344 507.5 Q352 509 359.5 514 Q367 519 372.5 527.5 Q378 536 380 550 L434 548 Q433 527 424 509.5 Q415 492 401.5 479.5 Q388 467 371.5 460 Q355 453 339 453 Q315 453 295.5 461.5 Q276 470 259 485 Z " />
<glyph glyph-name="quotesingle" unicode="&#x27;" horiz-adv-x="227" d="M63 479 L63 731 L166 731 L162 479 L63 479 Z " />
<glyph glyph-name="underscore" unicode="&#x5f;" horiz-adv-x="516" d="M461 0 L55 0 L55 100 L461 100 L461 0 Z " />
<glyph glyph-name="bracketleft" unicode="&#x5b;" horiz-adv-x="320" d="M85 -151 L85 758 L288 758 L288 658 L187 658 L187 -52 L288 -52 L288 -151 L85 -151 Z " />
<glyph glyph-name="bracketright" unicode="&#x5d;" horiz-adv-x="320" d="M235 758 L235 -151 L32 -151 L32 -52 L133 -52 L133 658 L32 658 L32 758 L235 758 Z " />
<glyph glyph-name="degree" unicode="&#xb0;" horiz-adv-x="304" d="M153 523 Q173 523 186 536 Q199 549 199 568 Q199 587 186 600.5 Q173 614 153 614 Q134 614 121 600.5 Q108 587 108 568 Q108 549 121 536 Q134 523 153 523 Z M43 569 Q43 591 51.5 611 Q60 631 75 645.5 Q90 660 110 668.5 Q130 677 153 677 Q175 677 194.5 668.5 Q214 660 229 645.5 Q244 631 252.5 611 Q261 591 261 569 Q261 546 252.5 526.5 Q244 507 229 492.5 Q214 478 194.5 469.5 Q175 461 153 461 Q130 461 110 469.5 Q90 478 75 492.5 Q60 507 51.5 526.5 Q43 546 43 569 Z " />
<glyph glyph-name="ccedilla" unicode="&#xe7;" horiz-adv-x="425" d="M343 111 Q358 92 372 74.5 Q386 57 401 39 Q373 16 338 3 Q303 -10 264 -11 Q264 -25 268.5 -32.5 Q273 -40 279.5 -45 Q286 -50 293.5 -53.5 Q301 -57 307 -62 Q327 -78 336 -99 Q345 -120 345 -149 Q345 -169 338 -189 Q331 -209 317 -225 Q303 -241 282 -251 Q261 -261 232 -261 Q196 -261 165.5 -241.5 Q135 -222 121 -180 Q134 -172 148 -165 Q162 -158 176 -151 Q181 -166 193 -176 Q205 -186 223 -186 Q246 -186 257.5 -171 Q269 -156 269 -133 Q269 -114 258.5 -104.5 Q248 -95 235.5 -85.5 Q223 -76 212.5 -62.5 Q202 -49 202 -23 L202 -4 Q165 5 134 25.5 Q103 46 80.5 74.5 Q58 103 45 138.5 Q32 174 32 213 Q32 259 50 299.5 Q68 340 98.5 370.5 Q129 401 170.5 418.5 Q212 436 259 436 Q301 436 337.5 422.5 Q374 409 404 386 L343 315 Q308 342 259 342 Q230 342 206 332 Q182 322 164.5 305 Q147 288 137.5 264.5 Q128 241 128 213 Q128 186 137.5 162.5 Q147 139 164.5 121 Q182 103 206 93 Q230 83 259 83 Q309 83 343 111 Z " />
<glyph glyph-name="Ccedilla" unicode="&#xc7;" horiz-adv-x="640" d="M633 54 Q622 46 602.5 36 Q583 26 556 17 Q529 8 495.5 1 Q462 -6 424 -7 L424 -8 Q424 -23 428.5 -31 Q433 -39 439.5 -44.5 Q446 -50 453.5 -53.5 Q461 -57 467 -62 Q487 -78 496 -99 Q505 -120 505 -149 Q505 -169 498 -189 Q491 -209 477 -225 Q463 -241 442 -251 Q421 -261 392 -261 Q356 -261 325.5 -241.5 Q295 -222 281 -180 Q294 -172 308 -165 Q322 -158 336 -151 Q341 -166 353 -176 Q365 -186 383 -186 Q406 -186 417.5 -171 Q429 -156 429 -133 Q429 -114 418.5 -104.5 Q408 -95 395.5 -85.5 Q383 -76 372.5 -62.5 Q362 -49 362 -23 L362 -6 Q285 1 225 33 Q165 65 123 114 Q81 163 59 226 Q37 289 37 359 Q37 441 67 510.5 Q97 580 148.5 630.5 Q200 681 268.5 709 Q337 737 415 737 Q445 737 475.5 732.5 Q506 728 533 721 Q560 714 580.5 705 Q601 696 610 686 Q601 672 596 663 Q591 654 585.5 644.5 Q580 635 573.5 623 Q567 611 555 590 Q543 598 526 604 Q509 610 490.5 613.5 Q472 617 453 619 Q434 621 419 621 Q363 621 315.5 600 Q268 579 233.5 544.5 Q199 510 179.5 464 Q160 418 160 369 Q160 321 178.5 275.5 Q197 230 230.5 195 Q264 160 310 138.5 Q356 117 412 117 Q444 117 474 123.5 Q504 130 527 138 Q550 146 564.5 154 Q579 162 580 165 L633 54 Z " />
<glyph glyph-name="endash" unicode="&#x2013;" horiz-adv-x="419" d="M57 168 L57 267 L362 267 L362 168 L57 168 Z " />
<glyph glyph-name="emdash" unicode="&#x2014;" horiz-adv-x="624" d="M57 168 L57 267 L567 267 L567 168 L57 168 Z " />
<glyph glyph-name="cedilla" unicode="&#xb8;" horiz-adv-x="459" d="M184 0 L246 0 L246 -8 Q246 -23 250.5 -31 Q255 -39 261.5 -44.5 Q268 -50 275.5 -53.5 Q283 -57 289 -62 Q309 -78 318 -99 Q327 -120 327 -149 Q327 -169 320 -189 Q313 -209 299 -225 Q285 -241 264 -251 Q243 -261 214 -261 Q178 -261 147.5 -241.5 Q117 -222 103 -180 Q116 -172 130 -165 Q144 -158 158 -151 Q163 -166 175 -176 Q187 -186 205 -186 Q228 -186 239.5 -171 Q251 -156 251 -133 Q251 -114 240.5 -103.5 Q230 -93 217.5 -84 Q205 -75 194.5 -65.5 Q184 -56 184 -39 L184 0 Z " />
<glyph glyph-name="acute" unicode="&#xb4;" horiz-adv-x="293" d="M102 487 Q125 520 147.5 554 Q170 588 193 622 L296 622 Q266 588 235 554 Q204 520 173 487 L102 487 Z " />
<glyph glyph-name="dieresis" unicode="&#xa8;" horiz-adv-x="376" d="M234 534 Q234 560 253.5 578 Q273 596 296 596 Q317 596 336.5 578 Q356 560 356 534 Q356 506 336.5 489 Q317 472 296 472 Q273 472 253.5 489 Q234 506 234 534 Z M41 534 Q41 560 60.5 578 Q80 596 103 596 Q124 596 143.5 578 Q163 560 163 534 Q163 506 143.5 489 Q124 472 103 472 Q80 472 60.5 489 Q41 506 41 534 Z " />
<glyph glyph-name="Eth" unicode="&#xd0;" horiz-adv-x="719" d="M18 396 L90 396 L90 729 L279 729 Q389 729 465.5 695.5 Q542 662 590 609 Q638 556 659.5 488.5 Q681 421 681 354 Q681 272 651.5 206.5 Q622 141 572 95 Q522 49 455.5 24.5 Q389 0 315 0 L90 0 L90 314 L18 314 L18 396 Z M296 116 Q353 116 401 132 Q449 148 484 179.5 Q519 211 538.5 256.5 Q558 302 558 362 Q558 430 534.5 477.5 Q511 525 475 554.5 Q439 584 395 597.5 Q351 611 311 611 L213 611 L213 396 L321 396 L321 314 L213 314 L213 116 L296 116 Z " />
<glyph glyph-name="thorn" unicode="&#xfe;" horiz-adv-x="547" d="M514 211 Q514 163 498 122.5 Q482 82 452.5 52 Q423 22 382 5.5 Q341 -11 292 -11 Q243 -11 205.5 7.5 Q168 26 154 47 Q154 43 154.5 39.5 Q155 36 155 31 L155 -204 L59 -204 L59 781 L155 781 L155 371 Q163 381 175.5 392.5 Q188 404 206 413.5 Q224 423 246.5 429.5 Q269 436 296 436 Q345 436 385 420.5 Q425 405 453.5 375.5 Q482 346 498 304.5 Q514 263 514 211 Z M410 213 Q410 269 377.5 305.5 Q345 342 287 342 Q258 342 234 332.5 Q210 323 192.5 305.5 Q175 288 165 264.5 Q155 241 155 214 Q155 186 165 162 Q175 138 192.5 120.5 Q210 103 234 93 Q258 83 287 83 Q316 83 339 93 Q362 103 377.5 121 Q393 139 401.5 162.5 Q410 186 410 213 Z " />
<glyph glyph-name="eth" unicode="&#xf0;" horiz-adv-x="519" d="M33 213 Q33 259 50.5 299.5 Q68 340 99 370 Q130 400 171.5 417.5 Q213 435 260 435 Q281 435 301 431 Q321 427 340 420 Q311 512 240 609 Q226 592 211.5 577.5 Q197 563 183 547 L128 597 Q159 633 194 669 Q169 697 143.5 722.5 Q118 748 90 771 L148 824 Q175 804 200 780.5 Q225 757 250 731 Q264 746 278 760.5 Q292 775 306 792 L361 742 Q345 725 329.5 708 Q314 691 298 673 Q334 626 367.5 570 Q401 514 426.5 454.5 Q452 395 467.5 334.5 Q483 274 483 219 L483 213 Q483 167 466.5 126 Q450 85 420 54.5 Q390 24 349 6.5 Q308 -11 259 -11 Q212 -11 171 5 Q130 21 99.5 50.5 Q69 80 51 121.5 Q33 163 33 213 Z M128 212 Q128 185 138 161.5 Q148 138 165.5 120.5 Q183 103 206.5 93 Q230 83 257 83 Q284 83 307.5 93 Q331 103 348.5 120.5 Q366 138 376.5 161.5 Q387 185 387 212 Q387 239 376.5 262.5 Q366 286 348.5 303.5 Q331 321 307.5 331.5 Q284 342 257 342 Q230 342 206.5 331.5 Q183 321 165.5 303.5 Q148 286 138 262.5 Q128 239 128 212 Z " />
<glyph glyph-name="Thorn" unicode="&#xde;" horiz-adv-x="578" d="M84 0 L84 711 L206 711 L206 600 L290 600 Q350 600 399.5 584 Q449 568 483.5 538 Q518 508 537 464 Q556 420 556 365 Q556 321 543 277.5 Q530 234 500.5 199.5 Q471 165 424 143.5 Q377 122 308 122 L206 122 L206 0 L84 0 Z M206 237 L304 237 Q342 237 367 250 Q392 263 407 282.5 Q422 302 428 323.5 Q434 345 434 362 Q434 378 428.5 399.5 Q423 421 408.5 440 Q394 459 369 472 Q344 485 305 485 L206 485 L206 237 Z " />
<glyph glyph-name="Acircumflex" unicode="&#xc2;" horiz-adv-x="653" d="M653 0 Q649 9 634 44.5 Q619 80 596.5 132.5 Q574 185 546.5 249.5 Q519 314 490 381 Q461 448 433.5 512.5 Q406 577 383.5 629.5 Q361 682 345.5 717.5 Q330 753 326 762 Q322 753 307 717.5 Q292 682 269.5 629.5 Q247 577 219.5 512.5 Q192 448 163 381 Q134 314 106.5 249.5 Q79 185 56.5 132.5 Q34 80 19 44.5 Q4 9 0 0 L121 0 L201 192 L452 192 Q466 158 479 126.5 Q492 95 503 69 Q514 43 521.5 25 Q529 7 532 0 L653 0 Z M335 954 Q366 909 396.5 863 Q427 817 458 771 L386 771 L335 838 L285 771 L214 771 L335 954 Z M316 469 Q316 470 320 482.5 Q324 495 326 505 Q328 495 332 482.5 Q336 470 337 469 L409 295 L243 295 L316 469 Z " />
<glyph glyph-name="Ecircumflex" unicode="&#xca;" horiz-adv-x="619" d="M84 0 L84 729 L568 729 L568 618 L206 618 L206 422 L528 422 L528 308 L206 308 L206 114 L582 114 L582 0 L84 0 Z M339 954 Q370 909 400.5 863 Q431 817 462 771 L390 771 L339 838 L289 771 L218 771 L339 954 Z " />
<glyph glyph-name="Icircumflex" unicode="&#xce;" horiz-adv-x="291" d="M84 729 L207 729 L207 0 L84 0 L84 729 Z M146 954 Q177 909 207.5 863 Q238 817 269 771 L197 771 L146 838 L96 771 L25 771 L146 954 Z " />
<glyph glyph-name="Ocircumflex" unicode="&#xd4;" horiz-adv-x="817" d="M36 363 Q36 439 65.5 507 Q95 575 145.5 626 Q196 677 263.5 707 Q331 737 408 737 Q484 737 552 707 Q620 677 671 626 Q722 575 751.5 507 Q781 439 781 363 Q781 286 751.5 218.5 Q722 151 671 100.5 Q620 50 552 21 Q484 -8 408 -8 Q331 -8 263.5 21 Q196 50 145.5 100.5 Q95 151 65.5 218.5 Q36 286 36 363 Z M159 363 Q159 310 178.5 263.5 Q198 217 232.5 182.5 Q267 148 312.5 128 Q358 108 411 108 Q462 108 507.5 128 Q553 148 586.5 182.5 Q620 217 639.5 263.5 Q659 310 659 363 Q659 416 639 462.5 Q619 509 585 544 Q551 579 505.5 599 Q460 619 408 619 Q356 619 310.5 599 Q265 579 231.5 544 Q198 509 178.5 462.5 Q159 416 159 363 Z M415 954 Q446 909 476.5 863 Q507 817 538 771 L466 771 L415 838 L365 771 L294 771 L415 954 Z " />
<glyph glyph-name="Ucircumflex" unicode="&#xdb;" horiz-adv-x="720" d="M359 -8 Q300 -8 248.5 11.5 Q197 31 159 66 Q121 101 99 150.5 Q77 200 77 260 L77 729 L199 729 L199 263 Q199 231 211.5 203 Q224 175 245.5 154 Q267 133 296 120.5 Q325 108 359 108 Q393 108 422.5 120.5 Q452 133 474 154 Q496 175 508.5 203 Q521 231 521 263 L521 729 L643 729 L643 260 Q643 200 621 150.5 Q599 101 560.5 66 Q522 31 470 11.5 Q418 -8 359 -8 Z M365 979 Q396 934 426.5 888 Q457 842 488 796 L416 796 L365 863 L315 796 L244 796 L365 979 Z " />
<glyph glyph-name="plusminus" unicode="&#xb1;" horiz-adv-x="491" d="M193 214 L193 347 L63 347 L63 446 L193 446 L193 580 L298 580 L298 446 L428 446 L428 347 L298 347 L298 214 L193 214 Z M428 76 L63 76 L63 176 L428 176 L428 76 Z " />
<glyph glyph-name="dollar" unicode="&#x24;" horiz-adv-x="592" d="M527 688 L483 588 Q445 602 407 610.5 Q369 619 336 621 L336 429 Q373 415 411.5 398 Q450 381 481 356 Q512 331 531.5 295.5 Q551 260 551 209 Q551 122 493.5 67 Q436 12 336 -3 L336 -68 L266 -68 L266 -8 L264 -8 Q221 -8 185 -2 Q149 4 120.5 13.5 Q92 23 70.5 33.5 Q49 44 34 53 L87 160 Q129 137 177 124.5 Q225 112 262 112 L266 112 L266 336 Q230 349 195.5 365 Q161 381 133 403 Q105 425 88 455.5 Q71 486 71 528 Q71 562 83 595 Q95 628 119.5 655.5 Q144 683 180.5 702.5 Q217 722 266 729 L266 796 L336 796 L336 732 Q372 730 404.5 723.5 Q437 717 463 709.5 Q489 702 506 695.5 Q523 689 527 688 Z M430 210 Q430 245 403 268 Q376 291 336 308 L336 122 Q354 126 370.5 133.5 Q387 141 400.5 151.5 Q414 162 422 176.5 Q430 191 430 210 Z M192 536 Q192 508 212.5 489 Q233 470 266 456 L266 614 Q231 604 211.5 583.5 Q192 563 192 536 Z " />
<glyph glyph-name="cent" unicode="&#xa2;" horiz-adv-x="439" d="M344 111 Q359 92 373 74.5 Q387 57 402 39 Q346 -6 271 -11 L271 -68 L201 -68 L201 -3 Q165 7 134 27.5 Q103 48 80.5 76.5 Q58 105 45.5 139.5 Q33 174 33 213 Q33 251 45.5 286 Q58 321 80.5 349 Q103 377 134 397.5 Q165 418 201 428 L201 492 L271 492 L271 436 Q309 434 342.5 421 Q376 408 405 386 L344 315 Q313 338 271 341 L271 83 Q313 86 344 111 Z M129 213 Q129 174 148.5 142.5 Q168 111 201 95 L201 329 Q168 314 148.5 283.5 Q129 253 129 213 Z " />
<glyph glyph-name="bullet" unicode="&#x2022;" horiz-adv-x="416" d="M63 305 Q63 335 74 362 Q85 389 104.5 409 Q124 429 150.5 440.5 Q177 452 207 452 Q237 452 264 440.5 Q291 429 310.5 409 Q330 389 341.5 362 Q353 335 353 305 Q353 274 341.5 248 Q330 222 310.5 202.5 Q291 183 264 172 Q237 161 207 161 Q177 161 150.5 172 Q124 183 104.5 202.5 Q85 222 74 248 Q63 274 63 305 Z " />
<glyph glyph-name="quotedblleft" unicode="&#x201c;" horiz-adv-x="288" d="M143 600 Q120 586 92 574 Q64 603 52 641.5 Q40 680 48 722 L109 715 Q102 680 112 650 Q122 620 143 600 Z M249 600 Q236 592 223.5 586 Q211 580 198 574 Q170 603 158 641.5 Q146 680 154 722 L215 715 Q208 680 218 650 Q228 620 249 600 Z " />
<glyph glyph-name="quotedblright" unicode="&#x201d;" horiz-adv-x="288" d="M90 574 Q77 580 65 586 Q53 592 39 600 Q61 620 70.5 650 Q80 680 73 715 L135 722 Q143 680 131 641.5 Q119 603 90 574 Z M196 574 Q183 580 170.5 586 Q158 592 145 600 Q167 620 176.5 650 Q186 680 179 715 L240 722 Q248 680 236 641.5 Q224 603 196 574 Z " />
<glyph glyph-name="quoteleft" unicode="&#x2018;" horiz-adv-x="182" d="M143 600 Q130 592 117.5 586 Q105 580 92 574 Q64 603 52 641.5 Q40 680 48 722 L109 715 Q102 680 112 650 Q122 620 143 600 Z " />
<glyph glyph-name="quotedblbase" unicode="&#x201e;" horiz-adv-x="301" d="M189 -56 Q175 -49 163 -42.5 Q151 -36 138 -30 Q160 -9 169.5 21.5 Q179 52 172 87 L233 94 Q241 51 229 12 Q217 -27 189 -56 Z M83 -56 Q70 -49 57.5 -42.5 Q45 -36 32 -30 Q54 -9 63.5 21.5 Q73 52 66 87 L127 94 Q135 51 123 12 Q111 -27 83 -56 Z " />
<glyph glyph-name="quotesinglbase" unicode="&#x201a;" horiz-adv-x="195" d="M83 -56 Q70 -49 57.5 -42.5 Q45 -36 32 -30 Q54 -9 63.5 21.5 Q73 52 66 87 L127 94 Q135 51 123 12 Q111 -27 83 -56 Z " />
<glyph glyph-name="guilsinglright" unicode="&#x203a;" horiz-adv-x="282" d="M70 163 Q73 167 82 178.5 Q91 190 100.5 203 Q110 216 119 227.5 Q128 239 131 243 Q128 247 119 258.5 Q110 270 100.5 282.5 Q91 295 82 306.5 Q73 318 70 321 L70 438 Q73 435 86 420.5 Q99 406 117.5 385.5 Q136 365 156.5 341 Q177 317 195.5 296 Q214 275 227 260.5 Q240 246 243 243 L70 47 L70 163 Z " />
<glyph glyph-name="guillemotleft" unicode="&#xab;" horiz-adv-x="456" d="M386 47 L212 243 Q215 246 228 260.5 Q241 275 259.5 296 Q278 317 299 341 Q320 365 338.5 385.5 Q357 406 370 420.5 Q383 435 386 438 L386 322 Q383 319 374 307.5 Q365 296 355.5 283 Q346 270 337 258.5 Q328 247 324 243 Q328 239 337 227.5 Q346 216 355.5 203 Q365 190 374 178.5 Q383 167 386 163 L386 47 Z M212 47 L39 243 Q42 246 55 260.5 Q68 275 86.5 296 Q105 317 125.5 341 Q146 365 164.5 385.5 Q183 406 196 420.5 Q209 435 212 438 L212 321 Q209 318 200 306.5 Q191 295 181.5 282.5 Q172 270 163 258.5 Q154 247 151 243 Q154 239 163 227.5 Q172 216 181.5 203 Q191 190 200 178.5 Q209 167 212 163 L212 47 Z " />
<glyph glyph-name="guillemotright" unicode="&#xbb;" horiz-adv-x="456" d="M70 163 Q73 167 82 178.5 Q91 190 100.5 203 Q110 216 119 227.5 Q128 239 132 243 Q128 247 119 258.5 Q110 270 100.5 283 Q91 296 82 307.5 Q73 319 70 322 L70 438 Q73 435 86 420.5 Q99 406 117.5 385.5 Q136 365 157 341 Q178 317 196.5 296 Q215 275 228 260.5 Q241 246 244 243 L70 47 L70 163 Z M244 163 Q247 167 256 178.5 Q265 190 274.5 203 Q284 216 293 227.5 Q302 239 305 243 Q302 247 293 258.5 Q284 270 274.5 282.5 Q265 295 256 306.5 Q247 318 244 321 L244 438 Q247 435 260 420.5 Q273 406 291.5 385.5 Q310 365 330.5 341 Q351 317 369.5 296 Q388 275 401 260.5 Q414 246 417 243 L244 47 L244 163 Z " />
<glyph glyph-name="yen" unicode="&#xa5;" horiz-adv-x="714" d="M419 236 L419 168 L518 168 L518 100 L419 100 L419 0 L296 0 L296 100 L185 100 L185 168 L296 168 L296 236 L280 263 L185 263 L185 331 L243 331 Q215 383 179.5 448.5 Q144 514 111.5 574 Q79 634 55 677.5 Q31 721 26 729 L165 729 Q169 722 180.5 700.5 Q192 679 208 648.5 Q224 618 243 581.5 Q262 545 281 508.5 Q300 472 317 438.5 Q334 405 347 380 L358 346 Q362 354 365 363.5 Q368 373 371 380 Q384 405 401 438.5 Q418 472 436.5 508.5 Q455 545 473.5 581.5 Q492 618 507.5 648.5 Q523 679 534 700.5 Q545 722 549 729 L688 729 L470 331 L518 331 L518 263 L433 263 L419 236 Z " />
<glyph glyph-name="copyright" unicode="&#xa9;" horiz-adv-x="610" d="M305 145 Q353 145 394 162 Q435 179 466 209.5 Q497 240 514.5 281.5 Q532 323 532 372 Q532 421 514.5 463 Q497 505 466 535.5 Q435 566 394 583 Q353 600 305 600 Q257 600 216 583 Q175 566 144 535.5 Q113 505 95.5 463 Q78 421 78 372 Q78 323 95.5 281.5 Q113 240 144 209.5 Q175 179 216 162 Q257 145 305 145 Z M305 112 Q251 112 203.5 132 Q156 152 120.5 186.5 Q85 221 64.5 268.5 Q44 316 44 372 Q44 428 64.5 476 Q85 524 120.5 559 Q156 594 203.5 613.5 Q251 633 305 633 Q359 633 406.5 613.5 Q454 594 489.5 559 Q525 524 545.5 476 Q566 428 566 372 Q566 316 545.5 268.5 Q525 221 489.5 186.5 Q454 152 406.5 132 Q359 112 305 112 Z M413 234 Q402 226 374.5 216 Q347 206 309 206 Q270 206 239.5 219.5 Q209 233 188 255.5 Q167 278 155.5 308.5 Q144 339 144 372 Q144 409 157.5 441 Q171 473 194 495.5 Q217 518 248 531 Q279 544 314 544 Q341 544 367.5 536.5 Q394 529 403 520 Q399 514 396.5 510 Q394 506 391.5 501.5 Q389 497 386 491.5 Q383 486 378 477 Q367 485 348.5 488 Q330 491 316 491 Q291 491 269.5 481.5 Q248 472 232.5 456.5 Q217 441 208 420 Q199 399 199 377 Q199 355 207.5 334.5 Q216 314 231 298 Q246 282 267 272.5 Q288 263 313 263 Q327 263 340.5 266 Q354 269 364.5 272.5 Q375 276 382 279.5 Q389 283 389 285 L413 234 Z " />
<glyph glyph-name="registered" unicode="&#xae;" horiz-adv-x="610" d="M305 112 Q251 112 203.5 132 Q156 152 120.5 186.5 Q85 221 64.5 268.5 Q44 316 44 372 Q44 428 64.5 476 Q85 524 120.5 559 Q156 594 203.5 613.5 Q251 633 305 633 Q359 633 406.5 613.5 Q454 594 489.5 559 Q525 524 545.5 476 Q566 428 566 372 Q566 316 545.5 268.5 Q525 221 489.5 186.5 Q454 152 406.5 132 Q359 112 305 112 Z M305 145 Q353 145 394 162 Q435 179 466 209.5 Q497 240 514.5 281.5 Q532 323 532 372 Q532 421 514.5 463 Q497 505 466 535.5 Q435 566 394 583 Q353 600 305 600 Q257 600 216 583 Q175 566 144 535.5 Q113 505 95.5 463 Q78 421 78 372 Q78 323 95.5 281.5 Q113 240 144 209.5 Q175 179 216 162 Q257 145 305 145 Z M194 210 L194 555 L291 555 Q348 555 382.5 526 Q417 497 417 444 Q417 415 405 388 Q393 361 365 345 Q386 311 405.5 280 Q425 249 451 210 L381 210 L305 329 L300 329 L251 329 L251 210 L194 210 Z M251 383 L298 383 Q316 383 328 389 Q340 395 346.5 404 Q353 413 356 423 Q359 433 359 442 Q359 450 356.5 460 Q354 470 347 479 Q340 488 328.5 494 Q317 500 298 500 L251 500 L251 383 Z " />
<glyph glyph-name="divide" unicode="&#xf7;" horiz-adv-x="450" d="M407 208 L42 208 L42 308 L407 308 L407 208 Z M166 411 Q166 437 185.5 455.5 Q205 474 228 474 Q250 474 269 455.5 Q288 437 288 411 Q288 383 269 366.5 Q250 350 228 350 Q205 350 185.5 366.5 Q166 383 166 411 Z M166 109 Q166 135 185.5 153.5 Q205 172 228 172 Q250 172 269 153.5 Q288 135 288 109 Q288 81 269 64.5 Q250 48 228 48 Q205 48 185.5 64.5 Q166 81 166 109 Z " />
<glyph glyph-name="onehalf" unicode="&#xbd;" horiz-adv-x="840" d="M185 -19 Q257 174 326.5 364.5 Q396 555 468 748 L571 748 L289 -19 L185 -19 Z M652 70 L805 70 L805 -1 L478 -1 Q522 43 563 85 Q604 127 636 166 Q668 205 687.5 241.5 Q707 278 707 312 Q707 335 699 352 Q691 369 678.5 380 Q666 391 652 396.5 Q638 402 626 402 Q601 402 585 393.5 Q569 385 559.5 372.5 Q550 360 546.5 346.5 Q543 333 543 324 Q543 301 550.5 283 Q558 265 572 251 L529 207 Q515 214 504 228.5 Q493 243 485.5 260 Q478 277 474 294 Q470 311 470 324 Q470 353 480.5 380 Q491 407 510.5 427.5 Q530 448 559 460.5 Q588 473 626 473 Q661 473 689.5 460.5 Q718 448 738.5 427 Q759 406 770 378.5 Q781 351 781 321 Q781 287 770.5 255 Q760 223 742.5 192 Q725 161 701.5 131 Q678 101 652 70 Z M43 632 L43 702 L157 702 L157 234 L83 234 L83 632 L43 632 Z " />
<glyph glyph-name="onequarter" unicode="&#xbc;" horiz-adv-x="804" d="M182 -19 Q254 174 323.5 364.5 Q393 555 465 748 L568 748 L286 -19 L182 -19 Z M402 125 Q471 215 549 311 Q627 407 696 497 L696 199 L769 199 L769 125 L696 125 L696 0 L619 0 L619 125 L402 125 Z M43 632 L43 702 L157 702 L157 234 L83 234 L83 632 L43 632 Z M619 290 Q613 282 603.5 270 Q594 258 584 245 Q574 232 564.5 219.5 Q555 207 550 199 L619 199 L619 290 Z " />
<glyph glyph-name="ordfeminine" unicode="&#xaa;" horiz-adv-x="432" d="M38 456 Q38 489 51 519 Q64 549 85.5 571.5 Q107 594 136.5 607 Q166 620 199 620 Q221 620 238 614.5 Q255 609 267.5 602 Q280 595 287.5 587.5 Q295 580 297 576 L300 613 L367 613 L367 306 L297 306 L297 326 Q297 330 297.5 333 Q298 336 298 338 Q295 334 287.5 327.5 Q280 321 268 314.5 Q256 308 238.5 303 Q221 298 199 298 Q164 298 134.5 311 Q105 324 83.5 345.5 Q62 367 50 395.5 Q38 424 38 456 Z M108 460 Q108 420 134 393 Q160 366 202 366 Q245 366 271 393.5 Q297 421 297 460 Q297 499 271 526 Q245 553 202 553 Q160 553 134 526.5 Q108 500 108 460 Z " />
<glyph glyph-name="sterling" unicode="&#xa3;" horiz-adv-x="620" d="M219 100 L374 100 Q407 100 427 102.5 Q447 105 458 111 Q469 117 472.5 127 Q476 137 476 153 L476 194 Q502 194 528 194.5 Q554 195 580 195 L580 86 Q580 67 574.5 51 Q569 35 555.5 24 Q542 13 519 6.5 Q496 0 460 0 L38 0 L38 100 L83 100 Q98 100 108.5 103 Q119 106 125 115 Q131 124 133.5 141.5 Q136 159 136 188 L136 267 L70 267 L70 367 L136 367 L136 548 Q136 584 152 614.5 Q168 645 197 667.5 Q226 690 267 703 Q308 716 358 716 Q431 716 477 688.5 Q523 661 549 611 Q529 600 510 588.5 Q491 577 471 566 Q467 567 462 575 Q457 583 445.5 592 Q434 601 413.5 608.5 Q393 616 360 616 Q304 616 271.5 591.5 Q239 567 239 518 L239 367 L355 367 L355 267 L239 267 L239 169 Q239 145 236 128.5 Q233 112 219 100 Z " />
<glyph glyph-name="onesuperior" unicode="&#xb9;" horiz-adv-x="186" d="M48 659 L48 705 L122 705 L122 401 L74 401 L74 659 L48 659 Z " />
<glyph glyph-name="threequarters" unicode="&#xbe;" horiz-adv-x="992" d="M356 -19 Q428 174 497.5 364.5 Q567 555 639 748 L742 748 L460 -19 L356 -19 Z M114 454 Q137 500 167.5 545.5 Q198 591 221 637 L73 637 L73 715 L345 715 Q319 669 291.5 623 Q264 577 238 531 Q284 508 312 466.5 Q340 425 340 372 Q340 336 326 304.5 Q312 273 288 249.5 Q264 226 232.5 212.5 Q201 199 165 199 Q127 199 94 214 Q61 229 37 255 L95 309 Q123 276 166 276 Q185 276 202.5 283.5 Q220 291 233 304 Q246 317 253.5 334.5 Q261 352 261 372 Q261 391 253.5 408.5 Q246 426 233 438.5 Q220 451 202.5 458.5 Q185 466 166 466 Q136 466 114 454 Z M590 125 Q624 170 661.5 217 Q699 264 737 311 Q775 358 812.5 405 Q850 452 884 497 L884 199 L958 199 L958 125 L884 125 L884 0 L807 0 L807 125 L590 125 Z M807 290 Q801 282 791.5 270 Q782 258 772 245 Q762 232 752.5 219.5 Q743 207 738 199 L807 199 L807 290 Z " />
<glyph glyph-name="twosuperior" unicode="&#xb2;" horiz-adv-x="341" d="M181 424 L288 424 L288 375 L60 375 Q90 406 119 435 Q148 464 170 491 Q192 518 205.5 543.5 Q219 569 219 593 Q219 609 213.5 620.5 Q208 632 199.5 640 Q191 648 181 652 Q171 656 163 656 Q146 656 134.5 650 Q123 644 116.5 635.5 Q110 627 107.5 617.5 Q105 608 105 602 Q105 569 125 551 L95 520 Q85 525 77.5 535 Q70 545 64.5 557 Q59 569 56.5 581 Q54 593 54 602 Q54 622 61 640.5 Q68 659 82 673.5 Q96 688 116.5 696.5 Q137 705 163 705 Q187 705 207 696.5 Q227 688 241.5 673 Q256 658 263.5 639 Q271 620 271 599 Q271 551 244.5 509.5 Q218 468 181 424 Z " />
<glyph glyph-name="paragraph" unicode="&#xb6;" horiz-adv-x="573" d="M301 0 L198 0 L198 429 Q163 429 133 442 Q103 455 81 477.5 Q59 500 46 530.5 Q33 561 33 596 Q33 630 46 660.5 Q59 691 81 713.5 Q103 736 133 749 Q163 762 198 762 L466 762 L466 0 L364 0 L364 662 L301 662 L301 0 Z " />
<glyph glyph-name="logicalnot" unicode="&#xac;" horiz-adv-x="484" d="M323 150 L323 181 L61 181 L61 254 L426 254 L426 150 L323 150 Z " />
<glyph glyph-name="threesuperior" unicode="&#xb3;" horiz-adv-x="283" d="M90 539 Q105 568 124 597 Q143 626 158 655 L64 655 L64 705 L237 705 Q221 676 203.5 646.5 Q186 617 169 588 Q198 573 216.5 546.5 Q235 520 235 486 Q235 463 226 443 Q217 423 201.5 408 Q186 393 165.5 384.5 Q145 376 123 376 Q99 376 77.5 385.5 Q56 395 41 412 L78 446 Q97 425 123 425 Q148 425 166 443 Q184 461 184 486 Q184 511 166 528.5 Q148 546 123 546 Q104 546 90 539 Z " />
<glyph glyph-name="brokenbar" unicode="&#xa6;" horiz-adv-x="230" d="M167 -237 L63 -237 L63 119 L167 119 L167 -237 Z M167 356 L63 356 L63 711 L167 711 L167 356 Z " />
<glyph glyph-name="ampersand" unicode="&#x26;" horiz-adv-x="661" d="M647 0 L533 0 Q532 0 515.5 20 Q499 40 472 72 Q440 35 388.5 12 Q337 -11 273 -11 Q221 -11 177 5.5 Q133 22 101.5 51 Q70 80 52 120 Q34 160 34 208 Q34 248 46.5 283.5 Q59 319 81 347 Q103 375 134 395.5 Q165 416 201 426 Q189 444 179 461 Q169 478 162 492 Q145 525 134.5 552.5 Q124 580 124 611 Q124 645 138 672.5 Q152 700 176 719 Q200 738 232 748.5 Q264 759 300 760 Q348 762 388 748.5 Q428 735 451 720 Q451 720 442.5 708 Q434 696 424 682.5 Q414 669 406 657 Q398 645 398 645 Q389 651 375.5 657 Q362 663 342 666 Q322 669 302 667 Q282 665 265 657 Q248 649 237.5 634.5 Q227 620 227 598 Q227 573 237 552.5 Q247 532 251 526 L458 250 L531 435 L632 435 L524 163 L647 0 Z M259 342 Q233 341 209.5 330.5 Q186 320 168.5 302.5 Q151 285 140.5 262 Q130 239 130 214 Q130 179 143 154 Q156 129 177 113.5 Q198 98 225 90.5 Q252 83 279 83 Q298 83 317.5 87.5 Q337 92 355 100 Q373 108 388 119 Q403 130 413 144 Q376 190 335.5 241 Q295 292 259 342 Z " />
<glyph glyph-name="germandbls" unicode="&#xdf;" horiz-adv-x="573" d="M233 6 Q243 29 253.5 52 Q264 75 275 98 Q293 91 315 91 Q340 91 362.5 101 Q385 111 402 127.5 Q419 144 429 166.5 Q439 189 439 214 Q439 240 428.5 262.5 Q418 285 401 302 Q384 319 361.5 328.5 Q339 338 314 337 L312 337 Q312 349 311.5 361.5 Q311 374 311 386 L311 437 Q342 437 361 454 Q380 471 380 500 Q380 529 359 548 Q338 567 297 567 Q241 567 219 528 Q197 489 197 421 L197 0 L95 0 L95 330 L30 330 L30 430 L95 430 L95 429 Q95 484 110 528.5 Q125 573 152 604 Q179 635 215.5 651.5 Q252 668 294 668 Q338 668 373 655 Q408 642 432 619.5 Q456 597 469 567 Q482 537 482 505 Q482 489 479 473 Q476 457 469 442 Q462 427 451.5 415 Q441 403 426 396 Q443 392 463 376.5 Q483 361 500.5 337 Q518 313 529.5 281.5 Q541 250 541 213 Q541 168 523 127.5 Q505 87 473.5 56.5 Q442 26 400.5 8 Q359 -10 313 -10 Q294 -10 273 -6 Q252 -2 233 6 Z " />
<glyph glyph-name="currency" unicode="&#xa4;" horiz-adv-x="448" d="M69 361 Q69 406 92 441 L66 468 L115 517 L142 490 Q160 501 180 507.5 Q200 514 223 514 Q267 514 305 490 L332 517 L381 467 L356 442 Q380 404 380 361 Q380 315 354 278 L382 251 L333 202 L304 230 Q269 207 223 207 Q179 207 143 229 L115 201 L66 250 L93 277 Q69 315 69 361 Z M139 360 Q139 325 164 300 Q189 275 224 275 Q242 275 257.5 281.5 Q273 288 284.5 299.5 Q296 311 303 326.5 Q310 342 310 360 Q310 378 303 393.5 Q296 409 284.5 421 Q273 433 257.5 439.5 Q242 446 224 446 Q189 446 164 421 Q139 396 139 360 Z " />
<glyph glyph-name="section" unicode="&#xa7;" horiz-adv-x="385" d="M141 149 Q120 182 105.5 205.5 Q91 229 81.5 244.5 Q72 260 67.5 268.5 Q63 277 61 280 Q60 280 60 282 Q59 283 59 283 Q47 307 43.5 335 Q40 363 44 390 Q48 417 60 441.5 Q72 466 93 485 Q105 494 119 503 Q133 512 153 520 Q144 534 136 548.5 Q128 563 119 579 Q98 614 92.5 639.5 Q87 665 92 684 Q97 703 112 716 Q127 729 147 739 Q187 760 222 783 Q236 761 248.5 739 Q261 717 275 696 Q266 691 256 686 Q246 681 238 675 Q226 668 219 661.5 Q212 655 210.5 646.5 Q209 638 213.5 625 Q218 612 229 593 L231 593 L322 442 Q337 418 341.5 390.5 Q346 363 341.5 336 Q337 309 323.5 284.5 Q310 260 288 241 Q276 232 262 222 Q248 212 228 204 Q237 190 246 174.5 Q255 159 264 144 Q285 109 291 83 Q297 57 292 37.5 Q287 18 272.5 4.5 Q258 -9 238 -19 Q218 -30 200.5 -39.5 Q183 -49 163 -61 L112 25 Q121 31 130 36 Q139 41 148 47 Q160 54 166.5 61 Q173 68 173 79 Q173 90 165 106.5 Q157 123 141 149 Z M133 378 Q126 352 143.5 331.5 Q161 311 188 309 Q211 309 228.5 323.5 Q246 338 248 363 Q249 385 234.5 402.5 Q220 420 195 422 Q176 422 156.5 412.5 Q137 403 133 378 Z " />
<glyph glyph-name="periodcentered" unicode="&#xb7;" horiz-adv-x="232" d="M55 288 Q55 314 74.5 332 Q94 350 117 350 Q138 350 157.5 332 Q177 314 177 288 Q177 259 157.5 242.5 Q138 226 117 226 Q94 226 74.5 242.5 Q55 259 55 288 Z " />
<glyph glyph-name="ordmasculine" unicode="&#xba;" horiz-adv-x="404" d="M40 460 Q40 493 53 522 Q66 551 88 573 Q110 595 140 607.5 Q170 620 204 620 Q238 620 267.5 607.5 Q297 595 319 573 Q341 551 353 522 Q365 493 365 460 Q365 427 353 397.5 Q341 368 319.5 346 Q298 324 268 311 Q238 298 203 298 Q170 298 140 309.5 Q110 321 88 342.5 Q66 364 53 394 Q40 424 40 460 Z M109 459 Q109 440 116 423 Q123 406 136 393.5 Q149 381 165.5 373.5 Q182 366 202 366 Q221 366 238 373.5 Q255 381 268 393.5 Q281 406 288.5 423 Q296 440 296 459 Q296 478 288.5 495 Q281 512 268 525 Q255 538 238 545.5 Q221 553 202 553 Q182 553 165.5 545.5 Q149 538 136 525 Q123 512 116 495 Q109 478 109 459 Z " />
<glyph glyph-name="macron" unicode="&#xaf;" horiz-adv-x="406" d="M87 482 L87 546 L321 546 L321 482 L87 482 Z " />
<glyph glyph-name="mu" unicode="&#xb5;" horiz-adv-x="568" d="M484 -10 L404 -10 L392 108 Q369 57 328.5 23.5 Q288 -10 222 -10 Q195 -10 173 -4 L173 -201 L78 -201 L78 101 Q77 106 77 116 L77 425 L173 425 L173 161 Q175 130 194.5 108.5 Q214 87 257 85 Q286 85 310 95 Q334 105 351.5 123 Q369 141 379 166 Q389 191 389 220 L389 425 L484 425 L484 -10 Z " />
<glyph glyph-name="multiply" unicode="&#xd7;" horiz-adv-x="449" d="M312 0 Q290 23 268 44 Q246 65 223 88 Q203 66 180.5 44.5 Q158 23 138 2 L49 88 Q71 111 92.5 132 Q114 153 137 176 L46 266 L136 357 L227 265 L315 354 Q336 332 357 309.5 Q378 287 400 265 L315 179 Q338 157 359 134.5 Q380 112 403 89 L312 0 Z " />
<glyph glyph-name="O" unicode="O" horiz-adv-x="817" d="M36 363 Q36 439 65.5 507 Q95 575 145.5 626 Q196 677 263.5 707 Q331 737 408 737 Q484 737 552 707 Q620 677 671 626 Q722 575 751.5 507 Q781 439 781 363 Q781 286 751.5 218.5 Q722 151 671 100.5 Q620 50 552 21 Q484 -8 408 -8 Q331 -8 263.5 21 Q196 50 145.5 100.5 Q95 151 65.5 218.5 Q36 286 36 363 Z M159 363 Q159 310 178.5 263.5 Q198 217 232.5 182.5 Q267 148 312.5 128 Q358 108 411 108 Q462 108 507.5 128 Q553 148 586.5 182.5 Q620 217 639.5 263.5 Q659 310 659 363 Q659 416 639 462.5 Q619 509 585 544 Q551 579 505.5 599 Q460 619 408 619 Q356 619 310.5 599 Q265 579 231.5 544 Q198 509 178.5 462.5 Q159 416 159 363 Z " />
<glyph glyph-name="g" unicode="g" horiz-adv-x="547" d="M33 210 Q33 258 50 299.5 Q67 341 96.5 371.5 Q126 402 165.5 419 Q205 436 250 436 Q284 436 310 427 Q336 418 353.5 407 Q371 396 380.5 386 Q390 376 392 374 Q392 385 394 398 Q396 411 396 425 L488 425 L488 22 Q488 -32 471 -74.5 Q454 -117 423.5 -145.5 Q393 -174 350.5 -189 Q308 -204 257 -204 Q218 -204 188.5 -196 Q159 -188 135.5 -175 Q112 -162 92.5 -146 Q73 -130 55 -114 L117 -49 Q145 -75 177 -93.5 Q209 -112 255 -112 Q317 -112 354 -82 Q391 -52 391 3 Q391 8 391 14.5 Q391 21 392 28 Q392 37 394 44 Q396 51 396 56 Q387 46 374.5 34 Q362 22 344.5 12 Q327 2 304 -4.5 Q281 -11 251 -11 Q203 -11 163 6 Q123 23 94 53 Q65 83 49 123 Q33 163 33 210 Z M129 214 Q129 186 138.5 162 Q148 138 165.5 120.5 Q183 103 207 93 Q231 83 260 83 Q289 83 313.5 93 Q338 103 355.5 121 Q373 139 382.5 163 Q392 187 392 214 Q392 241 382.5 264.5 Q373 288 355.5 305 Q338 322 313.5 332 Q289 342 260 342 Q231 342 207 332.5 Q183 323 165.5 305.5 Q148 288 138.5 264.5 Q129 241 129 214 Z " />
<glyph glyph-name="d" unicode="d" horiz-adv-x="547" d="M33 212 Q33 262 49.5 303 Q66 344 95.5 373.5 Q125 403 164.5 419.5 Q204 436 251 436 Q283 436 307 429 Q331 422 348 412 Q365 402 375.5 390.5 Q386 379 392 371 L392 781 L488 781 L488 0 L392 0 L392 28 Q392 33 393 39 Q394 45 394 48 Q385 39 372 28.5 Q359 18 341 9 Q323 0 300.5 -5.5 Q278 -11 249 -11 Q198 -11 157.5 6.5 Q117 24 89.5 54.5 Q62 85 47.5 125.5 Q33 166 33 212 Z M129 214 Q129 186 138.5 162 Q148 138 165.5 120.5 Q183 103 207 93 Q231 83 260 83 Q289 83 313.5 93 Q338 103 355.5 121 Q373 139 382.5 163 Q392 187 392 214 Q392 241 382.5 264.5 Q373 288 355.5 305 Q338 322 313.5 332 Q289 342 260 342 Q231 342 207 332.5 Q183 323 165.5 305.5 Q148 288 138.5 264.5 Q129 241 129 214 Z " />
<glyph glyph-name="a" unicode="a" horiz-adv-x="547" d="M32 208 Q32 254 50 295.5 Q68 337 98.5 368 Q129 399 169.5 417.5 Q210 436 255 436 Q285 436 309 428.5 Q333 421 350.5 411 Q368 401 378 390.5 Q388 380 391 374 L395 425 L488 425 L488 0 L391 0 L391 28 Q391 33 391.5 37.5 Q392 42 392 44 Q388 39 378 29.5 Q368 20 351 11 Q334 2 310.5 -4.5 Q287 -11 256 -11 Q207 -11 166 7 Q125 25 95 55 Q65 85 48.5 124.5 Q32 164 32 208 Z M129 214 Q129 186 138.5 162 Q148 138 165.5 120.5 Q183 103 207 93 Q231 83 260 83 Q289 83 313 93 Q337 103 354.5 121 Q372 139 381.5 163 Q391 187 391 214 Q391 241 381.5 264.5 Q372 288 354.5 305 Q337 322 313 332 Q289 342 260 342 Q231 342 207 332.5 Q183 323 165.5 305.5 Q148 288 138.5 264.5 Q129 241 129 214 Z " />
<glyph glyph-name="n" unicode="n" horiz-adv-x="522" d="M59 425 L143 425 Q145 389 147.5 366.5 Q150 344 152 316 Q175 370 217 403 Q259 436 322 436 Q387 436 425.5 400.5 Q464 365 466 308 L466 0 L371 0 L371 263 Q369 294 349 316.5 Q329 339 287 341 Q258 341 233.5 330.5 Q209 320 191.5 302 Q174 284 164.5 259 Q155 234 155 205 L155 0 L59 0 L59 425 Z " />
<glyph glyph-name="ogonek" unicode="&#x2db;" horiz-adv-x="487" d="M245 -39 Q245 -56 234.5 -65.5 Q224 -75 211.5 -84 Q199 -93 188.5 -103.5 Q178 -114 178 -133 Q178 -156 189.5 -171 Q201 -186 224 -186 Q242 -186 254.5 -176 Q267 -166 272 -151 L327 -180 Q313 -222 282 -241.5 Q251 -261 215 -261 Q186 -261 165 -251 Q144 -241 130.5 -225 Q117 -209 110 -189 Q103 -169 103 -149 Q103 -120 111.5 -99 Q120 -78 141 -62 Q147 -57 154.5 -53.5 Q162 -50 168.5 -44.5 Q175 -39 179 -31 Q183 -23 183 -8 L183 0 L245 0 L245 -39 Z " />
<glyph glyph-name="caron" unicode="&#x2c7;" horiz-adv-x="445" d="M114 670 L185 670 L235 604 Q238 608 245 617 Q252 626 260.5 636.5 Q269 647 276 656.5 Q283 666 286 670 L358 670 Q327 625 296.5 579 Q266 533 235 487 L114 670 Z " />
<glyph glyph-name="hungarumlaut" unicode="&#x2dd;" horiz-adv-x="528" d="M62 487 Q85 520 107.5 554 Q130 588 153 622 L256 622 Q226 588 195 554 Q164 520 133 487 L62 487 Z M283 487 Q306 520 328.5 554 Q351 588 374 622 L478 622 L354 487 L283 487 Z " />
<glyph glyph-name="dotaccent" unicode="&#x2d9;" horiz-adv-x="252" d="M69 590 Q69 616 88 633 Q107 650 129 650 Q151 650 169.5 633 Q188 616 188 590 Q188 563 169.5 546.5 Q151 530 129 530 Q107 530 88 546.5 Q69 563 69 590 Z " />
<glyph glyph-name="breve" unicode="&#x2d8;" horiz-adv-x="768" d="M263 500 Q230 500 200.5 512 Q171 524 149 545 Q127 566 114 595 Q101 624 100 657 L153 657 Q155 611 185.5 582 Q216 553 263 553 Q311 553 339.5 582 Q368 611 370 657 L424 657 Q424 624 411 595 Q398 566 376 545 Q354 524 325 512 Q296 500 263 500 Z " />
<glyph glyph-name="Aogonek" unicode="&#x104;" horiz-adv-x="651" d="M593 0 L593 -39 Q593 -56 582.5 -65.5 Q572 -75 559.5 -84 Q547 -93 536.5 -103.5 Q526 -114 526 -133 Q526 -156 537.5 -171 Q549 -186 572 -186 Q590 -186 602.5 -176 Q615 -166 620 -151 L675 -180 Q661 -222 630 -241.5 Q599 -261 563 -261 Q534 -261 513 -251 Q492 -241 478.5 -225 Q465 -209 458 -189 Q451 -169 451 -149 Q451 -120 459.5 -99 Q468 -78 489 -62 Q495 -57 502.5 -53.5 Q510 -50 516.5 -44.5 Q523 -39 527 -31 Q531 -23 531 -8 L531 0 Q528 7 520.5 25 Q513 43 502 69 Q491 95 478 126.5 Q465 158 451 192 L200 192 L120 0 L-1 0 Q3 9 18 44.5 Q33 80 55.5 132.5 Q78 185 105.5 249.5 Q133 314 162 381 Q191 448 218.5 512.5 Q246 577 268.5 629.5 Q291 682 306 717.5 Q321 753 325 762 Q329 753 344.5 717.5 Q360 682 382.5 629.5 Q405 577 432.5 512.5 Q460 448 489 381 Q518 314 545.5 249.5 Q573 185 595.5 132.5 Q618 80 633 44.5 Q648 9 652 0 L593 0 Z M242 295 L408 295 L336 469 Q335 470 331 482.5 Q327 495 325 505 Q323 495 319 482.5 Q315 470 315 469 L242 295 Z " />
<glyph glyph-name="Lslash" unicode="&#x141;" horiz-adv-x="582" d="M91 0 L91 259 L16 236 L16 335 L91 358 L91 729 L213 729 L213 395 L419 459 L419 360 L213 296 L213 116 L567 116 L567 0 L91 0 Z " />
<glyph glyph-name="Lcaron" unicode="&#x13d;" horiz-adv-x="575" d="M84 0 L84 729 L206 729 L206 116 L560 116 L560 0 L84 0 Z M380 574 Q367 580 355 586 Q343 592 329 600 Q351 620 360.5 650 Q370 680 363 715 L425 722 Q433 680 421 641.5 Q409 603 380 574 Z " />
<glyph glyph-name="Sacute" unicode="&#x15a;" horiz-adv-x="571" d="M514 688 L470 588 Q428 603 387 612 Q346 621 311 621 Q250 621 214.5 597 Q179 573 179 536 Q179 504 205.5 484 Q232 464 272 448 Q312 432 358.5 415.5 Q405 399 445 373 Q485 347 511.5 307 Q538 267 538 205 Q538 157 520.5 118 Q503 79 468 51 Q433 23 379.5 7.5 Q326 -8 254 -8 Q210 -8 174 -2 Q138 4 109.5 13 Q81 22 59 32.5 Q37 43 21 53 L74 160 Q116 137 164 124.5 Q212 112 249 112 Q267 112 295.5 116 Q324 120 351 131 Q378 142 397.5 161 Q417 180 417 210 Q417 245 390.5 267.5 Q364 290 324 307.5 Q284 325 237.5 342 Q191 359 151 382.5 Q111 406 84.5 440.5 Q58 475 58 528 Q58 566 73 602.5 Q88 639 118.5 668 Q149 697 194.5 715 Q240 733 302 733 Q341 733 377.5 726.5 Q414 720 443 712 Q472 704 491 696.5 Q510 689 514 688 Z M220 770 Q243 803 265.5 837 Q288 871 311 905 L414 905 Q384 871 353 837 Q322 803 291 770 L220 770 Z " />
<glyph glyph-name="Scaron" unicode="&#x160;" horiz-adv-x="571" d="M514 688 L470 588 Q428 603 387 612 Q346 621 311 621 Q250 621 214.5 597 Q179 573 179 536 Q179 504 205.5 484 Q232 464 272 448 Q312 432 358.5 415.5 Q405 399 445 373 Q485 347 511.5 307 Q538 267 538 205 Q538 157 520.5 118 Q503 79 468 51 Q433 23 379.5 7.5 Q326 -8 254 -8 Q210 -8 174 -2 Q138 4 109.5 13 Q81 22 59 32.5 Q37 43 21 53 L74 160 Q116 137 164 124.5 Q212 112 249 112 Q267 112 295.5 116 Q324 120 351 131 Q378 142 397.5 161 Q417 180 417 210 Q417 245 390.5 267.5 Q364 290 324 307.5 Q284 325 237.5 342 Q191 359 151 382.5 Q111 406 84.5 440.5 Q58 475 58 528 Q58 566 73 602.5 Q88 639 118.5 668 Q149 697 194.5 715 Q240 733 302 733 Q341 733 377.5 726.5 Q414 720 443 712 Q472 704 491 696.5 Q510 689 514 688 Z M168 928 L239 928 L289 862 Q292 866 299 875 Q306 884 314.5 894.5 Q323 905 330 914.5 Q337 924 340 928 L412 928 Q381 883 350.5 837 Q320 791 289 745 L168 928 Z " />
<glyph glyph-name="Scedilla" unicode="&#x15e;" horiz-adv-x="571" d="M514 688 L470 588 Q428 603 387 612 Q346 621 311 621 Q250 621 214.5 597 Q179 573 179 536 Q179 504 205.5 484 Q232 464 272 448 Q312 432 358.5 415.5 Q405 399 445 373 Q485 347 511.5 307 Q538 267 538 205 Q538 161 523 124 Q508 87 478 59.5 Q448 32 403 15 Q358 -2 297 -6 L297 -8 Q297 -23 301.5 -31 Q306 -39 312.5 -44.5 Q319 -50 326.5 -53.5 Q334 -57 340 -62 Q360 -78 369 -99 Q378 -120 378 -149 Q378 -169 371 -189 Q364 -209 350 -225 Q336 -241 315 -251 Q294 -261 265 -261 Q229 -261 198.5 -241.5 Q168 -222 154 -180 Q167 -172 181 -165 Q195 -158 209 -151 Q214 -166 226 -176 Q238 -186 256 -186 Q279 -186 290.5 -171 Q302 -156 302 -133 Q302 -114 291.5 -103.5 Q281 -93 268.5 -84 Q256 -75 245.5 -65.5 Q235 -56 235 -39 L235 -7 Q195 -6 162.5 0 Q130 6 103.5 14.5 Q77 23 56.5 33.5 Q36 44 21 53 L74 160 Q116 137 164 124.5 Q212 112 249 112 Q267 112 295.5 116 Q324 120 351 131 Q378 142 397.5 161 Q417 180 417 210 Q417 245 390.5 267.5 Q364 290 324 307.5 Q284 325 237.5 342 Q191 359 151 382.5 Q111 406 84.5 440.5 Q58 475 58 528 Q58 566 73 602.5 Q88 639 118.5 668 Q149 697 194.5 715 Q240 733 302 733 Q341 733 377.5 726.5 Q414 720 443 712 Q472 704 491 696.5 Q510 689 514 688 Z " />
<glyph glyph-name="Tcaron" unicode="&#x164;" horiz-adv-x="563" d="M521 729 L521 612 L341 612 L341 0 L218 0 L218 612 L42 612 L42 729 L521 729 Z M159 928 L230 928 L280 862 Q283 866 290 875 Q297 884 305.5 894.5 Q314 905 321 914.5 Q328 924 331 928 L403 928 Q372 883 341.5 837 Q311 791 280 745 L159 928 Z " />
<glyph glyph-name="Zacute" unicode="&#x179;" horiz-adv-x="640" d="M188 729 L610 729 L214 118 L616 118 L616 0 L0 0 Q6 9 25.5 39 Q45 69 73 112.5 Q101 156 135 209.5 Q169 263 203.5 318 Q238 373 272 426 Q306 479 334 522 Q362 565 381.5 595 Q401 625 407 633 L136 633 Q120 633 104 637.5 Q88 642 75.5 651 Q63 660 55 672.5 Q47 685 47 700 L47 765 L156 765 L156 752 Q156 732 163 730.5 Q170 729 188 729 Z M274 770 Q297 803 319.5 837 Q342 871 365 905 L468 905 Q438 871 407 837 Q376 803 345 770 L274 770 Z " />
<glyph glyph-name="Zcaron" unicode="&#x17d;" horiz-adv-x="640" d="M188 729 L610 729 L214 118 L616 118 L616 0 L0 0 Q6 9 25.5 39 Q45 69 73 112.5 Q101 156 135 209.5 Q169 263 203.5 318 Q238 373 272 426 Q306 479 334 522 Q362 565 381.5 595 Q401 625 407 633 L136 633 Q120 633 104 637.5 Q88 642 75.5 651 Q63 660 55 672.5 Q47 685 47 700 L47 765 L156 765 L156 752 Q156 732 163 730.5 Q170 729 188 729 Z M200 928 L271 928 L321 862 Q324 866 331 875 Q338 884 346.5 894.5 Q355 905 362 914.5 Q369 924 372 928 L444 928 Q413 883 382.5 837 Q352 791 321 745 L200 928 Z " />
<glyph glyph-name="Zdotaccent" unicode="&#x17b;" horiz-adv-x="640" d="M188 729 L610 729 L214 118 L616 118 L616 0 L0 0 Q6 9 25.5 39 Q45 69 73 112.5 Q101 156 135 209.5 Q169 263 203.5 318 Q238 373 272 426 Q306 479 334 522 Q362 565 381.5 595 Q401 625 407 633 L136 633 Q120 633 104 637.5 Q88 642 75.5 651 Q63 660 55 672.5 Q47 685 47 700 L47 765 L156 765 L156 752 Q156 732 163 730.5 Q170 729 188 729 Z M277 832 Q277 858 296 875 Q315 892 337 892 Q359 892 377.5 875 Q396 858 396 832 Q396 805 377.5 788.5 Q359 772 337 772 Q315 772 296 788.5 Q277 805 277 832 Z " />
<glyph glyph-name="aogonek" unicode="&#x105;" horiz-adv-x="547" d="M488 0 L391 0 L391 28 Q391 33 391.5 37.5 Q392 42 392 44 Q388 39 378 29.5 Q368 20 351 11 Q334 2 310.5 -4.5 Q287 -11 256 -11 Q207 -11 166 7 Q125 25 95 55 Q65 85 48.5 124.5 Q32 164 32 208 Q32 254 50 295.5 Q68 337 98.5 368 Q129 399 169.5 417.5 Q210 436 255 436 Q285 436 309 428.5 Q333 421 350.5 411 Q368 401 378 390.5 Q388 380 391 374 L395 425 L488 425 L488 0 Z M129 214 Q129 186 138.5 162 Q148 138 165.5 120.5 Q183 103 207 93 Q231 83 260 83 Q289 83 313 93 Q337 103 354.5 121 Q372 139 381.5 163 Q391 187 391 214 Q391 241 381.5 264.5 Q372 288 354.5 305 Q337 322 313 332 Q289 342 260 342 Q231 342 207 332.5 Q183 323 165.5 305.5 Q148 288 138.5 264.5 Q129 241 129 214 Z M453 0 L391 0 L391 -8 Q391 -23 387 -31 Q383 -39 376.5 -44.5 Q370 -50 362.5 -53.5 Q355 -57 349 -62 Q328 -78 319.5 -99 Q311 -120 311 -149 Q311 -169 318 -189 Q325 -209 338.5 -225 Q352 -241 373 -251 Q394 -261 423 -261 Q459 -261 490 -241.5 Q521 -222 535 -180 L480 -151 Q475 -166 462.5 -176 Q450 -186 432 -186 Q409 -186 397.5 -171 Q386 -156 386 -133 Q386 -114 396.5 -103.5 Q407 -93 419.5 -84 Q432 -75 442.5 -65.5 Q453 -56 453 -39 L453 0 Z " />
<glyph glyph-name="lslash" unicode="&#x142;" horiz-adv-x="248" d="M162 0 L67 0 L67 251 L19 236 L19 335 L67 350 L67 781 L162 781 L162 379 L229 400 L229 301 L162 280 L162 0 Z " />
<glyph glyph-name="lcaron" unicode="&#x13e;" horiz-adv-x="213" d="M154 0 L59 0 L59 781 L154 781 L154 0 Z M245 574 Q232 580 220 586 Q208 592 194 600 Q216 620 225.5 650 Q235 680 228 715 L290 722 Q298 680 286 641.5 Q274 603 245 574 Z " />
<glyph glyph-name="sacute" unicode="&#x15b;" horiz-adv-x="350" d="M301 387 Q295 378 286.5 366.5 Q278 355 270 345 Q262 335 256.5 327.5 Q251 320 251 320 Q251 320 246 323.5 Q241 327 231.5 331 Q222 335 209.5 338.5 Q197 342 184 342 Q170 342 154.5 335.5 Q139 329 139 309 Q139 292 152.5 280.5 Q166 269 185.5 259.5 Q205 250 228.5 240 Q252 230 271.5 215 Q291 200 304.5 177.5 Q318 155 318 122 Q318 93 307.5 69 Q297 45 277.5 28 Q258 11 231 1 Q204 -9 170 -9 Q129 -9 90.5 5 Q52 19 30 45 Q37 53 47 65 Q57 77 66 88 Q75 99 81.5 106.5 Q88 114 88 114 Q88 115 94.5 110.5 Q101 106 112 100 Q123 94 138 89 Q153 84 169 84 Q194 84 207.5 95 Q221 106 221 122 Q221 138 207.5 148 Q194 158 174.5 166.5 Q155 175 131.5 185 Q108 195 88.5 210 Q69 225 55.5 248.5 Q42 272 42 308 Q42 344 55 368 Q68 392 88.5 407 Q109 422 133 428.5 Q157 435 180 435 Q211 435 244.5 422.5 Q278 410 301 387 Z M122 487 Q145 520 167.5 554 Q190 588 213 622 L316 622 Q286 588 255 554 Q224 520 193 487 L122 487 Z " />
<glyph glyph-name="scaron" unicode="&#x161;" horiz-adv-x="350" d="M301 387 Q295 378 286.5 366.5 Q278 355 270 345 Q262 335 256.5 327.5 Q251 320 251 320 Q251 320 246 323.5 Q241 327 231.5 331 Q222 335 209.5 338.5 Q197 342 184 342 Q170 342 154.5 335.5 Q139 329 139 309 Q139 292 152.5 280.5 Q166 269 185.5 259.5 Q205 250 228.5 240 Q252 230 271.5 215 Q291 200 304.5 177.5 Q318 155 318 122 Q318 93 307.5 69 Q297 45 277.5 28 Q258 11 231 1 Q204 -9 170 -9 Q129 -9 90.5 5 Q52 19 30 45 Q37 53 47 65 Q57 77 66 88 Q75 99 81.5 106.5 Q88 114 88 114 Q88 115 94.5 110.5 Q101 106 112 100 Q123 94 138 89 Q153 84 169 84 Q194 84 207.5 95 Q221 106 221 122 Q221 138 207.5 148 Q194 158 174.5 166.5 Q155 175 131.5 185 Q108 195 88.5 210 Q69 225 55.5 248.5 Q42 272 42 308 Q42 344 55 368 Q68 392 88.5 407 Q109 422 133 428.5 Q157 435 180 435 Q211 435 244.5 422.5 Q278 410 301 387 Z M47 670 L118 670 L168 604 Q171 608 178 617 Q185 626 193.5 636.5 Q202 647 209 656.5 Q216 666 219 670 L291 670 Q260 625 229.5 579 Q199 533 168 487 L47 670 Z " />
<glyph glyph-name="scedilla" unicode="&#x15f;" horiz-adv-x="350" d="M301 387 Q295 378 286.5 366.5 Q278 355 270 345 Q262 335 256.5 327.5 Q251 320 251 320 Q251 320 246 323.5 Q241 327 231.5 331 Q222 335 209.5 338.5 Q197 342 184 342 Q170 342 154.5 335.5 Q139 329 139 309 Q139 292 152.5 280.5 Q166 269 185.5 259.5 Q205 250 228.5 240 Q252 230 271.5 215 Q291 200 304.5 177.5 Q318 155 318 122 Q318 73 288.5 38.5 Q259 4 208 -5 L208 -8 Q208 -23 212.5 -31 Q217 -39 223.5 -44.5 Q230 -50 237.5 -53.5 Q245 -57 251 -62 Q271 -78 280 -99 Q289 -120 289 -149 Q289 -169 282 -189 Q275 -209 261 -225 Q247 -241 226 -251 Q205 -261 176 -261 Q140 -261 109.5 -241.5 Q79 -222 65 -180 Q78 -172 92 -165 Q106 -158 120 -151 Q125 -166 137 -176 Q149 -186 167 -186 Q190 -186 201.5 -171 Q213 -156 213 -133 Q213 -114 202.5 -103.5 Q192 -93 179.5 -84 Q167 -75 156.5 -65.5 Q146 -56 146 -39 L146 -7 Q111 -3 79.5 10 Q48 23 30 45 Q37 53 47 65 Q57 77 66 88 Q75 99 81.5 106.5 Q88 114 88 114 Q88 115 94.5 110.5 Q101 106 112 100 Q123 94 138 89 Q153 84 169 84 Q194 84 207.5 95 Q221 106 221 122 Q221 138 207.5 148 Q194 158 174.5 166.5 Q155 175 131.5 185 Q108 195 88.5 210 Q69 225 55.5 248.5 Q42 272 42 308 Q42 344 55 368 Q68 392 88.5 407 Q109 422 133 428.5 Q157 435 180 435 Q211 435 244.5 422.5 Q278 410 301 387 Z " />
<glyph glyph-name="tcaron" unicode="&#x165;" horiz-adv-x="316" d="M98 611 L193 611 L193 425 L304 425 L304 339 L193 339 L193 0 L98 0 L98 339 L26 339 L26 425 L98 425 L98 611 Z M308 574 Q295 580 283 586 Q271 592 257 600 Q279 620 288.5 650 Q298 680 291 715 L353 722 Q361 680 349 641.5 Q337 603 308 574 Z " />
<glyph glyph-name="zacute" unicode="&#x17a;" horiz-adv-x="454" d="M424 0 L14 0 L252 343 L121 343 Q86 343 61.5 363.5 Q37 384 37 416 L37 465 L123 465 L123 452 Q123 433 131 429 Q139 425 157 425 L428 425 L198 94 L424 94 L424 0 Z M191 487 Q214 520 236.5 554 Q259 588 282 622 L385 622 Q355 588 324 554 Q293 520 262 487 L191 487 Z " />
<glyph glyph-name="zcaron" unicode="&#x17e;" horiz-adv-x="454" d="M424 0 L14 0 L252 343 L121 343 Q86 343 61.5 363.5 Q37 384 37 416 L37 465 L123 465 L123 452 Q123 433 131 429 Q139 425 157 425 L428 425 L198 94 L424 94 L424 0 Z M114 670 L185 670 L235 604 Q238 608 245 617 Q252 626 260.5 636.5 Q269 647 276 656.5 Q283 666 286 670 L358 670 Q327 625 296.5 579 Q266 533 235 487 L114 670 Z " />
<glyph glyph-name="zdotaccent" unicode="&#x17c;" horiz-adv-x="454" d="M424 0 L14 0 L252 343 L121 343 Q86 343 61.5 363.5 Q37 384 37 416 L37 465 L123 465 L123 452 Q123 433 131 429 Q139 425 157 425 L428 425 L198 94 L424 94 L424 0 Z M173 590 Q173 616 192 633 Q211 650 233 650 Q255 650 273.5 633 Q292 616 292 590 Q292 563 273.5 546.5 Q255 530 233 530 Q211 530 192 546.5 Q173 563 173 590 Z " />
<glyph glyph-name="Racute" unicode="&#x154;" horiz-adv-x="636" d="M84 0 L84 729 L290 729 Q350 729 399.5 713 Q449 697 483.5 667 Q518 637 537 593 Q556 549 556 494 Q556 464 550 434 Q544 404 531 376 Q518 348 497 324.5 Q476 301 447 284 Q469 249 490 215.5 Q511 182 532.5 148 Q554 114 577 78 Q600 42 627 0 L480 0 Q435 70 395 132.5 Q355 195 318 251 L308 251 L206 251 L206 0 L84 0 Z M206 366 L304 366 Q342 366 367 379 Q392 392 407 410.5 Q422 429 428 450.5 Q434 472 434 490 Q434 507 428.5 528.5 Q423 550 408.5 569 Q394 588 369 601 Q344 614 305 614 L206 614 L206 366 Z M237 770 Q260 803 282.5 837 Q305 871 328 905 L431 905 Q401 871 370 837 Q339 803 308 770 L237 770 Z " />
<glyph glyph-name="Abreve" unicode="&#x102;" horiz-adv-x="653" d="M653 0 Q649 9 634 44.5 Q619 80 596.5 132.5 Q574 185 546.5 249.5 Q519 314 490 381 Q461 448 433.5 512.5 Q406 577 383.5 629.5 Q361 682 345.5 717.5 Q330 753 326 762 Q322 753 307 717.5 Q292 682 269.5 629.5 Q247 577 219.5 512.5 Q192 448 163 381 Q134 314 106.5 249.5 Q79 185 56.5 132.5 Q34 80 19 44.5 Q4 9 0 0 L121 0 L201 192 L452 192 Q466 158 479 126.5 Q492 95 503 69 Q514 43 521.5 25 Q529 7 532 0 L653 0 Z M327 774 Q294 774 264.5 786 Q235 798 213 819 Q191 840 178 869 Q165 898 164 931 L217 931 Q219 885 249.5 856 Q280 827 327 827 Q375 827 403.5 856 Q432 885 434 931 L488 931 Q488 898 475 869 Q462 840 440 819 Q418 798 389 786 Q360 774 327 774 Z M316 469 Q316 470 320 482.5 Q324 495 326 505 Q328 495 332 482.5 Q336 470 337 469 L409 295 L243 295 L316 469 Z " />
<glyph glyph-name="Lacute" unicode="&#x139;" horiz-adv-x="575" d="M84 0 L84 729 L206 729 L206 116 L560 116 L560 0 L84 0 Z M255 770 Q278 803 300.5 837 Q323 871 346 905 L449 905 Q419 871 388 837 Q357 803 326 770 L255 770 Z " />
<glyph glyph-name="Cacute" unicode="&#x106;" horiz-adv-x="640" d="M633 54 Q621 46 599.5 35 Q578 24 548.5 14.5 Q519 5 482 -1.5 Q445 -8 403 -8 Q317 -8 249 21.5 Q181 51 134 101 Q87 151 62 218 Q37 285 37 359 Q37 441 67 510.5 Q97 580 148.5 630.5 Q200 681 268.5 709 Q337 737 415 737 Q445 737 475.5 732.5 Q506 728 533 721 Q560 714 580.5 705 Q601 696 610 686 Q601 672 596 663 Q591 654 585.5 644.5 Q580 635 573.5 623 Q567 611 555 590 Q543 598 526 604 Q509 610 490.5 613.5 Q472 617 453 619 Q434 621 419 621 Q363 621 315.5 600 Q268 579 233.5 544.5 Q199 510 179.5 464 Q160 418 160 369 Q160 321 178.5 275.5 Q197 230 230.5 195 Q264 160 310 138.5 Q356 117 412 117 Q444 117 474 123.5 Q504 130 527 138 Q550 146 564.5 154 Q579 162 580 165 L633 54 Z M341 770 Q364 803 386.5 837 Q409 871 432 905 L535 905 Q505 871 474 837 Q443 803 412 770 L341 770 Z " />
<glyph glyph-name="Ccaron" unicode="&#x10c;" horiz-adv-x="640" d="M633 54 Q621 46 599.5 35 Q578 24 548.5 14.5 Q519 5 482 -1.5 Q445 -8 403 -8 Q317 -8 249 21.5 Q181 51 134 101 Q87 151 62 218 Q37 285 37 359 Q37 441 67 510.5 Q97 580 148.5 630.5 Q200 681 268.5 709 Q337 737 415 737 Q445 737 475.5 732.5 Q506 728 533 721 Q560 714 580.5 705 Q601 696 610 686 Q601 672 596 663 Q591 654 585.5 644.5 Q580 635 573.5 623 Q567 611 555 590 Q543 598 526 604 Q509 610 490.5 613.5 Q472 617 453 619 Q434 621 419 621 Q363 621 315.5 600 Q268 579 233.5 544.5 Q199 510 179.5 464 Q160 418 160 369 Q160 321 178.5 275.5 Q197 230 230.5 195 Q264 160 310 138.5 Q356 117 412 117 Q444 117 474 123.5 Q504 130 527 138 Q550 146 564.5 154 Q579 162 580 165 L633 54 Z M288 928 L359 928 L409 862 Q412 866 419 875 Q426 884 434.5 894.5 Q443 905 450 914.5 Q457 924 460 928 L532 928 Q501 883 470.5 837 Q440 791 409 745 L288 928 Z " />
<glyph glyph-name="Eogonek" unicode="&#x118;" horiz-adv-x="619" d="M84 0 L84 729 L568 729 L568 618 L206 618 L206 422 L528 422 L528 308 L206 308 L206 114 L582 114 L582 0 L84 0 Z M582 0 L520 0 L520 -8 Q520 -23 516 -31 Q512 -39 505.5 -44.5 Q499 -50 491.5 -53.5 Q484 -57 478 -62 Q457 -78 448.5 -99 Q440 -120 440 -149 Q440 -169 447 -189 Q454 -209 467.5 -225 Q481 -241 502 -251 Q523 -261 552 -261 Q588 -261 619 -241.5 Q650 -222 664 -180 L609 -151 Q604 -166 591.5 -176 Q579 -186 561 -186 Q538 -186 526.5 -171 Q515 -156 515 -133 Q515 -114 525.5 -103.5 Q536 -93 548.5 -84 Q561 -75 571.5 -65.5 Q582 -56 582 -39 L582 0 Z " />
<glyph glyph-name="Ecaron" unicode="&#x11a;" horiz-adv-x="619" d="M84 0 L84 729 L568 729 L568 618 L206 618 L206 422 L528 422 L528 308 L206 308 L206 114 L582 114 L582 0 L84 0 Z M213 928 L284 928 L334 862 Q337 866 344 875 Q351 884 359.5 894.5 Q368 905 375 914.5 Q382 924 385 928 L457 928 Q426 883 395.5 837 Q365 791 334 745 L213 928 Z " />
<glyph glyph-name="Dcaron" unicode="&#x10e;" horiz-adv-x="713" d="M84 729 L273 729 Q383 729 459.5 695.5 Q536 662 584 609 Q632 556 653.5 488.5 Q675 421 675 354 Q675 272 645.5 206.5 Q616 141 566 95 Q516 49 449.5 24.5 Q383 0 309 0 L84 0 L84 729 Z M290 116 Q347 116 395 132 Q443 148 478 179.5 Q513 211 532.5 256.5 Q552 302 552 362 Q552 430 528.5 477.5 Q505 525 469 554.5 Q433 584 389 597.5 Q345 611 305 611 L207 611 L207 116 L290 116 Z M218 928 L289 928 L339 862 Q342 866 349 875 Q356 884 364.5 894.5 Q373 905 380 914.5 Q387 924 390 928 L462 928 Q431 883 400.5 837 Q370 791 339 745 L218 928 Z " />
<glyph glyph-name="Dcroat" unicode="&#x110;" horiz-adv-x="719" d="M18 412 L90 412 L90 729 L279 729 Q389 729 465.5 695.5 Q542 662 590 609 Q638 556 659.5 488.5 Q681 421 681 354 Q681 272 651.5 206.5 Q622 141 572 95 Q522 49 455.5 24.5 Q389 0 315 0 L90 0 L90 330 L18 330 L18 412 Z M296 116 Q353 116 401 132 Q449 148 484 179.5 Q519 211 538.5 256.5 Q558 302 558 362 Q558 430 534.5 477.5 Q511 525 475 554.5 Q439 584 395 597.5 Q351 611 311 611 L213 611 L213 412 L321 412 L321 330 L213 330 L213 116 L296 116 Z " />
<glyph glyph-name="Nacute" unicode="&#x143;" horiz-adv-x="811" d="M727 729 L727 -34 Q720 -25 696 -1 Q672 23 637 56.5 Q602 90 559.5 130.5 Q517 171 473 212.5 Q429 254 387 294 Q345 334 310.5 367.5 Q276 401 252.5 424.5 Q229 448 222 457 Q221 459 214 467.5 Q207 476 202 483 L205 451 L205 0 L83 0 L83 762 Q90 753 114 729.5 Q138 706 173 673 Q208 640 250.5 601 Q293 562 337 521.5 Q381 481 423 441.5 Q465 402 500 369.5 Q535 337 558.5 314 Q582 291 589 282 L608 254 L605 288 L605 729 L727 729 Z M341 770 Q364 803 386.5 837 Q409 871 432 905 L535 905 Q505 871 474 837 Q443 803 412 770 L341 770 Z " />
<glyph glyph-name="Ncaron" unicode="&#x147;" horiz-adv-x="812" d="M728 729 L728 -34 Q721 -25 697 -1 Q673 23 638 56.5 Q603 90 560.5 130.5 Q518 171 474 212.5 Q430 254 388 294 Q346 334 311.5 367.5 Q277 401 253.5 424.5 Q230 448 223 457 Q222 459 215 467.5 Q208 476 203 483 L206 451 L206 0 L84 0 L84 762 Q91 753 115 729.5 Q139 706 174 673 Q209 640 251.5 601 Q294 562 338 521.5 Q382 481 424 441.5 Q466 402 501 369.5 Q536 337 559.5 314 Q583 291 590 282 L609 254 L606 288 L606 729 L728 729 Z M270 928 L341 928 L391 862 Q394 866 401 875 Q408 884 416.5 894.5 Q425 905 432 914.5 Q439 924 442 928 L514 928 Q483 883 452.5 837 Q422 791 391 745 L270 928 Z " />
<glyph glyph-name="Ohungarumlaut" unicode="&#x150;" horiz-adv-x="817" d="M36 363 Q36 439 65.5 507 Q95 575 145.5 626 Q196 677 263.5 707 Q331 737 408 737 Q484 737 552 707 Q620 677 671 626 Q722 575 751.5 507 Q781 439 781 363 Q781 286 751.5 218.5 Q722 151 671 100.5 Q620 50 552 21 Q484 -8 408 -8 Q331 -8 263.5 21 Q196 50 145.5 100.5 Q95 151 65.5 218.5 Q36 286 36 363 Z M159 363 Q159 310 178.5 263.5 Q198 217 232.5 182.5 Q267 148 312.5 128 Q358 108 411 108 Q462 108 507.5 128 Q553 148 586.5 182.5 Q620 217 639.5 263.5 Q659 310 659 363 Q659 416 639 462.5 Q619 509 585 544 Q551 579 505.5 599 Q460 619 408 619 Q356 619 310.5 599 Q265 579 231.5 544 Q198 509 178.5 462.5 Q159 416 159 363 Z M255 765 Q278 798 300.5 832 Q323 866 346 900 L449 900 Q419 866 388 832 Q357 798 326 765 L255 765 Z M476 765 Q499 798 521.5 832 Q544 866 567 900 L671 900 L547 765 L476 765 Z " />
<glyph glyph-name="Rcaron" unicode="&#x158;" horiz-adv-x="636" d="M84 0 L84 729 L290 729 Q350 729 399.5 713 Q449 697 483.5 667 Q518 637 537 593 Q556 549 556 494 Q556 464 550 434 Q544 404 531 376 Q518 348 497 324.5 Q476 301 447 284 Q469 249 490 215.5 Q511 182 532.5 148 Q554 114 577 78 Q600 42 627 0 L480 0 Q435 70 395 132.5 Q355 195 318 251 L308 251 L206 251 L206 0 L84 0 Z M206 366 L304 366 Q342 366 367 379 Q392 392 407 410.5 Q422 429 428 450.5 Q434 472 434 490 Q434 507 428.5 528.5 Q423 550 408.5 569 Q394 588 369 601 Q344 614 305 614 L206 614 L206 366 Z M179 928 L250 928 L300 862 Q303 866 310 875 Q317 884 325.5 894.5 Q334 905 341 914.5 Q348 924 351 928 L423 928 Q392 883 361.5 837 Q331 791 300 745 L179 928 Z " />
<glyph glyph-name="Uring" unicode="&#x16e;" horiz-adv-x="720" d="M333 853 Q333 839 342.5 830 Q352 821 366 821 Q380 821 389.5 830 Q399 839 399 853 Q399 868 389.5 877.5 Q380 887 366 887 Q352 887 342.5 877.5 Q333 868 333 853 Z M277 855 Q277 873 284 888.5 Q291 904 303.5 916 Q316 928 332 935 Q348 942 366 942 Q384 942 400 935 Q416 928 428 916 Q440 904 447 888.5 Q454 873 454 855 Q454 837 447 821 Q440 805 428 792.5 Q416 780 400 773 Q384 766 366 766 Q348 766 332 773 Q316 780 303.5 792.5 Q291 805 284 821 Q277 837 277 855 Z M359 -8 Q300 -8 248.5 11.5 Q197 31 159 66 Q121 101 99 150.5 Q77 200 77 260 L77 729 L199 729 L199 263 Q199 231 211.5 203 Q224 175 245.5 154 Q267 133 296 120.5 Q325 108 359 108 Q393 108 422.5 120.5 Q452 133 474 154 Q496 175 508.5 203 Q521 231 521 263 L521 729 L643 729 L643 260 Q643 200 621 150.5 Q599 101 560.5 66 Q522 31 470 11.5 Q418 -8 359 -8 Z " />
<glyph glyph-name="Uhungarumlaut" unicode="&#x170;" horiz-adv-x="720" d="M359 -8 Q300 -8 248.5 11.5 Q197 31 159 66 Q121 101 99 150.5 Q77 200 77 260 L77 729 L199 729 L199 263 Q199 231 211.5 203 Q224 175 245.5 154 Q267 133 296 120.5 Q325 108 359 108 Q393 108 422.5 120.5 Q452 133 474 154 Q496 175 508.5 203 Q521 231 521 263 L521 729 L643 729 L643 260 Q643 200 621 150.5 Q599 101 560.5 66 Q522 31 470 11.5 Q418 -8 359 -8 Z M193 765 Q216 798 238.5 832 Q261 866 284 900 L387 900 Q357 866 326 832 Q295 798 264 765 L193 765 Z M414 765 Q437 798 459.5 832 Q482 866 505 900 L609 900 L485 765 L414 765 Z " />
<glyph glyph-name="uni0162" unicode="&#x162;" horiz-adv-x="563" d="M521 729 L521 612 L341 612 L341 0 L218 0 L218 612 L42 612 L42 729 L521 729 Z M343 -21 L255 -231 L163 -231 Q183 -178 202 -126.5 Q221 -75 241 -21 L343 -21 Z " />
<glyph glyph-name="racute" unicode="&#x155;" horiz-adv-x="324" d="M297 312 Q269 312 243.5 305 Q218 298 198.5 283.5 Q179 269 167 247.5 Q155 226 155 197 L155 0 L59 0 L59 425 L143 425 Q145 389 147.5 366.5 Q150 344 152 316 Q165 344 187 366 Q209 388 232.5 403.5 Q256 419 279 427.5 Q302 436 318 436 L297 312 Z M112 487 Q135 520 157.5 554 Q180 588 203 622 L306 622 Q276 588 245 554 Q214 520 183 487 L112 487 Z " />
<glyph glyph-name="abreve" unicode="&#x103;" horiz-adv-x="547" d="M32 208 Q32 254 50 295.5 Q68 337 98.5 368 Q129 399 169.5 417.5 Q210 436 255 436 Q285 436 309 428.5 Q333 421 350.5 411 Q368 401 378 390.5 Q388 380 391 374 L395 425 L488 425 L488 0 L391 0 L391 28 Q391 33 391.5 37.5 Q392 42 392 44 Q388 39 378 29.5 Q368 20 351 11 Q334 2 310.5 -4.5 Q287 -11 256 -11 Q207 -11 166 7 Q125 25 95 55 Q65 85 48.5 124.5 Q32 164 32 208 Z M129 214 Q129 186 138.5 162 Q148 138 165.5 120.5 Q183 103 207 93 Q231 83 260 83 Q289 83 313 93 Q337 103 354.5 121 Q372 139 381.5 163 Q391 187 391 214 Q391 241 381.5 264.5 Q372 288 354.5 305 Q337 322 313 332 Q289 342 260 342 Q231 342 207 332.5 Q183 323 165.5 305.5 Q148 288 138.5 264.5 Q129 241 129 214 Z M277 500 Q244 500 214.5 512 Q185 524 163 545 Q141 566 128 595 Q115 624 114 657 L167 657 Q169 611 199.5 582 Q230 553 277 553 Q325 553 353.5 582 Q382 611 384 657 L438 657 Q438 624 425 595 Q412 566 390 545 Q368 524 339 512 Q310 500 277 500 Z " />
<glyph glyph-name="lacute" unicode="&#x13a;" horiz-adv-x="213" d="M154 0 L59 0 L59 781 L154 781 L154 0 Z M65 798 Q88 831 110.5 865 Q133 899 156 933 L259 933 Q229 899 198 865 Q167 831 136 798 L65 798 Z " />
<glyph glyph-name="cacute" unicode="&#x107;" horiz-adv-x="425" d="M343 111 Q358 92 372 74.5 Q386 57 401 39 Q372 16 336 2.5 Q300 -11 259 -11 Q212 -11 170.5 6.5 Q129 24 98.5 54.5 Q68 85 50 126 Q32 167 32 213 Q32 259 50 299.5 Q68 340 98.5 370.5 Q129 401 170.5 418.5 Q212 436 259 436 Q301 436 337.5 422.5 Q374 409 404 386 L343 315 Q308 342 259 342 Q230 342 206 332 Q182 322 164.5 305 Q147 288 137.5 264.5 Q128 241 128 213 Q128 186 137.5 162.5 Q147 139 164.5 121 Q182 103 206 93 Q230 83 259 83 Q309 83 343 111 Z M186 487 Q209 520 231.5 554 Q254 588 277 622 L380 622 Q350 588 319 554 Q288 520 257 487 L186 487 Z " />
<glyph glyph-name="ccaron" unicode="&#x10d;" horiz-adv-x="425" d="M343 111 Q358 92 372 74.5 Q386 57 401 39 Q372 16 336 2.5 Q300 -11 259 -11 Q212 -11 170.5 6.5 Q129 24 98.5 54.5 Q68 85 50 126 Q32 167 32 213 Q32 259 50 299.5 Q68 340 98.5 370.5 Q129 401 170.5 418.5 Q212 436 259 436 Q301 436 337.5 422.5 Q374 409 404 386 L343 315 Q308 342 259 342 Q230 342 206 332 Q182 322 164.5 305 Q147 288 137.5 264.5 Q128 241 128 213 Q128 186 137.5 162.5 Q147 139 164.5 121 Q182 103 206 93 Q230 83 259 83 Q309 83 343 111 Z M126 670 L197 670 L247 604 Q250 608 257 617 Q264 626 272.5 636.5 Q281 647 288 656.5 Q295 666 298 670 L370 670 Q339 625 308.5 579 Q278 533 247 487 L126 670 Z " />
<glyph glyph-name="eogonek" unicode="&#x119;" horiz-adv-x="474" d="M287 0 L225 0 L225 -8 Q184 -2 149 17.5 Q114 37 88 66.5 Q62 96 47 133 Q32 170 32 212 Q32 258 50 298.5 Q68 339 98.5 369.5 Q129 400 169.5 417.5 Q210 435 255 435 Q327 435 381.5 391.5 Q436 348 459 277 Q429 266 389.5 250.5 Q350 235 307 218 Q264 201 221 183.5 Q178 166 142 152 Q159 121 189 102 Q219 83 257 83 Q283 83 309.5 92.5 Q336 102 353 118 L424 49 Q398 25 361.5 10.5 Q325 -4 287 -9 L287 0 Z M259 -11 Q241 -11 225 -8 Q225 -23 221 -31 Q217 -39 210.5 -44.5 Q204 -50 196.5 -53.5 Q189 -57 183 -62 Q162 -78 153.5 -99 Q145 -120 145 -149 Q145 -169 152 -189 Q159 -209 172.5 -225 Q186 -241 207 -251 Q228 -261 257 -261 Q293 -261 324 -241.5 Q355 -222 369 -180 L314 -151 Q309 -166 296.5 -176 Q284 -186 266 -186 Q243 -186 231.5 -171 Q220 -156 220 -133 Q220 -114 230.5 -103.5 Q241 -93 253.5 -84 Q266 -75 276.5 -65.5 Q287 -56 287 -39 L287 -9 Q279 -10 272.5 -10.5 Q266 -11 259 -11 Z M340 299 Q328 321 304 331.5 Q280 342 257 342 Q230 342 206 331.5 Q182 321 165 303.5 Q148 286 138 263.5 Q128 241 128 217 L128 213 Q153 223 181.5 234.5 Q210 246 238.5 258 Q267 270 293 280.5 Q319 291 340 299 Z " />
<glyph glyph-name="ecaron" unicode="&#x11b;" horiz-adv-x="474" d="M424 49 Q393 21 349 5 Q305 -11 259 -11 Q212 -11 170.5 6.5 Q129 24 98.5 54.5 Q68 85 50 125.5 Q32 166 32 212 Q32 258 50 298.5 Q68 339 98.5 369.5 Q129 400 169.5 417.5 Q210 435 255 435 Q327 435 381.5 391.5 Q436 348 459 277 Q429 266 389.5 250.5 Q350 235 307 218 Q264 201 221 183.5 Q178 166 142 152 Q159 121 189 102 Q219 83 257 83 Q283 83 309.5 92.5 Q336 102 353 118 L424 49 Z M117 670 L188 670 L238 604 Q241 608 248 617 Q255 626 263.5 636.5 Q272 647 279 656.5 Q286 666 289 670 L361 670 Q330 625 299.5 579 Q269 533 238 487 L117 670 Z M340 299 Q328 321 304 331.5 Q280 342 257 342 Q230 342 206 331.5 Q182 321 165 303.5 Q148 286 138 263.5 Q128 241 128 217 L128 213 Q153 223 181.5 234.5 Q210 246 238.5 258 Q267 270 293 280.5 Q319 291 340 299 Z " />
<glyph glyph-name="dcaron" unicode="&#x10f;" horiz-adv-x="548" d="M33 212 Q33 262 49.5 303 Q66 344 95.5 373.5 Q125 403 164.5 419.5 Q204 436 251 436 Q283 436 307 429 Q331 422 348 412 Q365 402 375.5 390.5 Q386 379 392 371 L392 781 L488 781 L488 0 L392 0 L392 28 Q392 33 393 39 Q394 45 394 48 Q385 39 372 28.5 Q359 18 341 9 Q323 0 300.5 -5.5 Q278 -11 249 -11 Q198 -11 157.5 6.5 Q117 24 89.5 54.5 Q62 85 47.5 125.5 Q33 166 33 212 Z M129 214 Q129 186 138.5 162 Q148 138 165.5 120.5 Q183 103 207 93 Q231 83 260 83 Q289 83 313.5 93 Q338 103 355.5 121 Q373 139 382.5 163 Q392 187 392 214 Q392 241 382.5 264.5 Q373 288 355.5 305 Q338 322 313.5 332 Q289 342 260 342 Q231 342 207 332.5 Q183 323 165.5 305.5 Q148 288 138.5 264.5 Q129 241 129 214 Z M580 574 Q567 580 555 586 Q543 592 529 600 Q551 620 560.5 650 Q570 680 563 715 L625 722 Q633 680 621 641.5 Q609 603 580 574 Z " />
<glyph glyph-name="dcroat" unicode="&#x111;" horiz-adv-x="548" d="M33 212 Q33 262 49.5 303 Q66 344 95.5 373.5 Q125 403 164.5 419.5 Q204 436 251 436 Q283 436 307 429 Q331 422 348 412 Q365 402 375.5 390.5 Q386 379 392 371 L392 604 L488 604 L488 0 L392 0 L392 28 Q392 33 393 39 Q394 45 394 48 Q385 39 372 28.5 Q359 18 341 9 Q323 0 300.5 -5.5 Q278 -11 249 -11 Q198 -11 157.5 6.5 Q117 24 89.5 54.5 Q62 85 47.5 125.5 Q33 166 33 212 Z M129 214 Q129 186 138.5 162 Q148 138 165.5 120.5 Q183 103 207 93 Q231 83 260 83 Q289 83 313.5 93 Q338 103 355.5 121 Q373 139 382.5 163 Q392 187 392 214 Q392 241 382.5 264.5 Q373 288 355.5 305 Q338 322 313.5 332 Q289 342 260 342 Q231 342 207 332.5 Q183 323 165.5 305.5 Q148 288 138.5 264.5 Q129 241 129 214 Z M242 604 L392 604 L392 686 L242 686 L242 604 Z M392 781 L488 781 L488 686 L392 686 L392 781 Z M545 604 L545 686 L488 686 L488 604 L545 604 Z " />
<glyph glyph-name="nacute" unicode="&#x144;" horiz-adv-x="522" d="M59 425 L143 425 Q145 389 147.5 366.5 Q150 344 152 316 Q175 370 217 403 Q259 436 322 436 Q387 436 425.5 400.5 Q464 365 466 308 L466 0 L371 0 L371 263 Q369 294 349 316.5 Q329 339 287 341 Q258 341 233.5 330.5 Q209 320 191.5 302 Q174 284 164.5 259 Q155 234 155 205 L155 0 L59 0 L59 425 Z M227 487 Q250 520 272.5 554 Q295 588 318 622 L421 622 Q391 588 360 554 Q329 520 298 487 L227 487 Z " />
<glyph glyph-name="ncaron" unicode="&#x148;" horiz-adv-x="522" d="M59 425 L143 425 Q145 389 147.5 366.5 Q150 344 152 316 Q175 370 217 403 Q259 436 322 436 Q387 436 425.5 400.5 Q464 365 466 308 L466 0 L371 0 L371 263 Q369 294 349 316.5 Q329 339 287 341 Q258 341 233.5 330.5 Q209 320 191.5 302 Q174 284 164.5 259 Q155 234 155 205 L155 0 L59 0 L59 425 Z M149 670 L220 670 L270 604 Q273 608 280 617 Q287 626 295.5 636.5 Q304 647 311 656.5 Q318 666 321 670 L393 670 Q362 625 331.5 579 Q301 533 270 487 L149 670 Z " />
<glyph glyph-name="ohungarumlaut" unicode="&#x151;" horiz-adv-x="514" d="M32 213 Q32 259 49.5 299.5 Q67 340 98 370 Q129 400 170.5 417.5 Q212 435 259 435 Q307 435 348 417.5 Q389 400 418.5 370 Q448 340 465 299.5 Q482 259 482 213 Q482 167 465.5 126 Q449 85 419 54.5 Q389 24 348 6.5 Q307 -11 258 -11 Q211 -11 170 5 Q129 21 98.5 50.5 Q68 80 50 121.5 Q32 163 32 213 Z M127 212 Q127 185 137 161.5 Q147 138 164.5 120.5 Q182 103 205.5 93 Q229 83 256 83 Q283 83 306.5 93 Q330 103 347.5 120.5 Q365 138 375.5 161.5 Q386 185 386 212 Q386 239 375.5 262.5 Q365 286 347.5 303.5 Q330 321 306.5 331.5 Q283 342 256 342 Q229 342 205.5 331.5 Q182 321 164.5 303.5 Q147 286 137 262.5 Q127 239 127 212 Z M82 487 Q105 520 127.5 554 Q150 588 173 622 L276 622 Q246 588 215 554 Q184 520 153 487 L82 487 Z M303 487 Q326 520 348.5 554 Q371 588 394 622 L498 622 L374 487 L303 487 Z " />
<glyph glyph-name="rcaron" unicode="&#x159;" horiz-adv-x="324" d="M297 312 Q269 312 243.5 305 Q218 298 198.5 283.5 Q179 269 167 247.5 Q155 226 155 197 L155 0 L59 0 L59 425 L143 425 Q145 389 147.5 366.5 Q150 344 152 316 Q165 344 187 366 Q209 388 232.5 403.5 Q256 419 279 427.5 Q302 436 318 436 L297 312 Z M63 670 L134 670 L184 604 Q187 608 194 617 Q201 626 209.5 636.5 Q218 647 225 656.5 Q232 666 235 670 L307 670 Q276 625 245.5 579 Q215 533 184 487 L63 670 Z " />
<glyph glyph-name="uring" unicode="&#x16f;" horiz-adv-x="522" d="M228 553 Q228 539 237.5 530 Q247 521 261 521 Q275 521 284.5 530 Q294 539 294 553 Q294 568 284.5 577.5 Q275 587 261 587 Q247 587 237.5 577.5 Q228 568 228 553 Z M173 555 Q173 573 180 588.5 Q187 604 199 616 Q211 628 227 635 Q243 642 261 642 Q279 642 295 635 Q311 628 323 616 Q335 604 342 588.5 Q349 573 349 555 Q349 537 342 521 Q335 505 323 492.5 Q311 480 295 473 Q279 466 261 466 Q243 466 227 473 Q211 480 199 492.5 Q187 505 180 521 Q173 537 173 555 Z M463 -10 L383 -10 L371 108 Q348 57 307.5 23.5 Q267 -10 201 -10 Q135 -10 96.5 24.5 Q58 59 56 116 L56 425 L152 425 L152 161 Q154 130 173.5 108.5 Q193 87 236 85 Q265 85 289 95 Q313 105 330.5 123 Q348 141 358 166 Q368 191 368 220 L368 425 L463 425 L463 -10 Z " />
<glyph glyph-name="uhungarumlaut" unicode="&#x171;" horiz-adv-x="523" d="M463 -10 L383 -10 L371 108 Q348 57 307.5 23.5 Q267 -10 201 -10 Q135 -10 96.5 24.5 Q58 59 56 116 L56 425 L152 425 L152 161 Q154 130 173.5 108.5 Q193 87 236 85 Q265 85 289 95 Q313 105 330.5 123 Q348 141 358 166 Q368 191 368 220 L368 425 L463 425 L463 -10 Z M84 487 Q107 520 129.5 554 Q152 588 175 622 L278 622 Q248 588 217 554 Q186 520 155 487 L84 487 Z M305 487 Q328 520 350.5 554 Q373 588 396 622 L500 622 L376 487 L305 487 Z " />
<glyph glyph-name="uni0163" unicode="&#x163;" horiz-adv-x="316" d="M98 611 L193 611 L193 425 L304 425 L304 339 L193 339 L193 0 L98 0 L98 339 L26 339 L26 425 L98 425 L98 611 Z M214 -21 L126 -231 L34 -231 Q54 -178 73 -126.5 Q92 -75 112 -21 L214 -21 Z " />
<glyph glyph-name="Hbar" unicode="&#x126;" horiz-adv-x="776" d="M91 0 L91 522 L12 522 L12 586 L91 586 L91 729 L214 729 L214 586 L562 586 L562 729 L686 729 L686 586 L762 586 L762 522 L686 522 Q686 471 685.5 414.5 Q685 358 685 302.5 Q685 247 685 195.5 Q685 144 685 103.5 Q685 63 685 35.5 Q685 8 685 0 L562 0 L562 308 L214 308 L214 0 L91 0 Z M562 425 L562 522 L214 522 L214 425 L562 425 Z " />
<glyph glyph-name="Hcircumflex" unicode="&#x124;" horiz-adv-x="763" d="M84 0 L84 729 L207 729 L207 425 L555 425 L555 729 L679 729 Q679 717 679 662 Q679 607 679 529.5 Q679 452 678.5 364.5 Q678 277 678 199.5 Q678 122 678 67 Q678 12 678 0 L555 0 L555 308 L207 308 L207 0 L84 0 Z M379 954 Q410 909 440.5 863 Q471 817 502 771 L430 771 L379 838 L329 771 L258 771 L379 954 Z " />
<glyph glyph-name="Idotaccent" unicode="&#x130;" horiz-adv-x="291" d="M84 729 L207 729 L207 0 L84 0 L84 729 Z M85 836 Q85 862 104 879 Q123 896 145 896 Q167 896 185.5 879 Q204 862 204 836 Q204 809 185.5 792.5 Q167 776 145 776 Q123 776 104 792.5 Q85 809 85 836 Z " />
<glyph glyph-name="Gbreve" unicode="&#x11e;" horiz-adv-x="688" d="M635 354 L635 44 Q593 19 533.5 5.5 Q474 -8 412 -8 Q326 -8 256.5 19 Q187 46 138 93 Q89 140 63 205 Q37 270 37 347 Q37 434 68 505.5 Q99 577 151.5 628.5 Q204 680 273.5 708.5 Q343 737 420 737 Q446 737 474.5 733.5 Q503 730 531 723 Q559 716 585 706.5 Q611 697 632 684 L572 584 Q558 593 538.5 599.5 Q519 606 498 611 Q477 616 456.5 618.5 Q436 621 418 621 Q367 621 320.5 600.5 Q274 580 238 545 Q202 510 180.5 461.5 Q159 413 159 358 Q159 308 178 263 Q197 218 231 183.5 Q265 149 312 128.5 Q359 108 415 108 Q435 108 465 111.5 Q495 115 522 124 L522 248 L386 248 L386 354 L635 354 Z M410 769 Q377 769 347.5 781 Q318 793 296 814 Q274 835 261 864 Q248 893 247 926 L300 926 Q302 880 332.5 851 Q363 822 410 822 Q458 822 486.5 851 Q515 880 517 926 L571 926 Q571 893 558 864 Q545 835 523 814 Q501 793 472 781 Q443 769 410 769 Z " />
<glyph glyph-name="Jcircumflex" unicode="&#x134;" horiz-adv-x="342" d="M-20 -151 L-20 -35 Q14 -33 43 -22 Q72 -11 93 10.5 Q114 32 125.5 65.5 Q137 99 137 145 L137 729 L261 729 L261 142 Q261 73 239.5 19.5 Q218 -34 180.5 -71.5 Q143 -109 91.5 -129 Q40 -149 -20 -151 Z M197 954 Q228 909 258.5 863 Q289 817 320 771 L248 771 L197 838 L147 771 L76 771 L197 954 Z " />
<glyph glyph-name="hbar" unicode="&#x127;" horiz-adv-x="522" d="M59 781 L155 781 L155 610 L302 610 L302 545 L155 545 L155 322 Q177 373 217 404 Q257 435 320 436 Q386 436 425 401 Q464 366 466 308 L466 0 L371 0 L371 263 Q369 294 349 316.5 Q329 339 287 341 Q258 341 233.5 330.5 Q209 320 191.5 302 Q174 284 164.5 259 Q155 234 155 205 L155 0 L59 0 L59 545 L-4 545 L-4 610 L59 610 L59 781 Z " />
<glyph glyph-name="hcircumflex" unicode="&#x125;" horiz-adv-x="522" d="M59 781 L155 781 L155 322 Q177 373 217 404 Q257 435 320 436 Q386 436 425 401 Q464 366 466 308 L466 0 L371 0 L371 263 Q369 294 349 316.5 Q329 339 287 341 Q258 341 233.5 330.5 Q209 320 191.5 302 Q174 284 164.5 259 Q155 234 155 205 L155 0 L59 0 L59 781 Z M316 954 Q347 909 377.5 863 Q408 817 439 771 L367 771 L316 838 L266 771 L195 771 L316 954 Z " />
<glyph glyph-name="dotlessi" unicode="&#x131;" horiz-adv-x="214" d="M155 0 L59 0 L59 425 L155 425 L155 0 Z " />
<glyph glyph-name="gbreve" unicode="&#x11f;" horiz-adv-x="547" d="M33 210 Q33 258 50 299.5 Q67 341 96.5 371.5 Q126 402 165.5 419 Q205 436 250 436 Q284 436 310 427 Q336 418 353.5 407 Q371 396 380.5 386 Q390 376 392 374 Q392 385 394 398 Q396 411 396 425 L488 425 L488 22 Q488 -32 471 -74.5 Q454 -117 423.5 -145.5 Q393 -174 350.5 -189 Q308 -204 257 -204 Q218 -204 188.5 -196 Q159 -188 135.5 -175 Q112 -162 92.5 -146 Q73 -130 55 -114 L117 -49 Q145 -75 177 -93.5 Q209 -112 255 -112 Q317 -112 354 -82 Q391 -52 391 3 Q391 8 391 14.5 Q391 21 392 28 Q392 37 394 44 Q396 51 396 56 Q387 46 374.5 34 Q362 22 344.5 12 Q327 2 304 -4.5 Q281 -11 251 -11 Q203 -11 163 6 Q123 23 94 53 Q65 83 49 123 Q33 163 33 210 Z M129 214 Q129 186 138.5 162 Q148 138 165.5 120.5 Q183 103 207 93 Q231 83 260 83 Q289 83 313.5 93 Q338 103 355.5 121 Q373 139 382.5 163 Q392 187 392 214 Q392 241 382.5 264.5 Q373 288 355.5 305 Q338 322 313.5 332 Q289 342 260 342 Q231 342 207 332.5 Q183 323 165.5 305.5 Q148 288 138.5 264.5 Q129 241 129 214 Z M282 500 Q249 500 219.5 512 Q190 524 168 545 Q146 566 133 595 Q120 624 119 657 L172 657 Q174 611 204.5 582 Q235 553 282 553 Q330 553 358.5 582 Q387 611 389 657 L443 657 Q443 624 430 595 Q417 566 395 545 Q373 524 344 512 Q315 500 282 500 Z " />
<glyph glyph-name="jcircumflex" unicode="&#x135;" horiz-adv-x="214" d="M64 -205 Q47 -186 30.5 -169 Q14 -152 -2 -133 Q27 -110 43 -76.5 Q59 -43 59 4 L59 425 L155 425 L155 0 Q155 -69 130.5 -120 Q106 -171 64 -205 Z M104 669 Q135 624 165.5 578 Q196 532 227 486 L155 486 L104 553 L54 486 L-17 486 L104 669 Z " />
<glyph glyph-name="Cdotaccent" unicode="&#x10a;" horiz-adv-x="640" d="M633 54 Q621 46 599.5 35 Q578 24 548.5 14.5 Q519 5 482 -1.5 Q445 -8 403 -8 Q317 -8 249 21.5 Q181 51 134 101 Q87 151 62 218 Q37 285 37 359 Q37 441 67 510.5 Q97 580 148.5 630.5 Q200 681 268.5 709 Q337 737 415 737 Q445 737 475.5 732.5 Q506 728 533 721 Q560 714 580.5 705 Q601 696 610 686 Q601 672 596 663 Q591 654 585.5 644.5 Q580 635 573.5 623 Q567 611 555 590 Q543 598 526 604 Q509 610 490.5 613.5 Q472 617 453 619 Q434 621 419 621 Q363 621 315.5 600 Q268 579 233.5 544.5 Q199 510 179.5 464 Q160 418 160 369 Q160 321 178.5 275.5 Q197 230 230.5 195 Q264 160 310 138.5 Q356 117 412 117 Q444 117 474 123.5 Q504 130 527 138 Q550 146 564.5 154 Q579 162 580 165 L633 54 Z M337 827 Q337 853 356 870 Q375 887 397 887 Q419 887 437.5 870 Q456 853 456 827 Q456 800 437.5 783.5 Q419 767 397 767 Q375 767 356 783.5 Q337 800 337 827 Z " />
<glyph glyph-name="Ccircumflex" unicode="&#x108;" horiz-adv-x="640" d="M633 54 Q621 46 599.5 35 Q578 24 548.5 14.5 Q519 5 482 -1.5 Q445 -8 403 -8 Q317 -8 249 21.5 Q181 51 134 101 Q87 151 62 218 Q37 285 37 359 Q37 441 67 510.5 Q97 580 148.5 630.5 Q200 681 268.5 709 Q337 737 415 737 Q445 737 475.5 732.5 Q506 728 533 721 Q560 714 580.5 705 Q601 696 610 686 Q601 672 596 663 Q591 654 585.5 644.5 Q580 635 573.5 623 Q567 611 555 590 Q543 598 526 604 Q509 610 490.5 613.5 Q472 617 453 619 Q434 621 419 621 Q363 621 315.5 600 Q268 579 233.5 544.5 Q199 510 179.5 464 Q160 418 160 369 Q160 321 178.5 275.5 Q197 230 230.5 195 Q264 160 310 138.5 Q356 117 412 117 Q444 117 474 123.5 Q504 130 527 138 Q550 146 564.5 154 Q579 162 580 165 L633 54 Z M393 954 Q424 909 454.5 863 Q485 817 516 771 L444 771 L393 838 L343 771 L272 771 L393 954 Z " />
<glyph glyph-name="Gdotaccent" unicode="&#x120;" horiz-adv-x="688" d="M635 354 L635 44 Q593 19 533.5 5.5 Q474 -8 412 -8 Q326 -8 256.5 19 Q187 46 138 93 Q89 140 63 205 Q37 270 37 347 Q37 434 68 505.5 Q99 577 151.5 628.5 Q204 680 273.5 708.5 Q343 737 420 737 Q446 737 474.5 733.5 Q503 730 531 723 Q559 716 585 706.5 Q611 697 632 684 L572 584 Q558 593 538.5 599.5 Q519 606 498 611 Q477 616 456.5 618.5 Q436 621 418 621 Q367 621 320.5 600.5 Q274 580 238 545 Q202 510 180.5 461.5 Q159 413 159 358 Q159 308 178 263 Q197 218 231 183.5 Q265 149 312 128.5 Q359 108 415 108 Q435 108 465 111.5 Q495 115 522 124 L522 248 L386 248 L386 354 L635 354 Z M324 827 Q324 853 343 870 Q362 887 384 887 Q406 887 424.5 870 Q443 853 443 827 Q443 800 424.5 783.5 Q406 767 384 767 Q362 767 343 783.5 Q324 800 324 827 Z " />
<glyph glyph-name="Gcircumflex" unicode="&#x11c;" horiz-adv-x="688" d="M635 354 L635 44 Q593 19 533.5 5.5 Q474 -8 412 -8 Q326 -8 256.5 19 Q187 46 138 93 Q89 140 63 205 Q37 270 37 347 Q37 434 68 505.5 Q99 577 151.5 628.5 Q204 680 273.5 708.5 Q343 737 420 737 Q446 737 474.5 733.5 Q503 730 531 723 Q559 716 585 706.5 Q611 697 632 684 L572 584 Q558 593 538.5 599.5 Q519 606 498 611 Q477 616 456.5 618.5 Q436 621 418 621 Q367 621 320.5 600.5 Q274 580 238 545 Q202 510 180.5 461.5 Q159 413 159 358 Q159 308 178 263 Q197 218 231 183.5 Q265 149 312 128.5 Q359 108 415 108 Q435 108 465 111.5 Q495 115 522 124 L522 248 L386 248 L386 354 L635 354 Z M409 954 Q440 909 470.5 863 Q501 817 532 771 L460 771 L409 838 L359 771 L288 771 L409 954 Z " />
<glyph glyph-name="Ubreve" unicode="&#x16c;" horiz-adv-x="720" d="M359 -8 Q300 -8 248.5 11.5 Q197 31 159 66 Q121 101 99 150.5 Q77 200 77 260 L77 729 L199 729 L199 263 Q199 231 211.5 203 Q224 175 245.5 154 Q267 133 296 120.5 Q325 108 359 108 Q393 108 422.5 120.5 Q452 133 474 154 Q496 175 508.5 203 Q521 231 521 263 L521 729 L643 729 L643 260 Q643 200 621 150.5 Q599 101 560.5 66 Q522 31 470 11.5 Q418 -8 359 -8 Z M362 769 Q329 769 299.5 781 Q270 793 248 814 Q226 835 213 864 Q200 893 199 926 L252 926 Q254 880 284.5 851 Q315 822 362 822 Q410 822 438.5 851 Q467 880 469 926 L523 926 Q523 893 510 864 Q497 835 475 814 Q453 793 424 781 Q395 769 362 769 Z " />
<glyph glyph-name="Scircumflex" unicode="&#x15c;" horiz-adv-x="571" d="M514 688 L470 588 Q428 603 387 612 Q346 621 311 621 Q250 621 214.5 597 Q179 573 179 536 Q179 504 205.5 484 Q232 464 272 448 Q312 432 358.5 415.5 Q405 399 445 373 Q485 347 511.5 307 Q538 267 538 205 Q538 157 520.5 118 Q503 79 468 51 Q433 23 379.5 7.5 Q326 -8 254 -8 Q210 -8 174 -2 Q138 4 109.5 13 Q81 22 59 32.5 Q37 43 21 53 L74 160 Q116 137 164 124.5 Q212 112 249 112 Q267 112 295.5 116 Q324 120 351 131 Q378 142 397.5 161 Q417 180 417 210 Q417 245 390.5 267.5 Q364 290 324 307.5 Q284 325 237.5 342 Q191 359 151 382.5 Q111 406 84.5 440.5 Q58 475 58 528 Q58 566 73 602.5 Q88 639 118.5 668 Q149 697 194.5 715 Q240 733 302 733 Q341 733 377.5 726.5 Q414 720 443 712 Q472 704 491 696.5 Q510 689 514 688 Z M293 954 Q324 909 354.5 863 Q385 817 416 771 L344 771 L293 838 L243 771 L172 771 L293 954 Z " />
<glyph glyph-name="cdotaccent" unicode="&#x10b;" horiz-adv-x="425" d="M343 111 Q358 92 372 74.5 Q386 57 401 39 Q372 16 336 2.5 Q300 -11 259 -11 Q212 -11 170.5 6.5 Q129 24 98.5 54.5 Q68 85 50 126 Q32 167 32 213 Q32 259 50 299.5 Q68 340 98.5 370.5 Q129 401 170.5 418.5 Q212 436 259 436 Q301 436 337.5 422.5 Q374 409 404 386 L343 315 Q308 342 259 342 Q230 342 206 332 Q182 322 164.5 305 Q147 288 137.5 264.5 Q128 241 128 213 Q128 186 137.5 162.5 Q147 139 164.5 121 Q182 103 206 93 Q230 83 259 83 Q309 83 343 111 Z M203 590 Q203 616 222 633 Q241 650 263 650 Q285 650 303.5 633 Q322 616 322 590 Q322 563 303.5 546.5 Q285 530 263 530 Q241 530 222 546.5 Q203 563 203 590 Z " />
<glyph glyph-name="ccircumflex" unicode="&#x109;" horiz-adv-x="425" d="M343 111 Q358 92 372 74.5 Q386 57 401 39 Q372 16 336 2.5 Q300 -11 259 -11 Q212 -11 170.5 6.5 Q129 24 98.5 54.5 Q68 85 50 126 Q32 167 32 213 Q32 259 50 299.5 Q68 340 98.5 370.5 Q129 401 170.5 418.5 Q212 436 259 436 Q301 436 337.5 422.5 Q374 409 404 386 L343 315 Q308 342 259 342 Q230 342 206 332 Q182 322 164.5 305 Q147 288 137.5 264.5 Q128 241 128 213 Q128 186 137.5 162.5 Q147 139 164.5 121 Q182 103 206 93 Q230 83 259 83 Q309 83 343 111 Z M254 669 Q285 624 315.5 578 Q346 532 377 486 L305 486 L254 553 L204 486 L133 486 L254 669 Z " />
<glyph glyph-name="gdotaccent" unicode="&#x121;" horiz-adv-x="547" d="M33 210 Q33 258 50 299.5 Q67 341 96.5 371.5 Q126 402 165.5 419 Q205 436 250 436 Q284 436 310 427 Q336 418 353.5 407 Q371 396 380.5 386 Q390 376 392 374 Q392 385 394 398 Q396 411 396 425 L488 425 L488 22 Q488 -32 471 -74.5 Q454 -117 423.5 -145.5 Q393 -174 350.5 -189 Q308 -204 257 -204 Q218 -204 188.5 -196 Q159 -188 135.5 -175 Q112 -162 92.5 -146 Q73 -130 55 -114 L117 -49 Q145 -75 177 -93.5 Q209 -112 255 -112 Q317 -112 354 -82 Q391 -52 391 3 Q391 8 391 14.5 Q391 21 392 28 Q392 37 394 44 Q396 51 396 56 Q387 46 374.5 34 Q362 22 344.5 12 Q327 2 304 -4.5 Q281 -11 251 -11 Q203 -11 163 6 Q123 23 94 53 Q65 83 49 123 Q33 163 33 210 Z M129 214 Q129 186 138.5 162 Q148 138 165.5 120.5 Q183 103 207 93 Q231 83 260 83 Q289 83 313.5 93 Q338 103 355.5 121 Q373 139 382.5 163 Q392 187 392 214 Q392 241 382.5 264.5 Q373 288 355.5 305 Q338 322 313.5 332 Q289 342 260 342 Q231 342 207 332.5 Q183 323 165.5 305.5 Q148 288 138.5 264.5 Q129 241 129 214 Z M221 590 Q221 616 240 633 Q259 650 281 650 Q303 650 321.5 633 Q340 616 340 590 Q340 563 321.5 546.5 Q303 530 281 530 Q259 530 240 546.5 Q221 563 221 590 Z " />
<glyph glyph-name="gcircumflex" unicode="&#x11d;" horiz-adv-x="547" d="M33 210 Q33 258 50 299.5 Q67 341 96.5 371.5 Q126 402 165.5 419 Q205 436 250 436 Q284 436 310 427 Q336 418 353.5 407 Q371 396 380.5 386 Q390 376 392 374 Q392 385 394 398 Q396 411 396 425 L488 425 L488 22 Q488 -32 471 -74.5 Q454 -117 423.5 -145.5 Q393 -174 350.5 -189 Q308 -204 257 -204 Q218 -204 188.5 -196 Q159 -188 135.5 -175 Q112 -162 92.5 -146 Q73 -130 55 -114 L117 -49 Q145 -75 177 -93.5 Q209 -112 255 -112 Q317 -112 354 -82 Q391 -52 391 3 Q391 8 391 14.5 Q391 21 392 28 Q392 37 394 44 Q396 51 396 56 Q387 46 374.5 34 Q362 22 344.5 12 Q327 2 304 -4.5 Q281 -11 251 -11 Q203 -11 163 6 Q123 23 94 53 Q65 83 49 123 Q33 163 33 210 Z M129 214 Q129 186 138.5 162 Q148 138 165.5 120.5 Q183 103 207 93 Q231 83 260 83 Q289 83 313.5 93 Q338 103 355.5 121 Q373 139 382.5 163 Q392 187 392 214 Q392 241 382.5 264.5 Q373 288 355.5 305 Q338 322 313.5 332 Q289 342 260 342 Q231 342 207 332.5 Q183 323 165.5 305.5 Q148 288 138.5 264.5 Q129 241 129 214 Z M254 670 Q285 625 315.5 579 Q346 533 377 487 L305 487 L254 554 L204 487 L133 487 L254 670 Z " />
<glyph glyph-name="ubreve" unicode="&#x16d;" horiz-adv-x="522" d="M463 -10 L383 -10 L371 108 Q348 57 307.5 23.5 Q267 -10 201 -10 Q135 -10 96.5 24.5 Q58 59 56 116 L56 425 L152 425 L152 161 Q154 130 173.5 108.5 Q193 87 236 85 Q265 85 289 95 Q313 105 330.5 123 Q348 141 358 166 Q368 191 368 220 L368 425 L463 425 L463 -10 Z M261 500 Q228 500 198.5 512 Q169 524 147 545 Q125 566 112 595 Q99 624 98 657 L151 657 Q153 611 183.5 582 Q214 553 261 553 Q309 553 337.5 582 Q366 611 368 657 L422 657 Q422 624 409 595 Q396 566 374 545 Q352 524 323 512 Q294 500 261 500 Z " />
<glyph glyph-name="scircumflex" unicode="&#x15d;" horiz-adv-x="350" d="M301 387 Q295 378 286.5 366.5 Q278 355 270 345 Q262 335 256.5 327.5 Q251 320 251 320 Q251 320 246 323.5 Q241 327 231.5 331 Q222 335 209.5 338.5 Q197 342 184 342 Q170 342 154.5 335.5 Q139 329 139 309 Q139 292 152.5 280.5 Q166 269 185.5 259.5 Q205 250 228.5 240 Q252 230 271.5 215 Q291 200 304.5 177.5 Q318 155 318 122 Q318 93 307.5 69 Q297 45 277.5 28 Q258 11 231 1 Q204 -9 170 -9 Q129 -9 90.5 5 Q52 19 30 45 Q37 53 47 65 Q57 77 66 88 Q75 99 81.5 106.5 Q88 114 88 114 Q88 115 94.5 110.5 Q101 106 112 100 Q123 94 138 89 Q153 84 169 84 Q194 84 207.5 95 Q221 106 221 122 Q221 138 207.5 148 Q194 158 174.5 166.5 Q155 175 131.5 185 Q108 195 88.5 210 Q69 225 55.5 248.5 Q42 272 42 308 Q42 344 55 368 Q68 392 88.5 407 Q109 422 133 428.5 Q157 435 180 435 Q211 435 244.5 422.5 Q278 410 301 387 Z M177 670 Q208 625 238.5 579 Q269 533 300 487 L228 487 L177 554 L127 487 L56 487 L177 670 Z " />
<glyph glyph-name="oe" unicode="&#x153;" horiz-adv-x="725" d="M676 49 Q645 21 601 5 Q557 -11 511 -11 Q476 -11 444 -1 Q412 9 385 27 Q358 9 325.5 -1 Q293 -11 258 -11 Q211 -11 170 5 Q129 21 98.5 50.5 Q68 80 50 121.5 Q32 163 32 213 Q32 259 49.5 299.5 Q67 340 98 370 Q129 400 170.5 417.5 Q212 435 259 435 Q294 435 326.5 425 Q359 415 385 398 Q412 415 443 425 Q474 435 507 435 Q579 435 633.5 391.5 Q688 348 711 277 Q681 266 641.5 250.5 Q602 235 559 218 Q516 201 473 183.5 Q430 166 394 152 Q411 121 441 102 Q471 83 509 83 Q535 83 561.5 92.5 Q588 102 605 118 L676 49 Z M256 342 Q229 342 205.5 331.5 Q182 321 164.5 303.5 Q147 286 137 262.5 Q127 239 127 212 Q127 185 137 161.5 Q147 138 164.5 120.5 Q182 103 205.5 93 Q229 83 256 83 Q289 83 316 98 Q284 148 284 212 Q284 244 292.5 272.5 Q301 301 316 327 Q302 334 287 338 Q272 342 256 342 Z M592 299 Q580 321 556 331.5 Q532 342 509 342 Q482 342 458 331.5 Q434 321 417 303.5 Q400 286 390 263.5 Q380 241 380 217 L380 213 Q405 223 433.5 234.5 Q462 246 490.5 258 Q519 270 545 280.5 Q571 291 592 299 Z " />
<glyph glyph-name="OE" unicode="&#x152;" horiz-adv-x="961" d="M408 -8 Q331 -8 263.5 21 Q196 50 145.5 100.5 Q95 151 65.5 218.5 Q36 286 36 363 Q36 439 65.5 507 Q95 575 145.5 626 Q196 677 263.5 707 Q331 737 408 737 Q443 737 481 729 L910 729 L910 618 L579 618 L579 422 L870 422 L870 308 L579 308 L579 114 L924 114 L924 0 L483 0 Q443 -8 408 -8 Z M408 619 Q356 619 310.5 599 Q265 579 231.5 544 Q198 509 178.5 462.5 Q159 416 159 363 Q159 310 178.5 263.5 Q198 217 232.5 182.5 Q267 148 312.5 128 Q358 108 411 108 Q436 108 456 112 L456 614 Q444 616 432 617.5 Q420 619 408 619 Z " />
<glyph glyph-name="Ydieresis" unicode="&#x178;" horiz-adv-x="669" d="M396 236 L396 0 L273 0 L273 236 Q268 243 248 280.5 Q228 318 199 370.5 Q170 423 138 482.5 Q106 542 77 594.5 Q48 647 28 684.5 Q8 722 3 729 L142 729 Q146 722 157.5 700.5 Q169 679 185 648.5 Q201 618 220 581.5 Q239 545 258 508.5 Q277 472 294 438.5 Q311 405 324 380 L335 346 Q339 354 342 363.5 Q345 373 348 380 Q361 405 378 438.5 Q395 472 413.5 508.5 Q432 545 450.5 581.5 Q469 618 484.5 648.5 Q500 679 511 700.5 Q522 722 526 729 L665 729 L396 236 Z M372 837 Q372 863 391.5 881 Q411 899 434 899 Q455 899 474.5 881 Q494 863 494 837 Q494 809 474.5 792 Q455 775 434 775 Q411 775 391.5 792 Q372 809 372 837 Z M179 837 Q179 863 198.5 881 Q218 899 241 899 Q262 899 281.5 881 Q301 863 301 837 Q301 809 281.5 792 Q262 775 241 775 Q218 775 198.5 792 Q179 809 179 837 Z " />
<glyph glyph-name="Etilde" unicode="&#x1ebc;" horiz-adv-x="619" d="M84 0 L84 729 L568 729 L568 618 L206 618 L206 422 L528 422 L528 308 L206 308 L206 114 L582 114 L582 0 L84 0 Z M324 821 Q308 835 297 840.5 Q286 846 272 846 Q265 846 257 844.5 Q249 843 241.5 838 Q234 833 228 824.5 Q222 816 221 802 L167 804 Q168 825 177 842.5 Q186 860 199.5 872.5 Q213 885 229.5 892 Q246 899 262 899 Q287 899 306 891 Q325 883 342 867 Q358 852 369 847 Q380 842 394 842 Q401 842 409 843.5 Q417 845 424.5 850 Q432 855 437.5 863.5 Q443 872 445 886 L499 884 Q498 863 489 845.5 Q480 828 466.5 815.5 Q453 803 436.5 796 Q420 789 404 789 Q380 789 360.5 797.5 Q341 806 324 821 Z " />
<glyph glyph-name="uni0156" unicode="&#x156;" horiz-adv-x="636" d="M84 0 L84 729 L290 729 Q350 729 399.5 713 Q449 697 483.5 667 Q518 637 537 593 Q556 549 556 494 Q556 464 550 434 Q544 404 531 376 Q518 348 497 324.5 Q476 301 447 284 Q469 249 490 215.5 Q511 182 532.5 148 Q554 114 577 78 Q600 42 627 0 L480 0 Q435 70 395 132.5 Q355 195 318 251 L308 251 L206 251 L206 0 L84 0 Z M206 366 L304 366 Q342 366 367 379 Q392 392 407 410.5 Q422 429 428 450.5 Q434 472 434 490 Q434 507 428.5 528.5 Q423 550 408.5 569 Q394 588 369 601 Q344 614 305 614 L206 614 L206 366 Z M392 -21 L304 -231 L212 -231 Q232 -178 251 -126.5 Q270 -75 290 -21 L392 -21 Z " />
<glyph glyph-name="Itilde" unicode="&#x128;" horiz-adv-x="291" d="M84 729 L207 729 L207 0 L84 0 L84 729 Z M138 800 Q122 814 111 819.5 Q100 825 86 825 Q79 825 71 823.5 Q63 822 55.5 817 Q48 812 42 803.5 Q36 795 35 781 L-19 783 Q-18 804 -9 821.5 Q0 839 13.5 851.5 Q27 864 43.5 871 Q60 878 76 878 Q101 878 120 870 Q139 862 156 846 Q172 831 183 826 Q194 821 208 821 Q215 821 223 822.5 Q231 824 238.5 829 Q246 834 251.5 842.5 Q257 851 259 865 L313 863 Q312 842 303 824.5 Q294 807 280.5 794.5 Q267 782 250.5 775 Q234 768 218 768 Q194 768 174.5 776.5 Q155 785 138 800 Z " />
<glyph glyph-name="uni013B" unicode="&#x13b;" horiz-adv-x="575" d="M84 0 L84 729 L206 729 L206 116 L560 116 L560 0 L84 0 Z M408 -21 L320 -231 L228 -231 Q248 -178 267 -126.5 Q286 -75 306 -21 L408 -21 Z " />
<glyph glyph-name="Emacron" unicode="&#x112;" horiz-adv-x="619" d="M84 0 L84 729 L568 729 L568 618 L206 618 L206 422 L528 422 L528 308 L206 308 L206 114 L582 114 L582 0 L84 0 Z M220 777 L220 841 L454 841 L454 777 L220 777 Z " />
<glyph glyph-name="uni0122" unicode="&#x122;" horiz-adv-x="688" d="M635 354 L635 44 Q593 19 533.5 5.5 Q474 -8 412 -8 Q326 -8 256.5 19 Q187 46 138 93 Q89 140 63 205 Q37 270 37 347 Q37 434 68 505.5 Q99 577 151.5 628.5 Q204 680 273.5 708.5 Q343 737 420 737 Q446 737 474.5 733.5 Q503 730 531 723 Q559 716 585 706.5 Q611 697 632 684 L572 584 Q558 593 538.5 599.5 Q519 606 498 611 Q477 616 456.5 618.5 Q436 621 418 621 Q367 621 320.5 600.5 Q274 580 238 545 Q202 510 180.5 461.5 Q159 413 159 358 Q159 308 178 263 Q197 218 231 183.5 Q265 149 312 128.5 Q359 108 415 108 Q435 108 465 111.5 Q495 115 522 124 L522 248 L386 248 L386 354 L635 354 Z M441 -21 L353 -231 L261 -231 Q281 -178 300 -126.5 Q319 -75 339 -21 L441 -21 Z " />
<glyph glyph-name="Tbar" unicode="&#x166;" horiz-adv-x="561" d="M161 434 L161 498 L217 498 L217 612 L41 612 L41 729 L520 729 L520 612 L340 612 L340 498 L395 498 L395 434 L340 434 L340 0 L217 0 L217 434 L161 434 Z " />
<glyph glyph-name="uni0157" unicode="&#x157;" horiz-adv-x="324" d="M297 312 Q269 312 243.5 305 Q218 298 198.5 283.5 Q179 269 167 247.5 Q155 226 155 197 L155 0 L59 0 L59 425 L143 425 Q145 389 147.5 366.5 Q150 344 152 316 Q165 344 187 366 Q209 388 232.5 403.5 Q256 419 279 427.5 Q302 436 318 436 L297 312 Z M223 -21 L135 -231 L43 -231 Q63 -178 82 -126.5 Q101 -75 121 -21 L223 -21 Z " />
<glyph glyph-name="emacron" unicode="&#x113;" horiz-adv-x="474" d="M424 49 Q393 21 349 5 Q305 -11 259 -11 Q212 -11 170.5 6.5 Q129 24 98.5 54.5 Q68 85 50 125.5 Q32 166 32 212 Q32 258 50 298.5 Q68 339 98.5 369.5 Q129 400 169.5 417.5 Q210 435 255 435 Q327 435 381.5 391.5 Q436 348 459 277 Q429 266 389.5 250.5 Q350 235 307 218 Q264 201 221 183.5 Q178 166 142 152 Q159 121 189 102 Q219 83 257 83 Q283 83 309.5 92.5 Q336 102 353 118 L424 49 Z M146 482 L146 546 L380 546 L380 482 L146 482 Z M340 299 Q328 321 304 331.5 Q280 342 257 342 Q230 342 206 331.5 Q182 321 165 303.5 Q148 286 138 263.5 Q128 241 128 217 L128 213 Q153 223 181.5 234.5 Q210 246 238.5 258 Q267 270 293 280.5 Q319 291 340 299 Z " />
<glyph glyph-name="uni0123" unicode="&#x123;" horiz-adv-x="547" d="M33 210 Q33 258 50 299.5 Q67 341 96.5 371.5 Q126 402 165.5 419 Q205 436 250 436 Q284 436 310 427 Q336 418 353.5 407 Q371 396 380.5 386 Q390 376 392 374 Q392 385 394 398 Q396 411 396 425 L488 425 L488 22 Q488 -32 471 -74.5 Q454 -117 423.5 -145.5 Q393 -174 350.5 -189 Q308 -204 257 -204 Q218 -204 188.5 -196 Q159 -188 135.5 -175 Q112 -162 92.5 -146 Q73 -130 55 -114 L117 -49 Q145 -75 177 -93.5 Q209 -112 255 -112 Q317 -112 354 -82 Q391 -52 391 3 Q391 8 391 14.5 Q391 21 392 28 Q392 37 394 44 Q396 51 396 56 Q387 46 374.5 34 Q362 22 344.5 12 Q327 2 304 -4.5 Q281 -11 251 -11 Q203 -11 163 6 Q123 23 94 53 Q65 83 49 123 Q33 163 33 210 Z M129 214 Q129 186 138.5 162 Q148 138 165.5 120.5 Q183 103 207 93 Q231 83 260 83 Q289 83 313.5 93 Q338 103 355.5 121 Q373 139 382.5 163 Q392 187 392 214 Q392 241 382.5 264.5 Q373 288 355.5 305 Q338 322 313.5 332 Q289 342 260 342 Q231 342 207 332.5 Q183 323 165.5 305.5 Q148 288 138.5 264.5 Q129 241 129 214 Z M218 507 L306 717 L398 717 Q378 664 359 612.5 Q340 561 320 507 L218 507 Z " />
<glyph glyph-name="tbar" unicode="&#x167;" horiz-adv-x="316" d="M43 482 L43 546 L98 546 L98 611 L193 611 L193 546 L277 546 L277 482 L193 482 L193 425 L304 425 L304 339 L193 339 L193 0 L98 0 L98 339 L26 339 L26 425 L98 425 L98 482 L43 482 Z " />
<glyph glyph-name="Amacron" unicode="&#x100;" horiz-adv-x="653" d="M653 0 Q649 9 634 44.5 Q619 80 596.5 132.5 Q574 185 546.5 249.5 Q519 314 490 381 Q461 448 433.5 512.5 Q406 577 383.5 629.5 Q361 682 345.5 717.5 Q330 753 326 762 Q322 753 307 717.5 Q292 682 269.5 629.5 Q247 577 219.5 512.5 Q192 448 163 381 Q134 314 106.5 249.5 Q79 185 56.5 132.5 Q34 80 19 44.5 Q4 9 0 0 L121 0 L201 192 L452 192 Q466 158 479 126.5 Q492 95 503 69 Q514 43 521.5 25 Q529 7 532 0 L653 0 Z M316 469 Q316 470 320 482.5 Q324 495 326 505 Q328 495 332 482.5 Q336 470 337 469 L409 295 L243 295 L316 469 Z M209 790 L209 854 L443 854 L443 790 L209 790 Z " />
<glyph glyph-name="Iogonek" unicode="&#x12e;" horiz-adv-x="291" d="M84 729 L207 729 L207 0 L84 0 L84 729 Z M147 0 L85 0 L85 -8 Q85 -23 81 -31 Q77 -39 70.5 -44.5 Q64 -50 56.5 -53.5 Q49 -57 43 -62 Q22 -78 13.5 -99 Q5 -120 5 -149 Q5 -169 12 -189 Q19 -209 32.5 -225 Q46 -241 67 -251 Q88 -261 117 -261 Q153 -261 184 -241.5 Q215 -222 229 -180 L174 -151 Q169 -166 156.5 -176 Q144 -186 126 -186 Q103 -186 91.5 -171 Q80 -156 80 -133 Q80 -114 90.5 -103.5 Q101 -93 113.5 -84 Q126 -75 136.5 -65.5 Q147 -56 147 -39 L147 0 Z " />
<glyph glyph-name="itilde" unicode="&#x129;" horiz-adv-x="214" d="M155 0 L59 0 L59 425 L155 425 L155 0 Z M98 513 Q82 527 71 532.5 Q60 538 46 538 Q39 538 31 536.5 Q23 535 15.5 530 Q8 525 2 516.5 Q-4 508 -5 494 L-59 496 Q-58 517 -49 534.5 Q-40 552 -26.5 564.5 Q-13 577 3.5 584 Q20 591 36 591 Q61 591 80 583 Q99 575 116 559 Q132 544 143 539 Q154 534 168 534 Q175 534 183 535.5 Q191 537 198.5 542 Q206 547 211.5 555.5 Q217 564 219 578 L273 576 Q272 555 263 537.5 Q254 520 240.5 507.5 Q227 495 210.5 488 Q194 481 178 481 Q154 481 134.5 489.5 Q115 498 98 513 Z " />
<glyph glyph-name="uni013C" unicode="&#x13c;" horiz-adv-x="213" d="M154 0 L59 0 L59 781 L154 781 L154 0 Z M158 -21 L70 -231 L-22 -231 Q-2 -178 17 -126.5 Q36 -75 56 -21 L158 -21 Z " />
<glyph glyph-name="Edotaccent" unicode="&#x116;" horiz-adv-x="619" d="M84 0 L84 729 L568 729 L568 618 L206 618 L206 422 L528 422 L528 308 L206 308 L206 114 L582 114 L582 0 L84 0 Z M265 827 Q265 853 284 870 Q303 887 325 887 Q347 887 365.5 870 Q384 853 384 827 Q384 800 365.5 783.5 Q347 767 325 767 Q303 767 284 783.5 Q265 800 265 827 Z " />
<glyph glyph-name="Imacron" unicode="&#x12a;" horiz-adv-x="291" d="M84 729 L207 729 L207 0 L84 0 L84 729 Z M33 790 L33 854 L267 854 L267 790 L33 790 Z " />
<glyph glyph-name="uni0145" unicode="&#x145;" horiz-adv-x="812" d="M728 729 L728 -34 Q721 -25 697 -1 Q673 23 638 56.5 Q603 90 560.5 130.5 Q518 171 474 212.5 Q430 254 388 294 Q346 334 311.5 367.5 Q277 401 253.5 424.5 Q230 448 223 457 Q222 459 215 467.5 Q208 476 203 483 L206 451 L206 0 L84 0 L84 762 Q91 753 115 729.5 Q139 706 174 673 Q209 640 251.5 601 Q294 562 338 521.5 Q382 481 424 441.5 Q466 402 501 369.5 Q536 337 559.5 314 Q583 291 590 282 L609 254 L606 288 L606 729 L728 729 Z M472 -21 L384 -231 L292 -231 Q312 -178 331 -126.5 Q350 -75 370 -21 L472 -21 Z " />
<glyph glyph-name="uni0136" unicode="&#x136;" horiz-adv-x="655" d="M511 0 Q476 43 446 83 Q416 123 386 162.5 Q356 202 325.5 242.5 Q295 283 261 327 Q250 315 240 305.5 Q230 296 219 286 L219 0 L84 0 L84 729 L219 729 L219 467 Q219 459 218 450 Q217 441 216 432 Q221 439 226.5 444.5 Q232 450 237 458 Q305 523 367.5 593 Q430 663 498 729 L653 729 Q578 650 504 569 Q430 488 356 410 Q398 356 435.5 305 Q473 254 510 204.5 Q547 155 584.5 104.5 Q622 54 663 0 L511 0 Z M415 -21 L327 -231 L235 -231 Q255 -178 274 -126.5 Q293 -75 313 -21 L415 -21 Z " />
<glyph glyph-name="uni0146" unicode="&#x146;" horiz-adv-x="522" d="M59 425 L143 425 Q145 389 147.5 366.5 Q150 344 152 316 Q175 370 217 403 Q259 436 322 436 Q387 436 425.5 400.5 Q464 365 466 308 L466 0 L371 0 L371 263 Q369 294 349 316.5 Q329 339 287 341 Q258 341 233.5 330.5 Q209 320 191.5 302 Q174 284 164.5 259 Q155 234 155 205 L155 0 L59 0 L59 425 Z M321 -21 L233 -231 L141 -231 Q161 -178 180 -126.5 Q199 -75 219 -21 L321 -21 Z " />
<glyph glyph-name="uni0137" unicode="&#x137;" horiz-adv-x="458" d="M365 435 L422 379 Q384 344 349.5 310.5 Q315 277 277 242 Q322 182 365 121 Q408 60 453 0 L343 0 Q310 45 276 89.5 Q242 134 210 179 L155 129 L155 0 L59 0 L59 781 L155 781 L155 240 Q209 291 260 337.5 Q311 384 365 435 Z M321 -21 L233 -231 L141 -231 Q161 -178 180 -126.5 Q199 -75 219 -21 L321 -21 Z " />
<glyph glyph-name="Omacron" unicode="&#x14c;" horiz-adv-x="817" d="M36 363 Q36 439 65.5 507 Q95 575 145.5 626 Q196 677 263.5 707 Q331 737 408 737 Q484 737 552 707 Q620 677 671 626 Q722 575 751.5 507 Q781 439 781 363 Q781 286 751.5 218.5 Q722 151 671 100.5 Q620 50 552 21 Q484 -8 408 -8 Q331 -8 263.5 21 Q196 50 145.5 100.5 Q95 151 65.5 218.5 Q36 286 36 363 Z M159 363 Q159 310 178.5 263.5 Q198 217 232.5 182.5 Q267 148 312.5 128 Q358 108 411 108 Q462 108 507.5 128 Q553 148 586.5 182.5 Q620 217 639.5 263.5 Q659 310 659 363 Q659 416 639 462.5 Q619 509 585 544 Q551 579 505.5 599 Q460 619 408 619 Q356 619 310.5 599 Q265 579 231.5 544 Q198 509 178.5 462.5 Q159 416 159 363 Z M294 790 L294 854 L528 854 L528 790 L294 790 Z " />
<glyph glyph-name="Umacron" unicode="&#x16a;" horiz-adv-x="720" d="M359 -8 Q300 -8 248.5 11.5 Q197 31 159 66 Q121 101 99 150.5 Q77 200 77 260 L77 729 L199 729 L199 263 Q199 231 211.5 203 Q224 175 245.5 154 Q267 133 296 120.5 Q325 108 359 108 Q393 108 422.5 120.5 Q452 133 474 154 Q496 175 508.5 203 Q521 231 521 263 L521 729 L643 729 L643 260 Q643 200 621 150.5 Q599 101 560.5 66 Q522 31 470 11.5 Q418 -8 359 -8 Z M244 790 L244 854 L478 854 L478 790 L244 790 Z " />
<glyph glyph-name="omacron" unicode="&#x14d;" horiz-adv-x="514" d="M32 213 Q32 259 49.5 299.5 Q67 340 98 370 Q129 400 170.5 417.5 Q212 435 259 435 Q307 435 348 417.5 Q389 400 418.5 370 Q448 340 465 299.5 Q482 259 482 213 Q482 167 465.5 126 Q449 85 419 54.5 Q389 24 348 6.5 Q307 -11 258 -11 Q211 -11 170 5 Q129 21 98.5 50.5 Q68 80 50 121.5 Q32 163 32 213 Z M127 212 Q127 185 137 161.5 Q147 138 164.5 120.5 Q182 103 205.5 93 Q229 83 256 83 Q283 83 306.5 93 Q330 103 347.5 120.5 Q365 138 375.5 161.5 Q386 185 386 212 Q386 239 375.5 262.5 Q365 286 347.5 303.5 Q330 321 306.5 331.5 Q283 342 256 342 Q229 342 205.5 331.5 Q182 321 164.5 303.5 Q147 286 137 262.5 Q127 239 127 212 Z M149 482 L149 546 L383 546 L383 482 L149 482 Z " />
<glyph glyph-name="umacron" unicode="&#x16b;" horiz-adv-x="522" d="M463 -10 L383 -10 L371 108 Q348 57 307.5 23.5 Q267 -10 201 -10 Q135 -10 96.5 24.5 Q58 59 56 116 L56 425 L152 425 L152 161 Q154 130 173.5 108.5 Q193 87 236 85 Q265 85 289 95 Q313 105 330.5 123 Q348 141 358 166 Q368 191 368 220 L368 425 L463 425 L463 -10 Z M143 482 L143 546 L377 546 L377 482 L143 482 Z " />
<glyph glyph-name="amacron" unicode="&#x101;" horiz-adv-x="547" d="M32 208 Q32 254 50 295.5 Q68 337 98.5 368 Q129 399 169.5 417.5 Q210 436 255 436 Q285 436 309 428.5 Q333 421 350.5 411 Q368 401 378 390.5 Q388 380 391 374 L395 425 L488 425 L488 0 L391 0 L391 28 Q391 33 391.5 37.5 Q392 42 392 44 Q388 39 378 29.5 Q368 20 351 11 Q334 2 310.5 -4.5 Q287 -11 256 -11 Q207 -11 166 7 Q125 25 95 55 Q65 85 48.5 124.5 Q32 164 32 208 Z M129 214 Q129 186 138.5 162 Q148 138 165.5 120.5 Q183 103 207 93 Q231 83 260 83 Q289 83 313 93 Q337 103 354.5 121 Q372 139 381.5 163 Q391 187 391 214 Q391 241 381.5 264.5 Q372 288 354.5 305 Q337 322 313 332 Q289 342 260 342 Q231 342 207 332.5 Q183 323 165.5 305.5 Q148 288 138.5 264.5 Q129 241 129 214 Z M159 482 L159 546 L393 546 L393 482 L159 482 Z " />
<glyph glyph-name="Uogonek" unicode="&#x172;" horiz-adv-x="720" d="M402 0 L340 0 L340 -7 Q284 -4 236 16 Q188 36 152.5 71 Q117 106 97 154 Q77 202 77 260 L77 729 L199 729 L199 263 Q199 231 211.5 203 Q224 175 245.5 154 Q267 133 296 120.5 Q325 108 359 108 Q393 108 422.5 120.5 Q452 133 474 154 Q496 175 508.5 203 Q521 231 521 263 L521 729 L643 729 L643 260 Q643 206 624.5 160 Q606 114 574 79.5 Q542 45 497.5 23 Q453 1 402 -5 L402 0 Z M359 -8 Q354 -8 349.5 -8 Q345 -8 340 -7 L340 -8 Q340 -23 336 -31 Q332 -39 325.5 -44.5 Q319 -50 311.5 -53.5 Q304 -57 298 -62 Q277 -78 268.5 -99 Q260 -120 260 -149 Q260 -169 267 -189 Q274 -209 287.5 -225 Q301 -241 322 -251 Q343 -261 372 -261 Q408 -261 439 -241.5 Q470 -222 484 -180 L429 -151 Q424 -166 411.5 -176 Q399 -186 381 -186 Q358 -186 346.5 -171 Q335 -156 335 -133 Q335 -114 345.5 -103.5 Q356 -93 368.5 -84 Q381 -75 391.5 -65.5 Q402 -56 402 -39 L402 -5 Q381 -8 359 -8 Z " />
<glyph glyph-name="imacron" unicode="&#x12b;" horiz-adv-x="214" d="M155 0 L59 0 L59 425 L155 425 L155 0 Z M-9 482 L-9 546 L225 546 L225 482 L-9 482 Z " />
<glyph glyph-name="uogonek" unicode="&#x173;" horiz-adv-x="522" d="M443 0 L382 0 L371 108 Q348 57 307.5 23.5 Q267 -10 201 -10 Q135 -10 96.5 24.5 Q58 59 56 116 L56 425 L152 425 L152 161 Q154 130 173.5 108.5 Q193 87 236 85 Q265 85 289 95 Q313 105 330.5 123 Q348 141 358 166 Q368 191 368 220 L368 425 L463 425 L463 -10 L443 -10 L443 0 Z M382 0 L381 0 L381 -8 Q381 -23 377 -31 Q373 -39 366.5 -44.5 Q360 -50 352.5 -53.5 Q345 -57 339 -62 Q318 -78 309.5 -99 Q301 -120 301 -149 Q301 -169 308 -189 Q315 -209 328.5 -225 Q342 -241 363 -251 Q384 -261 413 -261 Q449 -261 480 -241.5 Q511 -222 525 -180 L470 -151 Q465 -166 452.5 -176 Q440 -186 422 -186 Q399 -186 387.5 -171 Q376 -156 376 -133 Q376 -114 386.5 -103.5 Q397 -93 409.5 -84 Q422 -75 432.5 -65.5 Q443 -56 443 -39 L443 -10 L383 -10 L382 0 Z " />
<glyph glyph-name="Utilde" unicode="&#x168;" horiz-adv-x="720" d="M359 -8 Q300 -8 248.5 11.5 Q197 31 159 66 Q121 101 99 150.5 Q77 200 77 260 L77 729 L199 729 L199 263 Q199 231 211.5 203 Q224 175 245.5 154 Q267 133 296 120.5 Q325 108 359 108 Q393 108 422.5 120.5 Q452 133 474 154 Q496 175 508.5 203 Q521 231 521 263 L521 729 L643 729 L643 260 Q643 200 621 150.5 Q599 101 560.5 66 Q522 31 470 11.5 Q418 -8 359 -8 Z M353 800 Q337 814 326 819.5 Q315 825 301 825 Q294 825 286 823.5 Q278 822 270.5 817 Q263 812 257 803.5 Q251 795 250 781 L196 783 Q197 804 206 821.5 Q215 839 228.5 851.5 Q242 864 258.5 871 Q275 878 291 878 Q316 878 335 870 Q354 862 371 846 Q387 831 398 826 Q409 821 423 821 Q430 821 438 822.5 Q446 824 453.5 829 Q461 834 466.5 842.5 Q472 851 474 865 L528 863 Q527 842 518 824.5 Q509 807 495.5 794.5 Q482 782 465.5 775 Q449 768 433 768 Q409 768 389.5 776.5 Q370 785 353 800 Z " />
<glyph glyph-name="utilde" unicode="&#x169;" horiz-adv-x="522" d="M463 -10 L383 -10 L371 108 Q348 57 307.5 23.5 Q267 -10 201 -10 Q135 -10 96.5 24.5 Q58 59 56 116 L56 425 L152 425 L152 161 Q154 130 173.5 108.5 Q193 87 236 85 Q265 85 289 95 Q313 105 330.5 123 Q348 141 358 166 Q368 191 368 220 L368 425 L463 425 L463 -10 Z M260 513 Q244 527 233 532.5 Q222 538 208 538 Q201 538 193 536.5 Q185 535 177.5 530 Q170 525 164 516.5 Q158 508 157 494 L103 496 Q104 517 113 534.5 Q122 552 135.5 564.5 Q149 577 165.5 584 Q182 591 198 591 Q223 591 242 583 Q261 575 278 559 Q294 544 305 539 Q316 534 330 534 Q337 534 345 535.5 Q353 537 360.5 542 Q368 547 373.5 555.5 Q379 564 381 578 L435 576 Q434 555 425 537.5 Q416 520 402.5 507.5 Q389 495 372.5 488 Q356 481 340 481 Q316 481 296.5 489.5 Q277 498 260 513 Z " />
<glyph glyph-name="edotaccent" unicode="&#x117;" horiz-adv-x="474" d="M424 49 Q393 21 349 5 Q305 -11 259 -11 Q212 -11 170.5 6.5 Q129 24 98.5 54.5 Q68 85 50 125.5 Q32 166 32 212 Q32 258 50 298.5 Q68 339 98.5 369.5 Q129 400 169.5 417.5 Q210 435 255 435 Q327 435 381.5 391.5 Q436 348 459 277 Q429 266 389.5 250.5 Q350 235 307 218 Q264 201 221 183.5 Q178 166 142 152 Q159 121 189 102 Q219 83 257 83 Q283 83 309.5 92.5 Q336 102 353 118 L424 49 Z M340 299 Q328 321 304 331.5 Q280 342 257 342 Q230 342 206 331.5 Q182 321 165 303.5 Q148 286 138 263.5 Q128 241 128 217 L128 213 Q153 223 181.5 234.5 Q210 246 238.5 258 Q267 270 293 280.5 Q319 291 340 299 Z M194 590 Q194 616 213 633 Q232 650 254 650 Q276 650 294.5 633 Q313 616 313 590 Q313 563 294.5 546.5 Q276 530 254 530 Q232 530 213 546.5 Q194 563 194 590 Z " />
<glyph glyph-name="iogonek" unicode="&#x12f;" horiz-adv-x="214" d="M155 0 L59 0 L59 425 L155 425 L155 0 Z M121 0 L59 0 L59 -8 Q59 -23 55 -31 Q51 -39 44.5 -44.5 Q38 -50 30.5 -53.5 Q23 -57 17 -62 Q-4 -78 -12.5 -99 Q-21 -120 -21 -149 Q-21 -169 -14 -189 Q-7 -209 6.5 -225 Q20 -241 41 -251 Q62 -261 91 -261 Q127 -261 158 -241.5 Q189 -222 203 -180 L148 -151 Q143 -166 130.5 -176 Q118 -186 100 -186 Q77 -186 65.5 -171 Q54 -156 54 -133 Q54 -114 64.5 -103.5 Q75 -93 87.5 -84 Q100 -75 110.5 -65.5 Q121 -56 121 -39 L121 0 Z M48 590 Q48 616 67 633 Q86 650 108 650 Q130 650 148.5 633 Q167 616 167 590 Q167 563 148.5 546.5 Q130 530 108 530 Q86 530 67 546.5 Q48 563 48 590 Z " />
<glyph glyph-name="ellipsis" unicode="&#x2026;" horiz-adv-x="558" d="M52 62 Q52 88 71.5 106 Q91 124 114 124 Q135 124 154.5 106 Q174 88 174 62 Q174 33 154.5 16.5 Q135 0 114 0 Q91 0 71.5 16.5 Q52 33 52 62 Z M218 62 Q218 88 237.5 106 Q257 124 280 124 Q302 124 321 106 Q340 88 340 62 Q340 33 321 16.5 Q302 0 280 0 Q257 0 237.5 16.5 Q218 33 218 62 Z M385 62 Q385 88 404 106 Q423 124 446 124 Q468 124 487 106 Q506 88 506 62 Q506 33 487 16.5 Q468 0 446 0 Q423 0 404 16.5 Q385 33 385 62 Z " />
<glyph glyph-name="perthousand" unicode="&#x2030;" horiz-adv-x="1061" d="M159 0 L462 508 L575 508 L272 0 L159 0 Z M562 -22 Q534 -22 509.5 -11.5 Q485 -1 466.5 17 Q448 35 437.5 59.5 Q427 84 427 112 Q427 140 437.5 164 Q448 188 466.5 206 Q485 224 509.5 234.5 Q534 245 562 245 Q589 245 613.5 234.5 Q638 224 656.5 206 Q675 188 686 164 Q697 140 697 112 Q697 84 686 59.5 Q675 35 656.5 17 Q638 -1 613.5 -11.5 Q589 -22 562 -22 Z M892 -22 Q864 -22 839.5 -11.5 Q815 -1 796.5 17 Q778 35 767.5 59.5 Q757 84 757 112 Q757 140 767.5 164 Q778 188 796.5 206 Q815 224 839.5 234.5 Q864 245 892 245 Q919 245 943.5 234.5 Q968 224 986.5 206 Q1005 188 1016 164 Q1027 140 1027 112 Q1027 84 1016 59.5 Q1005 35 986.5 17 Q968 -1 943.5 -11.5 Q919 -22 892 -22 Z M173 262 Q146 262 121.5 272.5 Q97 283 78.5 301 Q60 319 49 343 Q38 367 38 395 Q38 423 49 447 Q60 471 78.5 489 Q97 507 121.5 517.5 Q146 528 173 528 Q200 528 224.5 517.5 Q249 507 267.5 489 Q286 471 297 447 Q308 423 308 395 Q308 367 297 343 Q286 319 267.5 301 Q249 283 224.5 272.5 Q200 262 173 262 Z M142 395 Q142 381 150 371 Q158 361 173 361 Q188 361 196 371 Q204 381 204 395 Q204 410 196 419 Q188 428 173 428 Q158 428 150 419 Q142 410 142 395 Z M861 113 Q861 98 869 88.5 Q877 79 892 79 Q908 79 915.5 88.5 Q923 98 923 113 Q923 127 915.5 136 Q908 145 892 145 Q877 145 869 136 Q861 127 861 113 Z M531 113 Q531 98 539 88.5 Q547 79 562 79 Q578 79 585.5 88.5 Q593 98 593 113 Q593 127 585.5 136 Q578 145 562 145 Q547 145 539 136 Q531 127 531 113 Z " />
<glyph glyph-name="circumflex" unicode="&#x2c6;" horiz-adv-x="450" d="M235 670 Q266 625 296.5 579 Q327 533 358 487 L286 487 L235 554 L185 487 L114 487 L235 670 Z " />
<glyph glyph-name="tilde" unicode="&#x2dc;" horiz-adv-x="599" d="M316 513 Q300 527 289 532.5 Q278 538 264 538 Q257 538 249 536.5 Q241 535 233.5 530 Q226 525 220 516.5 Q214 508 213 494 L159 496 Q160 517 169 534.5 Q178 552 191.5 564.5 Q205 577 221.5 584 Q238 591 254 591 Q279 591 298 583 Q317 575 334 559 Q350 544 361 539 Q372 534 386 534 Q393 534 401 535.5 Q409 537 416.5 542 Q424 547 429.5 555.5 Q435 564 437 578 L491 576 Q490 555 481 537.5 Q472 520 458.5 507.5 Q445 495 428.5 488 Q412 481 396 481 Q372 481 352.5 489.5 Q333 498 316 513 Z " />
<glyph glyph-name="fi" unicode="&#xfb01;" horiz-adv-x="585" d="M26 331 L26 425 L99 425 L99 516 Q99 650 161 713.5 Q223 777 341 781 L341 690 Q263 685 229 640 Q195 595 195 512 L195 425 L526 425 L526 0 L431 0 L431 331 L195 331 L195 0 L99 0 L99 331 L26 331 Z " />
<glyph glyph-name="fl" unicode="&#xfb02;" horiz-adv-x="570" d="M26 332 L26 426 L99 426 L99 516 Q99 650 161 713.5 Q223 777 341 781 L511 781 L511 0 L416 0 L416 690 L341 690 Q263 685 229 640 Q195 595 195 512 L195 426 L327 426 L327 332 L195 332 L195 0 L99 0 L99 332 L26 332 Z " />
<glyph glyph-name="ring" unicode="&#x2da;" horiz-adv-x="533" d="M252 553 Q252 539 261.5 530 Q271 521 285 521 Q299 521 308.5 530 Q318 539 318 553 Q318 568 308.5 577.5 Q299 587 285 587 Q271 587 261.5 577.5 Q252 568 252 553 Z M197 555 Q197 573 204 588.5 Q211 604 223 616 Q235 628 251 635 Q267 642 285 642 Q303 642 319 635 Q335 628 347 616 Q359 604 366 588.5 Q373 573 373 555 Q373 537 366 521 Q359 505 347 492.5 Q335 480 319 473 Q303 466 285 466 Q267 466 251 473 Q235 480 223 492.5 Q211 505 204 521 Q197 537 197 555 Z " />
<glyph glyph-name="fraction" unicode="&#x2044;" horiz-adv-x="368" d="M-9 0 Q62 193 132 383.5 Q202 574 274 767 L377 767 Q306 574 236 383.5 Q166 193 94 0 L-9 0 Z " />
<glyph glyph-name="florin" unicode="&#x192;" horiz-adv-x="381" d="M212 332 L212 100 Q212 -35 149.5 -98.5 Q87 -162 -31 -166 L-31 -74 Q48 -69 82 -24 Q116 21 116 103 L116 332 L43 332 L43 426 L116 426 L116 516 Q116 650 178 713.5 Q240 777 358 781 L358 690 Q280 685 246 640 Q212 595 212 512 L212 426 L344 426 L344 332 L212 332 Z " />
<glyph glyph-name="dagger" unicode="&#x2020;" horiz-adv-x="349" d="M123 -9 L123 374 L51 374 L51 474 L123 474 L123 621 L227 621 L227 474 L298 474 L298 374 L227 374 L227 -9 L123 -9 Z " />
<glyph glyph-name="daggerdbl" unicode="&#x2021;" horiz-adv-x="387" d="M141 -9 L141 202 L43 202 L43 302 L141 302 L141 374 L69 374 L69 474 L141 474 L141 621 L245 621 L245 474 L316 474 L316 374 L245 374 L245 302 L344 302 L344 202 L245 202 L245 -9 L141 -9 Z " />
<glyph glyph-name="trademark" unicode="&#x2122;" horiz-adv-x="587" d="M259 768 L390 587 Q391 589 400.5 602 Q410 615 423.5 634 Q437 653 453 675 Q469 697 483.5 716.5 Q498 736 508 750 Q518 764 521 768 L521 498 L474 498 L474 631 Q474 634 475 637 Q476 640 476 641 Q473 636 460 618 Q447 600 432.5 579 Q418 558 405.5 539.5 Q393 521 390 517 L301 641 Q301 640 302 637 Q303 634 303 631 L303 498 L259 498 L259 768 Z M213 757 L213 716 L149 716 L149 498 L107 498 L107 716 L44 716 L44 757 L213 757 Z " />
<glyph glyph-name="minus" unicode="&#x2212;" horiz-adv-x="481" d="M423 158 L58 158 L58 258 L423 258 L423 158 Z " />
<glyph glyph-name="integral" unicode="&#x222b;" horiz-adv-x="345" d="M120 638 Q120 686 130 710.5 Q140 735 157.5 745.5 Q175 756 198.5 757 Q222 758 249 758 L319 758 L319 658 L278 658 Q263 658 252.5 654.5 Q242 651 236 640.5 Q230 630 227.5 609.5 Q225 589 225 556 L225 -41 Q225 -85 214 -108 Q203 -131 185 -141 Q167 -151 144 -151.5 Q121 -152 96 -152 L26 -152 L26 -52 L67 -52 Q83 -52 93 -48.5 Q103 -45 109 -34 Q115 -23 117.5 -2.5 Q120 18 120 51 L120 638 Z " />
<glyph glyph-name="product" unicode="&#x220f;" horiz-adv-x="506" d="M198 -82 L95 -82 L95 762 L411 762 L411 -82 L309 -82 L309 662 L198 662 L198 -82 Z " />
<glyph glyph-name="pi" unicode="&#x3c0;" horiz-adv-x="463" d="M195 259 L195 0 L92 0 L92 259 L35 259 L35 358 L426 358 L426 259 L368 259 L368 0 L266 0 L266 259 L195 259 Z " />
<glyph glyph-name="Euro" unicode="&#x20ac;" horiz-adv-x="541" d="M37 407 L108 407 Q117 473 142 522 Q167 571 203 603.5 Q239 636 283.5 652 Q328 668 376 668 Q412 668 443.5 659.5 Q475 651 500 637 L454 546 Q437 557 418.5 563 Q400 569 374 569 Q334 569 305 556.5 Q276 544 256.5 522 Q237 500 225.5 470.5 Q214 441 209 407 L414 407 L414 354 L206 354 L206 353 Q206 324 209 300 L414 300 L414 247 L217 247 Q227 204 245 174.5 Q263 145 285 126.5 Q307 108 330 100 Q353 92 374 92 Q413 92 448 116 L497 21 Q441 -9 374 -9 Q325 -9 281.5 7.5 Q238 24 203 56.5 Q168 89 143.5 136.5 Q119 184 109 247 L38 247 L38 300 L104 300 Q103 308 103 316 Q103 324 103 333 L103 354 L37 354 L37 407 Z " />
<glyph glyph-name="lessequal" unicode="&#x2264;" horiz-adv-x="544" d="M479 358 L479 217 L36 473 Q148 537 257.5 601 Q367 665 479 728 L479 588 L280 473 L479 358 Z M440 52 L75 52 L75 152 L440 152 L440 52 Z " />
<glyph glyph-name="greaterequal" unicode="&#x2265;" horiz-adv-x="552" d="M76 358 L275 473 L76 588 L76 728 Q188 665 297.5 601 Q407 537 519 473 L76 217 L76 358 Z M75 152 L440 152 L440 52 L75 52 L75 152 Z " />
<glyph glyph-name="notequal" unicode="&#x2260;" horiz-adv-x="669" d="M591 401 L591 301 L407 301 L324 204 L591 204 L591 104 L238 104 Q209 69 182.5 38.5 Q156 8 133 -18 L74 34 L134 104 L77 104 L77 204 L221 204 L304 301 L77 301 L77 401 L390 401 L516 547 L573 494 L492 401 L591 401 Z " />
<glyph glyph-name="approxequal" unicode="&#x2248;" horiz-adv-x="451" d="M217 192 Q201 206 190 211.5 Q179 217 165 217 Q158 217 150 215.5 Q142 214 134.5 209 Q127 204 121 195.5 Q115 187 114 173 L60 175 Q61 196 70 213.5 Q79 231 92.5 243.5 Q106 256 122.5 263 Q139 270 155 270 Q180 270 199 262 Q218 254 235 238 Q251 223 262 218 Q273 213 287 213 Q294 213 302 214.5 Q310 216 317.5 221 Q325 226 330.5 234.5 Q336 243 338 257 L392 255 Q391 234 382 216.5 Q373 199 359.5 186.5 Q346 174 329.5 167 Q313 160 297 160 Q273 160 253.5 168.5 Q234 177 217 192 Z M218 341 Q202 355 191 360.5 Q180 366 166 366 Q159 366 151 364.5 Q143 363 135.5 358 Q128 353 122 344.5 Q116 336 115 322 L61 324 Q62 345 71 362.5 Q80 380 93.5 392.5 Q107 405 123.5 412 Q140 419 156 419 Q181 419 200 411 Q219 403 236 387 Q252 372 263 367 Q274 362 288 362 Q295 362 303 363.5 Q311 365 318.5 370 Q326 375 331.5 383.5 Q337 392 339 406 L393 404 Q392 383 383 365.5 Q374 348 360.5 335.5 Q347 323 330.5 316 Q314 309 298 309 Q274 309 254.5 317.5 Q235 326 218 341 Z " />
<glyph glyph-name="summation" unicode="&#x2211;" horiz-adv-x="504" d="M187 11 L439 11 L469 -89 L51 -89 L167 337 L51 762 L469 762 L439 662 L187 662 L278 337 L187 11 Z " />
<glyph glyph-name="Omega" unicode="&#x2126;" horiz-adv-x="669" d="M54 100 L168 100 Q147 114 127.5 134 Q108 154 94 181.5 Q80 209 71.5 246 Q63 283 63 331 Q63 406 85 460 Q107 514 143.5 548 Q180 582 229 598 Q278 614 332 614 Q402 614 455.5 591 Q509 568 543.5 528 Q578 488 594 432.5 Q610 377 607 312 Q602 228 573 178 Q544 128 507 100 L615 100 L615 0 L395 0 L395 100 Q421 112 441 132.5 Q461 153 475 180.5 Q489 208 496 241 Q503 274 503 309 Q503 343 495.5 379.5 Q488 416 469.5 446 Q451 476 418.5 495 Q386 514 337 514 Q285 514 252 493.5 Q219 473 200 442.5 Q181 412 173.5 377 Q166 342 166 314 Q166 275 175 241.5 Q184 208 200 180.5 Q216 153 237.5 132.5 Q259 112 285 100 L285 0 L54 0 L54 100 Z " />
<glyph glyph-name="radical" unicode="&#x221a;" horiz-adv-x="526" d="M18 347 L142 347 L235 139 L446 618 L517 618 L235 -14 L97 287 L17 287 L18 347 Z " />
<glyph glyph-name="Delta" unicode="&#x2206;" horiz-adv-x="419" d="M209 740 L382 253 L37 253 L209 740 Z M128 313 L291 313 L209 556 L128 313 Z " />
<glyph glyph-name="lozenge" unicode="&#x25ca;" horiz-adv-x="417" d="M36 363 L208 740 L381 363 L208 -14 L36 363 Z M107 363 L208 139 L310 363 L208 588 L107 363 Z " />
<glyph glyph-name="infinity" unicode="&#x221e;" horiz-adv-x="514" d="M356 213 Q328 213 302 222 Q276 231 258 248 Q239 231 213 222 Q187 213 159 213 Q131 213 111 222 Q91 231 78.5 245 Q66 259 60 276 Q54 293 54 309 Q54 324 60 341 Q66 358 79 372 Q92 386 112 395 Q132 404 159 404 Q187 404 213 394.5 Q239 385 258 368 Q277 385 303 394.5 Q329 404 357 404 Q384 404 403 395 Q422 386 435 372 Q448 358 454 341.5 Q460 325 460 309 Q460 293 454 276 Q448 259 435.5 245 Q423 231 403 222 Q383 213 356 213 Z M228 307 Q228 324 207 333.5 Q186 343 160 343 Q115 343 115 308 Q115 294 124.5 283.5 Q134 273 160 273 Q185 273 206.5 282 Q228 291 228 307 Z M288 307 Q288 299 294.5 293 Q301 287 310.5 282.5 Q320 278 332 275.5 Q344 273 356 273 Q382 273 391.5 283.5 Q401 294 401 308 Q401 343 356 343 Q331 343 310 333.5 Q289 324 288 308 L288 307 Z " />
</font>
</svg>
