<?xml version="1.0" encoding="UTF-8"?>
<svg xmlns="http://www.w3.org/2000/svg" xmlns:xlink="http://www.w3.org/1999/xlink" version="1.2" >
<font id="Josefin Sans SemiBold">
<font-face  font-family="Josefin Sans" units-per-em="1000" ascent="750" descent="-250" font-style="normal" font-weight="600" font-stretch="normal" slope="-7.5" cap-height="700" x-height="462" underline-position="-75" underline-thickness="50" />
<missing-glyph  horiz-adv-x="300" d="" />
<glyph glyph-name=".null" d="" />
<glyph glyph-name="nonmarkingreturn" unicode="&#xd;" horiz-adv-x="300" d="" />
<glyph glyph-name="space" unicode="&#x20;" horiz-adv-x="228" d="" />
<glyph glyph-name="t" unicode="t" horiz-adv-x="302" d="M134 602 L219 602 L196 417 L308 417 L299 341 L187 341 L145 0 L60 0 L102 341 L27 341 L36 417 L111 417 L134 602 Z " />
<glyph glyph-name="b" unicode="b" horiz-adv-x="538" d="M499 237 Q499 184 480 139 Q461 94 427.5 61 Q394 28 348.5 9 Q303 -10 251 -10 Q200 -10 164 10.5 Q128 31 116 55 Q115 50 115 44.5 Q115 39 114 34 L110 0 L24 0 L119 777 L205 777 L154 357 Q163 369 178 381.5 Q193 394 213 404.5 Q233 415 257 422 Q281 429 309 429 Q396 429 447.5 377.5 Q499 326 499 237 Z M405 227 Q405 278 375 311.5 Q345 345 290 345 Q258 345 229.5 333.5 Q201 322 180 301.5 Q159 281 147 253.5 Q135 226 135 195 Q135 143 168 108.5 Q201 74 257 74 Q290 74 317 86 Q344 98 363.5 119 Q383 140 394 167.5 Q405 195 405 227 Z " />
<glyph glyph-name="l" unicode="l" horiz-adv-x="204" d="M110 0 L25 0 L120 777 L205 777 L110 0 Z " />
<glyph glyph-name="m" unicode="m" horiz-adv-x="800" d="M75 418 L150 418 Q148 387 147 361.5 Q146 336 144 311 Q174 365 215.5 396.5 Q257 428 320 429 Q381 429 414 398 Q447 367 447 317 Q478 368 518.5 398.5 Q559 429 621 429 Q686 429 719 394 Q752 359 747 304 L710 0 L624 0 L657 265 Q659 297 642 319.5 Q625 342 581 344 Q521 344 482 305.5 Q443 267 434 207 L409 0 L324 0 L357 265 Q359 297 341 319.5 Q323 342 281 344 Q251 344 225.5 333.5 Q200 323 181 305 Q162 287 150 262 Q138 237 134 207 L109 0 L24 0 L75 418 Z " />
<glyph glyph-name="i" unicode="i" horiz-adv-x="202" d="M84 573 Q84 599 104 616.5 Q124 634 146 634 Q164 634 178.5 619.5 Q193 605 193 583 Q193 557 173 540 Q153 523 132 523 Q113 523 98.5 537 Q84 551 84 573 Z M109 0 L24 0 L75 418 L160 418 L109 0 Z " />
<glyph glyph-name="h" unicode="h" horiz-adv-x="507" d="M119 777 L204 777 L148 317 Q176 367 220 397.5 Q264 428 327 429 Q391 430 425.5 395.5 Q460 361 454 304 L417 0 L331 0 L364 265 Q366 297 348.5 319.5 Q331 342 288 344 Q258 344 232 333.5 Q206 323 185.5 305 Q165 287 151.5 262 Q138 237 134 207 L109 0 L24 0 L119 777 Z " />
<glyph glyph-name="c" unicode="c" horiz-adv-x="414" d="M317 103 Q329 86 339.5 70.5 Q350 55 361 38 Q330 16 293.5 3 Q257 -10 216 -10 Q173 -10 137 5.5 Q101 21 74.5 48 Q48 75 33.5 111 Q19 147 19 188 Q19 237 39.5 280.5 Q60 324 95 357 Q130 390 175 409.5 Q220 429 270 429 Q312 429 346 416 Q380 403 406 381 L343 316 Q328 330 306.5 337.5 Q285 345 259 345 Q226 345 198 333.5 Q170 322 149.5 301.5 Q129 281 117 253.5 Q105 226 105 195 Q105 144 137.5 109 Q170 74 226 74 Q252 74 275 81.5 Q298 89 317 103 Z " />
<glyph glyph-name="q" unicode="q" horiz-adv-x="537" d="M108 195 Q108 143 141 108.5 Q174 74 229 74 Q262 74 290.5 86 Q319 98 340 118.5 Q361 139 373 166.5 Q385 194 385 225 Q385 277 352 311 Q319 345 262 345 Q230 345 202 333.5 Q174 322 153 301.5 Q132 281 120 253.5 Q108 226 108 195 Z M21 183 Q21 237 40.5 282 Q60 327 93.5 360 Q127 393 171.5 411 Q216 429 266 429 Q297 429 320.5 421.5 Q344 414 360.5 403.5 Q377 393 387 380 Q397 367 402 357 Q404 371 407 388.5 Q410 406 412 418 L495 418 L419 -201 L334 -201 L362 31 Q363 37 364.5 44.5 Q366 52 367 57 Q356 45 341 33.5 Q326 22 306.5 12 Q287 2 263 -4 Q239 -10 209 -10 Q164 -10 129 5 Q94 20 70 46.5 Q46 73 33.5 108 Q21 143 21 183 Z " />
<glyph glyph-name="u" unicode="u" horiz-adv-x="506" d="M412 -9 L340 -9 L344 107 Q315 56 269.5 23 Q224 -10 160 -10 Q96 -10 62.5 24.5 Q29 59 34 115 L71 418 L156 418 L124 153 Q122 122 140 100 Q158 78 200 75 Q230 75 256 85.5 Q282 96 302.5 114 Q323 132 336 157 Q349 182 353 212 L378 418 L464 418 L412 -9 Z " />
<glyph glyph-name="r" unicode="r" horiz-adv-x="311" d="M293 319 Q265 319 238 311.5 Q211 304 189 289 Q167 274 152.5 251.5 Q138 229 134 200 L109 0 L24 0 L75 418 L150 418 Q148 387 147 361.5 Q146 336 144 311 Q160 338 184 360 Q208 382 233.5 397 Q259 412 283.5 420.5 Q308 429 326 429 L293 319 Z " />
<glyph glyph-name="e" unicode="e" horiz-adv-x="461" d="M384 49 Q351 22 306 6 Q261 -10 216 -10 Q173 -10 137 5.5 Q101 21 74.5 47.5 Q48 74 33.5 110 Q19 146 19 187 Q19 236 39.5 280 Q60 324 94.5 357 Q129 390 174 409.5 Q219 429 267 429 Q338 429 385.5 386.5 Q433 344 447 275 Q414 264 372 248 Q330 232 285 214.5 Q240 197 195 180 Q150 163 111 149 Q125 115 154.5 94.5 Q184 74 224 74 Q251 74 279.5 84 Q308 94 328 111 L384 49 Z M342 295 Q333 320 308.5 332.5 Q284 345 257 345 Q227 345 199.5 333 Q172 321 151 301.5 Q130 282 118 257.5 Q106 233 106 208 L106 203 Q133 213 165 225.5 Q197 238 228.5 250.5 Q260 263 289.5 274.5 Q319 286 342 295 Z " />
<glyph glyph-name="p" unicode="p" horiz-adv-x="537" d="M405 227 Q405 278 375 311.5 Q345 345 290 345 Q257 345 228.5 333.5 Q200 322 179 301.5 Q158 281 146 253.5 Q134 226 134 195 Q134 143 167.5 108.5 Q201 74 257 74 Q290 74 317 86 Q344 98 363.5 119 Q383 140 394 167.5 Q405 195 405 227 Z M498 237 Q498 184 479 139 Q460 94 426.5 61 Q393 28 347.5 9 Q302 -10 250 -10 Q199 -10 163.5 10.5 Q128 31 115 55 Q115 50 115 44.5 Q115 39 114 34 L85 -201 L-1 -201 L75 418 L158 418 Q156 406 156 388.5 Q156 371 154 357 Q163 369 178 381.5 Q193 394 212.5 404.5 Q232 415 256 422 Q280 429 308 429 Q396 429 447 377.5 Q498 326 498 237 Z " />
<glyph glyph-name="aacute" unicode="&#xe1;" horiz-adv-x="535" d="M18 184 Q18 233 38.5 277.5 Q59 322 93.5 355.5 Q128 389 173 409 Q218 429 266 429 Q296 429 320 421.5 Q344 414 360.5 403 Q377 392 386.5 380 Q396 368 399 359 L410 418 L492 418 L441 0 L355 0 L362 53 Q356 45 343.5 34 Q331 23 312.5 13.5 Q294 4 269 -3 Q244 -10 213 -10 Q169 -10 133 5.5 Q97 21 71.5 47.5 Q46 74 32 109.5 Q18 145 18 184 Z M105 195 Q105 143 138 108.5 Q171 74 226 74 Q259 74 287.5 86 Q316 98 337 118.5 Q358 139 370 166.5 Q382 194 382 225 Q382 277 349 311 Q316 345 259 345 Q227 345 199 333.5 Q171 322 150 301.5 Q129 281 117 253.5 Q105 226 105 195 Z M236 486 Q263 519 290 553 Q317 587 344 620 L436 620 L301 486 L236 486 Z " />
<glyph glyph-name="eacute" unicode="&#xe9;" horiz-adv-x="461" d="M384 49 Q351 22 306 6 Q261 -10 216 -10 Q173 -10 137 5.5 Q101 21 74.5 47.5 Q48 74 33.5 110 Q19 146 19 187 Q19 236 39.5 280 Q60 324 94.5 357 Q129 390 174 409.5 Q219 429 267 429 Q338 429 385.5 386.5 Q433 344 447 275 Q414 264 372 248 Q330 232 285 214.5 Q240 197 195 180 Q150 163 111 149 Q125 115 154.5 94.5 Q184 74 224 74 Q251 74 279.5 84 Q308 94 328 111 L384 49 Z M342 295 Q333 320 308.5 332.5 Q284 345 257 345 Q227 345 199.5 333 Q172 321 151 301.5 Q130 282 118 257.5 Q106 233 106 208 L106 203 Q133 213 165 225.5 Q197 238 228.5 250.5 Q260 263 289.5 274.5 Q319 286 342 295 Z M213 486 Q240 519 267 553 Q294 587 321 620 L413 620 L278 486 L213 486 Z " />
<glyph glyph-name="iacute" unicode="&#xed;" horiz-adv-x="203" d="M109 0 L24 0 L75 418 L160 418 L109 0 Z M85 486 Q112 519 139 553 Q166 587 193 620 L285 620 L150 486 L85 486 Z " />
<glyph glyph-name="oacute" unicode="&#xf3;" horiz-adv-x="503" d="M19 185 Q19 235 39.5 279.5 Q60 324 94.5 357 Q129 390 175 409.5 Q221 429 271 429 Q314 429 350 413.5 Q386 398 411.5 371.5 Q437 345 451 309 Q465 273 465 233 Q465 183 445.5 139 Q426 95 392 62 Q358 29 312.5 9.5 Q267 -10 216 -10 Q174 -10 137.5 4 Q101 18 75 44 Q49 70 34 105.5 Q19 141 19 185 Z M105 195 Q105 169 114 147 Q123 125 138.5 109 Q154 93 176 83.5 Q198 74 224 74 Q254 74 282 85.5 Q310 97 331.5 117.5 Q353 138 366 165 Q379 192 379 222 Q379 248 370 270.5 Q361 293 344.5 309.5 Q328 326 305.5 335.5 Q283 345 257 345 Q227 345 199.5 333 Q172 321 151 300.5 Q130 280 117.5 253 Q105 226 105 195 Z M275 486 Q302 519 329 553 Q356 587 383 620 L475 620 L340 486 L275 486 Z " />
<glyph glyph-name="uacute" unicode="&#xfa;" horiz-adv-x="506" d="M412 -9 L340 -9 L344 107 Q315 56 269.5 23 Q224 -10 160 -10 Q96 -10 62.5 24.5 Q29 59 34 115 L71 418 L156 418 L124 153 Q122 122 140 100 Q158 78 200 75 Q230 75 256 85.5 Q282 96 302.5 114 Q323 132 336 157 Q349 182 353 212 L378 418 L464 418 L412 -9 Z M225 486 Q252 519 279 553 Q306 587 333 620 L425 620 L290 486 L225 486 Z " />
<glyph glyph-name="adieresis" unicode="&#xe4;" horiz-adv-x="535" d="M18 184 Q18 233 38.5 277.5 Q59 322 93.5 355.5 Q128 389 173 409 Q218 429 266 429 Q296 429 320 421.5 Q344 414 360.5 403 Q377 392 386.5 380 Q396 368 399 359 L410 418 L492 418 L441 0 L355 0 L362 53 Q356 45 343.5 34 Q331 23 312.5 13.5 Q294 4 269 -3 Q244 -10 213 -10 Q169 -10 133 5.5 Q97 21 71.5 47.5 Q46 74 32 109.5 Q18 145 18 184 Z M105 195 Q105 143 138 108.5 Q171 74 226 74 Q259 74 287.5 86 Q316 98 337 118.5 Q358 139 370 166.5 Q382 194 382 225 Q382 277 349 311 Q316 345 259 345 Q227 345 199 333.5 Q171 322 150 301.5 Q129 281 117 253.5 Q105 226 105 195 Z M133 523 Q133 550 153.5 568 Q174 586 197 586 Q215 586 230 571.5 Q245 557 245 535 Q245 508 224.5 490.5 Q204 473 183 473 Q163 473 148 487 Q133 501 133 523 Z M323 523 Q323 550 343 568 Q363 586 386 586 Q405 586 419.5 572 Q434 558 434 535 Q434 508 414 490.5 Q394 473 372 473 Q352 473 337.5 487 Q323 501 323 523 Z " />
<glyph glyph-name="edieresis" unicode="&#xeb;" horiz-adv-x="461" d="M384 49 Q351 22 306 6 Q261 -10 216 -10 Q173 -10 137 5.5 Q101 21 74.5 47.5 Q48 74 33.5 110 Q19 146 19 187 Q19 236 39.5 280 Q60 324 94.5 357 Q129 390 174 409.5 Q219 429 267 429 Q338 429 385.5 386.5 Q433 344 447 275 Q414 264 372 248 Q330 232 285 214.5 Q240 197 195 180 Q150 163 111 149 Q125 115 154.5 94.5 Q184 74 224 74 Q251 74 279.5 84 Q308 94 328 111 L384 49 Z M342 295 Q333 320 308.5 332.5 Q284 345 257 345 Q227 345 199.5 333 Q172 321 151 301.5 Q130 282 118 257.5 Q106 233 106 208 L106 203 Q133 213 165 225.5 Q197 238 228.5 250.5 Q260 263 289.5 274.5 Q319 286 342 295 Z M299 523 Q299 536 305 548 Q311 560 320 568 Q329 576 340.5 581 Q352 586 363 586 Q382 586 396.5 572 Q411 558 411 535 Q411 508 391 490.5 Q371 473 349 473 Q329 473 314 487 Q299 501 299 523 Z M109 523 Q109 536 115 548 Q121 560 130 568 Q139 576 150.5 581 Q162 586 174 586 Q192 586 207 571.5 Q222 557 222 535 Q222 508 201.5 490.5 Q181 473 160 473 Q140 473 124.5 487 Q109 501 109 523 Z " />
<glyph glyph-name="odieresis" unicode="&#xf6;" horiz-adv-x="503" d="M21 210 Q27 255 49 295 Q71 335 105 364.5 Q139 394 181.5 411.5 Q224 429 271 429 Q314 429 350 413.5 Q386 398 411.5 371.5 Q437 345 451 309 Q465 273 465 233 Q465 183 445.5 139 Q426 95 392 62 Q358 29 312.5 9.5 Q267 -10 216 -10 Q170 -10 131.5 6 Q93 22 66.5 51 Q40 80 27.5 120.5 Q15 161 21 210 Z M106 209 Q102 181 109.5 156.5 Q117 132 133 113.5 Q149 95 172.5 84.5 Q196 74 224 74 Q254 74 282 85.5 Q310 97 331.5 117.5 Q353 138 366 165 Q379 192 379 222 Q379 248 370 270.5 Q361 293 344.5 309.5 Q328 326 305.5 335.5 Q283 345 257 345 Q229 345 203 334.5 Q177 324 156.5 305.5 Q136 287 122.5 262 Q109 237 106 209 Z M335 523 Q335 550 355 568 Q375 586 398 586 Q417 586 431.5 572 Q446 558 446 535 Q446 508 426 490.5 Q406 473 384 473 Q364 473 349.5 487 Q335 501 335 523 Z M145 523 Q145 550 165.5 568 Q186 586 209 586 Q227 586 242 571.5 Q257 557 257 535 Q257 508 236.5 490.5 Q216 473 195 473 Q175 473 160 487 Q145 501 145 523 Z " />
<glyph glyph-name="udieresis" unicode="&#xfc;" horiz-adv-x="506" d="M412 -9 L340 -9 L344 107 Q315 56 269.5 23 Q224 -10 160 -10 Q96 -10 62.5 24.5 Q29 59 34 115 L71 418 L156 418 L124 153 Q122 122 140 100 Q158 78 200 75 Q230 75 256 85.5 Q282 96 302.5 114 Q323 132 336 157 Q349 182 353 212 L378 418 L464 418 L412 -9 Z M308 523 Q308 536 314 548 Q320 560 329 568 Q338 576 349.5 581 Q361 586 372 586 Q391 586 405.5 572 Q420 558 420 535 Q420 508 400 490.5 Q380 473 358 473 Q338 473 323 487 Q308 501 308 523 Z M118 523 Q118 536 124 548 Q130 560 139 568 Q148 576 159.5 581 Q171 586 183 586 Q201 586 216 571.5 Q231 557 231 535 Q231 508 210.5 490.5 Q190 473 169 473 Q149 473 133.5 487 Q118 501 118 523 Z " />
<glyph glyph-name="agrave" unicode="&#xe0;" horiz-adv-x="535" d="M18 184 Q18 233 38.5 277.5 Q59 322 93.5 355.5 Q128 389 173 409 Q218 429 266 429 Q296 429 320 421.5 Q344 414 360.5 403 Q377 392 386.5 380 Q396 368 399 359 L410 418 L492 418 L441 0 L355 0 L362 53 Q356 45 343.5 34 Q331 23 312.5 13.5 Q294 4 269 -3 Q244 -10 213 -10 Q169 -10 133 5.5 Q97 21 71.5 47.5 Q46 74 32 109.5 Q18 145 18 184 Z M105 195 Q105 143 138 108.5 Q171 74 226 74 Q259 74 287.5 86 Q316 98 337 118.5 Q358 139 370 166.5 Q382 194 382 225 Q382 277 349 311 Q316 345 259 345 Q227 345 199 333.5 Q171 322 150 301.5 Q129 281 117 253.5 Q105 226 105 195 Z M224 620 Q244 587 262 553 Q280 519 299 486 L235 486 Q209 519 183.5 553 Q158 587 132 620 L224 620 Z " />
<glyph glyph-name="egrave" unicode="&#xe8;" horiz-adv-x="461" d="M384 49 Q351 22 306 6 Q261 -10 216 -10 Q173 -10 137 5.5 Q101 21 74.5 47.5 Q48 74 33.5 110 Q19 146 19 187 Q19 236 39.5 280 Q60 324 94.5 357 Q129 390 174 409.5 Q219 429 267 429 Q338 429 385.5 386.5 Q433 344 447 275 Q414 264 372 248 Q330 232 285 214.5 Q240 197 195 180 Q150 163 111 149 Q125 115 154.5 94.5 Q184 74 224 74 Q251 74 279.5 84 Q308 94 328 111 L384 49 Z M342 295 Q333 320 308.5 332.5 Q284 345 257 345 Q227 345 199.5 333 Q172 321 151 301.5 Q130 282 118 257.5 Q106 233 106 208 L106 203 Q133 213 165 225.5 Q197 238 228.5 250.5 Q260 263 289.5 274.5 Q319 286 342 295 Z M207 620 Q227 587 245 553 Q263 519 282 486 L218 486 Q192 519 166.5 553 Q141 587 115 620 L207 620 Z " />
<glyph glyph-name="igrave" unicode="&#xec;" horiz-adv-x="202" d="M109 0 L24 0 L75 418 L160 418 L109 0 Z M92 620 Q112 587 130 553 Q148 519 167 486 L103 486 Q77 519 51.5 553 Q26 587 0 620 L92 620 Z " />
<glyph glyph-name="ograve" unicode="&#xf2;" horiz-adv-x="503" d="M21 210 Q27 255 49 295 Q71 335 105 364.5 Q139 394 181.5 411.5 Q224 429 271 429 Q314 429 350 413.5 Q386 398 411.5 371.5 Q437 345 451 309 Q465 273 465 233 Q465 183 445.5 139 Q426 95 392 62 Q358 29 312.5 9.5 Q267 -10 216 -10 Q170 -10 131.5 6 Q93 22 66.5 51 Q40 80 27.5 120.5 Q15 161 21 210 Z M106 209 Q102 181 109.5 156.5 Q117 132 133 113.5 Q149 95 172.5 84.5 Q196 74 224 74 Q254 74 282 85.5 Q310 97 331.5 117.5 Q353 138 366 165 Q379 192 379 222 Q379 248 370 270.5 Q361 293 344.5 309.5 Q328 326 305.5 335.5 Q283 345 257 345 Q229 345 203 334.5 Q177 324 156.5 305.5 Q136 287 122.5 262 Q109 237 106 209 Z M221 620 Q241 587 259 553 Q277 519 296 486 L232 486 Q206 519 180.5 553 Q155 587 129 620 L221 620 Z " />
<glyph glyph-name="ugrave" unicode="&#xf9;" horiz-adv-x="506" d="M412 -9 L340 -9 L344 107 Q315 56 269.5 23 Q224 -10 160 -10 Q96 -10 62.5 24.5 Q29 59 34 115 L71 418 L156 418 L124 153 Q122 122 140 100 Q158 78 200 75 Q230 75 256 85.5 Q282 96 302.5 114 Q323 132 336 157 Q349 182 353 212 L378 418 L464 418 L412 -9 Z M236 620 Q256 587 274 553 Q292 519 311 486 L247 486 Q221 519 195.5 553 Q170 587 144 620 L236 620 Z " />
<glyph glyph-name="comma" unicode="&#x2c;" horiz-adv-x="241" d="M153 87 L39 -121 L-43 -121 Q-17 -69 8.5 -17.5 Q34 34 61 87 L153 87 Z " />
<glyph glyph-name="period" unicode="&#x2e;" horiz-adv-x="218" d="M26 50 Q26 63 32 74.5 Q38 86 47 94.5 Q56 103 67.5 108 Q79 113 91 113 Q109 113 124 98 Q139 83 139 61 Q139 34 118.5 17 Q98 0 77 0 Q57 0 41.5 13.5 Q26 27 26 50 Z " />
<glyph glyph-name="f" unicode="f" horiz-adv-x="323" d="M30 335 L40 419 L111 419 L123 516 Q139 647 208.5 710.5 Q278 774 391 777 L381 695 Q303 691 261.5 645 Q220 599 209 514 L197 419 L329 419 L319 335 L187 335 L146 0 L60 0 L101 335 L30 335 Z " />
<glyph glyph-name="aring" unicode="&#xe5;" horiz-adv-x="535" d="M18 184 Q18 233 38.5 277.5 Q59 322 93.5 355.5 Q128 389 173 409 Q218 429 266 429 Q296 429 320 421.5 Q344 414 360.5 403 Q377 392 386.5 380 Q396 368 399 359 L410 418 L492 418 L441 0 L355 0 L362 53 Q356 45 343.5 34 Q331 23 312.5 13.5 Q294 4 269 -3 Q244 -10 213 -10 Q169 -10 133 5.5 Q97 21 71.5 47.5 Q46 74 32 109.5 Q18 145 18 184 Z M105 195 Q105 143 138 108.5 Q171 74 226 74 Q259 74 287.5 86 Q316 98 337 118.5 Q358 139 370 166.5 Q382 194 382 225 Q382 277 349 311 Q316 345 259 345 Q227 345 199 333.5 Q171 322 150 301.5 Q129 281 117 253.5 Q105 226 105 195 Z M202 536 Q202 555 210 571.5 Q218 588 231.5 601 Q245 614 262.5 621.5 Q280 629 299 629 Q331 629 352 606.5 Q373 584 373 552 Q373 533 365 516 Q357 499 343.5 486 Q330 473 313 465.5 Q296 458 278 458 Q245 458 223.5 481 Q202 504 202 536 Z M253 538 Q253 525 261.5 516.5 Q270 508 284 508 Q300 508 312 519 Q324 530 324 546 Q324 560 315 569 Q306 578 293 578 Q276 578 264.5 566.5 Q253 555 253 538 Z " />
<glyph glyph-name="v" unicode="v" horiz-adv-x="443" d="M184 -25 Q139 87 100.5 196.5 Q62 306 19 418 L112 418 Q139 347 155 302 Q171 257 180 227 Q189 197 193.5 176.5 Q198 156 203 135 Q210 149 216.5 162.5 Q223 176 231 192 Q239 208 250 227.5 Q261 247 276.5 273.5 Q292 300 313.5 335.5 Q335 371 365 418 L458 418 Q387 306 321 196.5 Q255 87 184 -25 Z " />
<glyph glyph-name="j" unicode="j" horiz-adv-x="202" d="M-2 -202 L-54 -138 Q-22 -115 -2 -80.5 Q18 -46 24 2 L75 418 L160 418 L109 -1 Q101 -69 72 -119 Q43 -169 -2 -202 Z M85 572 Q85 585 90.5 596.5 Q96 608 105 616 Q114 624 125.5 629 Q137 634 148 634 Q167 634 181 620 Q195 606 195 584 Q195 558 175.5 540.5 Q156 523 134 523 Q114 523 99.5 537 Q85 551 85 572 Z " />
<glyph glyph-name="s" unicode="s" horiz-adv-x="339" d="M305 381 L253 321 Q252 322 246.5 326 Q241 330 232 334 Q223 338 211 341.5 Q199 345 186 345 Q168 345 149.5 336 Q131 327 131 303 Q131 286 143 275 Q155 264 172.5 254.5 Q190 245 210.5 236 Q231 227 248.5 213.5 Q266 200 278 181 Q290 162 290 133 Q290 103 278.5 77 Q267 51 246 32 Q225 13 195 2 Q165 -9 129 -9 Q90 -9 54.5 4.5 Q19 18 -1 44 Q6 51 16.5 62 Q27 73 36.5 83 Q46 93 52.5 99.5 Q59 106 60 106 Q60 105 66.5 100 Q73 95 84.5 89.5 Q96 84 110.5 79.5 Q125 75 140 75 Q166 75 185 88 Q204 101 204 123 Q204 139 192 149 Q180 159 162 167.5 Q144 176 123.5 184.5 Q103 193 85 206.5 Q67 220 55 240 Q43 260 43 291 Q43 329 57.5 355 Q72 381 94 397.5 Q116 414 142.5 421 Q169 428 193 428 Q222 428 253.5 416 Q285 404 305 381 Z " />
<glyph glyph-name="k" unicode="k" horiz-adv-x="439" d="M374 429 L418 378 Q376 343 337.5 310 Q299 277 257 241 Q294 181 330 120.5 Q366 60 402 0 L304 0 Q276 47 247 92.5 Q218 138 190 185 L125 132 L109 0 L24 0 L119 777 L204 777 L137 232 Q200 283 256.5 330.5 Q313 378 374 429 Z " />
<glyph glyph-name="y" unicode="y" horiz-adv-x="474" d="M113 -201 L27 -201 Q45 -172 60.5 -145.5 Q76 -119 91.5 -91.5 Q107 -64 124 -34.5 Q141 -5 161 29 Q144 74 126 123.5 Q108 173 90.5 223 Q73 273 55 323 Q37 373 20 418 L113 418 Q140 347 158 298 Q176 249 187 213.5 Q198 178 204 153 Q210 128 215 107 Q225 128 238 153 Q251 178 270.5 213.5 Q290 249 319.5 298 Q349 347 394 418 L487 418 L113 -201 Z " />
<glyph glyph-name="oslash" unicode="&#xf8;" horiz-adv-x="503" d="M19 184 Q19 234 39.5 278.5 Q60 323 95 356.5 Q130 390 175.5 409.5 Q221 429 271 429 Q303 429 331.5 420.5 Q360 412 383 397 Q397 413 409 424.5 Q421 436 429 444 L469 408 L422 361 Q443 335 454 302 Q465 269 465 233 Q465 183 445.5 139 Q426 95 392 62 Q358 29 312.5 9.5 Q267 -10 216 -10 Q142 -10 90 28 L37 -26 L0 13 L53 67 Q36 90 27.5 120 Q19 150 19 184 Z M155 93 Q187 74 224 74 Q254 74 282 85.5 Q310 97 331.5 117.5 Q353 138 366 165 Q379 192 379 222 Q379 242 373.5 261 Q368 280 357 295 L155 93 Z M105 195 Q105 178 108.5 162 Q112 146 119 133 Q166 181 218 232.5 Q270 284 317 331 Q289 345 257 345 Q227 345 199.5 333 Q172 321 151 300.5 Q130 280 117.5 253 Q105 226 105 195 Z " />
<glyph glyph-name="w" unicode="w" horiz-adv-x="652" d="M295 351 L272 418 L346 418 Q367 355 381.5 309.5 Q396 264 406 230.5 Q416 197 422 174 Q428 151 432 135 Q442 165 453.5 189.5 Q465 214 481.5 244.5 Q498 275 521.5 315.5 Q545 356 579 418 L665 418 L413 -25 Q385 50 367 121 Q349 192 321 267 L159 -25 L24 418 L110 418 Q129 356 141 315 Q153 274 160.5 244 Q168 214 172 189.5 Q176 165 178 135 Q184 147 191 162 Q198 177 211 200.5 Q224 224 244 260 Q264 296 295 351 Z " />
<glyph glyph-name="x" unicode="x" horiz-adv-x="431" d="M155 221 Q126 271 94.5 320 Q63 369 35 418 L140 418 Q150 398 159.5 382 Q169 366 178.5 351 Q188 336 197.5 320.5 Q207 305 218 286 Q247 323 273 351.5 Q299 380 329 418 L424 418 Q402 390 382.5 366.5 Q363 343 343.5 319.5 Q324 296 303.5 271.5 Q283 247 260 217 Q275 193 292 165 Q309 137 326.5 108.5 Q344 80 360.5 52 Q377 24 391 0 L282 0 Q259 39 236 72 Q213 105 190 143 Q159 105 130 72 Q101 39 70 0 L-25 0 Q20 57 65.5 111.5 Q111 166 155 221 Z " />
<glyph glyph-name="z" unicode="z" horiz-adv-x="437" d="M374 0 L-20 0 L262 345 L122 345 Q87 345 66.5 364 Q46 383 50 415 L55 458 L133 458 L131 445 Q129 428 136 423 Q143 418 161 418 L428 418 L154 84 L384 84 L374 0 Z " />
<glyph glyph-name="o" unicode="o" horiz-adv-x="503" d="M21 210 Q27 255 49 295 Q71 335 105 364.5 Q139 394 181.5 411.5 Q224 429 271 429 Q314 429 350 413.5 Q386 398 411.5 371.5 Q437 345 451 309 Q465 273 465 233 Q465 183 445.5 139 Q426 95 392 62 Q358 29 312.5 9.5 Q267 -10 216 -10 Q170 -10 131.5 6 Q93 22 66.5 51 Q40 80 27.5 120.5 Q15 161 21 210 Z M106 209 Q102 181 109.5 156.5 Q117 132 133 113.5 Q149 95 172.5 84.5 Q196 74 224 74 Q254 74 282 85.5 Q310 97 331.5 117.5 Q353 138 366 165 Q379 192 379 222 Q379 248 370 270.5 Q361 293 344.5 309.5 Q328 326 305.5 335.5 Q283 345 257 345 Q229 345 203 334.5 Q177 324 156.5 305.5 Q136 287 122.5 262 Q109 237 106 209 Z " />
<glyph glyph-name="ae" unicode="&#xe6;" horiz-adv-x="693" d="M616 49 Q583 22 538 6 Q493 -10 448 -10 Q404 -10 368 5 Q332 20 306 46 Q275 20 232 5.5 Q189 -9 141 -9 Q104 -9 78 0 Q52 9 36 24 Q20 39 12.5 59 Q5 79 5 100 Q5 135 20 160.5 Q35 186 57.5 202.5 Q80 219 107 227 Q134 235 159 235 L257 235 Q262 256 271.5 276 Q281 296 293 315 Q274 345 212 345 Q172 345 140.5 336 Q109 327 85 314 L58 380 Q93 403 138.5 416 Q184 429 234 429 Q278 429 309.5 416.5 Q341 404 357 381 Q389 404 425 416.5 Q461 429 499 429 Q570 429 617.5 386.5 Q665 344 679 275 Q646 264 604 248 Q562 232 517 214.5 Q472 197 427 180 Q382 163 343 149 Q357 115 386.5 94.5 Q416 74 456 74 Q483 74 511.5 84 Q540 94 560 111 L616 49 Z M574 295 Q565 320 540.5 332.5 Q516 345 489 345 Q459 345 431.5 333 Q404 321 383 301.5 Q362 282 350 257.5 Q338 233 338 208 L338 203 Q365 213 397 225.5 Q429 238 460.5 250.5 Q492 263 521.5 274.5 Q551 286 574 295 Z M86 117 Q86 104 92 95.5 Q98 87 108 82.5 Q118 78 131 76 Q144 74 157 74 Q192 74 220.5 82 Q249 90 265 107 Q252 138 251 172 L199 172 Q166 172 144 167.5 Q122 163 109 155.5 Q96 148 91 138 Q86 128 86 117 Z " />
<glyph glyph-name="A" unicode="A" horiz-adv-x="647" d="M503 0 Q500 11 493.5 32 Q487 53 479 80.5 Q471 108 461.5 140.5 Q452 173 442 208 L186 208 L74 0 L-34 0 L382 759 Q386 745 397 708 Q408 671 423.5 619.5 Q439 568 458 505.5 Q477 443 496.5 379 Q516 315 534.5 253 Q553 191 569 139 Q585 87 596 50.5 Q607 14 611 0 L503 0 Z M235 300 L416 300 Q407 333 398 363.5 Q389 394 381.5 419.5 Q374 445 368.5 464 Q363 483 360 494 Q359 496 357 508 Q355 520 354 530 Q350 520 345 508 Q340 496 339 494 L235 300 Z " />
<glyph glyph-name="idieresis" unicode="&#xef;" horiz-adv-x="203" d="M109 0 L24 0 L75 418 L160 418 L109 0 Z M175 523 Q175 550 195 568 Q215 586 238 586 Q257 586 271.5 572 Q286 558 286 535 Q286 508 266 490.5 Q246 473 224 473 Q204 473 189.5 487 Q175 501 175 523 Z M-15 523 Q-15 550 5.5 568 Q26 586 49 586 Q67 586 82 571.5 Q97 557 97 535 Q97 508 76.5 490.5 Q56 473 35 473 Q15 473 0 487 Q-15 501 -15 523 Z " />
<glyph glyph-name="yacute" unicode="&#xfd;" horiz-adv-x="474" d="M113 -201 L27 -201 Q45 -172 60.5 -145.5 Q76 -119 91.5 -91.5 Q107 -64 124 -34.5 Q141 -5 161 29 Q144 74 126 123.5 Q108 173 90.5 223 Q73 273 55 323 Q37 373 20 418 L113 418 Q140 347 158 298 Q176 249 187 213.5 Q198 178 204 153 Q210 128 215 107 Q225 128 238 153 Q251 178 270.5 213.5 Q290 249 319.5 298 Q349 347 394 418 L487 418 L113 -201 Z M226 486 Q254 519 280.5 553 Q307 587 335 620 L427 620 L291 486 L226 486 Z " />
<glyph glyph-name="ydieresis" unicode="&#xff;" horiz-adv-x="474" d="M113 -201 L27 -201 Q45 -172 60.5 -145.5 Q76 -119 91.5 -91.5 Q107 -64 124 -34.5 Q141 -5 161 29 Q144 74 126 123.5 Q108 173 90.5 223 Q73 273 55 323 Q37 373 20 418 L113 418 Q140 347 158 298 Q176 249 187 213.5 Q198 178 204 153 Q210 128 215 107 Q225 128 238 153 Q251 178 270.5 213.5 Q290 249 319.5 298 Q349 347 394 418 L487 418 L113 -201 Z M296 523 Q296 536 302 548 Q308 560 317 568 Q326 576 337.5 581 Q349 586 360 586 Q379 586 393.5 572 Q408 558 408 535 Q408 508 388 490.5 Q368 473 346 473 Q326 473 311 487 Q296 501 296 523 Z M106 523 Q106 536 112 548 Q118 560 127 568 Q136 576 147.5 581 Q159 586 171 586 Q189 586 204 571.5 Q219 557 219 535 Q219 508 198.5 490.5 Q178 473 157 473 Q137 473 121.5 487 Q106 501 106 523 Z " />
<glyph glyph-name="B" unicode="B" horiz-adv-x="594" d="M240 626 L214 412 L312 412 Q342 412 364.5 422 Q387 432 402.5 449 Q418 466 426 488.5 Q434 511 434 536 Q434 583 405 604.5 Q376 626 327 626 L240 626 Z M202 319 L175 99 L277 99 Q308 99 336 106.5 Q364 114 385.5 129.5 Q407 145 419.5 168 Q432 191 432 222 Q432 249 420 267.5 Q408 286 388.5 297.5 Q369 309 343.5 314 Q318 319 291 319 L202 319 Z M53 0 L142 725 L334 725 Q431 725 488 687.5 Q545 650 545 564 Q545 534 538.5 503 Q532 472 517 445.5 Q502 419 477 398 Q452 377 415 367 Q438 362 460 351.5 Q482 341 499.5 323 Q517 305 527.5 279 Q538 253 538 218 Q538 161 515 119.5 Q492 78 455 51.5 Q418 25 370.5 12.5 Q323 0 274 0 L53 0 Z " />
<glyph glyph-name="D" unicode="D" horiz-adv-x="710" d="M142 725 L324 725 Q423 725 491.5 696.5 Q560 668 602 621.5 Q644 575 663 516 Q682 457 682 396 Q682 305 647.5 232 Q613 159 556 107.5 Q499 56 425 28 Q351 0 271 0 L53 0 L142 725 Z M268 104 Q331 104 387 123.5 Q443 143 484 179.5 Q525 216 549 269.5 Q573 323 573 392 Q573 450 553 492.5 Q533 535 500.5 563.5 Q468 592 426.5 606 Q385 620 341 620 L238 620 L175 104 L268 104 Z " />
<glyph glyph-name="E" unicode="E" horiz-adv-x="614" d="M53 0 L142 725 L618 725 L606 626 L240 626 L214 414 L540 414 L527 313 L201 313 L175 101 L555 101 L543 0 L53 0 Z " />
<glyph glyph-name="H" unicode="H" horiz-adv-x="757" d="M53 0 L142 725 L251 725 L213 417 L576 417 L614 725 L724 725 Q722 712 718 676.5 Q714 641 707.5 592 Q701 543 694 483.5 Q687 424 679 362.5 Q671 301 664 241.5 Q657 182 650.5 133 Q644 84 640 48.5 Q636 13 634 0 L525 0 L563 313 L200 313 L162 0 L53 0 Z " />
<glyph glyph-name="I" unicode="I" horiz-adv-x="285" d="M142 725 L251 725 L162 0 L53 0 L142 725 Z " />
<glyph glyph-name="J" unicode="J" horiz-adv-x="329" d="M-79 -150 L-66 -47 Q-31 -45 -0.5 -33.5 Q30 -22 54 0.5 Q78 23 93.5 57 Q109 91 115 138 L187 725 L297 725 L225 135 Q217 68 190.5 16 Q164 -36 123.5 -72.5 Q83 -109 31 -128.5 Q-21 -148 -79 -150 Z " />
<glyph glyph-name="K" unicode="K" horiz-adv-x="645" d="M483 0 Q453 45 426.5 86 Q400 127 374 168 Q348 209 321.5 251 Q295 293 266 338 Q251 324 237 312.5 Q223 301 208 289 Q199 212 191.5 144.5 Q184 77 174 0 L53 0 L142 725 L263 725 L230 454 Q228 445 226 436.5 Q224 428 222 419 Q228 426 233.5 431.5 Q239 437 246 445 Q325 512 400 584.5 Q475 657 554 725 L693 725 Q608 647 525 568 Q442 489 357 411 Q393 357 425.5 306.5 Q458 256 489 206 Q520 156 551.5 105 Q583 54 618 0 L483 0 Z " />
<glyph glyph-name="M" unicode="M" horiz-adv-x="902" d="M146 757 Q154 743 177 703.5 Q200 664 231.5 612 Q263 560 298 501.5 Q333 443 363.5 391.5 Q394 340 417 302 Q440 264 447 252 Q451 257 469.5 279 Q488 301 516 334 Q544 367 578.5 408.5 Q613 450 649.5 493.5 Q686 537 722 580 Q758 623 788.5 658.5 Q819 694 841 720.5 Q863 747 872 757 L779 0 L663 0 L713 406 Q714 414 716.5 423 Q719 432 720 436 Q710 424 686.5 395.5 Q663 367 633 330.5 Q603 294 570 253.5 Q537 213 507.5 177 Q478 141 455.5 113.5 Q433 86 425 75 Q419 84 402 112.5 Q385 141 362.5 179 Q340 217 315 260 Q290 303 268 340 Q246 377 231 403.5 Q216 430 213 436 Q212 432 212.5 423 Q213 414 212 406 L162 0 L53 0 L146 757 Z " />
<glyph glyph-name="N" unicode="N" horiz-adv-x="812" d="M778 725 L685 -33 Q673 -15 638 25 Q603 65 557 116.5 Q511 168 459.5 225.5 Q408 283 362 334.5 Q316 386 282 426 Q248 466 238 484 L223 510 L222 478 L163 0 L53 0 L146 759 Q158 741 193 701 Q228 661 274 610 Q320 559 371.5 503 Q423 447 468.5 396.5 Q514 346 548.5 306.5 Q583 267 595 250 L610 222 L611 256 L669 725 L778 725 Z " />
<glyph glyph-name="P" unicode="P" horiz-adv-x="576" d="M207 362 L306 362 Q350 362 380 378 Q410 394 428 416.5 Q446 439 454 464 Q462 489 462 507 Q462 525 456 545.5 Q450 566 436 583.5 Q422 601 398.5 612 Q375 623 339 623 L239 623 L207 362 Z M53 0 L142 725 L340 725 Q392 725 435 711.5 Q478 698 508.5 672.5 Q539 647 556 609.5 Q573 572 573 524 Q573 479 558 431.5 Q543 384 510 346 Q477 308 424.5 283.5 Q372 259 297 259 L195 259 L163 0 L53 0 Z " />
<glyph glyph-name="R" unicode="R" horiz-adv-x="626" d="M53 0 L142 725 L340 725 Q392 725 435 711.5 Q478 698 508.5 672.5 Q539 647 556 609.5 Q573 572 573 524 Q573 492 565 458.5 Q557 425 540.5 393.5 Q524 362 497.5 335 Q471 308 434 289 Q466 226 504.5 149.5 Q543 73 581 0 L450 0 Q434 31 416.5 65 Q399 99 382 132.5 Q365 166 348.5 198.5 Q332 231 317 259 L297 259 L195 259 L163 0 L53 0 Z M207 362 L306 362 Q350 362 380 377.5 Q410 393 428 415.5 Q446 438 454 463 Q462 488 462 507 Q462 525 456 545.5 Q450 566 436 583.5 Q422 601 398.5 612 Q375 623 339 623 L239 623 L207 362 Z " />
<glyph glyph-name="U" unicode="U" horiz-adv-x="712" d="M319 -8 Q261 -8 213.5 11 Q166 30 133 64.5 Q100 99 84.5 147.5 Q69 196 76 256 L134 725 L243 725 L186 259 Q182 224 191 194.5 Q200 165 219.5 142.5 Q239 120 267.5 107.5 Q296 95 332 95 Q367 95 399 107.5 Q431 120 456.5 142.5 Q482 165 498.5 194.5 Q515 224 519 259 L576 725 L687 725 L629 256 Q622 196 594.5 147.5 Q567 99 525 64.5 Q483 30 430 11 Q377 -8 319 -8 Z " />
<glyph glyph-name="Y" unicode="Y" horiz-adv-x="654" d="M376 239 L347 0 L237 0 L266 239 Q261 250 245 287 Q229 324 207.5 374.5 Q186 425 162 482 Q138 539 116.5 589.5 Q95 640 78.5 677 Q62 714 57 725 L181 725 Q186 715 195.5 692 Q205 669 218 638.5 Q231 608 245.5 571.5 Q260 535 274.5 499 Q289 463 302.5 429.5 Q316 396 326 370 L333 337 Q338 345 342 353.5 Q346 362 350 370 Q367 396 388.5 429.5 Q410 463 433.5 499 Q457 535 480 571.5 Q503 608 522.5 638.5 Q542 669 557.5 692 Q573 715 580 725 L703 725 L376 239 Z " />
<glyph glyph-name="asciitilde" unicode="&#x7e;" horiz-adv-x="463" d="M247 486 Q233 501 222.5 506.5 Q212 512 198 512 Q184 512 165 503 Q146 494 140 466 L91 469 Q95 490 106 507 Q117 524 131.5 536 Q146 548 163 554.5 Q180 561 196 561 Q220 561 238 552 Q256 543 270 527 Q284 512 295 507 Q306 502 320 502 Q334 502 352.5 510.5 Q371 519 379 548 L426 545 Q423 524 412 507.5 Q401 491 386 479 Q371 467 354 460.5 Q337 454 322 454 Q277 454 247 486 Z " />
<glyph glyph-name="ntilde" unicode="&#xf1;" horiz-adv-x="507" d="M75 418 L150 418 Q148 387 147 361.5 Q146 336 144 311 Q174 365 220.5 397 Q267 429 329 429 Q392 429 425.5 394 Q459 359 454 304 L417 0 L331 0 L364 265 Q366 297 348.5 319.5 Q331 342 288 344 Q258 344 232 333.5 Q206 323 185.5 305 Q165 287 151.5 262 Q138 237 134 207 L109 0 L24 0 L75 418 Z M296 509 Q282 524 271.5 529.5 Q261 535 247 535 Q233 535 214 526 Q195 517 188 489 L139 492 Q143 513 154 530 Q165 547 180 559 Q195 571 212 577.5 Q229 584 245 584 Q269 584 287 575 Q305 566 319 550 Q333 535 343.5 530 Q354 525 368 525 Q382 525 400.5 533.5 Q419 542 427 571 L475 568 Q471 547 460 530.5 Q449 514 434.5 502 Q420 490 403 483.5 Q386 477 371 477 Q326 477 296 509 Z " />
<glyph glyph-name="F" unicode="F" horiz-adv-x="555" d="M53 0 L142 725 L576 725 L564 624 L239 624 L212 405 L496 405 L483 303 L199 303 L162 0 L53 0 Z " />
<glyph glyph-name="L" unicode="L" horiz-adv-x="566" d="M53 0 L142 725 L252 725 L176 104 L536 104 L523 0 L53 0 Z " />
<glyph glyph-name="C" unicode="C" horiz-adv-x="636" d="M599 52 Q585 43 562.5 32.5 Q540 22 510 13 Q480 4 443.5 -2 Q407 -8 367 -8 Q289 -8 229 17.5 Q169 43 128 87.5 Q87 132 66 191 Q45 250 45 316 Q45 406 80 482 Q115 558 173.5 614 Q232 670 309 701.5 Q386 733 469 733 Q498 733 527.5 729 Q557 725 582.5 718 Q608 711 627.5 701.5 Q647 692 657 682 Q648 670 642.5 662 Q637 654 631 645.5 Q625 637 617.5 626 Q610 615 598 597 Q586 606 569 612 Q552 618 533.5 622 Q515 626 496 628 Q477 630 461 630 Q399 630 343.5 606 Q288 582 246.5 542 Q205 502 180.5 449.5 Q156 397 156 340 Q156 294 172.5 251 Q189 208 219 175 Q249 142 292 122.5 Q335 103 389 103 Q420 103 450 109 Q480 115 504 123 Q528 131 544.5 139 Q561 147 565 151 L599 52 Z " />
<glyph glyph-name="Q" unicode="Q" horiz-adv-x="821" d="M44 325 Q44 407 78.5 481 Q113 555 170.5 611 Q228 667 303.5 700 Q379 733 461 733 Q531 733 591.5 706.5 Q652 680 696 634 Q740 588 765 527.5 Q790 467 790 398 Q790 311 753.5 235.5 Q717 160 653 95 L779 104 L766 0 L449 0 Q429 -4 409.5 -6 Q390 -8 370 -8 Q299 -8 239.5 18 Q180 44 136.5 89 Q93 134 68.5 195 Q44 256 44 325 Z M153 334 Q153 284 170.5 240.5 Q188 197 219 164.5 Q250 132 292.5 113.5 Q335 95 386 95 Q444 95 497.5 118.5 Q551 142 591.5 182 Q632 222 656.5 275.5 Q681 329 681 389 Q681 439 663.5 482.5 Q646 526 615 558.5 Q584 591 541.5 609.5 Q499 628 449 628 Q390 628 336.5 604.5 Q283 581 242.5 541 Q202 501 177.5 447.5 Q153 394 153 334 Z " />
<glyph glyph-name="T" unicode="T" horiz-adv-x="548" d="M563 725 L550 621 L367 621 L291 0 L182 0 L258 621 L79 621 L92 725 L563 725 Z " />
<glyph glyph-name="guilsinglleft" unicode="&#x2039;" horiz-adv-x="280" d="M183 50 L34 242 Q39 246 54 261 Q69 276 89 295.5 Q109 315 132 338 Q155 361 175.5 380.5 Q196 400 211 415 Q226 430 231 434 L218 329 Q212 324 200.5 311.5 Q189 299 177 285.5 Q165 272 153.5 260 Q142 248 136 242 Q140 237 148.5 224.5 Q157 212 166 198.5 Q175 185 183 172.5 Q191 160 196 155 L183 50 Z " />
<glyph glyph-name="greater" unicode="&#x3e;" horiz-adv-x="555" d="M44 -14 L59 111 L301 241 L91 372 L107 497 L518 241 L44 -14 Z " />
<glyph glyph-name="less" unicode="&#x3c;" horiz-adv-x="553" d="M453 111 L438 -14 L26 241 L500 497 L485 372 L243 241 L453 111 Z " />
<glyph glyph-name="equal" unicode="&#x3d;" horiz-adv-x="634" d="M563 199 L552 109 L39 109 L50 199 L563 199 Z M587 396 L576 306 L63 306 L74 396 L587 396 Z " />
<glyph glyph-name="at" unicode="&#x40;" horiz-adv-x="946" d="M223 184 Q223 233 243.5 277.5 Q264 322 298.5 355.5 Q333 389 378 409 Q423 429 471 429 Q501 429 525 421.5 Q549 414 565.5 403 Q582 392 591.5 380 Q601 368 604 359 L615 418 L697 418 L656 80 L686 80 Q701 80 722.5 90 Q744 100 763 123 Q782 146 795.5 183.5 Q809 221 809 277 Q809 330 791 379.5 Q773 429 737 467 Q701 505 646 528 Q591 551 517 551 Q415 551 338.5 514.5 Q262 478 211 421.5 Q160 365 135 297.5 Q110 230 110 168 Q110 104 133 47.5 Q156 -9 197 -51 Q238 -93 294.5 -117 Q351 -141 418 -141 Q476 -141 532 -123 Q588 -105 637 -73 L680 -132 Q621 -177 546.5 -198.5 Q472 -220 403 -220 Q322 -220 253.5 -190 Q185 -160 134.5 -108.5 Q84 -57 55.5 13 Q27 83 27 163 Q27 247 61.5 331 Q96 415 161 482 Q226 549 319 590.5 Q412 632 530 632 Q621 632 689.5 603 Q758 574 803.5 526 Q849 478 871.5 415.5 Q894 353 894 286 Q894 220 876.5 167 Q859 114 829 77 Q799 40 759.5 20 Q720 0 676 0 L560 0 L567 53 Q561 45 548.5 34 Q536 23 517.5 13.5 Q499 4 474 -3 Q449 -10 418 -10 Q374 -10 338 5.5 Q302 21 276.5 47.5 Q251 74 237 109.5 Q223 145 223 184 Z M310 195 Q310 143 343 108.5 Q376 74 431 74 Q464 74 492.5 86 Q521 98 542 118.5 Q563 139 575 166.5 Q587 194 587 225 Q587 277 554 311 Q521 345 464 345 Q432 345 404 333.5 Q376 322 355 301.5 Q334 281 322 253.5 Q310 226 310 195 Z " />
<glyph glyph-name="question" unicode="&#x3f;" horiz-adv-x="476" d="M146 555 L70 585 Q79 606 95 633.5 Q111 661 137 685 Q163 709 201 725.5 Q239 742 293 742 Q332 742 364.5 728 Q397 714 420.5 690 Q444 666 457 634 Q470 602 470 565 Q470 501 437.5 454 Q405 407 348 369 Q333 359 315.5 348 Q298 337 282 323 Q266 309 253.5 290 Q241 271 238 245 L228 166 L137 166 L149 264 Q153 297 165.5 317.5 Q178 338 196.5 353.5 Q215 369 238 382.5 Q261 396 286 414 Q332 447 353.5 482 Q375 517 375 558 Q375 599 350.5 626 Q326 653 282 653 Q254 653 233.5 647 Q213 641 197 628.5 Q181 616 168.5 597.5 Q156 579 146 555 Z M161 -2 Q141 -2 126 11.5 Q111 25 111 47 Q111 60 117 72 Q123 84 132 92 Q141 100 152.5 105 Q164 110 175 110 Q194 110 208.5 96 Q223 82 223 59 Q223 32 203 15 Q183 -2 161 -2 Z " />
<glyph glyph-name="exclam" unicode="&#x21;" horiz-adv-x="266" d="M145 760 L237 760 L164 168 L72 168 L145 760 Z M97 -4 Q76 -4 60.5 12 Q45 28 48 53 Q51 78 70.5 94 Q90 110 111 110 Q132 110 147 94 Q162 78 159 53 Q156 28 137 12 Q118 -4 97 -4 Z " />
<glyph glyph-name="two" unicode="2" horiz-adv-x="543" d="M249 89 L483 89 L472 0 L18 0 Q91 66 159.5 127 Q228 188 281 245.5 Q334 303 366 356.5 Q398 410 398 460 Q398 490 388 512.5 Q378 535 362.5 549.5 Q347 564 328.5 571 Q310 578 294 578 Q254 578 227.5 563 Q201 548 185 527 Q169 506 162 482.5 Q155 459 155 442 Q155 415 162.5 393.5 Q170 372 183 356 L122 299 Q107 309 96 325.5 Q85 342 77.5 362 Q70 382 66.5 403.5 Q63 425 63 443 Q63 485 79.5 525 Q96 565 127.5 596.5 Q159 628 203.5 647.5 Q248 667 305 667 Q349 667 384 652 Q419 637 443 611 Q467 585 480 550.5 Q493 516 493 477 Q493 425 473 376 Q453 327 419.5 279.5 Q386 232 341.5 184.5 Q297 137 249 89 Z " />
<glyph glyph-name="one" unicode="1" horiz-adv-x="302" d="M81 570 L92 659 L249 659 L168 0 L75 0 L145 570 L81 570 Z " />
<glyph glyph-name="three" unicode="3" horiz-adv-x="465" d="M129 327 Q170 387 218 447.5 Q266 508 306 569 L103 569 L114 659 L463 659 Q420 599 375 539 Q330 479 288 419 Q342 395 374.5 347 Q407 299 407 236 Q407 186 386 141.5 Q365 97 330 64 Q295 31 249.5 11.5 Q204 -8 155 -8 Q106 -8 66.5 12 Q27 32 0 64 L75 127 Q90 105 113 93 Q136 81 165 81 Q194 81 221 92.5 Q248 104 268.5 124 Q289 144 301.5 170.5 Q314 197 314 226 Q314 250 305 271.5 Q296 293 280.5 309 Q265 325 243.5 334 Q222 343 197 343 Q161 343 129 327 Z " />
<glyph glyph-name="four" unicode="4" horiz-adv-x="528" d="M-12 170 Q96 291 214.5 418.5 Q333 546 442 667 L392 259 L490 259 L479 170 L381 170 L360 0 L267 0 L288 170 L-12 170 Z M318 418 L177 259 L299 259 L318 418 Z " />
<glyph glyph-name="five" unicode="5" horiz-adv-x="455" d="M81 305 L124 659 L415 659 L404 570 L192 570 L175 426 Q183 429 190 431 Q197 433 208 433 Q254 433 291 417.5 Q328 402 354 376 Q380 350 393.5 315 Q407 280 407 240 Q407 188 385.5 143 Q364 98 329 64.5 Q294 31 248 11.5 Q202 -8 153 -8 Q108 -8 71 8.5 Q34 25 8 54 Q27 70 46 85 Q65 100 83 116 Q97 100 118 90.5 Q139 81 165 81 Q193 81 220 92.5 Q247 104 268 124 Q289 144 301.5 170.5 Q314 197 314 226 Q314 250 305 271.5 Q296 293 280 309 Q264 325 243 334.5 Q222 344 197 344 Q170 344 139.5 337 Q109 330 81 305 Z " />
<glyph glyph-name="six" unicode="6" horiz-adv-x="530" d="M127 199 Q127 175 135.5 153.5 Q144 132 159 116 Q174 100 194.5 90.5 Q215 81 239 81 Q268 81 295 92.5 Q322 104 342.5 124 Q363 144 375.5 170.5 Q388 197 388 226 Q388 251 379 272.5 Q370 294 354 310 Q338 326 317 335 Q296 344 271 344 Q243 344 217 332.5 Q191 321 171 301.5 Q151 282 139 255.5 Q127 229 127 199 Z M32 187 Q32 244 51.5 294 Q71 344 103 388 Q135 432 175.5 469.5 Q216 507 258.5 539 Q301 571 342 598 Q383 625 415 646 Q427 629 440 611 Q453 593 464 576 Q432 556 396 533 Q360 510 326.5 487 Q293 464 266.5 443 Q240 422 227 408 Q238 419 252 426 Q266 433 282 433 Q324 433 360.5 417.5 Q397 402 423.5 375.5 Q450 349 465.5 313 Q481 277 481 235 Q481 185 460 141 Q439 97 403.5 64 Q368 31 322.5 11.5 Q277 -8 229 -8 Q194 -8 159 4 Q124 16 95.5 40 Q67 64 49.5 100.5 Q32 137 32 187 Z " />
<glyph glyph-name="seven" unicode="7" horiz-adv-x="457" d="M63 569 L74 659 L494 659 Q449 573 406 490 Q363 407 320.5 325.5 Q278 244 236 163 Q194 82 152 0 L48 0 Q115 131 190 277.5 Q265 424 340 569 L63 569 Z " />
<glyph glyph-name="eight" unicode="8" horiz-adv-x="529" d="M217 497 Q217 470 237.5 451.5 Q258 433 285 433 Q300 433 315 439 Q330 445 341.5 455.5 Q353 466 360 480 Q367 494 367 510 Q367 538 348.5 558 Q330 578 303 578 Q287 578 271.5 571 Q256 564 244 553 Q232 542 224.5 527.5 Q217 513 217 497 Z M126 199 Q126 175 134.5 153.5 Q143 132 158 116 Q173 100 193.5 90.5 Q214 81 238 81 Q267 81 294 92.5 Q321 104 342 124 Q363 144 375.5 170.5 Q388 197 388 226 Q388 250 379.5 271.5 Q371 293 356 309 Q341 325 320 334.5 Q299 344 275 344 Q246 345 219.5 333.5 Q193 322 172 302.5 Q151 283 138.5 256 Q126 229 126 199 Z M31 186 Q31 227 42.5 261 Q54 295 73 321.5 Q92 348 117 367 Q142 386 168 397 Q145 414 136 438 Q127 462 127 485 Q127 523 142 556 Q157 589 182.5 614 Q208 639 241 653 Q274 667 311 667 Q342 667 368.5 656 Q395 645 414 625 Q433 605 444 577.5 Q455 550 455 518 Q455 484 440 452.5 Q425 421 388 397 Q426 378 453 337 Q480 296 480 234 Q480 186 461 142.5 Q442 99 408 65.5 Q374 32 328 12 Q282 -8 227 -8 Q180 -8 144 7.5 Q108 23 82.5 50 Q57 77 44 112 Q31 147 31 186 Z " />
<glyph glyph-name="colon" unicode="&#x3a;" horiz-adv-x="221" d="M60 325 Q60 338 66 349.5 Q72 361 81 369.5 Q90 378 101.5 383 Q113 388 124 388 Q143 388 157.5 373.5 Q172 359 172 336 Q172 309 152 291.5 Q132 274 110 274 Q90 274 75 288 Q60 302 60 325 Z M26 50 Q26 63 32 74.5 Q38 86 47 94.5 Q56 103 67.5 108 Q79 113 90 113 Q109 113 123.5 98.5 Q138 84 138 61 Q138 34 118 17 Q98 0 76 0 Q56 0 41 13.5 Q26 27 26 50 Z " />
<glyph glyph-name="semicolon" unicode="&#x3b;" horiz-adv-x="253" d="M150 87 L37 -121 L-46 -121 Q-20 -69 6 -17.5 Q32 34 59 87 L150 87 Z M84 304 Q84 317 90 328.5 Q96 340 105 348.5 Q114 357 125 362 Q136 367 147 367 Q167 367 181 352.5 Q195 338 195 316 Q195 288 175.5 270.5 Q156 253 133 253 Q114 253 99 267 Q84 281 84 304 Z " />
<glyph glyph-name="quotedbl" unicode="&#x22;" horiz-adv-x="348" d="M220 478 L251 730 L342 730 L307 478 L220 478 Z M85 478 L116 730 L206 730 L171 478 L85 478 Z " />
<glyph glyph-name="numbersign" unicode="&#x23;" horiz-adv-x="582" d="M260 0 L305 186 L211 186 L166 0 L73 0 L118 186 L28 186 Q33 209 39 231 Q45 253 50 276 L140 276 L164 373 L74 373 L94 462 L185 462 Q197 510 208 557 Q219 604 232 652 L324 652 L277 462 L371 462 L418 652 L511 652 L464 462 L563 462 Q558 439 553.5 417 Q549 395 544 373 L443 373 L419 276 L519 276 Q514 253 508.5 231 Q503 209 498 186 L397 186 Q386 139 375 93 Q364 47 353 0 L260 0 Z M256 373 Q251 348 245 324 Q239 300 233 276 L327 276 L350 373 L256 373 Z " />
<glyph glyph-name="percent" unicode="&#x25;" horiz-adv-x="719" d="M489 108 Q489 92 497.5 81.5 Q506 71 523 71 Q544 71 556 84.5 Q568 98 568 118 Q568 133 559 143 Q550 153 533 153 Q513 153 501 140 Q489 127 489 108 Z M512 -18 Q487 -18 465.5 -9 Q444 0 428.5 15.5 Q413 31 404 52.5 Q395 74 395 99 Q395 128 407.5 154 Q420 180 440.5 199.5 Q461 219 488 230.5 Q515 242 544 242 Q569 242 590 233 Q611 224 627 208 Q643 192 652 170.5 Q661 149 661 125 Q661 95 648.5 69 Q636 43 615 23.5 Q594 4 567 -7 Q540 -18 512 -18 Z M144 389 Q144 374 153.5 363.5 Q163 353 180 353 Q200 353 212 366.5 Q224 380 224 399 Q224 415 215.5 425 Q207 435 190 435 Q169 435 156.5 422 Q144 409 144 389 Z M169 264 Q144 264 122.5 273 Q101 282 85.5 298 Q70 314 61 335.5 Q52 357 52 382 Q52 411 64.5 436.5 Q77 462 97.5 481.5 Q118 501 145 512.5 Q172 524 201 524 Q226 524 247 515 Q268 506 283.5 490 Q299 474 308 453 Q317 432 317 408 Q317 378 304.5 352 Q292 326 271.5 306.5 Q251 287 224 275.5 Q197 264 169 264 Z M122 0 Q214 128 305 253.5 Q396 379 487 507 L588 507 Q497 379 405.5 253.5 Q314 128 223 0 L122 0 Z " />
<glyph glyph-name="quoteright" unicode="&#x2019;" horiz-adv-x="179" d="M120 573 L78 598 Q103 618 116 648.5 Q129 679 127 714 L184 721 Q187 679 169.5 640.5 Q152 602 120 573 Z " />
<glyph glyph-name="parenleft" unicode="&#x28;" horiz-adv-x="293" d="M32 221 Q32 310 52.5 390.5 Q73 471 105.5 539 Q138 607 179 662 Q220 717 261 756 Q281 750 301 744.5 Q321 739 340 733 Q302 695 263.5 642.5 Q225 590 194 525.5 Q163 461 144 385 Q125 309 125 224 Q125 165 134 111 Q143 57 157.5 10 Q172 -37 191.5 -76 Q211 -115 232 -143 Q212 -150 190 -155.5 Q168 -161 147 -167 Q124 -138 103 -97.5 Q82 -57 66.5 -7 Q51 43 41.5 100.5 Q32 158 32 221 Z " />
<glyph glyph-name="parenright" unicode="&#x29;" horiz-adv-x="295" d="M265 366 Q265 276 244.5 195.5 Q224 115 191.5 47 Q159 -21 117.5 -76 Q76 -131 34 -170 Q15 -165 -4.5 -159.5 Q-24 -154 -44 -148 Q-6 -110 32.5 -58 Q71 -6 101.5 58.5 Q132 123 151.5 198.5 Q171 274 171 360 Q171 419 162 473 Q153 527 138 574 Q123 621 103.5 660 Q84 699 63 727 Q84 733 106 740 Q128 747 148 753 Q172 724 193 683.5 Q214 643 230 593 Q246 543 255.5 485.5 Q265 428 265 366 Z " />
<glyph glyph-name="asterisk" unicode="&#x2a;" horiz-adv-x="375" d="M283 575 Q300 564 318 553 Q336 542 355 531 Q345 517 335.5 503 Q326 489 316 475 L245 521 Q242 499 238.5 477.5 Q235 456 233 434 L173 434 L184 521 Q164 510 143 499.5 Q122 489 102 478 L77 533 L159 576 L89 622 Q98 635 107 647.5 Q116 660 124 674 L197 628 L208 720 L272 720 Q269 697 265.5 674 Q262 651 260 628 L344 673 L368 621 Q346 610 325 598 Q304 586 283 575 Z " />
<glyph glyph-name="plus" unicode="&#x2b;" horiz-adv-x="445" d="M147 52 L164 189 L28 189 L39 278 L175 278 L192 417 L285 417 L268 278 L404 278 L393 189 L257 189 L240 52 L147 52 Z " />
<glyph glyph-name="nine" unicode="9" horiz-adv-x="529" d="M506 451 Q506 394 486.5 344 Q467 294 435 250 Q403 206 362 168.5 Q321 131 278.5 99 Q236 67 195 40.5 Q154 14 122 -8 L73 62 Q104 81 140.5 104.5 Q177 128 210.5 151 Q244 174 271 195 Q298 216 310 230 Q299 219 285 212 Q271 205 255 205 Q213 205 177 220.5 Q141 236 114 262.5 Q87 289 72 325 Q57 361 57 402 Q57 452 78 496.5 Q99 541 134 574 Q169 607 214.5 626.5 Q260 646 308 646 Q343 646 378 634 Q413 622 441.5 598 Q470 574 488 537.5 Q506 501 506 451 Z M410 439 Q410 463 401.5 484.5 Q393 506 378 522 Q363 538 342.5 547.5 Q322 557 298 557 Q269 557 242 545.5 Q215 534 194.5 514 Q174 494 161.5 467.5 Q149 441 149 412 Q149 387 158 365.5 Q167 344 182.5 328 Q198 312 219.5 303 Q241 294 266 294 Q294 294 320 305.5 Q346 317 366 336.5 Q386 356 398 382.5 Q410 409 410 439 Z " />
<glyph glyph-name="bar" unicode="&#x7c;" horiz-adv-x="263" d="M21 -236 L137 710 L230 710 L114 -236 L21 -236 Z " />
<glyph glyph-name="braceleft" unicode="&#x7b;" horiz-adv-x="325" d="M22 256 L33 345 Q58 346 75 359.5 Q92 373 103.5 393.5 Q115 414 121 437.5 Q127 461 130 482 L149 637 Q155 684 168 708.5 Q181 733 199 743.5 Q217 754 239.5 755 Q262 756 287 756 L354 756 L343 667 L300 667 Q284 667 273 663.5 Q262 660 254.5 648.5 Q247 637 242 617 Q237 597 233 564 L217 435 Q213 406 204 384 Q195 362 183 346 Q171 330 158.5 319 Q146 308 136 302 Q145 296 155 285 Q165 274 172.5 258 Q180 242 184 220 Q188 198 185 170 L169 42 Q165 9 165 -11.5 Q165 -32 169.5 -43 Q174 -54 184 -58 Q194 -62 210 -62 L253 -62 L242 -152 L175 -152 Q151 -152 129 -151 Q107 -150 91.5 -139.5 Q76 -129 68.5 -105 Q61 -81 67 -35 L86 119 Q89 140 88.5 163.5 Q88 187 81 207 Q74 227 60 241 Q46 255 22 256 Z " />
<glyph glyph-name="braceright" unicode="&#x7d;" horiz-adv-x="325" d="M336 345 L325 256 Q301 255 284 242 Q267 229 256 209.5 Q245 190 238.5 167 Q232 144 229 123 L210 -31 Q204 -78 191 -103 Q178 -128 160 -139 Q142 -150 119.5 -151 Q97 -152 72 -152 L5 -152 L16 -62 L59 -62 Q75 -62 85.5 -58 Q96 -54 103.5 -43 Q111 -32 116 -11.5 Q121 9 125 42 L140 166 Q144 196 153.5 219 Q163 242 175 258.5 Q187 275 200 285.5 Q213 296 223 302 Q214 308 204 319 Q194 330 185.5 346 Q177 362 173 384 Q169 406 173 435 L189 564 Q193 597 193 617 Q193 637 188.5 648.5 Q184 660 174.5 663.5 Q165 667 149 667 L106 667 L116 756 L183 756 Q207 756 229.5 755.5 Q252 755 268 744.5 Q284 734 291 709.5 Q298 685 292 637 L272 478 Q269 457 270 433.5 Q271 410 277.5 390.5 Q284 371 298 358 Q312 345 336 345 Z " />
<glyph glyph-name="zero" unicode="0" horiz-adv-x="636" d="M52 333 Q62 412 91 474.5 Q120 537 162 580 Q204 623 256.5 645 Q309 667 367 667 Q428 667 475 642 Q522 617 552 572.5 Q582 528 593.5 465.5 Q605 403 595 327 Q584 248 555.5 186 Q527 124 485 80.5 Q443 37 390.5 14.5 Q338 -8 280 -8 Q224 -8 177.5 15 Q131 38 100 81.5 Q69 125 55.5 188 Q42 251 52 333 Z M144 330 Q137 279 145 234 Q153 189 173.5 155 Q194 121 224 101 Q254 81 291 81 Q328 81 363.5 100 Q399 119 428 153 Q457 187 477 232.5 Q497 278 503 329 Q508 366 504.5 409.5 Q501 453 484.5 490.5 Q468 528 437 553 Q406 578 356 578 Q304 578 266 552 Q228 526 202.5 487.5 Q177 449 162.5 406 Q148 363 144 330 Z " />
<glyph glyph-name="hyphen" unicode="&#x2d;" horiz-adv-x="295" d="M40 173 L51 262 L237 262 L226 173 L40 173 Z " />
<glyph glyph-name="slash" unicode="&#x2f;" horiz-adv-x="440" d="M-5 -19 L371 746 L464 746 Q369 554 275.5 363.5 Q182 173 87 -19 L-5 -19 Z " />
<glyph glyph-name="backslash" unicode="&#x5c;" horiz-adv-x="447" d="M191 746 Q239 554 285 363.5 Q331 173 379 -19 L275 -19 L87 746 L191 746 Z " />
<glyph glyph-name="G" unicode="G" horiz-adv-x="684" d="M638 347 L601 43 Q556 19 496 5.5 Q436 -8 376 -8 Q298 -8 236.5 15.5 Q175 39 132 81 Q89 123 66.5 181 Q44 239 44 307 Q44 369 60.5 424.5 Q77 480 106.5 527.5 Q136 575 176.5 613 Q217 651 265 677.5 Q313 704 366 718.5 Q419 733 474 733 Q500 733 527.5 729.5 Q555 726 581.5 719.5 Q608 713 632.5 703 Q657 693 676 681 L612 592 Q584 609 541 619.5 Q498 630 460 630 Q403 630 348 606.5 Q293 583 250 542 Q207 501 181 446.5 Q155 392 155 329 Q155 281 171.5 238.5 Q188 196 218.5 164 Q249 132 293 113.5 Q337 95 391 95 Q414 95 446.5 99.5 Q479 104 509 115 L525 253 L384 253 L396 347 L638 347 Z " />
<glyph glyph-name="V" unicode="V" horiz-adv-x="647" d="M163 725 Q168 708 179.5 669.5 Q191 631 205 582 Q219 533 235 478 Q251 423 265 374 Q279 325 290 286.5 Q301 248 306 231 Q307 229 309.5 217 Q312 205 313 196 L327 231 Q336 248 357 286.5 Q378 325 404 374 Q430 423 459.5 478 Q489 533 515 582 Q541 631 562 669.5 Q583 708 592 725 L700 725 Q692 711 672 674.5 Q652 638 623.5 586 Q595 534 561 472 Q527 410 492 346 Q457 282 423 220 Q389 158 360.5 106 Q332 54 312 17.5 Q292 -19 285 -33 L55 725 L163 725 Z " />
<glyph glyph-name="S" unicode="S" horiz-adv-x="566" d="M553 685 L504 596 Q465 611 425.5 620 Q386 629 349 629 Q316 629 288 621.5 Q260 614 240.5 600.5 Q221 587 210 569 Q199 551 199 530 Q199 499 223 480 Q247 461 283 445.5 Q319 430 360.5 414 Q402 398 438 374.5 Q474 351 498 315.5 Q522 280 522 226 Q522 174 502.5 131 Q483 88 445 57 Q407 26 350 9 Q293 -8 218 -8 Q174 -8 139.5 -2 Q105 4 78 13.5 Q51 23 30.5 34 Q10 45 -4 54 L56 149 Q93 126 140 112 Q187 98 227 98 Q248 98 280 103.5 Q312 109 341.5 122.5 Q371 136 392 158.5 Q413 181 413 216 Q413 250 389 272.5 Q365 295 329 312.5 Q293 330 251 346 Q209 362 173 383.5 Q137 405 113 435.5 Q89 466 89 513 Q89 552 106.5 590.5 Q124 629 157.5 660 Q191 691 240 710 Q289 729 353 729 Q389 729 422.5 723 Q456 717 483.5 709.5 Q511 702 529.5 695 Q548 688 553 685 Z " />
<glyph glyph-name="Z" unicode="Z" horiz-adv-x="634" d="M229 725 L658 725 L170 105 L591 105 L578 0 L-33 0 Q-18 18 20.5 67.5 Q59 117 109.5 182.5 Q160 248 216.5 321.5 Q273 395 323.5 460 Q374 525 412.5 574 Q451 623 466 640 L176 640 Q160 640 145 644.5 Q130 649 118.5 657 Q107 665 101 677 Q95 689 97 704 L104 762 L203 762 L201 748 Q199 730 205.5 727.5 Q212 725 229 725 Z " />
<glyph glyph-name="W" unicode="W" horiz-adv-x="947" d="M994 722 Q946 627 892.5 522.5 Q839 418 787.5 317 Q736 216 690 125 Q644 34 611 -32 L499 373 Q497 381 496 385 Q495 389 493 397 Q491 387 489 382 Q487 378 485 374 Q441 296 400 221 Q382 189 363 155 Q344 121 325 87.5 Q306 54 289 23 Q272 -8 258 -33 Q209 156 159.5 344 Q110 532 61 722 L184 722 Q200 656 217 589 Q234 522 249 460 Q264 398 276 345 Q288 292 293 255 L296 220 Q298 225 303.5 236.5 Q309 248 311 253 Q313 257 320.5 271 Q328 285 338.5 304.5 Q349 324 362 347 Q375 370 388 394 Q419 449 456 516 Q446 563 437 604 Q433 621 429.5 639 Q426 657 422.5 673 Q419 689 416.5 701.5 Q414 714 413 722 L518 722 Q548 609 573 513 Q583 472 593.5 431 Q604 390 613 355 Q622 320 628.5 293.5 Q635 267 638 255 Q640 246 640.5 237.5 Q641 229 641 220 Q645 229 648 238 Q651 247 653 255 Q666 294 691.5 348 Q717 402 748.5 464 Q780 526 814 592.5 Q848 659 880 722 L994 722 Z " />
<glyph glyph-name="X" unicode="X" horiz-adv-x="629" d="M254 371 L70 725 L204 725 Q208 717 217.5 698 Q227 679 239 654.5 Q251 630 264.5 602.5 Q278 575 290 550.5 Q302 526 311.5 507 Q321 488 325 480 Q326 478 330.5 466.5 Q335 455 337 446 Q341 455 348.5 466.5 Q356 478 357 480 Q363 488 376.5 507 Q390 526 408 550.5 Q426 575 445 602.5 Q464 630 482 654.5 Q500 679 513.5 698 Q527 717 533 725 L667 725 Q660 716 639.5 688.5 Q619 661 591 624 Q563 587 532 545 Q501 503 473 466 Q445 429 424 401.5 Q403 374 397 365 L588 0 L452 0 L333 238 Q331 241 328 247 Q325 253 322 260.5 Q319 268 315.5 275 Q312 282 311 286 Q307 277 301 267 Q295 257 294 256 Q284 243 257.5 206.5 Q231 170 200.5 128 Q170 86 143.5 49.5 Q117 13 107 0 L-29 0 L254 371 Z " />
<glyph glyph-name="AE" unicode="&#xc6;" horiz-adv-x="725" d="M276 0 L302 208 L188 208 L76 0 L-32 0 L365 725 L730 725 L718 626 L455 626 L429 414 L652 414 L639 313 L416 313 L390 101 L667 101 L655 0 L276 0 Z M233 293 L312 293 L336 485 L233 293 Z " />
<glyph glyph-name="Ntilde" unicode="&#xd1;" horiz-adv-x="811" d="M777 725 L684 -33 Q672 -15 637 25 Q602 65 556 116.5 Q510 168 458.5 225.5 Q407 283 361 334.5 Q315 386 281 426 Q247 466 237 484 L222 510 L221 478 L162 0 L52 0 L145 759 Q157 741 192 701 Q227 661 273 610 Q319 559 370.5 503 Q422 447 467.5 396.5 Q513 346 547.5 306.5 Q582 267 594 250 L609 222 L610 256 L668 725 L777 725 Z M456 789 Q442 804 431.5 809.5 Q421 815 407 815 Q393 815 374 806 Q355 797 348 769 L300 772 Q304 793 315 810 Q326 827 340.5 839 Q355 851 372 857.5 Q389 864 405 864 Q429 864 447 855 Q465 846 479 830 Q493 815 504 810 Q515 805 529 805 Q536 805 544.5 807 Q553 809 561.5 814 Q570 819 577 828 Q584 837 587 851 L635 848 Q631 827 620 810.5 Q609 794 594.5 782 Q580 770 563 763.5 Q546 757 531 757 Q486 757 456 789 Z " />
<glyph glyph-name="Aring" unicode="&#xc5;" horiz-adv-x="647" d="M503 0 Q500 11 493.5 32 Q487 53 479 80.5 Q471 108 461.5 140.5 Q452 173 442 208 L186 208 L74 0 L-34 0 L382 759 Q386 745 397 708 Q408 671 423.5 619.5 Q439 568 458 505.5 Q477 443 496.5 379 Q516 315 534.5 253 Q553 191 569 139 Q585 87 596 50.5 Q607 14 611 0 L503 0 Z M308 841 Q308 860 316 876.5 Q324 893 337.5 906 Q351 919 368.5 926.5 Q386 934 405 934 Q437 934 458 911.5 Q479 889 479 857 Q479 838 471 821 Q463 804 449.5 791.5 Q436 779 419 771.5 Q402 764 384 764 Q351 764 329.5 786.5 Q308 809 308 841 Z M235 300 L416 300 Q407 333 398 363.5 Q389 394 381.5 419.5 Q374 445 368.5 464 Q363 483 360 494 Q359 496 357 508 Q355 520 354 530 Q350 520 345 508 Q340 496 339 494 L235 300 Z M359 844 Q359 831 367.5 822.5 Q376 814 390 814 Q405 814 417 825 Q429 836 429 852 Q429 866 420.5 875 Q412 884 399 884 Q382 884 370.5 872.5 Q359 861 359 844 Z " />
<glyph glyph-name="Aacute" unicode="&#xc1;" horiz-adv-x="647" d="M611 0 Q607 14 596 50.5 Q585 87 569 139 Q553 191 534.5 253 Q516 315 496.5 379 Q477 443 458 505.5 Q439 568 423.5 619.5 Q408 671 397 708 Q386 745 382 759 L-34 0 L74 0 L186 208 L442 208 Q452 173 461.5 140.5 Q471 108 479 80.5 Q487 53 493.5 32 Q500 11 503 0 L611 0 Z M339 494 Q340 496 345 508 Q350 520 354 530 Q355 520 357 508 Q359 496 360 494 Q363 483 368.5 464 Q374 445 381.5 419.5 Q389 394 398 363.5 Q407 333 416 300 L235 300 L339 494 Z M336 767 Q364 800 390.5 834 Q417 868 445 901 L537 901 L401 767 L336 767 Z " />
<glyph glyph-name="Eacute" unicode="&#xc9;" horiz-adv-x="614" d="M53 0 L142 725 L618 725 L606 626 L240 626 L214 414 L540 414 L527 313 L201 313 L175 101 L555 101 L543 0 L53 0 Z M333 767 Q361 800 387.5 834 Q414 868 442 901 L534 901 L398 767 L333 767 Z " />
<glyph glyph-name="Iacute" unicode="&#xcd;" horiz-adv-x="285" d="M142 725 L251 725 L162 0 L53 0 L142 725 Z M153 767 Q181 800 207.5 834 Q234 868 262 901 L354 901 L218 767 L153 767 Z " />
<glyph glyph-name="Oacute" unicode="&#xd3;" horiz-adv-x="816" d="M45 325 Q45 407 79.5 481 Q114 555 172 611 Q230 667 305.5 700 Q381 733 463 733 Q533 733 593.5 706.5 Q654 680 697.5 634 Q741 588 766 527.5 Q791 467 791 398 Q791 315 756 241.5 Q721 168 663 112.5 Q605 57 529.5 24.5 Q454 -8 372 -8 Q301 -8 241 18 Q181 44 137.5 89 Q94 134 69.5 195 Q45 256 45 325 Z M154 334 Q154 284 171.5 240.5 Q189 197 220 164.5 Q251 132 294 113.5 Q337 95 387 95 Q445 95 498.5 118.5 Q552 142 592.5 182 Q633 222 657.5 275.5 Q682 329 682 389 Q682 439 664.5 482.5 Q647 526 616.5 558.5 Q586 591 543.5 609.5 Q501 628 451 628 Q392 628 338.5 604.5 Q285 581 244 541 Q203 501 178.5 447.5 Q154 394 154 334 Z M413 767 Q441 800 467.5 834 Q494 868 522 901 L614 901 L478 767 L413 767 Z " />
<glyph glyph-name="Uacute" unicode="&#xda;" horiz-adv-x="712" d="M319 -8 Q261 -8 213.5 11 Q166 30 133 64.5 Q100 99 84.5 147.5 Q69 196 76 256 L134 725 L243 725 L186 259 Q182 224 191 194.5 Q200 165 219.5 142.5 Q239 120 267.5 107.5 Q296 95 332 95 Q367 95 399 107.5 Q431 120 456.5 142.5 Q482 165 498.5 194.5 Q515 224 519 259 L576 725 L687 725 L629 256 Q622 196 594.5 147.5 Q567 99 525 64.5 Q483 30 430 11 Q377 -8 319 -8 Z M364 767 Q392 800 418.5 834 Q445 868 473 901 L565 901 L429 767 L364 767 Z " />
<glyph glyph-name="Adieresis" unicode="&#xc4;" horiz-adv-x="647" d="M611 0 Q607 14 596 50.5 Q585 87 569 139 Q553 191 534.5 253 Q516 315 496.5 379 Q477 443 458 505.5 Q439 568 423.5 619.5 Q408 671 397 708 Q386 745 382 759 L-34 0 L74 0 L186 208 L442 208 Q452 173 461.5 140.5 Q471 108 479 80.5 Q487 53 493.5 32 Q500 11 503 0 L611 0 Z M339 494 Q340 496 345 508 Q350 520 354 530 Q355 520 357 508 Q359 496 360 494 Q363 483 368.5 464 Q374 445 381.5 419.5 Q389 394 398 363.5 Q407 333 416 300 L235 300 L339 494 Z M238 824 Q238 837 244 849 Q250 861 259 869 Q268 877 279.5 882 Q291 887 303 887 Q321 887 336 872.5 Q351 858 351 836 Q351 809 330.5 791.5 Q310 774 289 774 Q269 774 253.5 788 Q238 802 238 824 Z M428 824 Q428 837 434 849 Q440 861 449 869 Q458 877 469.5 882 Q481 887 492 887 Q511 887 525.5 873 Q540 859 540 836 Q540 809 520 791.5 Q500 774 478 774 Q458 774 443 788 Q428 802 428 824 Z " />
<glyph glyph-name="Edieresis" unicode="&#xcb;" horiz-adv-x="614" d="M53 0 L142 725 L618 725 L606 626 L240 626 L214 414 L540 414 L527 313 L201 313 L175 101 L555 101 L543 0 L53 0 Z M445 824 Q445 837 451 849 Q457 861 466 869 Q475 877 486.5 882 Q498 887 509 887 Q528 887 542.5 873 Q557 859 557 836 Q557 809 537 791.5 Q517 774 495 774 Q475 774 460 788 Q445 802 445 824 Z M255 824 Q255 837 261 849 Q267 861 276 869 Q285 877 296.5 882 Q308 887 320 887 Q338 887 353 872.5 Q368 858 368 836 Q368 809 347.5 791.5 Q327 774 306 774 Q286 774 270.5 788 Q255 802 255 824 Z " />
<glyph glyph-name="Idieresis" unicode="&#xcf;" horiz-adv-x="285" d="M142 725 L251 725 L162 0 L53 0 L142 725 Z M250 824 Q250 837 256 849 Q262 861 271 869 Q280 877 291.5 882 Q303 887 314 887 Q333 887 347.5 873 Q362 859 362 836 Q362 809 342 791.5 Q322 774 300 774 Q280 774 265 788 Q250 802 250 824 Z M60 824 Q60 837 66 849 Q72 861 81 869 Q90 877 101.5 882 Q113 887 125 887 Q143 887 158 872.5 Q173 858 173 836 Q173 809 152.5 791.5 Q132 774 111 774 Q91 774 75.5 788 Q60 802 60 824 Z " />
<glyph glyph-name="Odieresis" unicode="&#xd6;" horiz-adv-x="815" d="M46 362 Q55 437 92.5 504.5 Q130 572 186.5 623 Q243 674 314 703.5 Q385 733 462 733 Q532 733 592.5 706.5 Q653 680 696.5 634 Q740 588 765 527.5 Q790 467 790 398 Q790 315 755 241.5 Q720 168 662 112.5 Q604 57 528.5 24.5 Q453 -8 371 -8 Q294 -8 230.5 21 Q167 50 122.5 100.5 Q78 151 57.5 218 Q37 285 46 362 Z M155 361 Q148 306 163 257.5 Q178 209 209.5 173 Q241 137 286.5 116 Q332 95 386 95 Q444 95 497.5 118.5 Q551 142 591.5 182 Q632 222 656.5 275.5 Q681 329 681 389 Q681 439 663.5 482.5 Q646 526 615.5 558.5 Q585 591 542.5 609.5 Q500 628 450 628 Q396 628 345.5 607 Q295 586 255 550 Q215 514 188.5 465 Q162 416 155 361 Z M517 824 Q517 837 523 849 Q529 861 538 869 Q547 877 558.5 882 Q570 887 581 887 Q600 887 614.5 873 Q629 859 629 836 Q629 809 609 791.5 Q589 774 567 774 Q547 774 532 788 Q517 802 517 824 Z M327 824 Q327 837 333 849 Q339 861 348 869 Q357 877 368.5 882 Q380 887 392 887 Q410 887 425 872.5 Q440 858 440 836 Q440 809 419.5 791.5 Q399 774 378 774 Q358 774 342.5 788 Q327 802 327 824 Z " />
<glyph glyph-name="Udieresis" unicode="&#xdc;" horiz-adv-x="712" d="M319 -8 Q261 -8 213.5 11 Q166 30 133 64.5 Q100 99 84.5 147.5 Q69 196 76 256 L134 725 L243 725 L186 259 Q182 224 191 194.5 Q200 165 219.5 142.5 Q239 120 267.5 107.5 Q296 95 332 95 Q367 95 399 107.5 Q431 120 456.5 142.5 Q482 165 498.5 194.5 Q515 224 519 259 L576 725 L687 725 L629 256 Q622 196 594.5 147.5 Q567 99 525 64.5 Q483 30 430 11 Q377 -8 319 -8 Z M472 824 Q472 851 492 869 Q512 887 535 887 Q554 887 568.5 873 Q583 859 583 836 Q583 809 563 791.5 Q543 774 521 774 Q501 774 486.5 788 Q472 802 472 824 Z M282 824 Q282 851 302.5 869 Q323 887 346 887 Q364 887 379 872.5 Q394 858 394 836 Q394 809 373.5 791.5 Q353 774 332 774 Q312 774 297 788 Q282 802 282 824 Z " />
<glyph glyph-name="Agrave" unicode="&#xc0;" horiz-adv-x="647" d="M611 0 Q607 14 596 50.5 Q585 87 569 139 Q553 191 534.5 253 Q516 315 496.5 379 Q477 443 458 505.5 Q439 568 423.5 619.5 Q408 671 397 708 Q386 745 382 759 L-34 0 L74 0 L186 208 L442 208 Q452 173 461.5 140.5 Q471 108 479 80.5 Q487 53 493.5 32 Q500 11 503 0 L611 0 Z M339 494 Q340 496 345 508 Q350 520 354 530 Q355 520 357 508 Q359 496 360 494 Q363 483 368.5 464 Q374 445 381.5 419.5 Q389 394 398 363.5 Q407 333 416 300 L235 300 L339 494 Z M358 901 Q377 868 395.5 834 Q414 800 432 767 L368 767 Q317 833 266 901 L358 901 Z " />
<glyph glyph-name="Egrave" unicode="&#xc8;" horiz-adv-x="614" d="M53 0 L142 725 L618 725 L606 626 L240 626 L214 414 L540 414 L527 313 L201 313 L175 101 L555 101 L543 0 L53 0 Z M387 901 Q406 868 424.5 834 Q443 800 461 767 L397 767 Q346 833 295 901 L387 901 Z " />
<glyph glyph-name="Igrave" unicode="&#xcc;" horiz-adv-x="285" d="M142 725 L251 725 L162 0 L53 0 L142 725 Z M178 901 Q197 868 215.5 834 Q234 800 252 767 L188 767 Q137 833 86 901 L178 901 Z " />
<glyph glyph-name="Ograve" unicode="&#xd2;" horiz-adv-x="815" d="M46 362 Q55 437 92.5 504.5 Q130 572 186.5 623 Q243 674 314 703.5 Q385 733 462 733 Q532 733 592.5 706.5 Q653 680 696.5 634 Q740 588 765 527.5 Q790 467 790 398 Q790 315 755 241.5 Q720 168 662 112.5 Q604 57 528.5 24.5 Q453 -8 371 -8 Q294 -8 230.5 21 Q167 50 122.5 100.5 Q78 151 57.5 218 Q37 285 46 362 Z M155 361 Q148 306 163 257.5 Q178 209 209.5 173 Q241 137 286.5 116 Q332 95 386 95 Q444 95 497.5 118.5 Q551 142 591.5 182 Q632 222 656.5 275.5 Q681 329 681 389 Q681 439 663.5 482.5 Q646 526 615.5 558.5 Q585 591 542.5 609.5 Q500 628 450 628 Q396 628 345.5 607 Q295 586 255 550 Q215 514 188.5 465 Q162 416 155 361 Z M462 901 Q481 868 499.5 834 Q518 800 536 767 L472 767 Q421 833 370 901 L462 901 Z " />
<glyph glyph-name="Ugrave" unicode="&#xd9;" horiz-adv-x="712" d="M319 -8 Q261 -8 213.5 11 Q166 30 133 64.5 Q100 99 84.5 147.5 Q69 196 76 256 L134 725 L243 725 L186 259 Q182 224 191 194.5 Q200 165 219.5 142.5 Q239 120 267.5 107.5 Q296 95 332 95 Q367 95 399 107.5 Q431 120 456.5 142.5 Q482 165 498.5 194.5 Q515 224 519 259 L576 725 L687 725 L629 256 Q622 196 594.5 147.5 Q567 99 525 64.5 Q483 30 430 11 Q377 -8 319 -8 Z M406 901 Q425 868 443.5 834 Q462 800 480 767 L416 767 Q365 833 314 901 L406 901 Z " />
<glyph glyph-name="Yacute" unicode="&#xdd;" horiz-adv-x="654" d="M376 239 L347 0 L237 0 L266 239 Q261 250 245 287 Q229 324 207.5 374.5 Q186 425 162 482 Q138 539 116.5 589.5 Q95 640 78.5 677 Q62 714 57 725 L181 725 Q186 715 195.5 692 Q205 669 218 638.5 Q231 608 245.5 571.5 Q260 535 274.5 499 Q289 463 302.5 429.5 Q316 396 326 370 L333 337 Q338 345 342 353.5 Q346 362 350 370 Q367 396 388.5 429.5 Q410 463 433.5 499 Q457 535 480 571.5 Q503 608 522.5 638.5 Q542 669 557.5 692 Q573 715 580 725 L703 725 L376 239 Z M339 767 Q367 800 393.5 834 Q420 868 448 901 L540 901 L404 767 L339 767 Z " />
<glyph glyph-name="exclamdown" unicode="&#xa1;" horiz-adv-x="263" d="M97 380 L189 380 L116 -212 L24 -212 L97 380 Z M164 552 Q185 552 200 536 Q215 520 212 495 Q209 470 190 454 Q171 438 150 438 Q129 438 113.5 454 Q98 470 101 495 Q104 520 123.5 536 Q143 552 164 552 Z " />
<glyph glyph-name="Oslash" unicode="&#xd8;" horiz-adv-x="817" d="M46 324 Q46 406 80.5 480 Q115 554 173 610.5 Q231 667 306.5 700 Q382 733 464 733 Q523 733 574.5 714.5 Q626 696 668 664 L734 732 L779 685 L715 619 Q751 576 771.5 518.5 Q792 461 792 398 Q792 315 757 241.5 Q722 168 664 112.5 Q606 57 530.5 24.5 Q455 -8 373 -8 Q313 -8 261.5 10 Q210 28 168 60 Q146 37 127 17.5 Q108 -2 94 -16 L47 30 L120 105 Q85 148 65.5 204.5 Q46 261 46 324 Z M246 140 Q275 118 311 106.5 Q347 95 388 95 Q446 95 499.5 118.5 Q553 142 594 182 Q635 222 659.5 275.5 Q684 329 684 389 Q684 431 671.5 470.5 Q659 510 636 539 Q592 494 542.5 443 Q493 392 442 340 Q391 288 341 237 Q291 186 246 140 Z M155 333 Q155 292 166.5 254 Q178 216 200 187 L590 584 Q561 605 526 616.5 Q491 628 452 628 Q393 628 339.5 604.5 Q286 581 245 541 Q204 501 179.5 447 Q155 393 155 333 Z " />
<glyph glyph-name="questiondown" unicode="&#xbf;" horiz-adv-x="476" d="M326 -16 L403 -46 Q394 -67 377.5 -94.5 Q361 -122 335 -146 Q309 -170 271 -186.5 Q233 -203 179 -203 Q140 -203 108 -189 Q76 -175 52.5 -151 Q29 -127 16 -95 Q3 -63 3 -26 Q3 38 35.5 85 Q68 132 125 170 Q140 180 157.5 191 Q175 202 191 216 Q207 230 219 249 Q231 268 234 294 L244 373 L336 373 L324 275 Q320 242 307.5 221.5 Q295 201 276.5 185.5 Q258 170 235 156.5 Q212 143 187 125 Q141 92 119.5 57 Q98 22 98 -19 Q98 -60 122.5 -87 Q147 -114 190 -114 Q245 -114 275 -89.5 Q305 -65 326 -16 Z M312 541 Q332 541 346.5 527.5 Q361 514 361 492 Q361 465 341 447 Q321 429 298 429 Q279 429 264 443 Q249 457 249 480 Q249 507 269.5 524 Q290 541 312 541 Z " />
<glyph glyph-name="Atilde" unicode="&#xc3;" horiz-adv-x="647" d="M611 0 Q607 14 596 50.5 Q585 87 569 139 Q553 191 534.5 253 Q516 315 496.5 379 Q477 443 458 505.5 Q439 568 423.5 619.5 Q408 671 397 708 Q386 745 382 759 L-34 0 L74 0 L186 208 L442 208 Q452 173 461.5 140.5 Q471 108 479 80.5 Q487 53 493.5 32 Q500 11 503 0 L611 0 Z M339 494 Q340 496 345 508 Q350 520 354 530 Q355 520 357 508 Q359 496 360 494 Q363 483 368.5 464 Q374 445 381.5 419.5 Q389 394 398 363.5 Q407 333 416 300 L235 300 L339 494 Z M378 798 Q364 813 353.5 818.5 Q343 824 329 824 Q315 824 296 815 Q277 806 271 778 L222 781 Q226 802 237 819 Q248 836 262.5 848 Q277 860 294 866.5 Q311 873 327 873 Q351 873 369 864 Q387 855 401 839 Q415 824 426 819 Q437 814 451 814 Q465 814 483.5 822.5 Q502 831 510 860 L557 857 Q553 836 542 819.5 Q531 803 516.5 791 Q502 779 485 772.5 Q468 766 453 766 Q408 766 378 798 Z " />
<glyph glyph-name="Otilde" unicode="&#xd5;" horiz-adv-x="816" d="M45 325 Q45 407 79.5 481 Q114 555 172 611 Q230 667 305.5 700 Q381 733 463 733 Q533 733 593.5 706.5 Q654 680 697.5 634 Q741 588 766 527.5 Q791 467 791 398 Q791 315 756 241.5 Q721 168 663 112.5 Q605 57 529.5 24.5 Q454 -8 372 -8 Q301 -8 241 18 Q181 44 137.5 89 Q94 134 69.5 195 Q45 256 45 325 Z M154 334 Q154 284 171.5 240.5 Q189 197 220 164.5 Q251 132 294 113.5 Q337 95 387 95 Q445 95 498.5 118.5 Q552 142 592.5 182 Q633 222 657.5 275.5 Q682 329 682 389 Q682 439 664.5 482.5 Q647 526 616.5 558.5 Q586 591 543.5 609.5 Q501 628 451 628 Q392 628 338.5 604.5 Q285 581 244 541 Q203 501 178.5 447.5 Q154 394 154 334 Z M464 823 Q450 838 439.5 843.5 Q429 849 415 849 Q401 849 382 840 Q363 831 357 803 L308 806 Q312 827 323 844 Q334 861 348.5 873 Q363 885 380 891.5 Q397 898 413 898 Q437 898 455 889 Q473 880 487 864 Q501 849 512 844 Q523 839 537 839 Q551 839 569.5 847.5 Q588 856 596 885 L643 882 Q640 861 629 844.5 Q618 828 603 816 Q588 804 571 797.5 Q554 791 539 791 Q494 791 464 823 Z " />
<glyph glyph-name="acircumflex" unicode="&#xe2;" horiz-adv-x="535" d="M18 184 Q18 233 38.5 277.5 Q59 322 93.5 355.5 Q128 389 173 409 Q218 429 266 429 Q296 429 320 421.5 Q344 414 360.5 403 Q377 392 386.5 380 Q396 368 399 359 L410 418 L492 418 L441 0 L355 0 L362 53 Q356 45 343.5 34 Q331 23 312.5 13.5 Q294 4 269 -3 Q244 -10 213 -10 Q169 -10 133 5.5 Q97 21 71.5 47.5 Q46 74 32 109.5 Q18 145 18 184 Z M105 195 Q105 143 138 108.5 Q171 74 226 74 Q259 74 287.5 86 Q316 98 337 118.5 Q358 139 370 166.5 Q382 194 382 225 Q382 277 349 311 Q316 345 259 345 Q227 345 199 333.5 Q171 322 150 301.5 Q129 281 117 253.5 Q105 226 105 195 Z M303 668 Q328 622 352.5 576.5 Q377 531 403 485 L339 485 Q335 491 328 501.5 Q321 512 313.5 523.5 Q306 535 299.5 546 Q293 557 290 563 Q285 557 275.5 546 Q266 535 256 523.5 Q246 512 237 501.5 Q228 491 224 485 L159 485 Q195 531 231.5 576.5 Q268 622 303 668 Z " />
<glyph glyph-name="ecircumflex" unicode="&#xea;" horiz-adv-x="461" d="M384 49 Q351 22 306 6 Q261 -10 216 -10 Q173 -10 137 5.5 Q101 21 74.5 47.5 Q48 74 33.5 110 Q19 146 19 187 Q19 236 39.5 280 Q60 324 94.5 357 Q129 390 174 409.5 Q219 429 267 429 Q338 429 385.5 386.5 Q433 344 447 275 Q414 264 372 248 Q330 232 285 214.5 Q240 197 195 180 Q150 163 111 149 Q125 115 154.5 94.5 Q184 74 224 74 Q251 74 279.5 84 Q308 94 328 111 L384 49 Z M342 295 Q333 320 308.5 332.5 Q284 345 257 345 Q227 345 199.5 333 Q172 321 151 301.5 Q130 282 118 257.5 Q106 233 106 208 L106 203 Q133 213 165 225.5 Q197 238 228.5 250.5 Q260 263 289.5 274.5 Q319 286 342 295 Z M271 669 Q296 623 320.5 577.5 Q345 532 371 486 L307 486 Q303 492 296 502.5 Q289 513 281.5 524.5 Q274 536 267.5 547 Q261 558 258 564 Q253 558 243.5 547 Q234 536 224 524.5 Q214 513 205 502.5 Q196 492 192 486 L127 486 Q163 532 199.5 577.5 Q236 623 271 669 Z " />
<glyph glyph-name="icircumflex" unicode="&#xee;" horiz-adv-x="203" d="M109 0 L24 0 L76 418 L161 418 L109 0 Z M150 669 Q175 623 199.5 577.5 Q224 532 250 486 L186 486 Q183 492 176 502.5 Q169 513 161.5 524.5 Q154 536 147.5 547 Q141 558 138 564 Q133 558 123.5 547 Q114 536 104 524.5 Q94 513 84.5 502.5 Q75 492 71 486 L6 486 Q42 532 78.5 577.5 Q115 623 150 669 Z " />
<glyph glyph-name="ocircumflex" unicode="&#xf4;" horiz-adv-x="503" d="M21 210 Q27 255 49 295 Q71 335 105 364.5 Q139 394 181.5 411.5 Q224 429 271 429 Q314 429 350 413.5 Q386 398 411.5 371.5 Q437 345 451 309 Q465 273 465 233 Q465 183 445.5 139 Q426 95 392 62 Q358 29 312.5 9.5 Q267 -10 216 -10 Q170 -10 131.5 6 Q93 22 66.5 51 Q40 80 27.5 120.5 Q15 161 21 210 Z M106 209 Q102 181 109.5 156.5 Q117 132 133 113.5 Q149 95 172.5 84.5 Q196 74 224 74 Q254 74 282 85.5 Q310 97 331.5 117.5 Q353 138 366 165 Q379 192 379 222 Q379 248 370 270.5 Q361 293 344.5 309.5 Q328 326 305.5 335.5 Q283 345 257 345 Q229 345 203 334.5 Q177 324 156.5 305.5 Q136 287 122.5 262 Q109 237 106 209 Z M299 669 Q324 623 348.5 577.5 Q373 532 399 486 L335 486 Q332 492 325 502.5 Q318 513 310.5 524.5 Q303 536 296 547 Q289 558 286 564 Q281 558 272 547 Q263 536 253 524.5 Q243 513 233.5 502.5 Q224 492 220 486 L155 486 Q191 532 227.5 577.5 Q264 623 299 669 Z " />
<glyph glyph-name="ucircumflex" unicode="&#xfb;" horiz-adv-x="506" d="M412 -9 L340 -9 L344 107 Q315 56 269.5 23 Q224 -10 160 -10 Q96 -10 62.5 24.5 Q29 59 34 115 L71 418 L156 418 L124 153 Q122 122 140 100 Q158 78 200 75 Q230 75 256 85.5 Q282 96 302.5 114 Q323 132 336 157 Q349 182 353 212 L378 418 L464 418 L412 -9 Z M284 669 Q309 623 333.5 577.5 Q358 532 384 486 L320 486 Q316 492 309 502.5 Q302 513 294.5 524.5 Q287 536 280.5 547 Q274 558 271 564 Q266 558 256.5 547 Q247 536 237 524.5 Q227 513 218 502.5 Q209 492 205 486 L140 486 Q176 532 212.5 577.5 Q249 623 284 669 Z " />
<glyph glyph-name="atilde" unicode="&#xe3;" horiz-adv-x="535" d="M18 184 Q18 233 38.5 277.5 Q59 322 93.5 355.5 Q128 389 173 409 Q218 429 266 429 Q296 429 320 421.5 Q344 414 360.5 403 Q377 392 386.5 380 Q396 368 399 359 L410 418 L492 418 L441 0 L355 0 L362 53 Q356 45 343.5 34 Q331 23 312.5 13.5 Q294 4 269 -3 Q244 -10 213 -10 Q169 -10 133 5.5 Q97 21 71.5 47.5 Q46 74 32 109.5 Q18 145 18 184 Z M105 195 Q105 143 138 108.5 Q171 74 226 74 Q259 74 287.5 86 Q316 98 337 118.5 Q358 139 370 166.5 Q382 194 382 225 Q382 277 349 311 Q316 345 259 345 Q227 345 199 333.5 Q171 322 150 301.5 Q129 281 117 253.5 Q105 226 105 195 Z M272 486 Q258 501 247.5 506.5 Q237 512 223 512 Q209 512 190 503 Q171 494 164 466 L116 469 Q119 490 130 507 Q141 524 156 536 Q171 548 188 554.5 Q205 561 221 561 Q245 561 263 552 Q281 543 295 527 Q309 512 320 507 Q331 502 345 502 Q352 502 360.5 504 Q369 506 377.5 511 Q386 516 393 525 Q400 534 403 548 L451 545 Q447 524 436 507.5 Q425 491 410.5 479 Q396 467 379 460.5 Q362 454 347 454 Q302 454 272 486 Z " />
<glyph glyph-name="grave" unicode="&#x60;" horiz-adv-x="203" d="M113 620 Q133 587 151 553 Q169 519 188 486 L124 486 Q98 519 72.5 553 Q47 587 21 620 L113 620 Z " />
<glyph glyph-name="asciicircum" unicode="&#x5e;" horiz-adv-x="362" d="M229 669 Q254 623 278.5 577.5 Q303 532 329 486 L265 486 Q262 492 255 502.5 Q248 513 240.5 524.5 Q233 536 226.5 547 Q220 558 217 564 Q212 558 202.5 547 Q193 536 183 524.5 Q173 513 163.5 502.5 Q154 492 150 486 L85 486 Q121 532 157.5 577.5 Q194 623 229 669 Z " />
<glyph glyph-name="otilde" unicode="&#xf5;" horiz-adv-x="503" d="M19 185 Q19 235 39.5 279.5 Q60 324 94.5 357 Q129 390 175 409.5 Q221 429 271 429 Q314 429 350 413.5 Q386 398 411.5 371.5 Q437 345 451 309 Q465 273 465 233 Q465 183 445.5 139 Q426 95 392 62 Q358 29 312.5 9.5 Q267 -10 216 -10 Q174 -10 137.5 4 Q101 18 75 44 Q49 70 34 105.5 Q19 141 19 185 Z M105 195 Q105 169 114 147 Q123 125 138.5 109 Q154 93 176 83.5 Q198 74 224 74 Q254 74 282 85.5 Q310 97 331.5 117.5 Q353 138 366 165 Q379 192 379 222 Q379 248 370 270.5 Q361 293 344.5 309.5 Q328 326 305.5 335.5 Q283 345 257 345 Q227 345 199.5 333 Q172 321 151 300.5 Q130 280 117.5 253 Q105 226 105 195 Z M277 486 Q263 501 252.5 506.5 Q242 512 228 512 Q214 512 195 503 Q176 494 169 466 L121 469 Q124 490 135 507 Q146 524 161 536 Q176 548 193 554.5 Q210 561 226 561 Q250 561 268 552 Q286 543 300 527 Q314 512 325 507 Q336 502 350 502 Q357 502 365.5 504 Q374 506 382.5 511 Q391 516 398 525 Q405 534 408 548 L456 545 Q452 524 441 507.5 Q430 491 415.5 479 Q401 467 384 460.5 Q367 454 352 454 Q307 454 277 486 Z " />
<glyph glyph-name="quotesingle" unicode="&#x27;" horiz-adv-x="214" d="M85 478 L116 730 L208 730 L173 478 L85 478 Z " />
<glyph glyph-name="underscore" unicode="&#x5f;" horiz-adv-x="517" d="M427 0 L21 0 L32 89 L438 89 L427 0 Z " />
<glyph glyph-name="bracketleft" unicode="&#x5b;" horiz-adv-x="312" d="M32 -151 L143 756 L341 756 L330 667 L224 667 L135 -62 L241 -62 L230 -151 L32 -151 Z " />
<glyph glyph-name="bracketright" unicode="&#x5d;" horiz-adv-x="312" d="M284 756 L173 -151 L-25 -151 L-14 -62 L93 -62 L182 667 L75 667 L86 756 L284 756 Z " />
<glyph glyph-name="degree" unicode="&#xb0;" horiz-adv-x="294" d="M176 520 Q197 520 213.5 534.5 Q230 549 230 572 Q230 590 218 602.5 Q206 615 188 615 Q165 615 149 599.5 Q133 584 133 562 Q133 544 145 532 Q157 520 176 520 Z M75 557 Q75 581 85 602 Q95 623 111.5 638.5 Q128 654 149.5 663 Q171 672 195 672 Q235 672 260.5 645 Q286 618 286 579 Q286 555 276.5 534.5 Q267 514 250.5 498 Q234 482 213 473 Q192 464 169 464 Q127 464 101 491 Q75 518 75 557 Z " />
<glyph glyph-name="ccedilla" unicode="&#xe7;" horiz-adv-x="414" d="M317 103 Q329 86 339.5 70.5 Q350 55 361 38 Q331 16 295 3.5 Q259 -9 220 -10 Q218 -24 221.5 -31.5 Q225 -39 231 -44.5 Q237 -50 243.5 -53.5 Q250 -57 256 -62 Q272 -75 278.5 -92 Q285 -109 285 -130 Q285 -154 277 -176.5 Q269 -199 253 -217 Q237 -235 214 -246 Q191 -257 161 -257 Q126 -257 99 -237.5 Q72 -218 63 -178 Q77 -172 90 -165.5 Q103 -159 116 -152 Q120 -168 131.5 -178.5 Q143 -189 162 -189 Q189 -189 203.5 -171 Q218 -153 218 -128 Q218 -110 208.5 -100.5 Q199 -91 187.5 -81.5 Q176 -72 167.5 -59 Q159 -46 162 -22 L164 -4 Q132 4 105 22 Q78 40 59 65 Q40 90 29.5 121.5 Q19 153 19 188 Q19 237 39.5 280.5 Q60 324 95 357 Q130 390 175 409.5 Q220 429 270 429 Q312 429 346 416 Q380 403 406 381 L343 316 Q328 330 306.5 337.5 Q285 345 259 345 Q226 345 198 333.5 Q170 322 149.5 301.5 Q129 281 117 253.5 Q105 226 105 195 Q105 144 137.5 109 Q170 74 226 74 Q252 74 275 81.5 Q298 89 317 103 Z " />
<glyph glyph-name="Ccedilla" unicode="&#xc7;" horiz-adv-x="636" d="M599 52 Q586 44 565 34 Q544 24 516.5 15.5 Q489 7 456 0.5 Q423 -6 386 -7 Q384 -22 387.5 -30.5 Q391 -39 397 -44.5 Q403 -50 410 -53.5 Q417 -57 423 -62 Q439 -75 445.5 -92 Q452 -109 452 -130 Q452 -154 444 -176.5 Q436 -199 420 -217 Q404 -235 381 -246 Q358 -257 328 -257 Q293 -257 265.5 -237.5 Q238 -218 229 -178 Q243 -172 256.5 -165.5 Q270 -159 283 -152 Q286 -168 297.5 -178.5 Q309 -189 328 -189 Q355 -189 369.5 -171 Q384 -153 384 -128 Q384 -110 374.5 -100.5 Q365 -91 353.5 -81.5 Q342 -72 334 -59 Q326 -46 329 -22 L331 -6 Q262 0 208.5 27.5 Q155 55 118.5 98 Q82 141 63.5 197 Q45 253 45 315 Q45 405 80 481.5 Q115 558 173.5 614 Q232 670 309 701.5 Q386 733 469 733 Q498 733 527.5 729 Q557 725 582.5 718 Q608 711 627.5 701.5 Q647 692 657 682 Q648 670 642.5 662 Q637 654 631 645.5 Q625 637 617.5 626 Q610 615 598 597 Q586 606 569 612 Q552 618 533.5 622 Q515 626 496 628 Q477 630 461 630 Q399 630 343.5 606 Q288 582 246.5 542 Q205 502 180.5 449.5 Q156 397 156 340 Q156 294 172.5 251 Q189 208 219 175 Q249 142 292 122.5 Q335 103 389 103 Q420 103 450 109 Q480 115 504.5 123 Q529 131 545 139 Q561 147 565 151 L599 52 Z " />
<glyph glyph-name="endash" unicode="&#x2013;" horiz-adv-x="418" d="M42 169 L53 258 L359 258 L348 169 L42 169 Z " />
<glyph glyph-name="emdash" unicode="&#x2014;" horiz-adv-x="621" d="M42 169 L53 258 L562 258 L551 169 L42 169 Z " />
<glyph glyph-name="cedilla" unicode="&#xb8;" horiz-adv-x="458" d="M184 0 L241 0 L240 -7 Q238 -22 241 -30.5 Q244 -39 250 -44.5 Q256 -50 263 -53.5 Q270 -57 276 -62 Q292 -75 298.5 -92 Q305 -109 305 -130 Q305 -154 297 -176.5 Q289 -199 273 -217 Q257 -235 234 -246 Q211 -257 181 -257 Q146 -257 118.5 -237.5 Q91 -218 83 -178 Q97 -172 110 -165.5 Q123 -159 136 -152 Q140 -168 151.5 -178.5 Q163 -189 182 -189 Q208 -189 223 -171 Q238 -153 238 -128 Q238 -110 228 -99.5 Q218 -89 207 -80.5 Q196 -72 187 -62 Q178 -52 180 -36 L184 0 Z " />
<glyph glyph-name="acute" unicode="&#xb4;" horiz-adv-x="284" d="M161 486 Q188 519 215 553 Q242 587 269 620 L361 620 L226 486 L161 486 Z " />
<glyph glyph-name="dieresis" unicode="&#xa8;" horiz-adv-x="376" d="M301 523 Q301 550 321 568 Q341 586 364 586 Q383 586 397.5 572 Q412 558 412 535 Q412 508 392 490.5 Q372 473 350 473 Q330 473 315.5 487 Q301 501 301 523 Z M111 523 Q111 550 131.5 568 Q152 586 175 586 Q193 586 208 571.5 Q223 557 223 535 Q223 508 202.5 490.5 Q182 473 161 473 Q141 473 126 487 Q111 501 111 523 Z " />
<glyph glyph-name="Eth" unicode="&#xd0;" horiz-adv-x="716" d="M36 391 L107 391 L148 725 L330 725 Q429 725 497.5 696.5 Q566 668 608 621.5 Q650 575 669 516 Q688 457 688 396 Q688 305 653.5 232 Q619 159 562 107.5 Q505 56 431 28 Q357 0 277 0 L59 0 L98 318 L27 318 L36 391 Z M274 104 Q337 104 393 123.5 Q449 143 490 179.5 Q531 216 555 269.5 Q579 323 579 392 Q579 450 559 492.5 Q539 535 506.5 563.5 Q474 592 432.5 606 Q391 620 347 620 L244 620 L216 391 L336 391 L327 318 L207 318 L181 104 L274 104 Z " />
<glyph glyph-name="thorn" unicode="&#xfe;" horiz-adv-x="537" d="M498 237 Q498 184 479 139 Q460 94 426.5 61 Q393 28 347.5 9 Q302 -10 250 -10 Q199 -10 163.5 10.5 Q128 31 115 55 Q115 50 115 44.5 Q115 39 114 34 L85 -201 L-1 -201 L119 777 L205 777 L154 357 Q163 369 178 381.5 Q193 394 212.5 404.5 Q232 415 256 422 Q280 429 308 429 Q396 429 447 377.5 Q498 326 498 237 Z M405 227 Q405 278 375 311.5 Q345 345 290 345 Q257 345 228.5 333.5 Q200 322 179 301.5 Q158 281 146 253.5 Q134 226 134 195 Q134 143 167.5 108.5 Q201 74 257 74 Q290 74 317 86 Q344 98 363.5 119 Q383 140 394 167.5 Q405 195 405 227 Z " />
<glyph glyph-name="eth" unicode="&#xf0;" horiz-adv-x="502" d="M19 185 Q19 235 39.5 279.5 Q60 324 95 357 Q130 390 175.5 409.5 Q221 429 271 429 Q318 429 358 410 Q349 456 328 507 Q307 558 274 610 Q257 593 240.5 577.5 Q224 562 207 546 Q196 558 185 568.5 Q174 579 163 591 L240 664 Q218 692 196 717 Q174 742 150 765 L207 812 Q230 792 253 768.5 Q276 745 296 719 Q313 735 329 750 Q345 765 361 782 Q372 771 383 760 Q394 749 406 738 L333 667 Q364 620 389 564 Q414 508 431.5 449 Q449 390 458 330 Q467 270 464 215 L460 210 Q439 180 416 142 Q393 104 364.5 70.5 Q336 37 300 13.5 Q264 -10 216 -10 Q174 -10 137.5 4 Q101 18 75 44 Q49 70 34 105.5 Q19 141 19 185 Z M105 195 Q105 169 114 147 Q123 125 138.5 109 Q154 93 176 83.5 Q198 74 224 74 Q254 74 282 85.5 Q310 97 331.5 117.5 Q353 138 366 165 Q379 192 379 222 Q379 248 370 270.5 Q361 293 344.5 309.5 Q328 326 305.5 335.5 Q283 345 257 345 Q227 345 199.5 333 Q172 321 151 300.5 Q130 280 117.5 253 Q105 226 105 195 Z " />
<glyph glyph-name="Thorn" unicode="&#xde;" horiz-adv-x="567" d="M53 0 L140 710 L250 710 L236 592 L324 592 Q376 592 419 578.5 Q462 565 492.5 539.5 Q523 514 540 476.5 Q557 439 557 391 Q557 346 542 298.5 Q527 251 493.5 213 Q460 175 407.5 150.5 Q355 126 280 126 L178 126 L163 0 L53 0 Z M191 229 L290 229 Q334 229 364 244.5 Q394 260 412 282.5 Q430 305 437.5 330 Q445 355 445 374 Q445 392 439.5 412.5 Q434 433 420 450 Q406 467 382.5 478 Q359 489 323 489 L223 489 L191 229 Z " />
<glyph glyph-name="Acircumflex" unicode="&#xc2;" horiz-adv-x="647" d="M611 0 Q607 14 596 50.5 Q585 87 569 139 Q553 191 534.5 253 Q516 315 496.5 379 Q477 443 458 505.5 Q439 568 423.5 619.5 Q408 671 397 708 Q386 745 382 759 L-34 0 L74 0 L186 208 L442 208 Q452 173 461.5 140.5 Q471 108 479 80.5 Q487 53 493.5 32 Q500 11 503 0 L611 0 Z M339 494 Q340 496 345 508 Q350 520 354 530 Q355 520 357 508 Q359 496 360 494 Q363 483 368.5 464 Q374 445 381.5 419.5 Q389 394 398 363.5 Q407 333 416 300 L235 300 L339 494 Z M419 951 Q443 905 468 859.5 Q493 814 518 768 L454 768 Q451 774 444 784.5 Q437 795 429.5 806.5 Q422 818 415.5 829 Q409 840 406 846 Q401 840 391.5 829 Q382 818 372 806.5 Q362 795 352.5 784.5 Q343 774 339 768 L274 768 Q311 814 347 859.5 Q383 905 419 951 Z " />
<glyph glyph-name="Ecircumflex" unicode="&#xca;" horiz-adv-x="614" d="M53 0 L142 725 L618 725 L606 626 L240 626 L214 414 L540 414 L527 313 L201 313 L175 101 L555 101 L543 0 L53 0 Z M420 951 Q444 905 469 859.5 Q494 814 519 768 L455 768 Q452 774 445 784.5 Q438 795 430.5 806.5 Q423 818 416.5 829 Q410 840 407 846 Q402 840 392.5 829 Q383 818 373 806.5 Q363 795 353.5 784.5 Q344 774 340 768 L275 768 Q312 814 348 859.5 Q384 905 420 951 Z " />
<glyph glyph-name="Icircumflex" unicode="&#xce;" horiz-adv-x="285" d="M142 725 L251 725 L162 0 L53 0 L142 725 Z M226 951 Q250 905 275 859.5 Q300 814 325 768 L261 768 Q258 774 251 784.5 Q244 795 236.5 806.5 Q229 818 222.5 829 Q216 840 213 846 Q208 840 198.5 829 Q189 818 179 806.5 Q169 795 159.5 784.5 Q150 774 146 768 L81 768 Q118 814 154 859.5 Q190 905 226 951 Z " />
<glyph glyph-name="Ocircumflex" unicode="&#xd4;" horiz-adv-x="815" d="M46 362 Q55 437 92.5 504.5 Q130 572 186.5 623 Q243 674 314 703.5 Q385 733 462 733 Q532 733 592.5 706.5 Q653 680 696.5 634 Q740 588 765 527.5 Q790 467 790 398 Q790 315 755 241.5 Q720 168 662 112.5 Q604 57 528.5 24.5 Q453 -8 371 -8 Q294 -8 230.5 21 Q167 50 122.5 100.5 Q78 151 57.5 218 Q37 285 46 362 Z M155 361 Q148 306 163 257.5 Q178 209 209.5 173 Q241 137 286.5 116 Q332 95 386 95 Q444 95 497.5 118.5 Q551 142 591.5 182 Q632 222 656.5 275.5 Q681 329 681 389 Q681 439 663.5 482.5 Q646 526 615.5 558.5 Q585 591 542.5 609.5 Q500 628 450 628 Q396 628 345.5 607 Q295 586 255 550 Q215 514 188.5 465 Q162 416 155 361 Z M495 951 Q519 905 544 859.5 Q569 814 594 768 L530 768 Q527 774 520 784.5 Q513 795 505.5 806.5 Q498 818 491.5 829 Q485 840 482 846 Q477 840 467.5 829 Q458 818 448 806.5 Q438 795 428.5 784.5 Q419 774 415 768 L350 768 Q387 814 423 859.5 Q459 905 495 951 Z " />
<glyph glyph-name="Ucircumflex" unicode="&#xdb;" horiz-adv-x="712" d="M319 -8 Q261 -8 213.5 11 Q166 30 133 64.5 Q100 99 84.5 147.5 Q69 196 76 256 L134 725 L243 725 L186 259 Q182 224 191 194.5 Q200 165 219.5 142.5 Q239 120 267.5 107.5 Q296 95 332 95 Q367 95 399 107.5 Q431 120 456.5 142.5 Q482 165 498.5 194.5 Q515 224 519 259 L576 725 L687 725 L629 256 Q622 196 594.5 147.5 Q567 99 525 64.5 Q483 30 430 11 Q377 -8 319 -8 Z M446 973 Q470 927 495 881.5 Q520 836 545 790 L481 790 Q478 796 471 806.5 Q464 817 456.5 828.5 Q449 840 442.5 851 Q436 862 433 868 Q428 862 418.5 851 Q409 840 399 828.5 Q389 817 379.5 806.5 Q370 796 366 790 L301 790 Q338 836 374 881.5 Q410 927 446 973 Z " />
<glyph glyph-name="plusminus" unicode="&#xb1;" horiz-adv-x="494" d="M193 214 L210 351 L74 351 L85 440 L221 440 L238 579 L331 579 L314 440 L450 440 L439 351 L303 351 L286 214 L193 214 Z M406 83 L41 83 L52 173 L417 173 L406 83 Z " />
<glyph glyph-name="dollar" unicode="&#x24;" horiz-adv-x="583" d="M564 685 L515 596 Q478 610 441 618.5 Q404 627 370 629 L344 424 Q377 411 411 395.5 Q445 380 472 357.5 Q499 335 516 303.5 Q533 272 533 228 Q533 181 516 141.5 Q499 102 467.5 72.5 Q436 43 391.5 23.5 Q347 4 292 -3 L284 -68 L221 -68 L228 -8 L226 -8 Q183 -8 148.5 -1.5 Q114 5 86.5 14.5 Q59 24 39.5 34.5 Q20 45 7 54 L67 149 Q104 126 151 112 Q198 98 238 98 L241 98 L271 341 Q239 354 208.5 368.5 Q178 383 154 403 Q130 423 115 449.5 Q100 476 100 513 Q100 548 114.5 583.5 Q129 619 156.5 648 Q184 677 225 698 Q266 719 319 726 L327 792 L390 792 L382 728 Q415 726 445.5 720 Q476 714 501 707 Q526 700 542.5 693.5 Q559 687 564 685 Z M424 216 Q424 252 397 275.5 Q370 299 331 317 L306 107 Q327 112 348.5 121 Q370 130 386.5 143 Q403 156 413.5 174 Q424 192 424 216 Z M210 531 Q210 502 231 483 Q252 464 284 449 L306 623 Q261 612 235.5 587.5 Q210 563 210 531 Z " />
<glyph glyph-name="cent" unicode="&#xa2;" horiz-adv-x="435" d="M322 103 Q334 86 344.5 70.5 Q355 55 366 38 Q337 18 303 5 Q269 -8 231 -10 L224 -68 L161 -68 L168 -3 Q136 5 109.5 23 Q83 41 64 66 Q45 91 34.5 122 Q24 153 24 188 Q24 230 39.5 268.5 Q55 307 81.5 338 Q108 369 144 391 Q180 413 221 422 L229 486 L292 486 L285 429 Q323 427 354.5 414 Q386 401 411 381 L348 316 Q334 328 315.5 335.5 Q297 343 274 345 L241 74 Q287 77 322 103 Z M110 195 Q110 157 128.5 127 Q147 97 179 83 L210 335 Q165 319 137.5 281.5 Q110 244 110 195 Z " />
<glyph glyph-name="bullet" unicode="&#x2022;" horiz-adv-x="403" d="M67 290 Q67 321 79.5 348.5 Q92 376 113 396.5 Q134 417 161.5 429 Q189 441 219 441 Q245 441 267 431.5 Q289 422 305 405.5 Q321 389 330 366.5 Q339 344 339 318 Q339 287 326.5 260 Q314 233 293 213 Q272 193 244.5 181.5 Q217 170 186 170 Q160 170 138.5 179 Q117 188 101 204 Q85 220 76 242 Q67 264 67 290 Z " />
<glyph glyph-name="quotedblleft" unicode="&#x201c;" horiz-adv-x="280" d="M280 598 L232 573 Q206 602 198.5 640.5 Q191 679 205 721 L260 714 Q249 679 255 648.5 Q261 618 280 598 Z M175 598 Q162 592 150.5 585.5 Q139 579 127 573 Q101 602 93.5 640.5 Q86 679 100 721 L155 714 Q144 679 150 648.5 Q156 618 175 598 Z " />
<glyph glyph-name="quotedblright" unicode="&#x201d;" horiz-adv-x="283" d="M224 573 L182 598 Q207 618 220 648.5 Q233 679 231 714 L288 721 Q291 679 273.5 640.5 Q256 602 224 573 Z M119 573 Q108 579 98 585.5 Q88 592 77 598 Q101 618 114 648.5 Q127 679 125 714 L182 721 Q185 679 168 640.5 Q151 602 119 573 Z " />
<glyph glyph-name="quoteleft" unicode="&#x2018;" horiz-adv-x="174" d="M174 598 L126 573 Q100 602 92.5 640.5 Q85 679 99 721 L154 714 Q143 679 149 648.5 Q155 618 174 598 Z " />
<glyph glyph-name="quotedblbase" unicode="&#x201e;" horiz-adv-x="297" d="M39 -55 Q28 -48 18 -42 Q8 -36 -3 -30 Q21 -9 34.5 21 Q48 51 45 86 L102 93 Q105 51 88 12.5 Q71 -26 39 -55 Z M145 -55 Q134 -48 124 -42 Q114 -36 103 -30 Q126 -9 139.5 21 Q153 51 150 86 L207 93 Q210 51 193.5 12.5 Q177 -26 145 -55 Z " />
<glyph glyph-name="quotesinglbase" unicode="&#x201a;" horiz-adv-x="192" d="M39 -55 Q28 -48 18 -42 Q8 -36 -3 -30 Q21 -9 34.5 21 Q48 51 45 86 L102 93 Q105 51 88 12.5 Q71 -26 39 -55 Z " />
<glyph glyph-name="guilsinglright" unicode="&#x203a;" horiz-adv-x="280" d="M52 155 Q58 160 69.5 172.5 Q81 185 93 198.5 Q105 212 116.5 224.5 Q128 237 134 242 Q129 248 120.5 260 Q112 272 103 285.5 Q94 299 86 311.5 Q78 324 73 329 L86 434 Q90 430 101.5 415 Q113 400 128.5 380.5 Q144 361 161 338 Q178 315 193.5 295.5 Q209 276 220.5 261 Q232 246 236 242 L39 50 L52 155 Z " />
<glyph glyph-name="guillemotleft" unicode="&#xab;" horiz-adv-x="454" d="M357 50 L207 242 Q212 246 227 261 Q242 276 262.5 295.5 Q283 315 306 338 Q329 361 349.5 380.5 Q370 400 385 415 Q400 430 405 434 L392 330 Q386 324 374.5 312 Q363 300 350.5 286 Q338 272 326.5 260 Q315 248 309 242 Q313 237 321.5 224.5 Q330 212 339.5 198.5 Q349 185 357 172.5 Q365 160 370 155 L357 50 Z M183 50 L34 242 Q39 246 54 261 Q69 276 89 295.5 Q109 315 132 338 Q155 361 175.5 380.5 Q196 400 211 415 Q226 430 231 434 L218 329 Q212 324 200.5 311.5 Q189 299 177 285.5 Q165 272 153.5 260 Q142 248 136 242 Q140 237 148.5 224.5 Q157 212 166 198.5 Q175 185 183 172.5 Q191 160 196 155 L183 50 Z " />
<glyph glyph-name="guillemotright" unicode="&#xbb;" horiz-adv-x="453" d="M51 155 Q57 160 68.5 172.5 Q80 185 92.5 198.5 Q105 212 116.5 224.5 Q128 237 134 242 Q129 248 120.5 260 Q112 272 103 286 Q94 300 85.5 312 Q77 324 72 330 L85 434 Q89 430 100.5 415 Q112 400 127.5 380.5 Q143 361 160.5 338 Q178 315 193.5 295.5 Q209 276 220.5 261 Q232 246 236 242 L38 50 L51 155 Z M225 155 Q231 160 242.5 172.5 Q254 185 266 198.5 Q278 212 289.5 224.5 Q301 237 307 242 Q302 248 293.5 260 Q285 272 276 285.5 Q267 299 259 311.5 Q251 324 246 329 L259 434 Q263 430 274.5 415 Q286 400 301.5 380.5 Q317 361 334 338 Q351 315 366.5 295.5 Q382 276 393.5 261 Q405 246 409 242 L212 50 L225 155 Z " />
<glyph glyph-name="yen" unicode="&#xa5;" horiz-adv-x="703" d="M399 239 L390 161 L497 161 L489 100 L382 100 L370 0 L260 0 L272 100 L156 100 L164 161 L280 161 L289 239 Q287 242 284.5 248.5 Q282 255 278 263 L176 263 L184 324 L252 324 Q238 357 220.5 397 Q203 437 185.5 478.5 Q168 520 150.5 560.5 Q133 601 119 635 Q105 669 94.5 693 Q84 717 80 725 L204 725 Q209 715 218.5 692 Q228 669 241 638.5 Q254 608 268.5 571.5 Q283 535 297.5 499 Q312 463 325.5 429.5 Q339 396 349 370 L356 337 Q361 345 365 353.5 Q369 362 373 370 Q390 396 411.5 429.5 Q433 463 456.5 499 Q480 535 503 571.5 Q526 608 545.5 638.5 Q565 669 580.5 692 Q596 715 603 725 L726 725 L456 324 L517 324 L509 263 L415 263 L399 239 Z " />
<glyph glyph-name="copyright" unicode="&#xa9;" horiz-adv-x="629" d="M297 143 Q349 143 395.5 162.5 Q442 182 477.5 216.5 Q513 251 534 297.5 Q555 344 555 398 Q555 442 540 479.5 Q525 517 498 544 Q471 571 434 586.5 Q397 602 353 602 Q301 602 254 582.5 Q207 563 172 529 Q137 495 116 448 Q95 401 95 347 Q95 303 110 265.5 Q125 228 152 201 Q179 174 216 158.5 Q253 143 297 143 Z M293 113 Q243 113 200.5 130.5 Q158 148 127.5 179 Q97 210 79.5 252.5 Q62 295 62 345 Q62 406 86.5 458.5 Q111 511 151.5 549.5 Q192 588 245.5 610 Q299 632 357 632 Q407 632 449.5 614.5 Q492 597 522.5 566 Q553 535 570.5 492.5 Q588 450 588 400 Q588 339 563.5 286.5 Q539 234 498.5 195.5 Q458 157 404.5 135 Q351 113 293 113 Z M413 235 Q401 227 373.5 217 Q346 207 309 207 Q274 207 246.5 218.5 Q219 230 200.5 250 Q182 270 172.5 297 Q163 324 163 354 Q163 394 179 429 Q195 464 221.5 489 Q248 514 282.5 528.5 Q317 543 355 543 Q381 543 406 536 Q431 529 440 520 Q431 509 427.5 503 Q424 497 412 481 Q402 489 383.5 492.5 Q365 496 351 496 Q323 496 298 485 Q273 474 254.5 456 Q236 438 225 414.5 Q214 391 214 365 Q214 344 221.5 324.5 Q229 305 242.5 290.5 Q256 276 275.5 267 Q295 258 319 258 Q347 258 370.5 266.5 Q394 275 398 279 L413 235 Z " />
<glyph glyph-name="registered" unicode="&#xae;" horiz-adv-x="629" d="M293 113 Q243 113 200.5 130.5 Q158 148 127.5 179 Q97 210 79.5 252.5 Q62 295 62 345 Q62 406 86.5 458.5 Q111 511 151.5 549.5 Q192 588 245.5 610 Q299 632 357 632 Q407 632 449.5 614.5 Q492 597 522.5 566 Q553 535 570.5 492.5 Q588 450 588 400 Q588 339 563.5 286.5 Q539 234 498.5 195.5 Q458 157 404.5 135 Q351 113 293 113 Z M297 143 Q349 143 395.5 162.5 Q442 182 477.5 216.5 Q513 251 534 297.5 Q555 344 555 398 Q555 442 540 479.5 Q525 517 498 544 Q471 571 434 586.5 Q397 602 353 602 Q301 602 254 582.5 Q207 563 172 529 Q137 495 116 448 Q95 401 95 347 Q95 303 110 265.5 Q125 228 152 201 Q179 174 216 158.5 Q253 143 297 143 Z M199 210 L241 553 L335 553 Q385 553 415 528.5 Q445 504 445 458 Q445 427 430 396 Q415 365 380 347 Q396 317 413.5 281 Q431 245 449 210 L387 210 Q372 239 355.5 272.5 Q339 306 324 332 L314 332 L266 332 L251 210 L199 210 Z M272 381 L319 381 Q340 381 354 388.5 Q368 396 376.5 406.5 Q385 417 388.5 429 Q392 441 392 450 Q392 459 389.5 468.5 Q387 478 380 486 Q373 494 362 499.5 Q351 505 334 505 L287 505 L272 381 Z " />
<glyph glyph-name="divide" unicode="&#xf7;" horiz-adv-x="457" d="M401 209 L36 209 L47 297 L412 297 L401 209 Z M188 397 Q188 410 194 421.5 Q200 433 209 441.5 Q218 450 229.5 455 Q241 460 252 460 Q271 460 285.5 445.5 Q300 431 300 408 Q300 380 280 363 Q260 346 238 346 Q218 346 203 360 Q188 374 188 397 Z M152 101 Q152 114 158 125.5 Q164 137 173 145.5 Q182 154 193 159 Q204 164 215 164 Q235 164 249.5 149.5 Q264 135 264 112 Q264 85 244 68 Q224 51 202 51 Q182 51 167 64.5 Q152 78 152 101 Z " />
<glyph glyph-name="onehalf" unicode="&#xbd;" horiz-adv-x="838" d="M151 -19 L527 746 L620 746 Q525 554 431.5 363.5 Q338 173 243 -19 L151 -19 Z M610 62 L776 62 L768 -1 L446 -1 Q498 45 547 88.5 Q596 132 633.5 172.5 Q671 213 693.5 251 Q716 289 716 325 Q716 346 708.5 362 Q701 378 690 388.5 Q679 399 666 404 Q653 409 641 409 Q613 409 594 398.5 Q575 388 564 373 Q553 358 548 341.5 Q543 325 543 312 Q543 293 548.5 278 Q554 263 563 251 L520 211 Q499 225 488.5 256 Q478 287 478 313 Q478 343 490 371.5 Q502 400 524 422.5 Q546 445 577.5 458.5 Q609 472 649 472 Q680 472 704.5 461 Q729 450 746.5 432 Q764 414 773 389.5 Q782 365 782 338 Q782 301 768 266 Q754 231 730 197 Q706 163 675 129.5 Q644 96 610 62 Z M86 639 L93 702 L204 702 L147 234 L81 234 L131 639 L86 639 Z " />
<glyph glyph-name="onequarter" unicode="&#xbc;" horiz-adv-x="801" d="M147 -19 L523 746 L616 746 Q521 554 427.5 363.5 Q334 173 239 -19 L147 -19 Z M383 127 Q462 217 551 312 Q640 407 720 497 L683 193 L756 193 L748 127 L675 127 L659 0 L590 0 L606 127 L383 127 Z M87 638 L94 702 L205 702 L148 234 L82 234 L132 638 L87 638 Z M628 311 L523 193 L614 193 L628 311 Z " />
<glyph glyph-name="ordfeminine" unicode="&#xaa;" horiz-adv-x="427" d="M58 438 Q58 474 73 506 Q88 538 112.5 562 Q137 586 169.5 600.5 Q202 615 237 615 Q259 615 276 609.5 Q293 604 305 596.5 Q317 589 324 580 Q331 571 333 565 Q335 576 337 586.5 Q339 597 341 607 L401 607 L364 306 L302 306 L306 344 Q302 338 293 330.5 Q284 323 270.5 316 Q257 309 239 304 Q221 299 199 299 Q167 299 141 310 Q115 321 96.5 340 Q78 359 68 384.5 Q58 410 58 438 Z M120 446 Q120 409 144.5 384 Q169 359 208 359 Q232 359 252.5 367.5 Q273 376 288 391 Q303 406 312 425.5 Q321 445 321 468 Q321 506 296.5 530.5 Q272 555 232 555 Q209 555 188.5 546.5 Q168 538 153 523.5 Q138 509 129 489 Q120 469 120 446 Z " />
<glyph glyph-name="sterling" unicode="&#xa3;" horiz-adv-x="612" d="M184 89 L351 89 Q384 89 404.5 91.5 Q425 94 436.5 100 Q448 106 453 116.5 Q458 127 460 142 L465 185 Q489 185 512.5 185.5 Q536 186 559 186 L547 86 Q545 67 538 51.5 Q531 36 516.5 24.5 Q502 13 477.5 6.5 Q453 0 416 0 L4 0 L15 89 L60 89 Q76 89 86.5 92.5 Q97 96 104.5 106 Q112 116 116.5 135 Q121 154 125 185 L136 272 L69 272 L80 362 L147 362 L169 542 Q173 578 192.5 608 Q212 638 242.5 659.5 Q273 681 314 693.5 Q355 706 403 706 Q475 706 516.5 678.5 Q558 651 577 603 Q558 593 540 583 Q522 573 502 563 Q497 567 492 576 Q487 585 476.5 594 Q466 603 446.5 609.5 Q427 616 394 616 Q334 616 298.5 590.5 Q263 565 257 517 L238 362 L356 362 L345 272 L227 272 L214 166 Q211 140 206 121.5 Q201 103 184 89 Z " />
<glyph glyph-name="onesuperior" unicode="&#xb9;" horiz-adv-x="179" d="M89 663 L94 704 L166 704 L129 401 L87 401 L119 663 L89 663 Z " />
<glyph glyph-name="threequarters" unicode="&#xbe;" horiz-adv-x="988" d="M316 -19 L692 746 L785 746 Q690 554 597 363.5 Q504 173 408 -19 L316 -19 Z M569 127 Q649 217 737.5 312 Q826 407 907 497 L870 193 L943 193 L934 127 L861 127 L846 0 L777 0 L792 127 L569 127 Z M133 458 Q165 505 201.5 551 Q238 597 270 645 L113 645 L121 714 L390 714 Q358 668 323 622 Q288 576 256 529 Q298 511 323 473.5 Q348 436 348 387 Q348 349 331.5 314.5 Q315 280 288 254.5 Q261 229 225.5 214 Q190 199 153 199 Q115 199 84.5 214 Q54 229 33 254 Q47 267 62 279 Q77 291 91 303 Q116 268 161 268 Q183 268 204 277 Q225 286 241 301 Q257 316 266.5 336.5 Q276 357 276 380 Q276 418 250.5 444 Q225 470 186 470 Q158 470 133 458 Z M815 311 L710 193 L801 193 L815 311 Z " />
<glyph glyph-name="twosuperior" unicode="&#xb2;" horiz-adv-x="335" d="M184 419 L300 419 L295 375 L71 375 Q107 407 141 437.5 Q175 468 201 496 Q227 524 243 550.5 Q259 577 259 602 Q259 632 241.5 646 Q224 660 207 660 Q187 660 174 653 Q161 646 153 635.5 Q145 625 141.5 613.5 Q138 602 138 594 Q138 580 142 569.5 Q146 559 152 551 Q144 543 137 536.5 Q130 530 122 523 Q108 532 100.5 554 Q93 576 93 594 Q93 615 101 634.5 Q109 654 124.5 669.5 Q140 685 162 694.5 Q184 704 212 704 Q256 704 280.5 676.5 Q305 649 305 611 Q305 585 295 561 Q285 537 268.5 513.5 Q252 490 230 466.5 Q208 443 184 419 Z " />
<glyph glyph-name="paragraph" unicode="&#xb6;" horiz-adv-x="565" d="M255 0 L164 0 L217 429 Q185 429 158 440.5 Q131 452 111.5 472 Q92 492 81.5 519 Q71 546 71 577 Q71 615 86 648.5 Q101 682 127 706.5 Q153 731 186.5 745.5 Q220 760 258 760 L515 760 L421 0 L330 0 L413 672 L338 672 L255 0 Z " />
<glyph glyph-name="logicalnot" unicode="&#xac;" horiz-adv-x="489" d="M320 150 L324 186 L51 186 L59 252 L424 252 L412 150 L320 150 Z " />
<glyph glyph-name="threesuperior" unicode="&#xb3;" horiz-adv-x="281" d="M120 541 Q140 570 164 600 Q188 630 208 660 L108 660 L113 704 L285 704 Q265 675 242.5 645.5 Q220 616 199 586 Q226 575 242 551 Q258 527 258 496 Q258 472 247.5 450 Q237 428 219.5 411.5 Q202 395 180 385.5 Q158 376 134 376 Q109 376 90 385.5 Q71 395 58 412 L94 443 Q111 420 139 420 Q153 420 166.5 425.5 Q180 431 190 441 Q200 451 206 463.5 Q212 476 212 491 Q212 515 196 532 Q180 549 154 549 Q138 549 120 541 Z " />
<glyph glyph-name="brokenbar" unicode="&#xa6;" horiz-adv-x="266" d="M115 -237 L22 -237 L66 118 L159 118 L115 -237 Z M188 355 L95 355 L138 710 L231 710 L188 355 Z " />
<glyph glyph-name="ampersand" unicode="&#x26;" horiz-adv-x="651" d="M601 0 L499 0 Q492 10 484 21 Q477 31 467 44.5 Q457 58 446 75 Q410 37 355 13.5 Q300 -10 235 -10 Q187 -10 148 4.5 Q109 19 81.5 44.5 Q54 70 38.5 105.5 Q23 141 23 183 Q23 227 38.5 265.5 Q54 304 81 335 Q108 366 144.5 388 Q181 410 222 421 Q211 442 201.5 460.5 Q192 479 187 493 Q177 519 170.5 543 Q164 567 164 593 Q164 631 180 661.5 Q196 692 222.5 713 Q249 734 283.5 745.5 Q318 757 356 758 Q404 760 441.5 747 Q479 734 500 718 Q500 718 491 707.5 Q482 697 472 685 Q462 673 453 662.5 Q444 652 444 651 Q434 659 419 665.5 Q404 672 383 674 Q361 677 338 673.5 Q315 670 296.5 659.5 Q278 649 266.5 631.5 Q255 614 255 587 Q255 564 261.5 546 Q268 528 271 524 L453 234 L553 429 L644 429 L502 155 L601 0 Z M267 345 Q238 344 210 332.5 Q182 321 159.5 300.5 Q137 280 123.5 253 Q110 226 110 195 Q110 164 122 141 Q134 118 153.5 103 Q173 88 199 81 Q225 74 252 74 Q272 74 293.5 79 Q315 84 335 92.5 Q355 101 372.5 113 Q390 125 402 139 Q369 187 333.5 240.5 Q298 294 267 345 Z " />
<glyph glyph-name="germandbls" unicode="&#xdf;" horiz-adv-x="561" d="M188 8 Q199 28 211 48.5 Q223 69 235 90 Q258 80 282 80 Q311 80 338 91.5 Q365 103 385.5 123 Q406 143 418.5 169.5 Q431 196 431 225 Q431 250 422 271 Q413 292 397 308 Q381 324 359.5 333 Q338 342 313 342 L311 342 L322 432 Q358 432 382.5 453.5 Q407 475 407 510 Q407 539 387 558 Q367 577 326 577 Q267 577 237.5 535.5 Q208 494 199 422 L147 0 L56 0 L97 335 L33 335 L44 424 L108 424 L109 429 Q118 483 138.5 527 Q159 571 188.5 602 Q218 633 255 649.5 Q292 666 334 666 Q375 666 406 654.5 Q437 643 457.5 623.5 Q478 604 488.5 577.5 Q499 551 499 523 Q499 504 494.5 484.5 Q490 465 480.5 448 Q471 431 457 417 Q443 403 424 395 Q441 391 458.5 377 Q476 363 490 341.5 Q504 320 513 292 Q522 264 522 231 Q522 183 501 139.5 Q480 96 445 63 Q410 30 364.5 10.5 Q319 -9 270 -9 Q249 -9 227 -5 Q205 -1 188 8 Z " />
<glyph glyph-name="currency" unicode="&#xa4;" horiz-adv-x="468" d="M90 346 Q90 374 100 397.5 Q110 421 126 442 Q119 449 113.5 455.5 Q108 462 102 470 L151 514 L177 486 Q197 497 218 504 Q239 511 262 511 Q308 511 342 486 L373 514 L412 470 L382 443 Q398 411 398 374 Q398 347 388 323 Q378 299 360 277 L385 248 L336 204 L309 234 Q271 210 225 210 Q179 210 147 233 L113 203 L74 247 L107 276 Q90 305 90 346 Z M154 351 Q154 318 176.5 294.5 Q199 271 233 271 Q253 271 271.5 279 Q290 287 304 300.5 Q318 314 326.5 331.5 Q335 349 335 369 Q335 403 312.5 427 Q290 451 255 451 Q235 451 217 443 Q199 435 185 421.5 Q171 408 162.5 389.5 Q154 371 154 351 Z " />
<glyph glyph-name="section" unicode="&#xa7;" horiz-adv-x="384" d="M129 150 Q105 198 92 225 Q79 252 73 265 Q67 278 66 281 Q65 284 65 283 Q55 307 54 334.5 Q53 362 60.5 388.5 Q68 415 83 439 Q98 463 121 481 Q137 492 154.5 499.5 Q172 507 192 512 Q184 528 177 544 Q170 560 162 577 Q146 611 143 635.5 Q140 660 147 678 Q154 696 168.5 708.5 Q183 721 203 731 Q223 743 243.5 754 Q264 765 284 776 Q293 756 302 737 Q311 718 321 699 Q310 694 299.5 688.5 Q289 683 279 677 Q253 663 248 646.5 Q243 630 263 590 L336 439 Q348 415 349 388 Q350 361 342 335 Q334 309 318 285.5 Q302 262 278 244 Q263 233 245.5 224.5 Q228 216 207 211 Q215 195 222.5 178.5 Q230 162 238 145 Q254 111 257.5 86 Q261 61 254.5 43 Q248 25 233 12 Q218 -1 199 -11 Q179 -23 159.5 -33.5 Q140 -44 120 -55 L83 22 L124 45 Q137 52 144.5 60 Q152 68 153 79 Q154 90 148 107 Q142 124 129 150 Z M140 370 Q136 357 138.5 345 Q141 333 148.5 324 Q156 315 167 309 Q178 303 192 303 Q217 303 237.5 320.5 Q258 338 262 364 Q266 389 251 407 Q236 425 210 427 Q187 426 165 411.5 Q143 397 140 370 Z " />
<glyph glyph-name="periodcentered" unicode="&#xb7;" horiz-adv-x="222" d="M54 280 Q54 306 74.5 324.5 Q95 343 118 343 Q136 343 151.5 328 Q167 313 167 291 Q167 264 146 247 Q125 230 104 230 Q84 230 69 243.5 Q54 257 54 280 Z " />
<glyph glyph-name="ordmasculine" unicode="&#xba;" horiz-adv-x="398" d="M60 457 Q64 490 80 518.5 Q96 547 120.5 568.5 Q145 590 176 602.5 Q207 615 240 615 Q271 615 297 604 Q323 593 341.5 573.5 Q360 554 370 528.5 Q380 503 380 473 Q380 438 366 406.5 Q352 375 327.5 351 Q303 327 270.5 313 Q238 299 201 299 Q168 299 140.5 310.5 Q113 322 93.5 343 Q74 364 65 393 Q56 422 60 457 Z M121 457 Q116 416 140.5 387.5 Q165 359 206 359 Q228 359 248 367.5 Q268 376 283.5 391 Q299 406 308.5 425.5 Q318 445 318 467 Q318 504 293 529.5 Q268 555 230 555 Q210 555 191.5 547.5 Q173 540 158 526.5 Q143 513 133.5 495 Q124 477 121 457 Z " />
<glyph glyph-name="macron" unicode="&#xaf;" horiz-adv-x="405" d="M145 483 L152 541 L386 541 L379 483 L145 483 Z " />
<glyph glyph-name="mu" unicode="&#xb5;" horiz-adv-x="556" d="M436 -9 L364 -9 L368 107 Q339 56 293 23 Q247 -10 183 -10 Q151 -10 129 -1 L104 -201 L20 -201 L57 100 Q57 110 58 115 L95 418 L180 418 L147 153 Q145 122 163 100 Q181 78 224 75 Q254 75 280 85.5 Q306 96 326.5 114 Q347 132 360 157 Q373 182 377 212 L402 418 L488 418 L436 -9 Z " />
<glyph glyph-name="multiply" unicode="&#xd7;" horiz-adv-x="441" d="M277 0 L195 92 L93 1 Q76 21 59 40 Q42 59 25 79 L127 171 L45 264 L134 345 L217 250 L321 343 Q338 323 354 303 Q370 283 387 264 L287 173 L367 79 L277 0 Z " />
<glyph glyph-name="O" unicode="O" horiz-adv-x="815" d="M46 362 Q55 437 92.5 504.5 Q130 572 186.5 623 Q243 674 314 703.5 Q385 733 462 733 Q532 733 592.5 706.5 Q653 680 696.5 634 Q740 588 765 527.5 Q790 467 790 398 Q790 315 755 241.5 Q720 168 662 112.5 Q604 57 528.5 24.5 Q453 -8 371 -8 Q294 -8 230.5 21 Q167 50 122.5 100.5 Q78 151 57.5 218 Q37 285 46 362 Z M155 361 Q148 306 163 257.5 Q178 209 209.5 173 Q241 137 286.5 116 Q332 95 386 95 Q444 95 497.5 118.5 Q551 142 591.5 182 Q632 222 656.5 275.5 Q681 329 681 389 Q681 439 663.5 482.5 Q646 526 615.5 558.5 Q585 591 542.5 609.5 Q500 628 450 628 Q396 628 345.5 607 Q295 586 255 550 Q215 514 188.5 465 Q162 416 155 361 Z " />
<glyph glyph-name="g" unicode="g" horiz-adv-x="536" d="M20 184 Q20 236 40 280.5 Q60 325 93.5 358 Q127 391 171 410 Q215 429 263 429 Q297 429 322 420 Q347 411 364 399 Q381 387 390 375.5 Q399 364 401 359 Q403 373 406.5 388.5 Q410 404 412 418 L494 418 L445 19 Q432 -85 364 -143 Q296 -201 192 -201 Q156 -201 128.5 -193.5 Q101 -186 79.5 -174 Q58 -162 40 -146 Q22 -130 5 -113 L67 -55 Q94 -84 125 -101 Q156 -118 201 -118 Q268 -118 308.5 -86 Q349 -54 357 3 L361 32 Q362 40 365 49.5 Q368 59 369 64 Q358 52 343.5 38.5 Q329 25 309 14.5 Q289 4 264.5 -3 Q240 -10 210 -10 Q167 -10 132 5 Q97 20 72 46 Q47 72 33.5 107.5 Q20 143 20 184 Z M107 195 Q107 143 140 108.5 Q173 74 228 74 Q261 74 289.5 86 Q318 98 339 118.5 Q360 139 372 166.5 Q384 194 384 225 Q384 277 351 311 Q318 345 261 345 Q229 345 201 333.5 Q173 322 152 301.5 Q131 281 119 253.5 Q107 226 107 195 Z " />
<glyph glyph-name="d" unicode="d" horiz-adv-x="537" d="M21 183 Q21 237 40.5 282 Q60 327 93.5 360 Q127 393 171.5 411 Q216 429 266 429 Q297 429 320.5 421.5 Q344 414 360.5 403.5 Q377 393 387 380 Q397 367 402 357 L453 777 L539 777 L444 0 L358 0 L362 31 Q363 37 364.5 44.5 Q366 52 367 57 Q356 45 341 33.5 Q326 22 306.5 12 Q287 2 263 -4 Q239 -10 209 -10 Q164 -10 129 5 Q94 20 70 46.5 Q46 73 33.5 108 Q21 143 21 183 Z M108 195 Q108 143 141 108.5 Q174 74 229 74 Q262 74 290.5 86 Q319 98 340 118.5 Q361 139 373 166.5 Q385 194 385 225 Q385 277 352 311 Q319 345 262 345 Q230 345 202 333.5 Q174 322 153 301.5 Q132 281 120 253.5 Q108 226 108 195 Z " />
<glyph glyph-name="a" unicode="a" horiz-adv-x="536" d="M19 184 Q19 233 39.5 277.5 Q60 322 94.5 355.5 Q129 389 174 409 Q219 429 267 429 Q297 429 321 421.5 Q345 414 361.5 403 Q378 392 387.5 380 Q397 368 400 359 L411 418 L493 418 L442 0 L356 0 L363 53 Q357 45 344.5 34 Q332 23 313.5 13.5 Q295 4 270 -3 Q245 -10 214 -10 Q170 -10 134 5.5 Q98 21 72.5 47.5 Q47 74 33 109.5 Q19 145 19 184 Z M106 195 Q106 143 139 108.5 Q172 74 227 74 Q260 74 288.5 86 Q317 98 338 118.5 Q359 139 371 166.5 Q383 194 383 225 Q383 277 350 311 Q317 345 260 345 Q228 345 200 333.5 Q172 322 151 301.5 Q130 281 118 253.5 Q106 226 106 195 Z " />
<glyph glyph-name="n" unicode="n" horiz-adv-x="507" d="M75 418 L150 418 Q148 387 147 361.5 Q146 336 144 311 Q174 365 220.5 397 Q267 429 329 429 Q392 429 425.5 394 Q459 359 454 304 L417 0 L331 0 L364 265 Q366 297 348.5 319.5 Q331 342 288 344 Q258 344 232 333.5 Q206 323 185.5 305 Q165 287 151.5 262 Q138 237 134 207 L109 0 L24 0 L75 418 Z " />
<glyph glyph-name="ogonek" unicode="&#x2db;" horiz-adv-x="531" d="M237 -36 Q235 -54 222 -64 Q209 -74 194.5 -84 Q180 -94 168 -106.5 Q156 -119 156 -142 Q156 -162 166.5 -175.5 Q177 -189 199 -189 Q219 -189 233 -178.5 Q247 -168 253 -152 Q264 -159 276.5 -165.5 Q289 -172 300 -178 Q281 -218 249.5 -237.5 Q218 -257 183 -257 Q158 -257 140 -248.5 Q122 -240 110 -226 Q98 -212 92 -194.5 Q86 -177 86 -158 Q86 -129 96.5 -105.5 Q107 -82 136 -62 Q143 -57 151 -53.5 Q159 -50 165.5 -44.5 Q172 -39 177.5 -30.5 Q183 -22 185 -7 L186 0 L242 0 L237 -36 Z " />
<glyph glyph-name="caron" unicode="&#x2c7;" horiz-adv-x="445" d="M295 486 Q270 532 245.5 577.5 Q221 623 195 669 L260 669 Q263 663 269.5 652.5 Q276 642 283 630.5 Q290 619 297 608 Q304 597 307 591 Q311 597 320.5 608 Q330 619 340.5 630.5 Q351 642 360.5 652.5 Q370 663 375 669 L439 669 Q403 623 366.5 577.5 Q330 532 295 486 Z " />
<glyph glyph-name="hungarumlaut" unicode="&#x2dd;" horiz-adv-x="516" d="M126 486 Q153 519 180 553 Q207 587 234 620 L326 620 L191 486 L126 486 Z M347 486 Q374 519 401 553 Q428 587 455 620 L547 620 L411 486 L347 486 Z " />
<glyph glyph-name="dotaccent" unicode="&#x2d9;" horiz-adv-x="244" d="M140 573 Q140 599 160 616.5 Q180 634 202 634 Q220 634 234.5 619.5 Q249 605 249 583 Q249 557 229 540 Q209 523 188 523 Q169 523 154.5 537 Q140 551 140 573 Z " />
<glyph glyph-name="breve" unicode="&#x2d8;" horiz-adv-x="736" d="M325 500 Q292 500 264 512 Q236 524 216.5 545 Q197 566 187.5 595 Q178 624 181 657 L230 657 Q225 609 253.5 578.5 Q282 548 331 548 Q380 548 414 578.5 Q448 609 456 657 L505 657 Q501 624 484.5 595 Q468 566 443.5 545 Q419 524 388.5 512 Q358 500 325 500 Z " />
<glyph glyph-name="Aogonek" unicode="&#x104;" horiz-adv-x="646" d="M559 0 L555 -36 Q553 -54 540 -64 Q527 -74 512 -84 Q497 -94 485 -106.5 Q473 -119 473 -142 Q473 -162 483.5 -175.5 Q494 -189 516 -189 Q536 -189 550 -178.5 Q564 -168 570 -152 Q581 -159 593.5 -165.5 Q606 -172 617 -178 Q599 -218 567 -237.5 Q535 -257 500 -257 Q475 -257 457 -248.5 Q439 -240 427 -226 Q415 -212 409 -194.5 Q403 -177 403 -158 Q403 -129 413.5 -105.5 Q424 -82 453 -62 Q460 -57 468 -53.5 Q476 -50 482.5 -44.5 Q489 -39 494.5 -30.5 Q500 -22 502 -7 L503 0 Q500 11 493.5 32 Q487 53 479 80.5 Q471 108 461.5 140.5 Q452 173 442 208 L186 208 L74 0 L-34 0 L382 759 Q386 745 397 708 Q408 671 423.5 619.5 Q439 568 458 505.5 Q477 443 496.5 379 Q516 315 534.5 253 Q553 191 569 139 Q585 87 596 50.5 Q607 14 611 0 L559 0 Z M235 300 L416 300 Q407 333 398 363.5 Q389 394 381.5 419.5 Q374 445 368.5 464 Q363 483 360 494 Q359 496 357 508 Q355 520 354 530 Q350 520 345 508 Q340 496 339 494 L235 300 Z " />
<glyph glyph-name="Lslash" unicode="&#x141;" horiz-adv-x="573" d="M60 0 L93 264 L16 241 L27 330 L104 353 L149 725 L259 725 L218 387 L435 453 L424 364 L207 298 L183 104 L543 104 L530 0 L60 0 Z " />
<glyph glyph-name="Lcaron" unicode="&#x13d;" horiz-adv-x="567" d="M53 0 L142 725 L252 725 L176 104 L536 104 L523 0 L53 0 Z M402 573 L360 598 Q385 618 398 648.5 Q411 679 409 714 L466 721 Q469 679 451.5 640.5 Q434 602 402 573 Z " />
<glyph glyph-name="Sacute" unicode="&#x15a;" horiz-adv-x="566" d="M553 685 L504 596 Q465 611 425.5 620 Q386 629 349 629 Q316 629 288 621.5 Q260 614 240.5 600.5 Q221 587 210 569 Q199 551 199 530 Q199 499 223 480 Q247 461 283 445.5 Q319 430 360.5 414 Q402 398 438 374.5 Q474 351 498 315.5 Q522 280 522 226 Q522 174 502.5 131 Q483 88 445 57 Q407 26 350 9 Q293 -8 218 -8 Q174 -8 139.5 -2 Q105 4 78 13.5 Q51 23 30.5 34 Q10 45 -4 54 L56 149 Q93 126 140 112 Q187 98 227 98 Q248 98 280 103.5 Q312 109 341.5 122.5 Q371 136 392 158.5 Q413 181 413 216 Q413 250 389 272.5 Q365 295 329 312.5 Q293 330 251 346 Q209 362 173 383.5 Q137 405 113 435.5 Q89 466 89 513 Q89 552 106.5 590.5 Q124 629 157.5 660 Q191 691 240 710 Q289 729 353 729 Q389 729 422.5 723 Q456 717 483.5 709.5 Q511 702 529.5 695 Q548 688 553 685 Z M280 767 Q307 800 334 834 Q361 868 388 901 L480 901 L345 767 L280 767 Z " />
<glyph glyph-name="Scaron" unicode="&#x160;" horiz-adv-x="566" d="M553 685 L504 596 Q465 611 425.5 620 Q386 629 349 629 Q316 629 288 621.5 Q260 614 240.5 600.5 Q221 587 210 569 Q199 551 199 530 Q199 499 223 480 Q247 461 283 445.5 Q319 430 360.5 414 Q402 398 438 374.5 Q474 351 498 315.5 Q522 280 522 226 Q522 174 502.5 131 Q483 88 445 57 Q407 26 350 9 Q293 -8 218 -8 Q174 -8 139.5 -2 Q105 4 78 13.5 Q51 23 30.5 34 Q10 45 -4 54 L56 149 Q93 126 140 112 Q187 98 227 98 Q248 98 280 103.5 Q312 109 341.5 122.5 Q371 136 392 158.5 Q413 181 413 216 Q413 250 389 272.5 Q365 295 329 312.5 Q293 330 251 346 Q209 362 173 383.5 Q137 405 113 435.5 Q89 466 89 513 Q89 552 106.5 590.5 Q124 629 157.5 660 Q191 691 240 710 Q289 729 353 729 Q389 729 422.5 723 Q456 717 483.5 709.5 Q511 702 529.5 695 Q548 688 553 685 Z M343 743 Q318 789 293.5 834.5 Q269 880 243 926 L308 926 Q311 920 317.5 909.5 Q324 899 331 887.5 Q338 876 345 865 Q352 854 355 848 Q359 854 368.5 865 Q378 876 388.5 887.5 Q399 899 408.5 909.5 Q418 920 423 926 L487 926 Q451 880 414.5 834.5 Q378 789 343 743 Z " />
<glyph glyph-name="Scedilla" unicode="&#x15e;" horiz-adv-x="566" d="M553 685 L504 596 Q465 611 425.5 620 Q386 629 349 629 Q316 629 288 621.5 Q260 614 240.5 600.5 Q221 587 210 569 Q199 551 199 530 Q199 499 223 480 Q247 461 283 445.5 Q319 430 360.5 414 Q402 398 438 374.5 Q474 351 498 315.5 Q522 280 522 226 Q522 129 455 66 Q388 3 258 -6 L258 -7 Q256 -22 259.5 -30.5 Q263 -39 268.5 -44.5 Q274 -50 281 -53.5 Q288 -57 294 -62 Q310 -75 316.5 -92 Q323 -109 323 -130 Q323 -154 315 -176.5 Q307 -199 291 -217 Q275 -235 252 -246 Q229 -257 199 -257 Q164 -257 136.5 -237.5 Q109 -218 101 -178 Q114 -172 127.5 -165.5 Q141 -159 154 -152 Q157 -168 168.5 -178.5 Q180 -189 199 -189 Q226 -189 240.5 -171 Q255 -153 255 -128 Q255 -110 245.5 -99.5 Q236 -89 224.5 -80.5 Q213 -72 204.5 -62 Q196 -52 198 -36 L201 -8 Q122 -5 72.5 15.5 Q23 36 -4 54 L56 149 Q93 126 140 112 Q187 98 227 98 Q248 98 280 103.5 Q312 109 341.5 122.5 Q371 136 392 158.5 Q413 181 413 216 Q413 250 389 272.5 Q365 295 329 312.5 Q293 330 251 346 Q209 362 173 383.5 Q137 405 113 435.5 Q89 466 89 513 Q89 552 106.5 590.5 Q124 629 157.5 660 Q191 691 240 710 Q289 729 353 729 Q389 729 422.5 723 Q456 717 483.5 709.5 Q511 702 529.5 695 Q548 688 553 685 Z " />
<glyph glyph-name="Tcaron" unicode="&#x164;" horiz-adv-x="548" d="M563 725 L550 621 L367 621 L291 0 L182 0 L258 621 L79 621 L92 725 L563 725 Z M328 743 Q363 789 399.5 834.5 Q436 880 472 926 L408 926 Q403 920 394 909.5 Q385 899 374.5 887.5 Q364 876 354.5 865 Q345 854 341 848 Q338 854 331 865 Q324 876 317 887.5 Q310 899 303 909.5 Q296 920 293 926 L228 926 Q254 880 278.5 834.5 Q303 789 328 743 Z " />
<glyph glyph-name="Zacute" unicode="&#x179;" horiz-adv-x="634" d="M229 725 L658 725 L170 105 L591 105 L578 0 L-33 0 Q-18 18 20.5 67.5 Q59 117 109.5 182.5 Q160 248 216.5 321.5 Q273 395 323.5 460 Q374 525 412.5 574 Q451 623 466 640 L176 640 Q160 640 145 644.5 Q130 649 118.5 657 Q107 665 101 677 Q95 689 97 704 L104 762 L203 762 L201 748 Q199 730 205.5 727.5 Q212 725 229 725 Z M336 767 Q364 800 390.5 834 Q417 868 445 901 L537 901 L401 767 L336 767 Z " />
<glyph glyph-name="Zcaron" unicode="&#x17d;" horiz-adv-x="634" d="M229 725 L658 725 L170 105 L591 105 L578 0 L-33 0 Q-18 18 20.5 67.5 Q59 117 109.5 182.5 Q160 248 216.5 321.5 Q273 395 323.5 460 Q374 525 412.5 574 Q451 623 466 640 L176 640 Q160 640 145 644.5 Q130 649 118.5 657 Q107 665 101 677 Q95 689 97 704 L104 762 L203 762 L201 748 Q199 730 205.5 727.5 Q212 725 229 725 Z M376 743 Q352 789 327 834.5 Q302 880 277 926 L342 926 Q345 920 351.5 909.5 Q358 899 365 887.5 Q372 876 379 865 Q386 854 389 848 Q393 854 402.5 865 Q412 876 422.5 887.5 Q433 899 442.5 909.5 Q452 920 457 926 L521 926 Q484 880 448 834.5 Q412 789 376 743 Z " />
<glyph glyph-name="Zdotaccent" unicode="&#x17b;" horiz-adv-x="634" d="M229 725 L658 725 L170 105 L591 105 L578 0 L-33 0 Q-18 18 20.5 67.5 Q59 117 109.5 182.5 Q160 248 216.5 321.5 Q273 395 323.5 460 Q374 525 412.5 574 Q451 623 466 640 L176 640 Q160 640 145 644.5 Q130 649 118.5 657 Q107 665 101 677 Q95 689 97 704 L104 762 L203 762 L201 748 Q199 730 205.5 727.5 Q212 725 229 725 Z M345 817 Q345 843 365 860.5 Q385 878 407 878 Q425 878 439.5 863.5 Q454 849 454 827 Q454 801 434 784 Q414 767 393 767 Q374 767 359.5 781 Q345 795 345 817 Z " />
<glyph glyph-name="aogonek" unicode="&#x105;" horiz-adv-x="536" d="M442 0 L356 0 L363 53 Q357 45 344.5 34 Q332 23 313.5 13.5 Q295 4 270 -3 Q245 -10 214 -10 Q170 -10 134 5.5 Q98 21 72.5 47.5 Q47 74 33 109.5 Q19 145 19 184 Q19 233 39.5 277.5 Q60 322 94.5 355.5 Q129 389 174 409 Q219 429 267 429 Q297 429 321 421.5 Q345 414 361.5 403 Q378 392 388 380 Q398 368 401 359 L412 418 L494 418 L442 0 Z M106 195 Q106 143 139.5 108.5 Q173 74 228 74 Q261 74 289 86 Q317 98 338 118.5 Q359 139 371 166.5 Q383 194 383 225 Q383 277 350 311 Q317 345 261 345 Q229 345 200.5 333.5 Q172 322 151 301.5 Q130 281 118 253.5 Q106 226 106 195 Z M412 0 L357 0 L356 -7 Q354 -22 348.5 -30.5 Q343 -39 336.5 -44.5 Q330 -50 322 -53.5 Q314 -57 307 -62 Q278 -82 267.5 -105.5 Q257 -129 257 -158 Q257 -177 263 -194.5 Q269 -212 281 -226 Q293 -240 311 -248.5 Q329 -257 354 -257 Q389 -257 420.5 -237.5 Q452 -218 471 -178 Q460 -172 447.5 -165.5 Q435 -159 424 -152 Q417 -168 403 -178.5 Q389 -189 369 -189 Q348 -189 337 -175.5 Q326 -162 326 -142 Q326 -119 338 -106.5 Q350 -94 365 -84 Q380 -74 393 -64 Q406 -54 408 -36 L412 0 Z " />
<glyph glyph-name="lslash" unicode="&#x142;" horiz-adv-x="236" d="M117 0 L32 0 L64 257 L12 241 L23 330 L75 346 L128 777 L213 777 L163 372 L234 394 L223 305 L152 283 L117 0 Z " />
<glyph glyph-name="lcaron" unicode="&#x13e;" horiz-adv-x="204" d="M110 0 L25 0 L120 777 L205 777 L110 0 Z M270 573 L228 598 Q253 618 266 648.5 Q279 679 277 714 L334 721 Q337 679 319.5 640.5 Q302 602 270 573 Z " />
<glyph glyph-name="sacute" unicode="&#x15b;" horiz-adv-x="339" d="M305 381 L253 321 Q252 322 246.5 326 Q241 330 232 334 Q223 338 211 341.5 Q199 345 186 345 Q168 345 149.5 336 Q131 327 131 303 Q131 286 143 275 Q155 264 172.5 254.5 Q190 245 210.5 236 Q231 227 248.5 213.5 Q266 200 278 181 Q290 162 290 133 Q290 103 278.5 77 Q267 51 246 32 Q225 13 195 2 Q165 -9 129 -9 Q90 -9 54.5 4.5 Q19 18 -1 44 Q6 51 16.5 62 Q27 73 36.5 83 Q46 93 52.5 99.5 Q59 106 60 106 Q60 105 66.5 100 Q73 95 84.5 89.5 Q96 84 110.5 79.5 Q125 75 140 75 Q166 75 185 88 Q204 101 204 123 Q204 139 192 149 Q180 159 162 167.5 Q144 176 123.5 184.5 Q103 193 85 206.5 Q67 220 55 240 Q43 260 43 291 Q43 329 57.5 355 Q72 381 94 397.5 Q116 414 142.5 421 Q169 428 193 428 Q222 428 253.5 416 Q285 404 305 381 Z M148 486 Q176 519 202.5 553 Q229 587 257 620 L349 620 L213 486 L148 486 Z " />
<glyph glyph-name="scaron" unicode="&#x161;" horiz-adv-x="339" d="M305 381 L253 321 Q252 322 246.5 326 Q241 330 232 334 Q223 338 211 341.5 Q199 345 186 345 Q168 345 149.5 336 Q131 327 131 303 Q131 286 143 275 Q155 264 172.5 254.5 Q190 245 210.5 236 Q231 227 248.5 213.5 Q266 200 278 181 Q290 162 290 133 Q290 103 278.5 77 Q267 51 246 32 Q225 13 195 2 Q165 -9 129 -9 Q90 -9 54.5 4.5 Q19 18 -1 44 Q6 51 16.5 62 Q27 73 36.5 83 Q46 93 52.5 99.5 Q59 106 60 106 Q60 105 66.5 100 Q73 95 84.5 89.5 Q96 84 110.5 79.5 Q125 75 140 75 Q166 75 185 88 Q204 101 204 123 Q204 139 192 149 Q180 159 162 167.5 Q144 176 123.5 184.5 Q103 193 85 206.5 Q67 220 55 240 Q43 260 43 291 Q43 329 57.5 355 Q72 381 94 397.5 Q116 414 142.5 421 Q169 428 193 428 Q222 428 253.5 416 Q285 404 305 381 Z M190 486 Q166 532 141 577.5 Q116 623 91 669 L156 669 Q159 663 165.5 652.5 Q172 642 179 630.5 Q186 619 193 608 Q200 597 203 591 Q207 597 216.5 608 Q226 619 236.5 630.5 Q247 642 256.5 652.5 Q266 663 271 669 L335 669 Q298 623 262 577.5 Q226 532 190 486 Z " />
<glyph glyph-name="scedilla" unicode="&#x15f;" horiz-adv-x="339" d="M305 381 L253 321 Q252 322 246.5 326 Q241 330 232 334 Q223 338 211 341.5 Q199 345 186 345 Q168 345 149.5 336 Q131 327 131 303 Q131 286 143 275 Q155 264 172.5 254.5 Q190 245 210.5 236 Q231 227 248.5 213.5 Q266 200 278 181 Q290 162 290 133 Q290 81 255.5 42.5 Q221 4 164 -6 L164 -7 Q162 -22 165.5 -30.5 Q169 -39 174.5 -44.5 Q180 -50 187 -53.5 Q194 -57 200 -62 Q216 -75 222.5 -92 Q229 -109 229 -130 Q229 -154 221 -176.5 Q213 -199 197 -217 Q181 -235 158 -246 Q135 -257 105 -257 Q70 -257 42.5 -237.5 Q15 -218 7 -178 Q21 -172 34 -165.5 Q47 -159 60 -152 Q63 -168 74.5 -178.5 Q86 -189 105 -189 Q132 -189 147 -171 Q162 -153 162 -128 Q162 -110 152 -99.5 Q142 -89 131 -80.5 Q120 -72 111 -62 Q102 -52 104 -36 L107 -8 Q74 -4 45 9 Q16 22 -1 44 Q6 51 16.5 62 Q27 73 36.5 83 Q46 93 52.5 99.5 Q59 106 60 106 Q60 105 66.5 100 Q73 95 84.5 89.5 Q96 84 110.5 79.5 Q125 75 140 75 Q166 75 185 88 Q204 101 204 123 Q204 139 192 149 Q180 159 162 167.5 Q144 176 123.5 184.5 Q103 193 85 206.5 Q67 220 55 240 Q43 260 43 291 Q43 329 57.5 355 Q72 381 94 397.5 Q116 414 142.5 421 Q169 428 193 428 Q222 428 253.5 416 Q285 404 305 381 Z " />
<glyph glyph-name="tcaron" unicode="&#x165;" horiz-adv-x="302" d="M134 602 L219 602 L196 417 L308 417 L299 341 L187 341 L145 0 L60 0 L102 341 L27 341 L36 417 L111 417 L134 602 Z M326 573 L285 598 Q309 618 322 648.5 Q335 679 333 714 L390 721 Q393 679 375.5 640.5 Q358 602 326 573 Z " />
<glyph glyph-name="zacute" unicode="&#x17a;" horiz-adv-x="437" d="M374 0 L-20 0 L262 345 L122 345 Q87 345 66.5 364 Q46 383 50 415 L55 458 L133 458 L131 445 Q129 428 136 423 Q143 418 161 418 L428 418 L154 84 L384 84 L374 0 Z M208 486 Q235 519 262 553 Q289 587 316 620 L408 620 L273 486 L208 486 Z " />
<glyph glyph-name="zcaron" unicode="&#x17e;" horiz-adv-x="437" d="M374 0 L-20 0 L262 345 L122 345 Q87 345 66.5 364 Q46 383 50 415 L55 458 L133 458 L131 445 Q129 428 136 423 Q143 418 161 418 L428 418 L154 84 L384 84 L374 0 Z M252 486 Q227 532 202.5 577.5 Q178 623 152 669 L217 669 Q220 663 226.5 652.5 Q233 642 240.5 630.5 Q248 619 255 608 Q262 597 265 591 Q269 597 278.5 608 Q288 619 298 630.5 Q308 642 317.5 652.5 Q327 663 332 669 L396 669 Q360 623 323.5 577.5 Q287 532 252 486 Z " />
<glyph glyph-name="zdotaccent" unicode="&#x17c;" horiz-adv-x="437" d="M374 0 L-20 0 L262 345 L122 345 Q87 345 66.5 364 Q46 383 50 415 L55 458 L133 458 L131 445 Q129 428 136 423 Q143 418 161 418 L428 418 L154 84 L384 84 L374 0 Z M203 573 Q203 599 223 616.5 Q243 634 265 634 Q283 634 297.5 619.5 Q312 605 312 583 Q312 557 292 540 Q272 523 251 523 Q232 523 217.5 537 Q203 551 203 573 Z " />
<glyph glyph-name="Racute" unicode="&#x154;" horiz-adv-x="626" d="M53 0 L142 725 L340 725 Q392 725 435 711.5 Q478 698 508.5 672.5 Q539 647 556 609.5 Q573 572 573 524 Q573 492 565 458.5 Q557 425 540.5 393.5 Q524 362 497.5 335 Q471 308 434 289 Q466 226 504.5 149.5 Q543 73 581 0 L450 0 Q434 31 416.5 65 Q399 99 382 132.5 Q365 166 348.5 198.5 Q332 231 317 259 L297 259 L195 259 L163 0 L53 0 Z M207 362 L306 362 Q350 362 380 377.5 Q410 393 428 415.5 Q446 438 454 463 Q462 488 462 507 Q462 525 456 545.5 Q450 566 436 583.5 Q422 601 398.5 612 Q375 623 339 623 L239 623 L207 362 Z M300 767 Q328 800 354.5 834 Q381 868 409 901 L501 901 L365 767 L300 767 Z " />
<glyph glyph-name="Abreve" unicode="&#x102;" horiz-adv-x="647" d="M611 0 Q607 14 596 50.5 Q585 87 569 139 Q553 191 534.5 253 Q516 315 496.5 379 Q477 443 458 505.5 Q439 568 423.5 619.5 Q408 671 397 708 Q386 745 382 759 L-34 0 L74 0 L186 208 L442 208 Q452 173 461.5 140.5 Q471 108 479 80.5 Q487 53 493.5 32 Q500 11 503 0 L611 0 Z M385 771 Q352 771 324 783 Q296 795 276.5 816 Q257 837 247.5 866 Q238 895 241 928 L290 928 Q285 880 313.5 849.5 Q342 819 391 819 Q440 819 474 849.5 Q508 880 516 928 L565 928 Q561 895 544.5 866 Q528 837 503.5 816 Q479 795 448.5 783 Q418 771 385 771 Z M339 494 Q340 496 345 508 Q350 520 354 530 Q355 520 357 508 Q359 496 360 494 Q363 483 368.5 464 Q374 445 381.5 419.5 Q389 394 398 363.5 Q407 333 416 300 L235 300 L339 494 Z " />
<glyph glyph-name="Lacute" unicode="&#x139;" horiz-adv-x="566" d="M53 0 L142 725 L252 725 L176 104 L536 104 L523 0 L53 0 Z M317 767 Q345 800 371.5 834 Q398 868 426 901 L518 901 L382 767 L317 767 Z " />
<glyph glyph-name="Cacute" unicode="&#x106;" horiz-adv-x="636" d="M599 52 Q585 43 562.5 32.5 Q540 22 510 13 Q480 4 443.5 -2 Q407 -8 367 -8 Q289 -8 229 17.5 Q169 43 128 87.5 Q87 132 66 191 Q45 250 45 316 Q45 406 80 482 Q115 558 173.5 614 Q232 670 309 701.5 Q386 733 469 733 Q498 733 527.5 729 Q557 725 582.5 718 Q608 711 627.5 701.5 Q647 692 657 682 Q648 670 642.5 662 Q637 654 631 645.5 Q625 637 617.5 626 Q610 615 598 597 Q586 606 569 612 Q552 618 533.5 622 Q515 626 496 628 Q477 630 461 630 Q399 630 343.5 606 Q288 582 246.5 542 Q205 502 180.5 449.5 Q156 397 156 340 Q156 294 172.5 251 Q189 208 219 175 Q249 142 292 122.5 Q335 103 389 103 Q420 103 450 109 Q480 115 504 123 Q528 131 544.5 139 Q561 147 565 151 L599 52 Z M401 767 Q429 800 456 834 Q483 868 510 901 L602 901 L466 767 L401 767 Z " />
<glyph glyph-name="Ccaron" unicode="&#x10c;" horiz-adv-x="636" d="M599 52 Q585 43 562.5 32.5 Q540 22 510 13 Q480 4 443.5 -2 Q407 -8 367 -8 Q289 -8 229 17.5 Q169 43 128 87.5 Q87 132 66 191 Q45 250 45 316 Q45 406 80 482 Q115 558 173.5 614 Q232 670 309 701.5 Q386 733 469 733 Q498 733 527.5 729 Q557 725 582.5 718 Q608 711 627.5 701.5 Q647 692 657 682 Q648 670 642.5 662 Q637 654 631 645.5 Q625 637 617.5 626 Q610 615 598 597 Q586 606 569 612 Q552 618 533.5 622 Q515 626 496 628 Q477 630 461 630 Q399 630 343.5 606 Q288 582 246.5 542 Q205 502 180.5 449.5 Q156 397 156 340 Q156 294 172.5 251 Q189 208 219 175 Q249 142 292 122.5 Q335 103 389 103 Q420 103 450 109 Q480 115 504 123 Q528 131 544.5 139 Q561 147 565 151 L599 52 Z M465 743 Q500 789 536.5 834.5 Q573 880 609 926 L545 926 Q540 920 530.5 909.5 Q521 899 510.5 887.5 Q500 876 490.5 865 Q481 854 477 848 Q474 854 467 865 Q460 876 453 887.5 Q446 899 439.5 909.5 Q433 920 430 926 L365 926 Q391 880 415.5 834.5 Q440 789 465 743 Z " />
<glyph glyph-name="Eogonek" unicode="&#x118;" horiz-adv-x="614" d="M543 0 L53 0 L142 725 L618 725 L606 626 L240 626 L214 414 L540 414 L527 313 L201 313 L175 101 L555 101 L543 0 Z M543 0 L487 0 L486 -7 Q484 -22 478.5 -30.5 Q473 -39 466.5 -44.5 Q460 -50 452 -53.5 Q444 -57 437 -62 Q408 -82 397.5 -105.5 Q387 -129 387 -158 Q387 -177 393 -194.5 Q399 -212 411 -226 Q423 -240 441 -248.5 Q459 -257 484 -257 Q519 -257 551 -237.5 Q583 -218 601 -178 Q590 -172 577.5 -165.5 Q565 -159 554 -152 Q548 -168 534 -178.5 Q520 -189 500 -189 Q478 -189 467.5 -175.5 Q457 -162 457 -142 Q457 -119 469 -106.5 Q481 -94 496 -84 Q511 -74 524 -64 Q537 -54 539 -36 L543 0 Z " />
<glyph glyph-name="Ecaron" unicode="&#x11a;" horiz-adv-x="614" d="M53 0 L142 725 L618 725 L606 626 L240 626 L214 414 L540 414 L527 313 L201 313 L175 101 L555 101 L543 0 L53 0 Z M395 743 Q371 789 346 834.5 Q321 880 296 926 L361 926 Q364 920 370.5 909.5 Q377 899 384 887.5 Q391 876 398 865 Q405 854 408 848 Q412 854 421.5 865 Q431 876 441.5 887.5 Q452 899 461.5 909.5 Q471 920 476 926 L540 926 Q503 880 467 834.5 Q431 789 395 743 Z " />
<glyph glyph-name="Dcaron" unicode="&#x10e;" horiz-adv-x="710" d="M142 725 L324 725 Q423 725 491.5 696.5 Q560 668 602 621.5 Q644 575 663 516 Q682 457 682 396 Q682 305 647.5 232 Q613 159 556 107.5 Q499 56 425 28 Q351 0 271 0 L53 0 L142 725 Z M268 104 Q331 104 387 123.5 Q443 143 484 179.5 Q525 216 549 269.5 Q573 323 573 392 Q573 450 553 492.5 Q533 535 500.5 563.5 Q468 592 426.5 606 Q385 620 341 620 L238 620 L175 104 L268 104 Z M393 743 Q369 789 344 834.5 Q319 880 294 926 L359 926 Q362 920 368.5 909.5 Q375 899 382 887.5 Q389 876 396 865 Q403 854 406 848 Q410 854 419.5 865 Q429 876 439.5 887.5 Q450 899 459.5 909.5 Q469 920 474 926 L538 926 Q501 880 465 834.5 Q429 789 393 743 Z " />
<glyph glyph-name="Dcroat" unicode="&#x110;" horiz-adv-x="716" d="M39 410 L110 410 L149 725 L331 725 Q430 725 498 696.5 Q566 668 608.5 621.5 Q651 575 669.5 516 Q688 457 688 396 Q688 305 654 232 Q620 159 563 107.5 Q506 56 432 28 Q358 0 278 0 L60 0 L101 337 L30 337 L39 410 Z M274 104 Q337 104 393 123.5 Q449 143 490 179.5 Q531 216 555 269.5 Q579 323 579 392 Q579 450 559.5 492.5 Q540 535 507.5 563.5 Q475 592 433.5 606 Q392 620 348 620 L245 620 L219 410 L339 410 L330 337 L210 337 L181 104 L274 104 Z " />
<glyph glyph-name="Nacute" unicode="&#x143;" horiz-adv-x="811" d="M777 725 L684 -33 Q672 -15 637 25 Q602 65 556 116.5 Q510 168 458.5 225.5 Q407 283 361 334.5 Q315 386 281 426 Q247 466 237 484 L222 510 L221 478 L162 0 L52 0 L145 759 Q157 741 192 701 Q227 661 273 610 Q319 559 370.5 503 Q422 447 467.5 396.5 Q513 346 547.5 306.5 Q582 267 594 250 L609 222 L610 256 L668 725 L777 725 Z M407 767 Q435 800 461.5 834 Q488 868 516 901 L608 901 L472 767 L407 767 Z " />
<glyph glyph-name="Ncaron" unicode="&#x147;" horiz-adv-x="811" d="M777 725 L684 -33 Q672 -15 637 25 Q602 65 556 116.5 Q510 168 458.5 225.5 Q407 283 361 334.5 Q315 386 281 426 Q247 466 237 484 L222 510 L221 478 L162 0 L52 0 L145 759 Q157 741 192 701 Q227 661 273 610 Q319 559 370.5 503 Q422 447 467.5 396.5 Q513 346 547.5 306.5 Q582 267 594 250 L609 222 L610 256 L668 725 L777 725 Z M450 743 Q426 789 401 834.5 Q376 880 351 926 L416 926 Q419 920 425.5 909.5 Q432 899 439 887.5 Q446 876 453 865 Q460 854 463 848 Q467 854 476.5 865 Q486 876 496.5 887.5 Q507 899 516.5 909.5 Q526 920 531 926 L595 926 Q558 880 522 834.5 Q486 789 450 743 Z " />
<glyph glyph-name="Ohungarumlaut" unicode="&#x150;" horiz-adv-x="816" d="M45 325 Q45 407 79.5 481 Q114 555 172 611 Q230 667 305.5 700 Q381 733 463 733 Q533 733 593.5 706.5 Q654 680 697.5 634 Q741 588 766 527.5 Q791 467 791 398 Q791 315 756 241.5 Q721 168 663 112.5 Q605 57 529.5 24.5 Q454 -8 372 -8 Q301 -8 241 18 Q181 44 137.5 89 Q94 134 69.5 195 Q45 256 45 325 Z M154 334 Q154 284 171.5 240.5 Q189 197 220 164.5 Q251 132 294 113.5 Q337 95 387 95 Q445 95 498.5 118.5 Q552 142 592.5 182 Q633 222 657.5 275.5 Q682 329 682 389 Q682 439 664.5 482.5 Q647 526 616.5 558.5 Q586 591 543.5 609.5 Q501 628 451 628 Q392 628 338.5 604.5 Q285 581 244 541 Q203 501 178.5 447.5 Q154 394 154 334 Z M317 763 Q344 796 371 830 Q398 864 425 897 L517 897 L382 763 L317 763 Z M538 763 Q565 796 592 830 Q619 864 646 897 L738 897 L602 763 L538 763 Z " />
<glyph glyph-name="Rcaron" unicode="&#x158;" horiz-adv-x="626" d="M53 0 L142 725 L340 725 Q392 725 435 711.5 Q478 698 508.5 672.5 Q539 647 556 609.5 Q573 572 573 524 Q573 492 565 458.5 Q557 425 540.5 393.5 Q524 362 497.5 335 Q471 308 434 289 Q466 226 504.5 149.5 Q543 73 581 0 L450 0 Q434 31 416.5 65 Q399 99 382 132.5 Q365 166 348.5 198.5 Q332 231 317 259 L297 259 L195 259 L163 0 L53 0 Z M207 362 L306 362 Q350 362 380 377.5 Q410 393 428 415.5 Q446 438 454 463 Q462 488 462 507 Q462 525 456 545.5 Q450 566 436 583.5 Q422 601 398.5 612 Q375 623 339 623 L239 623 L207 362 Z M354 743 Q330 789 305 834.5 Q280 880 255 926 L320 926 Q323 920 329.5 909.5 Q336 899 343 887.5 Q350 876 357 865 Q364 854 367 848 Q371 854 380.5 865 Q390 876 400.5 887.5 Q411 899 420.5 909.5 Q430 920 435 926 L499 926 Q462 880 426 834.5 Q390 789 354 743 Z " />
<glyph glyph-name="Uring" unicode="&#x16e;" horiz-adv-x="712" d="M395 845 Q395 831 403.5 822.5 Q412 814 426 814 Q443 814 454.5 825 Q466 836 466 852 Q466 866 457.5 875 Q449 884 435 884 Q419 884 407 872.5 Q395 861 395 845 Z M345 841 Q345 860 353 876.5 Q361 893 374.5 906 Q388 919 405.5 926.5 Q423 934 441 934 Q473 934 494.5 911.5 Q516 889 516 857 Q516 838 508 821 Q500 804 486.5 791.5 Q473 779 455.5 771.5 Q438 764 420 764 Q388 764 366.5 786.5 Q345 809 345 841 Z M319 -8 Q261 -8 213.5 11 Q166 30 133 64.5 Q100 99 84.5 147.5 Q69 196 76 256 L134 725 L243 725 L186 259 Q182 224 191 194.5 Q200 165 219.5 142.5 Q239 120 267.5 107.5 Q296 95 332 95 Q367 95 399 107.5 Q431 120 456.5 142.5 Q482 165 498.5 194.5 Q515 224 519 259 L576 725 L687 725 L629 256 Q622 196 594.5 147.5 Q567 99 525 64.5 Q483 30 430 11 Q377 -8 319 -8 Z " />
<glyph glyph-name="Uhungarumlaut" unicode="&#x170;" horiz-adv-x="712" d="M319 -8 Q261 -8 213.5 11 Q166 30 133 64.5 Q100 99 84.5 147.5 Q69 196 76 256 L134 725 L243 725 L186 259 Q182 224 191 194.5 Q200 165 219.5 142.5 Q239 120 267.5 107.5 Q296 95 332 95 Q367 95 399 107.5 Q431 120 456.5 142.5 Q482 165 498.5 194.5 Q515 224 519 259 L576 725 L687 725 L629 256 Q622 196 594.5 147.5 Q567 99 525 64.5 Q483 30 430 11 Q377 -8 319 -8 Z M251 763 Q278 796 305 830 Q332 864 359 897 L451 897 L316 763 L251 763 Z M472 763 Q499 796 526 830 Q553 864 580 897 L672 897 L536 763 L472 763 Z " />
<glyph glyph-name="uni0162" unicode="&#x162;" horiz-adv-x="548" d="M563 725 L550 621 L367 621 L291 0 L182 0 L258 621 L79 621 L92 725 L563 725 Z M290 -22 L177 -230 L95 -230 Q121 -178 146 -126.5 Q171 -75 198 -22 L290 -22 Z " />
<glyph glyph-name="racute" unicode="&#x155;" horiz-adv-x="311" d="M293 319 Q265 319 238 311.5 Q211 304 189 289 Q167 274 152.5 251.5 Q138 229 134 200 L109 0 L24 0 L75 418 L150 418 Q148 387 147 361.5 Q146 336 144 311 Q160 338 184 360 Q208 382 233.5 397 Q259 412 283.5 420.5 Q308 429 326 429 L293 319 Z M137 486 Q164 519 191 553 Q218 587 245 620 L337 620 L202 486 L137 486 Z " />
<glyph glyph-name="abreve" unicode="&#x103;" horiz-adv-x="536" d="M19 184 Q19 233 39.5 277.5 Q60 322 94.5 355.5 Q129 389 174 409 Q219 429 267 429 Q297 429 321 421.5 Q345 414 361.5 403 Q378 392 387.5 380 Q397 368 400 359 L411 418 L493 418 L442 0 L356 0 L363 53 Q357 45 344.5 34 Q332 23 313.5 13.5 Q295 4 270 -3 Q245 -10 214 -10 Q170 -10 134 5.5 Q98 21 72.5 47.5 Q47 74 33 109.5 Q19 145 19 184 Z M106 195 Q106 143 139 108.5 Q172 74 227 74 Q260 74 288.5 86 Q317 98 338 118.5 Q359 139 371 166.5 Q383 194 383 225 Q383 277 350 311 Q317 345 260 345 Q228 345 200 333.5 Q172 322 151 301.5 Q130 281 118 253.5 Q106 226 106 195 Z M298 500 Q265 500 237.5 512 Q210 524 190.5 545 Q171 566 161.5 595 Q152 624 155 657 L204 657 Q199 609 227 578.5 Q255 548 304 548 Q353 548 387.5 578.5 Q422 609 430 657 L479 657 Q475 624 458.5 595 Q442 566 417 545 Q392 524 361.5 512 Q331 500 298 500 Z " />
<glyph glyph-name="lacute" unicode="&#x13a;" horiz-adv-x="204" d="M110 0 L25 0 L120 777 L205 777 L110 0 Z M123 794 Q151 827 178 861 Q205 895 232 928 L324 928 L188 794 L123 794 Z " />
<glyph glyph-name="cacute" unicode="&#x107;" horiz-adv-x="414" d="M317 103 Q329 86 339.5 70.5 Q350 55 361 38 Q330 16 293.5 3 Q257 -10 216 -10 Q173 -10 137 5.5 Q101 21 74.5 48 Q48 75 33.5 111 Q19 147 19 188 Q19 237 39.5 280.5 Q60 324 95 357 Q130 390 175 409.5 Q220 429 270 429 Q312 429 346 416 Q380 403 406 381 L343 316 Q328 330 306.5 337.5 Q285 345 259 345 Q226 345 198 333.5 Q170 322 149.5 301.5 Q129 281 117 253.5 Q105 226 105 195 Q105 144 137.5 109 Q170 74 226 74 Q252 74 275 81.5 Q298 89 317 103 Z M208 486 Q235 519 262 553 Q289 587 316 620 L408 620 L273 486 L208 486 Z " />
<glyph glyph-name="ccaron" unicode="&#x10d;" horiz-adv-x="414" d="M317 103 Q329 86 339.5 70.5 Q350 55 361 38 Q330 16 293.5 3 Q257 -10 216 -10 Q173 -10 137 5.5 Q101 21 74.5 48 Q48 75 33.5 111 Q19 147 19 188 Q19 237 39.5 280.5 Q60 324 95 357 Q130 390 175 409.5 Q220 429 270 429 Q312 429 346 416 Q380 403 406 381 L343 316 Q328 330 306.5 337.5 Q285 345 259 345 Q226 345 198 333.5 Q170 322 149.5 301.5 Q129 281 117 253.5 Q105 226 105 195 Q105 144 137.5 109 Q170 74 226 74 Q252 74 275 81.5 Q298 89 317 103 Z M267 486 Q242 532 217.5 577.5 Q193 623 167 669 L232 669 Q235 663 241.5 652.5 Q248 642 255 630.5 Q262 619 269 608 Q276 597 279 591 Q283 597 292.5 608 Q302 619 312.5 630.5 Q323 642 332.5 652.5 Q342 663 347 669 L411 669 Q375 623 338.5 577.5 Q302 532 267 486 Z " />
<glyph glyph-name="eogonek" unicode="&#x119;" horiz-adv-x="461" d="M243 0 L187 0 L186 -7 L186 -8 Q149 -3 118 14 Q87 31 65 57 Q43 83 31 116.5 Q19 150 19 187 Q19 236 39.5 280 Q60 324 94.5 357 Q129 390 174 409.5 Q219 429 267 429 Q338 429 385.5 386.5 Q433 344 447 275 Q414 264 372 248 Q330 232 285 214.5 Q240 197 195 180 Q150 163 111 149 Q125 115 154.5 94.5 Q184 74 224 74 Q251 74 279.5 84 Q308 94 328 111 L384 49 Q355 26 318 11 Q281 -4 242 -8 L243 0 Z M216 -10 Q208 -10 201 -9.5 Q194 -9 186 -8 Q184 -22 178.5 -30.5 Q173 -39 166.5 -44.5 Q160 -50 152 -53.5 Q144 -57 137 -62 Q108 -82 97.5 -105.5 Q87 -129 87 -158 Q87 -177 93 -194.5 Q99 -212 111 -226 Q123 -240 141 -248.5 Q159 -257 184 -257 Q219 -257 251 -237.5 Q283 -218 301 -178 Q290 -172 277.5 -165.5 Q265 -159 254 -152 Q248 -168 234 -178.5 Q220 -189 200 -189 Q178 -189 167.5 -175.5 Q157 -162 157 -142 Q157 -119 169 -106.5 Q181 -94 196 -84 Q211 -74 224 -64 Q237 -54 239 -36 L242 -8 Q235 -9 228.5 -9.5 Q222 -10 216 -10 Z M342 295 Q333 320 308.5 332.5 Q284 345 257 345 Q227 345 199.5 333 Q172 321 151 301.5 Q130 282 118 257.5 Q106 233 106 208 L106 203 Q133 213 165 225.5 Q197 238 228.5 250.5 Q260 263 289.5 274.5 Q319 286 342 295 Z " />
<glyph glyph-name="ecaron" unicode="&#x11b;" horiz-adv-x="461" d="M384 49 Q351 22 306 6 Q261 -10 216 -10 Q173 -10 137 5.5 Q101 21 74.5 47.5 Q48 74 33.5 110 Q19 146 19 187 Q19 236 39.5 280 Q60 324 94.5 357 Q129 390 174 409.5 Q219 429 267 429 Q338 429 385.5 386.5 Q433 344 447 275 Q414 264 372 248 Q330 232 285 214.5 Q240 197 195 180 Q150 163 111 149 Q125 115 154.5 94.5 Q184 74 224 74 Q251 74 279.5 84 Q308 94 328 111 L384 49 Z M342 295 Q333 320 308.5 332.5 Q284 345 257 345 Q227 345 199.5 333 Q172 321 151 301.5 Q130 282 118 257.5 Q106 233 106 208 L106 203 Q133 213 165 225.5 Q197 238 228.5 250.5 Q260 263 289.5 274.5 Q319 286 342 295 Z M258 486 Q233 532 208.5 577.5 Q184 623 158 669 L223 669 Q226 663 232.5 652.5 Q239 642 246.5 630.5 Q254 619 260.5 608 Q267 597 271 591 Q275 597 284 608 Q293 619 303.5 630.5 Q314 642 323.5 652.5 Q333 663 338 669 L402 669 Q366 623 329.5 577.5 Q293 532 258 486 Z " />
<glyph glyph-name="dcaron" unicode="&#x10f;" horiz-adv-x="538" d="M21 183 Q21 237 40.5 282 Q60 327 93.5 360 Q127 393 171.5 411 Q216 429 266 429 Q297 429 320.5 421.5 Q344 414 360.5 403.5 Q377 393 387 380 Q397 367 402 357 L453 777 L539 777 L444 0 L358 0 L362 31 Q363 37 364.5 44.5 Q366 52 367 57 Q356 45 341 33.5 Q326 22 306.5 12 Q287 2 263 -4 Q239 -10 209 -10 Q164 -10 129 5 Q94 20 70 46.5 Q46 73 33.5 108 Q21 143 21 183 Z M108 195 Q108 143 141 108.5 Q174 74 229 74 Q262 74 290.5 86 Q319 98 340 118.5 Q361 139 373 166.5 Q385 194 385 225 Q385 277 352 311 Q319 345 262 345 Q230 345 202 333.5 Q174 322 153 301.5 Q132 281 120 253.5 Q108 226 108 195 Z M604 573 L562 598 Q587 618 600 648.5 Q613 679 611 714 L668 721 Q671 679 653.5 640.5 Q636 602 604 573 Z " />
<glyph glyph-name="dcroat" unicode="&#x111;" horiz-adv-x="538" d="M21 183 Q21 237 40.5 282 Q60 327 93.5 360 Q127 393 171.5 411 Q216 429 266 429 Q297 429 320.5 421.5 Q344 414 360.5 403.5 Q377 393 387 380 Q397 367 402 357 L432 605 L518 605 L444 0 L358 0 L362 31 Q363 37 364.5 44.5 Q366 52 367 57 Q356 45 341 33.5 Q326 22 306.5 12 Q287 2 263 -4 Q239 -10 209 -10 Q164 -10 129 5 Q94 20 70 46.5 Q46 73 33.5 108 Q21 143 21 183 Z M108 195 Q108 143 141 108.5 Q174 74 229 74 Q262 74 290.5 86 Q319 98 340 118.5 Q361 139 373 166.5 Q385 194 385 225 Q385 277 352 311 Q319 345 262 345 Q230 345 202 333.5 Q174 322 153 301.5 Q132 281 120 253.5 Q108 226 108 195 Z M276 605 L432 605 L441 679 L285 679 L276 605 Z M453 777 L539 777 L527 679 L441 679 L453 777 Z M576 605 L585 679 L527 679 L518 605 L576 605 Z " />
<glyph glyph-name="nacute" unicode="&#x144;" horiz-adv-x="507" d="M75 418 L150 418 Q148 387 147 361.5 Q146 336 144 311 Q174 365 220.5 397 Q267 429 329 429 Q392 429 425.5 394 Q459 359 454 304 L417 0 L331 0 L364 265 Q366 297 348.5 319.5 Q331 342 288 344 Q258 344 232 333.5 Q206 323 185.5 305 Q165 287 151.5 262 Q138 237 134 207 L109 0 L24 0 L75 418 Z M246 486 Q273 519 300 553 Q327 587 354 620 L446 620 L311 486 L246 486 Z " />
<glyph glyph-name="ncaron" unicode="&#x148;" horiz-adv-x="507" d="M75 418 L150 418 Q148 387 147 361.5 Q146 336 144 311 Q174 365 220.5 397 Q267 429 329 429 Q392 429 425.5 394 Q459 359 454 304 L417 0 L331 0 L364 265 Q366 297 348.5 319.5 Q331 342 288 344 Q258 344 232 333.5 Q206 323 185.5 305 Q165 287 151.5 262 Q138 237 134 207 L109 0 L24 0 L75 418 Z M287 486 Q262 532 237.5 577.5 Q213 623 187 669 L252 669 Q255 663 261.5 652.5 Q268 642 275.5 630.5 Q283 619 290 608 Q297 597 300 591 Q304 597 313.5 608 Q323 619 333 630.5 Q343 642 352.5 652.5 Q362 663 367 669 L431 669 Q395 623 358.5 577.5 Q322 532 287 486 Z " />
<glyph glyph-name="ohungarumlaut" unicode="&#x151;" horiz-adv-x="503" d="M19 185 Q19 235 39.5 279.5 Q60 324 95 357 Q130 390 175.5 409.5 Q221 429 271 429 Q314 429 350 413.5 Q386 398 411.5 371.5 Q437 345 451 309 Q465 273 465 233 Q465 183 445.5 139 Q426 95 392 62 Q358 29 312.5 9.5 Q267 -10 216 -10 Q174 -10 137.5 4 Q101 18 75 44 Q49 70 34 105.5 Q19 141 19 185 Z M105 195 Q105 169 114 147 Q123 125 138.5 109 Q154 93 176 83.5 Q198 74 224 74 Q254 74 282 85.5 Q310 97 331.5 117.5 Q353 138 366 165 Q379 192 379 222 Q379 248 370 270.5 Q361 293 344.5 309.5 Q328 326 305.5 335.5 Q283 345 257 345 Q227 345 199.5 333 Q172 321 151 300.5 Q130 280 117.5 253 Q105 226 105 195 Z M107 486 Q134 519 161 553 Q188 587 215 620 L307 620 L172 486 L107 486 Z M328 486 Q355 519 382 553 Q409 587 436 620 L528 620 L392 486 L328 486 Z " />
<glyph glyph-name="rcaron" unicode="&#x159;" horiz-adv-x="311" d="M293 319 Q265 319 238 311.5 Q211 304 189 289 Q167 274 152.5 251.5 Q138 229 134 200 L109 0 L24 0 L75 418 L150 418 Q148 387 147 361.5 Q146 336 144 311 Q160 338 184 360 Q208 382 233.5 397 Q259 412 283.5 420.5 Q308 429 326 429 L293 319 Z M203 486 Q178 532 153.5 577.5 Q129 623 103 669 L168 669 Q171 663 177.5 652.5 Q184 642 191.5 630.5 Q199 619 206 608 Q213 597 216 591 Q220 597 229.5 608 Q239 619 249 630.5 Q259 642 268.5 652.5 Q278 663 283 669 L347 669 Q311 623 274.5 577.5 Q238 532 203 486 Z " />
<glyph glyph-name="uring" unicode="&#x16f;" horiz-adv-x="506" d="M250 538 Q250 525 258.5 516.5 Q267 508 281 508 Q297 508 309 519 Q321 530 321 546 Q321 560 312 569 Q303 578 290 578 Q273 578 261.5 566.5 Q250 555 250 538 Z M199 536 Q199 555 207 571.5 Q215 588 228.5 601 Q242 614 259.5 621.5 Q277 629 296 629 Q328 629 349 606.5 Q370 584 370 552 Q370 533 362 516 Q354 499 340.5 486 Q327 473 310 465.5 Q293 458 275 458 Q242 458 220.5 481 Q199 504 199 536 Z M412 -9 L340 -9 L344 107 Q315 56 269.5 23 Q224 -10 160 -10 Q96 -10 62.5 24.5 Q29 59 34 115 L71 418 L156 418 L124 153 Q122 122 140 100 Q158 78 200 75 Q230 75 256 85.5 Q282 96 302.5 114 Q323 132 336 157 Q349 182 353 212 L378 418 L464 418 L412 -9 Z " />
<glyph glyph-name="uhungarumlaut" unicode="&#x171;" horiz-adv-x="506" d="M412 -9 L340 -9 L344 107 Q315 56 269.5 23 Q224 -10 160 -10 Q96 -10 62.5 24.5 Q29 59 34 115 L71 418 L156 418 L124 153 Q122 122 140 100 Q158 78 200 75 Q230 75 256 85.5 Q282 96 302.5 114 Q323 132 336 157 Q349 182 353 212 L378 418 L464 418 L412 -9 Z M106 486 Q133 519 160 553 Q187 587 214 620 L306 620 L171 486 L106 486 Z M327 486 Q354 519 381 553 Q408 587 435 620 L527 620 L391 486 L327 486 Z " />
<glyph glyph-name="uni0163" unicode="&#x163;" horiz-adv-x="302" d="M134 602 L219 602 L196 417 L308 417 L299 341 L187 341 L145 0 L60 0 L102 341 L27 341 L36 417 L111 417 L134 602 Z M162 -22 L48 -230 L-34 -230 Q-8 -178 17.5 -126.5 Q43 -75 70 -22 L162 -22 Z " />
<glyph glyph-name="Hbar" unicode="&#x126;" horiz-adv-x="771" d="M60 0 L124 518 L45 518 L52 576 L131 576 L149 725 L258 725 L240 576 L603 576 L621 725 L731 725 L713 576 L789 576 L782 518 L706 518 Q700 468 693 413.5 Q686 359 679.5 305.5 Q673 252 666.5 201.5 Q660 151 655 110.5 Q650 70 646 40.5 Q642 11 641 0 L532 0 L571 313 L208 313 L169 0 L60 0 Z M584 417 L596 518 L233 518 L221 417 L584 417 Z " />
<glyph glyph-name="Hcircumflex" unicode="&#x124;" horiz-adv-x="757" d="M53 0 L142 725 L251 725 L213 417 L576 417 L614 725 L724 725 Q722 712 718 676.5 Q714 641 707.5 592 Q701 543 694 483.5 Q687 424 679 362.5 Q671 301 664 241.5 Q657 182 650.5 133 Q644 84 640 48.5 Q636 13 634 0 L525 0 L563 313 L200 313 L162 0 L53 0 Z M459 951 Q483 905 508 859.5 Q533 814 558 768 L494 768 Q491 774 484 784.5 Q477 795 469.5 806.5 Q462 818 455.5 829 Q449 840 446 846 Q441 840 431.5 829 Q422 818 412 806.5 Q402 795 392.5 784.5 Q383 774 379 768 L314 768 Q351 814 387 859.5 Q423 905 459 951 Z " />
<glyph glyph-name="Idotaccent" unicode="&#x130;" horiz-adv-x="285" d="M142 725 L251 725 L162 0 L53 0 L142 725 Z M154 822 Q154 848 174 865.5 Q194 883 216 883 Q234 883 249 868.5 Q264 854 264 832 Q264 806 244 789 Q224 772 203 772 Q184 772 169 786 Q154 800 154 822 Z " />
<glyph glyph-name="Gbreve" unicode="&#x11e;" horiz-adv-x="684" d="M638 347 L601 43 Q556 19 496 5.5 Q436 -8 376 -8 Q298 -8 236.5 15.5 Q175 39 132 81 Q89 123 66.5 181 Q44 239 44 307 Q44 369 60.5 424.5 Q77 480 106.5 527.5 Q136 575 176.5 613 Q217 651 265 677.5 Q313 704 366 718.5 Q419 733 474 733 Q500 733 527.5 729.5 Q555 726 581.5 719.5 Q608 713 632.5 703 Q657 693 676 681 L612 592 Q584 609 541 619.5 Q498 630 460 630 Q403 630 348 606.5 Q293 583 250 542 Q207 501 181 446.5 Q155 392 155 329 Q155 281 171.5 238.5 Q188 196 218.5 164 Q249 132 293 113.5 Q337 95 391 95 Q414 95 446.5 99.5 Q479 104 509 115 L525 253 L384 253 L396 347 L638 347 Z M466 766 Q433 766 405.5 778 Q378 790 358.5 811 Q339 832 329.5 861 Q320 890 323 923 L372 923 Q367 875 395 844.5 Q423 814 472 814 Q521 814 555.5 844.5 Q590 875 598 923 L647 923 Q643 890 626.5 861 Q610 832 585 811 Q560 790 529.5 778 Q499 766 466 766 Z " />
<glyph glyph-name="Jcircumflex" unicode="&#x134;" horiz-adv-x="329" d="M-79 -150 L-66 -47 Q-31 -45 -0.5 -33.5 Q30 -22 54 0.5 Q78 23 93.5 57 Q109 91 115 138 L187 725 L297 725 L225 135 Q217 68 190.5 16 Q164 -36 123.5 -72.5 Q83 -109 31 -128.5 Q-21 -148 -79 -150 Z M269 951 Q294 905 318.5 859.5 Q343 814 369 768 L305 768 Q302 774 295 784.5 Q288 795 280.5 806.5 Q273 818 266 829 Q259 840 256 846 Q251 840 242 829 Q233 818 223 806.5 Q213 795 203.5 784.5 Q194 774 190 768 L125 768 Q161 814 197.5 859.5 Q234 905 269 951 Z " />
<glyph glyph-name="hbar" unicode="&#x127;" horiz-adv-x="507" d="M119 777 L204 777 L184 607 L333 607 L325 549 L176 549 L148 317 Q176 367 220 397.5 Q264 428 327 429 Q391 430 425.5 395.5 Q460 361 454 304 L417 0 L331 0 L364 265 Q366 297 348.5 319.5 Q331 342 288 344 Q258 344 232 333.5 Q206 323 185.5 305 Q165 287 151.5 262 Q138 237 134 207 L109 0 L24 0 L91 549 L29 549 L37 607 L99 607 L119 777 Z " />
<glyph glyph-name="hcircumflex" unicode="&#x125;" horiz-adv-x="507" d="M119 777 L204 777 L148 317 Q176 367 220 397.5 Q264 428 327 429 Q391 430 425.5 395.5 Q460 361 454 304 L417 0 L331 0 L364 265 Q366 297 348.5 319.5 Q331 342 288 344 Q258 344 232 333.5 Q206 323 185.5 305 Q165 287 151.5 262 Q138 237 134 207 L109 0 L24 0 L119 777 Z M387 951 Q411 905 436 859.5 Q461 814 486 768 L422 768 Q419 774 412 784.5 Q405 795 397.5 806.5 Q390 818 383.5 829 Q377 840 374 846 Q369 840 359.5 829 Q350 818 340 806.5 Q330 795 320.5 784.5 Q311 774 307 768 L242 768 Q279 814 315 859.5 Q351 905 387 951 Z " />
<glyph glyph-name="dotlessi" unicode="&#x131;" horiz-adv-x="202" d="M109 0 L24 0 L75 418 L160 418 L109 0 Z " />
<glyph glyph-name="gbreve" unicode="&#x11f;" horiz-adv-x="536" d="M20 184 Q20 236 40 280.5 Q60 325 93.5 358 Q127 391 171 410 Q215 429 263 429 Q297 429 322 420 Q347 411 364 399 Q381 387 390 375.5 Q399 364 401 359 Q403 373 406.5 388.5 Q410 404 412 418 L494 418 L445 19 Q432 -85 364 -143 Q296 -201 192 -201 Q156 -201 128.5 -193.5 Q101 -186 79.5 -174 Q58 -162 40 -146 Q22 -130 5 -113 L67 -55 Q94 -84 125 -101 Q156 -118 201 -118 Q268 -118 308.5 -86 Q349 -54 357 3 L361 32 Q362 40 365 49.5 Q368 59 369 64 Q358 52 343.5 38.5 Q329 25 309 14.5 Q289 4 264.5 -3 Q240 -10 210 -10 Q167 -10 132 5 Q97 20 72 46 Q47 72 33.5 107.5 Q20 143 20 184 Z M107 195 Q107 143 140 108.5 Q173 74 228 74 Q261 74 289.5 86 Q318 98 339 118.5 Q360 139 372 166.5 Q384 194 384 225 Q384 277 351 311 Q318 345 261 345 Q229 345 201 333.5 Q173 322 152 301.5 Q131 281 119 253.5 Q107 226 107 195 Z M302 500 Q269 500 241.5 512 Q214 524 194.5 545 Q175 566 165.5 595 Q156 624 159 657 L208 657 Q203 609 231 578.5 Q259 548 308 548 Q357 548 391.5 578.5 Q426 609 434 657 L483 657 Q479 624 462.5 595 Q446 566 421 545 Q396 524 365.5 512 Q335 500 302 500 Z " />
<glyph glyph-name="jcircumflex" unicode="&#x135;" horiz-adv-x="203" d="M-2 -202 L-54 -138 Q-22 -115 -2 -80.5 Q18 -46 24 2 L75 418 L160 418 L109 -1 Q101 -69 72 -119 Q43 -169 -2 -202 Z M147 668 Q171 622 196 576.5 Q221 531 246 485 L182 485 Q179 491 172 501.5 Q165 512 157.5 523.5 Q150 535 143.5 546 Q137 557 134 563 Q129 557 119.5 546 Q110 535 100 523.5 Q90 512 80.5 501.5 Q71 491 67 485 L2 485 Q39 531 75 576.5 Q111 622 147 668 Z " />
<glyph glyph-name="Cdotaccent" unicode="&#x10a;" horiz-adv-x="636" d="M599 52 Q585 43 562.5 32.5 Q540 22 510 13 Q480 4 443.5 -2 Q407 -8 367 -8 Q289 -8 229 17.5 Q169 43 128 87.5 Q87 132 66 191 Q45 250 45 316 Q45 406 80 482 Q115 558 173.5 614 Q232 670 309 701.5 Q386 733 469 733 Q498 733 527.5 729 Q557 725 582.5 718 Q608 711 627.5 701.5 Q647 692 657 682 Q648 670 642.5 662 Q637 654 631 645.5 Q625 637 617.5 626 Q610 615 598 597 Q586 606 569 612 Q552 618 533.5 622 Q515 626 496 628 Q477 630 461 630 Q399 630 343.5 606 Q288 582 246.5 542 Q205 502 180.5 449.5 Q156 397 156 340 Q156 294 172.5 251 Q189 208 219 175 Q249 142 292 122.5 Q335 103 389 103 Q420 103 450 109 Q480 115 504 123 Q528 131 544.5 139 Q561 147 565 151 L599 52 Z M407 814 Q407 840 427.5 857.5 Q448 875 470 875 Q488 875 502.5 860.5 Q517 846 517 824 Q517 798 497 781 Q477 764 456 764 Q437 764 422 778 Q407 792 407 814 Z " />
<glyph glyph-name="Ccircumflex" unicode="&#x108;" horiz-adv-x="636" d="M599 52 Q585 43 562.5 32.5 Q540 22 510 13 Q480 4 443.5 -2 Q407 -8 367 -8 Q289 -8 229 17.5 Q169 43 128 87.5 Q87 132 66 191 Q45 250 45 316 Q45 406 80 482 Q115 558 173.5 614 Q232 670 309 701.5 Q386 733 469 733 Q498 733 527.5 729 Q557 725 582.5 718 Q608 711 627.5 701.5 Q647 692 657 682 Q648 670 642.5 662 Q637 654 631 645.5 Q625 637 617.5 626 Q610 615 598 597 Q586 606 569 612 Q552 618 533.5 622 Q515 626 496 628 Q477 630 461 630 Q399 630 343.5 606 Q288 582 246.5 542 Q205 502 180.5 449.5 Q156 397 156 340 Q156 294 172.5 251 Q189 208 219 175 Q249 142 292 122.5 Q335 103 389 103 Q420 103 450 109 Q480 115 504 123 Q528 131 544.5 139 Q561 147 565 151 L599 52 Z M477 951 Q502 905 526.5 859.5 Q551 814 577 768 L513 768 Q509 774 502 784.5 Q495 795 487.5 806.5 Q480 818 473.5 829 Q467 840 464 846 Q459 840 449.5 829 Q440 818 430 806.5 Q420 795 411 784.5 Q402 774 398 768 L333 768 Q369 814 405.5 859.5 Q442 905 477 951 Z " />
<glyph glyph-name="Gdotaccent" unicode="&#x120;" horiz-adv-x="684" d="M638 347 L601 43 Q556 19 496 5.5 Q436 -8 376 -8 Q298 -8 236.5 15.5 Q175 39 132 81 Q89 123 66.5 181 Q44 239 44 307 Q44 369 60.5 424.5 Q77 480 106.5 527.5 Q136 575 176.5 613 Q217 651 265 677.5 Q313 704 366 718.5 Q419 733 474 733 Q500 733 527.5 729.5 Q555 726 581.5 719.5 Q608 713 632.5 703 Q657 693 676 681 L612 592 Q584 609 541 619.5 Q498 630 460 630 Q403 630 348 606.5 Q293 583 250 542 Q207 501 181 446.5 Q155 392 155 329 Q155 281 171.5 238.5 Q188 196 218.5 164 Q249 132 293 113.5 Q337 95 391 95 Q414 95 446.5 99.5 Q479 104 509 115 L525 253 L384 253 L396 347 L638 347 Z M397 814 Q397 840 417 857.5 Q437 875 459 875 Q477 875 491.5 860.5 Q506 846 506 824 Q506 798 486 781 Q466 764 445 764 Q426 764 411.5 778 Q397 792 397 814 Z " />
<glyph glyph-name="Gcircumflex" unicode="&#x11c;" horiz-adv-x="684" d="M638 347 L601 43 Q556 19 496 5.5 Q436 -8 376 -8 Q298 -8 236.5 15.5 Q175 39 132 81 Q89 123 66.5 181 Q44 239 44 307 Q44 369 60.5 424.5 Q77 480 106.5 527.5 Q136 575 176.5 613 Q217 651 265 677.5 Q313 704 366 718.5 Q419 733 474 733 Q500 733 527.5 729.5 Q555 726 581.5 719.5 Q608 713 632.5 703 Q657 693 676 681 L612 592 Q584 609 541 619.5 Q498 630 460 630 Q403 630 348 606.5 Q293 583 250 542 Q207 501 181 446.5 Q155 392 155 329 Q155 281 171.5 238.5 Q188 196 218.5 164 Q249 132 293 113.5 Q337 95 391 95 Q414 95 446.5 99.5 Q479 104 509 115 L525 253 L384 253 L396 347 L638 347 Z M491 951 Q516 905 540.5 859.5 Q565 814 591 768 L527 768 Q524 774 517 784.5 Q510 795 502.5 806.5 Q495 818 488 829 Q481 840 478 846 Q473 840 464 829 Q455 818 445 806.5 Q435 795 425.5 784.5 Q416 774 412 768 L347 768 Q383 814 419.5 859.5 Q456 905 491 951 Z " />
<glyph glyph-name="Ubreve" unicode="&#x16c;" horiz-adv-x="712" d="M319 -8 Q261 -8 213.5 11 Q166 30 133 64.5 Q100 99 84.5 147.5 Q69 196 76 256 L134 725 L243 725 L186 259 Q182 224 191 194.5 Q200 165 219.5 142.5 Q239 120 267.5 107.5 Q296 95 332 95 Q367 95 399 107.5 Q431 120 456.5 142.5 Q482 165 498.5 194.5 Q515 224 519 259 L576 725 L687 725 L629 256 Q622 196 594.5 147.5 Q567 99 525 64.5 Q483 30 430 11 Q377 -8 319 -8 Z M417 766 Q384 766 356 778 Q328 790 308.5 811 Q289 832 279.5 861 Q270 890 273 923 L322 923 Q318 875 346 844.5 Q374 814 423 814 Q472 814 506.5 844.5 Q541 875 548 923 L597 923 Q593 890 576.5 861 Q560 832 535.5 811 Q511 790 480.5 778 Q450 766 417 766 Z " />
<glyph glyph-name="Scircumflex" unicode="&#x15c;" horiz-adv-x="566" d="M553 685 L504 596 Q465 611 425.5 620 Q386 629 349 629 Q316 629 288 621.5 Q260 614 240.5 600.5 Q221 587 210 569 Q199 551 199 530 Q199 499 223 480 Q247 461 283 445.5 Q319 430 360.5 414 Q402 398 438 374.5 Q474 351 498 315.5 Q522 280 522 226 Q522 174 502.5 131 Q483 88 445 57 Q407 26 350 9 Q293 -8 218 -8 Q174 -8 139.5 -2 Q105 4 78 13.5 Q51 23 30.5 34 Q10 45 -4 54 L56 149 Q93 126 140 112 Q187 98 227 98 Q248 98 280 103.5 Q312 109 341.5 122.5 Q371 136 392 158.5 Q413 181 413 216 Q413 250 389 272.5 Q365 295 329 312.5 Q293 330 251 346 Q209 362 173 383.5 Q137 405 113 435.5 Q89 466 89 513 Q89 552 106.5 590.5 Q124 629 157.5 660 Q191 691 240 710 Q289 729 353 729 Q389 729 422.5 723 Q456 717 483.5 709.5 Q511 702 529.5 695 Q548 688 553 685 Z M373 951 Q398 905 422.5 859.5 Q447 814 473 768 L409 768 Q406 774 399 784.5 Q392 795 384.5 806.5 Q377 818 370 829 Q363 840 360 846 Q355 840 346 829 Q337 818 327 806.5 Q317 795 307.5 784.5 Q298 774 294 768 L229 768 Q265 814 301.5 859.5 Q338 905 373 951 Z " />
<glyph glyph-name="cdotaccent" unicode="&#x10b;" horiz-adv-x="414" d="M317 103 Q329 86 339.5 70.5 Q350 55 361 38 Q330 16 293.5 3 Q257 -10 216 -10 Q173 -10 137 5.5 Q101 21 74.5 48 Q48 75 33.5 111 Q19 147 19 188 Q19 237 39.5 280.5 Q60 324 95 357 Q130 390 175 409.5 Q220 429 270 429 Q312 429 346 416 Q380 403 406 381 L343 316 Q328 330 306.5 337.5 Q285 345 259 345 Q226 345 198 333.5 Q170 322 149.5 301.5 Q129 281 117 253.5 Q105 226 105 195 Q105 144 137.5 109 Q170 74 226 74 Q252 74 275 81.5 Q298 89 317 103 Z M236 573 Q236 599 256.5 616.5 Q277 634 299 634 Q317 634 331.5 619.5 Q346 605 346 583 Q346 557 326 540 Q306 523 285 523 Q266 523 251 537 Q236 551 236 573 Z " />
<glyph glyph-name="ccircumflex" unicode="&#x109;" horiz-adv-x="414" d="M317 103 Q329 86 339.5 70.5 Q350 55 361 38 Q330 16 293.5 3 Q257 -10 216 -10 Q173 -10 137 5.5 Q101 21 74.5 48 Q48 75 33.5 111 Q19 147 19 188 Q19 237 39.5 280.5 Q60 324 95 357 Q130 390 175 409.5 Q220 429 270 429 Q312 429 346 416 Q380 403 406 381 L343 316 Q328 330 306.5 337.5 Q285 345 259 345 Q226 345 198 333.5 Q170 322 149.5 301.5 Q129 281 117 253.5 Q105 226 105 195 Q105 144 137.5 109 Q170 74 226 74 Q252 74 275 81.5 Q298 89 317 103 Z M294 668 Q318 622 343 576.5 Q368 531 393 485 L329 485 Q326 491 319 501.5 Q312 512 304.5 523.5 Q297 535 290.5 546 Q284 557 281 563 Q276 557 266.5 546 Q257 535 247 523.5 Q237 512 227.5 501.5 Q218 491 214 485 L149 485 Q186 531 222 576.5 Q258 622 294 668 Z " />
<glyph glyph-name="gdotaccent" unicode="&#x121;" horiz-adv-x="536" d="M20 184 Q20 236 40 280.5 Q60 325 93.5 358 Q127 391 171 410 Q215 429 263 429 Q297 429 322 420 Q347 411 364 399 Q381 387 390 375.5 Q399 364 401 359 Q403 373 406.5 388.5 Q410 404 412 418 L494 418 L445 19 Q432 -85 364 -143 Q296 -201 192 -201 Q156 -201 128.5 -193.5 Q101 -186 79.5 -174 Q58 -162 40 -146 Q22 -130 5 -113 L67 -55 Q94 -84 125 -101 Q156 -118 201 -118 Q268 -118 308.5 -86 Q349 -54 357 3 L361 32 Q362 40 365 49.5 Q368 59 369 64 Q358 52 343.5 38.5 Q329 25 309 14.5 Q289 4 264.5 -3 Q240 -10 210 -10 Q167 -10 132 5 Q97 20 72 46 Q47 72 33.5 107.5 Q20 143 20 184 Z M107 195 Q107 143 140 108.5 Q173 74 228 74 Q261 74 289.5 86 Q318 98 339 118.5 Q360 139 372 166.5 Q384 194 384 225 Q384 277 351 311 Q318 345 261 345 Q229 345 201 333.5 Q173 322 152 301.5 Q131 281 119 253.5 Q107 226 107 195 Z M256 573 Q256 599 276 616.5 Q296 634 318 634 Q336 634 350.5 619.5 Q365 605 365 583 Q365 557 345 540 Q325 523 304 523 Q285 523 270.5 537 Q256 551 256 573 Z " />
<glyph glyph-name="gcircumflex" unicode="&#x11d;" horiz-adv-x="536" d="M20 184 Q20 236 40 280.5 Q60 325 93.5 358 Q127 391 171 410 Q215 429 263 429 Q297 429 322 420 Q347 411 364 399 Q381 387 390 375.5 Q399 364 401 359 Q403 373 406.5 388.5 Q410 404 412 418 L494 418 L445 19 Q432 -85 364 -143 Q296 -201 192 -201 Q156 -201 128.5 -193.5 Q101 -186 79.5 -174 Q58 -162 40 -146 Q22 -130 5 -113 L67 -55 Q94 -84 125 -101 Q156 -118 201 -118 Q268 -118 308.5 -86 Q349 -54 357 3 L361 32 Q362 40 365 49.5 Q368 59 369 64 Q358 52 343.5 38.5 Q329 25 309 14.5 Q289 4 264.5 -3 Q240 -10 210 -10 Q167 -10 132 5 Q97 20 72 46 Q47 72 33.5 107.5 Q20 143 20 184 Z M107 195 Q107 143 140 108.5 Q173 74 228 74 Q261 74 289.5 86 Q318 98 339 118.5 Q360 139 372 166.5 Q384 194 384 225 Q384 277 351 311 Q318 345 261 345 Q229 345 201 333.5 Q173 322 152 301.5 Q131 281 119 253.5 Q107 226 107 195 Z M298 669 Q323 623 347.5 577.5 Q372 532 398 486 L334 486 Q331 492 324 502.5 Q317 513 309.5 524.5 Q302 536 295 547 Q288 558 285 564 Q280 558 271 547 Q262 536 252 524.5 Q242 513 232.5 502.5 Q223 492 219 486 L154 486 Q190 532 226.5 577.5 Q263 623 298 669 Z " />
<glyph glyph-name="ubreve" unicode="&#x16d;" horiz-adv-x="506" d="M412 -9 L340 -9 L344 107 Q315 56 269.5 23 Q224 -10 160 -10 Q96 -10 62.5 24.5 Q29 59 34 115 L71 418 L156 418 L124 153 Q122 122 140 100 Q158 78 200 75 Q230 75 256 85.5 Q282 96 302.5 114 Q323 132 336 157 Q349 182 353 212 L378 418 L464 418 L412 -9 Z M278 500 Q245 500 217.5 512 Q190 524 170.5 545 Q151 566 141.5 595 Q132 624 135 657 L184 657 Q179 609 207 578.5 Q235 548 284 548 Q333 548 367.5 578.5 Q402 609 410 657 L459 657 Q455 624 438.5 595 Q422 566 397 545 Q372 524 341.5 512 Q311 500 278 500 Z " />
<glyph glyph-name="scircumflex" unicode="&#x15d;" horiz-adv-x="339" d="M305 381 L253 321 Q252 322 246.5 326 Q241 330 232 334 Q223 338 211 341.5 Q199 345 186 345 Q168 345 149.5 336 Q131 327 131 303 Q131 286 143 275 Q155 264 172.5 254.5 Q190 245 210.5 236 Q231 227 248.5 213.5 Q266 200 278 181 Q290 162 290 133 Q290 103 278.5 77 Q267 51 246 32 Q225 13 195 2 Q165 -9 129 -9 Q90 -9 54.5 4.5 Q19 18 -1 44 Q6 51 16.5 62 Q27 73 36.5 83 Q46 93 52.5 99.5 Q59 106 60 106 Q60 105 66.5 100 Q73 95 84.5 89.5 Q96 84 110.5 79.5 Q125 75 140 75 Q166 75 185 88 Q204 101 204 123 Q204 139 192 149 Q180 159 162 167.5 Q144 176 123.5 184.5 Q103 193 85 206.5 Q67 220 55 240 Q43 260 43 291 Q43 329 57.5 355 Q72 381 94 397.5 Q116 414 142.5 421 Q169 428 193 428 Q222 428 253.5 416 Q285 404 305 381 Z M219 669 Q243 623 268 577.5 Q293 532 318 486 L254 486 Q251 492 244 502.5 Q237 513 229.5 524.5 Q222 536 215.5 547 Q209 558 206 564 Q201 558 191.5 547 Q182 536 172 524.5 Q162 513 152.5 502.5 Q143 492 139 486 L74 486 Q111 532 147 577.5 Q183 623 219 669 Z " />
<glyph glyph-name="oe" unicode="&#x153;" horiz-adv-x="710" d="M633 49 Q600 22 555 6 Q510 -10 465 -10 Q394 -10 345 27 Q288 -10 216 -10 Q174 -10 137.5 4 Q101 18 75 44 Q49 70 34 105.5 Q19 141 19 185 Q19 235 39.5 279.5 Q60 324 95 357 Q130 390 175.5 409.5 Q221 429 271 429 Q306 429 336 419 Q366 409 390 392 Q419 409 450.5 419 Q482 429 516 429 Q587 429 634.5 386.5 Q682 344 696 275 Q663 264 621 248 Q579 232 534 214.5 Q489 197 444 180 Q399 163 360 149 Q374 115 403.5 94.5 Q433 74 473 74 Q500 74 528.5 84 Q557 94 577 111 L633 49 Z M257 345 Q227 345 199.5 333 Q172 321 151 300.5 Q130 280 117.5 253 Q105 226 105 195 Q105 169 114 147 Q123 125 138.5 109 Q154 93 176 83.5 Q198 74 224 74 Q261 74 291 89 Q280 109 274 135 Q268 161 268 187 Q268 227 282 262 Q296 297 320 329 Q291 345 257 345 Z M591 295 Q582 320 557.5 332.5 Q533 345 506 345 Q476 345 448.5 333 Q421 321 400 301.5 Q379 282 367 257.5 Q355 233 355 208 L355 203 Q382 213 414 225.5 Q446 238 477.5 250.5 Q509 263 538.5 274.5 Q568 286 591 295 Z " />
<glyph glyph-name="OE" unicode="&#x152;" horiz-adv-x="955" d="M372 -8 Q301 -8 241.5 18 Q182 44 138 89 Q94 134 69.5 195 Q45 256 45 325 Q45 407 79.5 481 Q114 555 172 611 Q230 667 305.5 700 Q381 733 463 733 Q500 733 535 725 L959 725 L947 626 L610 626 L584 414 L880 414 L868 313 L572 313 L546 101 L897 101 L884 0 L449 0 Q409 -8 372 -8 Z M451 628 Q392 628 338.5 604.5 Q285 581 244.5 541 Q204 501 179.5 447.5 Q155 394 155 334 Q155 284 172.5 240.5 Q190 197 221 164.5 Q252 132 294.5 113.5 Q337 95 387 95 Q399 95 411.5 96 Q424 97 437 99 L501 623 Q489 625 476.5 626.5 Q464 628 451 628 Z " />
<glyph glyph-name="Ydieresis" unicode="&#x178;" horiz-adv-x="654" d="M376 239 L347 0 L237 0 L266 239 Q261 250 245 287 Q229 324 207.5 374.5 Q186 425 162 482 Q138 539 116.5 589.5 Q95 640 78.5 677 Q62 714 57 725 L181 725 Q186 715 195.5 692 Q205 669 218 638.5 Q231 608 245.5 571.5 Q260 535 274.5 499 Q289 463 302.5 429.5 Q316 396 326 370 L333 337 Q338 345 342 353.5 Q346 362 350 370 Q367 396 388.5 429.5 Q410 463 433.5 499 Q457 535 480 571.5 Q503 608 522.5 638.5 Q542 669 557.5 692 Q573 715 580 725 L703 725 L376 239 Z M434 824 Q434 837 440 849 Q446 861 455 869 Q464 877 475.5 882 Q487 887 498 887 Q517 887 531.5 873 Q546 859 546 836 Q546 809 526 791.5 Q506 774 484 774 Q464 774 449 788 Q434 802 434 824 Z M244 824 Q244 837 250 849 Q256 861 265 869 Q274 877 285.5 882 Q297 887 309 887 Q327 887 342 872.5 Q357 858 357 836 Q357 809 336.5 791.5 Q316 774 295 774 Q275 774 259.5 788 Q244 802 244 824 Z " />
<glyph glyph-name="Etilde" unicode="&#x1ebc;" horiz-adv-x="614" d="M53 0 L142 725 L618 725 L606 626 L240 626 L214 414 L540 414 L527 313 L201 313 L175 101 L555 101 L543 0 L53 0 Z M391 817 Q377 832 367 837.5 Q357 843 343 843 Q329 843 310 834 Q291 825 284 797 L235 800 Q239 821 250 838 Q261 855 276 867 Q291 879 308 885.5 Q325 892 341 892 Q365 892 382.5 883 Q400 874 414 858 Q428 843 439 838 Q450 833 464 833 Q478 833 496.5 841.5 Q515 850 523 879 L571 876 Q567 855 556 838.5 Q545 822 530 810 Q515 798 498 791.5 Q481 785 466 785 Q421 785 391 817 Z " />
<glyph glyph-name="uni0156" unicode="&#x156;" horiz-adv-x="626" d="M53 0 L142 725 L340 725 Q392 725 435 711.5 Q478 698 508.5 672.5 Q539 647 556 609.5 Q573 572 573 524 Q573 492 565 458.5 Q557 425 540.5 393.5 Q524 362 497.5 335 Q471 308 434 289 Q466 226 504.5 149.5 Q543 73 581 0 L450 0 Q434 31 416.5 65 Q399 99 382 132.5 Q365 166 348.5 198.5 Q332 231 317 259 L297 259 L195 259 L163 0 L53 0 Z M207 362 L306 362 Q350 362 380 377.5 Q410 393 428 415.5 Q446 438 454 463 Q462 488 462 507 Q462 525 456 545.5 Q450 566 436 583.5 Q422 601 398.5 612 Q375 623 339 623 L239 623 L207 362 Z M341 -22 L228 -230 L146 -230 Q172 -178 197.5 -126.5 Q223 -75 249 -22 L341 -22 Z " />
<glyph glyph-name="Itilde" unicode="&#x128;" horiz-adv-x="285" d="M142 725 L251 725 L162 0 L53 0 L142 725 Z M197 798 Q183 813 172.5 818.5 Q162 824 148 824 Q134 824 115 815 Q96 806 90 778 L41 781 Q45 802 56 819 Q67 836 81.5 848 Q96 860 113 866.5 Q130 873 146 873 Q170 873 188 864 Q206 855 220 839 Q234 824 245 819 Q256 814 270 814 Q284 814 302.5 822.5 Q321 831 329 860 L376 857 Q373 836 362 819.5 Q351 803 336 791 Q321 779 304 772.5 Q287 766 272 766 Q227 766 197 798 Z " />
<glyph glyph-name="uni013B" unicode="&#x13b;" horiz-adv-x="566" d="M53 0 L142 725 L252 725 L176 104 L536 104 L523 0 L53 0 Z M365 -22 L252 -230 L170 -230 Q196 -178 221.5 -126.5 Q247 -75 273 -22 L365 -22 Z " />
<glyph glyph-name="Emacron" unicode="&#x112;" horiz-adv-x="614" d="M53 0 L142 725 L618 725 L606 626 L240 626 L214 414 L540 414 L527 313 L201 313 L175 101 L555 101 L543 0 L53 0 Z M278 773 L285 831 L519 831 L512 773 L278 773 Z " />
<glyph glyph-name="uni0122" unicode="&#x122;" horiz-adv-x="684" d="M638 347 L601 43 Q556 19 496 5.5 Q436 -8 376 -8 Q298 -8 236.5 15.5 Q175 39 132 81 Q89 123 66.5 181 Q44 239 44 307 Q44 369 60.5 424.5 Q77 480 106.5 527.5 Q136 575 176.5 613 Q217 651 265 677.5 Q313 704 366 718.5 Q419 733 474 733 Q500 733 527.5 729.5 Q555 726 581.5 719.5 Q608 713 632.5 703 Q657 693 676 681 L612 592 Q584 609 541 619.5 Q498 630 460 630 Q403 630 348 606.5 Q293 583 250 542 Q207 501 181 446.5 Q155 392 155 329 Q155 281 171.5 238.5 Q188 196 218.5 164 Q249 132 293 113.5 Q337 95 391 95 Q414 95 446.5 99.5 Q479 104 509 115 L525 253 L384 253 L396 347 L638 347 Z M399 -22 L285 -230 L203 -230 Q229 -178 254.5 -126.5 Q280 -75 307 -22 L399 -22 Z " />
<glyph glyph-name="Tbar" unicode="&#x166;" horiz-adv-x="548" d="M173 441 L180 499 L243 499 L258 621 L79 621 L92 725 L563 725 L550 621 L367 621 L352 499 L414 499 L407 441 L345 441 L291 0 L182 0 L236 441 L173 441 Z " />
<glyph glyph-name="uni0157" unicode="&#x157;" horiz-adv-x="310" d="M292 319 Q264 319 237 311.5 Q210 304 188 289 Q166 274 151.5 251.5 Q137 229 133 200 L108 0 L23 0 L75 418 L150 418 Q148 387 146.5 361.5 Q145 336 143 311 Q159 338 183 360 Q207 382 232.5 397 Q258 412 282.5 420.5 Q307 429 325 429 L292 319 Z M174 -22 L60 -230 L-22 -230 Q4 -178 29.5 -126.5 Q55 -75 82 -22 L174 -22 Z " />
<glyph glyph-name="emacron" unicode="&#x113;" horiz-adv-x="461" d="M384 49 Q351 22 306 6 Q261 -10 216 -10 Q173 -10 137 5.5 Q101 21 74.5 47.5 Q48 74 33.5 110 Q19 146 19 187 Q19 236 39.5 280 Q60 324 94.5 357 Q129 390 174 409.5 Q219 429 267 429 Q338 429 385.5 386.5 Q433 344 447 275 Q414 264 372 248 Q330 232 285 214.5 Q240 197 195 180 Q150 163 111 149 Q125 115 154.5 94.5 Q184 74 224 74 Q251 74 279.5 84 Q308 94 328 111 L384 49 Z M342 295 Q333 320 308.5 332.5 Q284 345 257 345 Q227 345 199.5 333 Q172 321 151 301.5 Q130 282 118 257.5 Q106 233 106 208 L106 203 Q133 213 165 225.5 Q197 238 228.5 250.5 Q260 263 289.5 274.5 Q319 286 342 295 Z M161 483 L168 541 L402 541 L395 483 L161 483 Z " />
<glyph glyph-name="uni0123" unicode="&#x123;" horiz-adv-x="536" d="M20 184 Q20 236 40 280.5 Q60 325 93.5 358 Q127 391 171 410 Q215 429 263 429 Q297 429 322 420 Q347 411 364 399 Q381 387 390 375.5 Q399 364 401 359 Q403 373 406.5 388.5 Q410 404 412 418 L494 418 L445 19 Q432 -85 364 -143 Q296 -201 192 -201 Q156 -201 128.5 -193.5 Q101 -186 79.5 -174 Q58 -162 40 -146 Q22 -130 5 -113 L67 -55 Q94 -84 125 -101 Q156 -118 201 -118 Q268 -118 308.5 -86 Q349 -54 357 3 L361 32 Q362 40 365 49.5 Q368 59 369 64 Q358 52 343.5 38.5 Q329 25 309 14.5 Q289 4 264.5 -3 Q240 -10 210 -10 Q167 -10 132 5 Q97 20 72 46 Q47 72 33.5 107.5 Q20 143 20 184 Z M107 195 Q107 143 140 108.5 Q173 74 228 74 Q261 74 289.5 86 Q318 98 339 118.5 Q360 139 372 166.5 Q384 194 384 225 Q384 277 351 311 Q318 345 261 345 Q229 345 201 333.5 Q173 322 152 301.5 Q131 281 119 253.5 Q107 226 107 195 Z M245 507 L359 715 L441 715 Q415 663 389.5 611.5 Q364 560 337 507 L245 507 Z " />
<glyph glyph-name="tbar" unicode="&#x167;" horiz-adv-x="302" d="M59 483 L67 541 L127 541 L134 602 L219 602 L212 541 L301 541 L293 483 L204 483 L196 417 L308 417 L299 341 L187 341 L145 0 L60 0 L102 341 L27 341 L36 417 L111 417 L119 483 L59 483 Z " />
<glyph glyph-name="Amacron" unicode="&#x100;" horiz-adv-x="647" d="M611 0 Q607 14 596 50.5 Q585 87 569 139 Q553 191 534.5 253 Q516 315 496.5 379 Q477 443 458 505.5 Q439 568 423.5 619.5 Q408 671 397 708 Q386 745 382 759 L-34 0 L74 0 L186 208 L442 208 Q452 173 461.5 140.5 Q471 108 479 80.5 Q487 53 493.5 32 Q500 11 503 0 L611 0 Z M339 494 Q340 496 345 508 Q350 520 354 530 Q355 520 357 508 Q359 496 360 494 Q363 483 368.5 464 Q374 445 381.5 419.5 Q389 394 398 363.5 Q407 333 416 300 L235 300 L339 494 Z M267 785 L275 843 L509 843 L501 785 L267 785 Z " />
<glyph glyph-name="Iogonek" unicode="&#x12e;" horiz-adv-x="285" d="M142 725 L251 725 L162 0 L53 0 L142 725 Z M109 0 L53 0 L52 -7 Q50 -22 44.5 -30.5 Q39 -39 32.5 -44.5 Q26 -50 18 -53.5 Q10 -57 3 -62 Q-26 -82 -36.5 -105.5 Q-47 -129 -47 -158 Q-47 -177 -41 -194.5 Q-35 -212 -23 -226 Q-11 -240 7 -248.5 Q25 -257 50 -257 Q85 -257 116.5 -237.5 Q148 -218 167 -178 Q156 -172 143.5 -165.5 Q131 -159 120 -152 Q114 -168 100 -178.5 Q86 -189 66 -189 Q44 -189 33.5 -175.5 Q23 -162 23 -142 Q23 -119 35 -106.5 Q47 -94 61.5 -84 Q76 -74 89 -64 Q102 -54 104 -36 L109 0 Z " />
<glyph glyph-name="itilde" unicode="&#x129;" horiz-adv-x="203" d="M109 0 L24 0 L75 418 L160 418 L109 0 Z M119 509 Q105 524 94.5 529.5 Q84 535 70 535 Q56 535 37 526 Q18 517 12 489 L-37 492 Q-33 513 -22 530 Q-11 547 3.5 559 Q18 571 35 577.5 Q52 584 68 584 Q92 584 110 575 Q128 566 142 550 Q156 535 167 530 Q178 525 192 525 Q206 525 224.5 533.5 Q243 542 251 571 L298 568 Q295 547 284 530.5 Q273 514 258 502 Q243 490 226 483.5 Q209 477 194 477 Q149 477 119 509 Z " />
<glyph glyph-name="uni013C" unicode="&#x13c;" horiz-adv-x="204" d="M109 0 L24 0 L120 777 L205 777 L109 0 Z M113 -22 L-1 -230 L-83 -230 Q-57 -178 -31.5 -126.5 Q-6 -75 21 -22 L113 -22 Z " />
<glyph glyph-name="Edotaccent" unicode="&#x116;" horiz-adv-x="614" d="M53 0 L142 725 L618 725 L606 626 L240 626 L214 414 L540 414 L527 313 L201 313 L175 101 L555 101 L543 0 L53 0 Z M339 814 Q339 827 344.5 838 Q350 849 359 857 Q368 865 379 870 Q390 875 401 875 Q420 875 434.5 860.5 Q449 846 449 824 Q449 798 429 781 Q409 764 388 764 Q369 764 354 778 Q339 792 339 814 Z " />
<glyph glyph-name="Imacron" unicode="&#x12a;" horiz-adv-x="285" d="M142 725 L251 725 L162 0 L53 0 L142 725 Z M90 785 L98 843 L332 843 L324 785 L90 785 Z " />
<glyph glyph-name="uni0145" unicode="&#x145;" horiz-adv-x="811" d="M778 725 L685 -33 Q673 -15 638 25 Q603 65 557 116.5 Q511 168 459.5 225.5 Q408 283 362 334.5 Q316 386 282 426 Q248 466 238 484 L223 510 L222 478 L163 0 L53 0 L146 759 Q158 741 193 701 Q228 661 274 610 Q320 559 371.5 503 Q423 447 468.5 396.5 Q514 346 548.5 306.5 Q583 267 595 250 L610 222 L611 256 L669 725 L778 725 Z M425 -22 L312 -230 L230 -230 Q256 -178 281.5 -126.5 Q307 -75 333 -22 L425 -22 Z " />
<glyph glyph-name="uni0136" unicode="&#x136;" horiz-adv-x="645" d="M483 0 Q453 45 426.5 86 Q400 127 374 168 Q348 209 321.5 251 Q295 293 266 338 Q251 324 237 312.5 Q223 301 208 289 Q199 212 191.5 144.5 Q184 77 174 0 L53 0 L142 725 L263 725 L230 454 Q228 445 226 436.5 Q224 428 222 419 Q228 426 233.5 431.5 Q239 437 246 445 Q325 512 400 584.5 Q475 657 554 725 L693 725 Q608 647 525 568 Q442 489 357 411 Q393 357 425.5 306.5 Q458 256 489 206 Q520 156 551.5 105 Q583 54 618 0 L483 0 Z M369 -22 L256 -230 L174 -230 Q200 -178 225.5 -126.5 Q251 -75 277 -22 L369 -22 Z " />
<glyph glyph-name="uni0146" unicode="&#x146;" horiz-adv-x="507" d="M75 418 L150 418 Q148 387 147 361.5 Q146 336 144 311 Q174 365 220.5 397 Q267 429 329 429 Q392 429 425.5 394 Q459 359 454 304 L417 0 L331 0 L364 265 Q366 297 348.5 319.5 Q331 342 288 344 Q258 344 232 333.5 Q206 323 185.5 305 Q165 287 151.5 262 Q138 237 134 207 L109 0 L24 0 L75 418 Z M271 -22 L158 -230 L76 -230 Q102 -178 127.5 -126.5 Q153 -75 179 -22 L271 -22 Z " />
<glyph glyph-name="uni0137" unicode="&#x137;" horiz-adv-x="439" d="M374 429 L418 378 Q376 343 337.5 310 Q299 277 257 241 Q294 181 330 120.5 Q366 60 402 0 L304 0 Q276 47 247 92.5 Q218 138 190 185 L125 132 L109 0 L24 0 L119 777 L204 777 L137 232 Q200 283 256.5 330.5 Q313 378 374 429 Z M271 -22 L158 -230 L76 -230 Q102 -178 127.5 -126.5 Q153 -75 179 -22 L271 -22 Z " />
<glyph glyph-name="Omacron" unicode="&#x14c;" horiz-adv-x="815" d="M46 362 Q55 437 92.5 504.5 Q130 572 186.5 623 Q243 674 314 703.5 Q385 733 462 733 Q532 733 592.5 706.5 Q653 680 696.5 634 Q740 588 765 527.5 Q790 467 790 398 Q790 315 755 241.5 Q720 168 662 112.5 Q604 57 528.5 24.5 Q453 -8 371 -8 Q294 -8 230.5 21 Q167 50 122.5 100.5 Q78 151 57.5 218 Q37 285 46 362 Z M155 361 Q148 306 163 257.5 Q178 209 209.5 173 Q241 137 286.5 116 Q332 95 386 95 Q444 95 497.5 118.5 Q551 142 591.5 182 Q632 222 656.5 275.5 Q681 329 681 389 Q681 439 663.5 482.5 Q646 526 615.5 558.5 Q585 591 542.5 609.5 Q500 628 450 628 Q396 628 345.5 607 Q295 586 255 550 Q215 514 188.5 465 Q162 416 155 361 Z M354 785 L362 843 L596 843 L588 785 L354 785 Z " />
<glyph glyph-name="Umacron" unicode="&#x16a;" horiz-adv-x="712" d="M319 -8 Q261 -8 213.5 11 Q166 30 133 64.5 Q100 99 84.5 147.5 Q69 196 76 256 L134 725 L243 725 L186 259 Q182 224 191 194.5 Q200 165 219.5 142.5 Q239 120 267.5 107.5 Q296 95 332 95 Q367 95 399 107.5 Q431 120 456.5 142.5 Q482 165 498.5 194.5 Q515 224 519 259 L576 725 L687 725 L629 256 Q622 196 594.5 147.5 Q567 99 525 64.5 Q483 30 430 11 Q377 -8 319 -8 Z M302 785 L310 843 L544 843 L536 785 L302 785 Z " />
<glyph glyph-name="omacron" unicode="&#x14d;" horiz-adv-x="503" d="M21 210 Q27 255 49 295 Q71 335 105 364.5 Q139 394 181.5 411.5 Q224 429 271 429 Q314 429 350 413.5 Q386 398 411.5 371.5 Q437 345 451 309 Q465 273 465 233 Q465 183 445.5 139 Q426 95 392 62 Q358 29 312.5 9.5 Q267 -10 216 -10 Q170 -10 131.5 6 Q93 22 66.5 51 Q40 80 27.5 120.5 Q15 161 21 210 Z M106 209 Q102 181 109.5 156.5 Q117 132 133 113.5 Q149 95 172.5 84.5 Q196 74 224 74 Q254 74 282 85.5 Q310 97 331.5 117.5 Q353 138 366 165 Q379 192 379 222 Q379 248 370 270.5 Q361 293 344.5 309.5 Q328 326 305.5 335.5 Q283 345 257 345 Q229 345 203 334.5 Q177 324 156.5 305.5 Q136 287 122.5 262 Q109 237 106 209 Z M166 483 L173 541 L407 541 L400 483 L166 483 Z " />
<glyph glyph-name="umacron" unicode="&#x16b;" horiz-adv-x="506" d="M412 -9 L340 -9 L344 107 Q315 56 269.5 23 Q224 -10 160 -10 Q96 -10 62.5 24.5 Q29 59 34 115 L71 418 L156 418 L124 153 Q122 122 140 100 Q158 78 200 75 Q230 75 256 85.5 Q282 96 302.5 114 Q323 132 336 157 Q349 182 353 212 L378 418 L464 418 L412 -9 Z M158 483 L165 541 L399 541 L392 483 L158 483 Z " />
<glyph glyph-name="amacron" unicode="&#x101;" horiz-adv-x="536" d="M19 184 Q19 233 39.5 277.5 Q60 322 94.5 355.5 Q129 389 174 409 Q219 429 267 429 Q297 429 321 421.5 Q345 414 361.5 403 Q378 392 387.5 380 Q397 368 400 359 L411 418 L493 418 L442 0 L356 0 L363 53 Q357 45 344.5 34 Q332 23 313.5 13.5 Q295 4 270 -3 Q245 -10 214 -10 Q170 -10 134 5.5 Q98 21 72.5 47.5 Q47 74 33 109.5 Q19 145 19 184 Z M106 195 Q106 143 139 108.5 Q172 74 227 74 Q260 74 288.5 86 Q317 98 338 118.5 Q359 139 371 166.5 Q383 194 383 225 Q383 277 350 311 Q317 345 260 345 Q228 345 200 333.5 Q172 322 151 301.5 Q130 281 118 253.5 Q106 226 106 195 Z M177 483 L184 541 L418 541 L411 483 L177 483 Z " />
<glyph glyph-name="Uogonek" unicode="&#x172;" horiz-adv-x="712" d="M361 0 L305 0 L305 -7 Q250 -5 204.5 15 Q159 35 128 69 Q97 103 83 150.5 Q69 198 76 256 L134 725 L243 725 L186 259 Q182 224 191 194.5 Q200 165 219.5 142.5 Q239 120 267.5 107.5 Q296 95 332 95 Q367 95 399 107.5 Q431 120 456.5 142.5 Q482 165 498.5 194.5 Q515 224 519 259 L576 725 L687 725 L629 256 Q622 202 598.5 156.5 Q575 111 539 77 Q503 43 457.5 22 Q412 1 361 -5 L361 0 Z M319 -8 Q315 -8 312 -7.5 Q309 -7 305 -7 Q303 -22 298 -30.5 Q293 -39 286 -44.5 Q279 -50 271 -53.5 Q263 -57 256 -62 Q227 -82 216.5 -105.5 Q206 -129 206 -158 Q206 -177 212 -194.5 Q218 -212 230 -226 Q242 -240 260 -248.5 Q278 -257 303 -257 Q338 -257 369.5 -237.5 Q401 -218 420 -178 Q409 -172 396.5 -165.5 Q384 -159 373 -152 Q366 -168 352 -178.5 Q338 -189 318 -189 Q297 -189 286 -175.5 Q275 -162 275 -142 Q275 -119 287 -106.5 Q299 -94 314 -84 Q329 -74 342 -64 Q355 -54 357 -36 L361 -5 Q340 -8 319 -8 Z " />
<glyph glyph-name="imacron" unicode="&#x12b;" horiz-adv-x="203" d="M109 0 L24 0 L75 418 L160 418 L109 0 Z M9 483 L16 541 L250 541 L243 483 L9 483 Z " />
<glyph glyph-name="uogonek" unicode="&#x173;" horiz-adv-x="507" d="M395 0 L340 0 L344 107 Q315 56 269.5 23 Q224 -10 160 -10 Q96 -10 62.5 24.5 Q29 59 34 115 L71 418 L156 418 L124 153 Q122 122 140 100 Q158 78 200 75 Q230 75 256 85.5 Q282 96 302.5 114 Q323 132 336 157 Q349 182 353 212 L378 418 L464 418 L412 -9 L394 -9 L395 0 Z M340 0 L339 0 L338 -7 Q336 -22 330.5 -30.5 Q325 -39 318.5 -44.5 Q312 -50 304 -53.5 Q296 -57 289 -62 Q260 -82 249.5 -105.5 Q239 -129 239 -158 Q239 -177 245 -194.5 Q251 -212 263 -226 Q275 -240 293 -248.5 Q311 -257 336 -257 Q371 -257 403 -237.5 Q435 -218 453 -178 Q442 -172 429.5 -165.5 Q417 -159 406 -152 Q400 -168 386 -178.5 Q372 -189 352 -189 Q330 -189 319.5 -175.5 Q309 -162 309 -142 Q309 -119 321 -106.5 Q333 -94 348 -84 Q363 -74 376 -64 Q389 -54 391 -36 L394 -9 L340 -9 L340 0 Z " />
<glyph glyph-name="Utilde" unicode="&#x168;" horiz-adv-x="712" d="M319 -8 Q261 -8 213.5 11 Q166 30 133 64.5 Q100 99 84.5 147.5 Q69 196 76 256 L134 725 L243 725 L186 259 Q182 224 191 194.5 Q200 165 219.5 142.5 Q239 120 267.5 107.5 Q296 95 332 95 Q367 95 399 107.5 Q431 120 456.5 142.5 Q482 165 498.5 194.5 Q515 224 519 259 L576 725 L687 725 L629 256 Q622 196 594.5 147.5 Q567 99 525 64.5 Q483 30 430 11 Q377 -8 319 -8 Z M413 798 Q399 813 388.5 818.5 Q378 824 364 824 Q350 824 331 815 Q312 806 306 778 L257 781 Q261 802 272 819 Q283 836 297.5 848 Q312 860 329 866.5 Q346 873 362 873 Q386 873 404 864 Q422 855 436 839 Q450 824 461 819 Q472 814 486 814 Q500 814 518.5 822.5 Q537 831 545 860 L592 857 Q589 836 578 819.5 Q567 803 552 791 Q537 779 520 772.5 Q503 766 488 766 Q443 766 413 798 Z " />
<glyph glyph-name="utilde" unicode="&#x169;" horiz-adv-x="506" d="M412 -9 L340 -9 L344 107 Q315 56 269.5 23 Q224 -10 160 -10 Q96 -10 62.5 24.5 Q29 59 34 115 L71 418 L156 418 L124 153 Q122 122 140 100 Q158 78 200 75 Q230 75 256 85.5 Q282 96 302.5 114 Q323 132 336 157 Q349 182 353 212 L378 418 L464 418 L412 -9 Z M279 509 Q265 524 254.5 529.5 Q244 535 230 535 Q216 535 197 526 Q178 517 171 489 L122 492 Q126 513 137 530 Q148 547 163 559 Q178 571 195 577.5 Q212 584 228 584 Q252 584 270 575 Q288 566 302 550 Q316 535 326.5 530 Q337 525 351 525 Q365 525 383.5 533.5 Q402 542 410 571 L458 568 Q454 547 443 530.5 Q432 514 417.5 502 Q403 490 386 483.5 Q369 477 354 477 Q309 477 279 509 Z " />
<glyph glyph-name="edotaccent" unicode="&#x117;" horiz-adv-x="461" d="M384 49 Q351 22 306 6 Q261 -10 216 -10 Q173 -10 137 5.5 Q101 21 74.5 47.5 Q48 74 33.5 110 Q19 146 19 187 Q19 236 39.5 280 Q60 324 94.5 357 Q129 390 174 409.5 Q219 429 267 429 Q338 429 385.5 386.5 Q433 344 447 275 Q414 264 372 248 Q330 232 285 214.5 Q240 197 195 180 Q150 163 111 149 Q125 115 154.5 94.5 Q184 74 224 74 Q251 74 279.5 84 Q308 94 328 111 L384 49 Z M342 295 Q333 320 308.5 332.5 Q284 345 257 345 Q227 345 199.5 333 Q172 321 151 301.5 Q130 282 118 257.5 Q106 233 106 208 L106 203 Q133 213 165 225.5 Q197 238 228.5 250.5 Q260 263 289.5 274.5 Q319 286 342 295 Z M229 573 Q229 599 249 616.5 Q269 634 291 634 Q309 634 323.5 619.5 Q338 605 338 583 Q338 557 318 540 Q298 523 277 523 Q258 523 243.5 537 Q229 551 229 573 Z " />
<glyph glyph-name="iogonek" unicode="&#x12f;" horiz-adv-x="202" d="M83 573 Q83 599 103.5 616.5 Q124 634 146 634 Q164 634 178.5 619.5 Q193 605 193 583 Q193 557 173 540 Q153 523 132 523 Q113 523 98 537 Q83 551 83 573 Z M109 0 L24 0 L75 418 L160 418 L109 0 Z M80 0 L24 0 L23 -7 Q21 -22 15.5 -30.5 Q10 -39 3.5 -44.5 Q-3 -50 -11 -53.5 Q-19 -57 -26 -62 Q-55 -82 -65.5 -105.5 Q-76 -129 -76 -158 Q-76 -177 -70 -194.5 Q-64 -212 -52 -226 Q-40 -240 -22 -248.5 Q-4 -257 21 -257 Q56 -257 87.5 -237.5 Q119 -218 138 -178 Q127 -172 114.5 -165.5 Q102 -159 91 -152 Q85 -168 71 -178.5 Q57 -189 37 -189 Q15 -189 4.5 -175.5 Q-6 -162 -6 -142 Q-6 -119 6 -106.5 Q18 -94 32.5 -84 Q47 -74 60 -64 Q73 -54 75 -36 L80 0 Z " />
<glyph glyph-name="ellipsis" unicode="&#x2026;" horiz-adv-x="549" d="M26 50 Q26 63 32 74.5 Q38 86 47 94.5 Q56 103 67.5 108 Q79 113 91 113 Q109 113 124 98 Q139 83 139 61 Q139 34 118.5 17 Q98 0 77 0 Q57 0 41.5 13.5 Q26 27 26 50 Z M192 50 Q192 63 198 74.5 Q204 86 213 94.5 Q222 103 233.5 108 Q245 113 256 113 Q275 113 289.5 98.5 Q304 84 304 61 Q304 34 284 17 Q264 0 242 0 Q222 0 207 13.5 Q192 27 192 50 Z M358 50 Q358 63 364 74.5 Q370 86 379 94.5 Q388 103 399.5 108 Q411 113 422 113 Q441 113 455.5 98.5 Q470 84 470 61 Q470 34 450 17 Q430 0 408 0 Q388 0 373 13.5 Q358 27 358 50 Z " />
<glyph glyph-name="perthousand" unicode="&#x2030;" horiz-adv-x="1042" d="M489 108 Q489 92 497.5 81.5 Q506 71 523 71 Q544 71 556 84.5 Q568 98 568 118 Q568 133 559 143 Q550 153 533 153 Q513 153 501 140 Q489 127 489 108 Z M512 -18 Q487 -18 465.5 -9 Q444 0 428.5 15.5 Q413 31 404 52.5 Q395 74 395 99 Q395 128 407.5 154 Q420 180 440.5 199.5 Q461 219 488 230.5 Q515 242 544 242 Q569 242 590 233 Q611 224 627 208 Q643 192 652 170.5 Q661 149 661 125 Q661 95 648.5 69 Q636 43 615 23.5 Q594 4 567 -7 Q540 -18 512 -18 Z M144 389 Q144 374 153.5 363.5 Q163 353 180 353 Q200 353 212 366.5 Q224 380 224 399 Q224 415 215.5 425 Q207 435 190 435 Q169 435 156.5 422 Q144 409 144 389 Z M169 264 Q144 264 122.5 273 Q101 282 85.5 298 Q70 314 61 335.5 Q52 357 52 382 Q52 411 64.5 436.5 Q77 462 97.5 481.5 Q118 501 145 512.5 Q172 524 201 524 Q226 524 247 515 Q268 506 283.5 490 Q299 474 308 453 Q317 432 317 408 Q317 378 304.5 352 Q292 326 271.5 306.5 Q251 287 224 275.5 Q197 264 169 264 Z M122 0 Q214 128 305 253.5 Q396 379 487 507 L588 507 Q497 379 405.5 253.5 Q314 128 223 0 L122 0 Z M814 108 Q814 92 822.5 81.5 Q831 71 848 71 Q869 71 881 84.5 Q893 98 893 118 Q893 133 884 143 Q875 153 858 153 Q838 153 826 140 Q814 127 814 108 Z M837 -18 Q812 -18 790.5 -9 Q769 0 753.5 15.5 Q738 31 729 52.5 Q720 74 720 99 Q720 128 732.5 154 Q745 180 765.5 199.5 Q786 219 813 230.5 Q840 242 869 242 Q894 242 915 233 Q936 224 952 208 Q968 192 977 170.5 Q986 149 986 125 Q986 95 973.5 69 Q961 43 940 23.5 Q919 4 892 -7 Q865 -18 837 -18 Z " />
<glyph glyph-name="circumflex" unicode="&#x2c6;" horiz-adv-x="450" d="M317 669 Q342 623 366.5 577.5 Q391 532 417 486 L353 486 Q350 492 343 502.5 Q336 513 328.5 524.5 Q321 536 314.5 547 Q308 558 305 564 Q300 558 290.5 547 Q281 536 271 524.5 Q261 513 251.5 502.5 Q242 492 238 486 L173 486 Q209 532 245.5 577.5 Q282 623 317 669 Z " />
<glyph glyph-name="tilde" unicode="&#x2dc;" horiz-adv-x="598" d="M376 509 Q362 524 351.5 529.5 Q341 535 327 535 Q313 535 294 526 Q275 517 269 489 L220 492 Q224 513 235 530 Q246 547 260.5 559 Q275 571 292 577.5 Q309 584 325 584 Q349 584 367 575 Q385 566 399 550 Q413 535 424 530 Q435 525 449 525 Q463 525 481.5 533.5 Q500 542 508 571 L555 568 Q552 547 541 530.5 Q530 514 515 502 Q500 490 483 483.5 Q466 477 451 477 Q406 477 376 509 Z " />
<glyph glyph-name="fi" unicode="&#xfb01;" horiz-adv-x="563" d="M30 334 L40 418 L111 418 L123 516 Q139 647 208.5 710.5 Q278 774 391 777 L381 695 Q303 691 261.5 645 Q220 599 209 514 L197 418 L521 418 L470 0 L384 0 L425 334 L187 334 L146 0 L60 0 L101 334 L30 334 Z " />
<glyph glyph-name="fl" unicode="&#xfb02;" horiz-adv-x="550" d="M30 335 L40 419 L111 419 L123 516 Q139 647 208.5 710.5 Q278 774 391 777 L551 777 L456 0 L371 0 L456 695 L381 695 Q303 691 261.5 645 Q220 599 209 514 L197 419 L329 419 L319 335 L187 335 L146 0 L60 0 L101 335 L30 335 Z " />
<glyph glyph-name="ring" unicode="&#x2da;" horiz-adv-x="520" d="M310 538 Q310 525 318.5 516.5 Q327 508 341 508 Q357 508 369 519 Q381 530 381 546 Q381 560 372 569 Q363 578 350 578 Q333 578 321.5 566.5 Q310 555 310 538 Z M259 536 Q259 555 267 571.5 Q275 588 288.5 601 Q302 614 319.5 621.5 Q337 629 356 629 Q388 629 409 606.5 Q430 584 430 552 Q430 533 422 516 Q414 499 400.5 486 Q387 473 370 465.5 Q353 458 335 458 Q302 458 280.5 481 Q259 504 259 536 Z " />
<glyph glyph-name="fraction" unicode="&#x2044;" horiz-adv-x="361" d="M-41 0 Q53 192 146.5 382.5 Q240 573 335 765 L427 765 L51 0 L-41 0 Z " />
<glyph glyph-name="florin" unicode="&#x192;" horiz-adv-x="363" d="M200 335 L171 95 Q155 -37 86 -100 Q17 -163 -96 -167 L-86 -85 Q-8 -80 33 -34 Q74 12 85 97 L114 335 L44 335 L54 419 L125 419 L137 516 Q153 647 222 710.5 Q291 774 405 777 L395 695 Q317 691 275.5 645 Q234 599 223 514 L211 419 L343 419 L333 335 L200 335 Z " />
<glyph glyph-name="dagger" unicode="&#x2020;" horiz-adv-x="348" d="M94 2 L140 380 L66 380 L77 469 L151 469 L169 615 L261 615 L243 469 L316 469 L305 380 L232 380 L186 2 L94 2 Z " />
<glyph glyph-name="daggerdbl" unicode="&#x2021;" horiz-adv-x="387" d="M112 2 L138 211 L34 211 L45 301 L149 301 L159 380 L85 380 L96 469 L170 469 L188 615 L280 615 L262 469 L335 469 L324 380 L251 380 L241 301 L346 301 L335 211 L230 211 L204 2 L112 2 Z " />
<glyph glyph-name="trademark" unicode="&#x2122;" horiz-adv-x="586" d="M312 768 Q316 760 332 733.5 Q348 707 366 677 Q384 647 399.5 621 Q415 595 419 588 L571 768 L538 498 L497 498 L515 644 Q515 647 516 650 Q517 653 517 655 L411 525 Q408 530 396.5 549.5 Q385 569 372 591.5 Q359 614 348 633 Q337 652 336 655 L336 644 L318 498 L279 498 L312 768 Z M265 757 L260 720 L194 720 L167 498 L129 498 L156 720 L92 720 L97 757 L265 757 Z " />
<glyph glyph-name="minus" unicode="&#x2212;" horiz-adv-x="485" d="M410 161 L45 161 L56 251 L421 251 L410 161 Z " />
<glyph glyph-name="integral" unicode="&#x222b;" horiz-adv-x="333" d="M163 637 Q169 684 181.5 708.5 Q194 733 212 743.5 Q230 754 252.5 755 Q275 756 300 756 L367 756 L357 667 L314 667 Q298 667 287 663.5 Q276 660 268.5 648.5 Q261 637 256 617 Q251 597 247 564 L173 -35 Q167 -81 154 -105 Q141 -129 123 -139.5 Q105 -150 82.5 -151 Q60 -152 36 -152 L-30 -152 L-19 -62 L24 -62 Q39 -62 50 -58 Q61 -54 68.5 -43 Q76 -32 81 -11.5 Q86 9 90 42 L163 637 Z " />
<glyph glyph-name="product" unicode="&#x220f;" horiz-adv-x="490" d="M142 -78 L51 -78 L154 760 L453 760 L350 -78 L259 -78 L351 672 L234 672 L142 -78 Z " />
<glyph glyph-name="pi" unicode="&#x3c0;" horiz-adv-x="441" d="M179 265 L146 0 L54 0 L87 265 L31 265 L42 354 L417 354 L406 265 L351 265 L318 0 L227 0 L260 265 L179 265 Z " />
<glyph glyph-name="Euro" unicode="&#x20ac;" horiz-adv-x="540" d="M54 406 L123 406 Q140 469 170 517.5 Q200 566 239.5 599 Q279 632 326 649.5 Q373 667 424 667 Q461 667 491 658.5 Q521 650 541 637 L490 556 Q473 567 454.5 572.5 Q436 578 410 578 Q369 578 337 565 Q305 552 281 529 Q257 506 240.5 474.5 Q224 443 214 406 L424 406 L418 357 L205 357 L204 350 Q202 336 201.5 323 Q201 310 200 298 L411 298 L405 250 L202 250 Q207 204 221.5 172 Q236 140 256.5 119.5 Q277 99 301 90 Q325 81 349 81 Q389 81 430 106 L465 22 Q406 -8 338 -8 Q289 -8 247.5 9 Q206 26 175 58.5 Q144 91 125.5 139 Q107 187 105 250 L36 250 L42 298 L106 298 Q106 306 107 315 Q108 324 109 333 Q110 339 110.5 345 Q111 351 113 357 L48 357 L54 406 Z " />
<glyph glyph-name="lessequal" unicode="&#x2264;" horiz-adv-x="545" d="M488 342 L473 217 L61 473 L535 728 L520 604 L278 473 L488 342 Z M414 57 L49 57 L60 147 L425 147 L414 57 Z " />
<glyph glyph-name="greaterequal" unicode="&#x2265;" horiz-adv-x="554" d="M84 342 L326 473 L116 604 L131 728 L543 473 L69 217 L84 342 Z M59 147 L424 147 L413 57 L48 57 L59 147 Z " />
<glyph glyph-name="notequal" unicode="&#x2260;" horiz-adv-x="666" d="M603 396 L592 306 L406 306 L303 199 L579 199 L568 109 L215 109 Q181 74 149.5 42.5 Q118 11 92 -16 L45 30 L122 109 L55 109 L66 199 L211 199 L315 306 L79 306 L90 396 L403 396 L547 544 L593 497 L494 396 L603 396 Z " />
<glyph glyph-name="approxequal" unicode="&#x2248;" horiz-adv-x="449" d="M204 193 Q190 208 179.5 213.5 Q169 219 155 219 Q141 219 122 210 Q103 201 97 173 L48 176 Q52 197 63 214 Q74 231 88.5 243 Q103 255 120 261.5 Q137 268 153 268 Q177 268 195 259 Q213 250 227 234 Q241 219 252 214 Q263 209 277 209 Q291 209 309.5 217.5 Q328 226 336 255 L383 252 Q380 231 369 214.5 Q358 198 343 186 Q328 174 311 167.5 Q294 161 279 161 Q234 161 204 193 Z M223 342 Q209 357 199 362.5 Q189 368 175 368 Q161 368 142 359 Q123 350 116 322 L67 325 Q71 346 82 363 Q93 380 108 392 Q123 404 140 410.5 Q157 417 173 417 Q197 417 215 408 Q233 399 247 383 Q261 368 271.5 363 Q282 358 296 358 Q310 358 328.5 366.5 Q347 375 355 404 L403 401 Q399 380 388 363.5 Q377 347 362 335 Q347 323 330 316.5 Q313 310 298 310 Q253 310 223 342 Z " />
<glyph glyph-name="summation" unicode="&#x2211;" horiz-adv-x="495" d="M139 4 L397 4 L414 -85 L7 -85 L174 338 L111 760 L518 760 L479 672 L221 672 L273 338 L139 4 Z " />
<glyph glyph-name="Omega" unicode="&#x2126;" horiz-adv-x="668" d="M32 89 L154 89 Q117 114 91 159.5 Q65 205 65 283 Q65 365 89.5 426.5 Q114 488 156 529 Q198 570 254 590 Q310 610 373 610 Q444 610 493.5 586.5 Q543 563 572.5 522 Q602 481 611 426 Q620 371 610 308 Q602 264 588 229.5 Q574 195 556 168.5 Q538 142 517 122.5 Q496 103 474 89 L589 89 L578 0 L360 0 L371 89 Q429 113 468 171 Q507 229 517 306 Q522 345 517.5 383.5 Q513 422 496 452.5 Q479 483 447.5 502 Q416 521 366 521 Q314 521 277 501 Q240 481 215 450 Q190 419 176.5 381.5 Q163 344 159 311 Q153 270 159 234.5 Q165 199 179 171 Q193 143 214.5 122 Q236 101 261 89 L250 0 L21 0 L32 89 Z " />
<glyph glyph-name="radical" unicode="&#x221a;" horiz-adv-x="527" d="M28 350 L149 350 L219 135 L492 616 L556 616 L202 -4 L102 297 L20 297 L28 350 Z " />
<glyph glyph-name="Delta" unicode="&#x2206;" horiz-adv-x="416" d="M265 739 L376 257 L36 257 L265 739 Z M126 311 L301 311 L245 572 L126 311 Z " />
<glyph glyph-name="lozenge" unicode="&#x25ca;" horiz-adv-x="415" d="M48 367 L264 739 L388 367 L172 -4 L48 367 Z M113 367 L190 135 L324 367 L247 600 L113 367 Z " />
<glyph glyph-name="infinity" unicode="&#x221e;" horiz-adv-x="506" d="M340 216 Q312 216 288 225 Q264 234 249 251 Q229 234 201.5 225 Q174 216 147 216 Q123 216 106 224 Q89 232 78 244 Q67 256 62 271 Q57 286 57 300 Q57 316 64 333.5 Q71 351 85 365.5 Q99 380 120 389.5 Q141 399 170 399 Q197 399 221.5 389.5 Q246 380 262 363 Q282 380 309 389.5 Q336 399 363 399 Q387 399 404 391.5 Q421 384 431.5 372 Q442 360 447 345 Q452 330 452 316 Q452 300 445 282.5 Q438 265 424.5 250 Q411 235 389.5 225.5 Q368 216 340 216 Z M229 308 Q229 325 209.5 334.5 Q190 344 164 344 Q138 344 125 332.5 Q112 321 112 302 Q112 289 121 279.5 Q130 270 155 270 Q168 270 181 273 Q194 276 204.5 281 Q215 286 222 293 Q229 300 229 308 Z M356 344 Q330 344 309 332.5 Q288 321 283 307 L282 304 Q282 288 303 279 Q324 270 347 270 Q376 270 387 283 Q398 296 398 312 Q398 326 388 335 Q378 344 356 344 Z " />
</font>
</svg>
