<svg xmlns="http://www.w3.org/2000/svg" viewBox="-8000.206 1031.641 12.611 25.019"><defs><style>.a{fill:#fff;}</style></defs><g transform="translate(-8000.105 1031.641)"><g transform="translate(-0.1)"><path class="a" d="M7.629,19.12v5.7c0,.2,0,.2-.2.2H3.154c-.2,0-.2,0-.2-.2V13.425c0-.2,0-.2-.2-.2H-.1c.2,0,.2,0,.2-.2V9.153c0-.2,0-.2.2-.2H3.154c.2,0,.2,0,.2-.2V5.289a6.018,6.018,0,0,1,.407-2.034A4.75,4.75,0,0,1,5.8.814,3.861,3.861,0,0,1,7.629.2,1.524,1.524,0,0,1,8.646,0H12.1s.2,0,0,.2v1.22h0V4.068H8.646a1.373,1.373,0,0,0-.814,1.22V8.95c0,.2,0,.2.2.2h4.475v4.271H8.24c-.2,0-.2,0-.2.2A24.093,24.093,0,0,0,7.629,19.12Z" transform="translate(0.1)"/></g></g></svg>