<svg xmlns="http://www.w3.org/2000/svg" viewBox="-4257 1054 6.2 12.3"><defs><style>.a{fill:#555;}</style></defs><g transform="translate(-4256.9 1054)"><path class="a" d="M3.7,9.4v2.8c0,.1,0,.1-.1.1H1.5c-.1,0-.1,0-.1-.1V6.6c0-.1,0-.1-.1-.1H-.1c.1,0,.1,0,.1-.1V4.5c0-.1,0-.1.1-.1H1.5c.1,0,.1,0,.1-.1V2.6a2.959,2.959,0,0,1,.2-1A2.335,2.335,0,0,1,2.8.4,1.9,1.9,0,0,1,3.7.1.749.749,0,0,1,4.2,0H5.9S6,0,5.9.1V.7h0V2H4.2a.675.675,0,0,0-.4.6V4.4c0,.1,0,.1.1.1H6.1V6.6H4c-.1,0-.1,0-.1.1A11.845,11.845,0,0,0,3.7,9.4Z"/></g></svg>