<svg xmlns="http://www.w3.org/2000/svg" viewBox="-4106 1054 12.2 12.3"><defs><style>.a,.b{fill:#555;}.b{fill-rule:evenodd;}</style></defs><g transform="translate(-4211.5 1054)"><path class="a" d="M108.1,0h.1a.1.1,0,0,1,.1.1V2.9c0,.1,0,.1.1.1h.3c.1,0,.1,0,.1-.1V.1c0-.1,0-.1.1-.1h6.5a.9.9,0,0,1,.5.1,2.577,2.577,0,0,1,1.3.8,1.606,1.606,0,0,1,.5,1.1V4c0,.1,0,.1-.1.1H114c-.1,0-.1,0-.2-.1a1.756,1.756,0,0,0-.5-.4,3.365,3.365,0,0,0-2.2-.4,3.465,3.465,0,0,0-1.6.8h-3.9c-.1,0-.1,0-.1-.1V2.2a2.354,2.354,0,0,1,.2-.8,2.361,2.361,0,0,1,.8-.9h0V3c0,.1,0,.1.1.1h.3c.1,0,.1,0,.1-.1V.3c0-.1,0-.1.1-.1s.1-.1.2-.1.1,0,.1.1V3c0,.1,0,.1.1.1h.3c.1,0,.1,0,.1-.1V.3C108,0,108,0,108.1,0Zm6.5,2.1h0v.7a.43.43,0,0,0,.4.4h1.3a.43.43,0,0,0,.4-.4V1.5a.43.43,0,0,0-.4-.4H115a.366.366,0,0,0-.4.4Z"/><path class="b" d="M109.1,4.5a3.153,3.153,0,0,0,.5,4.1,3.034,3.034,0,0,0,3.9.2,3.249,3.249,0,0,0,.7-4.2h3.4c.1,0,.1,0,.1.1V10a2.452,2.452,0,0,1-.6,1.6,2.389,2.389,0,0,1-1.3.7H108a2.346,2.346,0,0,1-2.3-1.8,1.268,1.268,0,0,1-.1-.6V4.6c0-.1,0-.1.1-.1h3.4Z"/><path class="b" d="M111.7,4.1a2.1,2.1,0,1,1-2.1,2.1A2.112,2.112,0,0,1,111.7,4.1Zm1.5,2.1a1.473,1.473,0,0,0-1.5-1.5,1.538,1.538,0,0,0-1.5,1.5,1.561,1.561,0,0,0,1.6,1.5A1.524,1.524,0,0,0,113.2,6.2Z"/></g></svg>