<svg xmlns="http://www.w3.org/2000/svg" xmlns:xlink="http://www.w3.org/1999/xlink" viewBox="-7098.581 237.515 267 82.347"><defs><style>.a{fill:#fff;}.b{filter:url(#m);}.c{filter:url(#k);}.d{filter:url(#i);}.e{filter:url(#g);}.f{filter:url(#e);}.g{filter:url(#c);}.h{filter:url(#a);}</style><filter id="a" x="-7072.371" y="237.515" width="51.945" height="81.168" filterUnits="userSpaceOnUse"><feOffset input="SourceAlpha"/><feGaussianBlur stdDeviation="3" result="b"/><feFlood flood-opacity="0.851"/><feComposite operator="in" in2="b"/><feComposite in="SourceGraphic"/></filter><filter id="c" x="-7037.642" y="261.366" width="52.336" height="58.364" filterUnits="userSpaceOnUse"><feOffset input="SourceAlpha"/><feGaussianBlur stdDeviation="3" result="d"/><feFlood flood-opacity="0.851"/><feComposite operator="in" in2="d"/><feComposite in="SourceGraphic"/></filter><filter id="e" x="-6999.243" y="243.634" width="51.288" height="76.228" filterUnits="userSpaceOnUse"><feOffset input="SourceAlpha"/><feGaussianBlur stdDeviation="3" result="f"/><feFlood flood-opacity="0.851"/><feComposite operator="in" in2="f"/><feComposite in="SourceGraphic"/></filter><filter id="g" x="-6962.024" y="261.235" width="60.592" height="57.447" filterUnits="userSpaceOnUse"><feOffset input="SourceAlpha"/><feGaussianBlur stdDeviation="3" result="h"/><feFlood flood-opacity="0.851"/><feComposite operator="in" in2="h"/><feComposite in="SourceGraphic"/></filter><filter id="i" x="-6915.238" y="254.945" width="42.769" height="64.655" filterUnits="userSpaceOnUse"><feOffset input="SourceAlpha"/><feGaussianBlur stdDeviation="3" result="j"/><feFlood flood-opacity="0.851"/><feComposite operator="in" in2="j"/><feComposite in="SourceGraphic"/></filter><filter id="k" x="-7098.581" y="271.833" width="50.501" height="46.456" filterUnits="userSpaceOnUse"><feOffset input="SourceAlpha"/><feGaussianBlur stdDeviation="3" result="l"/><feFlood flood-opacity="0.851"/><feComposite operator="in" in2="l"/><feComposite in="SourceGraphic"/></filter><filter id="m" x="-6887.324" y="261.235" width="55.743" height="58.495" filterUnits="userSpaceOnUse"><feOffset input="SourceAlpha"/><feGaussianBlur stdDeviation="3" result="n"/><feFlood flood-opacity="0.851"/><feComposite operator="in" in2="n"/><feComposite in="SourceGraphic"/></filter></defs><g transform="translate(-8033 160)"><g class="h" transform="matrix(1, 0, 0, 1, 8033, -160)"><path class="a" d="M125.811,774.977,104.973,721.9A100.868,100.868,0,0,0,99.6,732.384s18.216,44.689,18.216,47.31c0,3.538-7.47,5.373-7.47,5.373h23.2C133.674,785.068,127.776,780.088,125.811,774.977Z" transform="translate(-7162.97 -475.39)"/></g><g class="g" transform="matrix(1, 0, 0, 1, 8033, -160)"><path class="a" d="M160.436,767.752c-3.145,7.6-7.732,12.712-16.513,12.712-11.795,0-17.823-10.091-17.823-20.968,0-10.485,8.518-19.4,19-19.4,4.98,0,14.547,2.883,14.547,9.174,0,2.1-.917,3.669-3.276,3.669-6.159,0-1.311-11.139-11.139-11.139-8.781,0-11.533,9.829-11.533,17.037,0,8.256,4.063,16.906,13.367,17.168C154.538,775.878,160.436,767.752,160.436,767.752Z" transform="translate(-7154.74 -469.73)"/></g><g class="f" transform="matrix(1, 0, 0, 1, 8033, -160)"><path class="a" d="M175.844,751.379c0-3.538-2.228-4.587-5.5-4.587-3.145,0-7.863,1.966-7.863,4.325,0,.524.131,1.049.131,1.966,0,3.407-.655,5.766-4.587,5.766a2.893,2.893,0,0,1-2.621-3.014c0-1.966,1.311-3.8,3.145-5.373,4.063-3.407,10.484-6.159,15.726-6.159,5.373,0,8.387,3.276,8.387,8.649V776.8c0,1.573,0,4.194,2.1,4.194,2.621,0,3.932-3.014,3.932-3.014-.393,4.325-2.228,6.815-6.553,6.815a6.52,6.52,0,0,1-6.16-6.16c-4.194,3.145-7.077,6.16-12.581,6.16a7.832,7.832,0,0,1-7.863-7.6c0-9.829,13.236-12.843,20.444-15.989v-9.829ZM160.9,728.837a1.958,1.958,0,0,1,2.49-2.228c2.359.262,4.063,5.242,7.994,8.519a41.97,41.97,0,0,0,4.325,2.621S161.428,736.045,160.9,728.837Zm14.94,34.2c-4.063,1.835-14.285,4.718-14.285,10.222a6.411,6.411,0,0,0,6.422,6.684c3.407,0,5.373-1.573,7.863-3.539Z" transform="translate(-7145.64 -473.94)"/></g><g class="e" transform="matrix(1, 0, 0, 1, 8033, -160)"><path class="a" d="M183.8,779.447s5.111-1.966,5.111-6.553V750.746c0-3.407-1.311-4.718-4.325-5.635v-.917c4.063-1.18,7.6-2.752,11.4-4.194v6.815c3.669-3.8,6.553-6.815,12.057-6.815,6.422,0,12.974,5.111,12.974,11.795v20.968c0,4.587,5.373,6.553,5.373,6.553h-17.43s5.111-1.966,5.111-6.553V753.105c0-5.635-3.145-9.3-8.912-9.3-3.8,0-9.174,3.8-9.174,7.863v21.1c0,4.587,4.98,6.553,4.98,6.553H183.8Z" transform="translate(-7136.82 -469.76)"/></g><g class="d" transform="matrix(1, 0, 0, 1, 8033, -160)"><path class="a" d="M230.9,746.864v23.459c0,4.456,1.311,7.077,6.159,7.077,2.883,0,7.208-3.145,7.208-3.145s-3.932,7.6-11.139,7.6c-6.422,0-9.043-4.849-9.043-10.615V746.864H219.5v-.786c3.8-3.67,7.863-6.946,11.27-10.877h.131v7.208h13.236l-2.1,4.456Z" transform="translate(-7125.74 -471.26)"/></g><g class="c" transform="matrix(1, 0, 0, 1, 8033, -160)"><path class="a" d="M79.6,776.543l15.6-.131s-2.621-1.7-2.752-2.752c-.393-4.849,5.9-18.216,10.353-21.755a16.416,16.416,0,0,1,9.3-3.539s-7.863-1.048-12.45.917c-7.47,3.014-12.188,19.527-17.037,25.293A13.822,13.822,0,0,1,79.6,776.543Z" transform="translate(-7169.18 -467.25)"/></g><g class="b" transform="matrix(1, 0, 0, 1, 8033, -160)"><path class="a" d="M259.41,740c11.664,0,19.134,9.043,19.134,20.314,0,11.532-7.339,20.182-19,20.182-11.926,0-18.741-9.174-18.741-20.444C240.8,749.174,248.4,740,259.41,740Zm.131,38.661c8.518,0,11.4-9.3,11.4-16.251,0-7.6-1.048-20.706-11.271-20.706-8.78,0-11.271,11.926-11.271,18.61C248.4,767.128,250.891,778.661,259.541,778.661Z" transform="translate(-7119.12 -469.76)"/></g></g></svg>