<svg xmlns="http://www.w3.org/2000/svg" viewBox="-4264 166 111.685 28.862"><defs><style>.a{fill:#333;}</style></defs><g transform="translate(-4264 166)"><path class="a" d="M111.356,745.706,102.01,721.9a45.238,45.238,0,0,0-2.41,4.7s8.171,20.044,8.171,21.22c0,1.587-3.351,2.41-3.351,2.41h10.4C114.883,750.233,112.238,748,111.356,745.706Z" transform="translate(-87.844 -721.9)"/><path class="a" d="M141.5,752.5c-1.411,3.409-3.468,5.7-7.406,5.7-5.29,0-7.994-4.526-7.994-9.4a8.682,8.682,0,0,1,8.523-8.7c2.234,0,6.525,1.293,6.525,4.115,0,.941-.411,1.646-1.47,1.646-2.763,0-.588-5-5-5-3.938,0-5.173,4.409-5.173,7.642,0,3.7,1.822,7.583,6,7.7C138.856,756.147,141.5,752.5,141.5,752.5Z" transform="translate(-98.767 -729.402)"/><path class="a" d="M164.57,737.7c0-1.587-1-2.057-2.469-2.057-1.411,0-3.527.882-3.527,1.94,0,.235.059.47.059.882,0,1.528-.294,2.586-2.057,2.586A1.3,1.3,0,0,1,155.4,739.7a3.387,3.387,0,0,1,1.411-2.41,12.141,12.141,0,0,1,7.054-2.763c2.41,0,3.762,1.469,3.762,3.88v10.7c0,.705,0,1.881.941,1.881,1.176,0,1.763-1.352,1.763-1.352-.176,1.94-1,3.057-2.939,3.057a2.925,2.925,0,0,1-2.763-2.763c-1.881,1.411-3.174,2.763-5.643,2.763a3.513,3.513,0,0,1-3.527-3.409c0-4.409,5.937-5.761,9.17-7.171V737.7Zm-6.7-10.11a.878.878,0,0,1,1.117-1c1.058.118,1.822,2.351,3.586,3.821a18.828,18.828,0,0,0,1.94,1.176S158.1,730.82,157.869,727.587Zm6.7,15.342c-1.822.823-6.407,2.116-6.407,4.585a2.876,2.876,0,0,0,2.88,3,5.307,5.307,0,0,0,3.527-1.587Z" transform="translate(-110.844 -723.825)"/><path class="a" d="M183.8,757.693s2.292-.882,2.292-2.939V744.82a2.259,2.259,0,0,0-1.94-2.528v-.411c1.822-.529,3.409-1.234,5.114-1.881v3.057c1.646-1.7,2.939-3.057,5.408-3.057,2.88,0,5.819,2.293,5.819,5.29V754.7c0,2.057,2.41,2.939,2.41,2.939h-7.818s2.292-.882,2.292-2.939v-8.817c0-2.528-1.411-4.174-4-4.174-1.7,0-4.115,1.7-4.115,3.527V754.7c0,2.057,2.234,2.939,2.234,2.939h-7.7Z" transform="translate(-122.55 -729.361)"/><path class="a" d="M224.614,740.432v10.522c0,2,.588,3.174,2.763,3.174a7.62,7.62,0,0,0,3.233-1.411s-1.763,3.409-5,3.409c-2.88,0-4.056-2.175-4.056-4.761V740.432H219.5v-.353c1.7-1.646,3.527-3.115,5.055-4.879h.059v3.233h5.937l-.941,2Z" transform="translate(-137.265 -727.382)"/><path class="a" d="M79.6,760.85l6.995-.059s-1.176-.764-1.234-1.234c-.176-2.175,2.645-8.171,4.644-9.758a7.363,7.363,0,0,1,4.173-1.587s-3.527-.47-5.584.411c-3.351,1.352-5.467,8.758-7.642,11.345A6.2,6.2,0,0,1,79.6,760.85Z" transform="translate(-79.6 -732.694)"/><g transform="translate(94.756 10.639)"><path class="a" d="M249.147,740c5.232,0,8.582,4.056,8.582,9.111,0,5.173-3.292,9.052-8.523,9.052-5.349,0-8.406-4.115-8.406-9.17C240.8,744.115,244.209,740,249.147,740Zm.059,17.341c3.821,0,5.114-4.174,5.114-7.289,0-3.409-.47-9.287-5.055-9.287-3.938,0-5.055,5.349-5.055,8.347C244.209,752.168,245.326,757.341,249.206,757.341Z" transform="translate(-240.8 -740)"/></g></g></svg>