<svg xmlns="http://www.w3.org/2000/svg" viewBox="-4187.524 1053.935 21.348 12.43"><defs><style>.a{fill:#555;}</style></defs><g transform="translate(-4187.524 1053.935)"><path class="a" d="M0,7.413v-.78A6.575,6.575,0,0,1,.223,5.518,4.832,4.832,0,0,1,1,4.013.077.077,0,0,0,1,3.9a3.784,3.784,0,0,0-.39-1.115,3.16,3.16,0,0,0-.446-.725L.111,2.007H3.735a.055.055,0,0,0,.056-.056,2.575,2.575,0,0,1,.39-.39A5.968,5.968,0,0,1,5.351.836,6.638,6.638,0,0,1,7.135.279,13.143,13.143,0,0,1,8.7.056C9.141.056,9.531,0,9.922,0h1.839c.223,0,.446.056.725.056.334.056.725.056,1.059.111a10.437,10.437,0,0,1,1.784.446,5.425,5.425,0,0,1,1.282.613,2.728,2.728,0,0,1,.725.669h.056c.056,0,.167.056.223.056h3.456v.056a3.092,3.092,0,0,0-.334.446,8.206,8.206,0,0,0-.557,1.226v.056A5.462,5.462,0,0,1,20.9,4.961a5.541,5.541,0,0,1,.446,1.9v.78a7.892,7.892,0,0,1-.223,1.115,4.846,4.846,0,0,1-1.5,2.285,4.676,4.676,0,0,1-1.561,1,6,6,0,0,1-1.728.39,5.1,5.1,0,0,1-.948-.056,5.811,5.811,0,0,1-1.9-.613,5.636,5.636,0,0,1-1.561-1.226c-.056-.056-.056-.056-.111,0-.334.557-.669,1.115-.948,1.616-.056.056-.056.056-.056,0-.39-.557-.78-1.059-1.171-1.616-.056-.056-.056-.056-.056,0a1.3,1.3,0,0,1-.39.39,5.968,5.968,0,0,1-1.226.836,4.9,4.9,0,0,1-2.007.557h-1A4.469,4.469,0,0,1,3.79,12.04,5.5,5.5,0,0,1,.39,8.472C.111,8.361.056,8.026,0,7.636ZM15.83,2.843a4.292,4.292,0,1,0,4.292,4.292A4.294,4.294,0,0,0,15.83,2.843ZM1.059,7.135A4.292,4.292,0,1,0,5.351,2.843,4.294,4.294,0,0,0,1.059,7.135Zm4.4-5.017H5.8a4.219,4.219,0,0,1,.836.056,7.95,7.95,0,0,1,1.5.5A4.03,4.03,0,0,1,9.81,4.348a11.251,11.251,0,0,1,.78,1.672c0,.111.056.167.056.279V6.243a7.573,7.573,0,0,1,.613-1.561,6.317,6.317,0,0,1,1.226-1.5,4.333,4.333,0,0,1,3.233-1h.111l-.111-.111a3.734,3.734,0,0,0-1-.613A8.273,8.273,0,0,0,12.43.78,10.824,10.824,0,0,0,11.092.669a13.583,13.583,0,0,0-1.5.056A4.879,4.879,0,0,0,8.7.836a7.417,7.417,0,0,0-1.9.557,2.833,2.833,0,0,0-1.226.613A.12.12,0,0,0,5.462,2.118Z"/><path class="a" d="M26.364,13.328A2.593,2.593,0,0,1,23.8,10.764a2.564,2.564,0,1,1,2.564,2.564Zm0-4.348a1.784,1.784,0,1,0,0,3.567,1.761,1.761,0,0,0,1.784-1.784A1.8,1.8,0,0,0,26.364,8.98Z" transform="translate(-10.534 -3.629)"/><path class="a" d="M7.564,13.328A2.557,2.557,0,0,1,5,10.764,2.593,2.593,0,0,1,7.564,8.2a2.564,2.564,0,1,1,0,5.128Zm0-4.348A1.8,1.8,0,0,0,5.78,10.764a1.784,1.784,0,1,0,3.567,0A1.8,1.8,0,0,0,7.564,8.98Z" transform="translate(-2.213 -3.629)"/><path class="a" d="M27.692,12.984a.892.892,0,1,1,.892-.892A.88.88,0,0,1,27.692,12.984Z" transform="translate(-11.862 -4.957)"/><path class="a" d="M8.892,12.984a.892.892,0,1,1,.892-.892A.88.88,0,0,1,8.892,12.984Z" transform="translate(-3.541 -4.957)"/></g></svg>